<svg height="80" width="80" xmlns="http://www.w3.org/2000/svg"><path d="M42.549 51.149H38.25m17.9 13.601V69m0-35.75v4.25M39.699 63.75c-.9.632-1.849 1.25-2.849 1.849-.533.367-1.084.717-1.651 1.05a391.772 391.772 0 01-3.449 1.95L31.1 69h-.25l-.6-.401a26.453 26.453 0 01-2.15-1.2c-4.166-2.399-7.734-4.899-10.7-7.5-.601-.5-1.15-1.017-1.65-1.55a.992.992 0 01-.301-.349c-.265-.267-.533-.534-.799-.8a3.855 3.855 0 01-.601-.651c-2.966-3.233-5.082-6.65-6.35-10.25a19.361 19.361 0 01-1.4-5.049A19.354 19.354 0 016 37.899V20.45c0-1.034.217-1.767.65-2.2.399-.334 1.167-.684 2.299-1.05l19.1-5.551c1.4-.433 2.367-.649 2.9-.649.534 0 1.551.216 3.051.649L53.1 17.2c1.133.366 1.9.716 2.3 1.05.5.433.75 1.166.75 2.2v9.599m17.899 21.1h-4.25m2.801-7.35c.967 2.234 1.449 4.684 1.449 7.35 0 4.934-1.75 9.134-5.25 12.601C65.333 67.25 61.116 69 56.15 69c-4.933 0-9.15-1.75-12.65-5.25-3.5-3.467-5.25-7.667-5.25-12.601C38.25 46.216 40 42 43.5 38.5s7.717-5.25 12.65-5.25c4.433 0 8.284 1.399 11.549 4.2M50.1 48.599l5.349 5.75a.643.643 0 00.25.151c.301.132.6.083.901-.151l13.55-13.75 4.1-4.2" fill="none" stroke="#4e22d0" stroke-linecap="round" stroke-linejoin="round" stroke-width="1.5"/></svg>