<svg width="80" height="80" xmlns="http://www.w3.org/2000/svg"><path d="M67.35 50.95H12.651m54.699-32.3H12.651M43.75 66.3c3.6.334 7 1.167 10.201 2.5m-17.75-2.5c1.2-.133 2.45-.2 3.75-.2 1.299 0 2.566.067 3.799.2v-6.05M25.951 68.8c3.2-1.333 6.616-2.166 10.25-2.5v-6.05M42.3 30.4l-5-5.05m4.3 13.7l5-4.95m23.9-.15V16.7c0-3.133-1.599-4.7-4.799-4.7h-51.5C11.067 12 9.5 13.567 9.5 16.7v36.2c0 3.167 1.567 4.75 4.701 4.75H65.8c3.033 0 4.601-1.483 4.7-4.45v-9.75c-.097-2.837-1.597-4.304-4.5-4.4H41.6l5 5.05m-9.3-8.75l5-4.95H19.55" stroke="#4E22D0" stroke-width="1.5" fill="none" stroke-linecap="round" stroke-linejoin="round"/></svg>