<svg height="80" width="80" xmlns="http://www.w3.org/2000/svg"><g stroke="#4e22d0" stroke-width="1.5" fill="none" fill-rule="evenodd" stroke-linecap="round" stroke-linejoin="round"><path d="M40.03 33.814a7.87 7.87 0 00-1.4.09 5.76 5.76 0 00-4.6 6.71 5.6 5.6 0 002.45 3.59 5.43 5.43 0 004.25.95 5.1 5.1 0 001.3-.4 5.47 5.47 0 002.4-2c.262-.41.48-.845.65-1.3l11.9-4.59-.2-1.05H44.03a5.07 5.07 0 00-1.1-1 5.88 5.88 0 00-2.9-1zm-.35 4.19c.39-.017.77.128 1.05.4a1.5 1.5 0 01.45 1.1 1.35 1.35 0 01-.45 1.06 1.31 1.31 0 01-1.05.44 1.49 1.49 0 01-1.1-.44 1.47 1.47 0 01-.4-1.06 1.38 1.38 0 011.5-1.5zm13.55-21.94l-2.55 4.34m12.4 5.46l-4.35 2.5m-19.05-15.86v5m-13.65-1.39l2.5 4.34m-12.35 5.61l4.35 2.5m8.55 33.84c.592.6 1.406.93 2.25.91h16.7a3.15 3.15 0 002.25-5.41 3.09 3.09 0 00-2.25-.9h-16.7a3.15 3.15 0 00-2.25 5.4zm-16.4-22.9h5m49-.1h-5m-46.91 15.46c16.74-5.8 33.256-5.853 49.55-.16"/><path d="M62.28 16.814c10.908 10.806 12.652 27.818 4.164 40.613-8.488 12.795-24.84 17.802-39.037 11.953C13.21 63.532 5.13 48.46 8.117 33.4 11.105 18.337 24.325 7.49 39.68 7.503a30.89 30.89 0 0122.6 9.31z"/></g></svg>