<svg height="80" width="80" xmlns="http://www.w3.org/2000/svg"><path d="M28.25 18.1a11.17 11.17 0 012-4.75 11 11 0 0119.55 4.5l.4 2.5h17.55a2.32 2.32 0 012.6 2.65v36.35a2.3 2.3 0 01-2.6 2.6H13a2.32 2.32 0 01-2.65-2.6V23A2.34 2.34 0 0113 20.35h31.8c0-.47-.08-.95-.15-1.45a5.8 5.8 0 00-2.25-3.7 5.56 5.56 0 00-4.25-1.05 5.48 5.48 0 00-3.7 2.3 5.19 5.19 0 00-.85 1.65m34.15 6.25h-14.4m-3.15-4l4.95 31.45c.33 2.07-.53 3.27-2.6 3.6L37.1 57.85c-2.07.33-3.27-.53-3.6-2.6l-3.1-19.8c-.4-2.37.48-3.83 2.65-4.4h.15l.4-.1a22.58 22.58 0 006.45-2 9.44 9.44 0 003.1-2.65 9.28 9.28 0 001.65-6m-4.25 4H13m33.4 13.5a6 6 0 012.3 4 5.57 5.57 0 01-1.2 4.4 5.79 5.79 0 01-3.95 2.35 6 6 0 01-4.45-1.2 5.84 5.84 0 01-2.3-3.95 5.71 5.71 0 011.2-4.45 5.63 5.63 0 014-2.3 5.8 5.8 0 014.4 1.2zm-7.3 9.55l7.3-9.55M4.65 71.3H76.2a1.88 1.88 0 001.5-.7v-2.5H3v2.5a2.46 2.46 0 001.65.75zm73.05-3.2L70.5 65H10.05L3 68.1" fill="none" stroke="#4e22d0" stroke-linecap="round" stroke-linejoin="round" stroke-width="1.5"/></svg>