<svg height="80" width="80" xmlns="http://www.w3.org/2000/svg"><path d="M31.5 14.8l2.75 2.75M43.1 10v3.8M59 63h6.2c2.527 0 3.827-1.233 3.9-3.7V36.7a3.89 3.89 0 00-.3-1.7 4.44 4.44 0 00-3.55-2.45l-.4-.1-6.8-1.15-.35-.05-2.25-.4-.8-3.55c-.767-3.373-2.767-5.057-6-5.05h-11.2c-3.2 0-5.2 1.7-6 5.1l-.8 3.5L15 32.7c-1.93.17-3.17.93-3.7 2.3a4.792 4.792 0 00-.3 1.7v22.6c.1 2.467 1.383 3.7 3.85 3.7h12.2M43 32.6a17.5 17.5 0 0112.35 29.9l-.5.5A16.89 16.89 0 0143 67.6 16.69 16.69 0 0131.15 63c-.2-.17-.38-.33-.55-.5A17.53 17.53 0 0143 32.6zm0 8.5a8.54 8.54 0 016.35 2.65 9 9 0 11-12.7 0 8.54 8.54 0 016.45-2.65zm-23.45-3a2.56 2.56 0 012.5 2.5 2.48 2.48 0 01-2.5 2.5 2.53 2.53 0 01-1.8-.7 2.45 2.45 0 01-.75-1.8 2.39 2.39 0 01.75-1.75 2.45 2.45 0 011.9-.75zM11 59.3v7.95c.1 2.427 1.383 3.643 3.85 3.65H65.1c2.527 0 3.827-1.217 3.9-3.65V59.3M54.75 14.75L52 17.5m13.3 15.05l.5-3-7.2-1.25-.5 3" fill="none" stroke="#4e22d0" stroke-linecap="round" stroke-linejoin="round" stroke-width="1.5"/></svg>