<svg height="80" width="80" xmlns="http://www.w3.org/2000/svg"><path d="M35.888 9.203l11 2.9a5.88 5.88 0 014 3l19.7 34.1a2.18 2.18 0 01-.85 3.25l-30.55 17.6a2.19 2.19 0 01-3.25-.85l-25.55-44.25a2.28 2.28 0 01.85-3.3l20.75-11.95a4.84 4.84 0 013.9-.5zm4 27.1l3-1.75 1.6 2.75 6.55-3.8-2.8-4.85c-2-3.066-4.583-3.716-7.75-1.95l-4.65 2.7zm-4-6.9l-4.6 2.65c-3.1 1.874-3.783 4.407-2.05 7.6l2.8 4.85 6.45-3.7-1.6-2.75 3-1.75m-4.6 13.85l2.85 4.9c1.9 3.1 4.45 3.784 7.65 2.05l4.6-2.65-4-6.95-3 1.75-1.6-2.8-6.45 3.7-3.25-5.65m9.7 1.95l-3.25-5.65m11.9 13.65l4.65-2.7c3.1-1.933 3.817-4.5 2.15-7.7l-2.85-4.9-6.55 3.8 1.6 2.8-3 1.75m4.75-14l3.25 5.65m-9.8-1.85l3.25 5.65" fill="none" stroke="#4e22d0" stroke-linecap="round" stroke-linejoin="round" stroke-width="1.5"/></svg>