<svg height="80" width="80" xmlns="http://www.w3.org/2000/svg"><g fill="none" fill-rule="evenodd"><path d="M0 0h80v80H0z"/><path d="M19.07 42.35v12.8c0 3.773 1.9 5.657 5.7 5.65h30.45c3.84 0 5.75-1.88 5.75-5.65V24.6c0-3.76-1.91-5.65-5.75-5.65H24.77c-3.7 0-5.6 1.8-5.7 5.4v13.2h6V24.87h29.9v30h-29.9v-12.5h-6v-4.8m6 0h11v-1.7h7.95v8h-7.95v-1.5h-11m11 0v-4.8M47.9 16.5V7h4.8v9.5m-14.8 0V7h4.8v9.5m-10 0V7h-4.8v9.5m35.55 21.05h3.85l2.6 2.65H75V45h-5.1l-2.6-2.65h-3.85m0-14.75h3.85l2.6 2.65H75v4.8h-5.1l-2.6-2.65h-3.85m0 15.1h3.85l2.6 2.7H75v4.75h-5.1l-2.6-2.65h-3.85m-30.7 11.05v9.4h-4.8v-9.4m9.95 0v9.4h4.8v-9.4m5.2 0v9.4h4.8v-9.4M16.55 27.6h-3.8l-2.7 2.65H5v4.8h5.07l2.7-2.65h3.8m0 9.95h-3.8L10.07 45H5.02v-4.8h5.05l2.7-2.65h3.8m0 9.95h-3.8l-2.7 2.7H5.02v4.75h5.05l2.7-2.65h3.8" stroke="#4e22d0" stroke-linecap="round" stroke-linejoin="round" stroke-width="1.5"/></g></svg>