<svg height="80" width="80" xmlns="http://www.w3.org/2000/svg"><path d="M10.35 51H73v-8.3H7V51h3.4v7.7h59.15V51M10.4 58.7v6.1a2.68 2.68 0 003 2.9h53.3a2.62 2.62 0 002.9-2.9v-6.1m-62.55-16L18.8 29.8h7.1a8.75 8.75 0 014.4-2 9.11 9.11 0 015.82 2h2.43c2.5-2.46 4.93-3.87 7.3-4.25a7.4 7.4 0 014.38.87l3.17-5.47L49 15.5l2-3.5 11.3 6.55-2 3.5-6.85-1.1m-3.17 5.47a18.85 18.85 0 014.5 3.38h6.42L73 42.7M47.4 31.1v1.2m-11.23-2.5c.482.339.942.706 1.38 1.1.35-.39.7-.76 1-1.1m-1 1.1c.3.23 1 .81 2 1.75m6.8 3.6v1m5-4.2v1.2m-31.45 2a31.45 31.45 0 016-6.45m2.45 3.4v1.2m26.38-4.6a47.85 47.85 0 015.37 6.45" fill="none" stroke="#4e22d0" stroke-linecap="round" stroke-linejoin="round" stroke-width="1.5"/></svg>