<svg height="80" width="80" xmlns="http://www.w3.org/2000/svg"><path d="M51.361 49h-2.196zM40.024 37.95v3.651zm0 7.7c.9 0 1.65.317 2.248.951.666.666.999 1.432.999 2.299 0 .9-.333 1.65-1 2.25-.597.667-1.347 1-2.247 1-.832 0-1.58-.333-2.247-1-.631-.6-.949-1.35-.949-2.25 0-.867.318-1.633.95-2.299.665-.634 1.414-.951 2.246-.951zm8.091-4.7c2.165 2.167 3.246 4.817 3.246 7.95v.1c-.033 3.101-1.131 5.75-3.296 7.95-2.263 2.2-4.944 3.3-8.04 3.3-3.129 0-5.793-1.1-7.991-3.3-2.198-2.233-3.295-4.917-3.295-8.05s1.097-5.799 3.295-8c2.198-2.233 4.862-3.35 7.99-3.35 3.097 0 5.778 1.117 8.041 3.35l.05.05-1.647 1.55zm-22.474-7.4c3.996-3.8 8.791-5.699 14.383-5.699 5.594 0 10.405 1.899 14.435 5.699m-24.623-19.3c2.53-2.533 5.461-3.95 8.79-4.25h2.848c3.329.3 6.291 1.717 8.888 4.25l.4.351 1.548 1.849c1.498 2.333 2.248 4.883 2.248 7.651l-.1 9.449c.132.134.266.283.4.45C58.952 38.101 61 43.067 61 48.9s-2.047 10.817-6.143 14.951C50.762 67.95 45.817 70 40.024 70c-5.826 0-10.786-2.05-14.882-6.149C21.047 59.717 19 54.733 19 48.9s2.047-10.799 6.142-14.9a6.15 6.15 0 01.5-.45l-.15-9.3c.1-3.967 1.548-7.3 4.344-10z" fill="none" stroke="#4e22d0" stroke-linecap="round" stroke-linejoin="round" stroke-width="1.5"/></svg>