<svg fill="none" height="80" width="80" xmlns="http://www.w3.org/2000/svg"><g stroke="#4e22d0" stroke-linecap="round" stroke-linejoin="round" stroke-width="1.5"><path d="M63.134 26.95v1.7m7.872-1.7v1.7m-3.987-1.7v1.7M42.85 50l.202 1.851c.204 1.399.741 3.682 1.614 6.849a64.194 64.194 0 003.635 9.1l.1.2h-7.316c-.808-1.167-1.733-2.816-2.775-4.95l-.809-1.699.204 1.699.049.15c.1 1.533.32 3.133.657 4.8h-3.937c-.571-1.066-1.295-2.717-2.17-4.95l-1.41-4.199a85.245 85.245 0 000 4.199c0 1.634.083 3.283.252 4.95h-15.24l.152-10.851c-.706 2.467-1.328 4.434-1.866 5.901-.74 1.967-1.48 3.617-2.219 4.95H4c2.893-5.733 4.66-11.733 5.5-18M76 32.4v25.55c-.033 2.434-1.261 3.65-3.683 3.65H48.45"/><path clip-rule="evenodd" d="M25.897 12c1.581 0 2.979.55 4.189 1.649 1.143 1.134 1.714 2.518 1.714 4.151l-2.068 18.9h12.31c.71.067 1.396.401 2.07 1 .538.533.825 1.166.858 1.901V47.2H7.432v-7.65c.033-.734.319-1.366.857-1.901.672-.599 1.362-.899 2.068-.899H21.96l-2.067-18.899c0-1.634.572-3.018 1.714-4.151 1.213-1.099 2.608-1.667 4.189-1.7z"/><path d="M33.818 23.05h38.499c2.422.066 3.65 1.3 3.683 3.7v5.65H53.094l-1.513-5.8H37.755l-1.514 5.8H32.81"/><path clip-rule="evenodd" d="M25.897 15.851c-.605 0-1.11.182-1.514.548a2.159 2.159 0 00-.656 1.452l.051.349c.1.434.304.8.605 1.1.405.467.91.7 1.514.7.605 0 1.094-.233 1.465-.7.368-.401.553-.883.553-1.449a2.07 2.07 0 00-.553-1.452c-.405-.366-.893-.548-1.465-.548z"/></g></svg>