<svg height="80" width="80" xmlns="http://www.w3.org/2000/svg"><g fill="none" fill-rule="evenodd"><path d="M0 0h80v80H0z"/><path d="M78.99 37.587c.114 8.47-.674 14.16-2.365 17.072a11.56 11.56 0 01-3.593 3.693A52.028 52.028 0 0166.318 62a52.337 52.337 0 01-6.634-3.562.574.574 0 01-.126-.086 11.713 11.713 0 01-3.524-3.693 11.961 11.961 0 01-1.148-2.936c-.906-3.215-1.316-7.927-1.228-14.136a28.619 28.619 0 006.84-.838c.397-.085.776-.182 1.149-.296 2.295-.646 3.858-1.406 4.688-2.28.93 1.037 2.873 1.906 5.83 2.605 2.233.546 4.525.818 6.824.81zM61.651 26.592a1.476 1.476 0 00-.422-1.256c-.332-.33-.8-.485-1.265-.42H44.758a1.498 1.498 0 00-1.265.42c-.332.33-.489.795-.423 1.256v1.71h18.582zm0 6.755v-5.073m-9.755 23.45H43.07v5.032c0 1.094.534 1.653 1.602 1.71h10.903M48.115 22.3v-1.077c0-1.482-.733-2.223-2.198-2.223H8.977c-1.492 0-2.238.741-2.238 2.223v27.143c0 1.455.746 2.183 2.238 2.183h31.218m0 5.204H1v2.097c.374.362.873.566 1.395.57h37.8m0-5.289H6.957L1 55.753m42.07-27.48v23.45m-23.86-17.96l5.739 6.127c.37.25.857.25 1.228 0l10.387-10.687M48.98 55.12h4.017" stroke="#4e22d0" stroke-linecap="round" stroke-linejoin="round" stroke-width="1.5"/></g></svg>