<svg height="80" width="80" xmlns="http://www.w3.org/2000/svg"><path d="M11.9 35.4a27.07 27.07 0 017.95-15.5 27.62 27.62 0 0120.2-8.3L35.4 7m-.05 61.1c-13.729-2.337-23.778-14.224-23.8-28.15L7 44.5m9.2 0l-4.65-4.55m13.45 2l9.65 9.6c.67.67 1.38.63 2.15-.1l18.25-18.3a.92.92 0 000-1.4l-3.45-3.5a1 1 0 00-1.5.05l-6.3 6.3a.16.16 0 00-.05.1l-5.85 5.85c-1 1-1.53 1.57-1.6 1.6a1.26 1.26 0 01-1.65-.3L29.9 37a1 1 0 00-1.5.05l-3.4 3.4a.94.94 0 00-.04 1.5zm19.55 21.8L40 68.4c13.906-.07 25.745-10.136 28.05-23.85m-23.5-32.6a27.07 27.07 0 0115.5 7.95 27.38 27.38 0 018.3 20.1L73 35.35M40.05 11.6l-4.65 4.6m28.35 19.15l4.6 4.65M40 68.4l4.55 4.6" fill="none" stroke="#4e22d0" stroke-linecap="round" stroke-linejoin="round" stroke-width="1.5"/></svg>