<svg height="80" width="80" xmlns="http://www.w3.org/2000/svg"><g fill="none" fill-rule="evenodd"><path d="M0 0h80v80H0z"/><path d="M70.7 19.85l6.3-2-6.3-2.25-2-6.6-2 6.6-6.3 2.25 6.3 2 2 6.6zm-9.9 5.8V59a2.32 2.32 0 01-2.6 2.65H12.45A2.34 2.34 0 019.8 59V25.7c0-1.8.92-2.7 2.65-2.7H58.2c1.73 0 2.6.85 2.6 2.65zM72.3 36l1-3.9 3.7-1.2-3.7-1.5-1-3.9-1.2 3.9-3.65 1.5 3.65 1.2zM61.45 64.7h-51.4l-7 3h65.7zM3 67.7v2.5a2.46 2.46 0 001.65.7H67.2a1.88 1.88 0 001.5-.7v-2.5M25.55 40.55l6.8 7.3a1.4 1.4 0 001.45 0L46.1 35.1" stroke="#4e22d0" stroke-linecap="round" stroke-linejoin="round" stroke-width="1.5"/></g></svg>