<svg height="80" width="80" xmlns="http://www.w3.org/2000/svg"><g fill="none" fill-rule="evenodd"><path d="M0 0h80v80H0z"/><path d="M36.57 43.253l6.65-6.65 1.35-5.3 6.2-6.2-1.15-4c-.74-2.66-.34-4.7 1.2-6.1l7.5-7.5a1.7 1.7 0 011.25-.5 2.14 2.14 0 011.55.55l2.25 2.25c.331.34.542.779.6 1.25a1.91 1.91 0 01-.6 1.4l-12.6 12.6m-7.55 11.5l5.35-1.25 6.25-6.25 12.55-12.55a2 2 0 011.45-.6 1.83 1.83 0 011.3.6l2.3 2.3a2 2 0 01.5 1.35c-.037.497-.23.969-.55 1.35l-7.6 7.6c-1.37 1.44-3.4 1.8-6.1 1.1l-3.85-1.15m9.6 3.85a30.74 30.74 0 011.7 10.3c-.022 16.315-13.258 29.527-29.573 29.52C20.232 72.716 7.007 59.491 7 43.176c-.007-16.315 13.205-29.55 29.52-29.573 3.53-.03 7.037.58 10.35 1.8m5.55 20.6a17.61 17.61 0 011.45 7.2 16.94 16.94 0 01-5.2 12.4c-6.833 6.602-17.667 6.602-24.5 0a17.23 17.23 0 01-5-12.4 17.16 17.16 0 0117.35-17.35 16.3 16.3 0 017.45 1.7m-2.4 14.65a2.34 2.34 0 000 .55v.45a5.12 5.12 0 01-5.1 5.1 4.78 4.78 0 01-3.6-1.5 4.91 4.91 0 01-1.5-3.6 5 5 0 011.5-3.65 4.89 4.89 0 013.6-1.45c.184.004.368.02.55.05.168.002.335.02.5.05m29.15-25.1l-14 13.9" stroke="#4e22d0" stroke-linecap="round" stroke-linejoin="round" stroke-width="1.5"/></g></svg>