<svg height="80" width="80" xmlns="http://www.w3.org/2000/svg"><path d="M49.564 11.607a2 2 0 01-.3 1.7 1.8 1.8 0 01-1.3 1l-.5.1-23.9 6.45-7.35 2-1.85.5-1 .25-.8.2-.75.2a3.08 3.08 0 01-1.75-.25 2.45 2.45 0 01-1-1.35 2.3 2.3 0 01.25-1.7 2.14 2.14 0 011.4-1l.75-.2 34.9-9.4.5-.1a1.92 1.92 0 011.65.25 2.1 2.1 0 011.05 1.35zm-34.45 21.25v25.75c0 4.24 1.75 6.723 5.25 7.45a12.22 12.22 0 002.45.2h17.85a16.61 16.61 0 01-3.05-9.85c.001-.92.068-1.84.2-2.75v-17a1.5 1.5 0 013 0v9.8a18 18 0 011.75-2 17.33 17.33 0 015-3.5v-8.05m-6.9 33.35a19.57 19.57 0 001.9 2.2c6.658 6.6 17.392 6.6 24.05 0a17 17 0 00-12-29 16.74 16.74 0 00-7.1 1.5m16 16.95a5 5 0 00.2-1.45 8.47 8.47 0 00-1.15-4.4 8.1 8.1 0 00-1.45-2 9 9 0 00-6.5-2.7 9.08 9.08 0 00-3.05.5 9.23 9.23 0 00-3.35 2.2l5.45 1.05m-8 3.85c0 .47-.05.94-.05 1.4a8.81 8.81 0 002.65 6.5 9 9 0 006.4 2.55 10.61 10.61 0 003.15-.45 9.61 9.61 0 003.35-2.1l-5.4-1.1m5.4 1.1l-1.1 5.35m-11.85-18.15l1.15-5.45m-30.1-30.55c-.6-2.33 0-4 1.75-4.95a7.17 7.17 0 011.4-.55l8.7-2.3c2.8-.767 4.607.183 5.42 2.85 0 .1 0 .2.08.3m-14.75 27.2v21.45a1.5 1.5 0 003 0v-21.4a1.5 1.5 0 00-3 0zm-10.7-8.8h40.4m-21.7 8.8v21.45a1.5 1.5 0 003 0v-21.4a1.5 1.5 0 00-3 0zm11 9.8a15.75 15.75 0 00-3 7.2" fill="none" stroke="#4e22d0" stroke-linecap="round" stroke-linejoin="round" stroke-width="1.5"/></svg>