<svg height="80" width="80" xmlns="http://www.w3.org/2000/svg"><g stroke="#4e22d0" stroke-width="1.5" fill="none" fill-rule="evenodd" stroke-linecap="round" stroke-linejoin="round"><path d="M24.926 38.84l-11.25 8a2 2 0 01-1.65.45 1.68 1.68 0 01-1.1-.85l-6.7-15.15a2.22 2.22 0 01-.15-1.55 1.78 1.78 0 01.85-1.15 2.48 2.48 0 011.5-.15l4.45 1.15a1.62 1.62 0 001-.1 1.39 1.39 0 00.55-.65 27.56 27.56 0 0112.75-14.95c13.018-7.4 29.507-3.974 38.5 8 .453.536.732 1.2.8 1.9a2.36 2.36 0 01-.85 1.55l-3.65 2.5a2.37 2.37 0 01-3.75-.7l-.65-.9m-2.3 16.3l13.05-9.4a2.41 2.41 0 011.7-.45c.483.148.882.493 1.1.95l6.65 15.15c.225.448.278.964.15 1.45a1.61 1.61 0 01-.85 1.15 1.84 1.84 0 01-1.4.15l-4.5-1.15a1.36 1.36 0 00-1 .1 1.56 1.56 0 00-.6.65 27.86 27.86 0 01-12.8 14.95 28.5 28.5 0 01-22.3 3 29.11 29.11 0 01-16.15-10.9 3.3 3.3 0 01-.85-1.9 2.27 2.27 0 01.9-1.6l3.6-2.5c1.433-.974 2.716-.674 3.85.9a19.3 19.3 0 0010.95 7.4c9.73 2.507 19.866-2.287 24.1-11.4a1.46 1.46 0 00.05-.65 1 1 0 00-.25-.55 1.4 1.4 0 00-.6-.35l-4.65-1.3a2 2 0 01-1.05-.8 1.86 1.86 0 01-.15-1.55 2.06 2.06 0 011.05-1.3zm-28.3-17.35a22.5 22.5 0 00-3.9 5.75 1.36 1.36 0 000 .75c.039.184.125.356.25.5a1 1 0 00.55.35l3.3.85"/><path d="M52.876 39.79V26.14c0-2.6-1.34-3.92-4-3.95h-2.31v-1.1c0-2.7-1.334-4.05-4-4.05h-4.7c-2.667 0-3.984 1.35-3.95 4.05v1.1h-2.35c-2.64 0-3.95 1.3-3.95 3.9v27.4m25.25.2v-4.75"/><path d="M40.376 31.14l-3.45 10.75 7.65-2.2-3.56 10.7"/></g></svg>