<svg height="80" width="80" xmlns="http://www.w3.org/2000/svg"><g fill="none" fill-rule="evenodd"><path d="M0 0h80v80H0z"/><path d="M4 22.213h4.2l3.8-6.3h15.65l3.7 6.3h28v-7.1c0-1.5-.45-2.43-1.35-2.8a3.34 3.34 0 00-1.7-.3H7.2a4.7 4.7 0 00-1.9.3c-.87.43-1.3 1.37-1.3 2.8zm9.5 34.8H6.65A2.65 2.65 0 014 54.563v-32.35m55.3 0v8.8m0-2.65H4m38.55 28.65h-7.1m18.65-40.7v1.9m-10-1.9v1.9m5-1.9v1.9m-16.7 38.85l-5.85-4.85-10.15-8.35v20.8l5.4-4.15 3.3 7.05 1.45-.75 2.5-1.3-2.5-5.4-.75-1.5zm12.35-19.5a1.27 1.27 0 00-.5.45 1.44 1.44 0 00-.15.65v11.45c.028.67.095 1.337.2 2 .13.832.33 1.651.6 2.45.107.392.24.776.4 1.15a18.8 18.8 0 002.85 4.65c.63.77 1.25 1.45 1.85 2.05a35 35 0 006.85 5.15c.43.23.85.47 1.25.7l.2.1c.111.061.229.111.35.15.148.029.299.046.45.05a1.83 1.83 0 00.4-.05 1.93 1.93 0 00.35-.15l.2-.1 1.3-.7a33.4 33.4 0 006.8-5.15c.6-.6 1.23-1.28 1.9-2.05a18.8 18.8 0 002.85-4.65c.1-.3.23-.68.4-1.15.27-.799.47-1.618.6-2.45.105-.663.172-1.33.2-2v-11.45a1.44 1.44 0 00-.15-.65 1.27 1.27 0 00-.5-.45 30.17 30.17 0 00-14.15-3.7h-.45a30.07 30.07 0 00-14.1 3.7z" stroke="#4e22d0" stroke-linecap="round" stroke-linejoin="round" stroke-width="1.5"/></g></svg>