<svg height="80" width="80" xmlns="http://www.w3.org/2000/svg"><path d="M22.85 10h-6c-4.573 0-6.857 2.283-6.85 6.85v6m60 0v-6c0-4.567-2.283-6.85-6.85-6.85h-6M20 40h27v-3.35a2.55 2.55 0 01.85-2 2.5 2.5 0 011.9-.8 2.79 2.79 0 012 .8 2.87 2.87 0 01.75 2V40h7.55m-7.55 0v3.45a2.57 2.57 0 01-.75 1.9 2.68 2.68 0 01-2 .85A2.92 2.92 0 0147 43.45V40M30.25 22.95a2.73 2.73 0 00-2.75 2.75v6.8a2.5 2.5 0 00.8 1.9 2.55 2.55 0 001.95.85 2.41 2.41 0 001.9-.85 2.5 2.5 0 00.8-1.9v-6.8a2.66 2.66 0 00-.8-1.95 2.61 2.61 0 00-1.9-.85zm0 21.8a2.79 2.79 0 00-2 .8 2.87 2.87 0 00-.75 2v6.8a2.57 2.57 0 00.75 1.9 2.68 2.68 0 002 .85A2.92 2.92 0 0033 54.35v-6.8a2.55 2.55 0 00-.85-2 2.5 2.5 0 00-1.95-.85zM57.15 70h6c4.567 0 6.85-2.283 6.85-6.85v-6m-37-28h27m-27 21.8h27m-50 6.2v6c0 4.573 2.283 6.857 6.85 6.85h6M20 50.9h7.5M20 29.1h7.5" fill="none" stroke="#4e22d0" stroke-linecap="round" stroke-linejoin="round" stroke-width="1.5"/></svg>