<svg height="80" width="80" xmlns="http://www.w3.org/2000/svg"><path d="M49.59 56.624h17.55a2.3 2.3 0 002.6-2.6v-38.35a2.32 2.32 0 00-2.6-2.65H12.4a2.34 2.34 0 00-2.65 2.65v38.35a2.32 2.32 0 002.65 2.6h18.5m-5.85-32.65l13.2-3.8a8.15 8.15 0 012-.45 9.69 9.69 0 012 .45l13.2 3.8a4.86 4.86 0 011.6.75 2 2 0 01.5 1.5v12l-.1 1.6a21 21 0 01-5.7 11.55l-.45.45-1.65 1.6a37.27 37.27 0 01-5.4 3.95c-.37.26-.75.51-1.15.75l-2.4 1.3-.45.3h-.15l-.4-.3c-.47-.27-1-.54-1.45-.8a44.33 44.33 0 01-7.4-5.2 7.4 7.4 0 01-1.1-1.05 1.66 1.66 0 00-.3-.25 6.84 6.84 0 00-.5-.55c-.13-.14-.27-.29-.4-.45a21.21 21.21 0 01-4.4-7.1 11.21 11.21 0 01-.95-3.45 14.72 14.72 0 01-.2-2.35v-12a2.23 2.23 0 01.4-1.5 6.53 6.53 0 011.65-.75zm9.6 14.9l2.9 2.8 1.5 1.55 8-7.95m-12.1 24.45h-24.9L3 62.824h74.7l-7.2-3.1H45.8M3 62.824v2.5a2.51 2.51 0 001.65.7H76.2a1.92 1.92 0 001.5-.7v-2.5" fill="none" stroke="#4e22d0" stroke-linecap="round" stroke-linejoin="round" stroke-width="1.5"/></svg>