<svg height="80" width="80" xmlns="http://www.w3.org/2000/svg"><g stroke="#4e22d0" stroke-width="1.5" fill="none" fill-rule="evenodd" stroke-linecap="round" stroke-linejoin="round"><path d="M45.867 51.767l-14.8 8.45-19-10.9m-1.1-5.65l20.05 11.55 14.8-8.5"/><path d="M35.217 60.767c.146.021.294.021.44 0a20.34 20.34 0 0015.46-4.65 23.1 23.1 0 004.35-4.7c.8-1.2.44-2-1.06-2.45l-3.59-1.45a2.17 2.17 0 01-1-.9 2.2 2.2 0 010-1.6 2.35 2.35 0 011.15-1.2l13.94-8a2.58 2.58 0 011.71-.2 1.7 1.7 0 011 1l5.1 15.8c.16.47.16.98 0 1.45a1.74 1.74 0 01-2.35 1.05l-3-1.15a2.35 2.35 0 00-3.35.9 30.08 30.08 0 01-45.45 8.2 23.8 23.8 0 01-1.8-1.65c-11.709-11.736-11.686-30.742.05-42.45 11.736-11.709 30.741-11.686 42.45.05m-19.25.15a20.37 20.37 0 00-15.45 4.55 20 20 0 00-6.1 8.25"/><path d="M51.267 50.267l-5.36 3v-11.6l-14.84 8.5-20.05-11.55 14.85-8.55-1-.6 8.65-5 1 .6 15-8.7 20.14 11.6-15 8.65v1.95m-28.75-8.55l20 11.6 8.71-5-20.1-11.55"/></g></svg>