<svg height="80" width="80" xmlns="http://www.w3.org/2000/svg"><path d="M26.7 8h26.54l18.75 18.75V53.2L53.24 71.95H26.8L8 53.2V26.75zm-1.55 28.2a3.06 3.06 0 011.75 1.6v.05l3.7 8.05V24.2a2.9 2.9 0 01.9-2 3 3 0 014.3 0 3.13 3.13 0 01.9 2.1v-3.45a2.77 2.77 0 01.9-2 3 3 0 014.3 0 2.83 2.83 0 01.9 2.15v2.4a2.9 2.9 0 01.9-2 3.05 3.05 0 015.2 2.15v4.3a2.9 2.9 0 01.9-2 3 3 0 014.3 0 3 3 0 01.9 2.2V48.1a14 14 0 01-4.2 9.65 14.3 14.3 0 01-20.25 0 14.83 14.83 0 01-2.25-2.85 66.25 66.25 0 01-7-14.65.16.16 0 000-.1 3 3 0 010-2.15 3.06 3.06 0 011.6-1.75 2.92 2.92 0 012.25-.05zm23.75 1.45v-9.8m-12.2 9.8V24.31m6.1 13.35V23.41" fill="none" stroke="#4e22d0" stroke-linecap="round" stroke-linejoin="round" stroke-width="1.5"/></svg>