<svg fill="none" height="80" width="80" xmlns="http://www.w3.org/2000/svg"><g stroke="#4e22d0" stroke-linecap="round" stroke-linejoin="round" stroke-width="1.5"><path d="M63.046 47.353C61.69 55.948 63.995 73 63.995 73c-3.93-.272-7.726-1.092-7.726-1.092l-2.304-9.14c-.136 2.455-.949 9.14-.949 9.14-1.627-.136-5.42-1.091-5.42-1.091V56.903c-.814 3.273-3.525 13.095-3.525 13.095-10.98-2.454-20.602-6.139-20.602-6.139 1.899-5.456 4.337-14.324 4.337-14.324-2.575 5.048-9.487 12.552-9.487 12.552C15.88 61.13 11 58.13 11 58.13c8.81-9.413 13.193-22.27 13.193-22.27"/><path clip-rule="evenodd" d="M42.987 27.026c.27-5.32.135-21.555 10.03-18.69 9.893 2.865-.814 21.828-.814 21.828s9.894 4.23 12.606 5.456c2.71 1.229 3.658 3.684 2.98 5.662-.677 1.978-2.032 6.07-2.032 6.07l-43.914-12.14s.948-4.23 1.49-6.412c.543-2.183 2.983-3.547 5.828-3.275 2.847.273 13.826 1.501 13.826 1.501z"/></g></svg>