<svg height="80" width="80" xmlns="http://www.w3.org/2000/svg"><path d="M64.9 55.25c-.4.6-.883 1.167-1.45 1.7-.5.533-1.033 1-1.6 1.4zM44.35 59L40 64.1l-8.75-10.4c2.5-2.1 5.417-3.15 8.75-3.15m7.15-2.15c-.033-1.767.517-3.334 1.65-4.7.2-.267.416-.517.65-.75v-.05c1.533-1.434 3.367-2.167 5.5-2.2m-6.05-6.2c-2.8-.8-5.767-1.2-8.9-1.2-7.633 0-14.233 2.4-19.8 7.2l5.55 6.65c4.033-3.467 8.783-5.2 14.25-5.2h.6m24.85-8.1c-7.2-6.1-15.683-9.15-25.45-9.15s-18.233 3.05-25.4 9.15L9 27.25C17.767 19.75 28.1 16 40 16s22.233 3.75 31 11.25zm-2 6.05c2.367 2.333 3.55 5.166 3.55 8.5 0 2.566-.7 4.85-2.1 6.85l5.05 5.1c.467.4.7.883.7 1.45a2.362 2.362 0 01-.7 1.6c-.433.433-.933.633-1.5.6-.6.033-1.1-.167-1.5-.6l-5.1-5.05c-2 1.433-4.317 2.15-6.95 2.15-3.333 0-6.167-1.184-8.5-3.55l-.15-.15c-1.666-1.7-2.717-3.667-3.15-5.9-.167-.8-.25-1.633-.25-2.5 0-2.233.533-4.25 1.6-6.05a13.363 13.363 0 011.95-2.45c2.066-2.1 4.517-3.267 7.35-3.5.367-.034.75-.05 1.15-.05 3.367 0 6.217 1.183 8.55 3.55z" fill="none" stroke="#4e22d0" stroke-linecap="round" stroke-linejoin="round" stroke-width="1.5"/></svg>