<svg height="80" width="80" xmlns="http://www.w3.org/2000/svg"><g fill="none" fill-rule="evenodd"><path d="M0 0h80v80H0z"/><path d="M24.8 26.822v-6.8h27.15v-7h-32.4a1.51 1.51 0 00-1.7 1.7v7.95m34.1-2.65v52.1c0 1.4.2 2 .6 1.85h4.85c-.27-.13-.4-.75-.4-1.85v-64.2c0-1.1.12-1.73.35-1.9h-4.8a.36.36 0 00-.25 0c-.23.17-.35.8-.35 1.9v5.1m5.45 60.95a.23.23 0 00.2 0l8.2-3.55 7.55-3.25c.27-.1.4-.72.4-1.85v-50.65c0-1.13-.13-1.77-.4-1.9l-7.55-3.2-8.2-3.55a.36.36 0 00-.25 0m10 16.85a6.11 6.11 0 010 3.1 1.94 1.94 0 01-.2.47 8.43 8.43 0 01-.3 1.13c-.267.8-.567 1.25-.9 1.35h-.15c-.43 0-.8-.45-1.1-1.35a9.71 9.71 0 01-.45-3.15 10.17 10.17 0 01.45-3.2c.3-.87.67-1.3 1.1-1.3s.75.43 1 1.3c.105.294.188.595.25.9 0 .1 0 .2.05.3.086.141.153.292.2.45zm-.2 3.57a.38.38 0 01-.3.18c-.2 0-.37-.22-.5-.65a4.93 4.93 0 010-3.1c.13-.43.3-.65.5-.65a.38.38 0 01.3.2m1.4 15.7c-.73-2.13-1.6-3.2-2.6-3.2s-1.93 1.07-2.7 3.2a25.56 25.56 0 00-1 7.8 25 25 0 001 7.75c.77 2.17 1.67 3.25 2.7 3.25h.35l-2-6.75c-.37 0-.7-.42-1-1.25a9.77 9.77 0 01-.4-3 10.14 10.14 0 01.4-3c.3-.8.63-1.2 1-1.2s.75.4 1 1.2a9.69 9.69 0 01.35 1.72l3.45-4.37a13.51 13.51 0 00-.6-2.15zm-25.4-4.6c-.07-2.43-1.33-3.68-3.8-3.75h-17.5c-.08-2.666-1.347-4.033-3.8-4.1H9.8c-2.42.08-3.67 1.33-3.75 3.75v8.25c.08-2.42 1.33-3.67 3.75-3.75h29.6c2.42.08 3.67 1.33 3.75 3.75zm22.5 11.12v1.28a9.77 9.77 0 01-.4 3c-.3.83-.65 1.25-1 1.25m2 6.75c.87-.23 1.62-1.32 2.25-3.25a24.07 24.07 0 001.1-7.75 26.61 26.61 0 00-.55-5.65m-25.95-2.6v14.85c-.26 2-1.49 3.07-3.7 3.15H9.8a5 5 0 01-1.35-.2 3 3 0 01-2.22-2.18 5.09 5.09 0 01-.23-1.37v-14.25m11.8 20.45v7.1a1.51 1.51 0 001.7 1.7h32.45m-27.1-8.8v1.8h27.1" stroke="#4e22d0" stroke-linecap="round" stroke-linejoin="round" stroke-width="1.5"/></g></svg>