<svg height="80" width="80" xmlns="http://www.w3.org/2000/svg"><g stroke="#4e22d0" stroke-width="1.5" fill="none" fill-rule="evenodd" stroke-linecap="round" stroke-linejoin="round"><path d="M10.81 17.674v35.35a2.32 2.32 0 002.65 2.6h51.75a2.3 2.3 0 002.6-2.6v-35.35a2.32 2.32 0 00-2.6-2.65H13.46a2.34 2.34 0 00-2.65 2.65zM4 64.324c.448.43 1.04.68 1.66.7h68.55a1.88 1.88 0 001.5-.7v-2.5H4zm71.71-2.5l-7.21-3.1H11.06L4 61.824"/><path d="M17.21 32.874a3.12 3.12 0 00-.85 2.15 2.85 2.85 0 00.85 2.1 2.92 2.92 0 002.15.9h39a3.09 3.09 0 003-3 2.901 2.901 0 00-.91-2.15 2.81 2.81 0 00-2.09-.85h-39a3.12 3.12 0 00-2.15.85zm13.15 2.15h-11.5"/></g></svg>