<svg height="80" width="80" xmlns="http://www.w3.org/2000/svg"><path d="M17 16.05c4.289-4.233 9.26-6.8 14.912-7.7A29.151 29.151 0 0136.5 8c7.646 0 14.147 2.684 19.5 8.05m-33.115 4.9c2.626-2.567 5.635-4.233 9.027-5 1.43-.367 2.96-.55 4.588-.55 5.253 0 9.741 1.85 13.465 5.55M25.877 40.3v-5.85c0-2.9 1.048-5.417 3.142-7.55.731-.7 1.512-1.283 2.344-1.75 1.53-.867 3.242-1.3 5.137-1.3 2.992 0 5.502 1.017 7.53 3.05 2.095 2.133 3.143 4.65 3.143 7.55v5.85m7.68 6.85V44c0-1.8-.882-2.7-2.643-2.7H20.84c-1.795 0-2.693.9-2.693 2.7v21.3c0 1.8.898 2.7 2.693 2.7h23.34m-7.653-8v-4.186c-.695 0-1.3-.244-1.813-.733A2.223 2.223 0 0134 53.407c0-.628.238-1.204.714-1.727a2.651 2.651 0 011.813-.68c.66 0 1.228.227 1.704.68.513.523.769 1.1.769 1.727 0 .662-.256 1.221-.77 1.674-.475.49-1.043.733-1.703.733M52.9 62.25l2.4 2.4 1.3 1.25 6.65-6.65M70 61.9c0 3.333-1.183 6.166-3.55 8.5C64.084 72.8 61.267 74 58 74c-3.333 0-6.183-1.2-8.55-3.6-1.633-1.667-2.683-3.584-3.15-5.75-.2-.9-.3-1.817-.3-2.75 0-3.233 1.15-6.05 3.45-8.45 2.267-2.233 4.95-3.384 8.05-3.45h.5c3.267 0 6.084 1.15 8.45 3.45 2.367 2.4 3.55 5.217 3.55 8.45z" fill="none" stroke="#4e22d0" stroke-linecap="round" stroke-linejoin="round" stroke-width="1.5"/></svg>