<svg height="80" width="80" xmlns="http://www.w3.org/2000/svg"><path d="M58.05 56.05l2.9 2.8 1.5 1.55 7.951-7.95m-23.851 8.4H10.6c-.533-.067-.9-.167-1.1-.3-.9-.467-1.4-1.184-1.5-2.15V26m12-8.05V14h-8.849c-.834 0-1.384.1-1.651.3-1 .367-1.5 1.267-1.5 2.7v9h55.55m-9.149 13.75H47.7v6.35h-7.9v6.35M63.55 41.4h.601c3.899 0 7.25 1.367 10.049 4.1 2.8 2.9 4.201 6.267 4.201 10.1 0 3.967-1.401 7.333-4.201 10.1-2.799 2.867-6.15 4.3-10.049 4.3-4 0-7.401-1.433-10.201-4.3-1.966-1.966-3.216-4.25-3.75-6.85a15.188 15.188 0 01-.35-3.25c0-3.833 1.367-7.2 4.1-10.1 2.701-2.634 5.9-4 9.6-4.1zM39.8 33.35v6.4h7.9v-6.4M31.85 46.1h-7.949v6.35M15.95 46.1h7.951v-6.35H15.95m7.951-6.4v6.4h7.949v-6.4m0 12.75h7.95v-6.35h-7.95zm0 0v6.35M20 10v4h7.95v-4m7.9 7.95V14h-7.9v3.95m23.8 0V14H43.8v3.95M35.85 10v4h7.95v-4m7.95 0v4h8.901c.666 0 1.166.1 1.5.3.932.367 1.399 1.267 1.399 2.7v20.8" fill="none" stroke="#4e22d0" stroke-linecap="round" stroke-linejoin="round" stroke-width="1.5"/></svg>