<svg height="80" width="80" xmlns="http://www.w3.org/2000/svg"><path d="M31.65 68H50.8zm6.3-35.4c.867-.867 1.967-1.3 3.3-1.3 1.3 0 2.383.433 3.25 1.3.933.933 1.4 2.067 1.4 3.4a4.34 4.34 0 01-.5 2.05 5.163 5.163 0 01-.9 1.2c-.867.899-1.95 1.35-3.25 1.35-1.333 0-2.433-.451-3.3-1.35a5.136 5.136 0 01-.9-1.2V38c-.3-.634-.45-1.3-.45-2 0-1.333.45-2.467 1.35-3.4zm-14.7-6.3c0 .633-.134 1.233-.4 1.8a4.61 4.61 0 01-.8 1.049c-.767.801-1.7 1.201-2.8 1.201-1.167 0-2.134-.4-2.9-1.201a4.61 4.61 0 01-.8-1.049v-.05a4.066 4.066 0 01-.4-1.75c0-1.167.4-2.151 1.2-2.95.766-.767 1.733-1.15 2.9-1.15 1.1 0 2.033.383 2.8 1.15.8.799 1.2 1.783 1.2 2.95zm.9 18.25l-4.9 8.7-12-21.101C6.417 30.383 6 28.433 6 26.3c0-3.7 1.283-6.85 3.85-9.45 2.567-2.567 5.7-3.85 9.4-3.85 3.633 0 6.733 1.283 9.3 3.85.9.9 1.65 1.867 2.25 2.9m21.15 5.45c2.967 2.967 4.45 6.567 4.45 10.8 0 2.467-.55 4.75-1.65 6.85L41.25 66.8l-13.7-24.1c-.967-2.033-1.45-4.267-1.45-6.7 0-4.233 1.467-7.833 4.4-10.8 2.966-2.933 6.55-4.4 10.75-4.4s7.767 1.467 10.7 4.4zm2.4-3.301c.233-.333.5-.649.8-.949 2.066-2.033 4.55-3.051 7.45-3.051s5.366 1.018 7.4 3.051c2.067 2.067 3.1 4.567 3.1 7.5 0 1.733-.384 3.317-1.15 4.75L62.6 49.85l-3.6-6.4m3.6-18.25c.866 0 1.616.3 2.25.9.633.633.95 1.417.95 2.35 0 .5-.1.983-.3 1.449a4.582 4.582 0 01-.65.801c-.634.633-1.384.949-2.25.949-.933 0-1.7-.316-2.3-.949a6.162 6.162 0 01-.6-.801v-.049a3.53 3.53 0 01-.3-1.4c0-.933.3-1.717.9-2.35.6-.6 1.367-.9 2.3-.9z" fill="none" stroke="#4e22d0" stroke-linecap="round" stroke-linejoin="round" stroke-width="1.5"/></svg>