<svg height="80" width="80" xmlns="http://www.w3.org/2000/svg"><path d="M15.577 49.384h5.014zM6 20.982v33.943c0 3.327 1.672 4.992 5.014 4.992h34.547m-28.58-44.975v1.547zm-4.513 0v1.547zm23.817 34.442H41.3zm-24.72 0h4.012V38.352h5.014v11.032h5.315zm14.341 0h5.014V28.368h-5.014zm5.014 0h5.365V33.36H41.3v16.024h5.315v-18.77h5.014v10.933M21.443 14.942v1.547zm40.715 23.16v-17.12zm0-23.11c0-3.328-1.67-4.992-5.014-4.992h-46.13C7.672 10 6 11.664 6 14.992v5.99h56.158zm-5.565 41.08L59.5 58.87l1.504 1.547 7.972-7.938m-6.267-11.03c3.91 0 7.27 1.363 10.078 4.093C75.596 48.436 77 51.796 77 55.624c0 3.96-1.404 7.32-4.212 10.082C69.98 68.57 66.621 70 62.71 70c-4.011 0-7.421-1.43-10.229-4.294-1.972-1.963-3.226-4.243-3.76-6.837a15.104 15.104 0 01-.351-3.245c0-3.828 1.37-7.188 4.111-10.083 2.708-2.63 5.917-3.993 9.627-4.093z" fill="none" stroke="#4e22d0" stroke-linecap="round" stroke-linejoin="round" stroke-width="1.5"/></svg>