<svg height="80" width="80" xmlns="http://www.w3.org/2000/svg"><path d="M10.8 15.67v38.4a2.32 2.32 0 002.65 2.6H65.2a2.3 2.3 0 002.6-2.6v-38.4a2.32 2.32 0 00-2.6-2.65H13.4a2.34 2.34 0 00-2.6 2.65zm7.1 9.55a2 2 0 011.1-2 3.33 3.33 0 011.25-.15H47.8c.389-.01.777.04 1.15.15.63.3 1 1 1 2v22.05h-32V25.22zm27 10.35h-22m18.2-9.75v.85m-6.2 13.9h-12m29.9-9h8.1v-2.35c0-1.07-.32-1.75-1-2a3.69 3.69 0 00-1.1-.15h-6m-7.45-1.2v.85m15.55 4.9v12.7h-8.1m-2.9-14.7h-32m57.8 33.25H4v2.5a2.46 2.46 0 001.65.7H74.2a1.88 1.88 0 001.5-.7v-2.5l-7.2-3.1H11l-7 3.1" fill="none" stroke="#4e22d0" stroke-linecap="round" stroke-linejoin="round" stroke-width="1.5"/></svg>