<svg height="80" width="80" xmlns="http://www.w3.org/2000/svg"><path d="M58.7 17.474v-3.8a2.32 2.32 0 00-2.6-2.65H14.35a2.34 2.34 0 00-2.65 2.65m28.3 6.1c0-2.467-1.25-3.7-3.75-3.7H7.7c-2.46 0-3.7 1.23-3.7 3.7v4.45h36zm-7.92 10.35h-20a3.42 3.42 0 00-3.5 3.5v.05a3.27 3.27 0 001 2.4 3.39 3.39 0 002.5 1.05h20a3.58 3.58 0 003.44-3.45v-.05a3.31 3.31 0 00-1-2.5 3.27 3.27 0 00-2.44-1zm-28.06-5.9v15.65c0 2.5 1.24 3.75 3.7 3.75h28.55c2.5 0 3.75-1.25 3.75-3.75v-15.65m8 28.05a1.7 1.7 0 001.89 1.95h2.15a1.73 1.73 0 002-1.95v-2.1a1.73 1.73 0 00-2-2h-2.15a1.7 1.7 0 00-1.89 2zm10.85 1.95h2.15a1.7 1.7 0 001.89-1.95v-2.15a1.67 1.67 0 00-1.89-1.9h-2.15a1.7 1.7 0 00-2 1.9v2.15a1.73 1.73 0 001.94 1.95zm13.89-12.8v-18.5c0-1.87-.91-2.8-2.74-2.8h-22.5c-1.84 0-2.76.93-2.76 2.8v43a2.44 2.44 0 002.76 2.75h22.5a2.43 2.43 0 002.74-2.75v-8.9m3.21-9.6c0-2.133-1.07-3.2-3.21-3.2h-3.54c-2.173 0-3.257 1.067-3.25 3.2v3.55c0 2.173 1.083 3.257 3.25 3.25h3.54c2.14 0 3.21-1.083 3.21-3.25zm-6-23.2h-22.5m0 33.85h22.5m-61.15-38.5v1.25m3-1.25v1.25m3-1.25v1.25m9.25 12.8H12.08m30.14 21.2H4.91v2.5a2.46 2.46 0 001.65.7H42.2m-30.5-12a2.32 2.32 0 002.65 2.6H42.2m0 3.1H11.96l-7.05 3.1m48.9 8.35h9.85" fill="none" stroke="#4e22d0" stroke-linecap="round" stroke-linejoin="round" stroke-width="1.5"/></svg>