<svg height="80" width="80" xmlns="http://www.w3.org/2000/svg"><path d="M69.125 62.362l-1.85 1.8a44.72 44.72 0 01-4.7 3.45l-.95.6c-.9.53-1.6.92-2.1 1.15l-.45.25v-.05l-.35-.2a6.77 6.77 0 01-1.25-.7 38.86 38.86 0 01-6.45-4.5l-.95-.95-.25-.2-.85-.85a20.37 20.37 0 01-3.45-5.3l-.35-.8a12.37 12.37 0 01-.8-3 16.88 16.88 0 01-.2-2v-10.45a1.76 1.76 0 01.4-1.3 3.43 3.43 0 011.35-.6l13.2-3.7a6.29 6.29 0 011.85.4l11.4 3.3c.489.1.95.304 1.35.6.332.347.497.822.45 1.3v10.4l-.15 1.35a17.66 17.66 0 01-4.9 10zm-12.7-46.35H7.875a3.8 3.8 0 00-1.55.2 2.41 2.41 0 00-1.3 2.5v6.6h54v-6.6a2.44 2.44 0 00-1.25-2.5 3.77 3.77 0 00-1.35-.2zm-.4-2.3a2.44 2.44 0 00-1.25-2.5 3.34 3.34 0 00-1.35-.2h-42.55a3.8 3.8 0 00-1.55.2 2.41 2.41 0 00-1.3 2.5m-3 11.6v13.7h6.7l1.75-7 4 16 4-13 1.25 4h9.75a1 1 0 112-.029 1 1 0 01-2 .029m-27.45 0v17.85h37.3m16.7-25.1v-6.5m-10.8-5.2v1m5.2-1v1" fill="none" stroke="#4e22d0" stroke-linecap="round" stroke-linejoin="round" stroke-width="1.5"/></svg>