<svg height="80" width="80" xmlns="http://www.w3.org/2000/svg"><path d="M10.75 60.402c0 3.266 1.617 4.933 4.85 5h21.9a.323.323 0 00.15.149c.833.867 1.833 1.3 3 1.3 1.233 0 2.267-.433 3.1-1.3l.15-.149h21.85c3.333 0 5-1.667 5-5m-30-42.25v45l27-5.201c3.333-.666 5-2.666 5-6v-35c0-3.332-1.667-4.666-5-4l-27 5.201-27-5.25c-3.333-.634-5 .717-5 4.049v35c0 3.334 1.667 5.317 5 5.951l27 5.25M32 32.002v16.4m-4.8-14.3V47.45m-9.65-9.65v7.8m4.8-17.95v18.9m25.7-11.5c1.4-2.7 3.417-4.649 6.05-5.85l2.65 9.1L65 31c.633.833 1.1 1.8 1.4 2.901.733 2.533.4 5.116-1 7.75-1.4 2.632-3.433 4.583-6.1 5.85-2.633 1.233-5.167 1.4-7.6.5-2.366-.934-3.917-2.668-4.65-5.2-.7-2.534-.367-5.117 1-7.75zm13.8-8.2c.867.301 1.6.75 2.2 1.35l-5.65 5-1.75-6.25c1.8-.7 3.533-.733 5.2-.1z" fill="none" stroke="#4e22d0" stroke-linecap="round" stroke-linejoin="round" stroke-width="1.5"/></svg>