<svg height="80" width="80" xmlns="http://www.w3.org/2000/svg"><path d="M22.1 64.3V53.8H11.65M22.1 43.3v10.5h14.1m0 13.15L22.1 64.3l-10.45-2V45.25L22.1 43.3l14.1-2.7v13.2zm-3-55.9c1.866.2 3.433-.55 4.7-2.25 1.267-1.434 1.817-3.117 1.65-5.05-1.8.267-3.367 1.05-4.7 2.35-1.334 1.7-1.883 3.35-1.65 4.95zm-5 1c-2.833 0-5.033 1.316-6.6 3.95-1.267 2.267-1.617 5.017-1.05 8.25.533 2.833 1.583 5.317 3.15 7.45.933 1.333 1.65 2.233 2.15 2.7.933.867 1.85 1.267 2.75 1.2.7 0 1.55-.2 2.55-.6.967-.467 1.85-.7 2.65-.7.833 0 1.75.233 2.75.7 1.067.4 1.933.6 2.6.6.933 0 1.85-.4 2.75-1.2.5-.467 1.217-1.333 2.15-2.6 1.033-1.434 1.75-2.934 2.15-4.5-.767-.233-1.483-.684-2.15-1.35-1.4-1.267-2.117-2.9-2.15-4.9 0-1.667.5-3.133 1.5-4.4.7-.8 1.383-1.35 2.05-1.65-1.5-2.033-3.467-3.05-5.9-3.05-1-.1-2.183.117-3.55.65-1.467.533-2.317.8-2.55.8-.333 0-1.1-.233-2.3-.7-1.233-.5-2.217-.717-2.95-.65zm20.2 29.8h18.2zM62.9 56.7h-4.2zm7.65-13.2c-.367 0-.7.15-1 .45-.267.267-.4.617-.4 1.05v8.5c0 .4.133.75.4 1.05.3.267.633.4 1 .4h.05c.4 0 .733-.133 1-.4.3-.3.45-.65.45-1.05V45c0-.433-.15-.783-.45-1.05a1.28 1.28 0 00-1-.45zM53.2 34.15c1.3-.7 2.733-1.05 4.3-1.05a8.88 8.88 0 014.35 1.1m-5.6 22.5h-4.2zm-11.8-13.25h-.05c-.4 0-.733.15-1 .45-.3.267-.45.6-.45 1v8.55c0 .4.15.733.45 1 .267.3.6.45 1 .45h.05c.4 0 .733-.15 1-.45.3-.267.45-.6.45-1V44.9c0-.4-.15-.733-.45-1-.267-.3-.6-.45-1-.45zm19.2-12.15l-1.8 2.9c.733.4 1.416.917 2.05 1.55 1.666 1.667 2.566 3.7 2.7 6.1v11.9c0 1.967-.983 2.95-2.95 2.95h-.75v4.8c0 .567-.2 1.034-.6 1.4-.4.467-.883.7-1.45.7h-.05c-.534 0-1.017-.233-1.45-.7a1.755 1.755 0 01-.65-1.4v-4.8h-2.45v4.8c0 .567-.217 1.05-.65 1.45-.4.434-.884.65-1.45.65h-.05c-.567 0-1.05-.216-1.45-.65-.4-.4-.6-.883-.6-1.45v-4.8h-.7c-1.9 0-2.884-.916-2.95-2.75v-12.1c.1-2.4.982-4.433 2.65-6.1a10.921 10.921 0 012.15-1.6l-1.85-2.85M41.9 9.25c7.914.48 14.748 3.598 20.5 9.35 5.924 5.956 9.032 13.056 9.324 21.3M59.5 66.45c-5.662 4.5-12.246 6.75-19.75 6.75-6.913 0-13.03-1.908-18.35-5.725M8.45 48.2a34.16 34.16 0 01-.7-7c0-8.753 3.1-16.253 9.3-22.5" fill="none" stroke="#4e22d0" stroke-linecap="round" stroke-linejoin="round" stroke-width="1.5"/></svg>