<svg height="80" width="80" xmlns="http://www.w3.org/2000/svg"><path d="M15.85 70.95H41.2zm16.4-6v2.7zm23.85-12.7l3.051 2.95 1.599 1.6 8.35-8.3M24.75 64.95v2.7zM43.7 57.7c-4.432 3-9.483 4.5-15.149 4.5-7.601 0-14.101-2.7-19.5-8.1C3.684 48.7 1 42.2 1 34.6c0-7.633 2.684-14.133 8.051-19.5C14.45 9.7 20.95 7 28.551 7c7.633 0 14.133 2.7 19.5 8.1 5.033 5 7.733 10.983 8.1 17.95m-21.6 1.55c0 1.666-.584 3.083-1.75 4.25-1.168 1.166-2.568 1.75-4.201 1.75-1.666 0-3.082-.584-4.25-1.75-1.166-1.167-1.75-2.584-1.75-4.25 0-1.633.584-3.033 1.75-4.2 1.168-1.167 2.584-1.75 4.25-1.75 1.633 0 3.033.583 4.201 1.75 1.166 1.167 1.75 2.567 1.75 4.2zm9.1-.1c0 4.2-1.485 7.766-4.451 10.7-2.932 2.967-6.483 4.45-10.649 4.45-4.201 0-7.767-1.483-10.701-4.45-2.967-2.934-4.449-6.5-4.449-10.7 0-4.167 1.482-7.734 4.449-10.7 2.934-2.933 6.5-4.4 10.701-4.4 4.166 0 7.717 1.467 10.649 4.4 2.966 2.966 4.451 6.533 4.451 10.7zM30.35 13.2c0 .5-.166.917-.5 1.25-.367.367-.783.55-1.25.55-.5 0-.934-.183-1.299-.55-.334-.333-.5-.75-.5-1.25s.166-.917.5-1.25c.365-.367.799-.55 1.299-.55.467 0 .883.183 1.25.55.334.333.5.75.5 1.25zm47.951 27.9v11c0 .5-.051 1-.15 1.5-.467 3.9-2.184 7.433-5.151 10.6l-.4.5c-.533.5-1.082 1-1.65 1.5-1.399 1.267-3.049 2.483-4.95 3.65-.334.233-.683.467-1.05.7-.7.4-1.45.817-2.25 1.25l-.35.2h-.15l-.35-.2c-.5-.267-.967-.534-1.4-.8-2.666-1.533-4.95-3.133-6.85-4.8a12.974 12.974 0 00-1.049-.95 2.974 2.974 0 00-.25-.3 4.473 4.473 0 00-.451-.4l-.4-.5c-1.866-2.067-3.233-4.233-4.1-6.5a13.53 13.53 0 01-.6-2.2 5.375 5.375 0 01-.199-1.05c-.168-.7-.25-1.4-.25-2.1V41.1c0-.7.149-1.167.449-1.4.233-.267.717-.5 1.45-.7l7.9-2.25 4.301-1.25c.9-.3 1.549-.45 1.949-.45.301 0 .918.15 1.85.45L76.35 39c.734.2 1.217.433 1.451.7.332.233.5.7.5 1.4z" fill="none" stroke="#4e22d0" stroke-linecap="round" stroke-linejoin="round" stroke-width="1.5"/></svg>