<svg height="80" width="80" xmlns="http://www.w3.org/2000/svg"><path d="M63 44.1l-5.9 1.15zM49.199 57.8l5.75-1.149zm16.5-8.399c.067.533.1 1.016.1 1.449 0 2.767-.967 5.084-2.899 6.95-1.867 1.834-4.134 2.75-6.8 2.75-1.2 0-2.301-.149-3.301-.45-1.332-.466-2.533-1.233-3.6-2.3l1.151 5.75m-3.801-11.099c-.1-.5-.149-1.034-.149-1.601 0-1.733.416-3.283 1.25-4.649.366-.734.883-1.451 1.549-2.151 1.934-1.866 4.235-2.8 6.901-2.8 1.166 0 2.25.184 3.25.55 1.334.434 2.517 1.184 3.55 2.25 0 .033.034.05.1.05l-1.25-5.75m-5.65-5.6c5.033 0 9.3 1.75 12.8 5.25 3.567 3.6 5.35 7.884 5.35 12.85 0 5.101-1.783 9.384-5.35 12.851-.767.766-1.55 1.45-2.351 2.049C63.516 67.917 60.033 69 56.1 69c-3.868 0-7.35-1.083-10.45-3.25a19.422 19.422 0 01-2.4-2.049C39.75 60.234 38 55.951 38 50.85c0-4.966 1.75-9.25 5.25-12.85 3.6-3.5 7.883-5.25 12.85-5.25zM39.4 63.951c-.82.559-1.67 1.109-2.55 1.649-.534.367-1.084.717-1.651 1.051A418.652 418.652 0 0131.75 68.6l-.65.4h-.25l-.6-.4a27.06 27.06 0 01-2.15-1.199c-4.166-2.401-7.733-4.901-10.7-7.5-.601-.5-1.15-1.017-1.65-1.551a.997.997 0 01-.301-.35l-.799-.799a3.855 3.855 0 01-.601-.651c-2.967-3.233-5.082-6.649-6.35-10.25a19.357 19.357 0 01-1.4-5.05A19.34 19.34 0 016 37.901v-17.45c0-1.034.217-1.767.65-2.201.399-.333 1.166-.683 2.299-1.049l19.1-5.55c1.4-.434 2.367-.651 2.9-.651s1.551.217 3.051.651l19.1 5.55c1.132.366 1.9.716 2.3 1.049.5.434.75 1.167.75 2.201v9.2" fill="none" stroke="#4e22d0" stroke-linecap="round" stroke-linejoin="round" stroke-width="1.5"/></svg>