<svg height="80" width="80" xmlns="http://www.w3.org/2000/svg"><path d="M58.969 23.574v-4a2.32 2.32 0 00-2.6-2.65h-24.9l-1.65-4.45a3.39 3.39 0 00-3.3-2.45h-15.9a2.34 2.34 0 00-2.65 2.65v11a8.16 8.16 0 011.65-.25h47.9c.485.025.97.075 1.45.15a4.13 4.13 0 012.15.95 4 4 0 01.9 3.4l-.75 6.5m-16.15 22.1h-34.5a2.36 2.36 0 01-2.7-2.5l-2.9-25.55c-.17-2.63.82-4.23 2.95-4.8m40.9 17.15l10.55-3.1a6.8 6.8 0 011.65-.35 7.51 7.51 0 011.6.35l10.5 3.1a3.63 3.63 0 011.25.5c.325.331.49.788.45 1.25v9.6c0 .43-.07.85-.1 1.25a16.62 16.62 0 01-4.5 9.25c-.67.7-1.25 1.27-1.75 1.7a35.24 35.24 0 01-4.3 3.15c-.3.2-.6.38-.9.55-.6.37-1.23.73-1.9 1.1l-.45.15-.35-.15c-.4-.2-.78-.42-1.15-.65a37.11 37.11 0 01-5.9-4.15c-.327-.3-.627-.6-.9-.9a1.82 1.82 0 00-.25-.2l-.4-.4a4.17 4.17 0 00-.35-.4 17.54 17.54 0 01-3.5-5.6 12.12 12.12 0 01-.75-2.8 11.27 11.27 0 01-.15-1.85v-9.65a1.88 1.88 0 01.35-1.25c.387-.232.81-.4 1.25-.5z" fill="none" stroke-linecap="round" stroke-linejoin="round" stroke="#4e22d0" stroke-width="1.5"/></svg>