<svg height="80" width="80" xmlns="http://www.w3.org/2000/svg"><path d="M62.1 48.6C56 55.327 48.617 58.693 39.95 58.7c-8.667.007-16.05-3.36-22.15-10.1-.94-.933-3.223-3.8-6.85-8.6 3.633-4.727 5.917-7.577 6.85-8.55 6.1-6.727 13.483-10.093 22.15-10.1 8.667-.007 16.05 3.36 22.15 10.1.86.967 3.143 3.817 6.85 8.55-3.7 4.807-5.983 7.673-6.85 8.6zm8.85-26.35v-6.2c0-4.667-2.333-7.017-7-7.05h-6.2m-35.4 0h-6.2C11.383 9 9 11.35 9 16.05v6.2M27.5 40a11.9 11.9 0 013.65-8.75A12.2 12.2 0 0140 27.7a12.23 12.23 0 018.7 21 11.69 11.69 0 01-8.7 3.65 12.05 12.05 0 01-8.85-3.65 11.75 11.75 0 01-3.7-8.7zm20 0h-7.45v7.5M32.6 40h7.45v-7.4m-31 25v6.3c0 4.667 2.383 7.017 7.15 7.05h6.2m35.4 0H64c4.667 0 7-2.35 7-7.05v-6.3" fill="none" stroke="#4e22d0" stroke-linecap="round" stroke-linejoin="round" stroke-width="1.5"/></svg>