<svg height="80" width="80" xmlns="http://www.w3.org/2000/svg"><path d="M47.65 30.75c-1.233.4-2.167 1.017-2.8 1.85-.567.733-.85 1.633-.85 2.7v7.8c0 2.7.317 5.233.95 7.6 1.9 5.866 6.917 11 15.05 15.4.333.2.75.3 1.25.3.4 0 .767-.1 1.1-.3 8.167-4.4 13.233-9.534 15.2-15.4.666-2.367 1-4.9 1-7.6v-7.8c0-1.067-.334-1.967-1-2.7-.6-.833-1.517-1.45-2.75-1.85l-11.1-3.2c-1.234-.4-2.05-.6-2.45-.6-.5 0-1.367.2-2.6.6zM63 24.95V18.3c-.1-3.366-1.833-5.133-5.2-5.3H12.3c-3.4.133-5.167 1.9-5.3 5.3v33c.133 3.367 1.9 5.1 5.3 5.2h32.75m-3.8-16.25c-1.867 1.233-4.017 1.85-6.45 1.85-2.334 0-4.484-.733-6.45-2.2L7.5 22.6" fill="none" stroke="#4e22d0" stroke-linecap="round" stroke-linejoin="round" stroke-width="1.5"/></svg>