<svg width="80" height="80" xmlns="http://www.w3.org/2000/svg"><g stroke="#4E22D0" stroke-width="1.5" fill="none" fill-rule="evenodd" stroke-linecap="round" stroke-linejoin="round"><path d="M54.04 57.222h12.012a2.332 2.332 0 002.636-2.636V15.71a2.352 2.352 0 00-2.636-2.687H12.58a2.372 2.372 0 00-2.686 2.687v38.926a2.352 2.352 0 002.686 2.635h33.655M3 63.557h73.696l-7.299-3.142h-59.25L3.05 63.557v2.534a2.494 2.494 0 001.672.71h70.503c.59.011 1.15-.25 1.52-.71v-2.534M56.322 51.19h6.335m-46.63 0h20.477m26.153-32.033h-46.63"/><path d="M36.401 32.335v-6.082h6.083v1.571m4.054-1.571h6.082v6.082h-6.082zM36.401 44.5v-6.083m-20.274 0h6.082v6.082h-6.082zm10.137 0h6.082v6.082h-6.082zm30.411 0h6.083V44.5h-1.876"/><path d="M51.252 47.997l-.862-1.774 7.552-1.723-6.69-5.525-11.556-9.58v23.67l6.082-4.663 3.75 7.958 1.724-.811 2.94-1.369zM16.127 26.253h6.082v6.082h-6.082zm10.137 0h6.082v6.082h-6.082zm30.411 0h6.082v6.082h-6.082z"/></g></svg>