<svg height="80" width="80" xmlns="http://www.w3.org/2000/svg"><path d="M37.4 42.274l2.9-2.85 3-3H6.85v9.6a2.32 2.32 0 002.65 2.6h14.35v-9.2m0-6v-9.75a2.34 2.34 0 012.65-2.65h29.35v-7.35a2.32 2.32 0 00-2.6-2.65H9.45a2.34 2.34 0 00-2.65 2.65v16.5m17 18.45v7.4a2.56 2.56 0 00.73 2 2.74 2.74 0 001.92.6H70.2a2.3 2.3 0 002.6-2.6v-32.35a2.32 2.32 0 00-2.6-2.65H55.85m-32 33.8H.05v2.5a2.36 2.36 0 001.65.7h22.88m-.73-6.3H7.05L0 54.824m17 12.5a2.36 2.36 0 001.65.7H79.2a1.88 1.88 0 001.5-.7v-2.5H17zm63.7-2.5l-7.2-3.1H24.05l-7.05 3.1m26.3-28.4l-3-3-2.9-2.85" fill="none" stroke="#4e22d0" stroke-linecap="round" stroke-linejoin="round" stroke-width="1.5"/></svg>