<svg fill="none" height="80" width="80" xmlns="http://www.w3.org/2000/svg"><g stroke="#4e22d0" stroke-linecap="round" stroke-linejoin="round" stroke-width="1.5"><path d="M10.117 58.617v1.223c0 1.96.711 3.622 2.133 4.985 1.356 1.33 2.949 2.028 4.779 2.093h2.416"/><path d="M26.278 73H10.88C7.626 73 6 71.405 6 68.215v-13.26m4.117 3.662v-3.662H6V19.91c0-3.157 1.626-4.736 4.879-4.736h36.846c3.22 0 4.829 1.58 4.829 4.736v48.304c0 3.19-1.61 4.785-4.829 4.785H26.278v-6.082h-6.833"/><path d="M25.117 58.847c1.123.23 2.296.362 3.517.395l.615.008c5.242 0 9.728-1.849 13.457-5.544 3.696-3.728 5.544-8.215 5.544-13.456 0-5.243-1.848-9.71-5.544-13.407-3.73-3.73-8.215-5.593-13.457-5.593-5.24 0-9.709 1.864-13.405 5.593-3.73 3.698-5.594 8.164-5.594 13.407 0 5.241 1.864 9.728 5.594 13.456l.252.252.454.453"/><path d="M19.192 55.289L15.3 57.946c-.523.543-.808 1.156-.855 1.838l-.008.206c0 .797.288 1.463.863 1.994.509.499 1.17.781 1.984.847.778 0 1.456-.282 2.032-.847l3.202-4.437.296-.42"/><path d="M19.192 55.289l4.951-3.376h.05c.136-.099.34-.148.611-.148.272-.067.491.015.66.25.17.098.254.315.254.646 0 .2-.067.416-.202.649l-2.703 3.817"/><g clip-rule="evenodd" fill-rule="evenodd"><path d="M29.224 31.25c2.488 0 4.622.874 6.404 2.622 1.748 1.748 2.622 3.866 2.622 6.353 0 2.488-.874 4.622-2.622 6.403-1.782 1.749-3.917 2.622-6.404 2.622s-4.605-.873-6.352-2.622c-1.749-1.78-2.622-3.915-2.622-6.403 0-2.487.873-4.605 2.622-6.353 1.747-1.748 3.865-2.622 6.352-2.622z"/><path d="M29.25 37.25c-.799 0-1.5.299-2.099.901-.6.566-.901 1.265-.901 2.099s.301 1.549.901 2.151c.599.566 1.3.849 2.099.849.834 0 1.551-.283 2.151-.849.566-.602.849-1.317.849-2.151s-.283-1.533-.849-2.099c-.6-.602-1.317-.901-2.151-.901zm39.974-13.8l1.016 3.888L74 28.834l-3.76 1.196-1.016 3.889-1.22-3.889-3.711-1.196 3.711-1.496zM65.514 7l2.082 6.58L74 15.823l-6.404 1.994-2.082 6.58-1.983-6.58-6.403-1.994 6.403-2.243z"/></g></g></svg>