<svg width="80" height="80" xmlns="http://www.w3.org/2000/svg"><path d="M48.565 17.976l.12.193L72.056 57.72c1.906 3.223-.342 7.28-4.035 7.424l-.203.004H21.075c-3.744 0-6.093-4-4.338-7.251l.1-.177L40.21 18.17c1.866-3.16 6.38-3.225 8.356-.194zM44.447 51.44a2.462 2.462 0 100 4.922 2.462 2.462 0 000-4.922zM28.098 27.207l3.384 5.724-13.119 22.203H11.68c-2.264 0-3.668-2.462-2.523-4.419l13.894-23.508c1.146-1.92 3.915-1.92 5.047 0zm16.35 2.08a3.078 3.078 0 00-3.078 3.078h0l.615 11.69.006.163a2.461 2.461 0 004.917-.162h0l.615-11.691-.005-.18a3.077 3.077 0 00-3.07-2.897z" stroke="#4E22D0" stroke-width="1.5" fill="none" stroke-linecap="round" stroke-linejoin="round"/></svg>