<svg height="80" width="80" xmlns="http://www.w3.org/2000/svg"><path d="M16.18 37.224h9.043zm0 5.037h9.043zm0 5.038h9.043zm0 5.038h9.043zM67.274 38.18v-9.068H10v29.722c0 1.804.705 2.519 2.512 2.519h33.159m21.466-38.625c0-1.767-.867-2.65-2.6-2.65h-51.75c-1.767 0-2.65.883-2.65 2.65v6.35h57zm-4.284-6.059c0-1.78-.872-2.67-2.613-2.67H16.682c-1.776 0-2.663.89-2.663 2.67m42.202 7.204v1.007zm5.024 0v1.007zm-4.14 14.418c3.316 0 6.122 1.17 8.42 3.507 2.33 2.306 3.495 5.105 3.495 8.398 0 2.535-.689 4.792-2.068 6.767l7.287 7.315c.46.395.69.873.69 1.432a2.337 2.337 0 01-.69 1.581c-.426.428-.918.627-1.477.593a1.778 1.778 0 01-1.477-.593l-7.336-7.265c-1.97 1.417-4.251 2.124-6.844 2.124-3.282 0-6.073-1.169-8.37-3.506a26.339 26.339 0 00-.148-.15c-1.64-1.679-2.675-3.621-3.101-5.828a12.165 12.165 0 01-.247-2.47c0-2.206.525-4.199 1.576-5.977a13.228 13.228 0 011.92-2.42c2.036-2.075 4.448-3.227 7.238-3.458.361-.033.738-.05 1.132-.05zm9.847 18.673a9.66 9.66 0 01-1.427 1.68c-.493.526-1.018.987-1.576 1.382m-14.475-9.83c-.033-1.745.509-3.293 1.624-4.643.197-.264.411-.511.64-.74v-.051c1.51-1.417 3.316-2.14 5.416-2.172" fill="none" stroke="#4e22d0" stroke-linecap="round" stroke-linejoin="round" stroke-width="1.5"/></svg>