<svg height="80" width="80" xmlns="http://www.w3.org/2000/svg"><path d="M60 34.75c.28 0 .74.098 1.451.298l11.912 3.45c.833.312 1.301.524 1.564.768l.025.024.035.026c.428.35.629.908.659 1.633l.004.202-.002 10.402-.103 1.43c-.418 3.767-2.108 7.233-5.035 10.367l-.428.478-.034.034-1.496 1.395c-1.367 1.23-2.95 2.406-4.776 3.543l-3.45 2a.75.75 0 01-.376.101h-.1a.75.75 0 01-.375-.1l-2.233-1.286c-2.324-1.358-4.308-2.778-5.966-4.278l-2.09-2.043a33.625 33.625 0 01-2.27-2.942 20.59 20.59 0 01-1.721-3.396c-.455-1.258-.72-2.338-.793-3.247l.006.063-.05-.24a12.206 12.206 0 01-.14-1.02l-.046-.523-.022-.288v-10.45c0-.753.216-1.377.613-1.767.22-.275.621-.495 1.32-.757l.41-.148 8.348-2.4 3.088-.895c.939-.289 1.59-.434 2.021-.434zm0 1.5h-.05c-.192 0-.591.081-1.175.248l-.416.123-3.102.9-8.31 2.387c-.618.215-1.003.401-1.067.473-.147.147-.23.388-.23.77l-.002 10.395c.063.856.142 1.473.23 1.822l.02.123c.06.759.294 1.713.698 2.832a19.043 19.043 0 001.57 3.1 32.664 32.664 0 002.108 2.74l2.029 1.98c1.689 1.528 3.778 2.996 6.272 4.407l1.323.763 3.105-1.799c1.54-.96 2.908-1.953 4.1-2.98l.439-.386 1.448-1.347.412-.462c2.726-2.919 4.271-6.088 4.65-9.491l.098-1.348V41.151c0-.442-.07-.646-.115-.675a.75.75 0 01-.186-.176c.02.026-.178-.064-.487-.192l-.47-.188-11.405-3.3c-.822-.244-1.357-.37-1.487-.37zm-27-27c6.808 0 12.712 2.094 17.683 6.277l.007.008.019.015 1.975 1.824c2.39 2.424 4.256 5.043 5.593 7.854l.007.014.003.006a29.925 29.925 0 012.102 6.923.75.75 0 11-1.478.258 27.883 27.883 0 00-.928-3.762 40.57 40.57 0 01-1.113 5.041.75.75 0 11-1.44-.416 39.843 39.843 0 001.346-6.993l.057-.609-.17-.347c-1.153-2.28-2.684-4.43-4.578-6.432l-.444-.459-1.734-1.601H49.7c-4.934 0-9.52.763-13.766 2.287a2.254 2.254 0 01-.535 1.75c3.13 5.848 4.746 12.214 4.846 19.084l.005.679c0 .973-.019 1.891-.056 2.757.256.114.491.278.706.492.533.5.8 1.117.8 1.85 0 .634-.267 1.2-.8 1.7-.349.398-.753.648-1.212.749a40.337 40.337 0 01-2.197 7.826l-.233.581.018.019.584-.36a37.423 37.423 0 003.664-2.645l.59-.492a.75.75 0 11.971 1.144 38.967 38.967 0 01-5.034 3.638c.033.155.049.32.049.49 0 .668-.267 1.25-.8 1.75-.467.534-1.05.8-1.75.8-.139 0-.274-.01-.405-.031a50.74 50.74 0 01-1.272 2.07l-.165.251.418-.01c3.724-.138 7.144-.96 10.267-2.467l.467-.231a.75.75 0 11.68 1.336c-3.608 1.839-7.593 2.797-11.944 2.877L33 64.75h-.724c-3.173-.102-6.167-.649-8.976-1.642l-.012-.004a.75.75 0 01-.009-.004c-3.63-1.406-6.933-3.561-9.91-6.469a30.3 30.3 0 01-4.767-6.204C6.366 46.611 5.25 42.13 5.25 37c0-5.526 1.428-10.46 4.282-14.781l.284-.42a25.45 25.45 0 013.556-4.43c3.83-3.797 8.186-6.267 13.058-7.4l.005-.001.549-.123c1.87-.397 3.876-.595 6.016-.595zm.744 50.894l-.206.092c-2.137.922-4.442 1.682-6.915 2.281 1.696.396 3.46.635 5.29.718l-.232.342c.76-1.114 1.43-2.16 2.009-3.14l.126-.218a3.073 3.073 0 01-.066-.068zM16.95 34.951c-.296 0-.575-.048-.835-.144-3.052 4.51-5.056 9.418-6.015 14.729l-.064.367.214.358a28.75 28.75 0 003.703 4.821l.471.483c2.679 2.616 5.63 4.588 8.856 5.92l.345.138.534-.101c3.244-.64 6.203-1.54 8.878-2.703A2.282 2.282 0 0133 58.4c0-.7.25-1.283.75-1.75.5-.5 1.1-.75 1.8-.75.126 0 .248.008.366.024a38.917 38.917 0 002.276-7.88 2.284 2.284 0 01-.792-.595c-.467-.5-.7-1.066-.7-1.7v-.043C30.059 43.92 24.118 40.48 18.876 35.38l-.475-.468-.27-.29c-.359.22-.752.33-1.18.33zm-6.606-11.215l-.097.16C7.915 27.761 6.75 32.125 6.75 37c0 4.045.724 7.64 2.17 10.791 1.091-4.986 3.095-9.624 6.01-13.909a2.44 2.44 0 01-.48-1.481c0-.545.14-1.04.423-1.483l-.418-.54a40.377 40.377 0 01-4.111-6.642zm10.893 4.888a54.435 54.435 0 00-2.168 2.37c.288.425.43.894.43 1.407 0 .416-.103.8-.312 1.152l.293.318c5.163 5.162 11.038 8.624 17.635 10.394.082-.129.177-.25.285-.365a2.335 2.335 0 011.299-.66c.034-.81.051-1.674.051-2.589 0-6.797-1.518-13.072-4.556-18.834a2.29 2.29 0 01-.794.133c-.667 0-1.267-.266-1.8-.799l-.094-.1c-3.666 1.869-7.09 4.394-10.269 7.573zm5.129-17.096l.404-.097c-4.596 1.067-8.706 3.398-12.34 7a24.082 24.082 0 00-3.026 3.677l-.1.153.137.297a38.923 38.923 0 004.616 7.44c.277-.1.574-.147.893-.147.343 0 .664.061.963.185a58.84 58.84 0 011.799-1.989l.458-.476c3.306-3.308 6.873-5.935 10.698-7.88a2.128 2.128 0 01-.018-.29c0-.692.243-1.302.73-1.83-1.162-1.621-2.536-3.265-4.12-4.93l-.49-.51zM33 10.75a28.64 28.64 0 00-4.464.333l-.424.072.432.45c1.695 1.781 3.16 3.544 4.395 5.287a2.5 2.5 0 01.46-.041c.7 0 1.284.232 1.75.699.07.068.133.138.193.209 3.954-1.433 8.19-2.225 12.706-2.38C43.719 12.292 38.71 10.75 33 10.75z" fill="#4e22d0"/></svg>