<svg height="80" width="80" xmlns="http://www.w3.org/2000/svg"><path d="M57.9 32.8a6.66 6.66 0 011.8-.4 7.39 7.39 0 011.75.4l11.4 3.3c.5.094.965.318 1.35.65.343.341.51.821.45 1.3V48.4a9.51 9.51 0 01-.1 1.4 17.41 17.41 0 01-4.85 10l-.4.45c-.47.46-1 .93-1.5 1.4a32.65 32.65 0 01-4.65 3.45c-.33.2-.67.41-1 .65l-2.1 1.15-.35.2h-.1l-.35-.2a14.36 14.36 0 01-1.3-.75 39.38 39.38 0 01-6.4-4.5l-1-.9-.25-.25a4.66 4.66 0 00-.45-.4 2.25 2.25 0 00-.35-.45 20.25 20.25 0 01-3.85-6.1 22.49 22.49 0 01-1-5V38.1a1.56 1.56 0 01.45-1.3 3.22 3.22 0 011.35-.65l4.7-1.35zm-.1-3.1c-13.819-11.4-33.781-11.4-47.6 0L5 23.55c16.774-14.067 41.226-14.067 58 0zm-10.3 2.75A28 28 0 0034 29.2a27.41 27.41 0 00-18.55 6.75l5.2 6.2A19.82 19.82 0 0134 37.3a20.94 20.94 0 017.6 1.35M40.5 50.4L34 58l-8.2-9.7a12.31 12.31 0 018.2-3 12.54 12.54 0 016.5 1.7" fill="none" stroke="#4e22d0" stroke-linecap="round" stroke-linejoin="round" stroke-width="1.5"/></svg>