<svg xmlns="http://www.w3.org/2000/svg" width="80" height="80" fill="none"><path stroke="#4E22D0" stroke-linecap="round" stroke-linejoin="round" stroke-width="1.5" d="M18.8 35C11.5 32.9 5 33.4 5 33.4S6.2 48 16.1 56.2c9.8 8.3 24.3 7 24.3 7M62 35c7.3-2.1 13.8-1.6 13.8-1.6S74.6 48 64.7 56.2c-9.8 8.3-24.3 7-24.3 7"/><path stroke="#4E22D0" stroke-linecap="round" stroke-linejoin="round" stroke-width="1.5" d="M32.7 28.5c-5.7-5-11.9-7.3-11.9-7.3s-5 13.7.4 25.3c5.5 11.8 19.2 16.7 19.2 16.7m7.7-34.7c5.7-5 11.9-7.3 11.9-7.3s5 13.7-.4 25.3c-5.5 11.8-19.2 16.7-19.2 16.7"/><path stroke="#4E22D0" stroke-linecap="round" stroke-linejoin="round" stroke-width="1.5" d="M50.7 40.1c0 15.4-10.3 23.1-10.3 23.1S30.1 53 30.1 40.1C30.1 27.2 40.4 17 40.4 17s10.3 10.2 10.3 23.1z"/></svg>