<svg xmlns="http://www.w3.org/2000/svg" width="80" height="80" fill="none"><path stroke="#4E22D0" stroke-linecap="round" stroke-linejoin="round" stroke-width="1.5" d="M43.042 58.2v2-2zm-6.034 0v2-2zm5.527 8.7V70v-3.1zm-5.019 0V70v-3.1z" clip-rule="evenodd"/><path stroke="#4E22D0" stroke-linecap="round" stroke-width="1.5" d="M37.008 52.2l-3.7-3.65-3.804 3.65m0-7.4l3.803 3.75 3.701-3.75m6.034 0l3.752 3.75 3.753-3.75m0 7.4l-3.753-3.65-3.752 3.65"/><path stroke="#4E22D0" stroke-linecap="round" stroke-width="1.5" d="M55.567 56.9c-.473.734-1.032 1.5-1.674 2.3l-2.079 2.05c-1.353 1.2-2.771 2.116-4.26 2.75v3.15c0 .767-.286 1.433-.861 2a2.852 2.852 0 01-2.079.85h-9.127c-.81 0-1.504-.283-2.079-.85-.574-.567-.861-1.233-.861-2V64c-1.522-.634-2.941-1.55-4.26-2.75l-1.014-.85-1.115-1.2c-.676-.867-1.2-1.634-1.572-2.3C22.862 54.167 22 51.134 22 47.8c0-4.967 1.757-9.166 5.273-12.6 3.516-3.467 7.775-5.2 12.778-5.2 4.9 0 9.144 1.733 12.727 5.2C56.258 38.533 58 42.733 58 47.8c0 3.433-.811 6.466-2.433 9.1z" clip-rule="evenodd"/><path stroke="#4E22D0" stroke-linecap="round" stroke-width="1.5" d="M9 22.7h62m-49.25-6.3v1.7m-3.85-1.7v1.7m-3.95-1.7v1.7M23.7 61H13.2c-2.733-.033-4.133-1.434-4.2-4.2V16.2c.067-2.733 1.467-4.134 4.2-4.2h53.6c1.533.066 2.6.467 3.2 1.2.667.8 1 1.8 1 3v40.6c-.033 1.433-.366 2.45-1 3.05-.767.767-1.833 1.15-3.2 1.15H56.3"/></svg>