<svg xmlns="http://www.w3.org/2000/svg" width="80" height="80" fill="none"><path stroke="#4E22D0" stroke-linecap="round" stroke-linejoin="round" stroke-width="1.5" d="M63.901 54.6c2.5-.066 4.65-.35 6.45-.85 2.067-.533 3.117-1.183 3.15-1.95v-1.95c0-2.934-1.034-5.434-3.1-7.5-2.033-2.033-4.5-3.05-7.4-3.05-1.466 0-2.816.25-4.05.75m-16.55 0c-1.267-.5-2.617-.75-4.05-.75-2.9 0-5.4 1.017-7.5 3.05-2 2-3.017 4.4-3.05 7.2v2.25c0 .767 1.018 1.417 3.05 1.95 1.867.5 4.05.784 6.55.85m21.5-30.65V20.3c-.2-2.067-1.284-3.366-3.25-3.9l-19.55-5.7c-1.6-.467-2.65-.7-3.15-.7-.532 0-1.584.233-3.15.7l-19.6 5.7c-1.932.534-3 1.833-3.2 3.9v12.75c-.033 4.6.5 8.767 1.6 12.5 3.1 9.3 11.217 17.45 24.35 24.45 3.434-1.834 6.533-3.734 9.3-5.7m-2.15-7.05v2.2c0 .8 1.017 1.45 3.05 1.95.667.2 1.4.366 2.2.5 1.568.233 3.334.35 5.3.35 2.9 0 5.35-.283 7.35-.85 2.1-.5 3.168-1.15 3.2-1.95V57.5c0-2.933-1.05-5.433-3.15-7.5-.6-.6-1.233-1.1-1.9-1.5-1.633-1.033-3.467-1.55-5.5-1.55-2.934 0-5.434 1.017-7.5 3.05-2 2-3.017 4.416-3.05 7.25zm2.05-22.2c-1.067 1.033-2.333 1.55-3.8 1.55-1.466 0-2.716-.517-3.75-1.55-1.066-1.067-1.6-2.333-1.6-3.8 0-1.466.534-2.734 1.6-3.8 1.034-1.034 2.284-1.55 3.75-1.55 1.468 0 2.733.516 3.8 1.55 1.066 1.066 1.6 2.334 1.6 3.8 0 1.467-.533 2.733-1.6 3.8zm24.65-7.6c1.034 1.066 1.55 2.334 1.55 3.8 0 1.467-.516 2.733-1.55 3.8-1.1 1.033-2.367 1.55-3.8 1.55-1.5 0-2.767-.517-3.8-1.55l-.3-.3c-.867-1.033-1.3-2.2-1.3-3.5 0-1.334.434-2.484 1.3-3.45.1-.134.2-.25.3-.35 1.033-1.034 2.3-1.55 3.8-1.55 1.434 0 2.7.516 3.8 1.55zm-12.35 7.65c1.033 1.066 1.55 2.334 1.55 3.8 0 1.467-.517 2.733-1.55 3.8-1.066 1.033-2.334 1.55-3.8 1.55-1.467 0-2.733-.517-3.8-1.55-1.032-1.067-1.55-2.333-1.55-3.8 0-1.466.517-2.734 1.55-3.8 1.068-1.033 2.334-1.55 3.8-1.55 1.466 0 2.733.517 3.8 1.55z"/></svg>