<svg xmlns="http://www.w3.org/2000/svg" width="80" height="80" fill="none"><path stroke="#FF7800" stroke-linecap="round" stroke-linejoin="round" stroke-width="1.5" d="M46.99 64.102c.465.672.699 1.46.699 2.368 0 1.108-.384 2.049-1.149 2.82-.765.806-1.714 1.21-2.845 1.21-1.099 0-2.03-.404-2.796-1.21-.799-.772-1.198-1.713-1.198-2.82 0-.907.25-1.696.749-2.368m-13.005 0c.482.674.724 1.463.724 2.368 0 1.108-.382 2.049-1.148 2.82-.766.806-1.715 1.21-2.846 1.21-1.098 0-2.03-.404-2.795-1.21-.8-.772-1.198-1.713-1.198-2.82 0-.905.25-1.694.748-2.368m45.63 0c.464.672.698 1.46.698 2.368 0 1.108-.382 2.049-1.15 2.82-.764.806-1.713 1.21-2.844 1.21-1.098 0-2.03-.404-2.795-1.21-.8-.772-1.199-1.713-1.199-2.82 0-.907.25-1.696.75-2.368m-7.39-35.461v12.442H35.357V28.64M64.112 63.9h-6.439m-27.906 0h27.906L52.63 48.236H34.808l-5.041 15.666h-6.341m0-41.054v2.418m33.847 3.375c1.797.168 3.328.907 4.593 2.216 1.497 1.579 2.246 3.36 2.246 5.34v12.592"/><path stroke="#FF7800" stroke-linecap="round" stroke-linejoin="round" stroke-width="1.5" d="M15.688 63.9h7.738V25.267c-.1 1.478-.632 2.67-1.598 3.577-.698.705-1.497 1.158-2.396 1.36-.2.604-.615 1.292-1.248 2.065-1.031 1.007-2.28 1.51-3.744 1.51h-2.596V17.963H8V16.2c0-1.746.649-3.308 1.947-4.685 1.265-1.343 2.83-2.015 4.693-2.015h3.146c4.758.168 8.835 1.964 12.23 5.39 1.631 1.645 2.912 3.76 3.844 6.346.827 2.197 1.327 4.664 1.497 7.405h21.916l5.692.05c2.462 0 4.592.89 6.39 2.67C71.118 33.141 72 35.29 72 37.809v10.98h-7.888v15.112h7.638"/></svg>