<svg xmlns="http://www.w3.org/2000/svg" width="24" height="24"><path fill="#706a9c" fill-rule="evenodd" d="M16.38 6.005c.381 0 .97.124 1.765.371.796.248 1.54.817 2.232 1.709-.138.033-.545.38-1.22 1.04-.674.66-1.064 1.65-1.167 2.97.138 1.585.64 2.7 1.505 3.343.865.644 1.367.966 1.505.966-.035.066-.173.388-.415.966s-.623 1.246-1.142 2.005a9.992 9.992 0 01-1.48 1.808c-.536.512-1.159.767-1.868.767-.71 0-1.298-.123-1.765-.37-.467-.249-1.098-.372-1.894-.372-.796 0-1.436.123-1.92.371-.485.248-1.056.388-1.714.421-.726 0-1.375-.272-1.946-.817a10.33 10.33 0 01-1.531-1.857c-1.004-1.387-1.713-3.079-2.128-5.076-.416-1.997-.173-3.854.726-5.571a6.099 6.099 0 011.973-1.907 4.948 4.948 0 012.595-.718c.727.033 1.401.182 2.024.446s1.16.413 1.61.446c.45-.033 1.046-.207 1.79-.52.744-.314 1.566-.454 2.465-.421zM15.978 0a4.405 4.405 0 01-.21 1.86 6.08 6.08 0 01-.814 1.606 3.865 3.865 0 01-1.304 1.146c-.527.29-1.07.417-1.63.383a4.202 4.202 0 01.233-1.86c.218-.595.482-1.096.792-1.504.372-.476.83-.858 1.373-1.147.544-.289 1.063-.45 1.56-.484z"/></svg>