<svg height="48" width="48" xmlns="http://www.w3.org/2000/svg"><path d="M33.204 21.58c2.994 0 5.532 1.034 7.614 3.102C42.939 26.809 44 29.34 44 32.275c0 3.014-1.06 5.545-3.182 7.594-.456.452-.922.857-1.399 1.21C37.615 42.36 35.544 43 33.204 43c-2.3 0-4.371-.64-6.215-1.92a11.533 11.533 0 01-1.428-1.211c-2.081-2.049-3.122-4.58-3.122-7.594 0-2.934 1.04-5.466 3.122-7.593 2.142-2.068 4.69-3.102 7.643-3.102zm4.68-4.15l2.15.703.708 2.289.59-2.289 2.18-.703-2.18-.88-.59-2.288-.707 2.288zm-2.211 10.206c.456.217.892.542 1.308.975 1.071 1.083 1.606 2.364 1.606 3.841 0 1.478-.535 2.748-1.606 3.812-1.03 1.063-2.31 1.595-3.836 1.595-1.13 0-2.141-.305-3.033-.916a4.07 4.07 0 01-.744-.679c-1.05-1.064-1.576-2.334-1.576-3.812 0-1.477.526-2.758 1.576-3.84.218-.217.466-.434.744-.65.178-.118.367-.227.565-.326m2.468-2.363v4.815m-9.953 10.278a42.127 42.127 0 01-3.942 2.397c-.282.157-.601.237-.963.237s-.682-.08-.964-.237c-6.753-3.642-10.917-7.91-12.5-12.796C4.272 28.013 4 25.913 4 23.676V13.008c4.667-2.46 9.484-3.69 14.451-3.69 4.733 0 9.432 1.23 14.1 3.69v6.404M36.22 4l1.209 3.871 3.712 1.32-3.712 1.173-1.208 3.873-1.15-3.873-3.711-1.173 3.712-1.32z" fill="none" stroke="#ff7800" stroke-linecap="round" stroke-linejoin="round" stroke-width="1.5"/></svg>