<svg height="48" width="48" xmlns="http://www.w3.org/2000/svg"><path d="M16.71 10.217C10.773 12.27 6.344 17.558 5.534 23.975m3.638 12.731A16.767 16.767 0 0022.2 42.9c3.528 0 6.802-1.087 9.505-2.945 2.127-1.463 3.397-3.151 3.53-3.249M13.8 8.7l3.3 1.5-1.5 3.3m12.858 23.1h9.321c4.336-.033 7.83-3.544 7.82-7.856.06-3.898-2.808-7.23-6.689-7.77v-.387a8.478 8.478 0 00-2.502-6.097 8.568 8.568 0 00-6.13-2.49 8.299 8.299 0 00-6.04 2.49c-.344.367-.664.754-.959 1.16a8.54 8.54 0 00-3.452-.687 8.653 8.653 0 00-6.387 2.662 8.645 8.645 0 00-2.676 5.666 7.434 7.434 0 00-1.588-.171 6.473 6.473 0 00-4.747 1.932A6.502 6.502 0 002.4 29.817c.062 3.595 2.9 6.534 6.508 6.74h19.55" stroke="#ff7800" stroke-width="1.5" fill="none" stroke-linecap="round" stroke-linejoin="round"/></svg>