<svg height="48" width="48" xmlns="http://www.w3.org/2000/svg"><path d="M34.59 23.43l-.6.6zM13.44 24.6l9.99 9.99zm.6-.6l10.59-10.56zm11.16 2.94c.26.28.39.58.39.9 0 .32-.13.58-.39.78-.22.28-.49.42-.81.42-.32 0-.61-.14-.87-.42-.22-.2-.33-.46-.33-.78s.11-.62.33-.9c.26-.2.55-.3.87-.3.32 0 .59.1.81.3zm-.81-6.3c-.32 0-.61-.14-.87-.42-.22-.2-.33-.46-.33-.78s.11-.62.33-.9c.26-.2.55-.3.87-.3.32 0 .59.1.81.3.26.28.39.58.39.9 0 .32-.13.58-.39.78-.22.28-.49.42-.81.42zm5.01 3.78c-.22.28-.49.42-.81.42-.32 0-.61-.14-.87-.42-.22-.2-.33-.46-.33-.78s.11-.62.33-.9c.26-.2.55-.3.87-.3.32 0 .59.1.81.3.26.28.39.58.39.9 0 .32-.13.58-.39.78zM21 22.74c.26.28.39.58.39.9 0 .32-.13.58-.39.78-.22.28-.49.42-.81.42-.32 0-.61-.14-.87-.42-.22-.2-.33-.46-.33-.78s.11-.62.33-.9c.26-.2.55-.3.87-.3.32 0 .59.1.81.3zm4.23 12.45l4.11 4.14c1.4 1.38 3.07 2.07 5.01 2.07 1.94-.02 3.6-.71 4.98-2.07 1.38-1.38 2.06-3.03 2.04-4.95.02-1.96-.66-3.63-2.04-5.01l-5.34-5.34-10.56 10.56-4.77 4.71c-1.4 1.38-3.07 2.06-5.01 2.04-1.94.02-3.59-.66-4.95-2.04-1.38-1.38-2.08-3.04-2.1-4.98 0-1.94.7-3.6 2.1-4.98l4.74-4.74.6-.6-1.44-1.44-3.9-3.9c-1.4-1.4-2.08-3.07-2.04-5.01 0-1.94.68-3.59 2.04-4.95 1.4-1.38 3.07-2.08 5.01-2.1 1.9 0 3.56.69 4.98 2.07l4.14 4.17m1.8.6l9.96 9.99 4.77-4.77c1.36-1.4 2.04-3.06 2.04-4.98-.02-1.94-.71-3.61-2.07-5.01-1.38-1.36-3.04-2.04-4.98-2.04-1.94-.04-3.61.64-5.01 2.04z" fill="none" stroke="#ff7800" stroke-linecap="round" stroke-linejoin="round" stroke-width="1.5"/></svg>