<svg width="84" height="84" fill="none" xmlns="http://www.w3.org/2000/svg"><path d="M69.412 45.065L77 65.374l-7.98-3.117L65.106 70 61.09 59.343m.98-9.703l-7.587 20.31-3.965-7.692-7.98 3.017 7.588-20.312" stroke="#4E22D0" stroke-width="1.5" stroke-linecap="round" stroke-linejoin="round"/><path clip-rule="evenodd" d="M67.063 30.937c0 2.112-.702 3.887-2.105 5.33-1.436 1.474-3.182 2.211-5.237 2.211-2.024 0-3.753-.737-5.19-2.212-1.402-1.442-2.104-3.217-2.104-5.329 0-2.078.702-3.871 2.105-5.38 1.436-1.474 3.165-2.212 5.189-2.212 2.055 0 3.801.738 5.237 2.213 1.403 1.508 2.105 3.3 2.105 5.38z" stroke="#4E22D0" stroke-width="1.5" stroke-linecap="round" stroke-linejoin="round"/><path clip-rule="evenodd" d="M69.706 20.63c2.708 2.849 4.063 6.285 4.063 10.306 0 4.022-1.355 7.441-4.063 10.255-2.741 2.817-6.07 4.224-9.986 4.224-3.884 0-7.196-1.407-9.937-4.224-2.774-2.814-4.16-6.233-4.16-10.255 0-4.021 1.386-7.457 4.16-10.306 2.741-2.816 6.053-4.223 9.937-4.223 3.916 0 7.245 1.407 9.986 4.223z" stroke="#4E22D0" stroke-width="1.5" stroke-linecap="round" stroke-linejoin="round"/><path d="M40.238 59.694c-1.825 1.562-3.881 3.088-6.168 4.575-.456.3-.946.62-1.469.955-.945.57-1.941 1.156-2.986 1.76l-.538.25c-.066.067-.147.067-.245 0l-.49-.25a21.671 21.671 0 01-1.908-1.106c-3.623-2.146-6.739-4.409-9.35-6.788a15.191 15.191 0 01-1.469-1.407l-.342-.352a12.91 12.91 0 01-.686-.654c-.163-.2-.326-.403-.49-.603-2.577-2.916-4.454-5.983-5.628-9.2a20.816 20.816 0 01-1.126-4.625A17.91 17.91 0 017 39.282V23.496c0-.906.212-1.575.636-2.01.326-.302.98-.587 1.958-.855l16.79-5.028c1.24-.402 2.105-.603 2.595-.603.49 0 1.354.201 2.594.603l14.147 4.249" stroke="#4E22D0" stroke-width="1.5" stroke-linecap="round" stroke-linejoin="round"/></svg>