<svg xmlns="http://www.w3.org/2000/svg" width="80" height="80"><path fill="none" stroke="#FF7800" stroke-linecap="round" stroke-linejoin="round" stroke-width="1.5" d="M32.35 38.547l-.95-1.302.95 1.302zm4.101 5.812l-.601-1.002-3.5-4.81h-.2l-.75-1.302-.15-.15v11.522c.201 1.536.867 2.871 2 4.007 1.267 1.269 2.8 1.903 4.6 1.903 1.867 0 3.45-.634 4.75-1.903 1.2-1.136 1.851-2.504 1.95-4.108V31.284c-.233 0-.516-.066-.849-.2a3.427 3.427 0 01-1.151-.602.3.3 0 01-.2-.2c-.5-.567-.75-1.201-.75-1.903 0-.735.217-1.403.65-2.003.333-.3.717-.535 1.15-.703.433-.167.817-.25 1.15-.25.8 0 1.5.318 2.1.953.533.6.801 1.268.801 2.003 0 .702-.184 1.336-.551 1.903a.477.477 0 01-.25.2c-.3.235-.6.385-.9.451-.367.235-.766.35-1.2.35M28.701 13H51.1L67 28.78v22.392L51.1 67H28.85L13 51.172V28.779L28.701 13z"/></svg>