<svg xmlns="http://www.w3.org/2000/svg" width="80" height="80"><path fill="none" stroke="#FF7800" stroke-linecap="round" stroke-linejoin="round" stroke-width="1.5" d="M45 63H23h22zm-1.762-2.524h-19.15l-5.088-18h28.072M30.118 31.792a18.551 18.551 0 01-.774-2.62 14.55 14.55 0 01-.301-2.445 9.875 9.875 0 01-.043-.933c0-.148.015-.326.043-.533.172-1.6.846-3.006 2.022-4.22 1.348-1.304 2.982-1.955 4.903-1.955 1.892 0 3.513.651 4.86 1.955 1.234 1.184 1.95 2.576 2.15 4.176.03.533.03 1.052 0 1.555a.884.884 0 00-.042.266c-.172 1.748-.531 3.333-1.076 4.754-.115.267-.215.518-.3.756-.746 1.391-1.706 2.532-2.882 3.42-1.033.8-1.936 1.23-2.71 1.29-.774-.06-1.678-.49-2.71-1.29-1.176-.888-2.122-2.029-2.839-3.42a13.55 13.55 0 00-.3-.756zm26.827 8.167l-.602-2.538c-1.06-4.357-4.41-6.933-10.053-7.727.4-3.975 0-7.522-1.203-10.642a17.553 17.553 0 00-5.37-7.33c-1.433-1.089-2.678-1.664-3.738-1.722-1.032.058-2.264.633-3.695 1.722a17.536 17.536 0 00-5.37 7.33c-1.204 3.12-1.605 6.667-1.204 10.642-5.641.794-8.993 3.37-10.053 7.727l-3.394 14.306c-.601 2.591-.172 4.725 1.289 6.403 1.375 1.59 3.594 2.708 6.66 3.356m31.711-6.774l2.944 2.778 6-5.165M56.5 66C62.851 66 68 60.851 68 54.5S62.851 43 56.5 43 45 48.149 45 54.5 50.149 66 56.5 66zm8.5-3l7 7"/></svg>