<svg xmlns="http://www.w3.org/2000/svg" width="80" height="80"><path fill="none" stroke="#FF7800" stroke-linecap="round" stroke-linejoin="round" stroke-width="1.5" d="M40.034 44.5c.644 10.233 5.306 15.45 13.984 15.65M27.22 13.9c3.594-1.933 7.628-2.9 12.104-2.9 5.085 0 9.575 1.217 13.474 3.65M32.763 63.101C28.287 58.067 26.136 51.5 26.305 43.4c0-3.6 1.29-6.7 3.865-9.299 2.745-2.368 5.932-3.551 9.558-3.551 3.764 0 6.968 1.183 9.611 3.551 2.815 2.599 4.222 5.699 4.222 9.299 0 .534-.034 1.083-.102 1.65M49.187 69C38 63.867 32.609 55.45 33.017 43.75c0-1.833.68-3.433 2.034-4.8 1.491-1.333 3.204-2 5.136-2 1.967 0 3.643.667 5.034 2 1.492 1.367 2.238 2.967 2.238 4.8 0 .4-.034.783-.102 1.15-.1.433-.152.917-.152 1.451 0 1.666.609 3.099 1.831 4.299 1.32 1.133 2.83 1.701 4.525 1.701 1.761 0 3.253-.568 4.475-1.701 1.287-1.2 1.933-2.633 1.933-4.299.17-3.868-.358-7.368-1.577-10.5-1.152-2.768-2.865-5.25-5.137-7.451-3.695-3.5-8.203-5.25-13.527-5.25-5.287 0-9.762 1.75-13.423 5.25-2.34 2.201-3.933 4.683-4.78 7.451-2.034 6.732-2.034 13.432 0 20.099m.914-31.05a13.186 13.186 0 011.577-1.75c4.27-4.1 9.51-6.15 15.712-6.15 6.205 0 11.46 2.05 15.765 6.15.78.734 1.509 1.517 2.188 2.35"/></svg>