<svg xmlns="http://www.w3.org/2000/svg" width="80" height="80"><path fill="none" stroke="#FF7800" stroke-linecap="round" stroke-linejoin="round" stroke-width="1.5" d="M17.4 63l45.3-45M48.4 37.005c.434 1.04.65 2.196.65 3.47 0 2.58-.85 4.742-2.55 6.486-1.867 1.776-4.05 2.664-6.55 2.664-1.267 0-2.417-.2-3.45-.603m22.9-22.827c2.1 1.71 3.767 3.302 5 4.776 1.033 1.074 3.566 4.258 7.6 9.553-4.034 5.23-6.567 8.415-7.6 9.553C57.7 57.52 49.567 61.24 40 61.24c-4.166 0-8.083-.704-11.75-2.113l-1.4-.602m4.6-14.431a9.704 9.704 0 01-.7-3.62c0-2.58.917-4.742 2.75-6.486 1.733-1.81 3.883-2.715 6.45-2.715 1.233 0 2.417.251 3.55.754M20.55 54.904c-2-1.742-3.633-3.352-4.9-4.827-1.033-1.138-3.583-4.323-7.65-9.553 4.067-5.295 6.617-8.479 7.65-9.553 6.733-7.44 14.85-11.16 24.35-11.16 4.233 0 8.183.72 11.85 2.16l1.25.503"/></svg>