<svg xmlns="http://www.w3.org/2000/svg" width="80" height="80"><path fill="none" stroke="#FF7800" stroke-linecap="round" stroke-linejoin="round" stroke-width="1.5" d="M36.413 47.467h-10.64 10.64zm-16.31 0h-7.579 7.579zM6 34.77v20.676c0 2.242 1.138 3.363 3.414 3.363h30.311M6 24.583V34.77h31.467m26.747-5.27v-4.917V29.5zm-5.218 1.506l12.946 3.764c.803.234 1.323.485 1.556.753.335.267.502.753.502 1.455v11.794c0 .535-.033 1.07-.1 1.605-.501 4.116-2.341 7.88-5.52 11.291-.836.905-1.555 1.607-2.159 2.11-1.338 1.204-3.127 2.508-5.368 3.912a246.701 246.701 0 01-3.464 2.11l-.4.2h-.102l-.4-.2a16.32 16.32 0 01-1.506-.855c-2.844-1.638-5.27-3.361-7.277-5.168l-2.31-2.258c-1.973-2.208-3.444-4.517-4.414-6.926a17.984 17.984 0 01-.855-3.464 17.938 17.938 0 01-.25-2.258V36.978c0-.702.167-1.188.501-1.455.27-.268.786-.519 1.557-.753l12.997-3.764c.97-.3 1.657-.452 2.058-.452.335 0 1.004.151 2.008.452zM60.902 16H9.414C7.138 16 6 17.138 6 19.414v5.169h58.214v-5.17c0-2.275-1.103-3.413-3.312-3.413zM50 47.827L55.436 53 65 44"/></svg>