<svg width="84" height="84" fill="none" xmlns="http://www.w3.org/2000/svg"><path d="M10.45 28.186C9.483 29.25 9 30.566 9 32.129v11.23c0 3.927.483 7.587 1.45 10.98 2.552 7.641 8.752 14.432 18.6 20.373a81.988 81.988 0 003.4 1.938c.467.233.983.35 1.55.35.567 0 1.083-.117 1.55-.35a79.432 79.432 0 004.703-2.743c3.57-2.256 6.626-4.631 9.17-7.126" stroke="#4E22D0" stroke-width="1.5" stroke-linecap="round" stroke-linejoin="round"/><path d="M14.45 21.186c-.967 1.065-1.45 2.38-1.45 3.943v11.23c0 3.927.483 7.587 1.45 10.98 2.834 8.486 10.167 15.923 22 22.311.467.233.983.35 1.55.35.567 0 1.083-.117 1.55-.35a79.432 79.432 0 004.703-2.743 65.443 65.443 0 003.332-2.248" stroke="#4E22D0" stroke-width="1.5" stroke-linecap="round" stroke-linejoin="round"/><path d="M63.655 45.687a27.13 27.13 0 001.895-4.347c.967-3.394 1.45-7.054 1.45-10.981v-11.23c0-1.564-.483-2.878-1.45-3.943-.834-1.164-2.15-2.047-3.95-2.646L45.55 7.898C43.75 7.3 42.567 7 42 7c-.567 0-1.75.3-3.55.898L22.4 12.54c-1.8.6-3.116 1.482-3.95 2.646-.967 1.065-1.45 2.38-1.45 3.943v11.23c0 3.927.483 7.587 1.45 10.98 2.834 8.486 10.167 15.923 22 22.312.467.232.983.349 1.55.349.567 0 1.083-.117 1.55-.35.877-.473 1.73-.952 2.557-1.437" stroke="#4E22D0" stroke-width="1.5" stroke-linecap="round" stroke-linejoin="round"/><path clip-rule="evenodd" d="M64.767 51.95v3.651-3.65z" stroke="#4E22D0" stroke-width="1.5" stroke-linecap="round" stroke-linejoin="round"/><path d="M59.676 51.95a2.69 2.69 0 01.748-1.75 2.54 2.54 0 011.797-.7c.7 0 1.298.233 1.798.7.466.5.715 1.083.748 1.75a2.69 2.69 0 01.749-1.75c.5-.467 1.098-.7 1.797-.7.699 0 1.298.233 1.797.7.466.5.716 1.083.749 1.75v2.35" stroke="#4E22D0" stroke-width="1.5" stroke-linecap="round" stroke-linejoin="round"/><path d="M59.675 55.601V41.5a2.69 2.69 0 00-.748-1.75A2.45 2.45 0 0057.13 39c-.7 0-1.298.25-1.797.75a2.932 2.932 0 00-.799 1.75v18.351l-5.141-5.202-.1-.099c-.532-.467-1.115-.699-1.747-.699-.7 0-1.298.25-1.797.75-.5.533-.749 1.132-.749 1.798 0 .668.233 1.25.699 1.75l.1.101 10.632 10.7.2.199C58.727 71.05 61.19 72 64.018 72c3.062 0 5.64-1.083 7.737-3.25 1.997-1.967 3.078-4.316 3.245-7.05v-1.5l-.05-5.75v-.15c0-.699-.25-1.283-.749-1.75a2.448 2.448 0 00-1.797-.75c-.698 0-1.297.25-1.797.75-.466.467-.716 1.051-.748 1.75v1.301" stroke="#4E22D0" stroke-width="1.5" stroke-linecap="round" stroke-linejoin="round"/></svg>