<svg width="84" height="84" fill="none" xmlns="http://www.w3.org/2000/svg"><path d="M27.35 44.25l4.8 3.05c.833.467 1.266 1.05 1.3 1.75m1.8-4.35c-1.067.533-1.667 1.333-1.8 2.4v3.65m23.35-3.5c-2.067-.833-3.933-.7-5.6.4l-7.65 5.15M41.95 32c-1-2.6-.784-4.4.65-5.4l1.65-1.3m-3.9 0c1.667.467 2.967.467 3.9 0l1.8-1.15M12 59.1v6.05c0 4.566 2.284 6.85 6.85 6.85h6m0-60h-6C14.284 12 12 14.283 12 18.85v5.95M59.15 72h6c4.567 0 6.85-2.284 6.85-6.85V59.1M58.75 34.95c.133 1.933.683 3.7 1.65 5.3.367.566.933 1.183 1.7 1.85.233.133.417.3.55.5" stroke="#4E22D0" stroke-width="1.5" stroke-linecap="round" stroke-linejoin="round"/><path d="M62.9 42.75c-.033-.034-.067-.05-.1-.05l-.15-.1-.15-.15c-.033-.067-.1-.117-.2-.15l-.15-.15-.05-.05c-1.1-.767-2.467-1.183-4.1-1.25l-4.75-.25" stroke="#4E22D0" stroke-width="1.5" stroke-linecap="round" stroke-linejoin="round"/><path clip-rule="evenodd" d="M60.95 31.4c.7.333 1.35.816 1.95 1.45 1.4 1.4 2.1 3.067 2.1 5 0 1.6-.483 3-1.45 4.2-.2.2-.417.433-.65.7.233.767.35 1.55.35 2.35 0 .4-.033.833-.1 1.3-.2 1.4-.833 2.617-1.9 3.65-.7.666-1.433 1.166-2.2 1.5-.3.433-.634.85-1 1.25-.567.566-1.15 1-1.75 1.3l2.2 6.1-3.9 2.7-5.6-8h-.5c-1.9 0-3.55-.7-4.95-2.1l-.05-.05a3.889 3.889 0 01-.95.6c-.933.433-1.967.65-3.1.65-.8 0-1.617-.117-2.45-.35a8.621 8.621 0 01-1.65-.85l-.85-.85c-.367-.4-.716-.8-1.05-1.2-.367.233-.733.45-1.1.65-.967.466-1.983.7-3.05.7-2 0-3.7-.683-5.1-2.05l-.35-.35a7.054 7.054 0 01-2.75-1.8c-1.4-1.4-2.1-3.05-2.1-4.95 0-1.234.284-2.35.85-3.35-.367-.833-.55-1.75-.55-2.75 0-1.933.7-3.583 2.1-4.95 1-1.034 2.2-1.667 3.6-1.9.233-1.367.883-2.55 1.95-3.55 1.267-1.4 2.9-2.1 4.9-2.1.833 0 1.617.133 2.35.4.3-.534.683-1.05 1.15-1.55 1.4-1.4 3.083-2.1 5.05-2.1 1.9 0 3.55.7 4.95 2.1.267.233.5.55.7.95a6.391 6.391 0 011.05-.55c1.133-.4 2.316-.6 3.55-.6.6 0 1.167.033 1.7.1 2.233.3 4.133 1.266 5.7 2.9 1.567 1.533 2.533 3.333 2.9 5.4z" stroke="#4E22D0" stroke-width="1.5" stroke-linecap="round" stroke-linejoin="round"/><path d="M72 24.8v-5.95c0-4.567-2.283-6.85-6.85-6.85h-6" stroke="#4E22D0" stroke-width="1.5" stroke-linecap="round" stroke-linejoin="round"/></svg>