<svg xmlns="http://www.w3.org/2000/svg" width="80" height="80" viewBox="-4 -9 80 80"><g fill="none" fill-rule="evenodd" stroke="#7D77A6" stroke-linecap="round" stroke-linejoin="round" stroke-width="1.5"><path d="M16.45 23.3v6.75h8.4m-16.799 6.7h8.4v-6.7h-8.4m4.3-29.3v4.2-4.2zm26.85 49.5H3.45a3.81 3.81 0 01-1.15-.35c-.834-.366-1.318-1.116-1.45-2.25l-.1-.6V16.6M41.6 30.05V23.3v6.75zM24.85 23.3v6.75-6.75zm8.4 0v6.75-6.75zm-8.4 20.15v-6.7h-8.4v6.7m16.8-13.4h-8.4v6.7h8.4v6.7-13.4zm13.65 0H33.25v6.7h7.25m16.8-4.95h.6c1.7 0 3.3.25 4.8.75 2.166.7 4.116 1.9 5.85 3.6C71.516 39.184 73 42.734 73 46.8c0 2.534-.534 4.817-1.6 6.85-.7 1.367-1.65 2.634-2.85 3.8C65.583 60.484 62.032 62 57.9 62c-4.2 0-7.784-1.516-10.75-4.55-2.067-2.066-3.384-4.466-3.95-7.2a14.935 14.935 0 01-.4-3.45c0-4.066 1.45-7.616 4.35-10.65 2.866-2.8 6.25-4.25 10.15-4.35zM37.501.75v4.2h8.4V.75M57.3 27.9V16.6v11.3zM12.351 4.95h-8.3c-.8 0-1.384.118-1.75.35-1.034.367-1.55 1.317-1.55 2.85v8.45H57.3V8.15c0-1.533-.5-2.483-1.5-2.85-.4-.232-.934-.35-1.6-.35h-8.3v4.2m-8.4 0v-4.2h-8.4v4.2M20.75.75v4.2h8.35V.75m-8.35 8.4v-4.2h-8.4v4.2"/><path d="M57.75 38.3v9.2l5.101 2.8"/></g></svg>