<svg xmlns="http://www.w3.org/2000/svg" width="81" height="80"><path fill="none" stroke="#FF7800" stroke-linecap="round" stroke-linejoin="round" stroke-width="1.5" d="M66.75 27.5H60.8h5.95zm5.649-3.7l-.95.95.95-.95zm0 7.45l-.95-.95.95.95zM76.6 27.5h-6 6zm-7.901-7.9v6-6zm-2.8 5.15l-.95-.95.95.95zm-.049 5.55l-.901.95.901-.95zm2.849-.85v5.95-5.95zM57.85 18.65v3.3-3.3zM25.149 36.9v8.15-8.15zm38-20.2H59.75h3.399zm-5.299-5.25v3.35-3.35zm-1.951 5.25H52.6h3.299zm-23.45 8.45c1.5-5.466 4.717-9.617 9.651-12.45 2.533-1.467 5.15-2.366 7.849-2.7-1.633 2.1-2.816 4.533-3.55 7.3-1.466 5.567-.766 10.834 2.101 15.8 2.899 5.034 7.116 8.3 12.649 9.8 2.767.734 5.484.934 8.151.6-1.634 2.167-3.734 3.967-6.3 5.4-4.467 2.6-9.217 3.434-14.25 2.5M4.5 48.75c0-5.733 2.017-10.65 6.05-14.75 4.066-4 8.967-6 14.7-6 5.767 0 10.666 2 14.699 6C43.982 38.1 46 43.017 46 48.75c0 5.767-2.018 10.65-6.051 14.65-4.033 4.1-8.932 6.15-14.699 6.15-5.733 0-10.634-2.05-14.7-6.15-4.033-4-6.05-8.883-6.05-14.65zm24.899-7.95c.767.367 1.5.917 2.201 1.65 1.799 1.833 2.7 4 2.7 6.5s-.901 4.65-2.7 6.45c-1.734 1.8-3.884 2.7-6.451 2.7-1.899 0-3.599-.516-5.099-1.55a6.765 6.765 0 01-1.25-1.15c-1.767-1.8-2.651-3.95-2.651-6.45s.884-4.667 2.651-6.5c.366-.366.783-.733 1.25-1.1.3-.2.616-.383.95-.55"/></svg>