<svg xmlns="http://www.w3.org/2000/svg" width="80" height="80" viewBox="-1 0 84 84"><path fill="none" stroke="#FF7800" stroke-linecap="round" stroke-linejoin="round" stroke-width="1.5" d="M48.05 61.75c.4.634.9 1.233 1.5 1.801.533.566 1.083 1.05 1.65 1.449l-3.15-3.25zm25.6-11.899h4.25-4.25zm-7.05 4.75c.033-1.767-.484-3.351-1.55-4.75-.267-.333-.55-.651-.85-.951v-.049c-1.6-1.5-3.517-2.267-5.75-2.3m-8.9-.851c.866-.866 1.8-1.583 2.8-2.149C54.183 42.518 56.234 42 58.5 42c2.967 0 5.55.884 7.75 2.65.4.333.783.684 1.15 1.05 1.266 1.234 2.216 2.617 2.85 4.151.567 1.466.85 3.049.85 4.75 0 3.533-1.234 6.516-3.7 8.95-2.433 2.467-5.4 3.699-8.9 3.699-2.766 0-5.2-.75-7.3-2.25l-7.5 7.5a1.816 1.816 0 01-1.6.601c-.533.066-1.05-.134-1.55-.601-.5-.5-.75-1.066-.75-1.699.066-.634.316-1.134.75-1.5l7.5-7.551a11.53 11.53 0 01-1.3-2.449c-.6-1.434-.9-3-.9-4.7m-2.85 4.7h-8.4l1.8-2.801c.8-1.232 1.2-2.533 1.2-3.899 0-1.568-.6-2.984-1.8-4.25-1.2-1.234-2.617-1.851-4.25-1.851-1.667 0-3.083.617-4.25 1.851-1.267 1.233-1.9 2.649-1.9 4.25 0 .799.15 1.483.45 2.049.266.701.566 1.317.9 1.85l1.7 2.801h-11c-3.1 0-4.65-1.568-4.65-4.7v-12l-2.75 1.75a7.293 7.293 0 01-1.9.95c-.6.199-1.284.3-2.05.3-1.667 0-3.083-.601-4.25-1.8C.616 42.667 0 41.25 0 39.551c0-1.634.616-3.051 1.85-4.25 1.167-1.2 2.583-1.801 4.25-1.801 1.4 0 2.717.4 3.95 1.2l2.75 1.8v-12c0-3.133 1.55-4.699 4.65-4.699H29.5l-1.7-2.75a7.3 7.3 0 01-.9-1.851c-.267-.599-.4-1.3-.4-2.099 0-1.667.616-3.101 1.85-4.3C29.517 7.601 30.916 7 32.55 7c1.633 0 3.066.601 4.3 1.801 1.2 1.199 1.8 2.633 1.8 4.3A6.74 6.74 0 0137.45 17l-1.8 2.801h12c1.433 0 2.55.366 3.35 1.099.9.833 1.35 2.034 1.35 3.6v15.15m25.55-14.9H55.25 77.9zm-7.45 19.9h7.45c1.4 0 2.1-.7 2.1-2.099v-11.5c0-1.401-.7-2.101-2.1-2.101H55.25"/></svg>