<svg xmlns="http://www.w3.org/2000/svg" width="202" height="80"><path fill="none" stroke="#7D77A6" stroke-linecap="round" stroke-linejoin="round" stroke-width="1.5" d="M119.927 63.3V44.949 63.3zm5.9 0V44.949 63.3zm-11.799 0V44.949 63.3zm-5.702-18.351V63.3c0 3.267 1.634 4.899 4.902 4.899h13.4c3.3 0 4.95-1.632 4.95-4.899V44.949h-23.252zm5.851-15.449V15.65c0-3.1-1.533-4.65-4.6-4.65h-38.65c-3.102 0-4.65 1.55-4.65 4.65v38.6c0 3.067 1.548 4.6 4.65 4.6h34.2m9.05-23.401c.067-1.833 1.034-2.75 2.9-2.75h5.75c1.901 0 2.85.967 2.85 2.901l-11.5-.151zm-7.65 4.601c0 .366.15.7.45 1 .266.267.6.399 1 .399h23.95c.367 0 .7-.132 1-.399.267-.3.4-.634.4-1 0-.4-.133-.733-.4-1-.3-.3-.633-.45-1-.45h-23.95c-.4 0-.734.15-1 .45-.3.267-.45.6-.45 1zm-18.8 2.5c.133-.167.283-.334.45-.5.166-.167.333-.317.5-.45l-.95.95zm-.5-17.351l-7.25-7.25h22.7V40.6l-6.5-6.45-7.5 7.45-.95.95a.731.731 0 00-.15.2c-.767 1.033-1.15 2.233-1.15 3.6 0 1.666.583 3.083 1.75 4.25a5.482 5.482 0 002.15 1.4h-.2c-3.4 0-6.284-1.2-8.65-3.6-2.434-2.4-3.65-5.3-3.65-8.701 0-3.233 1.1-6.016 3.3-8.349a.323.323 0 01.15-.151l5.95-6z"/></svg>