<svg xmlns="http://www.w3.org/2000/svg" width="80" height="80" viewBox="-3 -14 80 80"><g fill="none" fill-rule="evenodd" stroke="#FF7800" stroke-linecap="round" stroke-linejoin="round" stroke-width="1.5"><path d="M72.45 47.55l-7.2-3.101H7.801l-7.05 3.1h71.7zm-71.7 2.5c.534.467 1.084.7 1.65.7h68.55c.601 0 1.101-.233 1.5-.7v-2.5H.75v2.5zM7.551 3.4v35.35c0 1.734.882 2.6 2.65 2.6h51.75c1.732 0 2.6-.866 2.6-2.6V3.4c0-1.767-.868-2.65-2.6-2.65H10.2c-1.768 0-2.65.883-2.65 2.65z"/><path d="M27.1 20.75H15.6h11.5zM13.95 18.6c-.566.633-.85 1.349-.85 2.15 0 .833.284 1.533.85 2.1.6.599 1.317.9 2.15.9h39.05c.867 0 1.567-.301 2.1-.9.6-.534.9-1.234.9-2.1 0-.834-.3-1.551-.9-2.15-.566-.567-1.266-.85-2.1-.85H16.1c-.8 0-1.516.283-2.15.85z"/></g></svg>