<svg xmlns="http://www.w3.org/2000/svg" width="80" height="80" viewBox="67 0 80 80"><path fill="none" stroke="#7D77A6" stroke-linecap="round" stroke-linejoin="round" stroke-width="1.5" d="M113.086 53.95l3.2 3.2 1.7 1.6 8.75-8.75m-25.7 3.95c-.86.034-1.744.05-2.65.05-5.434 0-10.067-.583-13.9-1.75-3.8-1.167-5.717-2.567-5.75-4.2v10.4c.033 1.633 1.95 3.034 5.75 4.2 3.833 1.167 8.466 1.75 13.9 1.75 1.972 0 3.84-.075 5.6-.225M78.736 16.05v-.1c.033-1.633 1.95-3.033 5.75-4.2 3.833-1.167 8.466-1.75 13.9-1.75 5.433 0 10.066.583 13.9 1.75 3.8 1.167 5.717 2.567 5.75 4.2v.1m-5.75 4.2c-3.834 1.167-8.467 1.75-13.9 1.75-5.434 0-10.067-.583-13.9-1.75-3.8-1.167-5.717-2.567-5.75-4.2v10.4c.033 1.633 1.95 3.034 5.75 4.2 3.833 1.167 8.466 1.75 13.9 1.75 5.433 0 10.066-.583 13.9-1.75 3.8-1.166 5.717-2.567 5.75-4.2v-10.4c-.033 1.633-1.95 3.033-5.75 4.2zm7.55 17.55c4.3 0 8 1.517 11.1 4.55 3.133 3.167 4.7 6.884 4.7 11.15 0 4.4-1.567 8.134-4.7 11.2-3.1 3.167-6.8 4.75-11.1 4.75-4.4 0-8.167-1.583-11.3-4.75-2.134-2.2-3.517-4.716-4.15-7.55a16.75 16.75 0 01-.4-3.65c0-4.266 1.517-7.983 4.55-11.15 3-2.933 6.55-4.45 10.65-4.55h.65zm-1.8-5.75c-.033 1.633-1.95 3.033-5.75 4.2-3.834 1.167-8.467 1.75-13.9 1.75-5.434 0-10.067-.583-13.9-1.75-3.8-1.167-5.717-2.567-5.75-4.2v10.4c.033 1.633 1.95 3.034 5.75 4.2 3.833 1.167 8.466 1.75 13.9 1.75 1.064 0 2.097-.025 3.1-.075"/></svg>