<svg xmlns="http://www.w3.org/2000/svg" width="80" height="80" viewBox="-3 -13 80 80"><g fill="none" fill-rule="evenodd" stroke="#FF7800" stroke-linecap="round" stroke-linejoin="round" stroke-width="1.5"><path d="M71.35 28.05H43.049m28.3-7.65v25.55c-.032 2.434-1.25 3.65-3.65 3.65H44.05m-15.5-29.2h3.4l1.5-5.8h13.702l1.5 5.8H71.35v-5.65c-.033-2.4-1.25-3.634-3.65-3.7H29.549"/><path d="M5.549 38C4.717 44.267 2.867 50.267 0 56h7.901c.732-1.333 1.466-2.983 2.199-4.95.533-1.467 1.15-3.434 1.849-5.901L11.799 56h15.102a49.32 49.32 0 01-.25-4.95 86.247 86.247 0 010-4.199l1.398 4.199c.867 2.233 1.584 3.884 2.15 4.95H34.1a36.587 36.587 0 01-.651-4.8l-.048-.15-.202-1.699L34 51.05c1.033 2.134 1.949 3.783 2.75 4.95H44l-.099-.2a64.53 64.53 0 01-3.602-9.1c-.865-3.167-1.398-5.45-1.6-6.849L38.5 38M21.699 0H21.6c-1.567.033-2.949.601-4.151 1.7-1.132 1.133-1.699 2.517-1.699 4.151l2.049 18.899h-11.5c-.699 0-1.383.3-2.049.899-.533.535-.816 1.167-.849 1.901v7.65H40.6v-7.599c-.033-.735-.317-1.368-.85-1.901-.668-.599-1.349-.933-2.051-1H25.5l2.049-18.9c0-1.633-.566-3.017-1.699-4.151C24.651.55 23.266 0 21.699 0zm1.452 7.3c-.368.467-.852.7-1.452.7-.599 0-1.099-.233-1.5-.7-.298-.3-.5-.666-.599-1.1l-.051-.349c.033-.568.25-1.051.65-1.452.401-.366.901-.548 1.5-.548.567 0 1.051.182 1.452.548.365.401.548.884.548 1.452 0 .566-.183 1.048-.548 1.449zM58.6 14.95v1.7m7.8-1.7v1.7m-3.95-1.7v1.7"/></g></svg>