<svg xmlns="http://www.w3.org/2000/svg" width="80" height="80"><path fill="none" stroke="#4E22D0" stroke-linecap="round" stroke-linejoin="round" stroke-width="1.5" d="M77.7 64.2l-7.2-3.1H10.051L3 64.2h74.7zM4.65 67.4H76.2c.601 0 1.101-.233 1.5-.7v-2.5H3v2.5c.534.467 1.084.7 1.65.7zm49.8-31.5l3.65 1.2 1.201 3.9 1-3.9L64 35.9l-3.699-1.5-1-3.9-1.201 3.9-3.65 1.5zm-.8-23.9l-1.95 6.6-6.3 2.25 6.3 2 1.95 6.6 2.05-6.6 6.3-2-6.3-2.25-2.05-6.6zM40.2 33.65v3.65-3.65zm-5.1 0c.034-.667.284-1.25.75-1.75.5-.467 1.1-.7 1.8-.7s1.3.233 1.8.7c.467.5.717 1.083.75 1.75.033-.667.283-1.25.75-1.75.5-.467 1.101-.7 1.8-.7.7 0 1.301.233 1.801.7.466.5.716 1.083.75 1.75V36M35.1 37.3V23.2a2.69 2.69 0 00-.75-1.75c-.5-.5-1.1-.75-1.799-.75-.701 0-1.301.25-1.801.75a2.938 2.938 0 00-.8 1.75v18.35l-5.149-5.2-.101-.1c-.533-.466-1.116-.7-1.75-.7-.7 0-1.3.25-1.8.75-.5.534-.75 1.133-.75 1.8 0 .666.234 1.25.7 1.75l.1.1 10.65 10.7c.067.067.133.134.201.2 2.099 1.9 4.566 2.85 7.399 2.85 3.067 0 5.65-1.083 7.75-3.25 2-1.967 3.084-4.316 3.25-7.05v-1.5l-.05-5.75V36c0-.7-.25-1.283-.75-1.75-.5-.5-1.099-.75-1.8-.75-.7 0-1.299.25-1.799.75-.467.467-.717 1.05-.75 1.75v1.3m2.449-20.9H13c-1.767 0-2.65.884-2.65 2.65V55.4c0 1.734.883 2.6 2.65 2.6h54.75c1.733 0 2.6-.866 2.6-2.6V19.05c0-1.766-.867-2.65-2.6-2.65h-8.6"/></svg>