<svg xmlns="http://www.w3.org/2000/svg" width="80" height="80" viewBox="-14 -6 80 80"><g fill="none" fill-rule="evenodd" stroke="#FF7800" stroke-linecap="round" stroke-linejoin="round" stroke-width="1.5"><path d="M21.8 32.25V50.2c0 3.6-1.8 5.4-5.4 5.4h0-3.8m28.694-31.794c.31.11.554.31.732.597l7.614 13.33c.155.288.199.597.133.93-.044.31-.19.574-.432.795-.267.2-.565.298-.898.298H33.18c-.31 0-.598-.099-.864-.298-.244-.22-.4-.486-.466-.796-.044-.332.012-.64.167-.929l7.647-13.33a1.24 1.24 0 01.698-.597c.31-.11.62-.11.93 0zM12.6 8.85h3.8c3.6 0 5.4 1.817 5.4 5.45h0v17.95h-9.2m28.2 3.55v.35m0-6.7v3.9"/><path d="M46.6 12.75l7.2 7.15-7.2-7.15zM27.85 15.7v30.45c.066 1.933 1.05 2.917 2.95 2.95h20.05c1.9-.033 2.883-1.017 2.95-2.95V19.9h-4.2c-1.934-.033-2.934-1.033-3-3v-4.15H30.8c-1.9.034-2.884 1.017-2.95 2.95zM12.6 4.75H9.85c-1.233-.033-1.883-.7-1.95-2V0l4.7 4.75zM1.9 17.7c-1.267 0-1.9-.65-1.9-1.95V1.95C.033.684.666.034 1.9 0h6l4.7 4.75v11c0 1.3-.633 1.95-1.9 1.95H1.9zm6 5.7h-6c-1.233.033-1.867.683-1.9 1.95v13.8c0 1.3.633 1.95 1.9 1.95h8.8c1.267 0 1.9-.65 1.9-1.95v-11H9.85c-1.233-.034-1.883-.7-1.95-2V23.4l4.7 4.75m-4.7 18.6l4.7 4.75-4.7-4.75zm0 2.75v-2.75h-6c-1.233.034-1.867.684-1.9 1.95v13.8c0 1.3.633 1.95 1.9 1.95h8.8c1.267 0 1.9-.65 1.9-1.95v-11H9.85c-1.233-.033-1.883-.7-1.95-2z"/></g></svg>