<svg xmlns="http://www.w3.org/2000/svg" width="80" height="80" viewBox="62 0 80 80"><g fill="none" fill-rule="evenodd" stroke="#7D77A6" stroke-linecap="round" stroke-linejoin="round" stroke-width="1.5"><path d="M111.557 49.847v2.875m-4.013-2.875c.026-.525.222-.985.59-1.379a2 2 0 011.416-.552c.55 0 1.024.184 1.417.552.367.394.564.854.59 1.38.026-.526.224-.986.59-1.38a2.003 2.003 0 011.417-.552c.55 0 1.023.184 1.417.552.367.394.564.854.59 1.38v1.851m-8.027 1.023V41.613a2.124 2.124 0 00-.591-1.379 1.932 1.932 0 00-1.417-.59c-.55 0-1.022.197-1.416.59a2.317 2.317 0 00-.63 1.38V56.07l-4.053-4.097-.08-.079c-.418-.367-.877-.55-1.376-.55a1.93 1.93 0 00-1.416.59c-.394.42-.591.892-.591 1.418 0 .525.184.985.55 1.378l.08.08 8.382 8.43.157.157c1.653 1.497 3.594 2.246 5.824 2.246 2.414 0 4.447-.854 6.099-2.56 1.574-1.55 2.427-3.402 2.558-5.555v-1.181l-.04-4.532V51.7c0-.552-.196-1.012-.59-1.379a1.928 1.928 0 00-1.416-.59c-.551 0-1.023.196-1.417.59-.367.367-.563.827-.59 1.38v1.022"/><path d="M115.008 46.25V43.1c0-2.567-.917-4.75-2.75-6.55-1.833-1.833-4.017-2.75-6.55-2.75h-7.45c-2.534 0-4.717.917-6.55 2.75-1.8 1.8-2.7 3.983-2.7 6.55v4.3c0 1.194.2 2.311.6 3.35m3.95-19.1v-2.8c.033-2.2.85-4.117 2.45-5.75 1.633-1.6 3.633-2.4 6-2.4 2.333 0 4.316.8 5.95 2.4 1.6 1.633 2.433 3.55 2.5 5.75v2.8m17.872 8.1c0 .967.35 1.767 1.05 2.4.667.7 1.484 1.05 2.45 1.05.967 0 1.784-.35 2.45-1.05.668-.633 1-1.433 1-2.4 0-1-.332-1.833-1-2.5-.666-.667-1.483-1-2.45-1-.966 0-1.783.333-2.45 1-.7.667-1.05 1.5-1.05 2.5h-7.3m-38.35 0v21.5h-7.3c0 .967-.333 1.783-1 2.45a3.251 3.251 0 01-2.45 1.05c-.966 0-1.8-.35-2.5-1.05-.633-.667-.95-1.483-.95-2.45 0-.967.317-1.783.95-2.45a3.5 3.5 0 012.5-1c.967 0 1.784.333 2.45 1 .667.667 1 1.483 1 2.45m0-21.5c0 .967-.333 1.767-1 2.4a3.251 3.251 0 01-2.45 1.05c-.966 0-1.8-.35-2.5-1.05-.633-.633-.95-1.433-.95-2.4 0-1 .317-1.833.95-2.5a3.5 3.5 0 012.5-1c.967 0 1.784.333 2.45 1 .667.667 1 1.5 1 2.5h7.3V18.2h-7.3c0 .967-.333 1.767-1 2.4a3.251 3.251 0 01-2.45 1.05c-.966 0-1.8-.35-2.5-1.05-.633-.633-.95-1.433-.95-2.4 0-.967.317-1.8.95-2.5.7-.634 1.534-.95 2.5-.95.967 0 1.784.316 2.45.95.667.7 1 1.533 1 2.5m52.95 43.05c0-.967.35-1.783 1.05-2.45.667-.667 1.484-1 2.45-1 .967 0 1.784.333 2.45 1 .668.667 1 1.483 1 2.45 0 .967-.332 1.783-1 2.45a3.251 3.251 0 01-2.45 1.05c-.966 0-1.783-.35-2.45-1.05a3.253 3.253 0 01-1.05-2.45h-7.3V18.2h7.3c0-.967.35-1.8 1.05-2.5.667-.634 1.484-.95 2.45-.95.967 0 1.784.316 2.45.95.668.7 1 1.533 1 2.5 0 .967-.332 1.767-1 2.4a3.251 3.251 0 01-2.45 1.05c-.966 0-1.783-.35-2.45-1.05-.7-.633-1.05-1.433-1.05-2.4"/></g></svg>