<svg xmlns="http://www.w3.org/2000/svg" width="80" height="80"><path fill="none" stroke="#FF7800" stroke-linecap="round" stroke-linejoin="round" stroke-width="1.5" d="M74.7 62.8l-7.2-3.1H55m-29.25 0H13.051L6 62.8m20.75 0H6v2.5c.533.467 1.084.7 1.65.7H73.2c.601 0 1.101-.233 1.5-.7v-2.5H54m-19.55-4.899V39.55v18.351zm5.9 0V39.55v18.351zm5.9 0V39.55v18.351zM28.75 39.55v18.351c0 .666.067 1.265.2 1.799.533 2 2.017 3.034 4.45 3.1h13.901c2.466-.066 3.966-1.1 4.5-3.1A7.504 7.504 0 0052 57.901V39.55H28.75zm-.35-6.35c-.4 0-.733.15-1 .451-.3.265-.45.599-.45 1 0 .366.15.699.45 1 .267.265.6.399 1 .399h23.95c.367 0 .701-.134 1-.399.267-.301.4-.634.4-1 0-.401-.133-.735-.4-1-.299-.301-.633-.451-1-.451H28.4zm6.2-3c0-1.933.967-2.9 2.9-2.9h5.75c1.9 0 2.85.967 2.85 2.9H34.6zm-8.85 26.4h-10.3c-1.767 0-3.017-.833-3.75-2.5-5-11.366-4.933-23.616.2-36.75.6-1.567 1.783-2.35 3.55-2.35H64.2c1.767 0 2.95.783 3.55 2.35 5.134 13.134 5.2 25.384.2 36.75-.767 1.667-2.017 2.5-3.75 2.5H55"/></svg>