<svg xmlns="http://www.w3.org/2000/svg" width="81" height="80"><path fill="none" stroke="#4E22D0" stroke-linecap="round" stroke-linejoin="round" stroke-width="1.5" d="M22.3 39.65v10.8-10.8zm0 10.8l-8.8-5.101 8.8 5.101zm9.301 5.3V45.099 55.75zM40.451 71V60.9 71zm-8.85-5.151V55.75l-9.301-5.3V60.5l9.301 5.349zm8.85-15.149v.05l-8.85 5 8.85 5.15 8.75-5.15-8.75-5.05zm26.952-5.351l-8.851 5.101V60.5M40.451 29.95l9.4-5.45-9.4-5.401-9.45 5.401 9.45 5.45zm9.4 4.75l-9.3 5.3 9.3-5.3zm8.701 4.95l8.851-5.051-8.851 5.051zM49.851 24.5v10.2l8.701 4.95V29.599L49.851 24.5zm8.701-5.05l-8.701 5.05 8.701 5.099 8.851-5.099-8.851-5.05zm-9.351 25.649L40.551 40h-.1v10.7l8.75 5.05v10.099-20.75zm0 .051v10.6l9.351-5.3v-10.8l-9.351 5.449v.051zM40.451 40V29.95l-9.45-5.45v10.099L40.451 40zM22.3 39.65l9.301 5.449L40.451 40l-9.45-5.401-8.701 5v.051zM31.601 14l8.85 5.099L49.201 14M22.3 29.599h.05l8.651-5.099-8.701-5.05m-8.8 15.149V24.5l8.8-5.05L31.601 14l8.85-5 8.75 5 9.351 5.45 8.851 5.05v30.9l-8.851 5.1-9.351 5.349L40.451 71l-8.85-5.151L22.3 60.5l-8.8-5.1V34.599l8.8 5.051V29.599L13.5 24.5v10.099z"/></svg>