<svg xmlns="http://www.w3.org/2000/svg" width="203" height="80"><path fill="none" stroke="#7D77A6" stroke-linecap="round" stroke-linejoin="round" stroke-width="1.5" d="M124.063 25.45l-3.301.5 3.3-.5zm6.15 42.45h-5.9 5.9zm0-4V72v-8.1zM81.81 40.349v8.801-8.801zm38.952 8.051v-4.051l3.3-.549m-34.701 9.7v-8.7 8.7zm20.85 14.4h-9.4 9.4zm0-2.2v4.5c.035 1.167.634 1.767 1.8 1.8h10.602c1.1-.033 1.667-.633 1.7-1.8v-4.5c-.033-1.167-.6-1.767-1.7-1.8h-10.601c-1.167.033-1.766.633-1.8 1.8zm-9.4 6.3v-7.651H78.11l-4.3-4.299v-2.1h30.202l6.3-6.3h14.5c1.168.067 1.75.699 1.75 1.9v4.9c0 1.2-.582 1.816-1.75 1.85h-14.05l-4.05 4.049h-5.901V72zm23.252-40.7l-3.301.549V38.5l3.3-.55m-13.6 2.2l3.25-.5V33l-3.25.5m0 12.5l3.25-.55v2.95m0-8.75v5.8l7.05-1.101V38.5l-7.05 1.15zm7.05-13.7v-2.601 2.601zm-7.05-2.601v3.801l-3.25.5m10.3 4.199V25.95l-7.05 1.2V33l7.05-1.151zm-16.55 4.5L96.66 40.65h-.1v8.699l.05.051m-7.75-21.35v8.2-8.2zm7.7 12.6v-8.2 8.2zm0-17l-7.7 4.4 7.7 4.4 7.65-4.4-7.65-4.4zm-7.7 12.6l-7.051 4.099 7.55 4.451 7.2-4.15-7.7-4.4zm-7.05-4.05h.05l7-4.15-7.05-4.15m-7.15 12.35l7.15 4.099V32.2l-7.15-4.15v8.2zm0-8.2l7.15-4.15 7.55-4.4 7.2 4.15 7.652 4.4v17.049L96.61 49.4l-7.25 4.1-7.551-4.35L74.66 45V28.05zm-.85-15.75v2.1h30.152l6.3 6.3h14.55c1.168-.066 1.75-.7 1.75-1.9v-4.9c0-1.2-.582-1.834-1.75-1.9h-14.1l-4-4H78.11l-4.3 4.3z"/></svg>