<svg xmlns="http://www.w3.org/2000/svg" width="80" height="80" viewBox="-6 -6 80 80"><path d="M0 48.1v13.3c0 3.2 1.6 4.8 4.8 4.8h15.15m-2.051-21.151c.134-.1.334-.148.601-.148.267-.067.483.015.649.25.167.099.25.316.25.648 0 .2-.066.418-.199.65l-2.95 4.25-3.15 4.452c-.567.566-1.234.849-2 .849-.8-.066-1.451-.35-1.951-.85-.566-.532-.849-1.2-.849-2 0-.767.283-1.45.849-2.05l8.701-6.051h.049zm-7.599 2l-.45-.45c-.067-.065-.15-.15-.25-.25C5.899 42.652 4.05 38.2 4.05 33c0-5.2 1.849-9.631 5.55-13.3 3.667-3.7 8.1-5.548 13.299-5.548C28.1 14.15 32.55 16 36.25 19.7c3.667 3.668 5.5 8.099 5.5 13.3 0 5.2-1.833 9.65-5.5 13.35-3.7 3.666-8.15 5.5-13.351 5.5-1.432 0-2.799-.133-4.099-.4M19.899 33c0-.834.301-1.533.901-2.1.599-.601 1.3-.9 2.099-.9.834 0 1.551.299 2.151.9.566.567.849 1.266.849 2.1 0 .834-.283 1.549-.849 2.15-.6.567-1.317.85-2.151.85-.799 0-1.5-.283-2.099-.85-.6-.601-.901-1.316-.901-2.15zm9.351-6.3c1.733 1.734 2.6 3.834 2.6 6.3 0 2.467-.867 4.584-2.6 6.35-1.767 1.734-3.884 2.6-6.351 2.6-2.466 0-4.566-.866-6.299-2.6C14.866 37.584 14 35.467 14 33c0-2.466.866-4.566 2.6-6.3 1.733-1.733 3.833-2.6 6.299-2.6 2.467 0 4.584.867 6.351 2.6zm11.8-18.5H4.8C1.6 8.2 0 9.784 0 12.95V48.1h4.05V53c0 1.967.7 3.633 2.099 5 1.334 1.334 2.901 2.034 4.701 2.1h9.1v6.1h21.1c3.167 0 4.75-1.6 4.75-4.8V12.95c0-3.166-1.583-4.75-4.75-4.75zM62.2 27l1-3.9 3.7-1.2-3.7-1.5-1-3.9-1.2 3.9-3.65 1.5L61 23.1l1.2 3.9zm-5.6-16.15l1.95 6.599 2.05-6.599 6.3-2-6.3-2.25L58.55 0 56.6 6.6l-6.3 2.25 6.3 2z" fill="none" stroke="#7D77A6" stroke-linecap="round" stroke-linejoin="round" stroke-width="1.5"/></svg>