<svg xmlns="http://www.w3.org/2000/svg" width="80" height="80" viewBox="-1 -4 84 84"><g fill="none" fill-rule="evenodd" stroke="#FF7800" stroke-linecap="round" stroke-linejoin="round" stroke-width="1.5"><path d="M51.1 42.65l4.05 9.3m3.5 8.8h-8.3c-1.133-.068-2.066-.318-2.8-.75-1.067-.6-1.833-1.417-2.3-2.45-.133-.3-.25-.6-.35-.9-.167-.7-.2-1.435-.1-2.2.133-.768.417-1.55.85-2.35l5.45-9.45-10.05 1.15M64.3 60.75l6-8.15m5.9-7.45l4.2 7.4c.467.867.7 1.733.7 2.6 0 1.565-.55 2.883-1.65 3.95-1 1.032-2.367 1.582-4.1 1.65H64.3l6 8.15M.75 57.55v2.5c.534.466 1.083.7 1.65.7h40.4m-2.1-6.3H7.8l-7.05 3.1H40.7M73.5 39.7l-10.05-1.1m-9.4-1.35l4.2-7.15c.4-.668.833-1.2 1.3-1.6.234-.234.467-.417.7-.55.767-.434 1.534-.667 2.3-.7a5.544 5.544 0 011.95.15 5 5 0 012.15 1.15c.5.433.95.983 1.35 1.65l5.5 9.5 4.05-9.25m-15-7.1V14.4c0-1.768-.867-2.65-2.6-2.65H10.2c-1.767 0-2.65.882-2.65 2.65v34.35c0 1.733.883 2.6 2.65 2.6h31.65"/><path d="M24.8 30.45l6.8 7.3c.5.266.983.266 1.45 0L45.35 25"/></g></svg>