<svg xmlns="http://www.w3.org/2000/svg" width="80" height="80" viewBox="-3 -10 80 80"><g fill="none" fill-rule="evenodd" stroke="#7D77A6" stroke-linecap="round" stroke-linejoin="round" stroke-width="1.5"><path d="M.75 54.05h71.699l-7.2-3.101H7.801l-7.051 3.1v2.5c.534.468 1.084.7 1.65.7h68.549c.601 0 1.101-.232 1.5-.7v-2.5M22.65 7.25H10.2c-1.766 0-2.649.884-2.649 2.65v35.35c0 1.735.883 2.6 2.649 2.6h51.749c1.734 0 2.601-.865 2.601-2.6V9.9c0-1.766-.867-2.65-2.601-2.65h-11.3"/><path d="M43.05 13c.633.899 1 1.899 1.1 3 .167 1 .116 1.967-.15 2.899-.234 1.035-.634 1.951-1.2 2.75l-1.1 1.201c-.334.266-.717.5-1.15.7-.8.599-1.75.95-2.85 1.05-.967.2-1.934.15-2.9-.151-1.067-.199-1.983-.599-2.75-1.199A9.338 9.338 0 0130 21c-.5-.934-.833-1.983-1-3.15a6.365 6.365 0 01.25-2.85 9.491 9.491 0 011.25-2.551 3.69 3.69 0 011.1-1.05c.3-.299.633-.583 1-.849.9-.5 1.85-.8 2.85-.901 1.033-.2 2.017-.182 2.95.05a7.189 7.189 0 012.75 1.25A7.51 7.51 0 0143.05 13zm.5-9.101c.1-.132.283-.25.55-.349.3-.2.516-.351.65-.45 0-.034.067-.083.2-.151.033.101.1.151.2.151.266.167 1.116.75 2.55 1.75-.067.2-.167.466-.3.799-.1.334-.184.618-.25.851-.367 1.233-.15 2.25.65 3.05.533.634 1.283.967 2.25 1 .2 0 .616-.017 1.25-.05.2 0 .366.116.5.35l.8 2.45a.804.804 0 010 .399.78.78 0 00-.2.151c-.367.334-.635.566-.8.7-.267.2-.484.399-.65.599-.6.601-.9 1.318-.9 2.151.033.866.366 1.583 1 2.149.333.235.783.568 1.35 1a.589.589 0 01.2.2v.201c-.267.566-.418 1-.45 1.299a5.91 5.91 0 00-.4 1.25c0 .167-.068.267-.2.3-.134.068-.318.101-.55.101h-.75c-.367.033-.7.066-1 .099-.734.134-1.35.517-1.85 1.151-.434.667-.6 1.349-.5 2.05.033.233.116.533.25.9.033.199.116.467.25.8.1.233.1.417 0 .55 0 .099-.067.216-.2.349-.767.434-1.45.901-2.05 1.401a2.53 2.53 0 00-.4.25.449.449 0 00-.3-.25c-.334-.3-.633-.5-.9-.6-.334-.2-.634-.384-.9-.551-.8-.333-1.55-.349-2.25-.05-.667.401-1.167 1-1.5 1.8a5.312 5.312 0 00-.55 1.401c-.066.099-.15.2-.25.299-.066.035-.183.05-.35.05H35.3a.475.475 0 01-.4-.199c-.066-.033-.116-.117-.15-.25a15.228 15.228 0 01-.3-.801 6.272 6.272 0 01-.3-.8c-.267-.533-.6-.932-1-1.2-.4-.3-.9-.449-1.5-.449-.667-.101-1.333.066-2 .5 0 .033-.2.166-.6.399a1.23 1.23 0 01-.55.401.342.342 0 01-.25.099.488.488 0 01-.25-.099 38.33 38.33 0 00-2.2-1.651c-.067 0-.117-.066-.15-.2 0-.066.017-.149.05-.25.167-.366.267-.682.3-.949.1-.367.167-.667.2-.9.167-.934-.05-1.717-.65-2.35-.5-.634-1.233-.983-2.2-1.051-.2-.033-.45-.033-.75 0-.334 0-.6-.015-.8-.05-.034 0-.083-.033-.15-.099a.448.448 0 01-.2-.05c-.067-.367-.333-1.301-.8-2.801-.033-.033-.033-.116 0-.25l.25-.25c.366-.265.667-.5.9-.699.4-.301.716-.584.95-.851a2.93 2.93 0 00.45-1.75c0-.733-.233-1.299-.7-1.7-.3-.399-.817-.849-1.55-1.349a.656.656 0 01-.3-.3c-.033-.167 0-.3.1-.401.1-.366.25-.816.45-1.349l.4-1.2c0-.067.017-.1.05-.1a.64.64 0 01.3-.15c.3.033.75.033 1.35 0 .534-.034.984-.117 1.35-.25.467-.267.866-.666 1.2-1.201.4-.399.533-.916.4-1.549 0-.333-.05-.734-.15-1.201-.066-.465-.167-.816-.3-1.049l-.1-.25.15-.1c.2-.134.6-.417 1.2-.851.5-.432.9-.75 1.2-.95h.2c.066 0 .134.034.2.101.1.066.4.233.9.5.267.266.5.45.7.55.8.367 1.633.433 2.5.2.733-.267 1.3-.866 1.7-1.8.066-.167.117-.434.15-.801l.3-.599c0-.166.033-.267.1-.3.1-.033.2-.05.3-.05.3 0 .8.017 1.5.05a8.434 8.434 0 011.3 0c.067 0 .15.016.25.05.033 0 .05.066.05.2.1.066.184.349.25.849.167.334.266.55.3.651.466.967 1.117 1.599 1.95 1.899.966.2 1.85.018 2.65-.55z"/></g></svg>