<svg xmlns="http://www.w3.org/2000/svg" width="80" height="80" fill="none"><path stroke="#4E22D0" stroke-linecap="round" stroke-linejoin="round" stroke-width="1.5" d="M36 47.495l11.8-20.574"/><path stroke="#4E22D0" stroke-linecap="round" stroke-linejoin="round" stroke-width="1.5" d="M57.45 27.625c-5.367-5.399-8.267-11.855-8.7-19.367L69.9 35.22c-4.6-1.374-8.75-3.907-12.45-7.596zM39.9 31.146c0 .704-.233 1.308-.7 1.811-.433.47-1.016.704-1.75.704-.666 0-1.266-.234-1.8-.704a2.572 2.572 0 01-.7-1.81c0-.705.234-1.275.7-1.711.534-.536 1.134-.805 1.8-.805.734 0 1.317.269 1.75.805.467.436.7 1.006.7 1.71z" clip-rule="evenodd"/><path stroke="#4E22D0" stroke-linecap="round" stroke-linejoin="round" stroke-width="1.5" d="M12.9 50.312c-1.933-3.957-2.9-8.333-2.9-13.13 0-8.35 2.95-15.459 8.85-21.328C24.683 9.952 31.733 7 40 7c3.1 0 6.033.42 8.8 1.258L69.95 35.22c.033.638.05 1.29.05 1.962 0 8.35-2.917 15.46-8.75 21.329-5.9 5.903-12.984 8.853-21.25 8.853-2.734 0-5.333-.317-7.8-.955"/><path stroke="#4E22D0" stroke-linecap="round" stroke-linejoin="round" stroke-width="1.5" d="M48.9 43.22c0 .703-.233 1.307-.7 1.81-.433.47-1.016.704-1.75.704-.666 0-1.266-.234-1.8-.704a2.572 2.572 0 01-.7-1.81c0-.705.234-1.275.7-1.711.534-.536 1.134-.805 1.8-.805.734 0 1.317.269 1.75.805.467.436.7 1.006.7 1.71z" clip-rule="evenodd"/><path stroke="#4E22D0" stroke-linecap="round" stroke-linejoin="round" stroke-width="1.5" d="M24 48.401V24.557m-4.7 19.317v11.57H10L24.05 73 38 55.444h-9.3V29.788m-9.4 4.075v5.633"/></svg>