<svg xmlns="http://www.w3.org/2000/svg" width="80" height="80" fill="none"><path stroke="#4E22D0" stroke-linecap="round" stroke-linejoin="round" stroke-width="1.5" d="M61.408 48.031c2.965.602 5.313 1.52 7.045 2.753C70.718 52.419 71.9 54.603 72 57.34v2.002c0 2.468-1.232 3.701-3.697 3.701v0h-6.995M23.787 42.928c1.499-.567 3.148-1.035 4.946-1.402 1.932 2.035 3.864 3.42 5.796 4.154 2.165.801 4.314.801 6.445 0 1.966-.734 3.897-2.12 5.796-4.154 3.764.736 6.811 1.935 9.142 3.604 2.965 2.169 4.514 5.02 4.647 8.557v4.553c0 3.203-1.599 4.803-4.796 4.803v0h-26.03m-14.04-12.959c.667-1.803 1.849-3.37 3.548-4.704m45.365-10.86c.2.067.383.185.55.352l.349.35c.467.6.7 1.318.7 2.152 0 .834-.233 1.567-.7 2.202-.467.6-1.032.9-1.699.9a12.123 12.123 0 01-2.148 3.702c-.467.568-.95 1.085-1.449 1.553m-9.343-21.719c.167 0 .417.134.75.401l.45.5c.632.801.948 1.735.948 2.803 0 1.068-.316 2.002-.949 2.801-.5.769-1.232 1.185-2.198 1.251a13.395 13.395 0 01-2.798 4.805c-2.565 3.169-5.663 4.754-9.293 4.754-3.564 0-6.678-1.585-9.343-4.754a14.42 14.42 0 01-2.748-4.805c-.932-.066-1.665-.482-2.198-1.25-.666-.7-1-1.635-1-2.802 0-.868.2-1.634.6-2.302l.4-.5c.267-.435.65-.735 1.15-.902"/><path stroke="#4E22D0" stroke-linecap="round" stroke-linejoin="round" stroke-width="1.5" d="M53.764 23.062c.234-.033.483-.05.75-.05 2.797 0 5.178 1.201 7.144 3.603 1.599 1.934 2.565 4.204 2.898 6.805v.05c.033.3.05.601.05.901v.15c-3.598-.7-6.512-2.151-8.744-4.354v0l-.899-.8"/><path stroke="#4E22D0" stroke-linecap="round" stroke-linejoin="round" stroke-width="1.5" d="M37.776 9c3.664 0 6.762 1.568 9.293 4.704 2.031 2.436 3.28 5.388 3.747 8.858l.05 1.45c-4.73-1-8.493-2.902-11.291-5.704-2.631-2.669-5.146-3.67-7.544-3.002-2.631.9-5.096 3.802-7.395 8.706v-.2l.15-1.25c.3-3.37 1.516-6.322 3.647-8.858C31.064 10.568 34.18 9 37.776 9z" clip-rule="evenodd"/><path stroke="#4E22D0" stroke-width="1.5" d="M16.993 62.543v-2.701 2.701zm-7.895-8.055C7.7 55.888 7 57.572 7 59.54v3.303c0 1.969.7 3.653 2.098 5.054 1.4 1.4 3.081 2.102 5.046 2.102h5.696c1.965 0 3.647-.701 5.046-2.102 1.4-1.4 2.099-3.085 2.099-5.054V59.54c0-1.969-.7-3.652-2.099-5.053-1.399-1.401-3.081-2.102-5.046-2.102h-5.695c-1.966 0-3.648.7-5.047 2.102z" clip-rule="evenodd"/><path stroke="#4E22D0" stroke-linecap="round" stroke-linejoin="round" stroke-width="1.5" d="M10.497 50.735v-2.152c.033-1.702.667-3.186 1.899-4.454 1.266-1.234 2.798-1.852 4.596-1.852 1.799 0 3.33.617 4.597 1.852 1.232 1.268 1.864 2.752 1.898 4.454v2.152"/></svg>