<svg xmlns="http://www.w3.org/2000/svg" width="80" height="80" fill="none"><path stroke="#4E22D0" stroke-linecap="round" stroke-width="1.5" d="M56.45 60.2v-4.55c-.133-3.533-1.676-6.383-4.629-8.55-2.324-1.667-5.36-2.866-9.111-3.6-1.892 2.033-3.816 3.417-5.775 4.15-2.123.8-4.264.8-6.422 0-1.924-.733-3.85-2.117-5.774-4.15-3.75.734-6.788 1.933-9.11 3.6-2.954 2.167-4.498 5.017-4.629 8.55v4.55c0 3.2 1.592 4.8 4.778 4.8h35.893c3.186 0 4.779-1.6 4.779-4.8z" clip-rule="evenodd"/><path stroke="#4E22D0" stroke-linecap="round" stroke-width="1.5" d="M46.792 26c.166 0 .415.134.747.4l.448.5c.631.8.946 1.734.946 2.8 0 1.067-.315 2-.946 2.8-.498.767-1.228 1.183-2.19 1.25-.598 1.8-1.527 3.4-2.788 4.8-2.555 3.167-5.642 4.75-9.26 4.75-3.55 0-6.654-1.583-9.308-4.75a14.364 14.364 0 01-2.738-4.8c-.93-.067-1.66-.483-2.191-1.25-.664-.7-.996-1.633-.996-2.8 0-.866.2-1.633.598-2.3l.398-.5a2.072 2.072 0 011.145-.9"/><path stroke="#4E22D0" stroke-linecap="round" stroke-width="1.5" d="M24.441 15.7c-2.124 2.534-3.336 5.483-3.635 8.85l-.15 1.25v.2c2.292-4.9 4.747-7.8 7.368-8.7 2.391-.666 4.896.334 7.517 3C38.33 23.1 42.08 25 46.792 26l-.05-1.45c-.465-3.466-1.71-6.416-3.733-8.85-2.522-3.133-5.609-4.7-9.26-4.7-3.583 0-6.687 1.567-9.308 4.7z" clip-rule="evenodd"/><path stroke="#4E22D0" stroke-linecap="round" stroke-width="1.5" d="M57.347 65h6.97C66.771 65 68 63.767 68 61.3v-2c-.099-2.734-1.277-4.917-3.534-6.55C62.74 51.517 60.4 50.6 57.447 50m3.185-13.5c.2.066.383.183.549.35l.347.35c.465.6.697 1.317.697 2.15s-.232 1.567-.697 2.2c-.465.6-1.028.9-1.692.9a12.144 12.144 0 01-2.14 3.7 16.346 16.346 0 01-1.444 1.55m-5.227-16.35l.896.8c2.223 2.2 5.127 3.65 8.712 4.35v-.15c0-.3-.018-.6-.05-.9v-.05c-.332-2.6-1.295-4.867-2.887-6.8-1.958-2.4-4.332-3.6-7.12-3.6-.264 0-.513.017-.746.05"/></svg>