<svg xmlns="http://www.w3.org/2000/svg" width="48" height="48"><path fill="none" stroke="#FFF" stroke-linecap="round" stroke-linejoin="round" stroke-width="1.5" d="M23.975 25.2c.908 0 1.762.163 2.561.49.82.335 1.547.817 2.179 1.449 1.306 1.316 1.96 2.9 1.96 4.752 0 1.521-.502 2.959-1.506 4.312-1.64 2.21-3.37 4.143-5.194 5.797-1.823-1.654-3.555-3.587-5.194-5.797-1.003-1.353-1.505-2.79-1.505-4.312 0-1.852.653-3.436 1.96-4.752a6.494 6.494 0 012.167-1.448 6.69 6.69 0 012.572-.491zm-9.144 9.79c-.246.232-.493.46-.742.687-2.065-1.876-4.026-4.067-5.883-6.573C7.07 27.574 6.5 25.945 6.5 24.22c0-2.101.74-3.895 2.223-5.38.718-.72 1.534-1.268 2.447-1.643s1.886-.563 2.92-.563c1.032 0 1.998.188 2.896.563.295.119.58.254.853.405h0m12.322 0c.273-.15.558-.286.853-.405a7.443 7.443 0 012.897-.563c1.033 0 2.006.188 2.919.563a7.387 7.387 0 012.447 1.643c1.482 1.485 2.223 3.279 2.223 5.38 0 1.725-.569 3.353-1.706 4.884-1.857 2.506-3.818 4.697-5.883 6.573-.25-.226-.496-.455-.742-.687m-9.194-19.173c.966 0 1.789.341 2.47 1.023a3.366 3.366 0 011.02 2.466c0 .969-.34 1.792-1.02 2.471a3.362 3.362 0 01-2.47 1.023c-.96 0-1.779-.34-2.46-1.023-.68-.679-1.02-1.502-1.02-2.47 0-.963.34-1.785 1.02-2.467a3.35 3.35 0 012.46-1.023zm9.936-9.808c1.093 0 2.02.39 2.784 1.171.763.765 1.145 1.696 1.145 2.79 0 1.096-.382 2.027-1.145 2.792-.763.78-1.691 1.17-2.784 1.17-1.093 0-2.029-.39-2.807-1.17-.764-.765-1.145-1.696-1.145-2.791s.381-2.026 1.145-2.791c.778-.78 1.714-1.17 2.807-1.17zM14.074 6c1.096 0 2.028.385 2.796 1.156.773.774 1.159 1.706 1.159 2.794 0 1.098-.386 2.03-1.159 2.797-.768.775-1.7 1.162-2.796 1.162-1.088 0-2.017-.387-2.786-1.162-.772-.767-1.158-1.7-1.158-2.797 0-1.088.386-2.02 1.158-2.794.77-.77 1.698-1.156 2.786-1.156z"/></svg>