<svg xmlns="http://www.w3.org/2000/svg" width="33" height="32"><g fill="none" fill-rule="evenodd"><path d="M.5 0h32v32H.5z"/><path stroke="#4E22D0" stroke-linecap="round" stroke-linejoin="round" stroke-width="1.5" d="M15.65 16.25c3.067 4.066 6.25 7.75 9.551 11.05m-6.401 3c-1.133-2-2.2-2.933-3.2-2.8-.366.033-.967.6-1.8 1.7-.533.7-.95 1.317-1.25 1.85m.75-8c-.233 2.067-1.133 3.85-2.7 5.35a11.342 11.342 0 01-1.849 1.5m16.2-21.4c.833 1.1 1.8 2.1 2.899 3M5.251 5.05c2.833-2.734 6.25-4.1 10.25-4.1 4.033 0 7.45 1.4 10.25 4.2M22.05 29.5a101.15 101.15 0 01-2.9-3.35c-2.733-3.333-4.767-6.05-6.1-8.15-.4-.633-.599-1.283-.599-1.95 0-.833.3-1.533.899-2.1.601-.634 1.317-.95 2.151-.95.833 0 1.599.4 2.299 1.2 2.067 2.667 4.401 5.35 7 8.05.867.867 1.784 1.75 2.75 2.65M6.6 27.15a9.05 9.05 0 002.151-1.45c1.233-1.3 1.849-2.8 1.849-4.5 0-.8-.149-1.683-.45-2.65-.433-1.033-.649-1.867-.649-2.5 0-1.633.599-3.05 1.799-4.25 1.167-1.167 2.567-1.75 4.201-1.75 1.666 0 3.083.583 4.25 1.75.233.266.399.433.5.5 1.899 2.3 4.049 4.6 6.45 6.9.833.8 1.716 1.617 2.649 2.45M5.1 24.25a3.446 3.446 0 001.2-.8c.734-.7 1.1-1.55 1.1-2.55 0-.333-.116-.883-.35-1.65-.366-1.167-.549-2.233-.549-3.2 0-2.5.866-4.617 2.599-6.35C10.867 7.9 13.001 7 15.501 7c1.733 0 3.299.467 4.7 1.4.866.533 2.016 1.65 3.449 3.35.301.4 1.034 1.233 2.2 2.5.601.6 1.417 1.283 2.45 2.05m-24 4c-.266-.8-.466-1.633-.599-2.5m-.051-3.05c.267-2.733 1.4-5.117 3.4-7.15 2.333-2.367 5.151-3.55 8.451-3.55 2.833 0 5.283.867 7.349 2.6"/></g></svg>