<svg xmlns="http://www.w3.org/2000/svg" width="33" height="32"><g fill="none" fill-rule="evenodd"><path d="M.5 0h32v32H.5z"/><path stroke="#4E22D0" stroke-linecap="round" stroke-linejoin="round" stroke-width="1.5" d="M15.664 28.176c-1.05-1.852-2.037-2.716-2.963-2.593-.338.03-.895.556-1.666 1.574a15.45 15.45 0 00-1.158 1.713m.625-6.944c-.289 1.718-1.099 3.216-2.43 4.49-.525.526-1.096.989-1.713 1.39m14.815-5.186l1.62 1.62 3.935-3.934M21.36 7.99a16.344 16.344 0 002.685 2.778M3.118 4.796C5.741 2.266 8.905 1 12.608 1c3.735 0 6.899 1.296 9.492 3.889m-9.352 10.278c.2.265.57.743 1.11 1.435l-1.11-1.435zm1.203 6.574c-1.645-2.103-2.85-3.754-3.61-4.954-.371-.586-.556-1.188-.556-1.806 0-.77.278-1.419.833-1.944.556-.586 1.22-.88 1.99-.88.772 0 1.482.37 2.13 1.112.067.086.136.17.209.254M4.368 25.26a8.382 8.382 0 001.99-1.342c1.143-1.204 1.714-2.593 1.714-4.167 0-.74-.14-1.558-.417-2.454-.4-.956-.602-1.728-.602-2.315 0-1.512.556-2.824 1.667-3.935 1.08-1.08 2.376-1.62 3.889-1.62 1.543 0 2.854.54 3.935 1.62.217.248.37.402.463.463.307.372.624.743.95 1.111m-16.32 1.158c.246-2.53 1.296-4.738 3.148-6.62 2.16-2.191 4.768-3.288 7.824-3.288 2.623 0 4.892.803 6.805 2.408M2.238 18.917a14.013 14.013 0 01-.555-2.315m1.296 5.972c.401-.154.772-.4 1.111-.74.679-.649 1.019-1.436 1.019-2.362 0-.308-.108-.817-.324-1.528-.34-1.08-.51-2.067-.51-2.963 0-2.314.802-4.275 2.408-5.88 1.635-1.666 3.611-2.5 5.926-2.5 1.605 0 3.055.433 4.352 1.297.802.494 1.867 1.528 3.194 3.102.133.177.356.446.671.81m10.533 5.903v3.24c.03 1.204-.093 2.316-.37 3.334-.834 2.532-3.01 4.738-6.528 6.62a1.357 1.357 0 01-.51.093c-.154 0-.324-.03-.509-.093-3.487-1.882-5.633-4.088-6.435-6.62-.308-.988-.463-2.098-.463-3.333v-3.241c.123-1.019.648-1.651 1.574-1.898l4.815-1.343c.525-.216.864-.308 1.018-.278.186-.03.556.062 1.112.278l4.768 1.343c.957.278 1.467.91 1.528 1.898z"/></g></svg>