<svg xmlns="http://www.w3.org/2000/svg" width="666" height="210"><g fill="none" fill-rule="evenodd"><path fill="#261C6A" fill-rule="nonzero" d="M372.836 185.299h-166.1a.75.75 0 010-1.5h166.1a.75.75 0 010 1.5z"/><g fill-rule="nonzero"><path fill="#A8A4C3" d="M312.086 185.299h-78.3c-6.539-.212-10.146-3.734-10.474-10.187a1.25 1.25 0 012.497-.127c.261 5.162 2.809 7.645 8.017 7.814h70.919c-2.118-1.883-3.21-4.807-3.21-8.7v-162.2c0-3.843 1.053-6.732 3.095-8.6h-70.845c-5.454.059-8 2.792-8 8.6v2.1a1.25 1.25 0 01-2.5 0v-2.1c0-7.188 3.626-11.026 10.486-11.1h121.663c7.295 0 11.15 3.838 11.15 11.1v162.2c0 7.327-3.855 11.2-11.15 11.2h-43.348zm.021-2.5h43.329c5.901 0 8.65-2.765 8.65-8.7v-162.2c0-5.867-2.749-8.6-8.65-8.6h-43.628c-5.302.183-7.771 2.917-7.771 8.6v162.2c-.001 5.751 2.564 8.516 8.07 8.7z"/><path fill="#261C6A" d="M355.836 163.849h-43.5a.75.75 0 01-.75-.75v-11.7a.75.75 0 01.75-.75h43.5a.75.75 0 01.75.75v11.7a.75.75 0 01-.75.75zm-42.75-1.5h42v-10.2h-42v10.2zm42.75-20.849h-43.5a.75.75 0 01-.75-.75V129a.75.75 0 01.75-.75h43.5a.75.75 0 01.75.75v11.75a.75.75 0 01-.75.75zm-42.75-1.5h42v-10.25h-42V140zm42.75-20.851h-43.5a.75.75 0 01-.75-.75v-11.7a.75.75 0 01.75-.75h43.5a.75.75 0 01.75.75v11.7a.75.75 0 01-.75.75zm-42.75-1.5h42v-10.2h-42v10.2zm-32.5.95a.75.75 0 01-.75-.75v-11.25a.75.75 0 011.5 0v11.25a.75.75 0 01-.75.75zm-6.9 0a.75.75 0 01-.75-.75v-11.25a.75.75 0 011.5 0v11.25a.75.75 0 01-.75.75zm-6.9 0a.75.75 0 01-.75-.75v-11.25a.75.75 0 011.5 0v11.25a.75.75 0 01-.75.75zm52.4-64.1c-2.116-.037-3.895-.824-5.3-2.34-1.476-1.365-2.263-3.126-2.3-5.196V46.6c.037-2.039.817-3.828 2.32-5.33 1.399-1.399 3.167-2.146 5.254-2.219h29.876c2.04.073 3.803.815 5.267 2.206 1.451 1.524 2.21 3.304 2.283 5.316v.377c-.073 2.083-.84 3.836-2.276 5.237-1.457 1.494-3.231 2.276-5.26 2.313h-29.864v-.001zm29.823-13.95h-29.823c-1.693.06-3.082.642-4.22 1.78-1.235 1.236-1.851 2.637-1.88 4.283v.336c.03 1.655.638 3.017 1.86 4.149 1.173 1.262 2.551 1.871 4.253 1.9h29.837c1.629-.03 3.012-.643 4.213-1.874 1.181-1.151 1.777-2.521 1.837-4.203v-.309c-.063-1.653-.666-3.059-1.844-4.297-1.18-1.118-2.574-1.705-4.233-1.765zm-29.273 10.15c-1.127 0-2.109-.389-2.917-1.157-.823-.822-1.233-1.808-1.233-2.943 0-1.102.41-2.07 1.219-2.88.81-.81 1.795-1.22 2.931-1.22 1.068 0 2.021.41 2.831 1.219.81.811 1.22 1.779 1.22 2.881 0 1.135-.41 2.121-1.22 2.93-.822.781-1.77 1.17-2.831 1.17zm0-6.7c-.733 0-1.345.255-1.87.78-.525.525-.78 1.121-.78 1.82 0 .733.255 1.345.78 1.87.513.487 1.129.73 1.87.73.673 0 1.256-.243 1.784-.744a2.518 2.518 0 00.767-1.856c0-.699-.255-1.294-.781-1.82-.526-.525-1.105-.78-1.77-.78zm28.7-20.35c-1.274 0-2.382-.481-3.291-1.431-.897-.897-1.358-2.001-1.358-3.269 0-1.174.444-2.31 1.32-3.376.925-.93 2.028-1.374 3.329-1.374 1.374 0 2.498.448 3.342 1.331.935.973 1.408 2.124 1.408 3.419 0 1.314-.485 2.425-1.442 3.303-.789.907-1.921 1.397-3.308 1.397zm0-7.95c-.901 0-1.627.288-2.22.88-.609.748-.93 1.541-.93 2.37 0 .868.304 1.594.93 2.22.636.663 1.358.98 2.22.98.949 0 1.681-.309 2.236-.944.701-.648 1.014-1.367 1.014-2.256 0-.908-.324-1.687-.99-2.38l-.001-.001c-.559-.585-1.298-.869-2.259-.869zm-13.75 4h-19a.75.75 0 010-1.5h19a.75.75 0 010 1.5z"/></g><path fill="#261C6A" fill-rule="nonzero" d="M232.936 209.299h-146a.75.75 0 010-1.5h146a.75.75 0 010 1.5z"/><g fill-rule="nonzero"><g fill="#A8A4C3"><path d="M206.836 209.299h-94.35c-.83 0-1.568-.3-2.135-.867-.368-.327-.865-1.01-.865-2.133 0-.828.299-1.565.865-2.133.567-.567 1.305-.867 2.135-.867h19.9c.911-.025 1.75-.366 2.531-1.044.75-.702 1.196-1.597 1.328-2.704l2.548-24.78a1.25 1.25 0 012.488.256l-2.55 24.8c-.204 1.714-.923 3.15-2.141 4.287-1.253 1.087-2.644 1.645-4.169 1.686h-19.935c-.193 0-.283.051-.366.133-.083.083-.134.174-.134.367 0 .243.064.301.085.319.132.13.222.181.415.181h94.35c.113 0 .24-.021.408-.174.034-.036.042-.241.042-.326 0-.193-.043-.299-.095-.371a.53.53 0 00-.355-.129h-20.9c-1.622-.043-2.936-.64-3.937-1.771-1.042-1.215-1.477-2.643-1.307-4.259l2.6-24.999a1.25 1.25 0 112.487.259l-2.6 25c-.098.933.126 1.682.706 2.357.526.595 1.192.89 2.084.913h20.866a3.065 3.065 0 012.18.915c.504.562.77 1.282.77 2.085 0 1.091-.445 1.764-.818 2.136-.633.578-1.356.863-2.131.863zM74.753 172.464c-9.217 0-14.248-3.644-14.961-10.841L52.888 33.367c-.285-4.982.863-8.97 3.412-11.847 2.447-2.739 6.09-4.324 10.833-4.716.034-.004.069-.004.103-.004h179.75c7.575 0 11.828 4.263 12.298 12.327l6.85 130.657c.226 4.261-.688 7.506-2.717 9.645-1.901 2.004-4.754 3.02-8.48 3.02H75.804c-.356.01-.707.015-1.051.015zM67.288 19.299c-4.058.344-7.126 1.65-9.12 3.883-2.092 2.361-3.03 5.743-2.784 10.046l6.9 128.204c.591 5.959 5.007 8.766 13.466 8.517h179.186c3.014 0 5.256-.754 6.667-2.241 1.538-1.622 2.223-4.243 2.035-7.793l-6.85-130.65c-.396-6.796-3.512-9.966-9.802-9.966H67.288z"/><path d="M75.787 171.949h-.041c-3.314-.179-5.789-1.303-7.355-3.343-1.279-1.862-2.025-4.699-2.303-8.704L59.287 29.238c.175-6.459 2.778-10.446 7.736-11.908a.751.751 0 01.425 1.439c-4.325 1.276-6.504 4.694-6.663 10.451l6.799 130.59c.255 3.667.935 6.334 2.02 7.915 1.282 1.668 3.325 2.57 6.222 2.725a.75.75 0 01-.039 1.499zm179.199-31.15h-180.4a.75.75 0 01-.749-.711l-5.651-108.95a.754.754 0 01.75-.789h180.4a.75.75 0 01.749.711l5.651 108.95a.754.754 0 01-.75.789zm-179.688-1.5h178.898l-5.572-107.45H69.726l5.572 107.45z"/></g><path fill="#261C6A" d="M159.236 27.499c-1.102 0-1.707-.485-2.025-.916a2.703 2.703 0 01-.774-1.934 2.545 2.545 0 01.77-1.98c.449-.495 1.09-.77 1.831-.77.691 0 1.315.251 1.856.748.555.553.848 1.205.892 1.958a2.832 2.832 0 01-.604 1.952c-.591.642-1.231.942-1.946.942zm-.2-4.1c-.324 0-.554.094-.746.305-.271.272-.376.551-.356.901.001.412.122.705.381.963a.786.786 0 01.087.104c.097.14.289.327.833.327.181 0 .461-.042.799-.409.181-.24.275-.54.253-.895a1.406 1.406 0 00-.432-.965 1.172 1.172 0 00-.819-.331zm61.75 102.95h-31.35a.75.75 0 010-1.5h31.35c1.804 0 3.15-.451 4.001-1.34.923-.965 1.343-2.521 1.25-4.627l-3.55-68.294c-.213-4.086-2.12-5.989-6.001-5.989h-113.5c-1.884 0-3.278.463-4.145 1.376-.907.956-1.313 2.482-1.206 4.535l3.55 68.3c.214 4.12 2.136 6.039 6.051 6.039h40a.75.75 0 010 1.5h-40c-4.686 0-7.295-2.58-7.549-7.461l-3.55-68.3c-.129-2.48.415-4.38 1.616-5.646 1.161-1.223 2.921-1.843 5.233-1.843h113.5c4.652 0 7.246 2.563 7.499 7.411l3.55 68.3c.112 2.536-.447 4.464-1.665 5.736-1.143 1.197-2.854 1.803-5.084 1.803zm-2.7-72.15h-32.35a.75.75 0 010-1.5h32.35a.75.75 0 010 1.5zm-65.9 0h-49.9a.75.75 0 010-1.5h49.9a.75.75 0 010 1.5z"/><path fill="#A8A4C3" d="M178.936 204.799h-39.55a.75.75 0 010-1.5h39.55a.75.75 0 010 1.5z"/></g><path fill="#261C6A" fill-rule="nonzero" d="M604.736 209h-328a.75.75 0 010-1.5h328a.75.75 0 010 1.5z"/><g fill-rule="nonzero"><path fill="#261C6A" d="M579.636 203.75h-12.55a.75.75 0 010-1.5h12.55a.75.75 0 010 1.5zm-22.85 0h-12.45a.75.75 0 010-1.5h12.45a.75.75 0 010 1.5zm-21.2-42.651h-23a.75.75 0 010-1.5h23c5.24 0 8.104-2.517 8.756-7.693l10.051-73.408c.336-2.563-.038-4.485-1.112-5.709-1.071-1.221-2.92-1.839-5.494-1.839h-103.45c-5.243 0-8.123 2.534-8.806 7.747l-10.102 73.405c-.335 2.538.036 4.443 1.103 5.659 1.069 1.22 2.922 1.839 5.505 1.839h15.8a.75.75 0 010 1.5h-15.8c-3.034 0-5.266-.791-6.633-2.35-1.363-1.555-1.855-3.858-1.461-6.848l10.101-73.404c.786-6.002 4.249-9.048 10.293-9.048h103.45c3.025 0 5.253.791 6.621 2.35 1.371 1.563 1.867 3.884 1.472 6.897l-10.05 73.405c-.752 5.967-4.198 8.997-10.244 8.997zm15.6-79.45h-113a.75.75 0 010-1.5h113a.75.75 0 010 1.5z"/><path fill="#A8A4C3" d="M359.336 209.001c-21.586-.036-37.976-.56-48.716-1.557-10.913-1.005-17.372-2.719-19.744-5.238a1.249 1.249 0 01-.34-.856v-3.25c0-.69.56-1.25 1.25-1.25h82.758l20.653-151.718c1.152-8.605 5.835-13.208 13.916-13.68l187.373.048c3.932-.072 7.173.929 9.631 2.975 5.676 4.375 7.899 11.372 6.607 20.795l-19.389 142.915v1.765c-.238 4.09-2.178 8.908-10.077 9.051H359.336zm-66.3-8.192c1.64 1.354 6.118 3.069 17.814 4.146 10.666.991 26.979 1.511 48.487 1.546h223.898c4.919-.09 7.342-2.194 7.602-6.625l-.002-1.776c0-.056.004-.112.012-.168l19.4-143c.815-5.956.178-10.688-1.952-14.31.199 1.815.16 3.846-.12 6.083l-20.451 151.562a1.249 1.249 0 01-1.238 1.083h-293.45v1.459zm84.031-3.96h208.326l20.303-150.467c.547-4.366.105-7.765-1.312-10.096-1.971-1.576-4.6-2.348-7.876-2.287l-187.323-.05c-6.736.395-10.525 4.162-11.511 11.516l-20.607 151.384z"/><path fill="#A8A4C3" d="M579.086 191.199h-194.95a.75.75 0 01-.738-.883l.351-1.949.646-4.23L402.293 51.35a.75.75 0 01.743-.65h194.899c.217 0 .423.094.564.257a.748.748 0 01.179.594l-18.05 132.8-.498 4.237-.304 1.976a.748.748 0 01-.74.635zm-194.054-1.5h193.41l.202-1.313.496-4.223L597.077 52.2H403.691l-17.813 132.15-.846 5.349z"/><path fill="#261C6A" d="M500.336 45.799c-.876 0-1.655-.396-2.256-1.144-.669-.647-.986-1.451-.943-2.39.083-.974.442-1.77 1.069-2.396.709-.709 1.527-1.069 2.43-1.069.908 0 1.688.378 2.258 1.095.667.647.983 1.467.941 2.438-.042.924-.415 1.711-1.11 2.342-.642.745-1.445 1.124-2.389 1.124zm.3-5.5c-.497 0-.945.206-1.369.63-.375.375-.583.845-.634 1.435-.021.484.143.888.516 1.238a.64.64 0 01.079.086c.426.547.837.611 1.108.611.511 0 .915-.2 1.273-.63a.784.784 0 01.08-.083c.418-.368.623-.788.647-1.321.023-.548-.14-.968-.514-1.319a.793.793 0 01-.083-.091c-.289-.379-.639-.556-1.103-.556z"/></g><g fill="#FF7800" fill-rule="nonzero"><path d="M474.236 177.099c-1.033 0-1.953-.238-2.736-.706-.353-.206-.834-.423-1.423-.64a.75.75 0 11.518-1.407c.673.247 1.234.502 1.669.756.562.336 1.204.497 1.973.497.807 0 1.548-.173 2.203-.515 18.236-9.053 30.316-19.767 35.916-31.851 2.054-4.827 3.466-10.077 4.188-15.582l2.2-16.154c.37-2.166.057-3.857-.956-5.197a.985.985 0 01-.06-.093c-.161-.295-.465-.652-.903-1.061-.823-.699-1.015-.847-1.058-.876a12.856 12.856 0 00-2.264-1.178.75.75 0 11.567-1.389c.943.384 1.795.829 2.532 1.32.064.042.186.123 1.22 1.003.568.529.952.984 1.194 1.412 1.233 1.658 1.641 3.772 1.21 6.286l-2.196 16.125c-.738 5.636-2.187 11.018-4.303 15.992-5.757 12.423-18.07 23.377-36.607 32.579-.859.449-1.834.679-2.884.679z"/><path d="M478.436 180.199c-1.169 0-2.185-.267-3.018-.793a193.554 193.554 0 01-5.722-3.283c-15.284-9.15-24.229-20.03-26.588-32.338-.723-5.082-.707-10.512.038-16.197l2.201-16.157c.371-2.604 1.416-4.776 3.104-6.465 1.68-1.825 4.041-3.205 6.983-4.066l24.11-6.803c2.958-.784 4.823-1.147 5.89-1.147 1.076 0 2.839.365 5.548 1.149l20.968 6.405c.043.013.086.029.127.046a4.7 4.7 0 00.483.177c.1.021.201.052.304.095l.948.286c.092.02.238.062.364.104 8.073 2.824 11.681 7.256 10.742 13.182l-2.195 16.124c-.743 5.712-2.203 11.155-4.338 16.171-5.813 12.543-18.221 23.561-36.897 32.781-.868.476-1.911.729-3.052.729zm7-84.75c-.564 0-1.93.184-5.229 1.059l-24.08 6.794c-2.489.728-4.468 1.871-5.871 3.394-1.352 1.353-2.135 3.002-2.432 5.08l-2.199 16.143c-.714 5.455-.731 10.657-.051 15.455 2.209 11.52 10.76 21.836 25.404 30.604 1.9 1.132 3.823 2.235 5.712 3.277.491.308 1.057.444 1.746.444.729 0 1.351-.146 1.901-.447 18.197-8.986 30.216-19.603 35.766-31.579 2.029-4.77 3.429-9.992 4.145-15.485l2.2-16.158c.735-4.649-2.233-8.059-9.074-10.452a3.984 3.984 0 00-.238-.066l-1.042-.312a1.334 1.334 0 01-.126-.043l-.025-.007a7.146 7.146 0 01-.782-.275l-20.889-6.381c-2.984-.863-4.279-1.045-4.836-1.045z"/></g><path fill="#FF7800" fill-rule="nonzero" d="M172.936 132c-1.056 0-2.018-.233-2.859-.692-17.835-9.168-29.311-20.101-34.09-32.488-1.724-5.002-2.747-10.37-3.049-15.979l-.95-16.097c-.215-2.504.363-4.621 1.72-6.271.219-.355.641-.817 1.235-1.338.793-.614 1.224-.94 1.328-1.009.784-.5 1.668-.942 2.642-1.325a.752.752 0 01.549 1.397c-.885.347-1.683.746-2.372 1.185-.085.057-.487.364-1.194.911-.442.39-.783.756-.975 1.059-1.168 1.429-1.621 3.133-1.437 5.284l.952 16.12c.295 5.475 1.291 10.705 2.96 15.55 4.634 12.007 15.869 22.673 33.384 31.677.635.346 1.355.518 2.157.518.774 0 1.438-.164 2.028-.501.44-.257 1.006-.506 1.725-.757a.75.75 0 01.496 1.416c-.618.216-1.113.432-1.47.64-.82.464-1.752.7-2.78.7zm312.252 16.425a6.8 6.8 0 01-2.861-.642c-2.144-.953-3.045-3.315-2.687-7.032a5.98 5.98 0 01-1.069.147h-.005c-.476 0-.913-.057-1.316-.169-.584 3.733-2.075 6.093-4.44 7.019-2.052.88-3.998.873-5.765-.03-2.336-1.033-3.189-3.793-2.5-8.185a.751.751 0 01.381-.542c4.443-2.434 8.521-2.422 12.12.029.411.255.899.378 1.49.378a4.454 4.454 0 001.654-.416c4.197-2.388 8.282-2.379 12.143.03a.75.75 0 01.347.728c-.533 4.339-2.068 7.049-4.563 8.055-.986.419-1.965.63-2.929.63zm-3.964-8.3c-.48 3.457.097 5.572 1.716 6.289l.01.004c1.479.681 2.983.678 4.593-.008 1.879-.758 3.079-2.898 3.585-6.371-3.183-1.822-6.429-1.796-9.904.086zm-15.251.007c-.478 3.419.1 5.515 1.717 6.231 1.408.717 2.885.711 4.552-.004 1.945-.762 3.147-2.891 3.595-6.337-2.956-1.842-6.191-1.805-9.864.11zm13.463-6.183c-5.545 0-10.308-.565-14.157-1.679-1.549-.438-6.272-1.775-5.886-4.67.249-1.908 2.459-3.347 6.953-4.526a42.898 42.898 0 012.815-.623c.749-3.321 1.711-5.7 2.934-7.264 1.375-1.698 3.729-3.188 7.181-.696 1.627 1.163 3.174 1.141 5.181-.039 1.872-1.132 3.414-1.511 4.708-1.149.963.269 1.732.941 2.286 1.998.816 1.565 1.193 3.92 1.149 7.187.832.174 1.649.372 2.436.588 1.546.441 6.229 1.779 5.845 4.72l-.001.002c-.25 1.875-2.443 3.298-6.901 4.477-4.075 1.11-8.969 1.674-14.543 1.674zm-10.644-9.898a40.99 40.99 0 00-2.068.475c-4.88 1.28-5.757 2.599-5.844 3.271-.137 1.023 1.617 2.127 4.811 3.032 3.719 1.076 8.342 1.621 13.745 1.621 5.441 0 10.203-.546 14.153-1.623 4.844-1.281 5.715-2.569 5.804-3.225.139-1.07-1.553-2.164-4.763-3.081a38.23 38.23 0 00-2.114-.517 121.155 121.155 0 01-.385 3.733.75.75 0 01-1.49-.176c.198-1.682.349-3.196.446-4.5.094-3.28-.231-5.657-.966-7.065-.358-.684-.804-1.092-1.36-1.248-.858-.24-2.05.094-3.537.993-2.532 1.49-4.729 1.465-6.823-.031-2.097-1.513-3.676-1.385-5.132.412-1.115 1.426-2.043 3.829-2.748 7.133l-.002.005-.006.024a51.816 51.816 0 00-.886 4.48.751.751 0 01-1.482-.232c.197-1.253.414-2.42.647-3.481z"/><path fill="#FF7800" fill-rule="nonzero" d="M179.339 104.875c-.967 0-1.952-.211-2.947-.635l-.003-.001c-2.244-.967-3.548-3.374-3.885-7.161a5.399 5.399 0 01-1.132.171h-.006c-.442 0-.865-.049-1.269-.146.093 3.73-.985 6.111-3.21 7.084-1.923.888-3.869.887-5.77-.008-2.456-1.041-3.787-3.789-3.93-8.154a.75.75 0 01.361-.666c4.033-2.441 8.108-2.445 12.107-.012a3.568 3.568 0 001.681.403 3.35 3.35 0 001.466-.395c3.796-2.404 7.883-2.408 12.152-.009a.749.749 0 01.38.599c.324 4.43-.734 7.219-3.144 8.291a6.784 6.784 0 01-2.851.639zm-2.358-2.015c1.61.685 3.111.688 4.591.008 1.714-.762 2.481-2.916 2.292-6.409-3.531-1.87-6.779-1.888-9.906-.053.212 3.51 1.229 5.68 3.023 6.454zm-18.276-6.442c.187 3.469 1.204 5.618 3.024 6.39 1.529.719 3.006.719 4.542.009 1.748-.764 2.515-2.906 2.295-6.374-3.299-1.891-6.533-1.901-9.861-.025zm12.181-6.169c-5.542 0-10.387-.564-14.4-1.677-4.347-1.169-6.524-2.666-6.648-4.574-.085-1.961 1.94-3.5 6.191-4.72a43.127 43.127 0 012.585-.603c.174-3.281.707-5.642 1.625-7.206.678-1.112 1.543-1.791 2.58-2.027 1.287-.295 2.81.119 4.525 1.228 1.854 1.158 3.428 1.172 5.177.006 3.634-2.535 5.857-.997 7.079.743 1.119 1.559 1.922 3.933 2.448 7.243.927.18 1.827.386 2.682.614 4.364 1.21 6.522 2.728 6.606 4.642.126 1.94-1.884 3.468-6.148 4.655-3.912 1.111-8.725 1.676-14.302 1.676zm-12.317-10.033c-.729.153-1.446.323-2.14.508-3.328.956-5.142 2.091-5.094 3.193.042.643.82 1.938 5.545 3.208 3.888 1.078 8.598 1.624 14.005 1.624 5.438 0 10.114-.545 13.895-1.621 3.333-.928 5.128-2.039 5.057-3.13-.029-.672-.782-1.967-5.502-3.276a38.182 38.182 0 00-2.068-.487c.135 1.111.241 2.324.317 3.621a.749.749 0 01-.705.792.747.747 0 01-.792-.705 53.62 53.62 0 00-.441-4.518l-.005-.035c-.48-3.29-1.242-5.68-2.265-7.104-.852-1.21-2.188-2.341-5.011-.372-2.26 1.507-4.452 1.504-6.827.021-1.372-.887-2.507-1.234-3.386-1.031-.635.145-1.167.582-1.626 1.335-.826 1.407-1.313 3.794-1.441 7.083a106.424 106.424 0 000 4.562.751.751 0 01-.735.765h-.015a.751.751 0 01-.75-.735c-.025-1.327-.03-2.567-.016-3.698z"/><path fill="#FF7800" fill-rule="nonzero" d="M168.536 135.049c-1.132 0-2.151-.233-3.029-.692-17.99-9.231-29.562-20.236-34.387-32.707-1.746-5.064-2.778-10.512-3.082-16.235l-.95-16.093c-.445-5.828 3.489-10.212 11.695-13.007.134-.045.28-.087.447-.129l.963-.29c.072-.025.168-.054.28-.074.158-.048.315-.106.472-.174.044-.019.09-.035.136-.049l21.45-6.35c2.79-.787 4.582-1.151 5.655-1.151 1.069 0 2.905.363 5.777 1.144l23.567 6.754c2.906.872 5.176 2.265 6.761 4.146 1.556 1.665 2.442 3.863 2.592 6.484l.95 16.098c.305 5.661-.108 11.075-1.228 16.096-3.321 12.298-13.091 23.119-29.051 32.213a265.37 265.37 0 01-6.03 3.317c-.837.463-1.847.699-2.988.699zm-27.604-76.765l-1.02.307c-.17.045-.258.07-.333.095-7.078 2.411-10.351 5.836-9.997 10.468l.952 16.122c.292 5.498 1.279 10.716 2.934 15.517 4.581 11.837 15.752 22.398 33.189 31.345.525.275 1.155.412 1.879.412.715 0 1.32-.133 1.798-.396a274.765 274.765 0 005.985-3.292c15.358-8.751 24.732-19.06 27.86-30.638 1.057-4.745 1.451-9.93 1.159-15.356l-.95-16.094c-.117-2.054-.76-3.679-1.966-4.971-1.309-1.551-3.177-2.681-5.595-3.406l-23.536-6.746c-3.197-.869-4.543-1.052-5.105-1.052-.56 0-1.875.183-4.961 1.053l-21.368 6.326a7.258 7.258 0 01-.777.272 1.092 1.092 0 01-.148.034z"/><path d="M1 0h664v210H1z"/></g></svg>