<svg xmlns="http://www.w3.org/2000/svg" width="48" height="48"><g fill="none" fill-rule="evenodd"><path d="M0 0h48v48H0z"/><path stroke="#FF7800" stroke-linecap="round" stroke-linejoin="round" stroke-width="1.5" d="M22.05 32.8c-.533 0-.983-.2-1.35-.6-.4-.4-.6-.85-.6-1.35 0-.567.2-1.05.6-1.45.367-.333.817-.5 1.35-.5.566 0 1.017.167 1.351.5.399.4.599.883.599 1.45 0 .5-.2.95-.599 1.35-.334.4-.785.6-1.351.6zm12.25-9.4c.3.3.45.667.45 1.1 0 .367-.15.7-.45 1-.267.3-.616.45-1.05.45-.366 0-.7-.15-1-.45-.3-.3-.45-.633-.45-1 0-.433.15-.8.45-1.1.3-.233.634-.35 1-.35.434 0 .783.117 1.05.35zM24 4.5c5.366 0 9.95 1.9 13.75 5.7 3.833 3.833 5.75 8.433 5.75 13.8 0 5.433-1.917 10.033-5.75 13.8-3.8 3.8-8.384 5.7-13.75 5.7-5.4 0-10.016-1.9-13.849-5.7C6.384 34.033 4.5 29.433 4.5 24c0-5.367 1.884-9.967 5.651-13.8C13.984 6.4 18.6 4.5 24 4.5zm-5.849 16.6a2.794 2.794 0 01-2.051-.85c-.567-.6-.85-1.3-.85-2.1s.283-1.483.85-2.05a2.794 2.794 0 012.051-.85c.799 0 1.5.283 2.099.85.567.567.85 1.25.85 2.05 0 .8-.283 1.5-.85 2.1-.599.567-1.3.85-2.099.85z"/></g></svg>