<svg xmlns="http://www.w3.org/2000/svg" width="48" height="48"><g fill="none" fill-rule="evenodd"><path d="M0 0h48v48H0z"/><path stroke="#FF7800" stroke-linecap="round" stroke-linejoin="round" stroke-width="1.5" d="M21.7 28.75V39.7c0 .6.2 1.067.6 1.4.433.433.933.65 1.5.65.866 0 1.517-.217 1.95-.65.4-.333.6-.8.6-1.4V28.75m-11.6-.2c-2.4-2.467-3.6-5.433-3.6-8.9 0-3.667 1.233-6.783 3.7-9.35m13.65 4.45c1.233 1.267 1.85 2.767 1.85 4.5s-.617 3.217-1.85 4.45c-1.234 1.233-2.734 1.85-4.5 1.85-1.734 0-3.217-.617-4.45-1.85s-1.85-2.717-1.85-4.45.617-3.233 1.85-4.5c1.233-1.233 2.716-1.85 4.45-1.85 1.766 0 3.266.617 4.5 1.85zm4.55-4.45c2.633 2.567 3.95 5.683 3.95 9.35 0 3.4-1.234 6.333-3.7 8.8m4.2-22.2c3.666 3.667 5.5 8.133 5.5 13.4 0 5.1-1.75 9.483-5.25 13.15m-27.3.05C6.817 29.183 5 24.783 5 19.65c0-5.267 1.867-9.733 5.6-13.4"/></g></svg>