<svg xmlns="http://www.w3.org/2000/svg" width="48" height="48"><g fill="none" fill-rule="evenodd"><path d="M0 0h48v48H0z"/><path stroke="#FF7800" stroke-linecap="round" stroke-linejoin="round" stroke-width="1.5" d="M21.325 14.525c.733-.767 1.634-1.15 2.7-1.15 1.067 0 1.967.383 2.7 1.15.734.733 1.1 1.633 1.1 2.7 0 1.067-.366 1.967-1.1 2.7-.733.733-1.633 1.1-2.7 1.1-1.066 0-1.967-.367-2.7-1.1-.767-.733-1.15-1.633-1.15-2.7 0-1.067.383-1.967 1.15-2.7zm-9.6 2.75c0-3.434 1.184-6.35 3.55-8.75 2.434-2.4 5.35-3.6 8.75-3.6 3.366 0 6.234 1.2 8.6 3.6 2.433 2.4 3.65 5.316 3.65 8.75 0 2.033-.583 3.917-1.75 5.65l-10.5 16-10.75-16.35c-1.033-1.533-1.55-3.3-1.55-5.3z"/><path stroke="#FF7800" stroke-linecap="round" stroke-linejoin="round" stroke-width="1.5" d="M14.675 30.775h-3.5l-5.601 12.3h36.851l-5.625-12.3h-3.524"/></g></svg>