<svg xmlns="http://www.w3.org/2000/svg" width="48" height="48"><g fill="none" fill-rule="evenodd"><path d="M0 0h48v48H0z"/><path stroke="#FF7800" stroke-linecap="round" stroke-linejoin="round" stroke-width="1.5" d="M24 15.55c2.3 0 4.283.833 5.95 2.5 1.7 1.633 2.55 3.617 2.55 5.95 0 2.367-.85 4.367-2.55 6-1.667 1.667-3.65 2.5-5.95 2.5-2.367 0-4.383-.833-6.05-2.5-1.6-1.633-2.4-3.633-2.4-6 0-2.333.8-4.317 2.4-5.95 1.667-1.667 3.683-2.5 6.05-2.5zm15.05 4.25a14.645 14.645 0 00-1.45-3.5l1.55-2.2c.467-.7.383-1.366-.25-2l-3-3.05c-.633-.633-1.317-.717-2.05-.25l-2.15 1.55a23.36 23.36 0 00-3.45-1.4l-.55-2.7C27.533 5.417 27.017 5 26.15 5h-4.4c-.867 0-1.35.417-1.45 1.25l-.5 2.7c-1.267.3-2.417.767-3.45 1.4L14.1 8.8c-.7-.467-1.367-.383-2 .25L9 12.1c-.633.634-.7 1.283-.2 1.95l1.5 2.25c-.633 1.1-1.1 2.267-1.4 3.5l-2.65.5c-.833.133-1.25.65-1.25 1.55v4.35c0 .9.4 1.4 1.2 1.5l2.7.55c.3 1.167.767 2.317 1.4 3.45l-1.5 2.1c-.5.767-.45 1.467.15 2.1L12.1 39c.633.633 1.283.683 1.95.15l2.25-1.55a13.555 13.555 0 003.5 1.45l.5 2.65c.1.867.583 1.3 1.45 1.3h4.4c.867 0 1.383-.4 1.55-1.2l.45-2.75a15.548 15.548 0 003.55-1.45l2.1 1.55c.767.533 1.467.483 2.1-.15l3-3.1c.633-.633.717-1.3.25-2l-1.55-2.2a16.162 16.162 0 001.45-3.45l2.6-.55c.9-.1 1.35-.6 1.35-1.5v-4.35c0-.9-.433-1.417-1.3-1.55l-2.65-.5z"/></g></svg>