<svg xmlns="http://www.w3.org/2000/svg" width="48" height="48"><g fill="none" fill-rule="evenodd"><path d="M0 0h48v48H0z"/><g stroke="#FF7800" stroke-linecap="round" stroke-linejoin="round" stroke-width="1.5"><path d="M43.5 24c0 5.533-1.95 10.25-5.85 14.15-3.9 3.9-8.617 5.85-14.15 5.85-5.5 0-10.2-1.95-14.1-5.85-3.933-3.9-5.9-8.617-5.9-14.15 0-5.5 1.967-10.217 5.9-14.15C13.3 5.95 18 4 23.5 4c5.533 0 10.25 1.95 14.15 5.85 3.9 3.933 5.85 8.65 5.85 14.15z"/><path d="M9.7 10.35l3.45 7.55-9.45 8.85 9.4 2 3.3 10.65L4.15 29.15m37.5 2L36.9 33.7l-4.25 7.75M29.1 24.2l3.6 7-4.85 8.95-3.6-7.45-6.5-3.5 2.55-5h8.8zM12.9 7.3l3.15 6.9 4.55-3.35 1.85-5.9M32.6 7.3l-2.4 3.85-2.75-2.1-3.6 2v2.1h3.2l.8 3.05h-7l-1.15 4.05H29l2.7-1.75 3 6.7 3.6 2.2 5.25-2.85"/></g></g></svg>