<svg xmlns="http://www.w3.org/2000/svg" width="160" height="80"><path fill="#83B81A" d="M147.185 25.412c-.471-.627-.942-1.098-3.298-1.254-.628 0-2.513-.158-5.811-.158-8.638 0-14.607 2.667-17.59 7.844.785-5.177-4.241-7.844-15.235-7.844-12.879 0-21.046 5.177-24.344 15.687-1.257 3.921-1.257 7.059-.314 9.568h-3.141c-2.356.158-5.497.314-7.54.314-4.71 0-7.695-.784-8.794-2.353-.943-1.412-.943-4.078.314-8 2.042-6.431 6.91-9.255 14.763-9.255 4.084 0 8.01.47 8.01.47.471 0 .785-.627.785-1.097l-.157-.47-.314-2.197c-.157-1.412-1.256-2.196-3.141-2.51C79.65 24 78.237 24 76.352 24h-.157c-10.209 0-17.434 3.451-21.36 10.04C56.248 27.293 51.537 24 40.7 24c-6.125 0-10.523.157-13.036.47-2.042.314-3.298 1.099-3.77 2.51l-.942 2.824c-.157.47.158.784.786.784.47 0 2.355-.313 5.497-.47 4.24-.314 7.224-.471 9.266-.471 5.968 0 8.638 1.569 7.696 4.549-.158.627-.628 1.098-1.414 1.255-5.654.941-10.208 1.569-13.507 2.04-9.423 1.254-14.92 4.078-16.334 8.784-2.041 6.431 2.984 9.568 15.078 9.568 5.968 0 11.151-.313 15.234-1.098 2.356-.47 3.613-.94 4.084-2.51l2.199-7.215c-.158 7.215 4.711 10.823 15.077 10.823 4.398 0 8.638-.157 10.68-.47 2.042-.314 3.141-.785 3.612-2.353l.472-2.196C83.577 54.274 88.445 56 95.828 56c7.852 0 12.407-.157 13.663-.627 1.1-.314 1.728-.942 2.042-1.726 0-.157 0-.314.157-.47l.943-2.981c.157-.47-.158-.784-.786-.784l-5.026.313c-3.298.158-5.968.314-7.852.314-3.613 0-5.969-.314-7.382-.784-2.042-.785-2.984-2.196-2.827-4.55l15.863-2.039c7.067-.94 11.936-3.137 14.292-6.588l-5.497 18.353c-.158.314 0 .628.157.785.158.157.472.313 1.1.313h6.596c1.1 0 1.57-.627 1.728-1.098l5.81-20.235c.786-2.667 3.142-3.922 7.54-3.922 3.926 0 6.753 0 8.638.157h.157c.314 0 .942-.157 1.414-.94l.942-2.824c0-.471 0-.942-.314-1.255zM41.328 49.57c-2.041.313-5.025.47-8.795.47-6.753 0-9.58-1.412-8.795-4.078.628-1.883 2.356-3.138 5.183-3.451l15.234-2.04-2.827 9.099zm70.205-16.314c-.628 2.039-3.612 3.45-8.952 4.235l-12.722 1.725.314-1.098c1.1-3.45 2.513-5.647 4.398-6.902 1.885-1.255 5.026-1.882 9.423-1.882 5.811.157 8.324 1.412 7.54 3.922z"/></svg>