<svg xmlns="http://www.w3.org/2000/svg" width="160" height="80"><g fill="none"><path fill="#000" d="M44 54.4h-7.32l-2.24-5.544h-12.2L20.2 54.4H13l11-28h7.88L44 54.4zM28.04 33.09l-4 10.88h8.4l-4.4-10.88zm43.911-6.69H78v28h-6.949V36.91l-7.52 8.785h-1.062l-7.52-8.785V54.4H48v-28h6.049l8.95 10.387zm23.481 0C105.715 26.4 111 32.763 111 40.44c0 8.047-5.12 13.96-16.353 13.96H83v-28h12.432zm-5.41 22.868h4.582c7.063 0 9.17-4.763 9.17-8.87 0-4.803-2.603-8.867-9.252-8.867H90.02v17.737z"/><path fill="#00A66E" d="M123.79 33.191L115 24.4h32v32l-8.79-8.79V33.191zm.378 1.209L115 43.567V56.4h12.832L137 47.233h-12.832z"/></g></svg>