<svg xmlns="http://www.w3.org/2000/svg" width="160" height="80"><path d="M155.381 24.745c.624 0 1.233.16 1.828.479a3.424 3.424 0 011.389 1.375c.33.596.498 1.218.498 1.865a3.76 3.76 0 01-.491 1.847 3.448 3.448 0 01-1.374 1.377 3.752 3.752 0 01-1.85.491 3.759 3.759 0 01-1.85-.49 3.458 3.458 0 01-1.377-1.378 3.73 3.73 0 01-.493-1.847c0-.647.167-1.27.5-1.865a3.42 3.42 0 011.392-1.375 3.812 3.812 0 011.828-.48zm0 .615c-.523 0-1.031.135-1.526.402-.494.268-.88.651-1.16 1.147a3.138 3.138 0 00-.418 1.555c0 .535.138 1.048.412 1.54.273.49.657.874 1.15 1.147a3.118 3.118 0 001.542.413c.535 0 1.049-.138 1.542-.413a2.899 2.899 0 001.147-1.148c.272-.49.409-1.004.409-1.539 0-.539-.138-1.057-.416-1.555a2.86 2.86 0 00-1.16-1.147 3.18 3.18 0 00-1.522-.402zm-1.631 5.157v-3.998h1.374c.47 0 .81.036 1.02.11.21.073.377.202.503.386a1.06 1.06 0 01-.126 1.35c-.209.217-.486.338-.83.365.14.06.256.13.34.212.16.158.357.422.591.794l.488.781h-.788l-.356-.63c-.28-.494-.503-.805-.674-.93-.118-.092-.291-.138-.518-.138h-.378v1.698h-.646zm.646-2.249h.783c.373 0 .629-.058.766-.169a.546.546 0 00.205-.443.541.541 0 00-.1-.318.586.586 0 00-.272-.209c-.118-.047-.334-.07-.65-.07h-.732v1.209M83.704 24.5h.124v8.546h-8.635v-8.547h8.51zm-37.58 18.074l19.97 1.238c.831 0 1.51.68 1.51 1.51s-.678 1.51-1.51 1.51h-28.46V35.706c.874 3.435 3.884 6.246 8.491 6.868zm-8.491 12.852H66.73c4.241 0 7.802-3.06 8.587-7.081.692 4.008 4.198 7.08 8.386 7.08h18.592c4.154 0 7.637-3.023 8.368-6.983v6.984h29.807c4.812 0 8.749-3.937 8.749-8.749v-1.239c0-4.812-3.937-8.748-8.749-8.748l-1.634-.072c-9.275-.408-18.52-.876-27.784-1.354.722 3.635 3.79 6.661 8.592 7.31l20.19 1.238c.831 0 1.51.68 1.51 1.51s-.678 1.51-1.51 1.51h-29.029v-11.58l-8.635-.446v9.905a2.527 2.527 0 01-2.52 2.52H86.348a2.527 2.527 0 01-2.52-2.52V33.859l-8.635-.445v9.819c-.987-3.715-4.416-6.393-8.462-6.393l-38.03-2.486v21.072h8.932zM73.82 33.051v-8.594H46.124c-4.089 0-7.545 2.842-8.491 6.649v-6.607H21.1l-5.634 8.548h21.911l36.444.004zm-48.767 1.092L11.398 55.426H.716L15.122 33.57l9.932.573zm124.166-1.092v-8.594h-29.575c-4.758 0-8.661 3.85-8.747 8.59l38.322.004zm-47.049-.004V24.5h8.635v8.546h-8.635" fill="#231F20" fill-rule="evenodd"/></svg>