<svg xmlns="http://www.w3.org/2000/svg" width="160" height="80"><g fill="none"><path fill="#EB222C" d="M44.963 64.834h70.001V15.135H44.963z"/><path fill="#FFF" d="M71.597 26.486L49.842 48.278s-2.79 2.64-.26 5.28c2.528 2.64 4.908.558 5.317.186.41-.372 14.578-14.243 14.578-14.243s1.264-1.301 1.264-.074v11.119s-.483 4.277 3.682 4.277 3.719-3.385 3.756-4.165c.037-.781-.037-21.532-.037-21.532s.148-2.864-2.083-3.645c-2.231-.78-3.83.372-4.462 1.005"/><path fill="#FFF" d="M69.477 47.366a2.585 2.585 0 11-5.17 0 2.585 2.585 0 015.17 0m21.755-22.145h-7.4s-3.869-.446-3.869 3.607c0 4.054 2.826 3.794 3.495 3.794h3.013s.892-.038.892 1.004V51.55s-.186 3.273 3.682 3.235c3.867-.037 3.718-3.123 3.718-3.123l.038-17.962s-.186-1.116 1.115-1.116h2.678s3.57-.037 3.57-3.681c0-3.645-3.72-3.682-3.72-3.682h-7.211m12.717 3.682v22.275s-.298 3.645 3.942 3.645c3.867 0 3.532-3.496 3.532-3.496l.038-22.685s.037-3.42-3.756-3.42c-3.83 0-3.756 3.68-3.756 3.68"/><path fill="#EB222C" d="M110.197 28.921a2.473 2.473 0 11-4.945 0 2.473 2.473 0 014.945 0"/></g></svg>