<svg xmlns="http://www.w3.org/2000/svg" width="160" height="80"><g fill="none" transform="translate(0 29)"><path fill="#000" d="M158.213 6.06a1.286 1.286 0 01-1.286-1.28c0-.707.58-1.287 1.286-1.287.707 0 1.287.58 1.287 1.287s-.58 1.28-1.287 1.28m0-2.88c-.88 0-1.6.72-1.6 1.6 0 .88.72 1.6 1.6 1.6.88 0 1.6-.72 1.6-1.6 0-.88-.72-1.6-1.6-1.6"/><path fill="#000" d="M158.32 4.713l-.34.007-.007-.413h.34c.127-.007.227.073.227.2.007.126-.093.206-.22.206m.553-.213c-.006-.28-.2-.48-.513-.48l-.713.013.02 1.507h.326l-.006-.54h.233l.307.533.366-.006-.346-.574c.16-.04.326-.186.326-.453M34.556 15.454h-4V6.23h3.89c1.05 0 1.705.677 1.705 1.595 0 .918-.655 1.574-1.704 1.574H30v2.666h4.556c1.224 0 1.88.787 1.88 1.704 0 1.05-.7 1.684-1.88 1.684m2.25-4.83c1.378-.284 2.515-1.508 2.515-3.344 0-1.945-1.42-3.715-4.197-3.715h-7.67v14.577h7.91c2.776 0 4.24-1.749 4.24-3.934 0-1.836-1.245-3.344-2.797-3.584m11.881-.393h-3.355v2.732h2.372l2.863 5.18h3.562l-3.278-5.552c1.574-.371 3.19-1.748 3.19-4.326m0 0c0-2.71-1.857-4.7-4.895-4.7h-6.819v14.578h3.104V6.297h3.256c1.246 0 2.186.743 2.186 1.967 0 1.224-.94 1.966-2.186 1.966m28.947 2.71l2.273-6.272 2.273 6.272h-4.546zm.328-9.375l-5.638 14.577h3.54l.918-2.47h6.25l.896 2.47h3.541L81.853 3.565h-3.89zM95.9 15.41h-2.645V6.296h2.644c2.994 0 4.568 1.99 4.568 4.568 0 2.47-1.683 4.546-4.568 4.546m0-11.845h-5.748v14.577H95.9c4.568 0 7.736-2.885 7.736-7.278 0-4.392-3.168-7.299-7.736-7.299m54.75-.003l-3.822 6.18-3.823-6.18h-3.43v14.58h3.104v-9.53l3.341 5.082a.968.968 0 001.616 0l3.342-5.081v9.528h3.104V3.562h-3.431zM63.884 15.563a4.672 4.672 0 110-9.346 4.672 4.672 0 010 9.346m0-12.358a7.686 7.686 0 100 15.372 7.686 7.686 0 000-15.372m53.718 9.946a4.672 4.672 0 11-4.088-6.932c1.746 0 3.265.958 4.067 2.376l2.18-2.18a7.684 7.684 0 00-13.931 4.476 7.685 7.685 0 0013.954 4.442l-2.182-2.182zm12.094 2.412a4.673 4.673 0 11.001-9.345 4.673 4.673 0 01-.001 9.345m0-12.358a7.686 7.686 0 100 15.372 7.686 7.686 0 000-15.372"/><circle cx="11.013" cy="10.998" r="10.824" fill="#CC092F"/><path fill="#FFF" d="M20.55 13.922c-1.238-.493-2.371-.328-3.507.36 0 0-.414.253-.538.331-.53.332-1.029.647-1.509.647-.458 0-.908-.123-1.1-1.009-.296-1.382-1.022-4.778-1.338-6.46-.186-.988-.288-1.52-.394-1.883-.187-.636-.528-.982-1.013-1.037 0 0-.076-.01-.138-.01-.061 0-.145.011-.145.011-.48.057-.82.403-1.005 1.036-.106.362-.208.895-.394 1.883-.317 1.682-1.042 5.078-1.34 6.46-.19.886-.64 1.01-1.099 1.01-.48 0-.98-.316-1.508-.648-.124-.078-.54-.33-.54-.33-1.134-.689-2.268-.854-3.506-.36-.267.106-.53.225-.781.346.171.537.385 1.066.633 1.563.274-.135.562-.269.855-.355a2.083 2.083 0 011.276.01c.408.136.771.378 1.133.605.682.429 1.455.915 2.438.915 1.458 0 2.48-.87 2.807-2.388.253-1.176.815-3.8 1.175-5.612 0 0 .924 4.436 1.177 5.612.327 1.518 1.35 2.388 2.807 2.388.984 0 1.756-.486 2.438-.915.362-.227.726-.47 1.134-.606.419-.14.853-.134 1.276-.01.293.087.58.221.854.356.25-.497.462-1.026.633-1.563-.25-.12-.513-.24-.78-.347"/></g></svg>