<svg xmlns="http://www.w3.org/2000/svg" xmlns:xlink="http://www.w3.org/1999/xlink" width="160" height="80"><defs><path id="a" d="M0 .658h138.091v31.065H0z"/></defs><g fill="none" fill-rule="evenodd"><g transform="translate(9 23.597)"><mask id="b" fill="#fff"><use xlink:href="#a"/></mask><path fill="#0073BB" d="M105.927 16.13c.984-3.048 3.521-4.931 6.466-4.931 3.784 0 6.051 3.035 6.483 4.931h-12.949zm-57.959 9.777c-3.939 0-6.972-3.082-6.972-6.975s3.014-6.973 6.972-6.973c3.96 0 6.974 3.062 6.974 6.973s-3.034 6.975-6.974 6.975zm-35.375 0c-3.94 0-6.974-3.082-6.974-6.975s3.015-6.973 6.974-6.973c3.958 0 6.974 3.062 6.974 6.973s-3.034 6.975-6.974 6.975zM137.428 6.314c-7.933 0-12.153 4.45-12.317 10.216-1.139-6.273-6.553-10.37-12.718-10.37-6.134 0-11.366 4.08-12.508 10.28-.02-5.512-4.327-10.27-9.926-10.27-2.439 0-4.555.938-6.246 2.573V.7h-5.966v17.91c0 .588-.021.967-.105 1.839-.363 3.721-2.867 5.557-5.592 5.557-2.834 0-5.392-1.34-5.468-5.537-.014-.724-.034-1.025-.034-1.54v-6.705h9.288v-5.63h-9.288V.7h-6.05v15.77c-1.148-5.87-6.32-10.301-12.53-10.301-4 0-7.57 1.84-9.91 4.718V6.314h-.663c-7.794 0-12.005 4.294-12.305 9.913-1.145-5.693-5.853-9.913-11.803-9.913-3.113 0-5.547 1.132-7.448 3.034V.658h-5.84v15.103c0 1.115.034 2.165.047 3.171.084 6.988 4.973 12.72 12.547 12.72 6.535 0 11.294-4.253 12.478-9.921v9.324h5.984V19.416c0-.531.03-1.12.047-1.664.111-3.546 2.434-5.66 6.127-5.721a12.699 12.699 0 00-2.03 6.901c0 7.05 5.717 12.762 12.77 12.762 6.209 0 11.381-4.428 12.53-10.299v.016c0 6.131 4.923 10.313 10.855 10.313 2.5 0 4.708-1.071 6.393-2.824v2.152h5.966V18.384c.003-.3.014-.543.022-.777.15-4.064 2.533-5.832 5.15-5.832 2.594 0 4.838 1.775 4.928 5.813.02.35.024.584.024.98v12.485l6.049.003V21.58c1.137 6.118 6.323 10.068 12.51 10.068 7.017 0 10.98-4.49 12.043-9.188h-5.85c-.513 1.67-2.59 4.234-6.196 4.234-3.253 0-6.027-2.222-6.729-5.85h19.44v10.21h5.984V19.416c0-.531.031-1.12.05-1.664.111-3.6 2.5-5.728 6.29-5.728h.663v-5.71h-.663z" mask="url(#b)"/></g><path fill="#0073BB" d="M144.707 52.063a2.609 2.609 0 012.605-2.607 2.61 2.61 0 012.607 2.607 2.61 2.61 0 01-2.607 2.606 2.609 2.609 0 01-2.605-2.606m-.391 0c0 1.653 1.343 2.97 2.996 2.97s2.998-1.317 2.998-2.97c0-1.653-1.345-2.974-2.998-2.974a2.979 2.979 0 00-2.996 2.974"/><path fill="#0073BB" d="M146.42 52.352h1.19c.373 0 .53.232.567.639.012.119.031.268.043.414.015.199.051.35.07.444h.53v-.07c-.055-.07-.103-.198-.131-.458-.013-.123-.031-.26-.046-.412-.039-.399-.17-.649-.435-.783.328-.109.56-.428.56-.9 0-.6-.388-.962-1.119-.962h-1.703v3.585h.474v-1.497zm0-1.682h1.213c.477 0 .648.222.648.626s-.169.66-.647.66h-1.214V50.67z"/></g></svg>