<svg xmlns="http://www.w3.org/2000/svg" width="160" height="80"><g fill="#BF1920"><path d="M32.112 51.78c-6.582 0-11.915-5.408-11.915-12.079 0-6.67 5.333-12.073 11.915-12.073 2.32 0 4.485.67 6.314 1.833L32.112 39.7 44 32.745c-1.292-2.085-3.144-3.882-5.384-5.245-2.85-1.73-6.816-2.8-11.2-2.8-6.256 0-11.742 2.303-14.802 5.752C10.35 33.002 9 36.211 9 39.702c0 3.493 1.349 6.704 3.614 9.255C15.682 52.41 21.087 54.7 27.24 54.7c6.15 0 11.554-2.291 14.624-5.743.168-.19.33-.382.484-.58l-.463-1.762c-2.157 3.12-5.73 5.164-9.772 5.164M72 54.143l-4.951-19.09c-.795-3.087-3.513-5.353-6.749-5.353-.84 0-1.643.155-2.39.436l-10.658 4.006h10.962l1.874 7.23c-1.818-1.616-4.184-2.6-6.776-2.6-5.146 0-9.312 3.565-9.312 7.962s4.166 7.966 9.312 7.966c3.705 0 6.981-1.875 9.002-4.754l1.087 4.197H72m-15.103-2.965c-2.373 0-4.298-1.987-4.298-4.444 0-2.454 1.925-4.443 4.298-4.443 2.374 0 4.3 1.99 4.3 4.443 0 2.457-1.926 4.444-4.3 4.444zM92.602 29.7a4.38 4.38 0 00-1.854.407l-7 3.237a4.393 4.393 0 00-4.343-3.644c-.66 0-1.291.146-1.859.407L69 34.058h6.01V53.7h8.796V36.244c0-1.205.983-2.185 2.2-2.185 1.211 0 2.2.98 2.2 2.185V53.7H97V34.058c0-2.408-1.97-4.358-4.398-4.358M125 42.2c0 6.904-5.595 12.5-12.495 12.5-6.907 0-12.505-5.596-12.505-12.5 0-6.902 5.598-12.5 12.505-12.5 6.9 0 12.495 5.598 12.495 12.5m-11.978-8.706a2.754 2.754 0 00-3.375-1.949 2.76 2.76 0 00-1.952 3.377l4.287 15.985a2.762 2.762 0 003.375 1.955 2.764 2.764 0 001.95-3.38l-4.285-15.988z"/><path d="M146.604 29.7c-.667 0-1.299.146-1.868.407l-6.993 3.237c-.345-2.068-2.155-3.644-4.34-3.644-.66 0-1.29.146-1.86.407L123 34.058h6.007V53.7h8.795V36.244c0-1.205.984-2.185 2.202-2.185a2.19 2.19 0 012.196 2.185V53.7h8.8V34.058c0-2.408-1.972-4.358-4.396-4.358"/></g></svg>