<svg xmlns="http://www.w3.org/2000/svg" xmlns:xlink="http://www.w3.org/1999/xlink" width="160" height="80"><defs><path id="a" d="M.457.27h16.809v16.091H.457z"/></defs><g fill="none" fill-rule="evenodd"><path fill="#EC1D24" d="M69.262 8c7.161.022 12.778.044 19.938.067 3.49-.246 7.317 2.492 7.451 7.675.023 2.94.045 4.197.068 7.137 0 4.982-7.116 4.713-7.25.404l-.135-7.406c-6.712.113-13.425.09-20.139.202l.067 14.677 21.08.202c2.696.028 4.464 1.138 5.236 2.694l4.161 5.924c2.215 3.075-3.334 7.473-6.377 3.703l-3.624-4.578H70.27c-5.812.033-8.508-3.02-8.325-8.281-.021-4.915-.044-9.561-.067-14.476-.1-3.979 2.887-7.911 7.384-7.944M39.805 58.963c2.447-.006 2.526-3.358-.013-3.364l-10.07.068c-1.827.25-3.182 1.12-3.222 3.703v6.463c0 2.088 1.058 3.383 3.021 3.434l10.003.134c2.918.042 2.763-3.717 0-3.635H29.52v-6.8l10.284-.003"/><path fill="#EC1D24" d="M45.633 58.872l8.928.033v6.8h-8.962l.034-6.833zm-3.424.033c-.01-2.271.738-3.354 3.323-3.333l8.995-.033c2.405.055 3.233.964 3.19 3.333.077 2.266-.046 4.533.033 6.8-.001 2.31-.602 3.554-1.914 3.601H45.7c-3.013-.065-3.46-.816-3.463-3.563.024-2.27-.052-4.538-.028-6.805zm17.853 8.181c-.011 2.782 3.672 2.804 3.696-.001v-8.079h4.33v8.045c.08 2.768 3.43 2.792 3.426.054-.079-2.67.042-5.563-.036-8.233h4.867v8.204c.079 2.727 3.547 2.46 3.558.002v-8.206c.044-1.942-.952-3.344-2.988-3.3h-4.33c-.665.017-1.226.553-1.61 1.01-.385.458-1.578.471-2.014 0-.437-.471-1.013-.986-1.713-.975-1.622.078-2.741-.08-4.363 0-1.91-.057-3.038 1.503-2.92 3.265l.097 8.214m25.077-8.214l8.828-.034v3.232H85.14v-3.198zm-3.315 8.306c-.007 2.5 3.312 2.475 3.324.031v-1.55c3.266-.055 6.164.103 9.432.047 1.791-.03 2.212-1.404 2.208-3.616l-.002-3.193c.05-1.84-.764-3.321-2.878-3.3h-8.76c-2.024-.014-3.334 1.059-3.324 3.3.078 2.727-.078 5.555 0 8.281zm20.668-5.075v-1.549c-.033-1.008.301-1.642 1.598-1.715h5.753c.837-.013 1.454.654 1.443 1.682v1.582h-8.794zm-3.494 4.978l.037-8.142c.025-1.489 1.102-3.42 3.395-3.395h8.856c2.233-.047 3.397 1.218 3.443 3.442v8.066c.018 2.271-3.525 2.3-3.51 0v-1.347h-8.693c0 .471-.02.92-.02 1.392-.011 2.4-3.514 2.354-3.508-.016z"/><g transform="translate(116.485 55.263)"><mask id="b" fill="#fff"><use xlink:href="#a"/></mask><path fill="#EC1D24" d="M3.693.27l8.734.03c1.529-.11 3.205 1.09 3.263 3.36.01 1.288.02 1.838.03 3.127 0 2.181-3.118 2.064-3.176.176l-.06-3.244c-2.94.049-5.88.04-8.821.088l.029 6.43 9.234.088c1.181.012 1.955.5 2.294 1.18l1.823 2.595c.97 1.348-1.46 3.275-2.794 1.623l-1.588-2.006H4.134C1.59 13.733.407 12.395.488 10.09l-.03-6.342C.415 2.006 1.723.284 3.693.27" mask="url(#b)"/></g></g></svg>