<svg xmlns="http://www.w3.org/2000/svg" width="160" height="80"><path fill="#007DB8" d="M44.42 40c0-4.367-2.854-6.847-6.895-6.847h-2.473v13.699h2.403c3.757 0 6.965-2.073 6.965-6.852m43.992 4.928l-18.22 14.563-16.65-13.307c-2.404 5.859-8.21 9.928-14.896 9.928H24.395V23.888h14.25c7.472 0 12.856 4.823 14.892 9.96l16.656-13.292 6.169 4.928-15.265 12.178 2.933 2.331 15.26-12.171 6.18 4.914-15.264 12.192 2.93 2.336 15.276-12.195V23.888h11.074v22.818h11.048v9.445H88.412V44.928zm36.15 1.783h11.043v9.44h-22.129V23.888h11.086v22.823z"/></svg>