<svg xmlns="http://www.w3.org/2000/svg" width="160" height="80"><path d="M152.595 30.643h-1.158v-.468h2.846v.468h-1.155v3.244h-.533zm2.226-.468h.881l1.171 3.08 1.147-3.08h.878v3.712h-.533v-3.211h-.009l-1.231 3.211h-.529l-1.228-3.211h-.011v3.211h-.536zm-129.219-.064h5.302v19.817h-5.302zm36.638.016h6.504l7.674 19.914h-5.82l-1.483-4.249h-7.474l-1.573 4.249h-5.391l7.563-19.914m3.25 4.108h-.055l-2.57 7.79h4.994l-2.368-7.79M79 30.125h9.16c3.708 0 6.477 1.625 6.477 5.048 0 2.515-1.283 3.914-3.508 4.653v.056c2.65.546 4.022 1.97 4.022 4.399 0 4.764-4.195 5.76-7.76 5.76h-8.39V30.125m5.304 16.154h1.573c1.939 0 3.964-.288 3.964-2.312 0-2.172-2.083-2.368-3.906-2.368h-1.631v4.68m0-8.277h1.485c1.741 0 3.536-.428 3.536-2.113 0-1.827-1.708-1.994-3.477-1.994h-1.544v4.107m18.03 4.537l-7.359-12.414h6.104l3.91 7.99 3.851-7.99h6.109l-7.308 12.414v7.502h-5.307v-7.502m19.704-8.477h-4.905v-3.937h15.121v3.937h-4.905v15.979h-5.311V34.062m12.742-3.937h14.038v3.77h-8.733v4.107h8.246v3.766h-8.246v4.511h9.045v3.762h-14.35V30.125m-121.23 4.36c-3.53.294-5.458 2.611-5.458 5.61 0 2.916 2.702 5.368 5.311 5.368l.574-.006h.965s.64 0 .644-.624v-6.259h5.449c0 3.533-.013 11.467-.013 11.467s-5.379-.005-8.501-.005c-5.872 0-10.062-4.85-10.062-9.94 0-5.506 4.557-10.104 10.232-9.9l8.151.026-.004 4.263h-7.288m31.534 0c-3.532.294-5.456 2.611-5.456 5.61 0 2.916 2.698 5.368 5.31 5.368l.57-.006h.968s.635 0 .64-.624v-6.259h5.44c0 3.533-.01 11.467-.01 11.467s-5.373-.005-8.494-.005c-5.87 0-10.054-4.85-10.054-9.94 0-5.506 4.552-10.104 10.23-9.9l8.137.026-.002 4.263h-7.28"/></svg>