<svg xmlns="http://www.w3.org/2000/svg" xmlns:xlink="http://www.w3.org/1999/xlink" width="160" height="80"><defs><path id="a" d="M0 0h63.948v63.95H0z"/></defs><g fill="none" fill-rule="evenodd" transform="translate(49 8)"><mask id="b" fill="#fff"><use xlink:href="#a"/></mask><path fill="#00A1DC" d="M31.97 63.95c-.314 0-.631-.006-.947-.016l6.535-17.959h8.99c1.581 0 3.315-1.212 3.853-2.696l7.088-19.472c1.163-3.19-.661-5.796-4.058-5.796H40.955L30.488 46.775h-.003L24.55 63.08C10.473 59.735 0 47.076 0 31.975 0 17.309 9.877 4.946 23.343 1.18L17.22 18.01h-.003L7.036 45.975h6.778l8.657-23.761h5.093l-8.658 23.761 6.773.003 8.068-22.171c1.16-3.19-.665-5.796-4.055-5.796h-5.696L30.536.036C31.012.012 31.49 0 31.97 0c17.664 0 31.978 14.315 31.978 31.975 0 17.656-14.314 31.975-31.978 31.975zm19.35-41.755h-5.09L39.1 41.761h5.09l7.129-19.566z" mask="url(#b)"/></g></svg>