<svg xmlns="http://www.w3.org/2000/svg" xmlns:xlink="http://www.w3.org/1999/xlink" width="160" height="80"><defs><path id="a" d="M0 .268h80.112v45.364H0z"/><path id="c" d="M.043.09h75.526v42.549H.043z"/><path id="e" d="M0 63.91h96.52V.287H0z"/></defs><g fill="none" fill-rule="evenodd" transform="translate(31.5 7.5)"><g transform="translate(0 18.277)"><mask id="b" fill="#fff"><use xlink:href="#a"/></mask><path fill="#0079BC" d="M0 19.33v2.575c0 4.54 1.801 8.577 3.635 11.325 2.076 3.11 4.842 4.951 8.012 6.95 2.5 1.576 7.55 3.324 10.961 3.998 4.205.83 8.45 1.455 13.506 1.455h2.494c15.543 0 31.335-4.514 41.504-9.894v-7.32c-2.752 1.456-6.139 3.378-9.315 4.36-.675.208-1.74.67-2.447.931-.87.322-1.725.532-2.587.871-1.289.507-3.889 1.204-5.325 1.512-1.851.397-3.61.9-5.55 1.288-1.999.4-3.78.615-5.856.98-1.92.337-4.193.454-6.242.595-2.14.147-4.36.242-6.676.242h-.482c-8.243 0-16.106-1.297-21.61-4.05C8.73 32.502 3.78 27.595 3.78 19.734v-.724c0-3.698 1.136-6.54 2.204-9.218.47-1.175 1.353-2.674 2.027-3.683.421-.632.763-1.091 1.205-1.69.396-.537 1.012-1.114 1.32-1.576V.268c-1.282.859-2.63 2.548-3.718 3.682-1.234 1.286-2.15 2.72-3.166 4.233C2.142 10.428 0 15.652 0 19.33" mask="url(#b)"/></g><g transform="translate(20.95 .197)"><mask id="d" fill="#fff"><use xlink:href="#c"/></mask><path fill="#0079BC" d="M75.57 23.496v-2.332c-.028-.043-.375-2.61-.435-2.944a14.794 14.794 0 00-.747-2.631c-.727-1.787-1.33-2.995-2.416-4.421-2.01-2.638-4.402-4.544-7.395-6.199C59.085 1.931 50.723.09 42.19.09h-.723c-8.806 0-16.088 1.465-22.972 3.411-1.818.514-3.296 1.045-4.99 1.606-1.401.464-3.453 1.242-4.722 1.872-1.504.748-3.004 1.39-4.477 2.12-.78.386-3.774 2.219-4.262 2.332v1.93c.663-.154 3.108-1.504 4.047-1.904 1.304-.554 2.94-1.377 4.253-1.78a26.298 26.298 0 002.17-.806c.717-.305 1.466-.492 2.228-.748 1.452-.487 3.075-1.035 4.611-1.42 3.31-.83 6.224-1.504 9.844-2.142 3.083-.543 7.421-1.093 10.891-1.093h3.62c7.047 0 14.676 1.619 19.196 4.13 2.742 1.524 4.585 2.806 6.477 5.186 1.425 1.794 3.202 5.371 3.202 8.54v1.368c0 3.34-1.735 6.933-3.184 8.881-.878 1.181-1.748 2.233-2.827 3.205-.524.473-2.972 2.416-3.56 2.553v5.308c1.134-.094 4.545-2.29 5.422-2.942a22.657 22.657 0 004.296-4.15c1.402-1.78 2.158-3.086 3.178-5.267.462-.988.729-2.002 1.065-3.118.137-.453.588-3.65.597-3.666" mask="url(#d)"/></g><path fill="#0079BC" d="M58.153 30.69v.564h7.561v-.402c0-1.997-1.436-3.78-3.539-3.78h-.402c-1.852 0-3.62 1.806-3.62 3.619m-4.987 1.93v.965c0 5.53 3.393 9.572 8.928 9.572h1.046c1.676 0 2.872-.406 4.071-.916 1.306-.555 1.97-1.5 2.947-2.162l-3.157-2.955c-.622.93-2.345 1.85-3.941 1.85h-.885c-2.094 0-4.022-1.78-4.022-3.78v-.563h12.548V32.46c0-2.558-.915-5.022-2.033-6.493-1.061-1.396-3.214-2.998-5.608-2.998h-1.53c-2.53 0-4.819 1.588-6.053 2.955-1.261 1.395-2.312 4.052-2.312 6.697M23.487 42.836h4.906V27.312h4.424c.975 0 1.77.755 1.77 1.69v13.834h4.986V29.082c0-3.264-2.22-5.791-5.47-5.791H23.488v19.545zm19.706-5.791c0 3.303 2.147 5.791 5.389 5.791h3.378v-4.183h-2.494c-.738 0-1.286-.854-1.286-1.608v-9.732h3.78V23.29h-3.78V17.9h-4.987v19.144zm30.404 1.045c0 1.335.808 2.546 1.506 3.24.375.371.967.678 1.516.896.769.306 1.166.263 1.964.45v-27.51h-4.986V38.09zM13.976 27.875l.02 9.733c0 3.297 1.932 5.4 5.067 5.47V23.29h-4.969l-.118 4.584z"/><mask id="f" fill="#fff"><use xlink:href="#e"/></mask><path fill="#0079BC" d="M14.076 20.556h4.987v-4.745h-4.987zm69.359-3.519h.42c.2 0 .338-.03.411-.09.073-.06.11-.14.11-.239a.284.284 0 00-.053-.17.311.311 0 00-.146-.112c-.063-.025-.179-.037-.349-.037h-.393v.648zm-.347 1.209v-2.148h.738c.253 0 .435.019.548.059a.554.554 0 01.37.522.57.57 0 01-.168.41.665.665 0 01-.446.197c.076.031.137.07.183.114.086.085.192.226.318.426l.261.42h-.423l-.19-.339c-.15-.266-.271-.433-.363-.5-.063-.05-.156-.073-.278-.073h-.203v.912h-.347zm.876-2.77c-.281 0-.554.072-.82.216a1.545 1.545 0 00-.623.616 1.68 1.68 0 00-.225.835c0 .287.075.563.222.827.147.263.353.47.618.616.264.148.54.222.828.222.287 0 .563-.074.828-.222.265-.147.47-.353.616-.616.147-.264.22-.54.22-.827a1.7 1.7 0 00-.223-.835 1.536 1.536 0 00-.624-.616 1.702 1.702 0 00-.817-.216zm0-.331c.335 0 .662.086.982.257.318.173.568.419.746.74.177.32.267.653.267 1.001 0 .344-.088.675-.264.992a1.857 1.857 0 01-.738.74 2.014 2.014 0 01-1.987-.001 1.856 1.856 0 01-.74-.74 2.01 2.01 0 01-.264-.991c0-.348.09-.682.268-1.002.179-.32.428-.566.748-.739.319-.171.647-.257.982-.257z" mask="url(#f)"/></g></svg>