<svg xmlns="http://www.w3.org/2000/svg" width="160" height="80"><g fill="none" fill-rule="evenodd"><path fill="#ED1D29" d="M18.501 29.679v-.067H7.887v10.615l10.614-10.548"/><path fill="#231F20" d="M29.049 40.227h.066V29.612H18.501v.067l10.548 10.548m.066.001h-.066L18.501 50.842h10.614V40.228"/><path fill="#ED1D29" d="M7.887 40.228v10.614h10.614L7.887 40.228"/><path fill="#FFF" d="M7.887 40.228l10.614 10.614V40.228zm10.614-10.549L7.887 40.227h10.614z"/><path fill="#231F20" d="M18.501 50.842l10.548-10.614H18.501zm0-10.615h10.548L18.501 29.679z"/><path fill="#ED1D29" d="M18.501 29.68l8.16-8.159h10.415v10.415l-8.359 8.358 8.226 8.16v10.349H26.395l-7.894-7.895V29.68"/><path fill="#FFF" d="M18.435 29.679v-.067h10.614v10.615L18.435 29.679m10.614 10.549v10.614H18.435l10.614-10.614"/><path fill="#ED1D29" d="M29.049 40.228L18.435 50.842V40.228zM18.435 29.679l10.614 10.548H18.435z"/><path fill="#231F20" d="M47.292 50.51V29.945H43.71V50.51h3.582m11.344 0l-7.165-10.349 7.165-10.216h-3.583l-7.23 10.216 7.23 10.349h3.583m29.918-20.565H77.94c-1.194 0-2.056.862-2.056 1.99v16.519c0 1.127.862 2.056 2.056 2.056h10.614a2.067 2.067 0 002.057-2.056V31.936c0-1.129-.929-1.991-2.057-1.991zm-1.326 16.452c0 .597-.465 1.062-.996 1.062h-5.704a1.048 1.048 0 01-1.062-1.062V33.992c0-.53.464-.995 1.062-.995h5.704c.531 0 .996.464.996.995v12.405m34.894-15.457v19.57h3.118V32.997h6.7c.597 0 1.061.464 1.061 1.061v3.384c0 .597-.464 1.061-1.061 1.061h-5.108l.132.066 6.833 11.941h3.78l-5.173-8.956h1.857a2.066 2.066 0 002.056-2.056v-7.496c0-1.195-.928-2.057-2.056-2.057h-12.14v.996m-18.574 16.518h-5.705a1.049 1.049 0 01-1.062-1.062V33.992c0-.53.465-.995 1.062-.995h8.093v-3.052H95.188c-1.128 0-2.056.862-2.056 1.99v16.519c0 1.127.928 2.056 2.056 2.056h10.747v-3.05h-2.388m8.623-14.463h8.093v-3.052h-10.68c-1.194 0-2.056.862-2.056 1.99v16.519c0 1.127.862 2.056 2.057 2.056h10.68v-3.05h-8.093a1.049 1.049 0 01-1.062-1.062v-4.643h8.425v-3.251h-8.425v-4.511c0-.53.465-.995 1.062-.995m-42.059-3.053v8.757h-5.307a1.02 1.02 0 01-.995-.995v-7.762h-3.648v9.818c0 1.128.928 2.056 2.056 2.056h7.894v4.578c0 .597-.464 1.062-.995 1.062H60.76v3.051h10.614c1.194 0 2.056-.929 2.056-2.056V29.945h-3.317m78.676 20.565h-7.894c-1.601 0-2.086-1.239-2.081-2.579l.025-7.305c0-1.128.928-2.057 2.056-2.057h7.894v-4.643c0-.597-.397-1.062-.994-1.062h-8.293v-3.052h10.614c1.128 0 2.056.93 2.056 2.056V50.51h-3.383zm-6.302-3.914c.066.465.53.863.996.863h4.312c.597 0 .994-.465.994-1.062V41.62h-5.306c-.531 0-.996.465-.996 1.062v3.914"/></g></svg>