<svg xmlns="http://www.w3.org/2000/svg" width="160" height="80"><g fill="none"><path fill="#E32124" d="M5.175 64.937h149.603V15.069H5.175v49.868"/><path fill="#FFF" d="M70.35 31.876c-2.21 0-4.723 1.024-6.258 3.075l.001-.004-.001.002.001-2.752h-5.271v19.194h5.27v-10.92c0-1.967 1.523-4.056 4.345-4.056 2.18 0 4.437 1.517 4.437 4.055v10.92h5.27V39.493c0-4.414-3.157-7.617-7.794-7.617m45.252.323l-4.765 13.074-4.764-13.074h-6.02l7.897 19.186h5.775l7.897-19.186h-6.02m-72.514 5.782c.898-1.205 2.328-1.912 4.054-1.912 1.9 0 3.34 1.084 4.085 2.685l-9.207 3.82c-.252-1.96.25-3.494 1.068-4.593zm10.126 7.509c-2.219 1.641-3.486 2.034-5.509 2.034-1.82 0-3.245-.566-4.25-1.557l13.473-5.59c-.293-2.083-1.084-3.943-2.3-5.358-1.77-2.056-4.391-3.144-7.58-3.144-5.796 0-10.166 4.276-10.166 9.922 0 5.792 4.38 9.92 10.745 9.92 3.567 0 7.213-1.69 8.919-3.665l-3.332-2.562M36.38 46.552H24.401V26.459h-5.342v24.932H36.38v-4.839m94.705-10.161c-2.943 0-5.08 2.23-5.08 5.404 0 3.03 2.264 5.403 5.151 5.403 2.944 0 5.08-2.292 5.08-5.403 0-3.03-2.262-5.404-5.15-5.404m0 15.323c-5.765 0-10.28-4.294-10.28-9.919 0-5.562 4.547-9.92 10.35-9.92 5.764 0 10.279 4.294 10.279 9.92 0 5.561-4.546 9.92-10.35 9.92M90.509 36.391c-2.944 0-5.08 2.23-5.08 5.404 0 3.03 2.263 5.403 5.151 5.403 2.943 0 5.08-2.292 5.08-5.403 0-3.03-2.263-5.404-5.151-5.404m0 15.323c-5.764 0-10.28-4.294-10.28-9.919 0-5.562 4.547-9.92 10.351-9.92 5.763 0 10.279 4.294 10.279 9.92 0 5.561-4.547 9.92-10.35 9.92m53.62-3.088h.564l.835 1.31.834-1.31h.548v2.764h-.511v-1.965l-.853 1.328h-.054l-.852-1.328v1.965h-.511v-2.763zm-1.974.485h-.852v-.484h2.234v.484h-.853v2.279h-.53v-2.279"/></g></svg>