<svg xmlns="http://www.w3.org/2000/svg" xmlns:xlink="http://www.w3.org/1999/xlink" width="160" height="80"><defs><path id="a" d="M0 .129h16.615v24.896H0z"/><path id="c" d="M.248.266h15.234v19.878H.248z"/></defs><g fill="none" fill-rule="evenodd"><path fill="#EE3E33" d="M90.196 47.71l5.005 10.771 5.018-10.68-5.018-10.682z"/><g transform="translate(8 22.685)"><mask id="b" fill="#fff"><use xlink:href="#a"/></mask><path fill="#231F20" d="M7.146 23.542V3.379c0-1.199.748-2.411 2.232-2.322V.13H0v.928c1.664-.09 2.22 1.393 2.22 2.696v18.02c0 1.2-.825 2.413-2.219 2.323v.928h15.415l1.2-6.695h-.826c-1.032 4-4.746 6.14-8.643 5.212" mask="url(#b)"/><path fill="#231F20" d="M34.171 19.723c-1.948 3.715-6.592 4.18-10.307 3.909v-7.984c2.606 0 5.018.928 5.483 3.895h.928v-8.449h-.928c-.465 2.967-3.16 3.25-5.483 3.25V6.54h4.645c2.411 0 4.27 2.142 4.823 4.36h.93V5.237l-17.544-.09v.929c1.664-.09 2.129 1.677 2.129 2.786l.09 12.719c0 .838-.272 1.497-.735 2.141-.465.284-1.02.374-1.484.374v.93H34.08l1.213-5.303H34.17z"/><g transform="translate(127.729 4.881)"><mask id="d" fill="#fff"><use xlink:href="#c"/></mask><path fill="#231F20" d="M12.786 17.912L4.518 8.251 8.8 4.265c1.11-.93 2.218-1.961 3.43-2.696.466-.284 1.02-.375 1.575-.375V.266l-7.521.09v1.019h1.213c.27 0 .373 0 .555.194.283.735-.555 1.303-.93 1.664L.249 9.837l6.876 8.36c.09.09.18.18.284.27v.283l-.284.27c-.555.195-1.212.195-1.768.195v.929h10.126v-.929c-1.212 0-2.037-.465-2.696-1.303" mask="url(#d)"/></g><path fill="#231F20" d="M58.048 21.31v.374c-.103.36 0 .735-.103 1.02-.09.463-.465.928-.826 1.199-1.496.568-3.07 0-3.818-1.11l-6.127-8.912 4.734-6.038c1.032-1.212 2.322-1.768 3.909-1.768 1.483 0 2.231.645 2.231 2.142V21.31zm10.487-3.805L63.427 5.237H48.012v.838c.749 0 1.393.09 2.038.285 0 .825-.734 1.574-1.29 2.219l-2.786 3.443-2.786-4.372c-.103-.09-.374-.555-.374-.93 0-.734 1.663-.645 2.129-.645v-.838h-9.934v.929h.93c.748 0 1.109.658 1.482 1.213l5.574 8.358-5.754 7.34c-.374.555-1.393 1.02-2.232 1.02v.928h7.056l-.09-.929c-.554 0-1.019 0-1.573-.09l-.284-.193-.181-.375c.18-.645.555-1.199.929-1.663l3.521-4.27 2.98 4.643c.09.091.465.736.555.93 0 0 .09.18.09.27l-.09.284-.194.27c-.645.194-1.29.194-1.947.194v.929h16.447v-.929c-.375 0-.749-.09-1.122-.193l-.271-.271c-.465-.554-.658-1.303-.568-2.051V8.682l6.876 16.343h.838l6.682-16.808v13.738c0 1.212-.93 2.232-2.128 2.141v.929h8.54v-.929c-1.304.09-2.13-1.018-2.13-2.231V8.488c0-1.393.646-2.413 2.13-2.413v-.838h-7.702l-4.838 12.268zm61.673-11.429v-.929h-9.288l-.089.929c1.393-.09 2.321 1.11 2.321 2.322V21.49c0 .748-.283 1.393-.657 2.051-.93 1.02-2.038.36-2.683-.465l-5.573-7.804c1.574-.283 3.147-.928 4.27-2.232.555-.747.928-1.573.928-2.411 0-4-4.643-5.393-7.985-5.393h-9.855v.929c1.123 0 2.142.465 2.142 1.768V22.51c0 .929-.645 1.586-1.574 1.586s-1.767-.748-2.051-1.586L92.038 3.934l-2.695 5.677 6.036 13.182c.645 1.394-1.212 1.303-2.037 1.303v.93h17.543v-.93c-1.393 0-2.22-.748-2.22-2.232V6.45c3.148 0 5.663.555 5.663 4.36 0 2.98-2.515 4.554-5.482 4.089l6.876 10.126h14.486v-.929c-.555 0-1.108-.194-1.677-.554-.18-.465-.554-1.032-.554-1.586V8.024c0-1.11 1.123-2.039 2.231-1.948"/></g></g></svg>