<svg xmlns="http://www.w3.org/2000/svg" xmlns:xlink="http://www.w3.org/1999/xlink" width="160" height="80"><defs><path id="a" d="M0 .054h63.147V63.2H0z"/><path id="c" d="M.573.69h29.613v32.856H.573z"/></defs><g fill="none" fill-rule="evenodd"><g transform="translate(13 8.247)"><mask id="b" fill="#fff"><use xlink:href="#a"/></mask><path fill="#C30452" d="M31.573 63.2c17.438 0 31.574-14.136 31.574-31.573C63.147 14.189 49.01.053 31.573.053S0 14.189 0 31.627C0 49.064 14.136 63.2 31.573 63.2" mask="url(#b)"/></g><path fill="#FEFEFE" d="M52.262 50.983h-6.539v-24.71h-2.424v27.151h2.424v-.018h6.539z"/><path fill="#FEFEFE" d="M68.581 40.883H52.3V38.46h18.667c.025.47.037.938.037 1.413 0 14.597-11.833 26.43-26.43 26.43-14.598 0-26.431-11.833-26.431-26.43s11.833-26.43 26.43-26.43c.386 0 .769.008 1.15.025l-.003 2.406c-.38-.018-.762-.026-1.147-.026-13.269 0-24.025 10.756-24.025 24.025 0 13.269 10.756 24.027 24.025 24.027 12.908 0 23.438-10.178 24.003-22.945l.005-.072z"/><path fill="#FEFEFE" d="M34.714 33.588a3.714 3.714 0 100-7.428 3.714 3.714 0 000 7.428"/><path fill="#808184" d="M91.825 55.371h22.56v-6.814h-14.276V24.158h-8.284z"/><g transform="translate(115.4 22.647)"><mask id="d" fill="#fff"><use xlink:href="#c"/></mask><path fill="#808184" d="M26.245 3.71C23.657 1.706 20.328.69 16.353.69c-4.72 0-8.662 1.449-11.403 4.188C2.088 7.742.573 11.958.573 17.076c0 5.465 1.602 10.076 4.51 12.984 2.28 2.28 5.325 3.486 8.805 3.486 7.64 0 9.398-4.58 9.398-4.58v3.758h6.9V15.096H16.451v5.515h6.322s.061 6.945-6.464 6.945c-1.657 0-3.134-.601-4.271-1.739-1.77-1.769-2.705-4.747-2.705-8.612 0-6.4 2.544-10.22 6.803-10.22 2.66 0 4.66 1.633 5.173 4.109h8.787c-.456-3.598-1.442-5.473-3.85-7.384" mask="url(#d)"/></g></g></svg>