<svg xmlns="http://www.w3.org/2000/svg" xmlns:xlink="http://www.w3.org/1999/xlink" width="160" height="80"><defs><path id="a" d="M0 0h143.881v42.922H0z"/></defs><g fill="none" fill-rule="evenodd" transform="translate(8.5 18.5)"><mask id="b" fill="#fff"><use xlink:href="#a"/></mask><path fill="#231F20" d="M71.92 2.982h-5.228v6.451h-2.818v4.656h2.818v16.296h5.228V14.089h2.86V9.433h-2.86V2.982zM58.974 0c-1.92 0-3.431 1.511-3.431 3.472a3.4 3.4 0 003.431 3.43c2 0 3.513-1.512 3.513-3.43 0-1.96-1.512-3.472-3.513-3.472zm83.11 8.945a1.57 1.57 0 01-1.593-1.594c0-.858.695-1.552 1.592-1.552.86 0 1.552.694 1.552 1.552 0 .9-.692 1.594-1.552 1.594zm0-3.39c-1.02 0-1.837.816-1.837 1.796a1.83 1.83 0 001.836 1.838c.981 0 1.798-.817 1.798-1.838 0-.98-.817-1.796-1.798-1.796zm-61.221 12.17c.695-2.777 2.819-4.33 5.555-4.33 2.737 0 4.778 1.511 5.432 4.33H80.863zM86.54 8.78c-6.288 0-11.067 4.82-11.067 11.232 0 6.33 4.37 10.985 11.149 10.985 3.757 0 7.107-1.387 9.557-4.002l-3.512-3.47c-1.716 1.634-3.554 2.817-5.923 2.817-2.857 0-5.023-1.634-5.757-4.37H97.28v-1.265c0-7.148-4.41-11.927-10.741-11.927zm46.272 0c-2.573 0-4.778.98-6.33 2.655V.573h-5.228v29.812h5.228V18.99c0-3.022 1.92-5.106 5.105-5.106 2.982 0 4.616 1.838 4.616 5.106v11.394h5.227V18.052c0-5.8-3.636-9.272-8.618-9.272zm8.863-1.47v-.654h.408c.328 0 .451.124.451.328 0 .204-.123.327-.45.327h-.41zm1.103-.326c0-.408-.287-.572-.695-.572h-.653V8.29h.245v-.735h.408l.451.735h.284l-.489-.775c.287-.042.449-.204.449-.53zm-32.51 6.861c2.205 0 4.003 1.143 5.392 2.737l3.634-3.594c-2.041-2.574-5.268-4.208-8.943-4.208-6.33 0-11.314 4.82-11.314 11.108 0 6.29 4.984 11.11 11.314 11.11 3.675 0 6.902-1.635 8.943-4.205l-3.634-3.595c-1.348 1.552-3.187 2.735-5.432 2.735-3.35 0-5.923-2.613-5.923-6.045 0-3.43 2.573-6.043 5.963-6.043zm-53.867 16.54h5.228V9.433h-5.228v20.952zm-37.818-4.452c-3.35 0-6.005-2.653-6.005-6.085 0-3.39 2.655-6.003 6.005-6.003 3.389 0 6.044 2.613 6.044 6.043 0 3.432-2.655 6.045-6.044 6.045zm0-17.153c-6.332 0-11.314 4.82-11.314 11.108 0 6.29 4.982 11.11 11.314 11.11 6.33 0 11.312-4.82 11.312-11.11 0-6.288-4.983-11.108-11.312-11.108zM0 30.385h5.23V.573H0v29.812zm43.005-4.452c-3.348 0-6.003-2.653-6.003-6.085 0-3.39 2.655-6.003 6.003-6.003 3.39 0 6.045 2.613 6.045 6.043 0 3.432-2.655 6.045-6.045 6.045zM54.114 13.6V9.433H46.76c-1.183-.406-2.449-.653-3.756-.653-6.33 0-11.312 4.82-11.312 11.108 0 6.29 4.982 11.11 11.312 11.11 6.33 0 11.313-4.82 11.313-11.11 0-2.123-.572-4.205-1.716-5.757l1.512-.53zm-11.11 24.218c-3.347 0-6.002-2.613-6.002-6.003h-5.309c0 6.29 4.982 11.107 11.312 11.107 6.33 0 11.313-4.818 11.313-11.107h-5.31c0 3.39-2.655 6.003-6.003 6.003z" mask="url(#b)"/></g></svg>