<svg xmlns="http://www.w3.org/2000/svg" width="160" height="80"><g fill="none"><path fill="#737373" d="M56.477 42.596l-.954 2.702h-.08c-.158-.61-.45-1.536-.926-2.649l-5.113-12.848h-5.007v20.477h3.312V37.642c0-.794 0-1.695-.027-2.807-.026-.557-.08-.98-.106-1.298h.08c.159.794.344 1.377.476 1.748l6.146 14.94h2.331l6.093-15.073c.132-.344.265-1.033.397-1.615h.08c-.08 1.51-.133 2.86-.16 3.682v12.98h3.524v-20.45h-4.821l-5.245 12.847zm13.403-7.072h3.444V50.2H69.88V35.523zm1.748-6.198c-.583 0-1.06.212-1.457.582-.397.371-.61.848-.61 1.43 0 .557.213 1.034.61 1.405.398.37.874.556 1.457.556.583 0 1.086-.212 1.457-.556.397-.371.61-.848.61-1.404 0-.556-.213-1.033-.61-1.43-.344-.371-.848-.583-1.457-.583m13.907 6.066a9.559 9.559 0 00-1.933-.212c-1.563 0-2.994.344-4.186 1.033-1.192.689-2.145 1.642-2.755 2.834-.636 1.219-.953 2.623-.953 4.239 0 1.404.317 2.649.927 3.788.609 1.113 1.457 2.013 2.596 2.622 1.086.61 2.357.928 3.788.928 1.642 0 3.046-.345 4.159-.98l.026-.027v-3.179l-.132.106a5.898 5.898 0 01-1.669.874c-.61.212-1.166.318-1.642.318-1.378 0-2.464-.397-3.232-1.271-.795-.848-1.192-2.014-1.192-3.47 0-1.51.397-2.703 1.218-3.577.821-.874 1.908-1.324 3.232-1.324 1.113 0 2.252.37 3.285 1.112l.132.106v-3.364l-.026-.026c-.45-.186-.954-.398-1.643-.53m11.365-.106c-.848 0-1.643.265-2.331.821-.583.477-.98 1.166-1.325 1.987h-.026v-2.57h-3.444V50.2h3.444v-7.497c0-1.271.264-2.331.847-3.1.583-.794 1.325-1.191 2.225-1.191.318 0 .636.08 1.034.132.37.106.635.212.82.345l.133.105v-3.443l-.08-.027c-.238-.159-.715-.238-1.297-.238m9.377-.08c-2.41 0-4.344.716-5.695 2.12-1.378 1.404-2.04 3.337-2.04 5.774 0 2.279.689 4.133 2.013 5.484 1.325 1.324 3.126 2.013 5.378 2.013 2.357 0 4.238-.715 5.59-2.146 1.377-1.43 2.039-3.337 2.039-5.695 0-2.331-.636-4.185-1.934-5.536-1.245-1.351-3.073-2.014-5.35-2.014m2.754 11.285c-.636.821-1.642 1.219-2.887 1.219s-2.252-.398-2.967-1.272c-.715-.821-1.06-2.013-1.06-3.523 0-1.563.371-2.755 1.06-3.603.715-.847 1.695-1.271 2.94-1.271 1.219 0 2.172.397 2.861 1.218.689.822 1.06 2.014 1.06 3.577-.053 1.589-.345 2.834-1.007 3.655m12.212-4.874c-1.086-.45-1.775-.795-2.093-1.086-.265-.265-.397-.636-.397-1.113 0-.397.159-.794.556-1.06.398-.264.848-.397 1.51-.397.583 0 1.192.106 1.775.265.583.16 1.113.398 1.536.715l.133.106v-3.231l-.08-.027a9.509 9.509 0 00-1.562-.45 10.636 10.636 0 00-1.696-.16c-1.642 0-2.993.398-4.053 1.272-1.06.822-1.563 1.934-1.563 3.232 0 .689.106 1.298.345 1.802.238.503.582.98 1.06 1.377.476.37 1.165.795 2.118 1.192.795.344 1.404.61 1.775.821.371.212.61.45.795.636.132.212.212.477.212.821 0 .98-.742 1.457-2.252 1.457-.583 0-1.192-.106-1.907-.344a7.399 7.399 0 01-1.934-.98l-.132-.106v3.364l.08.026c.503.239 1.112.398 1.854.583.741.133 1.403.239 1.986.239 1.775 0 3.232-.398 4.265-1.272 1.06-.848 1.616-1.934 1.616-3.338 0-.98-.265-1.854-.848-2.516a10.728 10.728 0 00-3.099-1.828m13.033-6.41c-2.41 0-4.344.715-5.695 2.119-1.351 1.404-2.04 3.337-2.04 5.774 0 2.279.689 4.133 2.013 5.484 1.325 1.324 3.126 2.013 5.378 2.013 2.357 0 4.238-.715 5.59-2.146 1.377-1.43 2.039-3.337 2.039-5.695 0-2.331-.636-4.185-1.934-5.536-1.245-1.351-3.073-2.014-5.35-2.014m2.728 11.285c-.636.821-1.643 1.219-2.888 1.219-1.271 0-2.251-.398-2.967-1.272-.715-.821-1.06-2.013-1.06-3.523 0-1.563.372-2.755 1.06-3.603.716-.847 1.696-1.271 2.94-1.271 1.193 0 2.173.397 2.862 1.218.688.822 1.06 2.014 1.06 3.577 0 1.589-.345 2.834-1.007 3.655m22.967-8.132v-2.835h-3.47v-4.345l-.107.026-3.284.98-.08.027v3.311h-5.192v-1.854c0-.848.212-1.51.583-1.934.37-.424.927-.636 1.616-.636.477 0 .98.106 1.536.345l.133.08v-2.995l-.08-.027c-.477-.159-1.112-.264-1.934-.264a6.211 6.211 0 00-2.755.635c-.82.45-1.43 1.06-1.88 1.881-.45.795-.69 1.695-.69 2.729v2.04h-2.41v2.807h2.41v11.868h3.471v-11.84h5.192v7.55c0 3.099 1.457 4.662 4.371 4.662.477 0 .98-.08 1.457-.16.503-.105.874-.238 1.086-.344l.027-.026v-2.836l-.133.106a2.215 2.215 0 01-.715.318c-.265.08-.503.106-.689.106-.689 0-1.165-.159-1.51-.556-.318-.371-.477-.98-.477-1.88v-6.941h3.524z"/><path fill="#F25022" d="M0 22.914h16.238v16.238H0z"/><path fill="#7FBA00" d="M17.934 22.914h16.238v16.238H17.934z"/><path fill="#00A4EF" d="M0 40.848h16.238v16.238H0z"/><path fill="#FFB900" d="M17.934 40.848h16.238v16.238H17.934z"/></g></svg>