<svg xmlns="http://www.w3.org/2000/svg" width="160" height="80"><g fill="none" fill-rule="evenodd"><path fill="#231F20" d="M87.877 71.826h-1.853v-5.621c0-3.277 2.514-4.395 4.712-4.145v1.832c-1.93-.223-2.859.79-2.859 2.002v5.932zm14.696.003h1.889V59.564h-1.889v12.265zM71.8 63.905h2.388v-1.88H71.8v-2.443h-1.854v8.158c0 3.104 2.16 4.192 4.281 4.192v-1.835c-1.196-.005-2.15-.449-2.38-1.59-.048-.325-.047-.379-.047-.993v-3.61zm41.949 6.838v1.083h1.769v-4.814c0-2.79-2.171-5.007-4.895-5.007-2.764 0-4.995 2.217-4.995 4.968 0 2.711 2.231 4.948 4.955 4.948 1.19 0 2.3-.447 3.166-1.178zm-3.134-6.87c1.688 0 3.039 1.416 3.039 3.13 0 1.634-1.435 3.05-3.095 3.05-1.688 0-3.067-1.39-3.067-3.077 0-1.715 1.407-3.103 3.123-3.103zm-14.213-1.868c-2.763 0-4.994 2.217-4.994 4.968 0 2.711 2.23 4.948 4.955 4.948 2.665 0 4.935-2.237 4.935-4.909 0-2.79-2.172-5.007-4.896-5.007zm-.007 1.868c1.688 0 3.039 1.416 3.039 3.13 0 1.634-1.435 3.05-3.095 3.05-1.688 0-3.067-1.39-3.067-3.077 0-1.715 1.407-3.103 3.123-3.103zm-16.53-1.868c-2.763 0-4.993 2.217-4.993 4.968 0 2.711 2.23 4.948 4.955 4.948 2.664 0 4.934-2.237 4.934-4.909 0-2.79-2.171-5.007-4.895-5.007zm-.006 1.868c1.688 0 3.038 1.416 3.038 3.13 0 1.634-1.435 3.05-3.094 3.05-1.689 0-3.067-1.39-3.067-3.077 0-1.715 1.407-3.103 3.123-3.103zm-16.04-1.868c-2.764 0-4.994 2.217-4.994 4.968 0 2.711 2.23 4.948 4.955 4.948 2.664 0 4.935-2.237 4.935-4.909 0-2.79-2.172-5.007-4.896-5.007zm-.007 1.868c1.688 0 3.038 1.416 3.038 3.13 0 1.634-1.434 3.05-3.094 3.05-1.688 0-3.067-1.39-3.067-3.077 0-1.715 1.407-3.103 3.123-3.103zm-6.263 7.956v-6.072c0-3.336-4.448-5.1-6.755-2.36C48.587 60.867 44 61.914 44 66.228v5.602h1.855v-6.17c0-1.074 1.05-1.85 1.955-1.85 1.037 0 2.02.714 2.02 1.882v6.138h1.89v-5.941c0-1.093.663-2.083 1.974-2.083 1.31 0 2.017.937 2.017 2.096v5.928h1.838z"/><path fill="#EC1D24" d="M81.155 8c.79.099 1.584.175 2.371.3 5.469.863 10.112 3.316 13.898 7.344 3.66 3.893 5.809 8.517 6.387 13.833 1.052 9.68-3.517 18.73-11.932 23.65-3.214 1.88-6.7 2.925-10.419 3.177-.129.01-.256.043-.384.065h-2.674c-.1-.022-.2-.057-.302-.064a23.783 23.783 0 01-7.574-1.768c-10.09-4.149-16.178-14.636-14.756-25.45.668-5.084 2.73-9.541 6.22-13.303 3.8-4.096 8.474-6.6 14-7.48.8-.126 1.609-.204 2.413-.304h2.753zm-8.405 6.164l-.073.006-9.196 30.076h1.7c.031-.116.064-.228.092-.34.58-2.286 1.255-4.54 2.263-6.681.572-1.217 1.238-2.371 2.296-3.244 1.156-.953 2.465-1.38 3.95-1.038 1.039.24 1.793.938 2.498 1.695 1.252 1.346 2.038 2.972 2.811 4.608.225.476.443.957.678 1.466.423-.898.819-1.753 1.228-2.6.75-1.558 1.66-3.005 2.96-4.17.7-.626 1.495-1.052 2.46-1.103 1.631-.085 2.917.601 3.971 1.786 1.045 1.175 1.712 2.578 2.229 4.034.615 1.736 1.111 3.515 1.669 5.271.04.125.153.315.242.32.493.032.988.016 1.544.016l-9.198-30.083-.08-.004-6.966 23.52-.108-.002-6.97-23.533z"/></g></svg>