<svg xmlns="http://www.w3.org/2000/svg" width="160" height="80"><g fill="none" fill-rule="evenodd"><path fill="#000" d="M141.645 51.951l6.686-18.439s-4.999 0-9.995 1.004l-6.321 17.435h9.63zm-1.141-23.418l-1.283 3.54c5.028-1.002 9.995-1.002 9.995-1.002l1.284-3.54s-4.998 0-9.996 1.002m-34.862 19.042c3.008.548 6.106.834 9.27.834 2.084 0 5.553-.245 5.863-2.93.124-1.05-1.015-1.77-2.834-2.77-2.08-1.15-3.682-1.759-5.49-2.97-1.807-1.209-2.586-3.111-1.976-5.127 1.825-6.044 10.657-7.081 15.875-7.081 3.588 0 7.097.345 10.493 1.002l-1.223 3.372c-3.139-.573-14.6-2.518-15.133 2.096-.122 1.052.942 1.735 2.762 2.736 2.08 1.147 3.756 1.793 5.563 3.003 1.81 1.21 2.586 3.113 1.979 5.13-1.83 6.041-10.658 7.081-15.877 7.081-3.52 0-7.037-.335-10.493-1.005l1.221-3.372m-14.516 4.377l5.577-15.385c2.193-6.046-8.204-3.636-10.674 3.172L81.6 51.951h-9.63l5.577-15.385c2.192-6.048-8.209-3.633-10.676 3.174l-4.427 12.211h-9.632l8.855-24.42c3.067 0 4.726.705 6.12 2.076.508.5.826 1.149 1 1.842 1.808-1.093 3.404-1.912 4.48-2.332 2.002-.784 4.489-1.588 7.557-1.586 3.065 0 4.725.705 6.118 2.076.51.5.829 1.149 1.003 1.842 1.806-1.093 3.404-1.912 4.478-2.332 2.001-.784 4.49-1.588 7.557-1.586 3.067 0 4.726.705 6.12 2.076 1.391 1.365 1.359 3.863.855 5.248l-6.198 17.096h-9.63"/><path fill="#8A8A8B" d="M10.051 24.679c5.386-3.365 11.982-6.396 18.279-7.43l.19-.03.183.03c6.298 1.034 12.894 4.065 18.279 7.43l.546.341.004.646c.045 8.144-1.273 16.834-5.009 24.152-2.925 5.727-7.425 10.684-13.626 12.831l-.378.133-.383-.133c-6.2-2.147-10.7-7.104-13.626-12.83-3.736-7.321-5.054-16.01-5.008-24.154l.003-.646.546-.341"/><path fill="#ED1C24" d="M10.672 25.672c5.638-3.523 12.1-6.323 17.842-7.267h.005c5.743.944 12.205 3.744 17.842 7.267.104 18.835-7.17 32.17-17.842 35.868v.002h-.005v-.002c-10.672-3.698-17.946-17.033-17.842-35.868"/><path fill="#000" d="M33.725 32.982c-2.347 2.72-6.082 3.107-8.66 3.221-.293.032-.876.066-1.026.275-.084.136-.005.324.121.422 2.916 2.058 6.716.553 8.713-.431-2.307 2.07-6.193 2.434-9.513 1.219-.423-.145-.694-.188-.832-.039-.094.1-.137.296-.016.527.931 1.737 1.605 3.079 3.975 3.83-2.751-.161-4.476-2.775-4.883-4.171-.038 2.338 2 3.949 2.837 4.877-1.096.04-2.163.126-2.629.946-.329.518-.32 1.27-.774 1.954-1.272-2.38-2.284-5.702-1.333-8.606.718-2.19 1.99-4.248 4.98-5.53-.794.91-1.393 1.604-2.055 2.607-.511.954.117 1.293.824.067.987 2.385 8.071.956 9.93-1.316l.676-.283-.335.431zm-4.48 20.625a.378.378 0 01.42-.135c.301.106.429.436.25.655-.218.297-.58.511-.818.8-.108.126-.158.274-.217.418h-.002c-.07-.588-.071-1.23.367-1.738zm-3.307-1.034c.163-.136.485-.142.637.007.15.188.208.437.11.647-.158.197-.413.329-.633.48-.356.23-.723.482-.867.836a3.248 3.248 0 01.248-1.285c.109-.25.26-.498.505-.685zm7.869-.409c.106-.052.245-.02.335.038.124.077.174.2.2.315.058.28.054.57.167.841.045.114.116.22.175.33-.274-.094-.485-.268-.667-.448-.193-.2-.367-.423-.414-.675a.356.356 0 01.204-.4zM23.5 50.588c.182-.087.418-.004.536.118.147.149.084.348.07.52-.005.12-.117.213-.24.273-.338.16-.724.307-1.057.472-.225.113-.41.269-.54.45.038-.303.163-.594.3-.878.182-.366.493-.743.93-.955zm13.997-2.322c-.03-.148.111-.268.258-.338.282-.007.503.149.736.25.132.063.286.08.437.096-.266.173-.6.278-.946.282-.212-.006-.454-.112-.485-.29zM21.45 47.005c.09-.058.215-.019.314.005.244.068.374.274.362.468-.016.21.015.468-.233.606-.45.261-1 .407-1.407.717-.148.1-.256.23-.355.361a3.352 3.352 0 01.697-1.668c.145-.205.388-.35.622-.489zm5.809-2.279c.323-.126.68-.198 1.041-.221-.298.103-.631.21-.8.443-.069.1-.137.242-.02.335.133.067.308.046.446.105.137.084.089.24.068.354-.097.375-.292.73-.524 1.066-.049.078-.102.163-.082.254.106.014.181-.069.26-.112.314-.218.643-.43.878-.706.101-.128.26-.243.278-.4.025-.13-.206-.165-.223-.28.098-.191.343-.306.565-.4.502-.197 1.231-.15 1.546.251-.252-.069-.487-.187-.758-.207-.139-.008-.295.052-.323.166-.033.145-.014.294-.048.44-.098.52-.512.985-1.066 1.275-.19.096-.429.142-.573.285-.1.1-.19.22-.181.353.12.056.266.038.4.054.297.028.616.044.893-.063.263-.101.365-.349.638-.44.696-.254 1.59.052 1.893.589-.217-.104-.402-.249-.634-.334a.828.828 0 00-.73.09c-.21.149-.345.348-.467.544-.046.066-.098.151-.206.162-.184-.006-.352-.121-.541-.074-.26.068-.492.194-.754.257-.179.042-.37.039-.55.001-.316-.065-.633-.14-.962-.153-.149-.003-.327.013-.417.119-.127.146-.112.332-.132.5-.1-.416-.257-.826-.281-1.252-.034-.528-.162-1.059-.053-1.587.178.213.19.473.23.719.02.112.084.254.25.274.226.003.355-.17.468-.3.188-.26.358-.552.323-.857.005-.14-.216-.144-.295-.243-.148-.162-.15-.382-.075-.566.082-.197.286-.348.518-.44zm12.096-.689c.01-.109.165-.14.281-.135.217-.001.434.02.65-.006-.156.17-.379.317-.642.371-.172.03-.327-.097-.289-.23zm.158-2.688c.162-.065.326-.124.467-.215a.719.719 0 01-.393.466c-.17.037-.223-.207-.074-.25zm-7.77-2.781c.216.827.515 1.592 1.483 1.899.903.286 2.206.083 3.199-.005.82-.029 1.582-.18 2.19.244.307.212.433.468.58.76.138.286.278.573.38.869.091.257.036.586-.11.82-.232.366-.38.676-.426 1.083-.042.37-.119.735-.186 1.102-.07.354-.166.771-.348 1.103-.177.322-.5.566-.712.872-.36.5-.557 1.04-.742 1.593-.147.43-.205.873-.329 1.306-.092.373-.32.732-.73.951-.602.32-1.356.4-2 .649-.595.231-.994.613-1.464.967-.37.283-.687.604-1.223.681-.988.151-1.239-.634-3.022-.008-.214.076-.487.092-.677-.032-.425-.206-.473-.788-.95-1.04-.475-.232-1.053-.236-1.582-.337-.237-.04-.466-.182-.558-.361-.151-.31-.155-.651-.288-.964-.345-.703-1.48-.93-1.805-1.577-.329-.675.116-1.029.119-1.572-.035-.724-.523-1.09-1.483-1.123.533-.773.717-1.394.907-2.223.121-.29.195-.616.508-.815.273-.17.712-.268 1.04-.347.357-.083.879-.096 1.216.057.907.498.7 1.809.221 2.345-.651.736-2.286.59-2.004-.565.337.285.663.717 1.132.205.034-.047.072-.12.053-.18-.067-.217-.205-.362-.466-.467a.638.638 0 00-.42-.04 1.563 1.563 0 00-.967.79c-.367.723.426 1.302 1.344 1.163.851-.169 1.246-.515 1.797-.97-.018.921-.043 1.59.08 2.557.144.705.283 1.405.647 2.064a2.888 2.888 0 001.468 1.303c.712.286 1.494.293 2.275.288 1.335.004 3.28-.571 4.355-1.128 1.718-.907 1.964-1.634 2.806-3.058.37-.665.722-1.49.977-2.19.266-.727.47-1.472.463-2.23-.005-.628-.175-1-.412-1.299-.753-.95-2.355-.547-3.835-.59-.115.233-.205.497-.01.719.362.39 1.242.331 1.831.377-2.532 1.03-4.799-.094-5.427-2.083.527.66 1.38 2.004 2.67 1.606.47-.142.256-.475.105-.731-.037-.09-.202-.092-.296-.126-1.142-.334-1.568-1.357-1.374-2.312zm-8.125-.425c.19.148.254.35.445.498 1.791 1.364 3.374 1.358 5.66 1.434-2.026.497-4.607.191-6.049-1.175-.2-.186-.343-.36-.461-.585-.105-.317.176-.352.405-.172zm8.477-.376c1.832-.1 3.703.593 4.291 2.37-.242-.264-1.237-.498-1.612-.407-.104.02-.2.081-.216.167-.04.158.055.282.116.428-1.005.114-1.734-.221-2.185-.866.226.096.45.246.71.288.496.093.985-.117 1.27-.426.178-.195.064-.443-.147-.593-.767-.568-1.416-.634-2.227-.96zm1.872-3.306c.239-.177.443-.38.669-.566-1.025 1.56-3.516 2.795-5.477 3.143-.989.197-3.154.454-4.064-.045-.1-.053-.203-.172-.11-.261.148-.11.39-.089.575-.09.385.036.794-.01 1.182-.008.962.02 2.06-.138 3.002-.29 1.566-.346 3.056-.97 4.223-1.883zm-18.522-5.662c.285-.064.594-.019.847.095.314.14.496.397.655.64.073.12.155.26.098.39-.088.021-.18.029-.269.052-.074.073-.05.174-.048.26.057.453.246.84.45 1.263.027.06.084.108.142.15.077-.48-.047-.953.15-1.421.035-.067.073-.156.177-.173.167-.002.294.14.464.113.143-.066.12-.221.11-.332-.045-.286-.328-.487-.515-.719.417.26.809.577.982.978.102.235.073.532-.173.706-.109.084-.268.062-.403.047-.302.293-.257.67-.184 1.019.024.086.044.238.199.225.316-.067.52-.285.787-.419-.61.757-1.13 1.174-1.54 2.103.008-.195.049-.394-.006-.586-.033-.11-.15-.185-.266-.243-.302-.15-.653-.228-.96-.37-.324-.16-.49-.439-.69-.68-.126-.155-.374-.073-.529-.196-.068-.148-.034-.309-.068-.463-.046-.237-.06-.556-.324-.71-.27-.164-.626-.158-.95-.16v-.006c.238-.086.498-.18.767-.139.443.065.764.275 1.009.564.168.191.132.444.294.639.116.138.298.232.467.33.185.102.36.228.587.267a.698.698 0 00-.157-.666c-.306-.327-.41-.69-.479-1.084-.05-.257.002-.524.132-.764.063-.123.179-.267.076-.397-.184-.215-.545-.234-.832-.313zm11.332-4.364c.816.533 1.891 1.192 2.786 1.64-.198.158-.429.398-.691.394-.577-.21-1.828-1.529-2.095-2.034zm1.199-1.792l.017-.002c1.208 1.518 2.496 2.695 4.307 3.551.488.241.948.422 1.545.444.321.025.626-.19.945-.19.373-.01.746.156 1.012.34.082.052.14.125.154.21.081.38.191.748.515 1.039.202.18.53.166.82.114.052.199.165.421.432.49.25.049.457-.206.724-.134.11.145.173.283.287.428.103.099.277.125.398.21.47.248.77.721.954 1.096-.264-.288-.571-.64-1-.787.018.62-.023 1.495-.451 1.826-.018-.4-.002-.79-.235-1.145-.366.266-.735.64-1.213.728.182-.225.546-.472.43-.752a.958.958 0 00-.751-.104c-.399.087-.781.329-1.062.567-.083-.22-.14-.42-.246-.617-.225.038-1.034.308-.805.668.352.436.917.265 1.253.33.239.075.396.261.495.438.02-.165.036-.331.06-.495.356.427.671.874.953 1.336.405-.179.488-.366.536-.885.158.261.183.484.187.77a.81.81 0 00.257-.337c.151.704-.015 1.772-1.011 2.092.182-.47.252-.879-.381-.879-.5-.002-1.061.183-1.555.241.192-.1 1.045-.58.896-.862-.065-.109-.187-.142-.316-.19-.313-.11-.6-.274-.948-.318-.163-.026-.308.094-.447.151-.826-.393-1.116.094-1.705.182-.561.084-1.185-.235-1.477-.69-.658-1.025.327-1.652 1.166-1.914-1.102-.128-1.547.249-1.81 1.349-.533-.17-.785-.194-1.445-.315-3.665-.535-6.564.546-8.246 2.334-1.622 1.724-2.63 4.391-2.612 6.563-.048 2.367.677 3.756 1.903 5.826-1.777-1.456-2.566-3.29-3.093-4.513-.224.258-.152.58-.214.875-1.029-1.4.4-4.927 1.078-6.51-.537.25-.861.695-1.25 1.062-.063-2.002 1.703-4.03 3.51-5.662-.558.112-.978.292-1.477.545 1.73-1.829 4.896-2.883 7.754-2.99-.674-.225-1.476-.27-2.186-.39 2.231-.463 3.763-.48 5.27-1.48.7.456 1.519.92 1.92.797-1.205-.861-3.414-2.87-3.842-4.441zm6.594 4.759c.118.186.292.345.445.513.175.186.474.344.793.253a1.643 1.643 0 00-.21-.484c-.041-.065-.129-.096-.217-.11-.275-.047-.537-.124-.811-.172"/><path fill="#FFF" d="M33.606 32.677c-2.348 2.718-6.083 3.106-8.661 3.22-.292.032-.875.066-1.025.276-.084.135-.005.323.121.421 2.916 2.059 6.716.554 8.713-.43-2.307 2.069-6.194 2.434-9.513 1.218-.423-.145-.695-.188-.832-.04-.094.101-.138.297-.017.528.932 1.738 1.605 3.079 3.975 3.83-2.75-.16-4.475-2.776-4.882-4.171-.038 2.339 2 3.95 2.836 4.877-1.095.041-2.163.126-2.628.946-.33.518-.32 1.27-.775 1.954-1.272-2.379-2.284-5.702-1.333-8.605.718-2.19 1.992-4.25 4.98-5.53-.793.91-1.393 1.603-2.055 2.606-.511.954.118 1.293.824.068.987 2.384 8.071.955 9.93-1.317l.676-.283-.334.432zm-4.48 20.624a.378.378 0 01.419-.135c.302.105.43.437.25.654-.218.299-.58.513-.817.8-.109.127-.158.276-.217.418h-.002c-.07-.586-.071-1.228.367-1.737zm-3.308-1.034c.164-.136.485-.142.638.007.149.188.207.438.11.648-.159.197-.414.327-.633.48-.356.228-.724.482-.867.836a3.215 3.215 0 01.248-1.286c.109-.25.26-.498.504-.685zm7.87-.408c.106-.052.245-.02.335.037.124.076.173.2.2.315.058.28.054.57.166.842.046.114.116.218.176.329-.274-.094-.485-.267-.667-.448-.194-.2-.367-.423-.415-.674a.358.358 0 01.205-.401zM23.38 50.283c.182-.087.419-.004.536.117.148.15.084.35.072.521-.006.12-.118.213-.242.272-.337.16-.724.306-1.057.472-.225.114-.41.27-.54.45.038-.302.164-.594.302-.877.181-.367.492-.744.93-.955zm13.997-2.324c-.029-.145.112-.267.258-.337.283-.006.504.149.736.251.133.062.287.08.438.094-.266.175-.6.28-.946.284-.212-.006-.455-.114-.486-.292zM21.33 46.701c.09-.058.215-.02.313.004a.47.47 0 01.363.468c-.017.21.015.468-.234.606-.45.261-1 .408-1.406.717-.148.101-.256.23-.355.362a3.349 3.349 0 01.696-1.669c.146-.205.388-.35.623-.488zm5.809-2.28c.323-.127.68-.197 1.04-.22-.297.103-.631.21-.8.443-.069.1-.136.242-.018.334.132.067.307.046.444.105.138.084.09.24.069.355-.098.374-.293.73-.524 1.065-.05.079-.102.164-.083.254.106.015.181-.068.26-.111.314-.219.644-.43.879-.707.101-.127.259-.242.277-.4.025-.13-.205-.165-.222-.28.097-.19.343-.306.565-.4.501-.197 1.231-.151 1.546.251-.253-.068-.487-.187-.758-.207-.139-.008-.296.052-.324.166-.032.146-.013.294-.048.441-.097.52-.51.985-1.066 1.274-.19.095-.428.141-.572.286-.1.1-.19.22-.181.353.119.055.266.037.399.053.297.028.617.044.893-.063.263-.1.366-.349.638-.439.696-.255 1.59.052 1.894.588-.218-.103-.402-.249-.634-.334a.833.833 0 00-.73.09c-.21.15-.345.348-.468.544-.045.067-.098.15-.206.162-.184-.005-.352-.12-.54-.073-.26.068-.492.193-.755.257-.178.041-.37.038-.549 0-.317-.065-.634-.14-.962-.153-.15-.002-.327.013-.418.12-.126.146-.111.331-.132.5-.1-.416-.256-.828-.28-1.253-.034-.529-.162-1.058-.054-1.586.178.213.19.472.232.717.018.113.083.256.249.275.226.003.355-.171.468-.3.187-.259.357-.552.323-.857.004-.14-.216-.143-.295-.242-.148-.163-.15-.383-.076-.566.082-.198.287-.349.519-.441zm12.096-.688c.01-.11.165-.141.281-.135.217-.002.434.018.65-.007-.157.17-.379.318-.643.372-.172.029-.327-.097-.288-.23zm.158-2.688c.162-.065.326-.125.467-.215a.725.725 0 01-.393.466c-.172.036-.223-.208-.074-.251zm-7.77-2.78c.215.825.514 1.59 1.483 1.897.903.285 2.205.084 3.198-.005.82-.029 1.582-.18 2.19.245.308.212.433.467.58.759.14.287.279.573.38.87.091.256.037.585-.11.82-.231.365-.38.676-.425 1.082-.043.37-.119.735-.186 1.101-.071.355-.167.773-.349 1.105-.176.321-.5.566-.712.871-.358.5-.556 1.041-.74 1.593-.149.43-.207.874-.33 1.307-.093.372-.32.732-.73.95-.603.32-1.356.4-2 .65-.596.23-.994.612-1.464.967-.37.282-.687.604-1.224.68-.987.152-1.238-.635-3.022-.008-.213.076-.487.092-.677-.031-.424-.207-.473-.79-.95-1.041-.475-.231-1.052-.235-1.582-.337-.236-.039-.465-.183-.557-.36-.152-.31-.155-.651-.289-.966-.345-.701-1.479-.929-1.804-1.576-.33-.676.116-1.028.119-1.572-.035-.724-.523-1.089-1.483-1.122.532-.773.717-1.395.906-2.223.122-.291.195-.616.508-.816.273-.17.713-.268 1.042-.348.355-.083.877-.094 1.215.058.907.498.7 1.809.221 2.346-.652.736-2.286.59-2.004-.566.336.285.662.718 1.132.205.033-.047.072-.12.053-.18-.068-.217-.205-.361-.466-.467-.128-.051-.283-.083-.42-.039a1.56 1.56 0 00-.968.789c-.367.724.427 1.303 1.344 1.163.852-.168 1.247-.515 1.798-.97-.02.922-.043 1.591.08 2.557.143.705.282 1.405.647 2.063.296.538.788 1.04 1.468 1.305.712.286 1.494.293 2.274.287 1.335.005 3.28-.57 4.356-1.128 1.717-.908 1.964-1.635 2.805-3.058.371-.665.723-1.49.978-2.19.266-.726.47-1.471.462-2.23-.004-.628-.174-1-.412-1.299-.753-.951-2.354-.546-3.834-.59-.116.234-.205.498-.01.72.362.39 1.241.33 1.831.376-2.532 1.03-4.8-.094-5.428-2.083.527.66 1.38 2.005 2.67 1.607.47-.142.256-.476.105-.732-.037-.09-.2-.092-.296-.125-1.141-.335-1.567-1.358-1.373-2.312zm-8.125-.426c.19.148.254.35.444.497 1.792 1.365 3.374 1.358 5.66 1.434-2.026.497-4.606.192-6.048-1.175a2.072 2.072 0 01-.461-.585c-.105-.317.176-.351.405-.171zm8.476-.376c1.832-.1 3.704.593 4.292 2.37-.242-.265-1.238-.498-1.613-.408-.103.021-.2.082-.214.168-.041.158.053.282.114.427-1.004.115-1.733-.22-2.184-.866.226.096.45.247.708.288.498.093.986-.116 1.27-.426.18-.195.065-.442-.146-.593-.766-.568-1.416-.634-2.227-.96zm1.873-3.307c.238-.177.443-.379.668-.565-1.024 1.56-3.515 2.795-5.476 3.142-.99.197-3.154.455-4.064-.045-.1-.052-.203-.171-.11-.26.148-.11.39-.09.575-.09.385.036.794-.011 1.181-.01.963.022 2.06-.137 3.003-.288 1.565-.348 3.056-.97 4.223-1.884zm-18.521-5.663a1.38 1.38 0 01.846.095c.315.141.497.397.655.641.074.118.155.258.098.39-.087.02-.18.028-.268.052-.075.071-.05.173-.049.26.057.452.247.84.45 1.262a.406.406 0 00.142.15c.078-.48-.046-.952.15-1.421.036-.068.074-.155.178-.173.167-.001.293.14.464.114.142-.067.12-.223.109-.332-.045-.286-.327-.488-.515-.72.418.26.81.576.982.977.102.235.074.533-.172.708-.11.083-.268.062-.403.046-.302.293-.257.671-.185 1.02.025.085.044.237.2.224.315-.067.52-.284.786-.418-.61.756-1.13 1.174-1.538 2.102.006-.195.048-.393-.008-.586-.032-.11-.15-.185-.266-.243-.302-.15-.652-.228-.96-.37-.323-.16-.489-.438-.69-.68-.126-.154-.374-.072-.528-.197-.069-.146-.035-.308-.069-.461-.045-.237-.06-.555-.324-.712-.269-.162-.625-.156-.948-.158v-.007c.237-.087.497-.179.766-.138.443.065.764.275 1.008.563.169.192.133.444.294.638.117.14.3.234.468.332.184.102.36.227.587.266a.7.7 0 00-.157-.665c-.307-.327-.41-.69-.479-1.085-.05-.257 0-.524.13-.764.064-.123.18-.267.077-.396-.183-.215-.545-.235-.83-.314zm11.332-4.364c.816.533 1.891 1.192 2.785 1.64-.198.158-.428.398-.69.394-.578-.21-1.829-1.529-2.095-2.034zm1.198-1.792l.018-.002c1.208 1.517 2.496 2.695 4.307 3.552.487.241.947.422 1.544.444.322.025.626-.19.945-.191.373-.01.747.156 1.013.339.081.053.14.128.153.212.082.38.192.747.515 1.038.202.18.531.167.82.114.052.2.166.422.433.49.25.05.457-.205.723-.133.11.145.174.283.288.428.103.098.276.125.397.21.47.247.77.72.955 1.095-.264-.287-.571-.64-1-.787.017.621-.023 1.496-.452 1.826-.018-.4-.002-.789-.235-1.144-.365.264-.735.64-1.213.727.183-.224.547-.472.43-.752a.956.956 0 00-.75-.104c-.4.088-.781.33-1.063.567-.083-.22-.14-.42-.245-.616-.225.037-1.034.308-.805.667.351.437.917.266 1.253.33.238.076.396.262.495.439.02-.166.035-.332.06-.496.356.428.67.875.953 1.336.404-.18.487-.366.536-.885.158.262.183.485.187.77a.8.8 0 00.256-.337c.152.704-.014 1.773-1.01 2.092.182-.47.252-.878-.382-.88-.5-.002-1.061.185-1.554.243.191-.101 1.044-.581.895-.863-.065-.108-.186-.141-.316-.19-.312-.11-.599-.274-.947-.319-.164-.025-.308.096-.448.153-.825-.393-1.116.094-1.704.18-.562.085-1.185-.234-1.478-.688-.658-1.026.328-1.652 1.167-1.915-1.102-.128-1.548.248-1.811 1.349-.532-.17-.785-.193-1.445-.315-3.664-.535-6.564.546-8.246 2.334-1.622 1.724-2.628 4.391-2.612 6.563-.047 2.367.677 3.756 1.903 5.827-1.777-1.457-2.565-3.291-3.092-4.513-.224.258-.153.58-.215.874-1.028-1.4.4-4.927 1.078-6.509-.537.249-.861.694-1.249 1.06-.064-2 1.702-4.028 3.51-5.66-.56.111-.978.291-1.478.544 1.73-1.829 4.897-2.882 7.755-2.989-.675-.226-1.477-.271-2.186-.39 2.231-.464 3.763-.481 5.268-1.48.702.455 1.52.92 1.922.796-1.206-.86-3.415-2.87-3.843-4.44zm6.595 4.76c.117.186.292.345.444.512.175.187.475.344.794.253a1.67 1.67 0 00-.21-.484c-.041-.064-.13-.095-.218-.109-.274-.048-.536-.124-.81-.173"/><path fill="#000" d="M10.672 25.672c5.638-3.523 12.1-6.323 17.842-7.267h.005c5.743.944 12.205 3.744 17.843 7.267v.393c-5.576-3.507-11.93-6.306-17.585-7.296h-.005c-5.742.882-12.205 3.614-17.842 7.076-.074 13.35 3.56 23.975 9.483 30.389-6.076-6.318-9.816-17.017-9.741-30.56"/></g></svg>