<svg xmlns="http://www.w3.org/2000/svg" width="160" height="80"><path fill="#1E5CB3" fill-rule="evenodd" d="M141.322 27.308h-.491v.923h.49c.295 0 .5-.193.5-.458 0-.267-.205-.465-.5-.465zm.513 2.313l-.605-1.077h-.4v1.077h-.364v-2.64h.895c.46 0 .83.345.83.792 0 .386-.237.625-.563.725l.633 1.123h-.426zm-.585-3.372c-1.12 0-2.022.925-2.022 2.055 0 1.132.903 2.056 2.022 2.056 1.115 0 2.028-.924 2.028-2.056 0-1.13-.913-2.055-2.028-2.055zm0 4.464a2.408 2.408 0 010-4.816 2.408 2.408 0 010 4.816zM62.764 55.777L69.571 37c2.271-6.26-6.06-3.972-7.922-2.533-1.462 1.13-4.127 3.703-5.107 6.405l-5.405 14.906H39.383L46.19 37c2.269-6.26-6.06-3.972-7.922-2.533-1.463 1.13-4.13 3.704-5.11 6.407l-5.402 14.904H16l10.807-29.806c3.744 0 5.768.86 7.47 2.534.621.611 1.01 1.403 1.222 2.249 2.204-1.334 4.154-2.335 5.466-2.846 2.444-.957 5.48-1.939 9.225-1.937 3.741 0 5.767.86 7.467 2.534.622.611 1.011 1.403 1.223 2.249 2.205-1.334 4.156-2.335 5.467-2.846 2.443-.957 5.481-1.939 9.223-1.937 3.744 0 5.768.86 7.469 2.534 1.7 1.666 1.66 4.715 1.045 6.406L74.52 55.777H62.764zm17.718-5.342c3.67.67 7.453 1.019 11.314 1.019h.002c3.965 0 6.843-.883 7.154-3.576.15-1.282-1.06-2.204-3.28-3.427-2.539-1.402-4.674-2.1-6.88-3.578-2.205-1.476-3.157-3.799-2.413-6.259.868-2.874 2.886-4.54 5.962-6.111 3.605-1.84 6.461-2.532 13.416-2.532 4.379 0 8.662.422 12.807 1.223l-1.493 4.116a62.963 62.963 0 00-11.314-1.018c-3.966 0-6.846.885-7.157 3.577-.148 1.284 1.06 2.206 3.282 3.429 2.538 1.4 4.673 2.099 6.88 3.575 2.207 1.477 3.156 3.8 2.414 6.262-.87 2.87-2.89 4.536-5.963 6.11-3.605 1.84-6.463 2.532-13.415 2.532h-.002c-4.378 0-8.66-.424-12.805-1.227l1.49-4.115zm42.55-23.24l-1.566 4.32c6.137-1.223 12.199-1.223 12.199-1.223l1.567-4.321s-6.1 0-12.2 1.223m1.393 28.583l8.16-22.505s-6.1 0-12.2 1.225l-7.714 21.28h11.754"/></svg>