<svg xmlns="http://www.w3.org/2000/svg" xmlns:xlink="http://www.w3.org/1999/xlink" width="160" height="80"><defs><path id="a" d="M.052.196h2.812v2.701H.052z"/><path id="c" d="M0 .237h81.903v15.351H0z"/></defs><g fill="none" fill-rule="evenodd"><g transform="translate(119.7 68.989)"><mask id="b" fill="#fff"><use xlink:href="#a"/></mask><path fill="#000" d="M2.46 1.546c0 .622-.459 1.04-1 1.04v-.004C.906 2.586.457 2.168.457 1.546.456.924.905.508 1.46.508c.54 0 .998.416.998 1.038m.405 0c0-.854-.664-1.35-1.403-1.35C.716.196.052.692.052 1.546c0 .854.664 1.351 1.409 1.351.74 0 1.403-.497 1.403-1.351m-1.636.114h.15l.348.611h.383l-.386-.636c.2-.015.363-.11.363-.378 0-.333-.23-.44-.619-.44H.905V2.27h.323v-.61m0-.246v-.35h.225c.122 0 .29.009.29.16 0 .161-.087.19-.231.19h-.284" mask="url(#b)"/></g><g transform="translate(37 55.82)"><mask id="d" fill="#fff"><use xlink:href="#c"/></mask><path fill="#000" d="M72.838 3.059l2.623 7.177h-5.329l2.706-7.177zM70.028.264l-6.047 15.32h4.27l.956-2.709h7.155l.906 2.708h4.635L75.811.263h-5.784zM57.89 15.588h4.33V.258h-4.33v15.33zM27.818.258l-3.614 12.15L20.742.258h-4.674l4.945 15.33h6.24L32.237.258h-4.42zm17.509 3.338h1.861c2.701 0 4.448 1.213 4.448 4.36 0 3.147-1.747 4.36-4.448 4.36h-1.861v-8.72zM41.032.258v15.33h7.022c3.742 0 4.963-.622 6.284-2.017.934-.98 1.537-3.13 1.537-5.48 0-2.154-.51-4.077-1.402-5.274C52.87.677 50.56.258 47.11.258h-6.077zM0 .237v15.351h4.368V3.931l3.384.002c1.121 0 1.92.279 2.46.855.685.73.964 1.907.964 4.06v6.74h4.233V7.107c0-6.054-3.86-6.87-7.634-6.87H0zm34.06.02l.002 15.331h4.33V.258H34.06z" mask="url(#d)"/></g><path fill="#8DC63F" d="M48.641 25.554s5.571-8.22 16.695-9.07V13.5c-12.32.99-22.99 11.424-22.99 11.424s6.042 17.47 22.99 19.07v-3.17C52.9 39.26 48.641 25.553 48.641 25.553zm16.695 8.966v2.904c-9.4-1.676-12.008-11.447-12.008-11.447s4.512-5 12.008-5.81v3.185l-.014-.001c-3.934-.473-7.007 3.202-7.007 3.202s1.722 6.187 7.021 7.967zm0-26.52v5.501c.362-.028.724-.051 1.087-.064 14.008-.472 23.135 11.488 23.135 11.488S79.075 37.672 68.154 37.672c-1 0-1.937-.092-2.818-.248v3.4c.753.096 1.533.153 2.347.153 10.163 0 17.512-5.19 24.63-11.333 1.178.945 6.01 3.243 7.003 4.25-6.768 5.665-22.537 10.23-31.477 10.23-.861 0-1.69-.051-2.503-.13v4.78h38.627V8H65.336zm0 12.167v-3.683a27.23 27.23 0 011.087-.057c10.073-.316 16.682 8.656 16.682 8.656s-7.138 9.914-14.79 9.914a9.266 9.266 0 01-2.979-.477V23.352c3.922.474 4.71 2.206 7.068 6.136l5.244-4.421s-3.828-5.02-10.28-5.02c-.702 0-1.373.049-2.032.12z"/></g></svg>