<svg xmlns="http://www.w3.org/2000/svg" width="160" height="80"><path fill="#0078AF" fill-rule="evenodd" d="M71.832 49.378l-.13 1.285 2.324-.17 3.343-.024 3.134.097 1.776.097-.052-1.14.052-1.164-1.88.121c-.536.036-1.05.06-1.546.077-.491.012-.962.02-1.406.02l-1.514-.024V42.38l1.567-.025 1.571.049c.492.02.95.036 1.38.048l1.645.122-.078-1.14.078-1.169-1.567.097a37.49 37.49 0 01-2.977.097l-1.62-.024v-5.587l1.463.024 3.239.097 1.645.098-.052-1.189.052-1.116-1.567.121c-.81.049-2.142.073-3.996.073a62.284 62.284 0 01-2.69-.048l-2.324-.146.13 1.31.078 2.207v2.75l.027 4.665-.027 3.23c0 .477-.004.917-.017 1.33-.013.408-.035.784-.06 1.124zm12.72-.704l-.993 1.844 1.489-.049 1.41.049.549-1.771c.13-.376.26-.752.391-1.12.13-.368.262-.724.392-1.063l.444-1.092 1.41-.145c.222-.024.484-.037.784-.045.3-.004.64-.004 1.019-.004.383 0 .73.004 1.044.016.318.009.588.02.81.033l1.463.145.391 1.116.862 2.207.549 1.723 2.298-.049 2.638.049-.992-1.892c-1.594-3.154-3.213-6.744-4.858-10.77l-1.28-3.226-.68-1.722-1.2.073-.967-.073-.653 1.722-1.358 3.274a254.46 254.46 0 01-2.55 5.72 187.41 187.41 0 01-2.412 5.05zm4.518-5.215l.444-.994 1.332-3.13.653-1.455.627 1.456 1.358 3.129.444.994-.888.121c-.21.025-.427.037-.653.04-.226.009-.47.009-.731.009-.601 0-1.15-.024-1.646-.073l-.94-.097zm15.253 5.991l-.105 1.213 2.037-.17c.249-.012.575-.02.989-.02.409-.004.905-.004 1.493-.004.98.012 1.82.02 2.524.024.701.004 1.263.012 1.68.025l1.96.145-.053-.994.053-1.02-1.41.098c-.34.024-.732.044-1.185.056-.453.013-.97.017-1.558.017l-2.299.024V36.522c.013-.437.026-.857.044-1.253.013-.397.035-.772.06-1.124l.105-1.237-2.141.073-2.299-.073.157 1.237c.026.323.048.679.061 1.063.013.384.017.805.017 1.265v10.212c-.013.534-.026 1.031-.043 1.492-.022.46-.048.885-.087 1.273zm10.003-15.645l-.078.995 1.75-.097 2.193-.097h1.097v1.091l-.026 4.803-.026 4.948-.104 3.372-.079 1.698 2.22-.049 2.22.049-.104-1.698-.079-3.372-.052-4.948v-5.894h1.097l2.168.097 1.75.097-.052-.995.052-1.019-2.142.073c-.94.037-1.81.065-2.616.09-.805.02-1.55.032-2.242.032a90.74 90.74 0 01-2.194-.033c-.81-.024-1.697-.052-2.664-.089l-2.167-.073.078 1.02zm16.872 15.573l-.13 1.285 2.324-.17 3.343-.024 3.134.097 1.776.097-.052-1.14.052-1.164-1.88.121c-.536.036-1.05.06-1.546.077-.491.012-.962.02-1.406.02l-1.514-.024V42.38l1.567-.025 1.571.049c.492.02.949.036 1.38.048l1.645.122-.078-1.14.078-1.169-1.567.097a37.49 37.49 0 01-2.977.097l-1.62-.024v-5.587l1.463.024 3.239.097 1.645.098-.052-1.189.052-1.116-1.567.121c-.81.049-2.142.073-3.996.073a62.284 62.284 0 01-2.69-.048l-2.325-.146.131 1.31.078 2.207v2.75l.027 4.665-.027 3.23c0 .477-.004.917-.017 1.33-.013.408-.035.784-.06 1.124zm16.036-16.397l-2.193-.073.078 1.382.052 1.965.052 3.008-.026 5.02-.026 2.5-.052 2.206-.078 1.529 2.298-.049 2.115.049-.13-1.553c-.04-.327-.065-.679-.083-1.055a34.571 34.571 0 01-.022-1.2v-2.426l.027-1.698 1.201 1.698 1.672 2.425c.391.546.726 1.023 1 1.436.28.408.501.747.671 1.014l.836 1.359 2.716-.049 2.638.049-1.123-1.383-1.933-2.62L154 42.562l-1.593-2.305.992-1.091 2.612-2.693 2.063-2.061 1.594-1.504-1.855.073-1.75-.073-1.044 1.43c-.275.377-.614.801-1.015 1.278a86.946 86.946 0 01-1.388 1.585l-1.75 2.013-1.646 1.698v-1.746l.105-2.887.026-1.964.104-1.407-2.22.073zm-92.59-3.587l-2.547-.087.157 1.285c.031.395.058.867.073 1.417.016.546.021 1.164.021 1.85v11.434c-.015.832-.026 1.543-.031 2.123a36.832 36.832 0 01-.032 1.378l-.188 1.724 2.61-.059 2.706.059-.126-1.695a55.54 55.54 0 01-.094-3.501l-.031-3.525V40.57l.849 1.227c.488.696.918 1.334 1.29 1.913.377.585.713 1.12 1.006 1.612l2.108 3.501 1.007 1.695 2.863-.059 3.24.059-1.321-1.637A93.697 93.697 0 0165.87 45.6a133.615 133.615 0 01-2.543-3.891l-1.006-1.665c.692-.161 1.29-.327 1.782-.502.493-.175.876-.36 1.143-.55a4.483 4.483 0 001.164-.989c.32-.38.582-.818.787-1.314.141-.331.236-.672.294-1.018.057-.346.083-.706.083-1.081-.015-.847-.188-1.602-.524-2.264-.33-.667-.828-1.257-1.489-1.763-.55-.409-1.211-.72-1.987-.935-.781-.214-1.678-.321-2.7-.321l-2.957.058-3.272.03zm2.518 9.92v-8.02l1.195-.088c1.274 0 2.234.297 2.873.896.645.599.965 1.495.965 2.692-.01.6-.094 1.15-.252 1.656a3.976 3.976 0 01-.723 1.378c-.393.492-.834.867-1.322 1.12a3.685 3.685 0 01-1.604.394l-1.132-.029zm-17.142 8.1l-3.024-3.363h-5.068v-1.285h5.888l3.54 3.935v4.868H40.02v-4.155zm-.84 1.097l-3.004-3.339h-4.248v1.385h3.283l2.634 2.927v3.668h1.335v-4.64zm-4.202-.669l1.96 2.18v4.648h-1.123v-3.748l-1.57-1.745h-2.317v-1.335h3.05zm-3.05 3.727h.82l.548.608v4.11h1.22V51.2l-.843-.936h-1.745v1.304zM18.25 39.052h5.683v-3.153a1.699 1.699 0 01.449-3.336 1.698 1.698 0 01.481 3.326v4.237h-7.542V35.89a1.697 1.697 0 11.929.01v3.153zM1.335 47.414L4.36 44.05h5.068v-1.285H3.54L0 46.7v4.868h1.335v-4.155zm.84 1.097l3.005-3.339h4.248v1.385H6.145L3.51 49.484v3.668H2.176v-4.64zm4.203-.669l-1.96 2.18v4.648H5.54v-3.748l1.569-1.745h2.318v-1.335h-3.05zm3.05 3.727h-.821l-.547.608v4.11H6.84V51.2l.842-.936h1.746v1.304zm11.665-1.79l2.749-3.056v6.43h7.19v-1.961h-4.815v-6.02h4.815v-3.543h1.686v-2.786l4.075-3.94V30.02h1.793v-6.326h-2.177V25.6h-1.22v1.913h-1.056V25.6h-1.415v-1.906h-2.115v6.326h1.76v3.205l-4.069 4.527v3.927h-3.53l-3.671 4.084-3.672-4.084h-3.53V37.75l-4.069-4.527v-3.205h1.76v-6.326H9.467V25.6H8.053v1.913H6.997V25.6h-1.22v-1.906H3.6v6.326h1.793v4.885l4.074 3.939v3.193l.697.73v10.386h1.905v-4.914h1.333v2.34h1.384v2.574h3.558v-6.429l2.749 3.056zm-9.024-4.607h2.717v1.385H12.07v-1.385z"/></svg>