<svg xmlns="http://www.w3.org/2000/svg" xmlns:xlink="http://www.w3.org/1999/xlink" width="160" height="80"><defs><path id="a" d="M0 0h143.84v47.755H0z"/></defs><g fill="none" fill-rule="evenodd" transform="translate(8 16)"><mask id="b" fill="#fff"><use xlink:href="#a"/></mask><path fill="#044DA1" d="M110.68 31.118h-5.485l-3.681-12.096h-.062l.204 12.096h-3.822V16.002h5.714l3.403 11.62h.08l-.201-11.62h3.85v15.116zm-16.982-4.19c.005.286-.023.857-.038 1.004-.235 2.516-2.035 3.796-5.335 3.796-3.314 0-5.115-1.28-5.349-3.796a12.683 12.683 0 01-.038-1.003V16h3.942v11.275c-.004.252.009.44.034.569.05.25.298 1.064 1.41 1.064 1.11 0 1.359-.813 1.411-1.062.022-.132.035-.329.035-.571V15.998h3.928v10.93zm-14.27 1.386c-.42 2.958-3.318 3.475-5.366 3.475-3.4 0-5.503-1.453-5.503-4.412l.002-1.206h4.12l.003 1.503c0 .816.575 1.316 1.463 1.316.793 0 1.257-.319 1.417-.972.075-.305.107-.75-.026-1.084-.758-1.9-6.111-2.83-6.762-5.912-.149-.698-.159-1.292-.036-2.04.452-2.794 3.133-3.374 5.29-3.374 1.93 0 3.335.421 4.178 1.264.628.629.946 1.492.946 2.565v1.102h-3.853v-.972c0-.832-.516-1.314-1.346-1.314-.737 0-1.182.327-1.327.971-.03.136-.06.452.018.768.412 1.694 6.139 2.73 6.766 5.84.08.398.19 1.25.016 2.482zm-18.37 2.96l-.092-13.262h-.067l-2.47 13.262h-3.935l-2.456-13.262h-.07l-.09 13.262h-3.9l.337-15.272h6.275l1.827 11.345h.089l1.83-11.345h6.272l.338 15.272h-3.888zm-20.175 0l-1.99-13.524h-.072l-2.04 13.524h-4.196l2.82-15.272h6.844l2.804 15.272h-4.17zm102.869-19.905c-1.956-11.23-35.7-14.735-75.373-7.828-16.66 2.902-31.705 7.183-43.42 11.999 1.799.04 3.134.453 3.944 1.261.634.634.955 1.506.955 2.592v1.113h-3.89v-.984c0-.82-.491-1.327-1.362-1.327-.732 0-1.183.33-1.328.98-.04.182-.052.493.017.777.416 1.702 6.192 2.758 6.821 5.9.083.403.194 1.267.019 2.505-.36 2.533-2.586 3.51-5.42 3.51-3.952 0-5.558-1.873-5.558-4.454l.002-1.222h4.17l.003 1.522c0 .855.62 1.328 1.468 1.328.802 0 1.27-.323 1.433-.985.076-.304.108-.75-.028-1.093-.772-1.936-6.167-2.841-6.83-5.971-.148-.704-.16-1.303-.038-2.06.067-.41.193-.76.345-1.083C6.686 23.927-.916 30.614.088 36.387 2.047 47.618 35.79 51.12 75.461 44.213c17.44-3.036 33.116-7.58 45.05-12.672-.174.009-.341.027-.52.027-2.715 0-5.14-1.017-5.391-3.793a10.238 10.238 0 01-.055-1.005l.001-6.38c0-.274.032-.757.063-1.007.323-2.682 2.443-3.787 5.382-3.787 2.275 0 5.064.652 5.37 3.79.041.394.037.814.036.952v.603h-3.93v-.899c0-.02-.005-.356-.049-.566-.064-.32-.337-1.062-1.456-1.062-1.106 0-1.392.744-1.464 1.063-.04.176-.06.428-.06.707v6.934c-.004.241.008.429.033.568.019.11.217 1.064 1.503 1.064 1.279 0 1.475-.954 1.493-1.064.034-.188.038-.412.036-.568V24.97h-1.546v-2.314h5.467v4.116a9.72 9.72 0 01-.053 1.003 3.869 3.869 0 01-.655 1.871c12.66-6.008 20.027-12.587 19.036-18.277z" mask="url(#b)"/></g></svg>