<svg xmlns="http://www.w3.org/2000/svg" xmlns:xlink="http://www.w3.org/1999/xlink" width="160" height="80"><defs><path id="a" d="M0 .463h29.77v24.814H0z"/><path id="c" d="M.463.286h35.134V25.1H.463z"/></defs><g fill="none" fill-rule="evenodd"><path fill="#231F20" d="M149.622 51.552a1.919 1.919 0 01-1.921-1.927c0-1.057.857-1.915 1.92-1.915 1.059 0 1.917.858 1.917 1.915 0 1.07-.858 1.927-1.916 1.927m0-4.104a2.183 2.183 0 100 4.367 2.18 2.18 0 002.178-2.19c0-1.2-.972-2.177-2.178-2.177"/><path fill="#231F20" d="M149.565 49.489h-.458v-.864h.698c.303 0 .635.046.635.423 0 .497-.533.44-.875.44m1.177-.434c0-.206-.09-.423-.273-.526-.184-.109-.39-.12-.595-.12h-1.063v2.44h.296v-1.125h.55l.697 1.126h.355l-.738-1.126c.434-.012.771-.189.771-.669m-13.923-11.802l4.466-4.768c.258-.35.388-.595.388-.805 0-.35-.302-.49-1.248-.49h-1.127v-3.01h12.196v3.01h-1.604c-1.85 0-2.194.28-4.776 3.535l-7.065 7.628v4.656c0 1.191.603 1.61 2.325 1.61h2.667v2.905h-17.082v-2.905h2.669c1.72 0 2.323-.419 2.323-1.61v-4.656l-8.32-9.203c-1.377-1.61-1.186-1.96-5.015-1.96v-3.01h15.45v3.01h-1.102c-1.119 0-1.593.21-1.593.63 0 .35.345.63.56.91l4.21 4.587c.498.52 1.108.588 1.678-.064"/><g transform="translate(8.5 26.98)"><mask id="b" fill="#fff"><use xlink:href="#a"/></mask><path fill="#231F20" d="M24.672 1.197h3.726v8.4h-3.441c-.305-1.68-1.355-2.333-2.314-3.214-1.73-1.588-5.473-2.91-8.622-2.91-4.064 0-7.494 1.26-7.494 3.114 0 5.145 23.243 1.05 23.243 10.78 0 5.075-4.978 7.91-13.92 7.91-3.095 0-7.779-.96-10.542-2.428-.867-.501-1.235.472-1.396 1.692H.09v-8.68h3.455c.762 2.206 1.812 2.66 2.778 3.536 1.676 1.54 5.665 2.66 9.324 2.624 5.514-.053 7.412-1.26 7.412-3.01 0-1.75-1.876-2.17-7.921-3.114l-5.131-.84C4.216 14.182 0 12.887 0 8.267 0 3.472 5.334.463 13.768.463c3.553 0 6.528.474 9.38 2.088.793.513 1.534.575 1.524-1.354" mask="url(#b)"/></g><path fill="#231F20" d="M105.894 42.24l.075-9.335c0-1.225-.637-1.645-2.458-1.645h-2.14v-2.904h13.611v2.904h-1.774c-1.822 0-2.46.42-2.46 1.645v18.794l-5.328-.041L88.168 35.32v11.864c0 1.191.638 1.645 2.458 1.645h2.368v2.87H78.86v-2.87h2.342c1.82 0 2.458-.454 2.458-1.645v-14.28c0-1.224-.637-1.644-2.458-1.644H78.86v-2.904h12.222l14.812 13.884z"/><g transform="translate(42.202 26.98)"><mask id="d" fill="#fff"><use xlink:href="#c"/></mask><path fill="#231F20" d="M17.854 22.055c-6.004 0-9.456-3.465-9.456-9.45 0-5.844 3.602-9.31 9.755-9.31 5.904 0 9.357 3.536 9.357 9.555 0 5.88-3.502 9.205-9.656 9.205m.247-21.77C7.253.286.463 5.082.463 12.782c0 7.56 6.696 12.32 17.308 12.32 11.27 0 17.826-4.69 17.826-12.706 0-7.209-7.075-12.11-17.496-12.11" mask="url(#d)"/></g></g></svg>