<svg xmlns="http://www.w3.org/2000/svg" width="160" height="80"><g fill="none" fill-rule="evenodd"><path fill="#4BCAD5" d="M43.496 46.451c0-1.5.012-3-.008-4.499-.005-.363.109-.456.458-.45 1.113.02 2.228.027 3.341.002 2.555-.059 4.65-1.06 6.11-3.186 1.208-1.76 1.54-3.74 1.212-5.837-.286-1.83-1.083-3.38-2.564-4.525-1.666-1.287-3.582-1.712-5.64-1.433-2.534.342-4.494 1.606-5.786 3.837-.65 1.12-.95 2.344-.964 3.634-.012 1.114-.01 2.228.004 3.342.004.295-.083.392-.386.39-3.013-.01-6.027-.01-9.04 0-.3 0-.39-.091-.387-.392.017-1.456-.036-2.915.024-4.37.13-3.102 1.102-5.949 2.821-8.525 2.19-3.282 5.171-5.569 8.895-6.867 2.772-.967 5.621-1.156 8.522-.77 3.275.434 6.19 1.698 8.698 3.842 2.026 1.732 3.519 3.867 4.49 6.354.778 1.994 1.173 4.06 1.238 6.208.163 5.407-1.752 9.939-5.674 13.62-2.183 2.05-4.782 3.37-7.687 4.08-1.518.37-3.07.455-4.628.46-.828.003-1.656.001-2.485 0-.565 0-.565-.001-.565-.545l.001-4.37z"/><path fill="#4BCAD5" d="M39.992 52.303c0 3.557-.005 7.114.007 10.67.002.36-.067.489-.463.486-2.486-.02-4.971-.008-7.457-.013-1.442-.002-2.54-1.102-2.542-2.541-.003-2.929-.008-5.857.006-8.786.002-.38-.08-.504-.487-.502-2.943.019-5.886.011-8.828.008-1.452-.002-2.49-1.136-2.474-2.579.029-2.498.011-4.998-.014-7.498-.003-.38.167-.376.438-.376 5.4.004 10.8.003 16.2.003 1.713 0 3.428.016 5.142-.011.423-.007.48.146.478.511-.01 3.542-.007 7.085-.006 10.628z"/><path fill="#000" fill-rule="nonzero" d="M80.275 48.744c0-2.314.001-4.627-.002-6.94 0-.203.016-.385.15-.56 2.253-2.925 7.247-4.265 10.622-1.502 2.15 1.76 2.975 4.905 1.998 7.667-.896 2.53-3.35 4.21-6.16 4.216-.657.002-1.314-.01-1.97.006-.25.006-.354-.046-.344-.325.022-.613.02-1.228 0-1.842-.008-.263.062-.34.33-.336.755.01 1.52.058 2.266-.035 2.229-.28 3.492-2.25 3.347-4.355-.112-1.636-.853-2.882-2.433-3.516-1.489-.597-3.446-.152-4.55 1.005-.229.24-.338.49-.338.834.012 4.355.003 8.71.016 13.066.002.362-.059.504-.456.474-.54-.04-1.084-.007-1.627-.01-.602-.002-.849-.252-.849-.865-.002-2.327 0-4.655 0-6.982zm52.863-16.234v11.725c.66-.78 1.254-1.477 1.845-2.176.94-1.111 1.88-2.225 2.822-3.335.089-.104.156-.247.328-.246h3.33l-2.88 3.274c-.78.89-1.55 1.793-2.353 2.663-.229.248-.173.366.017.58 1.89 2.122 3.77 4.252 5.652 6.38l.211.25h-3.467c-.194 0-.25-.173-.344-.287-1.643-1.976-3.282-3.956-4.922-5.934-.052-.063-.106-.124-.21-.245-.01.213-.022.36-.022.508-.002 1.857-.01 3.714.007 5.57.003.33-.09.412-.406.397-.556-.026-1.114-.006-1.671-.008-.609-.001-.856-.242-.856-.854-.004-2.586-.002-5.171-.002-7.757 0-2.871.007-5.742-.01-8.613-.001-.34.107-.504.407-.643.835-.39 1.653-.815 2.524-1.248zm-17.987 13.555v-4.67c0-.187.011-.35.138-.517 1.984-2.627 6.713-4.024 9.941-1.363 1.507 1.242 2.207 2.887 2.236 4.808.034 2.314.002 4.628.017 6.942.001.317-.108.375-.392.367-.685-.018-1.373-.037-2.056.006-.41.025-.454-.133-.451-.481.014-2.228.014-4.457.005-6.685-.007-1.725-1-3.138-2.52-3.52-1.44-.36-2.705.024-3.78 1.05-.18.172-.232.364-.232.607.007 2.843-.007 5.685.016 8.527.004.433-.123.527-.522.499-.511-.036-1.027-.008-1.541-.009-.616-.002-.857-.24-.858-.847-.002-1.572 0-3.143 0-4.714zM73.697 34.482c0 1.21.019 2.364-.01 3.517-.01.402.11.498.497.487.97-.028 1.942.002 2.913-.016.29-.006.358.086.35.36-.02.629-.023 1.258 0 1.886.012.294-.093.356-.364.352-1-.014-2 .003-3-.012-.281-.004-.396.049-.394.367.015 1.986 0 3.97.011 5.956.007 1.256.529 1.754 1.793 1.756.914 0 1.828.01 2.742-.007.267-.005.337.066.329.33-.021.628-.006 1.258-.008 1.886 0 .135.046.291-.195.285-1.497-.04-3.005.125-4.492-.079-1.996-.274-3.088-1.56-3.095-3.565-.014-3.914-.004-7.827-.004-11.74 0-.138-.04-.292.127-.375l2.8-1.388zm32.648-1.964v.495c0 6.028-.006 12.055.011 18.082.002.461-.13.574-.562.54-.482-.039-.97-.008-1.456-.01-.669-.002-.9-.23-.9-.9V36.072c0-.6.004-1.2-.002-1.8-.002-.18.014-.313.213-.41.883-.425 1.756-.872 2.696-1.343zm5.86 12.564c0 2.055-.006 4.11.006 6.166.002.29-.06.4-.372.386-.584-.026-1.17-.005-1.755-.009-.508-.004-.78-.253-.781-.75-.005-4.04-.001-8.078-.008-12.116 0-.23.072-.29.292-.286.756.011 1.513.017 2.27-.003.285-.008.357.081.355.362-.012 2.083-.007 4.167-.007 6.25zM95.52 43.563c1.758 0 3.441.002 5.125-.004.198-.001.234.081.233.254-.006.813-.008 1.627.001 2.44.002.195-.075.237-.252.236a445.704 445.704 0 00-3.469 0c-.137 0-.234-.017-.304-.164-.426-.899-.863-1.792-1.334-2.762zm15.24-8.129c-.371 0-.745-.025-1.114.007-.32.029-.497-.11-.643-.367-.438-.777-.232-1.805.488-2.396.727-.595 1.875-.577 2.568.04.706.63.874 1.645.404 2.408-.128.208-.273.334-.546.315-.384-.027-.771-.007-1.157-.007z"/></g></svg>