<svg xmlns="http://www.w3.org/2000/svg" width="80" height="80"><path fill="none" stroke="#FF7800" stroke-linecap="round" stroke-linejoin="round" stroke-width="1.5" d="M30.84 63.035l-.149-3.36a2.972 2.972 0 00-1.244-1.453c-.632-.3-1.245-.317-1.842-.05a2.49 2.49 0 00-1.444 1.153c-.299.636-.348 1.237-.15 1.805l1.942 2.957M10.68 54.061h4.082c.565-.166.996-.551 1.295-1.153a2.509 2.509 0 00.199-1.704c-.167-.635-.515-1.069-1.046-1.303-.597-.334-1.194-.401-1.792-.2l-3.385 2.155m6.123-14.939l1.046 4.01c.398.569.912.886 1.543.953.597.2 1.178.1 1.742-.3.63-.235 1.029-.686 1.195-1.354.1-.702 0-1.354-.299-1.955l-2.937-2.707m18.668 4.812l-1.444.3c-.498.268-.913.67-1.244 1.204-.167.702-.1 1.32.199 1.855.265.501.663.886 1.194 1.153.73.2 1.361.15 1.892-.15l1.145-1.003m-11.947 5.013a1.942 1.942 0 01-.647 1.353c-.432.368-.896.536-1.394.501-.565-.066-.996-.3-1.295-.701a1.838 1.838 0 01-.497-1.404c.033-.501.265-.935.697-1.303.365-.368.829-.518 1.393-.452.498.035.93.251 1.295.652.331.401.48.852.448 1.354zM26.06 34.16c.83.067 1.66.2 2.49.4.43.101.846.218 1.244.352.265.1.48.2.647.3l3.335-2.907-1.294 3.91a14.625 14.625 0 014.63 4.161l7.118-1.303-5.376 4.662c.797 2.039 1.128 4.11.996 6.216l5.724 3.308-6.272-.05c-.1.368-.183.702-.249 1.003a13.723 13.723 0 01-1.792 3.459l3.236 5.414.05.05-5.327-2.908c-1.028 1.07-2.324 1.94-3.883 2.607a3.69 3.69 0 01-.498.2L31.19 69l-3.236-4.913c-2.688.569-5.376.385-8.064-.551l-.996-.401c-.132-.1-.299-.2-.498-.3l-4.032 3.709 1.394-5.314a2.32 2.32 0 01-.349-.3c-1.725-1.337-3.086-3.059-4.081-5.164a7.137 7.137 0 01-.648-1.705l-4.679.1 4.032-2.305a14.68 14.68 0 01.598-7.57c.1-.2.199-.417.298-.652L6.2 39.974l6.173.803c.963-1.504 2.223-2.79 3.783-3.86l-1.493-4.963 3.783 3.61c1.593-.702 3.136-1.187 4.63-1.454l1.244-5.314 1.742 5.364zm16.18 30.704a73.254 73.254 0 005.077 3.033c.465.234 1.062.351 1.792.351.564 0 1.078-.117 1.543-.35 11.782-6.418 19.083-13.888 21.904-22.41C73.52 42.08 74 38.405 74 34.461V23.18c0-1.57-.48-2.89-1.444-3.96-.83-1.169-2.14-2.055-3.932-2.657l-15.98-4.662c-1.792-.601-2.97-.902-3.534-.902-.73 0-1.974.3-3.734.902l-15.83 4.662c-1.792.602-3.153 1.488-4.082 2.657-.83 1.07-1.244 2.39-1.244 3.96v2.708"/></svg>