<svg xmlns="http://www.w3.org/2000/svg" width="80" height="80"><path fill="none" stroke="#FF7800" stroke-linecap="round" stroke-linejoin="round" stroke-width="1.5" d="M12.6 36.3c.8-6.1 3.4-11.366 7.8-15.8 5.433-5.4 11.967-8.1 19.6-8.1 5.233 0 9.933 1.25 14.1 3.75M40 37.8v4.4-4.4zM34 34c1.666-1.666 3.666-2.5 6-2.5 2.367 0 4.367.834 6 2.5 1.633 1.667 2.45 3.667 2.45 6 0 2.367-.817 4.367-2.45 6-1.633 1.667-3.633 2.5-6 2.5-2.334 0-4.334-.833-6-2.5-1.667-1.633-2.5-3.633-2.5-6 0-2.333.833-4.333 2.5-6zm28.65 28.65C56.416 68.883 48.867 72 40 72c-8.834 0-16.383-3.117-22.65-9.35C11.117 56.45 8 48.9 8 40c0-8.8 3.117-16.333 9.35-22.6C23.617 11.133 31.166 8 40 8c8.867 0 16.416 3.133 22.65 9.4C68.883 23.667 72 31.2 72 40c0 8.9-3.117 16.45-9.35 22.65zm-5.6-44.4c.9.667 1.733 1.417 2.5 2.25 5.4 5.4 8.1 11.9 8.1 19.5 0 7.667-2.7 14.184-8.1 19.55-1.767 1.8-3.65 3.284-5.65 4.45a1.175 1.175 0 01-.3.2m-3.1 1.5c-.1.034-.217.083-.35.15-3.1 1.2-6.484 1.8-10.15 1.8-7.633 0-14.167-2.7-19.6-8.1-5.3-5.3-7.984-11.7-8.05-19.2m42.3-8.85c1.467 2.533 2.2 5.383 2.2 8.55 0 2.467-.45 4.75-1.35 6.85-.233.5-.483 1.017-.75 1.55A23.295 23.295 0 0151.9 52c-3.3 3.267-7.25 4.9-11.85 4.9a16.98 16.98 0 01-2.6-.2c-.6-.1-1.167-.2-1.7-.3-2.867-.7-5.434-2.166-7.7-4.4-.6-.666-1.15-1.3-1.65-1.9-.334-.5-.65-.983-.95-1.45-1.567-2.566-2.35-5.433-2.35-8.6 0-2.466.466-4.75 1.4-6.85.2-.5.483-1.016.85-1.55.667-1.267 1.566-2.45 2.7-3.55 3.3-3.3 7.3-4.95 12-4.95.833 0 1.667.067 2.5.2.567.067 1.15.167 1.75.3 2.833.733 5.366 2.217 7.6 4.45.633.634 1.2 1.283 1.7 1.95.367.5.716.983 1.05 1.45zm-5.9-12.9c.333-.166.7-.266 1.1-.3.3 0 .633.083 1 .25l5.4 3.7c.267.3.45.6.55.9.133.367.133.733 0 1.1l-.4 1.05a20.547 20.547 0 013.8 5.85h1.05c.433.034.783.167 1.05.4.266.267.433.6.5 1l1.15 6.4A1.63 1.63 0 0163.8 40c-.2.367-.467.633-.8.8l-1 .4c-.1 2.367-.6 4.634-1.5 6.8l.75.8c.233.3.367.634.4 1 .033.367-.067.717-.3 1.05l-3.65 5.3a2.14 2.14 0 01-.95.7c-.3.134-.65.134-1.05 0l-1.05-.4a21.738 21.738 0 01-5.85 3.7v1.1c-.033.367-.167.7-.4 1-.267.267-.617.434-1.05.5L41 63.95c-.4.067-.75.017-1.05-.15-.333-.2-.6-.466-.8-.8l-.4-1.05c-2.334-.1-4.6-.583-6.8-1.45l-.8.75c-.267.3-.6.45-1 .45s-.75-.133-1.05-.4l-5.3-3.65c-.367-.233-.583-.533-.65-.9-.167-.333-.183-.7-.05-1.1l.4-.95a20.922 20.922 0 01-3.7-5.9h-1.1a1.546 1.546 0 01-1-.45c-.267-.266-.45-.6-.55-1l-1.1-6.4a1.632 1.632 0 01.15-1.05c.133-.367.383-.617.75-.75l1.05-.4c.066-2.367.55-4.633 1.45-6.8l-.8-.75c-.2-.266-.317-.633-.35-1.1 0-.3.1-.633.3-1l3.7-5.35c.266-.333.567-.566.9-.7.366-.066.733-.05 1.1.05l1 .45c1.533-1.4 3.25-2.55 5.15-3.45.233-.1.45-.2.65-.3l.05-1.15c.033-.367.183-.683.45-.95.267-.3.566-.483.9-.55L38.9 16c.433-.033.817.017 1.15.15.3.2.55.45.75.75l.4 1.1h.05c2.367.133 4.617.617 6.75 1.45l.75-.85z"/></svg>