<svg xmlns="http://www.w3.org/2000/svg" width="80" height="80"><g fill="none" fill-rule="evenodd" stroke="#4E22D0" stroke-linecap="round" stroke-linejoin="round" stroke-width="1.5"><path d="M51.75 19.75h16a4 4 0 014 4v36a4 4 0 01-4 4h-56a4 4 0 01-4-4v-36a4 4 0 014-4h16"/><path d="M27.75 23.75h24v-8h-24zm16 14h12m-12 6h20m-20 6h20M31.426 37.367a5.617 5.617 0 11-11.234 0 5.617 5.617 0 0111.234 0zM25.809 47.58c2.349 0 4.514-.797 6.24-2.135 1.458 1.628 3.235 4.271 3.794 7.933.19 1.243-.764 2.372-2.022 2.372H17.797a2.055 2.055 0 01-2.022-2.372c.56-3.662 2.336-6.305 3.794-7.933a10.149 10.149 0 006.24 2.135z"/></g></svg>