<svg xmlns="http://www.w3.org/2000/svg" width="80" height="80"><path fill="none" stroke="#4E22D0" stroke-linecap="round" stroke-linejoin="round" stroke-width="1.5" d="M23.25 55.1h33-33zm0 14.9h13.3-13.3zm-6.149 0h6.149V55.1h-6.149V70zM42.7 70h13.35H42.7zm-6.15 0h6.15V55.1h-6.15V70zm25.6-14.9h-6.1V70h6.1V55.1zM54 33.6H25.351 54zm2.05 4.1h-32.8 32.8zM29.351 51h20.5-20.5zM11 70h6.101V55.1H12V51h17.351l10.25-10.25L49.851 51h6.199m-32.8-.5V37.7h-5.1v-4.1h7.201c0-4 1.399-7.4 4.199-10.2 2.801-2.8 6.167-4.2 10.1-4.2m0-5.001h6.149V10H39.65v4.199zm0 .001v5c3.967 0 7.35 1.4 10.15 4.2 2.801 2.8 4.2 6.2 4.2 10.2h7.15v4.1h-5.1V51H67.3v4.1h-5.15V70h6.1"/></svg>