<svg xmlns="http://www.w3.org/2000/svg" width="80" height="80"><g fill="none" fill-rule="evenodd" stroke="#FF7800" stroke-linecap="round" stroke-linejoin="round" stroke-width="1.5"><path d="M40.75 70.75L28.03 62.8a24 24 0 01-11.28-20.352V19.75l24-9 24 9v22.698A24 24 0 0153.47 62.8l-12.72 7.95z"/><path d="M39.125 44.723c-.953-.386-1.897-1.073-2.835-2.063-4.011.803-6.301 2.48-6.869 5.03-.476 2.054-.699 3.7-.668 4.936 0 .294.054.54.161.743.046.123.147.277.3.463.353.355.783.533 1.291.533h20.444c.507 0 .938-.178 1.291-.533.154-.186.254-.34.3-.463.138-.202.207-.45.207-.743.03-1.235-.192-2.882-.668-4.936-.6-2.55-2.89-4.227-6.869-5.03-.922.99-1.867 1.677-2.835 2.063-1.091.402-2.175.402-3.25 0zm-4.728-12.048c-.21.169-.435.487-.481.579-.154.294-.23.642-.23 1.043 0 .51.153.943.46 1.299.262.355.6.54 1.014.556a7.41 7.41 0 001.245 2.294c1.199 1.437 2.651 2.156 4.357 2.156 1.69 0 3.127-.72 4.31-2.156a8.238 8.238 0 001.29-2.294c.401-.016.746-.201 1.037-.556.278-.356.415-.788.415-1.3 0-.524-.415-1.46-.921-1.621l-.041-.015-.025-.67c-.222-1.6-.814-2.96-1.78-4.083-1.202-1.447-2.674-2.17-4.414-2.17-1.709 0-3.19.723-4.439 2.17a7.075 7.075 0 00-1.733 4.084l-.071.577v.092l.007.015z"/></g></svg>