<svg xmlns="http://www.w3.org/2000/svg" width="40" height="40"><g fill="none" fill-rule="evenodd"><path stroke="#FF7800" stroke-linecap="round" stroke-linejoin="round" stroke-width="1.5" d="M19.99 11.781a3.3 3.3 0 11.001 6.598 3.3 3.3 0 010-6.598m5.32 13.241c-.332-2.143-1.283-3.953-2.588-5.022a4.495 4.495 0 01-2.83.98 4.442 4.442 0 01-2.72-.913c-1.261 1.071-2.168 2.857-2.5 4.955a.934.934 0 00.93 1.07h8.779a.934.934 0 00.929-1.07"/><path stroke="#FF7800" stroke-linecap="round" stroke-linejoin="round" stroke-width="1.5" d="M33.334 17c0 2.207-.317 4.67-.783 6.078-1.461 4.465-5.34 8.37-11.637 11.715A2.026 2.026 0 0120 35c-.33 0-.635-.069-.914-.207-6.297-3.345-10.319-7.192-11.61-11.715A21.991 21.991 0 016.666 17c.018-2.224 0-5.375 0-5.4 0-1.862 1.158-3.273 2.845-3.703.744-.19 3.614-1.018 8.61-2.483.849-.276 1.476-.414 1.88-.414.404 0 1.065.138 1.983.414 4.569 1.345 7.421 2.172 8.558 2.483 1.705.465 2.792 1.815 2.792 3.703V17z"/><path d="M0 0h40v40H0z"/></g></svg>