<svg xmlns="http://www.w3.org/2000/svg" width="80" height="80"><g fill="none" fill-rule="evenodd" stroke="#FF7800" stroke-linecap="round" stroke-linejoin="round" stroke-width="1.5"><path d="M63.75 58.75c-5.47 7.29-14.18 12-24 12-16.57 0-30-13.43-30-30s13.43-30 30-30c9.82 0 18.53 4.71 24 12"/><path d="M63.417 34.083h8.333s-6.667 6.667-6.667 13.334m-30 0H26.75c0-5 8.333-4.167 8.333-9.167a4.167 4.167 0 10-8.333 0m15-4.167s0 3.334-3.333 8.334h8.333m-1.667 5v-8.334M51.75 50.75l6.667-20m-.644 28.523l5.978-.522.522 5.976"/></g></svg>