<svg xmlns="http://www.w3.org/2000/svg" width="80" height="80"><path d="M30.087 42.36c-8.69 1.74-13.65 5.37-14.89 10.9-1.03 4.45-1.51 8.01-1.44 10.69 0 .64.11 1.17.35 1.61.1.27.31.6.64 1 .77.77 1.7 1.16 2.8 1.16h21.945m13.564-42.938c1.099.35 1.998 2.378 1.998 3.515 0 1.106-.3 2.042-.9 2.813-.631.77-1.38 1.172-2.247 1.204a17.792 17.792 0 01-2.796 4.972c-2.564 3.114-5.676 4.671-9.338 4.671-3.697 0-6.842-1.557-9.44-4.67a16.001 16.001 0 01-2.696-4.973c-.9-.032-1.631-.434-2.197-1.204-.667-.77-1-1.707-1-2.813 0-.87.167-1.623.5-2.259.1-.2.587-.888 1.043-1.256m3.893-10.332c-2.195 2.534-3.446 5.482-3.755 8.85l-.154 1.25v.2c2.366-4.9 4.903-7.8 7.61-8.7 2.47-.667 5.059.333 7.767 3 2.88 2.8 6.755 4.7 11.623 5.7l-.052-1.45c-.48-3.466-1.766-6.417-3.857-8.85-2.606-3.133-5.794-4.7-9.566-4.7-3.702 0-6.91 1.567-9.616 4.7zm35.616 37.3v16a4 4 0 01-4 4h-12a4 4 0 01-4-4v-16m-2-4h24m-8 0h-8v-3a1 1 0 011-1h6a1 1 0 011 1v3zm-1 8v10m-6-10v10" fill="none" stroke="#4E22D0" stroke-linecap="round" stroke-linejoin="round" stroke-width="1.5"/></svg>