<svg xmlns="http://www.w3.org/2000/svg" width="80" height="80"><g fill="none" fill-rule="evenodd" stroke="#FF7800" stroke-linecap="round" stroke-linejoin="round" stroke-width="1.5"><path d="M49.747 67.72h13.1c1.1 0 2.03-.39 2.8-1.16.33-.4.54-.73.64-1 .3-.44.45-.97.45-1.61.07-2.68-.41-6.24-1.44-10.69-1.3-5.53-6.26-9.16-14.89-10.9m-19.32 0c-8.69 1.74-13.65 5.37-14.89 10.9-1.03 4.45-1.51 8.01-1.44 10.69 0 .64.11 1.17.35 1.61.1.27.31.6.64 1 .77.77 1.7 1.16 2.8 1.16h13.2m22.31-42.938c1.098.35 1.997 2.378 1.997 3.516 0 1.106-.3 2.042-.9 2.813-.632.769-1.381 1.17-2.247 1.204a17.792 17.792 0 01-2.796 4.97c-2.564 3.116-5.676 4.672-9.34 4.672-3.695 0-6.84-1.556-9.438-4.671a16 16 0 01-2.696-4.971c-.9-.033-1.631-.435-2.198-1.204-.666-.771-1-1.707-1-2.813 0-.87.167-1.623.5-2.26.1-.2.588-.887 1.043-1.256m3.894-10.332c-2.194 2.535-3.446 5.483-3.755 8.85l-.154 1.25v.2c2.366-4.9 4.903-7.8 7.61-8.7 2.47-.666 5.059.334 7.767 3 2.88 2.8 6.755 4.7 11.623 5.7l-.052-1.45c-.48-3.466-1.766-6.416-3.857-8.85-2.605-3.132-5.794-4.7-9.566-4.7-3.702 0-6.91 1.568-9.616 4.7z"/><path d="M52.747 59.75c0 6.627-5.373 12-12 12s-12-5.373-12-12 5.373-12 12-12 12 5.373 12 12zm-16-4l8 8m-8 0l8-8"/></g></svg>