<svg xmlns="http://www.w3.org/2000/svg" width="80" height="80"><g fill="none" fill-rule="evenodd" stroke="#4E22D0" stroke-linecap="round" stroke-linejoin="round" stroke-width="1.5"><path d="M18.363 55.133H11.68c-2.264 0-3.668-2.462-2.523-4.418l13.894-23.508c1.146-1.92 3.915-1.92 5.047 0l3.384 5.724M21.075 65.148h46.743c3.813 0 6.178-4.146 4.238-7.428l-23.37-39.55c-1.907-3.226-6.572-3.226-8.477 0L16.837 57.72c-1.94 3.282.426 7.428 4.238 7.428z"/><path d="M47.523 32.365a3.076 3.076 0 10-6.152 0l.614 11.69a2.461 2.461 0 104.923.001l.615-11.691zm-.615 21.538a2.461 2.461 0 11-4.922 0 2.461 2.461 0 014.922 0z"/></g></svg>