<svg xmlns="http://www.w3.org/2000/svg" width="56" height="56"><defs><filter id="a" width="166.2%" height="139%" x="-33.1%" y="-19.5%" filterUnits="objectBoundingBox"><feMorphology in="SourceAlpha" radius="5" result="shadowSpreadOuter1"/><feOffset dy="10" in="shadowSpreadOuter1" result="shadowOffsetOuter1"/><feGaussianBlur in="shadowOffsetOuter1" result="shadowBlurOuter1" stdDeviation="10"/><feColorMatrix in="shadowBlurOuter1" result="shadowMatrixOuter1" values="0 0 0 0 0.0470588235 0 0 0 0 0.0196078431 0 0 0 0 0.243137255 0 0 0 0.1 0"/><feMerge><feMergeNode in="shadowMatrixOuter1"/><feMergeNode in="SourceGraphic"/></feMerge></filter></defs><g filter="url(#a)" transform="translate(-52 -24)" fill="none" fill-rule="evenodd"><path fill="#FF7800" d="M104.634 61.63c-1.827-1.719-3.038-1.958-4.52-3.043-4.532-3.32-5.625-10.276-2.146-14.811.995-1.297 2.233-2.211 3.625-3.136 1.447-.962 2.767-2.357 3.45-3.807 1.373-2.911 1.047-6.592-1.083-9.34-2.028-2.613-5.216-3.977-8.7-3.336-1.642.303-3.025.982-4.419 2.227-1.432 1.278-1.797 2.591-3.436 4.197-2.585 2.534-5.684 3.776-9.356 3.526-1.799-.123-3.317-.55-5.125-1.57-1.944-1.098-2.704-2.412-4.202-2.754-1.556-.356-3.287.078-4.324 1.27-1.415 1.626-1.229 3.14-.614 5.084.582 1.838 1.08 3.62 1.175 5.56a17.015 17.015 0 01-.67 5.667c-.992 3.35-3.436 6.494-5.776 8.566-1.93 1.708-3.293 1.98-4.53 3.174-1.2 1.16-1.983 2.755-1.983 4.558a6.38 6.38 0 005.196 6.274c2.314.429 4.521-.625 5.211-.843 4.805-1.515 10.839-1.329 15.2-.057 3.605 1.051 6.724 2.914 9.634 5.272 1.4 1.134 2.461 2.659 3.933 3.708 3.784 2.701 10.32 3.225 14.498-2.161 2.83-3.647 3.51-9.943-1.038-14.224"/><path fill="#FFF" d="M86.662 41.957c-1.41 0-1.953 1.113-1.953 1.921v1.495c-1.455-1.957-3.42-3.26-6.106-3.26-2.192 0-4.06.883-5.608 2.648-1.546 1.765-2.32 3.896-2.32 6.392 0 2.485.774 4.61 2.32 6.376 1.547 1.774 3.416 2.661 5.608 2.661 2.878 0 4.87-1.567 6.106-3.273v1.608c0 .72.58 1.865 1.936 1.865 1.341 0 1.907-1.168 1.907-1.922v-14.59c0-1.236-1.06-1.92-1.89-1.92m-7.004 14.7c-2.938 0-5.053-2.679-5.053-5.564 0-3.048 2.178-5.552 5.053-5.552 3.103 0 5.053 2.78 5.053 5.552 0 2.93-2.081 5.565-5.053 5.565"/></g></svg>