<svg height="80" width="80" xmlns="http://www.w3.org/2000/svg"><path d="M55.199 42.961c2.301-.303 4.25-1.214 5.851-2.731.266-.27.882-.995 1.849-2.175-.967-.91-1.583-1.45-1.849-1.618-1.601-1.282-3.55-1.788-5.851-1.517-2.3.269-4.267 1.23-5.899 2.882-.234.203-.868.894-1.901 2.074 1.033.91 1.667 1.467 1.901 1.669 1.632 1.146 3.599 1.618 5.899 1.416zM19.05 40.23c-.333-.27-.967-.995-1.901-2.175.934-.91 1.568-1.45 1.901-1.618 1.599-1.282 3.549-1.788 5.849-1.517 2.234.269 4.2 1.23 5.901 2.882.2.203.799.894 1.799 2.074-1 .91-1.599 1.467-1.799 1.669-1.701 1.146-3.667 1.618-5.901 1.416-2.3-.303-4.25-1.214-5.849-2.731zm23.7-16.336c.232-.068.449-.101.649-.101A68.523 68.523 0 0046 23.54a76.18 76.18 0 006.349-1.113c2.201-.438 4.684-.539 7.451-.303 2.033.27 3.932.943 5.7 2.023.833.54 1.649 1.18 2.449 1.922C71.316 29.339 73 33.538 73 38.662c0 5.091-1.684 9.592-5.051 13.504a30.23 30.23 0 01-2.449 2.58c-2.734 2.394-5.783 3.793-9.151 4.197-4.066.473-8.099-2.007-12.099-7.434-.268-.473-.551-.81-.851-1.012a3.045 3.045 0 00-.649-.657c-.901-.91-1.818-1.315-2.75-1.214-1.033-.035-2.068.438-3.101 1.416-.399.371-.8.86-1.2 1.467-3.967 5.427-7.967 7.907-12 7.434-3.333-.404-6.333-1.736-9-3.995a26.976 26.976 0 01-2.75-2.782c-2.033-2.428-3.433-5.058-4.199-7.89-.5-1.787-.75-3.658-.75-5.614s.25-3.776.75-5.462c.766-2.731 2.166-5.108 4.199-7.131.9-.81 1.817-1.484 2.75-2.023a14.55 14.55 0 015.551-1.922c2.766-.236 5.25-.135 7.449.303a74.04 74.04 0 006.25 1.113c1 .135 1.983.22 2.95.253 1.033.135 2.068.169 3.101.1.932.069 1.849.069 2.75 0z" fill="none" stroke="#ff4652" stroke-linecap="round" stroke-linejoin="round" stroke-width="1.5"/></svg>