<svg height="898" width="898" xmlns="http://www.w3.org/2000/svg"><path d="M772.004 555.147c-72.86-53.173-90.179-164.896-34.638-237.188 16.125-20.91 35.833-35.25 57.93-50.186 23.291-15.533 44.194-37.64 55.54-60.94 22.098-46.6 16.723-105.748-17.318-149.96-32.25-41.821-83.61-63.927-139.152-53.173-26.277 4.78-48.374 15.534-71.068 35.847-22.694 20.314-28.666 41.822-54.944 67.512-41.208 40.627-90.777 60.343-149.9 56.758-28.667-1.792-53.153-8.962-81.82-25.093-31.054-17.326-43.596-38.834-67.485-44.211-25.083-5.975-52.554 1.195-69.276 20.313-22.695 26.288-19.709 50.186-9.556 81.253 9.556 29.275 17.32 57.953 19.111 89.02 1.792 30.47-1.792 61.538-10.75 90.813-16.125 53.77-54.944 103.956-92.568 137.413-31.055 27.483-52.555 31.665-72.86 50.784C13.542 582.032 1 607.722 1 636.4c0 50.186 35.833 92.007 83.013 100.372 37.027 7.17 72.263-10.157 83.61-13.742 77.04-24.495 173.79-21.508 243.664-1.195 57.93 16.73 107.498 46.602 154.081 84.241 22.694 17.923 39.416 42.419 63.305 59.148 60.916 43.016 165.428 51.978 232.316-34.653 45.389-57.355 56.139-158.324-16.722-226.433-29.263-27.483-48.374-31.665-72.263-48.991z" fill="#f8f8fc" fill-rule="evenodd"/></svg>