<svg xmlns="http://www.w3.org/2000/svg" width="80" height="80" fill="none"><path stroke="#FF7800" stroke-linecap="round" stroke-linejoin="round" stroke-width="1.5" d="M57.2 55.594l2.908 2.796 1.504 1.548L69.585 52"/><path stroke="#FF7800" stroke-linecap="round" stroke-linejoin="round" stroke-width="1.5" d="M63.025 42c3.824 0 7.11 1.337 9.856 4.014C75.627 48.854 77 52.148 77 55.902c0 3.884-1.373 7.18-4.12 9.887C70.136 68.597 66.85 70 63.026 70c-3.923 0-7.258-1.403-10.004-4.21-1.93-1.926-3.155-4.162-3.678-6.706a14.887 14.887 0 01-.343-3.182c0-3.754 1.34-7.049 4.021-9.888 2.648-2.579 5.786-3.916 9.415-4.014h.589z" clip-rule="evenodd"/><path stroke="#FF7800" stroke-linecap="round" stroke-linejoin="round" stroke-width="1.5" d="M7 21.982v33.943c0 3.327 1.672 4.992 5.014 4.992h34.547"/><path stroke="#FF7800" stroke-linecap="round" stroke-linejoin="round" stroke-width="1.5" d="M17.98 15.942v1.547-1.547zm-4.512 0v1.547-1.547z" clip-rule="evenodd"/><path fill="#FF7800" fill-rule="evenodd" d="M26.156 28.75a.75.75 0 01.75-.75h5.014a.75.75 0 01.75.75v20.266h3.865V33.742a.75.75 0 01.75-.75H42.3a.75.75 0 01.75.75v15.274h3.815v-18.02a.75.75 0 01.75-.75h5.014a.75.75 0 01.75.75V41.93a.75.75 0 01-1.5 0V31.746h-3.514v18.02a.75.75 0 01-.75.75H12.566a.75.75 0 110-1.5h3.261V38.733a.75.75 0 01.75-.75h5.014a.75.75 0 01.75.75v10.283h3.815V28.75zm11.88 20.266h3.513V34.492h-3.514v14.524zM27.655 29.5v19.516h3.514V29.5h-3.514zM20.84 49.016h-3.514v-9.533h3.514v9.533z" clip-rule="evenodd"/><path stroke="#FF7800" stroke-linecap="round" stroke-linejoin="round" stroke-width="1.5" d="M22.443 15.942v1.547-1.547zm40.715 23.16v-17.12 17.12zm0-23.11c0-3.328-1.67-4.992-5.014-4.992h-46.13C8.672 11 7 12.664 7 15.992v5.99h56.158v-5.99z" clip-rule="evenodd"/></svg>