<svg xmlns="http://www.w3.org/2000/svg" width="80" height="80" fill="none"><path stroke="#4E22D0" stroke-linecap="round" stroke-linejoin="round" stroke-width="1.5" d="M66.76 17.75H12.79h53.97zM12.791 52.351h37.001-37.001zm48.497 0h5.472-5.472z" clip-rule="evenodd"/><path stroke="#4E22D0" stroke-linecap="round" stroke-linejoin="round" stroke-width="1.5" d="M76.75 62.55l-7.23-3.1H9.83l-7.079 3.1"/><path stroke="#4E22D0" stroke-linecap="round" stroke-linejoin="round" stroke-width="1.5" d="M4.406 65.75h70.838c.603 0 1.105-.233 1.506-.7v-2.5H47.282l-1.004 1H33.225l-1.004-1H2.75v2.5c.535.467 1.087.7 1.655.7zm62.354-52H12.79c-1.773 0-2.659.884-2.659 2.65v37.35c0 1.733.886 2.601 2.66 2.601H66.76c1.74 0 2.611-.868 2.611-2.601V16.4c0-1.766-.871-2.65-2.611-2.65z" clip-rule="evenodd"/><path stroke="#4E22D0" stroke-linecap="round" stroke-linejoin="round" stroke-width="1.5" d="M49.64 42.101a9.778 9.778 0 01-1.456 1.7c-.502.533-1.037 1-1.607 1.4l3.063-3.1z" clip-rule="evenodd"/><path stroke="#4E22D0" stroke-linecap="round" stroke-linejoin="round" stroke-width="1.5" d="M27.5 35.25c0-3.333 1.188-6.166 3.565-8.5 2.343-2.366 5.187-3.55 8.535-3.55 3.38 0 6.242 1.184 8.584 3.55 2.376 2.334 3.565 5.167 3.565 8.5 0 2.566-.702 4.851-2.109 6.851l7.581 7.599c.4.366.637.85.703 1.45 0 .6-.234 1.133-.703 1.6-.502.5-1.004.733-1.506.7-.568.033-1.07-.2-1.506-.7l-7.632-7.55c-2.008 1.434-4.334 2.151-6.977 2.151-3.348 0-6.192-1.184-8.535-3.551-2.377-2.333-3.566-5.183-3.566-8.55z" clip-rule="evenodd"/><path stroke="#4E22D0" stroke-linecap="round" stroke-linejoin="round" stroke-width="1.5" d="M31.818 35.25c-.033-2.1.737-3.934 2.31-5.5 1.54-1.434 3.38-2.166 5.522-2.2"/></svg>