<svg xmlns="http://www.w3.org/2000/svg" width="80" height="80" fill="none"><path stroke="#4E22D0" stroke-linecap="round" stroke-linejoin="round" stroke-width="1.5" d="M31.612 67.504h19.121-19.121zm6.29-35.077c.866-.86 1.965-1.289 3.295-1.289 1.299 0 2.38.43 3.246 1.289.931.924 1.398 2.048 1.398 3.37 0 .726-.167 1.404-.5 2.031-.232.43-.533.826-.898 1.19-.866.89-1.947 1.338-3.245 1.338-1.331 0-2.43-.447-3.296-1.338a5.076 5.076 0 01-.898-1.19v-.05a4.54 4.54 0 01-.45-1.981c0-1.322.45-2.446 1.348-3.37zm-14.678-6.245c0 .628-.134 1.222-.4 1.784a4.53 4.53 0 01-.798 1.04c-.766.794-1.697 1.19-2.796 1.19-1.165 0-2.13-.396-2.895-1.19-.333-.33-.6-.676-.8-1.04v-.05a4.008 4.008 0 01-.399-1.734c0-1.156.4-2.132 1.199-2.924.764-.76 1.73-1.14 2.895-1.14 1.099 0 2.03.38 2.796 1.14.799.792 1.198 1.768 1.198 2.924z" clip-rule="evenodd"/><path stroke="#4E22D0" stroke-linecap="round" stroke-linejoin="round" stroke-width="1.5" d="M24.123 44.27l-4.893 8.624L7.248 31.98C6.416 30.23 6 28.297 6 26.182c0-3.667 1.281-6.79 3.844-9.366C12.407 14.272 15.536 13 19.23 13c3.628 0 6.723 1.272 9.286 3.816.9.892 1.648 1.85 2.247 2.874"/><path stroke="#4E22D0" stroke-linecap="round" stroke-linejoin="round" stroke-width="1.5" d="M51.882 25.092c2.962 2.94 4.443 6.509 4.443 10.705 0 2.445-.55 4.708-1.648 6.789l-13.48 23.738-13.68-23.887c-.965-2.015-1.447-4.229-1.447-6.64 0-4.196 1.465-7.764 4.393-10.705 2.962-2.907 6.54-4.361 10.734-4.361s7.756 1.454 10.685 4.361z" clip-rule="evenodd"/><path stroke="#4E22D0" stroke-linecap="round" stroke-linejoin="round" stroke-width="1.5" d="M54.278 21.82a7.1 7.1 0 01.799-.941c2.063-2.015 4.543-3.024 7.439-3.024 2.895 0 5.358 1.009 7.389 3.024C71.969 22.928 73 25.405 73 28.312c0 1.718-.383 3.288-1.148 4.708l-9.336 16.503-3.595-6.343"/><path stroke="#4E22D0" stroke-linecap="round" stroke-linejoin="round" stroke-width="1.5" d="M62.516 25.092a3.17 3.17 0 012.246.892c.632.627.949 1.404.949 2.33 0 .495-.1.974-.3 1.436a4.492 4.492 0 01-.649.793c-.633.628-1.382.941-2.246.941-.932 0-1.698-.313-2.297-.94a6.17 6.17 0 01-.599-.794v-.05c-.2-.462-.3-.924-.3-1.387 0-.924.3-1.701.9-2.329.598-.595 1.364-.892 2.296-.892z" clip-rule="evenodd"/></svg>