<svg xmlns="http://www.w3.org/2000/svg" width="80" height="80" fill="none"><path stroke="#4E22D0" stroke-linecap="round" stroke-linejoin="round" stroke-width="1.5" d="M56.157 37.342c3.32 0 6.129 1.173 8.428 3.515 2.334 2.31 3.5 5.115 3.5 8.415 0 2.54-.69 4.801-2.07 6.781l7.295 7.33c.46.396.69.875.69 1.435a2.338 2.338 0 01-.69 1.584c-.427.43-.92.628-1.479.594a1.776 1.776 0 01-1.478-.594l-7.345-7.28c-1.971 1.42-4.256 2.129-6.851 2.129-3.286 0-6.08-1.171-8.38-3.514l-.147-.15c-1.643-1.682-2.679-3.629-3.105-5.84a12.178 12.178 0 01-.247-2.475c0-2.21.526-4.208 1.577-5.99a13.284 13.284 0 011.923-2.425c2.037-2.08 4.453-3.233 7.245-3.465.362-.033.74-.05 1.134-.05z" clip-rule="evenodd"/><path stroke="#4E22D0" stroke-linecap="round" stroke-linejoin="round" stroke-width="1.5" d="M66.015 56.054a9.635 9.635 0 01-1.43 1.683c-.492.527-1.018.99-1.577 1.386m-14.491-9.851c-.033-1.749.51-3.3 1.627-4.652.197-.266.41-.513.64-.743v-.05c1.512-1.42 3.32-2.145 5.422-2.177"/><path stroke="#4E22D0" stroke-linecap="round" stroke-linejoin="round" stroke-width="1.5" d="M15.187 36.272h9.053-9.053zm0 5.048h9.053-9.053zm0 5.048h9.053-9.053zm0 5.048h9.053-9.053z" clip-rule="evenodd"/><path stroke="#4E22D0" stroke-linecap="round" stroke-linejoin="round" stroke-width="1.5" d="M66.337 37.23v-9.086H9v29.784c0 1.808.706 2.524 2.515 2.524H44.71"/><path stroke="#4E22D0" stroke-linecap="round" stroke-linejoin="round" stroke-width="1.5" d="M66.2 21.747c0-1.77-.869-2.655-2.604-2.655H11.79c-1.77 0-2.653.885-2.653 2.655v6.363h57.062v-6.363z" clip-rule="evenodd"/><path stroke="#4E22D0" stroke-linecap="round" stroke-linejoin="round" stroke-width="1.5" d="M61.91 15.675c0-1.784-.871-2.675-2.615-2.675H15.69c-1.777 0-2.665.892-2.665 2.675"/><path stroke="#4E22D0" stroke-linecap="round" stroke-linejoin="round" stroke-width="1.5" d="M55.272 22.894v1.704-1.704zm5.029 0v1.704-1.704z" clip-rule="evenodd"/></svg>