<svg xmlns="http://www.w3.org/2000/svg" width="80" height="80" fill="none"><path stroke="#FF7800" stroke-linecap="round" stroke-linejoin="round" stroke-width="2" d="M39.959 42c1.504 0 2.92.272 4.244.818a10.865 10.865 0 013.61 2.413c2.165 2.194 3.247 4.834 3.247 7.92 0 2.536-.831 4.932-2.494 7.188C45.85 64.022 42.98 67.243 39.96 70c-3.021-2.757-5.89-5.978-8.607-9.661-1.663-2.256-2.495-4.651-2.495-7.187 0-3.087 1.082-5.727 3.247-7.92a10.793 10.793 0 013.593-2.414c1.32-.546 2.74-.819 4.262-.819z" clip-rule="evenodd"/><path stroke="#FF7800" stroke-linecap="round" stroke-linejoin="round" stroke-width="2" d="M24.805 58.317c-.407.386-.816.768-1.228 1.144-3.424-3.126-6.673-6.777-9.75-10.955-1.885-2.55-2.827-5.264-2.827-8.14 0-3.502 1.227-6.49 3.683-8.966 1.191-1.2 2.543-2.114 4.056-2.739s3.126-.938 4.838-.938c1.711 0 3.312.313 4.8.938.489.199.96.424 1.414.675m20.419 0c.453-.25.924-.476 1.413-.675 1.488-.625 3.089-.938 4.8-.938 1.712 0 3.325.313 4.838.938s2.865 1.538 4.056 2.739C67.773 33.876 69 36.864 69 40.366c0 2.876-.942 5.59-2.828 8.14-3.076 4.178-6.325 7.83-9.749 10.955a87.545 87.545 0 01-1.228-1.144"/><path stroke="#FF7800" stroke-linecap="round" stroke-linejoin="round" stroke-width="2" d="M39.958 26.361c1.602 0 2.965.57 4.093 1.706 1.128 1.137 1.69 2.507 1.69 4.11 0 1.614-.562 2.987-1.69 4.118C42.923 37.432 41.559 38 39.958 38c-1.59 0-2.947-.568-4.075-1.705-1.127-1.13-1.69-2.504-1.69-4.118 0-1.603.563-2.973 1.69-4.11 1.128-1.137 2.486-1.706 4.075-1.706zm16.465-16.346c1.812 0 3.35.65 4.615 1.952 1.264 1.275 1.897 2.825 1.897 4.651 0 1.826-.633 3.377-1.897 4.653-1.266 1.3-2.803 1.95-4.615 1.95-1.81 0-3.361-.65-4.65-1.95-1.266-1.277-1.899-2.827-1.899-4.653 0-1.825.633-3.376 1.898-4.651 1.29-1.301 2.84-1.952 4.651-1.952zM23.552 10c1.815 0 3.36.642 4.633 1.927 1.28 1.29 1.92 2.842 1.92 4.655 0 1.83-.64 3.385-1.92 4.664-1.274 1.29-2.818 1.935-4.633 1.935-1.804 0-3.343-.644-4.617-1.935-1.28-1.279-1.919-2.833-1.919-4.663 0-1.814.64-3.366 1.92-4.656C20.208 10.642 21.747 10 23.551 10z" clip-rule="evenodd"/></svg>