<svg height="60" width="60" xmlns="http://www.w3.org/2000/svg"><g fill="none" fill-rule="evenodd"><rect fill="#4e22d0" height="60" rx="10" width="60"/><path d="M29.786 18.594a5.89 5.89 0 015.891 5.89l-.003.357c-.004.25-.012.528-.024.832l-.021.475a5.89 5.89 0 00.413 2.47l.581 1.467c.228.578.437 1.114.628 1.608.436 1.128.893 2.653 1.372 4.573l-1.756-1.04a7.53 7.53 0 01-14.162 0l-1.755 1.04c.45-1.797.879-3.248 1.29-4.352l.319-.832c.164-.423.34-.873.529-1.35l.443-1.117a5.89 5.89 0 00.413-2.467l-.03-.698a28.346 28.346 0 01-.019-.965 5.89 5.89 0 015.891-5.891zm0 3.527c-1.145-.559-2.925-.559-3.779.943-.674 1.185-.674 2.256 0 3.216-1.011 1.86-1.536 3.35-1.536 5.077 0 3.435 1.95 6.219 5.315 6.219s5.223-2.784 5.223-6.219c0-1.727-.369-3.217-1.443-5.077.716-.96.716-2.031 0-3.216-.884-1.462-2.634-1.502-3.78-.943zm1.146 4.327l.623.178a.262.262 0 01.08.465l-1.468 1.05a.655.655 0 01-.761 0l-1.469-1.05a.262.262 0 01.08-.465l.624-.178a4.17 4.17 0 012.29 0z" stroke="#fff" stroke-linecap="round" stroke-linejoin="round" stroke-width="1.5"/><path d="M45.1 27.346V15.944C40.098 13.314 35.061 12 29.989 12c-5.324 0-10.487 1.315-15.489 3.944v11.402c0 2.391.292 4.636.881 6.724 1.698 5.223 6.16 9.784 13.399 13.677.302.167.645.253 1.033.253.387 0 .73-.086 1.032-.253 7.238-3.893 11.701-8.454 13.399-13.677.569-2.088.856-4.333.856-6.724z" stroke="#fff" stroke-linecap="round" stroke-linejoin="round" stroke-width="1.5"/><path d="M32.077 23.83a.655.655 0 110 1.31.655.655 0 010-1.31zm-4.582 0a.655.655 0 110 1.31.655.655 0 010-1.31z" fill="#fff"/></g></svg>