<svg height="60" width="60" xmlns="http://www.w3.org/2000/svg"><g fill="none" fill-rule="evenodd"><rect fill="#4e22d0" height="60" rx="10" width="60"/><path d="M30.168 11.4c5.202 0 10.369 1.343 15.5 4.03v11.65c0 2.445-.295 4.739-.879 6.873-1.741 5.337-6.319 9.997-13.743 13.975-.31.17-.661.259-1.06.259a2.15 2.15 0 01-1.058-.259c-7.425-3.978-12.003-8.638-13.744-13.975-.604-2.134-.904-4.428-.904-6.872V15.43c5.13-2.687 10.426-4.03 15.888-4.03zm-6.236 16.725l4.191 4.5c.308.185.606.185.894 0l7.582-7.86" stroke="#fff" stroke-linecap="round" stroke-linejoin="round" stroke-width="1.5"/></g></svg>