<svg height="60" width="60" xmlns="http://www.w3.org/2000/svg"><g fill="none" fill-rule="evenodd"><rect fill="#4e22d0" height="60" rx="10" width="60"/><path d="M30.168 11.4c5.202 0 10.369 1.343 15.5 4.03v11.65c0 2.445-.295 4.739-.879 6.873-1.741 5.337-6.319 9.997-13.743 13.975-.31.17-.661.259-1.06.259a2.15 2.15 0 01-1.058-.259c-7.425-3.978-12.003-8.638-13.744-13.975-.604-2.134-.904-4.428-.904-6.872V15.43c5.13-2.687 10.426-4.03 15.888-4.03zm-.107 9.636h-.093c-.103 0-.164.042-.185.124l-1.294 3.976c-.103.267-.205.442-.308.524s-.288.123-.555.123h-4.16c-.104 0-.176.041-.217.123a.23.23 0 00.093.247l3.36 2.465c.204.144.328.278.37.4.06.145.04.34-.063.586l-1.294 3.976a.23.23 0 00.092.247c.082.061.165.061.247 0l3.39-2.466c.226-.143.4-.216.524-.216h.093c.143 0 .318.073.524.216l3.42 2.466c.062.061.144.061.247 0 .082-.062.102-.144.062-.247l-1.295-3.976c-.082-.246-.103-.441-.061-.585.04-.123.164-.257.37-.4l3.39-2.466c.082-.062.102-.144.061-.247-.04-.082-.103-.123-.185-.123h-4.16c-.267 0-.463-.042-.586-.123-.103-.082-.195-.257-.277-.524l-1.295-3.976c-.04-.082-.112-.124-.215-.124z" stroke="#fff" stroke-linecap="round" stroke-linejoin="round" stroke-width="1.5"/></g></svg>