<svg height="60" width="60" xmlns="http://www.w3.org/2000/svg"><g fill="none" fill-rule="evenodd"><rect fill="#4e22d0" height="60" rx="10" width="60"/><g stroke="#fff" stroke-linecap="round" stroke-linejoin="round" stroke-width="1.5"><path d="M35.524 26.43c.041.106.02.19-.063.253L31.997 29.2c-.21.147-.336.284-.377.41-.042.146-.021.346.063.598l1.322 4.061c.042.105.02.19-.063.252-.105.063-.189.063-.252 0l-3.494-2.519c-.21-.146-.389-.22-.536-.22h-.094c-.126 0-.304.074-.535.22l-3.463 2.519c-.084.063-.169.063-.252 0a.234.234 0 01-.095-.252l1.323-4.061c.104-.252.125-.452.062-.598-.041-.126-.168-.263-.377-.41l-3.432-2.518a.234.234 0 01-.094-.252c.041-.084.115-.126.22-.126h4.25c.273 0 .462-.042.567-.126.105-.084.21-.262.315-.535l1.322-4.061c.021-.084.084-.126.189-.126h.094c.105 0 .179.042.22.126l1.323 4.06c.084.274.178.452.283.536.126.084.326.126.598.126h4.25c.084 0 .148.042.19.126z"/><path d="M35.301 12.93a30.342 30.342 0 00-6.479-.704c-5.439 0-10.713 1.343-15.822 4.028v11.647c0 2.443.298 4.737.9 6.87 1.734 5.335 6.293 9.994 13.687 13.97.309.171.659.259 1.055.259a2.15 2.15 0 001.055-.258c7.394-3.977 11.952-8.636 13.686-13.971.582-2.133.875-4.427.875-6.87v-1.983"/><path d="M47.448 12.866c1.244 1.287 1.867 2.796 1.867 4.526 0 1.788-.623 3.304-1.867 4.548-1.273 1.287-2.796 1.931-4.569 1.931h-.021c-1.76 0-3.275-.644-4.548-1.93-.872-.888-1.43-1.917-1.673-3.09a5.518 5.518 0 01-.193-1.459c0-1.73.622-3.239 1.866-4.526 1.215-1.201 2.653-1.824 4.312-1.866h.257c1.773 0 3.296.622 4.57 1.866zm-7.574 4.358h3.024m0-3.025v3.025m2.973 0h-2.973v2.973"/></g></g></svg>