<svg height="60" width="60" xmlns="http://www.w3.org/2000/svg"><g fill="none" fill-rule="evenodd"><rect fill="#4e22d0" height="60" rx="10" width="60"/><path d="M42.876 32.4c.258.026.501.132.695.303l.918.66c.271.204.554.393.848.564a3.2 3.2 0 00.85.2l1.294.18c.253.022.497.107.709.247.162.21.254.465.264.73l.194 1.265c.037.292.107.578.209.853.178.312.378.61.598.894l.625.826c.18.194.291.44.32.702-.032.26-.143.505-.32.701l-.778 1.06a4.72 4.72 0 00-.445.701 5.31 5.31 0 00-.223 1.018l-.18 1.1c-.019.26-.11.507-.264.716a1.31 1.31 0 01-.71.275l-1.125.165c-.342.046-.68.11-1.015.193-.132.075-.493.332-1.085.77a5.887 5.887 0 01-1.084.73 1.053 1.053 0 01-.473 0 1.138 1.138 0 01-.514-.276l-.973-.687a7.05 7.05 0 00-.779-.523 6.847 6.847 0 00-1.042-.207l-1.112-.137a1.77 1.77 0 01-.71-.303 1.64 1.64 0 01-.277-.715l-.167-1.1a6.226 6.226 0 00-.195-1.019 7.358 7.358 0 00-.611-.935l-.598-.826a1.282 1.282 0 01-.32-.701 1.23 1.23 0 01.32-.702l.692-.944c.186-.241.349-.499.487-.77.1-.28.166-.571.194-.867l.181-1.252c.026-.263.122-.514.278-.73.216-.13.458-.215.709-.247l1.14-.179c.35-.022.697-.091 1.029-.206.13-.074.38-.248.75-.523l1.001-.701a1.29 1.29 0 01.695-.303zM9.6 43.083l1.113-4.054a8.92 8.92 0 012.65-4.24c1.479-1.38 3.642-2.366 6.491-2.957l.32-.064m12.216.37l.662.213a11.78 11.78 0 012.91 1.31l.27.174zm-4.452-1.648a1.495 1.495 0 011.431 1.484v.027a1.484 1.484 0 01-.424.954 1.34 1.34 0 01-.892.446l-.115.004h-2.12a1.325 1.325 0 01-1.007-.45 1.383 1.383 0 01-.424-.954v-.027a1.405 1.405 0 01.424-1.033c.268-.27.627-.431 1.007-.45zm6.784-3.657a6.964 6.964 0 01-5.17 5.127l-.183.04m-6.28-.815a7.34 7.34 0 01-3.074-2.332 9.657 9.657 0 01-1.19-1.791l-.136-.276m13.648 0a9.381 9.381 0 01-1.351 2.067c-.304.374-.632.728-.981 1.06a1.712 1.712 0 00-.212.185m-5.088-1.934a2.883 2.883 0 01-2.12-.875 2.581 2.581 0 01-.53-.689m12.508-5.995c.349.008.682.15.927.398.238.222.379.525.397.847l.001.107v3.525a1.351 1.351 0 01-2.305.954 1.34 1.34 0 01-.369-.837l-.002-.117v-3.525a1.314 1.314 0 011.206-1.347l.119-.005zm-17.993-.02l.107.002c.32.022.622.162.847.395.263.246.408.594.397.954v3.525a1.351 1.351 0 11-2.703 0v-3.525a1.25 1.25 0 01.398-.954c.244-.25.578-.392.927-.397h.027v-1.04a8.867 8.867 0 018.983-8.744 8.957 8.957 0 019.008 8.745l.002.238v.822m-4.132-.006l1.72.589-.37-.106a12.386 12.386 0 01-1.138-.394zm-12.351-.79c1.498-1.85 2.867-2.999 4.108-3.444 1.378-.42 2.862.153 4.452 1.722a12.386 12.386 0 003.726 2.485l.065.027" stroke="#fff" stroke-linecap="round" stroke-linejoin="round" stroke-width="1.5"/></g></svg>