<svg height="60" width="60" xmlns="http://www.w3.org/2000/svg"><g fill="none" fill-rule="evenodd"><rect fill="#4e22d0" height="60" rx="10" width="60"/><path d="M45.788 27.08V15.43c-5.131-2.687-10.298-4.03-15.5-4.03-5.462 0-10.757 1.343-15.888 4.03v11.65c0 2.445.3 4.739.904 6.873 1.741 5.337 6.319 9.997 13.744 13.975.31.17.66.259 1.059.259.398 0 .749-.088 1.059-.259 7.424-3.978 12.002-8.638 13.743-13.975.584-2.134.879-4.428.879-6.872zM24.625 33.9H35.81v-6.974l-5.71-5.71-5.709 5.71V33.9" stroke="#fff" stroke-linecap="round" stroke-linejoin="round" stroke-width="1.5"/></g></svg>