<svg xmlns="http://www.w3.org/2000/svg" width="80" height="80" fill="none"><path stroke="#4E22D0" stroke-linecap="round" stroke-linejoin="round" stroke-width="1.5" d="M61.214 39.578c4.096-7.45 4.096-16.6 0-24.05M61.213 6c11.716 11.904 11.716 31.203 0 43.106M18.787 15.527c-4.097 7.45-4.097 16.601 0 24.052m0 9.527C7.07 37.202 7.07 17.903 18.787 6m38.386 4.105c9.483 9.637 9.483 25.26 0 34.896m0-10.253a19.211 19.211 0 000-14.389m-34.346-.003a19.215 19.215 0 000 14.394m0 10.25c-9.484-9.636-9.484-25.258 0-34.895m30.305 4.105c7.253 7.37 7.253 19.317 0 26.686m-26.264-.001c-7.252-7.369-7.252-19.316 0-26.685"/><path stroke="#4E22D0" stroke-linecap="round" stroke-linejoin="round" stroke-width="1.5" d="M42.857 37.713l4.094 34.663c.102.863-.563 1.624-1.418 1.624H34.467c-.856 0-1.52-.76-1.418-1.624l4.094-34.663h5.714z" clip-rule="evenodd"/><path stroke="#4E22D0" stroke-linecap="round" stroke-linejoin="round" stroke-width="1.5" d="M35.51 26.1l.205.002c1.577 0 2.857 1.3 2.857 2.902 0 1.604-1.28 2.903-2.858 2.903H31.43m4.08-5.807l-4.081.002v-4.355h7.143m10 4.355v5.805h-4.286c-1.578 0-2.857-1.3-2.857-2.903V24.65c0-1.603 1.279-2.903 2.857-2.903h4.286"/></svg>