<svg width="80" height="80" fill="none" xmlns="http://www.w3.org/2000/svg"><path d="M26.971 51.362c0 1.876.208 3.752.677 5.575 1.407 4.221 5.055 7.972 10.995 11.255.26.104.573.157.885.157.26 0 .521-.053.782-.157 5.992-3.23 9.64-6.982 11.098-11.255.521-1.823.73-3.7.73-5.575v-5.68c0-.729-.26-1.458-.73-1.98-.52-.625-1.198-1.094-1.98-1.302l-8.076-2.345a10.392 10.392 0 00-1.824-.469 5.838 5.838 0 00-1.875.47l-7.973 2.292c-.781.208-1.51.677-2.084 1.303-.417.573-.677 1.302-.625 1.98v5.731z" stroke="#4E22D0" stroke-width="1.5" stroke-linecap="round" stroke-linejoin="round"/><path d="M59.38 52.352c5.94 0 10.786-4.794 10.838-10.786 0-4.741-3.074-8.91-7.607-10.317.26-.729.365-1.51.365-2.292 0-3.96-3.23-7.19-7.19-7.19a6.88 6.88 0 00-2.033.312c-4.794-9.796-16.674-13.86-26.47-9.067-6.773 3.335-11.098 10.213-11.098 17.768v.626c-5.627 1.98-8.545 8.128-6.565 13.756a10.728 10.728 0 0010.16 7.19m11.515-16.413c4.586-4.585 11.985-4.585 16.518 0m-19.019-4.325c5.993-5.94 15.632-5.94 21.572 0" stroke="#4E22D0" stroke-width="1.5" stroke-linecap="round" stroke-linejoin="round"/></svg>