<svg width="105" height="105" xmlns="http://www.w3.org/2000/svg" xmlns:xlink="http://www.w3.org/1999/xlink"><defs><linearGradient x1="50%" y1="0%" x2="50%" y2="99.625%" id="c"><stop stop-color="#3A1F9E" offset="0%"/><stop stop-color="#7055FF" offset="100%"/></linearGradient><filter x="-66.7%" y="-33.3%" width="233.3%" height="233.3%" filterUnits="objectBoundingBox" id="a"><feMorphology radius="7.5" in="SourceAlpha" result="shadowSpreadOuter1"/><feOffset dy="15" in="shadowSpreadOuter1" result="shadowOffsetOuter1"/><feGaussianBlur stdDeviation="15" in="shadowOffsetOuter1" result="shadowBlurOuter1"/><feColorMatrix values="0 0 0 0 0.305882353 0 0 0 0 0.133333333 0 0 0 0 0.815686275 0 0 0 1 0" in="shadowBlurOuter1"/></filter><circle id="b" cx="52.5" cy="52.5" r="22.5"/></defs><g fill="none" fill-rule="evenodd"><path d="M0 0h105v105H0z"/><use fill="#000" filter="url(#a)" xlink:href="#b"/><use fill="url(#c)" xlink:href="#b"/><path d="M43 43h20v20H43z"/><path d="M60.179 59.96A9.93 9.93 0 0063 53c0-2.494-.907-4.85-2.566-6.689l.724-.724.68.68a.524.524 0 00.744 0 .527.527 0 000-.744l-2.105-2.105a.527.527 0 00-.744.744l.68.68-.724.724A9.928 9.928 0 0053 43a9.93 9.93 0 00-6.69 2.566l-.724-.724.68-.68a.527.527 0 00-.744-.744l-2.105 2.105a.527.527 0 00.745.744l.68-.68.724.724A9.926 9.926 0 0043 53a9.93 9.93 0 002.821 6.96l-2.141 2.141a.527.527 0 00.745.744l2.169-2.167A9.924 9.924 0 0053 63a9.92 9.92 0 006.407-2.322l2.168 2.167a.525.525 0 10.744-.744l-2.141-2.14zM44.053 53c0-4.933 4.013-8.946 8.947-8.946 4.934 0 8.947 4.013 8.947 8.946S57.934 61.946 53 61.946c-4.934 0-8.947-4.013-8.947-8.946z" fill="#FFF" fill-rule="nonzero"/><path d="M58.557 49.523a.501.501 0 00-.705-.2l-5.08 3.107-3.96-2.936a.498.498 0 00-.719.134.568.568 0 00.127.761l4.23 3.136.001.003.028.018.007.005.027.016.007.003.032.016.02.007.013.006.021.006.013.004.022.005.013.002.022.004c.005 0 .01 0 .015.002a.238.238 0 00.046.003h.007c.02 0 .039-.001.059-.003h.003a.335.335 0 00.055-.011l.006-.001a.409.409 0 00.051-.017c.003 0 .006-.002.008-.003a.377.377 0 00.048-.022l.011-.006.017-.01 5.365-3.28a.565.565 0 00.189-.746v-.003z" fill="#FFF" fill-rule="nonzero"/></g></svg>