<svg xmlns="http://www.w3.org/2000/svg" width="80" height="80" fill="none"><path stroke="#FF7800" stroke-linecap="round" stroke-linejoin="round" stroke-width="1.5" d="M43.525 23.15c-.877-2.755-2.51-5.222-4.9-7.4a18.136 18.136 0 00-4.35-3c-2.767-1.367-5.833-2.05-9.2-2.05-5.3 0-9.833 1.683-13.6 5.05-3.7 3.433-5.55 7.583-5.55 12.45 0 1.833.266 3.567.8 5.2.466 1.3 1.083 2.55 1.85 3.75.366.5.733.983 1.1 1.45l-2.15 8.1 7.9-3.35c.6.3 1.216.6 1.85.9.333.133.667.25 1 .35 2.067.733 4.333 1.1 6.8 1.1.958 0 1.891-.058 2.8-.175m35.3 2.925v.9m-10.4-.9v.9m-10.45-.9v.9m-4.15-23.5c-5.1 0-7.65 2.55-7.65 7.65v20c0 5.1 2.55 7.65 7.65 7.65h25.9l7.7 7.65c.333.333.7.5 1.1.5.4 0 .783-.167 1.15-.5.333-.3.5-.683.5-1.15V33.5c0-4.933-2.384-7.483-7.15-7.65h-29.2z"/></svg>