<svg xmlns="http://www.w3.org/2000/svg" width="80" height="80" fill="none"><path stroke="#FF7800" stroke-linecap="round" stroke-linejoin="round" stroke-width="1.5" d="M8 30.6l19.85-19.75c.6-.567 1.267-.85 2-.85.733 0 1.367.25 1.9.75l18.5 18.5m-10.8 33h-7.1m0 0c0 .667-.25 1.35-.75 1.85s-1.083.75-1.75.75c-.7 0-1.283-.25-1.75-.75-.5-.5-.75-1.183-.75-1.85m5 0c0-.633-.25-1.183-.75-1.65-.5-.5-1.083-.75-1.75-.75m-2.5 2.4H10.5m16.85 0c0-.633.25-1.183.75-1.65.467-.5 1.05-.75 1.75-.75m15.5-29.2L29.85 15.1 12.95 32v19.15h16.9m0 0V39H23v8.25m6.85 3.9v8.7m0-8.7h5m2.9-11.75v7.5c0 2.6.333 5.05 1 7.35 1.8 5.633 6.633 10.6 14.5 14.9.333.167.733.25 1.2.25.367 0 .717-.083 1.05-.25 7.833-4.3 12.7-9.267 14.6-14.9.6-2.233.9-4.683.9-7.35v-7.5c0-1.033-.3-1.883-.9-2.55-.533-.833-1.4-1.45-2.6-1.85l-10.75-3.1c-1.1-.333-1.867-.5-2.3-.5-.567 0-1.4.167-2.5.5L41.35 35c-1.2.433-2.117 1.05-2.75 1.85-.567.667-.85 1.517-.85 2.55zM27.2 30.5v-5.25h5.3v5.25h-5.3z"/></svg>