<svg xmlns="http://www.w3.org/2000/svg" width="80" height="80" fill="none"><path stroke="#FF7800" stroke-linecap="round" stroke-linejoin="round" stroke-width="1.5" d="M54.95 18.15c-.5-2.1-2.067-3.15-4.7-3.15h-37c-3.1 0-4.65 1.583-4.65 4.75V50.1m33.55 6.4H4.45c-1.067-.1-1.883-.467-2.45-1.1-.667-.667-1-1.433-1-2.3V53h22.6l1.15 1.1h14.2L40 53h2.15m23.4-28.45c0-2.467-1.233-3.7-3.7-3.7h-13.5c-2.467 0-3.7 1.233-3.7 3.7m20.9 0h-20.9m20.9 0v9.35m-20.9-9.35v32m7.35 0h-7.35m0 0c0 2.467 1.233 3.7 3.7 3.7h5.45m-29.95-24.4l3.8 4.3c.5.3.983.3 1.45 0L39.9 28.9m12.95 19.7c0 2 .233 3.867.7 5.6 1.433 4.333 5.133 8.117 11.1 11.35.2.1.5.15.9.15.3 0 .567-.05.8-.15C72.283 62.317 76 58.533 77.5 54.2c.467-1.8.7-3.667.7-5.6v-5.7c0-.767-.233-1.433-.7-2-.467-.633-1.133-1.1-2-1.4l-8.15-2.3c-.9-.333-1.5-.5-1.8-.5-.4 0-1.033.167-1.9.5l-8.1 2.3c-.9.333-1.583.8-2.05 1.4-.433.533-.65 1.2-.65 2v5.7z"/></svg>