<svg xmlns="http://www.w3.org/2000/svg" width="81" height="80" fill="none"><path stroke="#FF7800" stroke-linecap="round" stroke-linejoin="round" stroke-width="1.5" d="M40.462 44.65c-4.367 0-8.2 1.417-11.5 4.25-1.334 1.067-2.5 1.1-3.5.1l-4.45-4.9c-.7-.967-.634-2.05.2-3.25C26.678 35.617 33.095 33 40.462 33c7.366 0 13.783 2.617 19.25 7.85.833 1.2.9 2.283.2 3.25l-4.45 4.9c-1 1-2.167.967-3.5-.1-3.3-2.833-7.134-4.25-11.5-4.25zm0-28.9c-11.334 0-21.167 4.167-29.5 12.5-.934 1.2-.934 2.367 0 3.5l4.5 4.9c.866.833 1.8.833 2.8 0 6.2-6.2 13.6-9.3 22.2-9.3s16 3.1 22.2 9.3c1 .833 1.933.833 2.8 0l4.5-4.9c.933-1.133.933-2.3 0-3.5-8.334-8.333-18.167-12.5-29.5-12.5zm0 34.5c3.366.067 6.266 1.267 8.7 3.6.5.5.5 1.133 0 1.9-1.167 1.567-3.717 4.367-7.65 8.4-.334.3-.684.45-1.05.45-.367 0-.717-.15-1.05-.45-3.934-4.033-6.484-6.833-7.65-8.4-.5-.767-.5-1.4 0-1.9 2.433-2.333 5.333-3.533 8.7-3.6z"/></svg>