<svg xmlns="http://www.w3.org/2000/svg" width="80" height="80" fill="none"><path stroke="#FF7800" stroke-linecap="round" stroke-linejoin="round" stroke-width="1.5" d="M48.402 31.85v-1c.366-2.5 1.316-4.667 2.85-6.5 1.633-1.967 3.633-3.133 6-3.5.133-.3.35-.6.65-.9.633-.667 1.45-1 2.45-1 .9 0 1.666.333 2.3 1 .666.567 1 1.333 1 2.3v.45a14.754 14.754 0 011.6 1.65 12.76 12.76 0 012.85 6.5l.05 1m-19.75 0l-.9.75-.25.4c-.267.433-.4 1.017-.4 1.75 0 .833.216 1.567.65 2.2V37c.533.533 1.116.817 1.75.85.4 1.233 1.066 2.45 2 3.65 2 2.3 4.333 3.45 7 3.45 2.733 0 5.066-1.15 7-3.45a14.707 14.707 0 002.1-3.65c.566-.067 1.083-.35 1.55-.85v-.05c.566-.667.85-1.4.85-2.2 0-.8-.284-1.517-.85-2.15l-.3-.5-.45-.25m-19.75 0c4.066-.5 6.9-1.5 8.5-3 1.833-1.567 3.033-3.267 3.6-5.1.266 1.567.65 2.85 1.15 3.85.733 1.633 2.9 3.05 6.5 4.25m-26.55-5.35c.233.1.5.3.8.6.8.867 1.2 1.833 1.2 2.9s-.4 2.017-1.2 2.85c-.6.567-1.234.933-1.9 1.1-.567 1.533-1.45 3.083-2.65 4.65-2.434 3-5.434 4.5-9 4.5-3.567 0-6.6-1.5-9.1-4.5-1.067-1.3-1.934-2.85-2.6-4.65-.734-.133-1.4-.5-2-1.1-.7-.833-1.05-1.783-1.05-2.85 0-1.067.35-2.033 1.05-2.9l1.1-.85m25.35.25l-.2-1.5c-.4-3.233-1.584-6.067-3.55-8.5-2.5-3-5.5-4.5-9-4.5s-6.534 1.5-9.1 4.5c-2 2.433-3.167 5.267-3.5 8.5v1.25m25.35.25l-1.95-.55c-3.634-1-6.684-2.7-9.15-5.1-2.634-2.533-5.05-3.45-7.25-2.75-2.567.833-4.9 3.55-7 8.15m39.9 36.2h16.85c1.166 0 2-.283 2.5-.85.5-.533.666-1.333.5-2.4l-.85-5.95c-.767-4.267-3.867-6.933-9.3-8-1.534 1.367-3.017 2.317-4.45 2.85-1.1.433-2.234.65-3.4.65-1-.067-2-.283-3-.65-1.434-.533-2.884-1.483-4.35-2.85m-12.55-1.5c-7.1 4.067-13.25 4.067-18.45 0-8.3 1.667-13.05 5.117-14.25 10.35-.967 4.167-1.434 7.55-1.4 10.15 0 .567.133 1.067.4 1.5.1.333.3.667.6 1 .733.733 1.616 1.1 2.65 1.1h42.25c1.066 0 1.966-.367 2.7-1.1.366-.5.583-.833.65-1 .266-.433.4-.933.4-1.5.066-2.6-.4-5.983-1.4-10.15-1.2-5.233-5.917-8.683-14.15-10.35z"/></svg>