<svg xmlns="http://www.w3.org/2000/svg" width="80" height="80" fill="none"><path stroke="#FF7800" stroke-linecap="round" stroke-linejoin="round" stroke-width="1.5" d="M62.2 45.25v5.95l3.55 5.35h-24l3.55-5.35v-8.5c0-2.267.8-4.2 2.4-5.8 1.6-1.6 3.517-2.4 5.75-2.4h.3m0 0v-2.65m0 2.65h.3c.977 0 1.894.15 2.75.45l-3.05-.45zm1-5.15l2.05-7.65m0 0l-30.15-8.05M56.8 21.7c1.067-4-.4-6.533-4.4-7.6L34.25 9.25c-4-1.067-6.533.4-7.6 4.4m0 0L14.75 58.1m0 0l30.15 8.05M14.75 58.1c-1.067 4 .4 6.533 4.4 7.6l18.15 4.85c4 1.067 6.533-.4 7.6-4.4m0 0l1.95-7.25M44.7 15.55l-4.45-1.2m16.15 44.1c0 .733-.267 1.383-.8 1.95-.533.5-1.167.75-1.9.75-.733 0-1.383-.25-1.95-.75-.5-.567-.75-1.217-.75-1.95M65.25 39.2c0 1.1-.383 2.033-1.15 2.8-.8.8-1.75 1.2-2.85 1.2s-2.033-.4-2.8-1.2c-.8-.767-1.2-1.7-1.2-2.8 0-1.1.4-2.05 1.2-2.85.767-.767 1.7-1.15 2.8-1.15 1.1 0 2.05.383 2.85 1.15.767.8 1.15 1.75 1.15 2.85z"/></svg>