<svg xmlns="http://www.w3.org/2000/svg" width="80" height="80" fill="none"><path stroke="#FF7800" stroke-linecap="round" stroke-linejoin="round" stroke-width="1.5" d="M59.6 33.55l-1.45-1.4m9.8 9.75l-1.45-1.4 1.45 1.4zm7.1-4.9h-9.1 9.1zm-7.15-4.85l-1.4 1.4 1.4-1.4zm-36.2-16.3c-2.1 2.733-3.633 5.883-4.6 9.45-1.9 7.2-.983 14.017 2.75 20.45 3.733 6.5 9.183 10.717 16.35 12.65 3.567.933 7.067 1.183 10.5.75-2.1 2.8-4.8 5.133-8.1 7-6.433 3.733-13.283 4.633-20.55 2.7-7.166-1.9-12.617-6.1-16.35-12.6-3.7-6.433-4.617-13.267-2.75-20.5 1.967-7.233 6.167-12.7 12.6-16.4 3.3-1.9 6.683-3.067 10.15-3.5zM55.05 18h-5.1 5.1zM44.1 18h-5.05 5.05zm2.95 2.95V26v-5.05zm0-10.95v5.1V10zM60.1 37h-9.05 9.05zm2.95 2.95V49v-9.05zm-3.55.55l-1.4 1.4 1.4-1.4zM63.05 25v9.1V25z"/></svg>