<svg xmlns="http://www.w3.org/2000/svg" width="81" height="80" fill="none"><path stroke="#FF7800" stroke-linecap="round" stroke-linejoin="round" stroke-width="1.5" d="M51.562 34.95v-20.3m0 0h-31.8m31.8 0c0-3.767-1.884-5.65-5.65-5.65h-20.5c-3.767 0-5.65 1.883-5.65 5.65m0 0V58.8m0 0h18.2m-18.2 0c0 3.8 1.883 5.7 5.65 5.7h18.15m20.75-11.2c.033-.7.283-1.283.75-1.75.5-.5 1.1-.75 1.8-.75s1.3.25 1.8.75c.5.467.75 1.05.75 1.75v.15l.05 5.75v1.5c-.167 2.733-1.25 5.083-3.25 7.05-2.1 2.167-4.684 3.25-7.75 3.25-2.834 0-5.3-.95-7.4-2.85l-.2-.2-10.65-10.7-.1-.1c-.467-.5-.7-1.083-.7-1.75s.25-1.267.75-1.8c.5-.5 1.1-.75 1.8-.75.633 0 1.216.233 1.75.7l.1.1 5.15 5.2V40.5c.066-.667.333-1.25.8-1.75.5-.5 1.1-.75 1.8-.75s1.3.25 1.8.75c.466.5.716 1.083.75 1.75v10.45m10.2 2.35v-2.35a2.697 2.697 0 00-.75-1.75c-.5-.467-1.1-.7-1.8-.7s-1.3.233-1.8.7a2.687 2.687 0 00-.75 1.75m5.1 2.35v1.3m-10.2-3.65c.033-.667.283-1.25.75-1.75.5-.467 1.1-.7 1.8-.7s1.3.233 1.8.7c.466.5.716 1.083.75 1.75m-5.1 0v3.65m5.1-3.65v3.65m-28-19.95l6.1-6.1v16.4"/></svg>