<svg xmlns="http://www.w3.org/2000/svg" width="80" height="80" fill="none"><path stroke="#FF7800" stroke-linecap="round" stroke-linejoin="round" stroke-width="1.5" d="M20.5 37.95H6.2c3.767-3.067 6.484-5.3 8.15-6.7 1.534-1.567 2.784-3.067 3.75-4.5.967-1.433 1.467-2.917 1.5-4.45-.033-1.333-.383-2.433-1.05-3.3-.666-.9-1.466-1.533-2.4-1.9-1.033-.4-2.033-.6-3-.6-1.533.034-2.833.333-3.9.9a9.112 9.112 0 00-3.05 2.3m28.5 11.95v-15.5l-10.55 15.5H34.7zm0 0h4.15m-4.15 0v6.7m3.05-26.85a31.384 31.384 0 016.45-.65c8 0 14.85 2.817 20.55 8.45 4.467 4.467 7.183 9.65 8.15 15.55M32.05 50.9l10.45-9.675m0 0a2.11 2.11 0 01-.45-1.325c0-.6.217-1.117.65-1.55.4-.433.9-.65 1.5-.65.554 0 1.021.167 1.4.5m-3.1 3.025c.058.075.125.15.2.225.4.433.9.65 1.5.65.633 0 1.15-.217 1.55-.65.434-.433.65-.95.65-1.55 0-.6-.216-1.117-.65-1.55-.05-.054-.1-.104-.15-.15m0 0l10.5-18.45m1.65 46C53.684 67.917 49.167 69 44.2 69c-8.033 0-14.9-2.85-20.6-8.55-4.966-4.967-7.75-10.833-8.35-17.6m48.2 19.55l9.75-21.35H59.05"/></svg>