<svg xmlns="http://www.w3.org/2000/svg" width="81" height="80" fill="none"><path stroke="#FF7800" stroke-linecap="round" stroke-linejoin="round" stroke-width="1.5" d="M25.562 50.2v3.05m-9-3.05v3.05m4.5-3.05v3.05m1.5-15.2L14.362 12m44.65 26.05l8.2-26.05m-1.9 39.7c0 .733-.284 1.367-.85 1.9-.467.533-1.084.8-1.85.8-.734 0-1.4-.267-2-.8-.5-.567-.75-1.2-.75-1.9 0-.733.25-1.383.75-1.95.6-.533 1.266-.8 2-.8.766 0 1.383.267 1.85.8.566.533.85 1.183.85 1.95zm-46.25-10.25h43.45c2.8 0 5.2 1 7.2 3 2.033 2 3.05 4.417 3.05 7.25s-1.017 5.25-3.05 7.25c-2.034 2.033-4.434 3.05-7.2 3.05h-43.45c-2.8 0-5.217-1.017-7.25-3.05-2.034-1.967-3.05-4.383-3.05-7.25 0-2.833 1.016-5.25 3.05-7.25 2-2 4.416-3 7.25-3z"/></svg>