<svg fill="none" height="42" width="255" xmlns="http://www.w3.org/2000/svg" viewBox="0 0 605.34 100.78"><path d="M125.18 31.57a16.54 16.54 0 0012.34 5.58c7 0 9.23-3.76 9.23-6.75 0-4.7-4.76-6-9.93-7.4-6.3-1.65-13.3-3.41-13.3-11.11 0-6.46 5.76-10.87 13.46-10.87 6 0 10.63 2 13.92 5.47l-2.93 3.61a15 15 0 00-11.34-4.7c-4.7 0-8.05 2.53-8.05 6.23 0 3.93 4.53 5.11 9.52 6.46 6.41 1.7 13.69 3.7 13.69 11.93 0 5.7-3.88 11.51-14.45 11.51-6.82 0-11.81-2.58-15-6.23zm44.59-19.85c8.57 0 13.63 6.69 13.63 15.21v1.17h-23c.35 5.34 4.11 9.81 10.23 9.81a12.39 12.39 0 008.75-3.58l2.14 2.82a15.44 15.44 0 01-11.29 4.35c-8.4 0-14.45-6-14.45-14.92 0-8.23 5.88-14.86 13.99-14.86zm-9.35 13.1h18.63c-.06-4.23-2.88-9.46-9.34-9.46-6.06 0-9.05 5.11-9.29 9.46zm41.1-13.1a12.13 12.13 0 0110.4 4.93l-2.93 2.7a8.43 8.43 0 00-7.23-3.7c-6 0-9.81 4.64-9.81 10.93s3.76 11 9.81 11a8.56 8.56 0 007.23-3.71l2.93 2.71a12.13 12.13 0 01-10.4 4.92c-8.45 0-14.15-6.46-14.15-14.92s5.72-14.86 14.15-14.86zm34.27 25.08a13.85 13.85 0 01-10.1 4.7c-5.94 0-9-2.88-9-9v-20h4.41v18.6c0 5 2.52 6.47 6.34 6.47a10.84 10.84 0 008.4-4.29V12.42h4.41V40.8h-4.41zm11.73-24.38h4.41V17c2.29-3 5.58-5.17 9.46-5.17v4.53a7.66 7.66 0 00-1.77-.18 10.37 10.37 0 00-7.69 4.52v20.1h-4.41zm30.27-.7c8.58 0 13.63 6.69 13.63 15.21v1.17h-23c.36 5.34 4.12 9.81 10.23 9.81a12.39 12.39 0 008.75-3.58l2.12 2.82a15.39 15.39 0 01-11.28 4.35c-8.4 0-14.45-6-14.45-14.92.02-8.23 5.9-14.86 14-14.86zm-9.34 13.1h18.63c-.06-4.23-2.88-9.46-9.34-9.46-6.06 0-9.05 5.11-9.29 9.46zm43.18 10.04V16.3h-4.7v-3.88h4.7V4.66h4.41v7.76h5.76v3.88h-5.76v17.62c0 2.12.94 3.65 2.88 3.65a4.23 4.23 0 003-1.18l1.29 3.29a7.17 7.17 0 01-5.28 1.82c-4.18 0-6.3-2.4-6.3-6.64zm13.28-8.28c0-8.23 5.4-14.86 14-14.86s14 6.63 14 14.86-5.41 14.92-14 14.92-14-6.7-14-14.92zm23.44 0c0-5.76-3.35-10.93-9.4-10.93s-9.43 5.17-9.43 10.93 3.41 11 9.46 11 9.37-5.18 9.37-11zm30.9 9.99a12 12 0 01-9.58 4.93c-7.4 0-12.63-5.64-12.63-14.86 0-9 5.17-14.92 12.63-14.92a11.87 11.87 0 019.58 5V1.61h4.4V40.8h-4.4zm0-16.34a10.69 10.69 0 00-8.52-4.58c-5.7 0-9.11 4.7-9.11 11s3.41 10.93 9.11 10.93a10.57 10.57 0 008.52-4.48zm29.49 17.34a12.28 12.28 0 01-9.4 3.93c-4.82 0-9.93-3.23-9.93-9.4 0-6.34 5.11-9.34 9.93-9.34 3.87 0 7.11 1.23 9.4 3.88v-5.11c0-3.82-3.06-6-7.17-6a11.3 11.3 0 00-8.7 3.94l-2.05-3.06a14.85 14.85 0 0111.34-4.69c6 0 11 2.7 11 9.57V40.8h-4.4zm0-8.11a9.52 9.52 0 00-7.82-3.53c-4.11 0-7 2.59-7 6.23s2.88 6.17 7 6.17a9.52 9.52 0 007.82-3.53zm13.27 18.91c1.94 0 3.23-.64 4.23-3l1.88-4.27-11.87-28.68h4.76l9.51 23.27 9.4-23.27h4.82l-14.22 34.13c-1.7 4.12-4.58 5.7-8.34 5.76a14 14 0 01-3.23-.41l.7-4a6.87 6.87 0 002.36.47zm24.79-13.45a3.23 3.23 0 11-3.23 3.23 3.26 3.26 0 013.23-3.23z" fill="#fdf1e6"/><path d="M123.63 87.19a17.21 17.21 0 0012.45 5.28c4.58 0 6.82-2.17 6.82-4.4 0-2.94-3.41-3.94-7.94-5-6.4-1.47-14.62-3.23-14.62-12 0-6.52 5.64-11.81 14.86-11.81 6.23 0 11.4 1.88 15.28 5.46l-4.65 6.11a16.75 16.75 0 00-11.22-4.29c-3.76 0-5.76 1.65-5.76 4 0 2.64 3.29 3.47 7.82 4.52 6.46 1.47 14.69 3.41 14.69 12.11 0 7.16-5.12 12.57-15.69 12.57-7.52 0-12.93-2.53-16.57-6.23zm50.89 8.28a13.31 13.31 0 01-10 4.29c-6.23 0-9.16-3.41-9.16-8.93V70.68h7.46v17.21c0 3.94 2.06 5.23 5.23 5.23a8.36 8.36 0 006.47-3.23V70.68h7.46V99.1h-7.46zm26.59-25.5c5.82 0 9.34 2.53 11.22 5.11l-4.87 4.59a6.89 6.89 0 00-6-3.06c-4.52 0-7.69 3.29-7.69 8.23s3.17 8.26 7.69 8.26a7.17 7.17 0 006-3.06l4.87 4.53c-1.88 2.64-5.4 5.17-11.22 5.17-8.75 0-15-6.17-15-14.92s6.25-14.85 15-14.85zm27.85 0c5.81 0 9.34 2.53 11.22 5.11l-4.88 4.59a6.88 6.88 0 00-6-3.06c-4.53 0-7.7 3.29-7.7 8.23s3.17 8.28 7.7 8.28a7.17 7.17 0 006-3.06l4.88 4.53c-1.88 2.64-5.41 5.17-11.22 5.17-8.76 0-15-6.17-15-14.92s6.24-14.87 15-14.87zm27.49 0c8.46 0 14.22 6.35 14.22 15.63v1.64h-21.1c.48 3.59 3.35 6.58 8.17 6.58a11.55 11.55 0 007.58-2.82l3.29 4.82c-2.82 2.59-7.28 3.94-11.69 3.94-8.64 0-15.16-5.82-15.16-14.92 0-8.23 6.05-14.87 14.69-14.87zm-7 12.22h14a6.57 6.57 0 00-7-6.28 6.81 6.81 0 00-6.99 6.28zm38.07-12.22c8.46 0 14.21 6.35 14.21 15.63v1.64h-21.14c.47 3.59 3.35 6.58 8.17 6.58a11.57 11.57 0 007.58-2.82l3.29 4.82c-2.82 2.59-7.29 3.94-11.69 3.94-8.64 0-15.16-5.82-15.16-14.92 0-8.23 6.05-14.87 14.74-14.87zm-7 12.22h14a6.57 6.57 0 00-7-6.28 6.82 6.82 0 00-7 6.28zm44.6 13.22a11 11 0 01-8.75 4.35c-7.17 0-12.57-5.41-12.57-14.87 0-9.28 5.34-14.92 12.57-14.92a10.92 10.92 0 018.75 4.35V59.87h7.52V99.1h-7.52zm0-15.57a8.12 8.12 0 00-6.46-3.23c-4.23 0-7.17 3.35-7.17 8.28s2.94 8.21 7.17 8.21a8.12 8.12 0 006.46-3.23zM353.61 92V77.2h-4.7v-6.52h4.7v-7.76h7.52v7.76h5.76v6.52h-5.76V90c0 1.77.94 3.12 2.59 3.12a4.08 4.08 0 002.58-.82l1.59 5.64c-1.12 1-3.12 1.82-6.23 1.82-5.23 0-8.05-2.66-8.05-7.76zm15.1-7.16c0-8 5.64-14.87 15-14.87s15 6.82 15 14.87-5.64 14.92-15 14.92-15-6.82-15-14.92zm22.27 0c0-4.41-2.65-8.23-7.29-8.23s-7.23 3.82-7.23 8.23 2.59 8.26 7.23 8.26 7.29-3.8 7.29-8.26zm46.99-3.74c0-2.64-1.17-4.52-4.23-4.52a7.53 7.53 0 00-5.87 3.29V99.1h-7.52v-18c0-2.64-1.18-4.52-4.23-4.52a7.61 7.61 0 00-5.88 3.35V99.1h-7.46V70.68h7.46v3.7a12.41 12.41 0 019.28-4.41c4.18 0 6.82 1.94 7.88 5.17a12 12 0 019.75-5.17c5.23 0 8.34 2.76 8.34 8.58V99.1h-7.52zm11.55 3.74c0-8 5.64-14.87 15-14.87s15 6.82 15 14.87-5.64 14.92-15 14.92-15-6.82-15-14.92zm22.27 0c0-4.41-2.65-8.23-7.29-8.23s-7.22 3.82-7.22 8.23 2.6 8.26 7.24 8.26 7.29-3.8 7.29-8.26zm11.82-14.16h7.46v3.87a12.17 12.17 0 019.05-4.52v7.29a9.22 9.22 0 00-2.05-.24c-2.47 0-5.76 1.41-7 3.23V99.1h-7.46zm19.68 0h7.46v3.87a12.17 12.17 0 019-4.52v7.29a9.25 9.25 0 00-2.06-.24c-2.46 0-5.75 1.41-7 3.23V99.1h-7.46zm17.86 14.16c0-8 5.64-14.87 15-14.87s15 6.82 15 14.87-5.64 14.92-15 14.92-15-6.82-15-14.92zm22.27 0c0-4.41-2.65-8.23-7.29-8.23s-7.23 3.82-7.23 8.23 2.62 8.26 7.23 8.26 7.29-3.8 7.29-8.26zm30.72-5.12l-6 19.33h-8l-8.62-28.37h7.75l5.25 19.09 6.23-19.09h6.64l6.23 19.09 5.29-19.09h7.75l-8.6 28.42h-7.93zm26.43 10.46a4.76 4.76 0 11-4.76 4.76 4.82 4.82 0 014.76-4.76z" fill="#ef7f31"/><path d="M43.76 1.71q20.65 0 41 10.67v30.83a68.55 68.55 0 01-2.31 18.19q-6.9 21.18-36.37 37a6.13 6.13 0 01-5.61 0Q11 82.6 4.1 61.4a66.54 66.54 0 01-2.39-18.19V12.38A89.57 89.57 0 0143.76 1.71zM27.25 45.98l11.09 11.9a2.09 2.09 0 002.37 0L60.78 37.1" stroke="#908eb0" stroke-linecap="round" stroke-linejoin="round" stroke-width="3.42"/></svg>