<svg height="80" width="160" xmlns="http://www.w3.org/2000/svg"><g fill="none" fill-rule="evenodd"><path d="M0 0h160v80H0z" fill="#f8f8fc"/><path d="M53.487 50.632v11.343a4.727 4.727 0 004.727 4.726h43.549a4.727 4.727 0 004.727-4.726V50.632z" fill="#f19526"/><path d="M101.763 13.7H58.215a4.727 4.727 0 00-4.728 4.727v32.205h53.003V18.427a4.727 4.727 0 00-4.727-4.727" fill="#0d1942"/><path d="M53.487 50.632v11.343a4.727 4.727 0 004.727 4.726h43.549a4.727 4.727 0 004.727-4.726V50.632z" fill="#f19526"/><g fill="#fefefe"><path d="M58.14 13.7a4.727 4.727 0 00-4.727 4.727v43.548a4.727 4.727 0 004.728 4.726h7.801C86.454 51.668 84.8 28.113 101.312 13.7z" opacity=".2"/><path d="M72.104 32.559c-.45-2.003-.818-4.683-.818-4.683h-.056s-.395 2.68-.875 4.683l-.874 3.64h3.442zM80.4 42.8h-5.192c-.564 0-.818-.17-.931-.705l-.508-2.2h-5.163l-.536 2.2c-.14.536-.367.705-.931.705h-4.232c-.507 0-.762-.254-.762-.761 0-.17.085-.396.14-.593l5.841-17.86c.17-.535.395-.704.96-.704h5.134c.565 0 .79.169.96.705l5.84 17.859c.057.197.141.423.141.593 0 .507-.253.761-.761.761zm17.291-18.564l-6.01 17.859c-.17.536-.395.705-.96.705h-3.836c-.564 0-.79-.17-.96-.705l-6.01-17.859c-.056-.198-.14-.423-.14-.592 0-.508.254-.762.762-.762h5.36c.564 0 .818.169.931.705l1.806 7.787c.282 1.241.48 2.99.48 2.99h.056s.226-1.749.536-2.99l2.003-7.787c.142-.536.367-.705.931-.705h4.43c.508 0 .762.254.762.762 0 .169-.085.394-.14.592M60.47 60.257c.008.025.024.057.024.082 0 .194-.656.429-1.142.429-1.127 0-1.8-.689-1.8-2.058 0-1.37.69-2.22 1.888-2.22.438 0 1.151.242 1.151.494 0 .024-.016.048-.024.072l-.3.527c-.016.017-.032.04-.056.04-.081 0-.349-.323-.77-.323-.552 0-.794.42-.794 1.353 0 .892.21 1.305.834 1.305.413 0 .576-.276.721-.276.025 0 .041.017.057.04zm2.966-1.628c0-.754-.105-1.33-.664-1.33-.56 0-.665.576-.665 1.33 0 .753.097 1.329.665 1.329.567 0 .664-.568.664-1.33m-.664 2.14c-1.095 0-1.76-.835-1.76-2.14 0-1.304.665-2.139 1.76-2.139 1.086 0 1.758.835 1.758 2.14 0 1.304-.664 2.139-1.758 2.139m7.885-.251c0 .09-.016.113-.114.113h-.802c-.097 0-.113-.024-.113-.113V58.02c0-.308-.033-.68-.34-.68-.341 0-.608.234-.714.331v2.845c0 .09-.016.113-.113.113h-.803c-.097 0-.113-.024-.113-.113V58.02c0-.308-.033-.68-.34-.68-.34 0-.608.234-.714.331v2.845c0 .09-.016.113-.113.113h-.803c-.096 0-.113-.024-.113-.113V58.07c0-1.143-.154-1.079-.154-1.265 0-.04.032-.073.09-.089l.615-.203a.404.404 0 01.122-.024c.105 0 .17.178.259.56.243-.211.6-.56 1.24-.56.348 0 .73.219.827.56.243-.211.591-.56 1.256-.56.762 0 .94.576.94 1.28zm2.171-.713c.147.08.276.154.592.154.568 0 .713-.405.713-1.362 0-.834-.153-1.296-.656-1.296-.34 0-.535.202-.649.308zm0 2.237c0 .113-.056.13-.153.146l-.681.137a.624.624 0 01-.138.024c-.04 0-.057-.032-.057-.17V58.07c0-1.143-.154-1.079-.154-1.265 0-.04.033-.073.09-.089l.615-.202a.397.397 0 01.122-.025c.105 0 .162.154.251.422a1.43 1.43 0 011.038-.422c.9 0 1.402.705 1.402 2.067 0 1.418-.438 2.212-1.492 2.212-.47 0-.672-.122-.843-.21zm5.106-3.226c-.202 0-1.142-.065-1.142.648 0 .316.226.552.535.552.3 0 .51-.211.607-.309zm.495 1.92c-.033.009-.073.033-.106.033-.073 0-.194-.283-.235-.486-.162.162-.446.486-1.054.486-.745 0-1.215-.486-1.215-1.248 0-1.37 1.475-1.37 2.115-1.37v-.25c0-.366-.065-.6-.575-.6-.454 0-.9.243-1.005.243-.04 0-.073-.049-.081-.081l-.162-.494a.216.216 0 01-.024-.098c0-.187.802-.38 1.426-.38 1.013 0 1.394.461 1.394 1.304v1.564c0 .786.21.892.21 1.054 0 .032-.032.057-.072.073zm2.601-.218c0 .09-.016.113-.114.113h-.802c-.097 0-.113-.024-.113-.113V58.07c0-.892-.211-1.038-.211-1.224 0-.033.032-.057.073-.073l.616-.251c.032-.009.073-.033.105-.033.098 0 .26.365.3.64.154-.186.454-.64 1.005-.64.235 0 .47.081.47.187a.206.206 0 01-.016.08l-.251.681c-.008.025-.033.074-.065.074-.049 0-.195-.09-.381-.09-.251 0-.51.276-.616.39zm3.51-1.702c-.204 0-1.143-.065-1.143.648 0 .316.226.552.535.552.3 0 .51-.211.607-.309zm.494 1.92c-.033.009-.073.033-.106.033-.073 0-.194-.283-.235-.486-.162.162-.446.486-1.054.486-.745 0-1.215-.486-1.215-1.248 0-1.37 1.475-1.37 2.115-1.37v-.25c0-.366-.065-.6-.575-.6-.454 0-.9.243-1.006.243-.04 0-.072-.049-.08-.081l-.162-.494a.212.212 0 01-.024-.098c0-.187.802-.38 1.426-.38 1.012 0 1.394.461 1.394 1.304v1.564c0 .786.21.892.21 1.054 0 .032-.032.057-.073.073zm3.97-.34c.008.041.017.041.017.065 0 .154-.592.308-1.144.308-1.045 0-1.045-.819-1.045-1.564V57.38h-.575c-.097 0-.114-.024-.114-.113v-.527c0-.089.017-.113.114-.113h.575v-1.021c0-.106.017-.13.13-.146l.713-.097c.024 0 .057-.008.105-.008.073 0 .082.04.082.137v1.135h.923c.074 0 .138 0 .138.09 0 .015 0 .031-.008.064l-.105.478c-.025.114-.05.121-.146.121h-.802v1.962c0 .26 0 .494.275.494.324 0 .527-.154.64-.154.033 0 .057.016.066.049zm1.41-4.295a.671.671 0 01-.672-.673c0-.372.3-.664.672-.664a.67.67 0 010 1.337zm.52 4.417c0 .09-.017.113-.114.113h-.803c-.097 0-.113-.024-.113-.113V57.38h-.624c-.097 0-.114-.024-.114-.114v-.527c0-.089.017-.113.114-.113h1.54c.097 0 .113.024.113.113zm2.997.081c-.032.09-.04.105-.154.105h-.664c-.113 0-.121-.016-.154-.105l-1.289-3.736a.596.596 0 01-.04-.138c0-.064.057-.073.179-.089l.672-.073c.024 0 .114-.008.13-.008.065 0 .089.081.113.162l.495 1.823c.089.324.21.876.259 1.176h.016c.049-.292.178-.86.276-1.176l.55-1.823c.025-.09.05-.162.114-.162.016 0 .105.008.13.008l.55.073c.122.016.18.025.18.09a.579.579 0 01-.041.137zm3.899-2.448c0-.332-.025-.907-.584-.907-.632 0-.664.68-.689.908zm.94 2.05a.165.165 0 01.024.09c0 .21-.81.478-1.45.478-1.07 0-1.816-.608-1.816-2.099 0-1.289.689-2.18 1.775-2.18 1.378 0 1.62 1.232 1.62 2.213 0 .154-.032.202-.185.202h-2.18c0 .454.13 1.013.891 1.013.583 0 .915-.267 1.029-.267.04 0 .073.032.09.065zm3.347-2.763c-.016.041-.057.074-.065.074-.024 0-.421-.211-.94-.211-.308 0-.535.113-.535.388 0 .438.73.406 1.305.787.316.21.543.518.543.988 0 .746-.527 1.305-1.386 1.305-.6 0-1.523-.308-1.523-.527 0-.024.032-.073.04-.105l.178-.462c.017-.04.033-.073.065-.073.033 0 .656.357 1.16.357.267 0 .494-.114.494-.405 0-.47-.795-.47-1.33-.827a1.048 1.048 0 01-.478-.916c0-.737.56-1.32 1.435-1.32.494 0 1.264.21 1.264.396a.336.336 0 01-.041.105z"/></g></g></svg>