<svg height="80" width="160" xmlns="http://www.w3.org/2000/svg"><g fill="none" fill-rule="evenodd"><path d="M0 0h160v80H0z" fill="#f8f8fc"/><g fill-rule="nonzero"><path d="M20.108 36.503H37.66v-6.618z" fill="#ff9d28"/><path d="M37.66 29.885v23.39l8.298-26.509z" fill="#68c5ed"/><path d="M37.66 36.503h-6.632l6.631 16.753z" fill="#044d80"/><path d="M20.108 36.503L32.735 40.8l-1.707-4.298z" fill="#e54747"/><path d="M60.333 47.098c-.1.1-.258.22-.477.36-.218.14-.516.3-.873.44-.358.14-.795.28-1.33.38-.517.1-1.112.16-1.787.16-1.291 0-2.423-.22-3.376-.62-.953-.42-1.727-1-2.342-1.76a7.157 7.157 0 01-1.35-2.658c-.298-1.02-.437-2.16-.437-3.379 0-1.22.158-2.359.476-3.398.318-1.04.774-1.94 1.41-2.7.615-.76 1.41-1.359 2.343-1.779s2.045-.64 3.315-.64c.616 0 1.191.06 1.688.16.496.12.953.24 1.33.4.377.16.695.32.933.48.258.16.437.32.556.42.14.12.278.28.377.46.1.18.16.38.16.58 0 .32-.12.64-.358.96s-.497.619-.794.899c-.199-.2-.417-.4-.656-.6-.238-.2-.516-.38-.814-.54a4.648 4.648 0 00-1.012-.38c-.377-.1-.794-.16-1.27-.16-.815 0-1.51.16-2.066.5s-.992.76-1.33 1.3c-.337.54-.576 1.14-.715 1.819s-.218 1.38-.218 2.1c0 .759.08 1.479.218 2.178s.397 1.3.755 1.84c.357.54.814.96 1.39 1.28.575.319 1.27.479 2.124.479.457 0 .854-.06 1.231-.16.377-.12.715-.26.993-.42.297-.16.536-.34.754-.5.219-.18.397-.34.536-.46.1.12.199.26.338.42.139.16.258.34.357.5.12.18.199.36.298.54a1.14 1.14 0 010 1.02c-.08.14-.218.3-.377.48zm12.389-1.859c0 1.28.178 2.22.556 2.799-.298.12-.556.2-.814.24-.259.04-.517.08-.795.08-.575 0-1.012-.12-1.31-.34-.298-.22-.496-.56-.576-.98-.357.38-.814.7-1.41.96-.575.26-1.29.38-2.124.38-.437 0-.873-.06-1.31-.18a3.354 3.354 0 01-1.191-.6c-.358-.28-.636-.64-.874-1.1-.218-.46-.338-1.019-.338-1.679 0-.82.199-1.5.596-2.019s.894-.92 1.49-1.22c.595-.3 1.25-.5 1.925-.62.695-.12 1.33-.18 1.906-.22.199-.02.377-.02.576-.02h.516v-.439c0-.62-.159-1.06-.496-1.34-.338-.26-.874-.4-1.609-.4-.694 0-1.31.12-1.846.34-.536.22-1.072.48-1.588.78-.219-.28-.417-.58-.536-.92-.14-.34-.199-.58-.199-.739 0-.22.12-.44.377-.66s.596-.4 1.033-.58c.437-.18.933-.3 1.509-.42.556-.1 1.151-.16 1.787-.16.873 0 1.608.08 2.203.26.596.18 1.092.46 1.47.82.377.38.655.84.814 1.4s.238 1.22.238 1.959zm-3.098-2.819h-.337c-.12 0-.219 0-.338.02-.397.04-.794.08-1.19.14s-.755.18-1.053.34c-.298.16-.556.38-.755.64-.198.26-.297.6-.297 1 0 .46.119.839.377 1.159s.695.48 1.31.48c.298 0 .596-.04.874-.12s.516-.18.734-.32.378-.28.497-.42c.119-.16.178-.3.178-.42zm9.113-4.798c.259-.3.656-.62 1.212-.94.555-.32 1.23-.48 2.064-.48.596 0 1.172.1 1.708.3.536.2 1.012.54 1.43.98.416.46.754 1.06.992 1.8.258.74.377 1.659.377 2.758 0 1.26-.139 2.32-.437 3.14-.297.819-.655 1.478-1.111 1.938-.457.48-.973.82-1.53 1.02s-1.13.3-1.687.3c-.456 0-.873-.06-1.21-.16s-.636-.22-.874-.36a2.686 2.686 0 01-.556-.38c-.12-.12-.219-.22-.239-.26v5.998h-3.295V36.563c.08-.02.178-.04.297-.04.1-.02.219-.02.338-.04.139 0 .278-.02.457-.02.536 0 .992.08 1.37.26.357.18.595.48.694.9zm4.368 4.498c0-.48-.04-.94-.119-1.36a3.61 3.61 0 00-.397-1.099c-.179-.3-.437-.54-.754-.72s-.695-.26-1.152-.26c-.675 0-1.151.14-1.41.38-.258.26-.397.54-.397.86V45.1c.12.14.358.28.695.46s.715.26 1.152.26c.814 0 1.41-.32 1.807-.98.377-.64.575-1.54.575-2.719zm5.957 4.199c-.12-.32-.18-.66-.219-1.02-.04-.36-.04-.72-.04-1.08V32.924c.12-.02.239-.04.358-.04.119-.02.238-.02.357-.04.12 0 .258-.02.377-.02.259 0 .517.02.775.08.258.04.496.14.695.3.218.14.377.34.516.6.119.26.198.58.198.98v1.739h3.395v2.459H92.1v5.197c0 1.14.457 1.7 1.37 1.7.219 0 .437-.04.636-.1.198-.08.377-.16.536-.24s.297-.18.417-.28c.119-.1.198-.18.258-.22.238.36.436.66.556.92.119.26.198.5.198.74 0 .22-.08.42-.258.62-.179.2-.417.4-.715.559-.298.18-.675.32-1.112.42-.436.1-.913.16-1.43.16-.992 0-1.786-.2-2.342-.58-.516-.42-.913-.92-1.151-1.56zm14.751-.32c.397 0 .755-.04 1.072-.14.298-.08.576-.2.834-.32.238-.12.457-.28.636-.42.178-.16.337-.3.476-.42.199.24.397.56.616.94.218.38.317.7.317.94 0 .36-.198.68-.595.98-.338.259-.814.479-1.45.679-.615.18-1.35.28-2.184.28-.754 0-1.509-.1-2.243-.3-.735-.2-1.39-.54-1.966-1.02s-1.032-1.14-1.39-1.959c-.357-.82-.536-1.86-.536-3.099 0-1.02.16-1.899.477-2.639s.734-1.36 1.25-1.839a5.107 5.107 0 011.788-1.08c.655-.22 1.33-.34 2.025-.34.893 0 1.667.14 2.303.42.635.28 1.131.66 1.528 1.14s.676 1.02.854 1.64.258 1.259.258 1.939v.34c0 .14 0 .26-.02.42 0 .14-.02.28-.02.42s-.02.239-.04.319h-7.127c.06.9.338 1.64.834 2.24.477.579 1.25.879 2.303.879zm1.112-4.938c0-.78-.159-1.42-.457-1.9s-.833-.74-1.608-.74c-.675 0-1.191.24-1.588.7s-.596 1.1-.596 1.94zm8.696-3.379c.1-.14.219-.3.377-.48s.358-.34.596-.48c.238-.14.496-.26.774-.36.278-.1.576-.14.914-.14.198 0 .397.02.615.04.218.04.417.1.596.18.178.08.337.2.456.36.12.16.179.34.179.56 0 .36-.08.76-.258 1.22s-.357.86-.536 1.18c-.278-.22-.556-.4-.814-.52a2.417 2.417 0 00-.973-.18c-.496 0-.913.14-1.25.44s-.517.64-.517 1.059v7.877h-3.296V36.543a1.2 1.2 0 01.298-.04c.1-.02.218-.02.338-.04.119 0 .277-.02.456-.02.516 0 .973.1 1.35.3.358.22.596.52.695.94zm9.351 0c.1-.14.219-.3.378-.48s.357-.34.595-.48c.239-.14.497-.26.775-.36.278-.1.575-.14.913-.14.198 0 .397.02.615.04.219.04.417.1.596.18.179.08.338.2.457.36.119.16.178.34.178.56 0 .36-.08.76-.258 1.22s-.357.86-.536 1.18c-.278-.22-.556-.4-.814-.52a2.417 2.417 0 00-.973-.18c-.496 0-.913.14-1.25.44-.338.3-.517.64-.517 1.059v7.877h-3.296V36.543c.08-.02.18-.04.298-.04.1-.02.219-.02.338-.04.119 0 .278-.02.456-.02.517 0 .973.1 1.35.3.358.22.596.52.695.94zm15.705 7.557c0 1.28.179 2.22.556 2.799-.298.12-.556.2-.814.24a5.09 5.09 0 01-.794.08c-.576 0-1.013-.12-1.31-.34s-.497-.56-.576-.98c-.358.38-.814.7-1.41.96-.576.26-1.29.38-2.124.38-.437 0-.874-.06-1.31-.18s-.835-.32-1.192-.6c-.357-.28-.635-.64-.874-1.1-.218-.46-.337-1.019-.337-1.679 0-.82.198-1.5.596-2.019.397-.52.893-.92 1.489-1.22s1.25-.5 1.925-.62c.695-.12 1.33-.18 1.906-.22.199-.02.378-.02.576-.02h.516v-.439c0-.62-.158-1.06-.496-1.34-.337-.26-.874-.4-1.608-.4-.695 0-1.31.12-1.847.34s-1.072.48-1.588.78c-.218-.28-.417-.58-.536-.92-.139-.34-.199-.58-.199-.739 0-.22.12-.44.378-.66.258-.22.595-.4 1.032-.58.437-.18.933-.3 1.509-.42.556-.1 1.152-.16 1.787-.16.874 0 1.608.08 2.204.26.595.18 1.092.46 1.469.82.377.38.655.84.814 1.4s.238 1.22.238 1.959zm-3.097-2.819h-.338c-.119 0-.218 0-.337.02-.397.04-.794.08-1.191.14-.398.06-.755.18-1.053.34s-.556.38-.754.64c-.199.26-.298.6-.298 1 0 .46.12.839.377 1.159.258.32.695.48 1.31.48.298 0 .596-.04.874-.12.278-.08.516-.18.735-.32.218-.14.377-.28.496-.42.12-.16.179-.3.179-.42z" fill="#044d80"/></g></g></svg>