<svg height="80" width="160" xmlns="http://www.w3.org/2000/svg"><g fill="none" fill-rule="evenodd"><path d="M0 0h160v80H0z" fill="#f8f8fc"/><path d="M35.055 27.224l15.027 26.83-8.8-.032L35.28 42.8l-6.415 11.253H20.03zm32.728-.137L52.757 53.915 37.73 27.087l8.8.03 6.003 11.222 6.416-11.252z" fill="#af2127"/><path d="M111.885 26.807c4.16 0 6.24 1.502 8.474 4.275l-4.47 4.006c-1.848-2.194-2.502-2.889-4.197-2.889-1.233 0-1.926.926-1.926 1.927 0 1.425.693 2.234 3.428 3.428 5.431 2.388 7.435 4.621 7.435 9.129 0 5.046-3.736 7.935-8.744 7.935-4.2 0-6.626-1.733-8.86-4.7l4.39-3.967c1.811 2.158 3.275 3.274 4.585 3.274 1.349 0 2.311-.693 2.311-2.157 0-1.503-.425-2.426-3.466-3.775-5.355-2.35-7.32-4.39-7.32-8.629 0-4.39 3.197-7.857 8.36-7.857zm-10.348.424v5.507h-9.399v4.624h6.124v5.469h-6.124v5.856h9.667v5.506H85.743V27.231zm37.9 0l-2.691 5.624h-3.915v21.338h-6.433V32.855h-5.47v-5.624zM59.644 45.86l4.635 8.276H55.27zm24.732-18.766v5.624h-4.684v21.338h-7.218V32.717h-5.5l2.92-5.624z" fill="#004b65"/></g></svg>