<svg height="80" width="160" xmlns="http://www.w3.org/2000/svg"><g fill="none" fill-rule="evenodd"><path d="M0 0h160v80H0z" fill="#f8f8fc"/><path d="M30.214 34.96h-2.962v-4.432h-4.797v4.433H20.03v3.104h2.426v6.522c0 3.98 1.044 5.166 5.135 5.166.875 0 1.75-.114 2.624-.141v-3.53c-.423 0-.846.058-1.241.058-1.044 0-1.721-.255-1.721-1.413v-6.662h2.962z" fill="#286f8d"/><path d="M34.214 40.812c.282-1.765 1.411-2.97 3.104-2.97 1.608 0 2.765 1.345 2.85 2.97zm10.75 2.663c.225-4.933-2.398-8.856-7.646-8.856-4.316 0-7.9 3.195-7.9 7.65 0 4.877 3.244 7.736 8.013 7.736 3.273 0 6.404-1.458 7.28-4.821h-4.487c-.451 1.066-1.58 1.597-2.737 1.597-2.031 0-3.188-1.317-3.273-3.306zm15.16-3.151c-.338-3.867-3.583-5.787-7.223-5.787-4.71 0-7.674 3.331-7.674 7.989 0 4.489 3.273 7.509 7.674 7.509 3.894 0 6.941-2.259 7.364-6.183H55.61c-.226 1.553-1.072 2.513-2.736 2.513-2.032 0-2.85-1.948-2.85-3.84 0-2.032.423-4.318 3.104-4.318 1.212 0 2.313.875 2.34 2.117zm.244 9.288h4.797v-7.99c0-1.609.79-3.133 2.595-3.133 2.624 0 2.399 2.033 2.399 4.037v7.086h4.796v-9.4c0-2.118-.395-5.675-5.276-5.675-1.75 0-3.725.931-4.458 2.428h-.056v-7.51h-4.797z" fill="#286f8d"/><g fill="#000"><path d="M75.32 49.655h4.796v-7.261c0-1.837 1.242-3.476 3.611-3.476.65 0 1.213.113 1.834.283v-4.38a5.11 5.11 0 00-1.129-.113c-2.06 0-3.695.99-4.401 2.854h-.056v-2.571h-4.656z"/><path d="M89.73 45.445c0-1.158.903-1.61 1.975-1.864 1.044-.283 2.285-.368 2.963-.791.112 3.023-.65 4.323-2.935 4.323-1.072 0-2.003-.481-2.003-1.668zm.282-5.933c.226-1.244 1.072-1.837 2.398-1.837.987 0 2.314.424 2.314 1.526 0 .904-.452 1.187-1.27 1.356-3.33.679-8.52.31-8.52 5.086 0 3.024 2.2 4.436 4.994 4.436 1.749 0 3.583-.508 4.824-1.808.056.48.113.933.282 1.384h4.824c-.564-1.158-.564-2.515-.564-3.757v-6.414c0-4.154-3.357-4.917-6.828-4.917-1.664 0-3.357.283-4.654 1.017-1.298.763-2.201 2.006-2.286 3.928z"/><path d="M107.143 38.225c2.088 0 2.85 1.952 2.85 4.075 0 1.866-.508 4.101-2.85 4.101-2.2 0-2.934-2.235-2.934-4.243 0-1.867.734-3.933 2.934-3.933zm7.477-8.77h-4.796v7.102h-.057c-.987-1.33-2.37-2.009-4.176-2.009-4.147 0-6.179 3.62-6.179 7.44 0 4.13 1.948 8.091 6.546 8.091 1.693 0 3.104-.735 4.035-2.122h.056v1.698h4.57zm4.857 15.99c0-1.158.902-1.61 1.975-1.864 1.043-.283 2.285-.368 2.962-.791.112 3.023-.649 4.323-2.934 4.323-1.072 0-2.003-.481-2.003-1.668zm.282-5.933c.226-1.244 1.071-1.837 2.398-1.837.987 0 2.313.424 2.313 1.526 0 .904-.451 1.187-1.27 1.356-3.328.679-8.52.31-8.52 5.086 0 3.024 2.2 4.436 4.994 4.436 1.749 0 3.584-.508 4.824-1.808.057.48.114.933.283 1.384h4.824c-.564-1.158-.564-2.515-.564-3.757v-6.414c0-4.154-3.358-4.917-6.828-4.917-1.664 0-3.357.283-4.655 1.017-1.298.763-2.2 2.006-2.285 3.928zm9.98 10.143h4.797v-7.261c0-1.837 1.241-3.476 3.61-3.476.65 0 1.214.113 1.835.283v-4.38a5.107 5.107 0 00-1.13-.113c-2.058 0-3.695.99-4.4 2.854h-.057v-2.571h-4.655z"/></g><path d="M135.327 49.655h4.644v-4.689h-4.644z" fill="#e93a97"/></g></svg>