<svg xmlns="http://www.w3.org/2000/svg" width="80" height="80"><path fill="none" stroke="#4E22D0" stroke-linecap="round" stroke-linejoin="round" stroke-width="1.5" d="M49.097 40.843l-3.057 9.41h-9.895c-1.937 0-2.741 2.48-1.175 3.618l8.004 5.816-3.056 9.41c-.599 1.843 1.509 3.375 3.077 2.236L51 65.517l8.005 5.816c1.568 1.14 3.676-.393 3.077-2.236l-3.056-9.41 8.004-5.816c1.566-1.139.762-3.618-1.176-3.618H55.96l-3.057-9.41c-.6-1.843-3.206-1.843-3.806 0zm.226-13.048L17.515 9.73c-1.861-1.065-3.534-.918-4.522.146l27.139 27.11 9.191-9.19zM45.459 42.32l-5.308-5.31-.022-.02L13.02 64.1l-.029.03c1 1.06 2.66 1.18 4.529.14l15.04-8.55m23.91-13.61l3.49-1.98c3.05-1.74 3.05-4.57 0-6.29L49.32 27.8l-.19-.12-.011.01-8.979 8.98h-.01v.63l5.25 5.25M13.162 9.702l26.992 26.975v.603L13.183 64.25l-.168-.147c-.651-.65-1.015-1.689-1.015-3.046V12.92c0-1.356.364-2.393.993-3.072l.169-.146z"/></svg>