<svg xmlns="http://www.w3.org/2000/svg" xmlns:xlink="http://www.w3.org/1999/xlink" width="1600" height="670"><defs><linearGradient id="b" x1="46.022%" x2="46.022%" y1="100%" y2=".021%"><stop offset="0%" stop-color="#261C6A"/><stop offset="99.979%" stop-color="#4E22D0"/></linearGradient><linearGradient id="d" x1="49.982%" x2="42.827%" y1="88.984%" y2="49.38%"><stop offset=".084%" stop-color="#4E22D0" stop-opacity=".2"/><stop offset="100%" stop-color="#7055FF" stop-opacity=".4"/></linearGradient><linearGradient id="e" x1="88.206%" x2="6.551%" y1="59.662%" y2="50.087%"><stop offset="0%" stop-color="#7055FF" stop-opacity=".3"/><stop offset="100%" stop-color="#4E22D0"/></linearGradient><linearGradient id="f" x1="54.127%" x2="91.129%" y1="67.871%" y2="35.956%"><stop offset="0%" stop-color="#7055FF" stop-opacity=".4"/><stop offset="100%" stop-color="#4E22D0" stop-opacity=".2"/></linearGradient><linearGradient id="g" x1="50%" x2="50%" y1="99.982%" y2="0%"><stop offset=".003%" stop-color="#4E22D0" stop-opacity=".2"/><stop offset="100%" stop-color="#7055FF" stop-opacity=".4"/></linearGradient><path id="a" d="M0 0h1600v670H0z"/></defs><g fill="none" fill-rule="evenodd"><mask id="c" fill="#fff"><use xlink:href="#a"/></mask><use fill="url(#b)" xlink:href="#a"/><g mask="url(#c)"><path fill="url(#d)" d="M228.359 456.485c.268-19.174 1.476-38.114 3.4-56.773 0-.561 0-1.123.225-1.684.223-.561 0-1.637.313-2.432a517.672 517.672 0 011.79-14.87c6.455-47.881 18.478-94.759 35.802-139.595C301.788 158.549 350.821 84.39 413.455 24l-2.103.608-5.863 1.917C211.057 88.977 62.757 254.265 15.633 461.041-31.49 667.817 29.597 885.213 176.222 1032.54c11.501 3.694 23.137 6.968 34.907 9.914 73.856 17.931 150.383 20.379 225.15 7.202 44.32-7.44 87.584-20.604 128.798-39.19l2.327-1.122 1.253-.608 1.343-.655c-201.655-98.113-345.177-306.452-341.641-551.595z" opacity=".8" transform="translate(227 -273)"/><path fill="url(#e)" d="M737.049 25.335c-105.387-33-217.627-33.778-323.425-2.241C350.934 83.39 301.846 157.459 269.9 239.957c-17.322 44.78-29.343 91.601-35.797 139.422-.671 4.67-1.253 9.855-1.79 14.853 0 .794-.224 1.588-.313 2.429 202.444-154.994 477.852-154.843 680.14.374l3.76 2.989c5.95 4.67 11.812 9.341 17.584 14.34 35.372 29.95 67.228 64.159 94.907 101.915 3.937 5.418 7.786 10.93 11.589 16.441 42.243 61.804 72.744 131.488 89.85 205.28 71.626-308.81-101.026-622.073-392.781-712.665z" opacity=".9" transform="translate(227 -273)"/><path fill="url(#f)" d="M1040.089 534.365c-3.803-5.499-7.65-10.997-11.586-16.402-27.67-37.667-59.516-71.796-94.877-101.675-5.77-4.66-11.63-9.646-17.58-14.306L912.29 399a624.073 624.073 0 012.997 65.655c-1.878 242.958-146.05 448.266-344.794 541.833l-1.342.652-1.253.606-2.326 1.118c-41.195 18.52-84.439 31.636-128.739 39.049-74.733 13.13-151.224 10.69-225.046-7.176a613.186 613.186 0 01-35.786-9.832c148.453 147.338 361.065 201.03 557.808 140.863S1081.562 946.71 1130 739.16c-17.128-73.624-47.65-143.145-89.911-204.795z" opacity=".8" transform="translate(227 -273)"/><path fill="url(#g)" d="M538.88 646.1v97.751c.049 6.707 5.23 12.124 11.62 12.149h42.044c6.383-.026 11.551-5.45 11.576-12.149v-97.75c35.95-16.244 56.075-56.766 48.173-97C644.393 508.867 610.64 480 571.5 480c-39.14 0-72.892 28.867-80.793 69.101-7.902 40.234 12.223 80.756 48.173 97z" opacity=".4" transform="translate(227 -273)"/></g></g></svg>