<svg xmlns="http://www.w3.org/2000/svg" width="80" height="80"><path fill="none" stroke="#FF7800" stroke-linecap="round" stroke-linejoin="round" stroke-width="1.5" d="M24.951 41.854l2.351 13.8-2.351-13.8zm20.151 0l-1 13.8 1-13.8zm-10.2 0l1 13.8-1-13.8zm20.152 0l-2.352 13.8 2.352-13.8zM9 59.904v5.3c0 4.7 2.384 7.05 7.151 7.05h5.2m-5.95-32.5l4.8 18.45c.834 3.3 3.434 4.95 7.8 4.95h23.951c4.401 0 7.018-1.65 7.852-4.95l4.799-18.45m-5.85 32.5h5.2c4.7 0 7.05-2.35 7.05-7.05v-5.3m-38.302-32.9l1.101 3.55c.166.568.132 1.083-.101 1.55-.267.5-.684.834-1.25 1-.633.2-1.133.184-1.5-.05-.5-.233-.866-.667-1.1-1.3l-1.5-4.75m19.001 0l-1.15 3.55c-.166.568-.133 1.083.101 1.55.266.5.682.834 1.25 1 .632.2 1.132.184 1.5-.05.5-.233.866-.667 1.099-1.3l1.5-4.75m19.351-4.5v-5.2c0-4.7-2.35-7.05-7.05-7.05h-3.2m-34.902-3.05c.434.3.734.7.9 1.2l5.95 18.6h14.651l5.9-18.6c.167-.5.467-.9.9-1.2a2.229 2.229 0 011.601-.1c.634.233 1.067.584 1.301 1.05.233.4.266.933.099 1.6l-5.501 17.25h14.301c1.367 0 2.05.7 2.05 2.1v5.55c0 1.367-.683 2.05-2.05 2.05H14.1c-1.4 0-2.1-.683-2.1-2.05v-5.55c0-1.4.7-2.1 2.1-2.1h14.251l-5.5-17.25c-.167-.667-.133-1.2.1-1.6.233-.466.667-.817 1.3-1.05a2.225 2.225 0 011.6.1zm-6.5 3.05h-3.2c-4.767 0-7.151 2.35-7.151 7.05v5.2"/></svg>