<svg xmlns="http://www.w3.org/2000/svg" width="80" height="80"><path fill="none" stroke="#FF7800" stroke-linecap="round" stroke-linejoin="round" stroke-width="1.5" d="M44.35 62h-20.5 20.5zm28.55-8.75v6.25c-.2 1.533-1.017 2.367-2.45 2.5H53.8M9.6 29.35h28.2H9.6zm50.6 0h12.7-12.7zM63.95 37c.9-.4 1.883-.6 2.95-.6 1.967 0 3.617.666 4.95 2 .4.4.75.833 1.05 1.3.7 1.1 1.05 2.35 1.05 3.75 0 1.167-.267 2.217-.8 3.15l-.25.45-6 10.65-5.35-9.45m1.1-32.95v1.9-1.9zm-5 0v1.9-1.9zm10 0v1.9-1.9zM42.4 29.35c1.933-1.267 4.134-1.9 6.6-1.9 2.466 0 4.666.633 6.6 1.9.7.466 1.35 1 1.95 1.6 2.4 2.4 3.6 5.3 3.6 8.7 0 2-.45 3.817-1.35 5.45L50.35 62 49 64.35 38.1 45c-.767-1.6-1.15-3.383-1.15-5.35 0-3.4 1.15-6.3 3.45-8.7.634-.6 1.3-1.134 2-1.6zM22.3 45.1c1.8 1.767 2.7 3.917 2.7 6.45 0 1.5-.35 2.85-1.05 4.05L20.4 62l-4.45 7.9-8.1-14.35c-.566-1.2-.85-2.533-.85-4 0-2.5.867-4.667 2.6-6.5 1.767-1.7 3.884-2.55 6.35-2.55 2.5 0 4.617.867 6.35 2.6zM9.6 21.2h4.2l3.8-6.3h15.65l3.7 6.3H72.9M9.6 41.25V14.1c0-1.433.434-2.367 1.3-2.8.433-.2 1.066-.3 1.9-.3h57.05c.833 0 1.4.1 1.7.3.9.367 1.35 1.3 1.35 2.8v21.2"/></svg>