<svg xmlns="http://www.w3.org/2000/svg" width="80" height="80"><path fill="none" stroke="#FF7800" stroke-linecap="round" stroke-linejoin="round" stroke-width="1.5" d="M57.75 71h6.2c4.7 0 7.05-2.35 7.05-7.05v-6.3m-62 0v6.3c0 4.7 2.384 7.05 7.15 7.05h6.2m10.2-31H40v-7.4m7.45 7.4H40v7.5M27.5 40c0-3.4 1.217-6.316 3.65-8.75 2.433-2.367 5.383-3.55 8.85-3.55 3.434 0 6.333 1.183 8.7 3.55 2.467 2.434 3.7 5.35 3.7 8.75 0 3.4-1.233 6.3-3.7 8.7-2.367 2.433-5.266 3.65-8.7 3.65-3.467 0-6.417-1.217-8.85-3.65-2.433-2.4-3.65-5.3-3.65-8.7zM22.35 9h-6.2C11.384 9 9 11.35 9 16.05v6.2m62 0v-6.2C71 11.35 68.65 9 63.95 9h-6.2m4.4 39.6C56.05 55.333 48.667 58.7 40 58.7c-8.667 0-16.05-3.367-22.15-10.1-.933-.933-3.216-3.8-6.85-8.6 3.634-4.733 5.917-7.583 6.85-8.55 6.1-6.733 13.483-10.1 22.15-10.1 8.667 0 16.05 3.367 22.15 10.1.867.967 3.15 3.817 6.85 8.55-3.7 4.8-5.983 7.667-6.85 8.6z"/></svg>