<svg width="80" height="80" fill="none" xmlns="http://www.w3.org/2000/svg"><path d="M41.002 33.852a23.01 23.01 0 001.022-2.822 18.8 18.8 0 00.771-5.085 17.063 17.063 0 10-34.125 0m0 26.423a9.423 9.423 0 009.423 9.423c3.635 0 6.902-3.008 8.36-5.072 0 0 .398-.514 1.067-1.408" stroke="#FF7800" stroke-width="1.5" stroke-linecap="round" stroke-linejoin="round"/><path d="M33.838 22.218a9.766 9.766 0 00-8.106-4.31c-5.399 0-9.42 3.92-9.776 9.775 0 0-.022 5.158-3.993 6.606m.067.069a6.512 6.512 0 018.48 5.143 6.513 6.513 0 01-6.428 7.553m13.414 8.288c-1.086-1.336-2.618-3.31-4.595-5.922 3.261-4.247 5.31-6.804 6.147-7.672a26.327 26.327 0 0139.753 0c.778.868 2.827 3.425 6.147 7.672-3.32 4.308-5.37 6.88-6.147 7.718a26.327 26.327 0 01-39.753 0c-.33-.33-.847-.929-1.552-1.796z" stroke="#FF7800" stroke-width="1.5" stroke-linecap="round" stroke-linejoin="round"/><path d="M48.924 60.823c6.286 0 11.381-5.095 11.381-11.38 0-6.285-5.095-11.38-11.38-11.38-6.286 0-11.381 5.094-11.381 11.38 0 6.285 5.095 11.38 11.38 11.38z" stroke="#FF7800" stroke-width="1.5" stroke-linecap="round" stroke-linejoin="round"/></svg>