<svg width="80" height="80" fill="none" xmlns="http://www.w3.org/2000/svg"><g clip-path="url(#clip0)" stroke="#FF7800" stroke-width="1.5" stroke-linecap="round" stroke-linejoin="round"><path d="M17.531 47.864h-12C4.353 47.812 2 48.45 2 51.423V74.34c0 1.186.34 2.1 1.022 2.74.59.545 1.424.818 2.507.818h22.837c2.33 0 3.494-1.186 3.494-3.558v-9.146l2.012 1.317c.965.64 1.977.96 3.035.96 1.272 0 2.342-.45 3.213-1.352.94-.925 1.412-2.004 1.412-3.238 0-1.306-.471-2.384-1.412-3.24-.871-.9-1.941-1.35-3.213-1.35-.564 0-1.07.07-1.517.213-.494.142-1.023.391-1.589.747l-1.941 1.317v-9.146c0-2.372-1.165-3.559-3.494-3.559h-6.213l1.236 1.992c.142.238.389.748.742 1.531.21.427.317.949.317 1.566 0 1.139-.47 2.218-1.412 3.238-.87.926-1.942 1.388-3.212 1.388-1.224 0-2.294-.462-3.212-1.388-.918-.972-1.376-2.052-1.376-3.238 0-1.044.328-2.064.987-3.06l1.307-2.029zm32.614-14.613l2.461 1.59 7.622 4.918c.96.682 3.283 1.422 4.895-1.075l5.269-8.163 7.16-11.093c.643-.997.852-1.949.626-2.856-.199-.778-.752-1.46-1.662-2.048l-7.622-4.92L57.328 2.14c-1.957-1.263-3.579-.898-4.865 1.095l-4.96 7.684-.976-2.197c-.464-1.062-1.14-1.879-2.03-2.453-1.068-.69-2.211-.892-3.432-.606-1.292.267-2.273.918-2.942 1.955-.708 1.096-.897 2.259-.57 3.487.242 1.23.897 2.188 1.966 2.878.474.306.938.52 1.39.643.492.148 1.072.226 1.74.234l2.346-.054-4.96 7.685c-1.287 1.993-.951 3.621 1.005 4.884l5.22 3.37.043-2.344c.01-.277.079-.84.207-1.69.053-.472.248-.968.583-1.487.617-.956 1.597-1.608 2.942-1.955 1.232-.306 2.384-.113 3.45.576 1.03.663 1.677 1.632 1.947 2.908.244 1.314.043 2.47-.6 3.467-.566.877-1.395 1.556-2.49 2.036l-2.197.995z"/><path d="M31.859 51.343c0-2.33 1.186-3.494 3.558-3.494h9.146l-1.317-1.941c-.355-.566-.605-1.095-.747-1.589a4.995 4.995 0 01-.213-1.518c0-1.27.45-2.341 1.351-3.212.855-.94 1.934-1.412 3.24-1.412 1.233 0 2.312.471 3.238 1.412.901.87 1.351 1.941 1.351 3.212 0 1.06-.32 2.071-.96 3.036L49.19 47.85h9.146c2.373 0 3.559 1.165 3.559 3.494V74.18c0 1.084-.273 1.919-.82 2.508-.64.681-1.552 1.023-2.739 1.023H35.417c-2.973 0-3.61-2.354-3.558-3.53M28.477 47.86c2.372 0 3.559-1.164 3.559-3.493v-6.213l-1.992 1.235c-.238.142-.748.39-1.531.742-.427.211-.95.317-1.566.317-1.139 0-2.218-.47-3.238-1.412-.926-.87-1.388-1.941-1.388-3.211 0-1.224.462-2.294 1.387-3.213.973-.918 2.053-1.376 3.239-1.376 1.044 0 2.064.329 3.06.988l2.029 1.307V21.53c.052-1.177-.586-3.53-3.559-3.53H5.56c-1.186 0-2.1.341-2.74 1.023-.545.589-.82 1.423-.82 2.507v22.837c0 2.329 1.187 3.494 3.56 3.494"/></g><defs><clipPath id="clip0"><path fill="#fff" d="M0 0h80v80H0z"/></clipPath></defs></svg>