<svg xmlns="http://www.w3.org/2000/svg" width="80" height="80"><g fill="none" fill-rule="evenodd" stroke="#FF7800" stroke-linecap="round" stroke-linejoin="round" stroke-width="1.5"><path d="M67.785 51.285l-38.95 10.45-.9-3.45 4.7-8.2 8.2 4.75 11.65-20.2 13.9 8-6.45-24.05-39.8 10.7 6.5 24.1m3.2-17.85c.733-1.366 1.866-2.25 3.4-2.65 1.5-.4 2.966-.2 4.4.6 1.367.8 2.25 1.95 2.65 3.45.4 1.534.2 2.984-.6 4.35-.8 1.4-1.95 2.3-3.45 2.7-1.534.4-2.983.2-4.35-.6-1.367-.8-2.267-1.95-2.7-3.45-.367-1.5-.15-2.966.65-4.4zm-14.05-5.1l10.25 38.25c.9 3.4 3.05 4.633 6.45 3.7l38.2-10.25c3.433-.9 4.7-3.05 3.8-6.45l-10.25-38.2c-.9-3.367-3.084-4.6-6.55-3.7l-38.2 10.2c-3.367.934-4.6 3.083-3.7 6.45z"/><path d="M54.485 11.735c-.9-3.367-3.084-4.6-6.55-3.7l-38.2 10.2c-3.367.934-4.6 3.083-3.7 6.45l10.25 38.25c.9 3.4 3.05 4.633 6.45 3.699"/></g></svg>