<svg xmlns="http://www.w3.org/2000/svg" width="80" height="80"><g fill="none" fill-rule="evenodd" stroke="#FF7800" stroke-linecap="round" stroke-linejoin="round" stroke-width="1.5"><path d="M22 52.182l-5.133 3.134a2.008 2.008 0 00-.596 2.87A29.87 29.87 0 0030.424 68.95c15.57 5.669 32.78-2.361 38.45-17.931l4.06 1.48c1.49.54 2.99-.79 2.63-2.33l-3.85-16.66c-.33-1.41-2-2.01-3.16-1.14l-13.65 10.28c-1.27.95-.97 2.93.52 3.47l4.05 1.48c-3.78 10.38-15.25 15.73-25.63 11.95a19.855 19.855 0 01-9.192-6.834A2 2 0 0022 52.182zm30.684-3.423v6"/><path d="M52.684 40.759v-16a2 2 0 00-2-2h-4v-2a2 2 0 00-2-2h-8a2 2 0 00-2 2v2h-4a2 2 0 00-2 2v30"/><path d="M40.684 32.759l-4 10 8-2-4 10m-16-15.821l-2.79-1.02c.69-1.9 1.64-3.629 2.79-5.16"/><path d="M24.684 40.209l-11.87 8.939c-1.16.87-2.83.27-3.16-1.14l-3.85-16.66c-.36-1.54 1.14-2.87 2.63-2.33l4.06 1.48c5.67-15.57 22.88-23.6 38.45-17.93a29.84 29.84 0 0114.15 10.76c.67.95.4 2.27-.59 2.87l-5.13 3.14c-.89.54-2.04.3-2.66-.54-.01-.01-.02-.03-.03-.04"/></g></svg>