<svg width="80" height="80" fill="none" xmlns="http://www.w3.org/2000/svg"><path d="M22.461 73.873c4.674-1.303 7.121-7.174 5.465-13.113-1.656-5.938-6.787-9.695-11.462-8.392C11.79 53.672 9.343 59.542 11 65.481c1.656 5.938 6.788 9.696 11.462 8.392zm47.124-8.388c1.656-5.938-.79-11.809-5.465-13.112-4.674-1.304-9.806 2.453-11.462 8.392-1.656 5.938.79 11.809 5.465 13.112 4.675 1.304 9.806-2.453 11.462-8.392z" stroke="#FF7800" stroke-width="1.5" stroke-miterlimit="9.999"/><path d="M65.056 11.204A8.208 8.208 0 0056.85 3c-3.183 0-5.917 1.793-7.307 4.438-2.735-1.614-5.963-2.51-9.37-2.51-3.362 0-6.5.896-9.235 2.42A8.219 8.219 0 0023.675 3a8.208 8.208 0 00-8.204 8.204c0 3.945 2.78 7.263 6.5 8.025a19.894 19.894 0 00-.493 4.349c0 10.356 8.384 18.695 18.695 18.695s18.695-8.384 18.695-18.695c0-1.48-.18-2.96-.493-4.349 3.81-.672 6.68-4.035 6.68-8.025z" stroke="#FF7800" stroke-width="1.5" stroke-miterlimit="10"/><path d="M31.656 22.233a1.973 1.973 0 100-3.945 1.973 1.973 0 000 3.945zm17.664 0a1.973 1.973 0 100-3.945 1.973 1.973 0 000 3.945z" fill="#FF7800"/><path d="M52.592 67.827c-3.407 2.69-7.71 4.259-12.373 4.259-4.618 0-8.832-1.57-12.24-4.17m25.465-31.113c.448-.448 4.26-4.976 7.666-4.976 3.9 0 7.084 3.183 7.084 7.083 0 3.9-3.183 7.084-7.084 7.084a7.47 7.47 0 01-1.748-.225c.627 1.928.986 3.99.986 6.142v.404M31.925 40.39c-1.614 1.883-2.556 4.303-2.556 6.993 0 5.963 4.842 10.805 10.805 10.805 5.962 0 10.804-4.842 10.804-10.805 0-2.645-.941-5.11-2.555-6.993M20.044 52.315v-.359c0-2.107.359-4.17.942-6.097-.493.135-1.031.18-1.57.18-3.9 0-7.083-3.184-7.083-7.084 0-3.9 3.183-7.083 7.084-7.083 3.362 0 7.173 4.662 7.487 4.976m13.315-8.159c1.807 0 3.272-1.044 3.272-2.332 0-1.287-1.465-2.33-3.272-2.33-1.808 0-3.273 1.043-3.273 2.33 0 1.288 1.465 2.332 3.273 2.332z" stroke="#FF7800" stroke-width="1.5" stroke-miterlimit="10" stroke-linecap="round"/><path d="M40.219 38.955a8.832 8.832 0 100-17.663 8.832 8.832 0 000 17.663z" stroke="#FF7800" stroke-width="1.5" stroke-miterlimit="10" stroke-linecap="round"/><path d="M28.07 9.725c-1.973 1.703-3.543 3.81-4.663 6.231-2.152-.313-3.766-2.151-3.766-4.393a4.42 4.42 0 014.438-4.438c1.749.044 3.318 1.075 3.99 2.6zm24.97-.448c1.973 1.703 3.542 3.81 4.663 6.231 2.152-.314 3.766-2.152 3.766-4.393a4.42 4.42 0 00-4.438-4.439 4.532 4.532 0 00-3.99 2.6z" stroke="#FF7800" stroke-width="1.5" stroke-miterlimit="10"/><path d="M45.733 30.751c-1.12 1.39-3.183 2.331-5.56 2.331-2.286 0-4.348-.896-5.469-2.241m5.515-1.794v3.856" stroke="#FF7800" stroke-width="1.5" stroke-miterlimit="10" stroke-linecap="round"/></svg>