<svg xmlns="http://www.w3.org/2000/svg" width="80" height="80"><path fill="none" stroke="#FF7800" stroke-linecap="round" stroke-linejoin="round" stroke-width="1.5" d="M67.75 53H13h54.75zm0-34H13h54.75zM34.149 32.95l12.5 13.65H21.6l12.549-13.65zM3 62.8v2.5c.533.467 1.083.7 1.649.7h71.55c.601 0 1.101-.233 1.5-.7v-2.5H3zm67.5-3.1H10.05L3 62.8h74.699L70.5 59.7zM45 41.05l4.6-4.95 9.549 10.5h-10m-2.5-19.701c.667.667 1 1.5 1 2.5 0 .934-.333 1.75-1 2.451-.7.7-1.533 1.049-2.5 1.049a3.253 3.253 0 01-2.45-1.049c-.699-.701-1.05-1.517-1.05-2.451 0-1 .351-1.833 1.05-2.5.667-.666 1.484-1 2.45-1 .967 0 1.8.334 2.5 1zm-36.299-9.25V54c0 1.733.882 2.6 2.65 2.6h54.75c1.732 0 2.6-.867 2.6-2.6V17.649c0-1.766-.868-2.649-2.6-2.649H13c-1.768 0-2.65.883-2.65 2.649z"/></svg>