<svg xmlns="http://www.w3.org/2000/svg" width="80" height="80"><path d="M22.648 34.921l44.135 12.123s1.362-4.086 2.043-6.061c.68-1.975-.273-4.427-2.996-5.654-2.725-1.225-12.67-5.448-12.67-5.448s10.762-18.935.818-21.795c-9.944-2.861-9.808 13.35-10.08 18.662 0 0-11.034-1.226-13.895-1.499-2.86-.272-5.312 1.09-5.857 3.27-.545 2.179-1.498 6.402-1.498 6.402zm2.362.649s-4.405 12.835-13.26 22.234c0 0 4.904 2.997 7.356 3.951 0 0 6.947-7.493 9.535-12.533 0 0-2.451 8.855-4.359 14.303 0 0 9.671 3.68 20.706 6.13 0 0 2.724-9.808 3.542-13.076v13.893s3.813.954 5.448 1.09c0 0 .817-6.675.954-9.126l2.315 9.126s3.815.818 7.765 1.09c0 0-2.316-17.027-.954-25.609" fill="none" stroke="#FF7800" stroke-linecap="round" stroke-linejoin="round" stroke-width="1.5"/></svg>