<svg xmlns="http://www.w3.org/2000/svg" width="80" height="80"><path fill="none" stroke="#FF7800" stroke-linecap="round" stroke-linejoin="round" stroke-width="1.5" d="M40 48.551H18h22zm7.45 4.149H9h38.45zm7.45-6.95l14 24.5h-28l14-24.5zM15 48.551h3v-5.75M13.4 57.7H9h4.4zm27.901 5.75H7c-3.1 0-4.767-1.417-5-4.25v-3.399c0-1.768.467-3.067 1.4-3.9l7.6-7.35c1.167-1.167 2.533-1.75 4.101-1.75H18v-17.2h14.15M40 33.45v9.351-9.351zm14.9 30.951V65v-.599zm0-8.75V61.5v-5.849zM44.476 58.75a2.432 2.432 0 01-.026-.349c0-.567.2-1.05.601-1.451.203-.204.437-.353.699-.45m4.351-8.974L47.25 44.75c-1.3-1.3-2.732-1.949-4.3-1.949H40v5.75h3M32.15 33.45H40l-7.85-7.849v7.849zm33-12.2c1.333 1.301 2 2.867 2 4.7 0 1.833-.667 3.417-2 4.75-1.266 1.267-2.833 1.901-4.7 1.901-1.833 0-3.399-.634-4.7-1.901-1.3-1.333-1.949-2.917-1.949-4.75 0-1.833.649-3.399 1.949-4.7 1.301-1.3 2.867-1.949 4.7-1.949 1.867 0 3.434.649 4.7 1.949zm-6.099 6.101c-.367-.367-.551-.833-.551-1.401 0-.533.184-1 .551-1.399A2.066 2.066 0 0160.5 24c.533 0 1 .184 1.4.551.368.399.55.866.55 1.399 0 .568-.182 1.034-.55 1.401-.4.399-.867.599-1.4.599-.566 0-1.05-.2-1.449-.599zM62.65 53h9.55c.434 0 .818-.166 1.151-.5.333-.3.5-.682.5-1.149v-.05c0-.434-.167-.834-.5-1.2a1.67 1.67 0 00-1.151-.45h-6.25m-5.2 0h5.2v-7.625c-1.714.583-3.547.875-5.5.875-1.973 0-3.823-.292-5.55-.875-2.385-.803-4.535-2.161-6.45-4.076-3.3-3.333-4.95-7.333-4.95-12s1.65-8.667 4.95-12c3.3-3.299 7.3-4.95 12-4.95 4.667 0 8.651 1.651 11.95 4.95 3.333 3.333 5 7.333 5 12s-1.667 8.667-5 12c-1.919 1.919-4.068 3.278-6.45 4.076"/></svg>