<svg xmlns="http://www.w3.org/2000/svg" width="80" height="80"><path fill="none" stroke="#FF7800" stroke-linecap="round" stroke-linejoin="round" stroke-width="1.5" d="M29.65 52.35c-.433 4.067-2.133 7.617-5.1 10.65-1.267 1.234-2.633 2.234-4.1 3m7.6 2.3c2.534-2.033 4.467-4.266 5.8-6.7M51.8 23.201a86.64 86.64 0 006.4 6.7M52.8 38c4.7 0 8.7 1.651 12 4.951 3.3 3.366 4.95 7.382 4.95 12.049 0 4.701-1.65 8.701-4.95 12-3.3 3.333-7.3 5-12 5-4.733 0-8.75-1.667-12.05-5-3.333-3.299-5-7.299-5-12 0-4.667 1.667-8.683 5-12.049C44.05 39.651 48.067 38 52.8 38zm4.4 14.451V49.85c0-1.199-.45-2.232-1.35-3.1-.8-.833-1.833-1.25-3.1-1.25-1.2 0-2.233.417-3.1 1.25v.05c-.833.867-1.25 1.884-1.25 3.05v2.601h8.8zm-8.8 0h-1.55c-.433 0-.733.132-.9.399-.1.167-.15.384-.15.65v8c0 .701.35 1.05 1.05 1.05H58.7c.667 0 1-.349 1-1.05v-8c0-.7-.333-1.049-1-1.049H48.4zm-35.15-35.5C19.084 11.651 26 9 34 9s14.883 2.651 20.65 7.951M33.75 38.5c1.033 1.401 2.117 2.8 3.25 4.201L33.75 38.5zM16.2 60.651c1.267-.467 2.45-1.167 3.55-2.101.2-.2.4-.432.6-.7 1.467-1.399 2.517-2.967 3.15-4.699.5-1.401.75-2.901.75-4.5 0-1.734-.317-3.351-.95-4.851a5.931 5.931 0 01-.25-.7c-.567-1.366-.85-2.833-.85-4.399 0-3.3 1.167-6.134 3.5-8.5 2.3-2.3 5.1-3.451 8.4-3.451 3.333 0 6.15 1.151 8.45 3.451l.3.299a87.558 87.558 0 004.5 5.201m-13.6 13c-.2-.267-.416-.55-.65-.851a84.366 84.366 0 01-4-5.649c-.133-.201-.25-.384-.35-.55a5.956 5.956 0 01-.8-3c0-1.7.6-3.117 1.8-4.25 1.2-1.2 2.617-1.801 4.25-1.801 1.667 0 3.1.601 4.3 1.801.333.266.617.616.85 1.05a118.614 118.614 0 002.3 3m-31.3-2.25c.033-.201.067-.368.1-.5.667-5.201 2.933-9.734 6.8-13.601 4.733-4.699 10.433-7.05 17.1-7.05 5.533 0 10.4 1.601 14.6 4.8m-36.6 29.5c-1.133-2.566-1.85-5.316-2.15-8.25m2.85 13.75a5.69 5.69 0 002.05-1.05c.233-.2.5-.417.8-.649 1.367-1.401 2.05-3.068 2.05-5a6.66 6.66 0 00-.45-2.45 1.95 1.95 0 00-.2-.451c-.833-2.066-1.25-4.299-1.25-6.7 0-.667.05-1.333.15-2 .433-4.066 2.117-7.599 5.05-10.599 3.5-3.5 7.733-5.25 12.7-5.25 4.867 0 9.017 1.75 12.45 5.25.5.466 1.867 1.983 4.1 4.549 1.233 1.434 2.733 2.967 4.5 4.6"/></svg>