<svg xmlns="http://www.w3.org/2000/svg" width="80" height="80"><g fill="none" fill-rule="evenodd" stroke="#FF7800" stroke-linecap="round" stroke-linejoin="round" stroke-width="1.5"><path d="M41.2 29.3l-4.25 4.3M34.8 44.85V38.9m-2.2-.95a4.705 4.705 0 011.35-.3c.333.4.617.817.85 1.25.2-.433.467-.85.8-1.25.467.034.933.117 1.4.25m-4.45-4.3c.167.434.283.934.35 1.5-.4.233-.8.468-1.2.7m6.2-.05a5.347 5.347 0 01-1.2-.8c.033-.466.117-.916.25-1.35a8.772 8.772 0 01-1.35.3c-.3-.4-.567-.817-.8-1.25m9.1 3.15l-6-.05c-.467.2-.867.45-1.2.75.033.5.134.967.3 1.4l4.25 4.25m.3 9.85c-.133-.1-.25-.233-.35-.4l-5.1-5.05a7.713 7.713 0 01-1.3-1.7 6.702 6.702 0 01-1.25 1.85l-5.1 5c-.1.133-.217.25-.35.35m0 0a3.4 3.4 0 01-.05-.55v-7.2c0-.7.117-1.35.35-1.95m-9.95.3h7.7c.8 0 1.55-.1 2.25-.3l4.2-4.4c.167-.433.267-.882.3-1.35a4.717 4.717 0 00-1.2-.8h-6m-7.25 6.85l.45-.45 5.1-5.1c.5-.5 1.067-.933 1.7-1.3a7.028 7.028 0 01-1.8-1.25l-5.05-5.1c-.1-.066-.2-.132-.3-.2m0 0a2.35 2.35 0 01.45-.05h7.15c.8 0 1.567.118 2.3.35m13.1-10v7.65c0 .734-.117 1.434-.35 2.1a6.497 6.497 0 012.15-.35h7.2c.2 0 .367.034.5.1l-.35.35-5.05 5.05c-.567.567-1.133 1.017-1.7 1.35h-.05c.6.3 1.183.717 1.75 1.25l5.05 5.05c.133.1.25.218.35.35m-9.5-22.9c-.133-1.633-.8-3.066-2-4.3-1.333-1.3-2.916-1.95-4.75-1.95-1.867 0-3.466.65-4.8 1.95-1.2 1.234-1.85 2.684-1.95 4.35l.35.35L33.5 25a7.216 7.216 0 011.3 1.75c.3-.667.733-1.266 1.3-1.8l5.1-5.1c.1-.1.217-.2.35-.3 1.2-1.1 2.65-1.65 4.35-1.65 1.867 0 3.45.65 4.75 1.95l.05.05c1.267 1.267 1.9 2.85 1.9 4.75 0 1.7-.517 3.168-1.55 4.4 1.633.1 3.05.734 4.25 1.9 1.334 1.334 2 2.917 2 4.75v.05c0 1.833-.666 3.417-2 4.75-1.233 1.2-2.65 1.85-4.25 1.95h-7.7a6.95 6.95 0 01-2.1-.3c.2.7.3 1.418.3 2.15V52c-.1 1.634-.75 3.034-1.95 4.2-1.333 1.334-2.917 2-4.75 2h-.05c-1.867 0-3.45-.666-4.75-2-1.166-1.132-1.817-2.516-1.95-4.15-1.267 1.066-2.733 1.6-4.4 1.6-1.867 0-3.45-.65-4.75-1.95h-.05c-1.3-1.333-1.95-2.933-1.95-4.8 0-1.633.5-3.05 1.5-4.25-1.633-.133-3.033-.8-4.2-2-1.3-1.3-1.95-2.866-1.95-4.7v-.05c0-1.832.65-3.416 1.95-4.75 1.233-1.2 2.667-1.832 4.3-1.9-1.1-1.3-1.65-2.816-1.65-4.55 0-1.834.65-3.4 1.95-4.7v-.05c1.333-1.3 2.933-1.95 4.8-1.95 1.7 0 3.167.533 4.4 1.6v7.6c0 .868.133 1.65.4 2.35l4.05 4h.05v.05c.467.134.95.233 1.45.3.3-.4.567-.817.8-1.25v-5.9"/><path d="M59.069 44.445c-.4-.03-.806-.045-1.219-.045-3.934 0-7.317 1.384-10.15 4.15-2.767 2.834-4.15 6.216-4.15 10.15 0 .436.017.864.05 1.285m-2.75 2.766H22.7c-9.967 0-14.95-5-14.95-15h0V23.75c0-10 4.983-15 14.95-15h24c10.033 0 15.05 5 15.05 15h0v18.001m-2.681 2.694c3.441.258 6.402 1.627 8.881 4.105 2.8 2.834 4.2 6.216 4.2 10.15 0 3.967-1.4 7.334-4.2 10.1-2.767 2.8-6.134 4.201-10.1 4.201-3.934 0-7.317-1.4-10.15-4.2-2.463-2.463-3.83-5.402-4.1-8.816m8.15-.935l4.4 4.35 7.95-7.95"/></g></svg>