<svg xmlns="http://www.w3.org/2000/svg" width="80" height="80"><path d="M30.3 55.25V33.3M40.95 41l.85-8.75M20.7 52.6l-1.85-20.35M32.9 64.6c-.832.067-1.7.1-2.6.1-4.634 0-8.617-.9-11.95-2.7-3.3-1.833-5.117-4.483-5.45-7.95L8.8 23m13.35-8.1v-1.2c0-2.634 1.383-3.95 4.15-3.95h8.25c2.733 0 4.1 1.316 4.1 3.95v1.2m13.2 8.1l-.3 2.15m-8.9-13.55l2.8.7c1.3.367 2.383.783 3.25 1.25 2.033 1 3.05 2.117 3.05 3.35 0 .966-.6 1.883-1.8 2.75-1.133.633-2.633 1.267-4.5 1.9-4.3 1.266-9.367 1.9-15.2 1.9-5.834 0-10.9-.634-15.2-1.9-1.834-.5-3.3-1.116-4.4-1.85-1.267-.867-1.9-1.8-1.9-2.8 0-1.367 1.05-2.483 3.15-3.35.833-.467 1.883-.883 3.15-1.25l3.1-.75m20.4 42.6c-.767 5.5-2.4 10.534-4.9 15.1 2 .367 4.017.684 6.05.95 1.633-3.266 2.9-6.766 3.8-10.5v10.9c4.666.434 9.45.533 14.35.3l-.2-9.65 2.75 9.4c1.834-.1 3.05-.183 3.65-.25l-1.4-6.35 3.5 6.1c1.733-.267 3.566-.566 5.5-.9-2.534-4.566-4.184-9.6-4.95-15.1H38.55zm17.55-24.7c-.9-1-2.05-1.5-3.45-1.5-1.367 0-2.483.5-3.35 1.5-.866 1-1.232 2.267-1.1 3.8l1.2 9.2-9.95 1.35c-.7.067-1.284.333-1.75.8-.4.334-.633.834-.7 1.5v5.2h31.3v-5.15c-.066-.666-.3-1.183-.7-1.55-.4-.432-.983-.7-1.75-.8l-9.75-1.35 1-9.2c.2-1.533-.133-2.8-1-3.8z" fill="none" stroke="#FF7800" stroke-linecap="round" stroke-linejoin="round" stroke-width="1.5"/></svg>