<svg xmlns="http://www.w3.org/2000/svg" width="80" height="80"><path fill="none" stroke="#FF7800" stroke-linecap="round" stroke-linejoin="round" stroke-width="1.5" d="M52.204 72.05c-3.866-.6-7.283-2.366-10.25-5.3-3.733-3.733-5.6-8.217-5.6-13.45 0-4.666 1.451-8.732 4.35-12.199M13.354 44.8l.3-1m19.05-5.8c-.133.901-.967 1.667-2.5 2.3-.3.101-.583.2-.85.301-1.533.5-3.299.75-5.299.75-2 0-3.768-.25-5.3-.75-.268-.101-.55-.2-.85-.301-1.567-.633-2.4-1.399-2.5-2.3m19.55 21.901H6.504c-1.268.033-1.735-.517-1.4-1.651L9.004 45c.232-.833.95-1.233 2.15-1.2h2.5l1.75-5.8 2.4-7.899m12.5 0l2.4 7.899 2.05 6.7v.1c0 1.301-1.05 2.417-3.15 3.351-2.068.933-4.568 1.399-7.5 1.399-3 0-5.534-.466-7.6-1.399-2.1-.934-3.15-2.05-3.15-3.351l-2.35 7.75m16.95-29.949c-.067.233-.435.433-1.1.599-.767.234-1.7.35-2.8.35-1.1 0-2.018-.116-2.75-.35-.7-.166-1.084-.366-1.15-.599l-2.35 7.5c.033.533.65.983 1.85 1.349 1.2.368 2.683.55 4.45.55 1.7 0 3.15-.182 4.35-.55 1.2-.366 1.815-.816 1.85-1.349l-2.35-7.5-1.2-4.051c-.334-1.033-.985-1.566-1.95-1.6h-1.5c-1 .034-1.667.567-2 1.6l-1.15 4.051m10.7.099V7h34.5v26.95m-4.55 23.25l-8.6 14.85a20.34 20.34 0 003.25.25c5.2 0 9.683-1.85 13.45-5.55 3.733-3.733 5.6-8.217 5.6-13.45 0-2.399-.4-4.616-1.2-6.649m-24 9.099a6.063 6.063 0 01-.5-2.45c0-1.833.65-3.399 1.95-4.699 1.3-1.3 2.866-1.95 4.7-1.95h17.85c-.868-2.534-2.334-4.817-4.4-6.851-3.767-3.699-8.25-5.55-13.45-5.55-5.268 0-9.768 1.851-13.5 5.55-.435.434-.85.867-1.25 1.301l8.6 14.649c.033.2.116.401.25.601l.15.199c.232.5.582.967 1.05 1.4 1.3 1.3 2.866 1.951 4.7 1.951 1.766 0 3.332-.651 4.7-1.951.2-.233.416-.483.65-.75.1-.166.2-.316.3-.45.632-1.033.95-2.182.95-3.45 0-1.833-.634-3.399-1.9-4.699-1.267-1.234-2.767-1.884-4.5-1.95m4.45-18.151c0 .101-.068.167-.2.2-.3.201-.75.267-1.35.201-1.7-.267-3.45-.85-5.25-1.75-3.667.599-6.967 1.399-9.9 2.399l-.3.101m-1.45.399c-.834.367-1.668.867-2.5 1.5-1.635 1.233-2.45 2.184-2.45 2.851 0 .599.25.95.75 1.049.5.101 1.032-.066 1.6-.5.6-.433 1.266-1.15 2-2.15a22.454 22.454 0 002.05-3.149l.1-.201a.533.533 0 01.1-.15c.066-.1.1-.183.1-.25a68.65 68.65 0 001.3-2.649 47.66 47.66 0 001.35-2.851c.5-1.166.982-2.517 1.45-4.05.3.967.515 1.568.65 1.8 1.1 2.4 2.816 4.351 5.15 5.851a.43.43 0 01.2-.05c1.765-.267 3.232-.367 4.4-.301.865.067 1.516.284 1.95.65.233.201.366.401.4.6m-11.6-14.75c.066-.232.082-.482.05-.75-.1-.533-.4-.8-.9-.8-.634 0-1 .5-1.1 1.5-.067.467-.05 1 .05 1.601l.25 2.25c.133.8.3 1.599.5 2.399.3-.833.55-1.916.75-3.25"/></svg>