<svg xmlns="http://www.w3.org/2000/svg" width="80" height="80"><path fill="none" stroke="#FF7800" stroke-linecap="round" stroke-linejoin="round" stroke-width="1.5" d="M67.75 53H13h54.75zm0-34H13h54.75zm-38.4 26.05c.333-.333.65-.667.95-1 2.8-2.767 6.15-4.151 10.05-4.151 3.933 0 7.299 1.384 10.1 4.151.333.333.633.667.9 1m-20-16.151l3 3 3-3m0 6l-3-3-3 3m18 0l-3-3-3 3m0-6l3 3 3-3M77.699 62.8L70.5 59.7H10.05L3 62.8h74.699zM3 65.3c.533.467 1.083.7 1.649.7h71.55c.601 0 1.101-.233 1.5-.7v-2.5H3v2.5zM67.75 15H13c-1.767 0-2.65.883-2.65 2.649V54c0 1.733.883 2.6 2.65 2.6h54.75c1.732 0 2.6-.867 2.6-2.6V17.649c0-1.766-.868-2.649-2.6-2.649z"/></svg>