<svg xmlns="http://www.w3.org/2000/svg" width="80" height="81"><g fill="none" fill-rule="evenodd" stroke="#FF7800" stroke-linecap="round" stroke-linejoin="round" stroke-width="1.5"><path d="M44.497 29.25a5.2 5.2 0 11-10.401-.001 5.2 5.2 0 0110.401.001z"/><path d="M54.897 29.25c0 11.7-15.6 24.7-15.6 24.7s-15.6-13-15.6-24.7c0-8.616 6.983-15.6 15.6-15.6 8.615 0 15.6 6.984 15.6 15.6z"/><path d="M52.297 47.45h2.509c.868 0 1.68.435 2.163 1.159l9.533 14.3c1.151 1.727-.087 4.041-2.164 4.041H14.253c-2.074 0-3.313-2.314-2.163-4.041l9.534-14.3a2.6 2.6 0 012.164-1.159h2.509m35.1 7.8l-15.6 11.7m-26-14.3l31.2 10.4m-20.8-6.5l3.9 10.4"/></g></svg>