<svg xmlns="http://www.w3.org/2000/svg" width="80" height="80"><path fill="none" stroke="#FF7800" stroke-linecap="round" stroke-linejoin="round" stroke-width="1.5" d="M48.565 42.568l14.937 15.054-14.937-15.054zM30.482 30.635c-.965 1.007-2.13 1.51-3.497 1.51-1.364 0-2.547-.503-3.546-1.51-.967-.972-1.45-2.147-1.45-3.524 0-1.376.483-2.568 1.45-3.575.999-.973 2.182-1.46 3.546-1.46 1.366 0 2.532.487 3.497 1.46 1 1.007 1.499 2.199 1.499 3.575 0 1.377-.5 2.552-1.499 3.524zm37.865 25.677c.467 1.141.683 2.249.65 3.323v5.438c-.033 1.074-.433 1.98-1.2 2.719A3.74 3.74 0 0165.1 69h-5.645a3.129 3.129 0 01-1.548-.705c-.4-.368-.633-.906-.7-1.611v-5.186h-4.895c-.7-.067-1.249-.302-1.648-.705-.4-.503-.6-1.024-.6-1.56V54.45H43.92l-4.296-4.43c-2.565 1.174-5.361 1.761-8.393 1.761-5.561 0-10.323-1.997-14.286-5.991C12.98 41.83 11 37.03 11 31.39c0-5.638 1.981-10.454 5.945-14.449C20.908 12.981 25.67 11 31.23 11c5.595 0 10.358 1.98 14.287 5.941 3.964 3.995 5.945 8.81 5.945 14.45 0 2.182-.3 4.262-.9 6.243L66.2 53.19c.966.94 1.682 1.98 2.148 3.121z"/></svg>