<svg xmlns="http://www.w3.org/2000/svg" width="80" height="80"><path d="M60.25 25.106l-20 14.64m8.149-29.128c3.5.88 6.75 2.542 9.75 4.982M70 40c0 8.371-2.95 15.539-8.851 21.502C55.283 67.501 48.233 70.5 40 70.5c-8.4 0-15.533-3-21.4-8.998C12.866 55.54 10 48.372 10 40c0-8.54 2.866-15.793 8.6-21.757C24.467 12.415 31.6 9.5 40 9.5m24.149 12.2c2.268 2.915 3.901 6.219 4.901 9.913m-34.6 8.336c0 1.56.517 2.864 1.55 3.915 1.1 1.117 2.417 1.677 3.95 1.676 1.5.001 2.767-.559 3.8-1.676 1.133-1.051 1.7-2.356 1.7-3.915 0-1.524-.567-2.847-1.7-3.964-1.033-1.085-2.3-1.627-3.8-1.628-1.533.001-2.85.543-3.95 1.628-1.033 1.117-1.55 2.44-1.55 3.964M15.1 37.713c.5-5.118 2.567-9.574 6.2-13.37 4.267-4.337 9.434-6.506 15.5-6.507 5.967.001 11.067 2.17 15.3 6.508.6.609 1.167 1.253 1.7 1.931M15 39.95l.1-2.236c.467-6.033 2.85-11.269 7.15-15.708 4.9-4.948 10.817-7.421 17.75-7.421 6.9 0 12.784 2.473 17.65 7.421.267.27.533.56.8.864m3.5 4.779C63.985 31.34 65 35.459 65 40h-6.45c0-3.186-.583-6.134-1.75-8.845" stroke="#FF7800" stroke-width="2" fill="none" stroke-linecap="round" stroke-linejoin="round"/></svg>