<svg xmlns="http://www.w3.org/2000/svg" width="80" height="80"><path fill="none" stroke="#FF7800" stroke-linecap="round" stroke-linejoin="round" stroke-width="1.5" d="M24.35 66v2.15c0 1.901.95 2.85 2.85 2.85 1.9 0 2.85-.949 2.85-2.85V66h-5.7zm36.3-14.399c.633 0 1.183-.234 1.65-.701.467-.466.7-1.016.7-1.65v-5.5c0-.666-.233-1.232-.7-1.699a2.344 2.344 0 00-1.65-.651M35.8 33.701c1.067 0 1.967.35 2.7 1.049a3.844 3.844 0 011.1 2.75 3.613 3.613 0 01-1.1 2.65c-.733.767-1.633 1.151-2.7 1.151-1.033 0-1.933-.384-2.7-1.151A3.613 3.613 0 0132 37.5c0-1.066.367-1.982 1.1-2.75a3.88 3.88 0 012.7-1.049zM55.7 66h.7c8.067 0 12.1-4.033 12.1-12.1V21.101C68.5 13.033 64.467 9 56.4 9H23.6c-8.067 0-12.1 4.033-12.1 12.101V53.9c0 8.067 4.033 12.1 12.1 12.1h32.1v2.15c0 1.901-.95 2.85-2.85 2.85-1.9 0-2.85-.949-2.85-2.85V66h5.7zm4.95-42.6v-1.799c0-3.167-1.583-4.75-4.75-4.75H24.1c-3.167 0-4.75 1.583-4.75 4.75V53.4c0 3.167 1.583 4.75 4.75 4.75h31.8c3.167 0 4.75-1.583 4.75-4.75v-1.799h-.1c-.633 0-1.183-.234-1.65-.701a2.344 2.344 0 01-.65-1.65v-5.5c0-.666.217-1.232.65-1.699a2.344 2.344 0 011.65-.651h.1v-7.799h-.1c-.633 0-1.183-.25-1.65-.75-.433-.434-.65-.967-.65-1.601v-5.5c0-.666.217-1.232.65-1.699a2.344 2.344 0 011.65-.651h.1c.633 0 1.183.217 1.65.651.467.467.7 1.033.7 1.699v5.5c0 .634-.233 1.167-.7 1.601-.467.5-1.017.75-1.65.75M42.9 30.4c1.967 1.967 2.95 4.334 2.95 7.1 0 2.734-.983 5.084-2.95 7.051-1.967 1.967-4.333 2.949-7.1 2.949-2.733 0-5.083-.982-7.05-2.949-1.967-1.967-2.95-4.317-2.95-7.051 0-2.766.983-5.133 2.95-7.1 1.967-1.966 4.317-2.949 7.05-2.949 2.767 0 5.133.983 7.1 2.949z"/></svg>