<svg xmlns="http://www.w3.org/2000/svg" width="80" height="80"><path d="M51.006 59.778l2.385 2.394 1.292 1.247 6.609-6.634m-24.447-4.14v-3.841c-.63 0-1.16-.233-1.59-.699-.432-.399-.646-.914-.646-1.546 0-.565.214-1.097.646-1.596.43-.4.96-.598 1.59-.599.562.001 1.06.2 1.49.599.43.499.646 1.031.646 1.596 0 .632-.215 1.147-.646 1.546-.43.466-.928.699-1.49.699v3.842zm13.863-21.947H23.13h27.578zM42.56 66.363H20.25c-5.5 0-8.249-2.861-8.249-8.58V38.976c0-5.52 2.75-8.28 8.248-8.28h2.882v-9.079c.133-3.592 1.507-6.65 4.125-9.178 2.683-2.627 5.88-3.94 9.59-3.94 3.843 0 7.138 1.313 9.888 3.94 2.517 2.528 3.842 5.586 3.975 9.178v9.08h2.882c5.499 0 8.249 2.759 8.249 8.279v6.734m2.633 5.287C66.824 53.394 68 56.203 68 59.428c0 3.326-1.176 6.152-3.528 8.48-2.352 2.395-5.15 3.592-8.397 3.592-3.313 0-6.145-1.197-8.497-3.592a10.936 10.936 0 01-1.292-1.545 11.313 11.313 0 01-1.839-4.19 12.653 12.653 0 01-.298-2.744c0-3.226 1.143-6.035 3.429-8.43 2.252-2.228 4.919-3.377 8-3.442h.497c2.12 0 4.041.481 5.764 1.446a13.43 13.43 0 012.633 1.995z" stroke="#FF7800" stroke-width="2" fill="none" stroke-linecap="round" stroke-linejoin="round"/></svg>