<svg xmlns="http://www.w3.org/2000/svg" width="80" height="80"><path fill="none" stroke="#FF7800" stroke-linecap="round" stroke-linejoin="round" stroke-width="1.5" d="M18.608 22.758h-2.344c-3.124.001-4.687 1.592-4.687 4.774V61m56.846 0V27.532c0-3.182-1.596-4.773-4.787-4.774h-2.194m14.51 43.574a3.848 3.848 0 01-2.393 1.168H6.441c-.998-.068-1.795-.424-2.394-1.066-.665-.677-1.014-1.473-1.047-2.387v-.102h28.822l1.097 1.117h14.162l1.097-1.117H77c-.033.914-.382 1.71-1.047 2.387zM58.95 33.119a29.59 29.59 0 01-.15 1.777c-.565 4.638-2.627 8.92-6.183 12.849l-.499.507c-.565.61-1.18 1.22-1.845 1.829-1.695 1.523-3.657 2.98-5.884 4.367-.399.271-.814.542-1.246.813-.865.509-1.729.998-2.593 1.472l-.499.305h-.2l-.448-.305a18.669 18.669 0 01-1.596-.913c-3.158-1.829-5.851-3.741-8.078-5.74a14.351 14.351 0 01-1.247-1.218.886.886 0 01-.249-.254c-.2-.203-.399-.405-.598-.61a6.963 6.963 0 01-.45-.507c-2.226-2.472-3.823-5.095-4.786-7.872a14.369 14.369 0 01-1.047-3.859 13.885 13.885 0 01-.25-2.59V19.762c0-.779.166-1.338.499-1.677.3-.27.88-.541 1.745-.812l14.411-4.266c1.063-.338 1.795-.508 2.194-.508.4 0 1.163.17 2.294.508l14.411 4.266c.864.27 1.446.542 1.745.812.365.339.549.898.549 1.677V33.12zM36.26 39.67c1.097.644 2.227.965 3.391.965.1 0 .216-.016.35-.05v-7.263c-1.73-.78-2.777-1.354-3.142-1.727-.566-.61-.848-1.303-.848-2.082 0-.949.432-1.76 1.296-2.438A4.604 4.604 0 0140 26.11v-2.793m3.69 3.708c-1.097-.643-2.228-.964-3.39-.965-.1 0-.2.016-.3.05v7.212c1.696.812 2.726 1.406 3.092 1.777.598.61.897 1.304.897 2.083 0 .947-.448 1.76-1.346 2.437-.765.61-1.645.93-2.643.965v2.742"/></svg>