<svg xmlns="http://www.w3.org/2000/svg" width="80" height="80"><path fill="none" stroke="#FF7800" stroke-linecap="round" stroke-linejoin="round" stroke-width="1.5" d="M31.35 27.601l20.351-6.5M7 32.351c0-.9.333-1.783 1-2.65.833-1.267 2.05-2.1 3.65-2.5 1.6-.467 3.117-.368 4.551.299 1.366.667 2.232 1.651 2.599 2.951.367 1.367.1 2.65-.8 3.849-.9 1.234-2.15 2.084-3.75 2.551-1.6.399-3.1.283-4.5-.351-1.367-.632-2.216-1.632-2.549-3-.13-.225-.197-.417-.201-.575V59.3m55.25-18.599v-7c7.433 3.9 10.717 10.65 9.85 20.25-.5-2.434-1.667-4.901-3.5-7.401-1.899-2.566-4.017-4.516-6.35-5.849v19.9c0 .899-.317 1.783-.95 2.649-.867 1.267-2.099 2.101-3.7 2.5-1.6.434-3.083.318-4.45-.349-1.4-.634-2.283-1.601-2.65-2.901-.333-1.366-.067-2.682.8-3.95.901-1.199 2.151-2.016 3.75-2.449 1.567-.434 3.05-.334 4.45.3 1.4.667 2.284 1.649 2.65 2.95.06.15.094.342.1.574m-30.9-13.05v.526c0 .899-.35 1.783-1.05 2.649-.833 1.268-2.05 2.101-3.65 2.5-1.567.467-3.067.351-4.5-.349-1.333-.633-2.183-1.6-2.55-2.901-.366-1.333-.1-2.633.8-3.899.834-1.2 2.051-2.017 3.65-2.45 1.6-.467 3.1-.368 4.5.299 1.367.634 2.234 1.618 2.6 2.951.13.257.196.483.2.674V20.451L51.701 14v26.951c0 .833-.318 1.7-.951 2.599-.9 1.301-2.133 2.151-3.7 2.551-1.533.433-3.05.316-4.55-.351-1.333-.632-2.183-1.599-2.549-2.899-.334-1.268-.068-2.567.799-3.9.933-1.234 2.183-2.067 3.75-2.5 1.667-.368 3.15-.267 4.451.299 1.399.734 2.266 1.734 2.599 3l.151.701"/></svg>