<svg xmlns="http://www.w3.org/2000/svg" width="80" height="80"><g fill="none" fill-rule="evenodd" stroke="#FF7800" stroke-linecap="round" stroke-linejoin="round" stroke-width="1.5"><path d="M48.45 57.8c-.733.7-1.517 1.417-2.351 2.15-2.132 1.933-4.632 3.784-7.5 5.55-.533.333-1.066.684-1.599 1.05-1.067.601-2.2 1.233-3.401 1.9l-.549.3h-.201l-.549-.3c-.734-.4-1.434-.817-2.1-1.25-4.033-2.299-7.483-4.716-10.351-7.25a52.14 52.14 0 00-1.599-1.45l-.401-.4a10.63 10.63 0 00-.699-.65 4.312 4.312 0 00-.6-.75c-2.8-3.133-4.867-6.417-6.201-9.85-.599-1.6-1-3.25-1.199-4.949a17.368 17.368 0 01-.4-3.151V21.901c0-1.035.233-1.735.7-2.101.366-.399 1.1-.75 2.2-1.05l18.5-5.349c1.333-.434 2.3-.651 2.9-.651.466 0 1.4.217 2.799.651L54.25 18.75c1.133.3 1.866.651 2.2 1.05.5.366.75 1.066.75 2.101v5.5"/><path d="M43.2 55.15l14-24.5 14 24.5h-28zm14-5.85v.6-.6zm0-8.75v5.85-5.85z"/></g></svg>