<svg width="80" height="80" fill="none" xmlns="http://www.w3.org/2000/svg"><path d="M56.05 65.007c2.8-.101 5.217-.434 7.25-1 2.434-.6 3.668-1.366 3.7-2.299V59.41c0-3.43-1.216-6.361-3.65-8.792-2.4-2.4-5.3-3.598-8.7-3.598-1.566 0-3.033.25-4.4.75m-20.45 0c-1.367-.5-2.832-.75-4.4-.75-3.432 0-6.366 1.198-8.8 3.598-2.367 2.365-3.567 5.196-3.6 8.493v2.597c0 .934 1.2 1.699 3.6 2.3 2.067.565 4.5.898 7.3.999" stroke="#FF7800" stroke-width="1.5" stroke-linecap="round" stroke-linejoin="round"/><path clip-rule="evenodd" d="M27.6 70.701c0 .934 1.2 1.7 3.6 2.3 2.433.665 5.368 1 8.8 1 3.4 0 6.283-.335 8.65-1 2.434-.6 3.668-1.366 3.7-2.3v-2.298c0-3.43-1.217-6.361-3.65-8.792-2.4-2.4-5.3-3.597-8.7-3.597-3.432 0-6.367 1.198-8.8 3.597-2.366 2.365-3.566 5.196-3.6 8.494V70.7z" stroke="#FF7800" stroke-width="1.5" stroke-linecap="round" stroke-linejoin="round"/><path d="M15.15 36.977l-.7-.699-2.1-6.596" stroke="#FF7800" stroke-width="1.5" stroke-linecap="round" stroke-linejoin="round"/><path d="M15 46.72c-2-3.864-3-8.11-3-12.74 0-1.467.117-2.898.35-4.298.834-5.894 3.468-11.074 7.9-15.537.468-.467.95-.933 1.45-1.4" stroke="#FF7800" stroke-width="1.5" stroke-linecap="round" stroke-linejoin="round"/><path clip-rule="evenodd" d="M67.9 30.832L65 38.176l2.9-7.344zM62.5 44.97l2.1-3.895-2.1 3.896zM48.95 26.286l1.6 1.848-1.6-1.848zm4-1.399l.5 2.498-.5-2.498zm1.7 6.395c1.7 0 3.184.616 4.45 1.849 1.233 1.232 1.85 2.714 1.85 4.446 0 1.732-.617 3.215-1.85 4.447-1.267 1.231-2.75 1.849-4.45 1.849-1.733 0-3.216-.618-4.45-1.849-1.233-1.232-1.85-2.715-1.85-4.447 0-1.732.617-3.214 1.85-4.446 1.233-1.233 2.717-1.849 4.45-1.849zm-10.2 10.842c1.233 1.232 1.85 2.714 1.85 4.447 0 1.731-.617 3.214-1.85 4.446-1.267 1.231-2.75 1.849-4.45 1.849-1.734 0-3.217-.618-4.45-1.849-1.233-1.232-1.85-2.715-1.85-4.447 0-1.732.617-3.214 1.85-4.446 1.233-1.233 2.716-1.849 4.45-1.849 1.7 0 3.183.616 4.45 1.849zm-14.6-.1c-1.267 1.231-2.75 1.849-4.45 1.849-1.732 0-3.216-.618-4.45-1.849-1.232-1.232-1.85-2.715-1.85-4.447 0-1.732.617-3.214 1.85-4.446 1.233-1.233 2.718-1.849 4.45-1.849 1.7 0 3.184.616 4.45 1.849 1.233 1.232 1.85 2.714 1.85 4.446 0 1.732-.616 3.215-1.85 4.447z" stroke="#FF7800" stroke-width="1.5" stroke-linecap="round" stroke-linejoin="round"/><path d="M36.4 21.84l.65.699-1.8 1.998M30.4 7.6a26.266 26.266 0 016.1-1.4m19.95 5.046c1.1.866 2.217 1.833 3.35 2.899 4.7 4.696 7.4 10.258 8.1 16.687.067 1 .1 2.049.1 3.147 0 4.598-.967 8.811-2.9 12.642" stroke="#FF7800" stroke-width="1.5" stroke-linecap="round" stroke-linejoin="round"/><path d="M47.5 30.232l-2-1.198.1 1.798-1.6-1.448-1 1.248-.3-2.048-1.75-1-3.1 2.699-1.6.648-.25-3.247 1.4.15-.45-1.498 3.5-1.65.8-1.699 1.7.7 2.75-2.897-.9-1.6-2.4 1.9-2.45-.95 3.95-4.897 3.3 1.999 2.35-1.5 1.2-2.298.9-3.447 4.8 1.25C51.683 7.748 46.2 6 40 6c-1.2 0-2.367.068-3.5.2l2.15 2.699-3.25 5.746-6.5 4.595 2.1-7.294-2.6-1.798 2-2.548c-3.166 1.132-6.066 2.847-8.7 5.145l3.1-1.499.2 1-1.5 1.899 4-1.15-.7 4.597-1.4 2.148-1.6-2.198-1.55.2-3 3.298 1.9.948 1.9-3.297 1.85 1.6.45 5.644-2.95.95-.6 1.048" stroke="#FF7800" stroke-width="1.5" stroke-linecap="round" stroke-linejoin="round"/></svg>