<svg xmlns="http://www.w3.org/2000/svg" width="80" height="80"><path fill="none" stroke="#FF7800" stroke-linecap="round" stroke-linejoin="round" stroke-width="1.5" d="M42.8 37.649v-14.25 14.25zm-6.1 0v-13.35 13.35zm12.2 0v-9.8 9.8zm-23.75-1.45c.8.301 1.383.834 1.75 1.6v.05l3.7 8.05v-21.7c.033-.767.333-1.433.9-2 .6-.6 1.317-.9 2.15-.9s1.55.3 2.15.9c.567.6.867 1.301.9 2.1v-3.45c.033-.8.333-1.467.9-2 .6-.599 1.317-.9 2.15-.9s1.55.301 2.15.9c.6.567.9 1.283.9 2.151v2.399c.033-.767.333-1.433.9-2 .6-.6 1.317-.899 2.15-.899s1.55.299 2.15.899c.6.601.9 1.317.9 2.15v4.3c.033-.766.333-1.433.9-2 .6-.599 1.317-.9 2.15-.9s1.55.301 2.15.9c.6.6.9 1.333.9 2.2v20.05c-.133 3.734-1.533 6.95-4.2 9.651-2.8 2.799-6.183 4.199-10.15 4.199-3.933 0-7.3-1.4-10.1-4.199-.9-.901-1.65-1.851-2.25-2.851-2.967-4.667-5.3-9.55-7-14.649 0-.034-.017-.068-.05-.101-.267-.7-.267-1.417 0-2.149.3-.801.833-1.384 1.6-1.75.767-.334 1.533-.351 2.3-.051zM26.7 8h26.55L72 26.75v26.449l-18.75 18.75H26.8L8 53.199V26.75L26.7 8z"/></svg>