<svg xmlns="http://www.w3.org/2000/svg" width="80" height="80"><g fill="none" fill-rule="evenodd" stroke="#FF7800" stroke-linecap="round" stroke-linejoin="round" stroke-width="1.5"><path d="M62.2 48.75c2.967.601 5.317 1.518 7.05 2.75 2.267 1.634 3.45 3.816 3.55 6.551h0v2c0 2.467-1.233 3.699-3.7 3.699h0-7m-37.55-20.1c1.5-.566 3.15-1.033 4.95-1.4 1.933 2.033 3.867 3.417 5.8 4.15 2.167.8 4.317.8 6.45 0 1.967-.733 3.9-2.117 5.8-4.15 3.767.735 6.817 1.934 9.15 3.6 2.967 2.168 4.517 5.017 4.65 8.55h0v4.55c0 3.2-1.6 4.8-4.8 4.8h0H30.5M16.45 50.8c.667-1.8 1.85-3.366 3.55-4.7m45.4-10.85c.2.066.384.184.55.351l.35.35c.467.6.7 1.317.7 2.15s-.233 1.566-.7 2.2c-.467.599-1.033.9-1.7.9-.5 1.365-1.217 2.6-2.15 3.699-.467.567-.95 1.084-1.45 1.551M51.65 24.75c.167 0 .417.134.75.4l.45.5c.633.8.95 1.734.95 2.8 0 1.068-.317 2-.95 2.8-.5.768-1.233 1.184-2.2 1.25-.6 1.8-1.533 3.4-2.8 4.8-2.567 3.167-5.667 4.75-9.3 4.75-3.567 0-6.683-1.583-9.35-4.75a14.385 14.385 0 01-2.75-4.8c-.933-.066-1.667-.482-2.2-1.25-.667-.7-1-1.633-1-2.8 0-.866.2-1.632.6-2.3l.4-.5a2.08 2.08 0 011.15-.9m29.15-.949a5.37 5.37 0 01.75-.051c2.8 0 5.183 1.201 7.15 3.601 1.6 1.932 2.567 4.2 2.9 6.799h0v.051c.033.299.05.6.05.9h0v.149c-3.6-.699-6.517-2.149-8.75-4.35h0l-.9-.799M38.55 9.75c3.667 0 6.767 1.567 9.3 4.7 2.033 2.434 3.283 5.384 3.75 8.85l.05 1.45c-4.733-1-8.5-2.9-11.3-5.7-2.633-2.666-5.15-3.666-7.55-3-2.633.9-5.1 3.8-7.4 8.7v-.2l.15-1.25c.3-3.366 1.517-6.316 3.65-8.85 2.633-3.133 5.75-4.7 9.35-4.7zm-20.8 53.5v-2.699 2.699zm-7.9-8.049c-1.4 1.4-2.1 3.082-2.1 5.049v3.301c0 1.967.7 3.65 2.1 5.05 1.4 1.399 3.083 2.1 5.05 2.1h5.7c1.966 0 3.65-.701 5.05-2.1 1.4-1.4 2.1-3.083 2.1-5.05V60.25c0-1.967-.7-3.649-2.1-5.049-1.4-1.4-3.084-2.1-5.05-2.1h-5.7c-1.967 0-3.65.7-5.05 2.1z"/><path d="M11.25 51.451v-2.15c.033-1.7.667-3.184 1.9-4.45 1.267-1.234 2.8-1.85 4.6-1.85 1.8 0 3.333.616 4.6 1.85 1.233 1.266 1.866 2.75 1.9 4.45v2.15"/></g></svg>