<svg xmlns="http://www.w3.org/2000/svg" width="80" height="81"><g fill="none" fill-rule="evenodd" stroke="#FF7800" stroke-linecap="round" stroke-linejoin="round" stroke-width="1.5"><path d="M41.158 18.75a8 8 0 11-16 0 8 8 0 0116 0z"/><path d="M43.738 50.755c-.454-6.308-.58-12.005-.58-12.005l10-4s6-1.991 4-6c-2.458-4.928-10 2-24 2s-21.542-6.928-24-2c-2 4.009 4 6 4 6l10 4s-.352 15.92-2 24c-1.459 7.15 2.537 8 4 8 2.261 0 6 0 6-18h4c0 4.264.21 7.518.56 10m6.117 8H68.82c2.2 0 3.567-2.394 2.447-4.288L57.774 43.628c-1.1-1.862-3.793-1.862-4.893 0L39.388 66.462c-1.12 1.894.246 4.288 2.447 4.288zm13.493-18v6m0 4v1"/></g></svg>