<svg xmlns="http://www.w3.org/2000/svg" width="80" height="80"><path fill="none" stroke="#FF7800" stroke-linecap="round" stroke-linejoin="round" stroke-width="1.5" d="M31.7 24.963l-2.817 2.61M17.01 15.577l5.584.502-1.359 6.074-3.923-1.405-1.51 1.656 4.628 2.61v4.016l-3.018.954-5.282 8.635 1.057 4.618 1.61-1.858 9.557 5.372.1 4.417-1.408 4.368 3.17 5.572-3.975-2.61-7.747-10.994-1.307-4.267-3.723-3.865-2.163-6.577m35.465 20.482l-2.817 3.062-1.409-.15-3.52-11.549-3.32.804-4.075-3.464 2.817-4.367 5.433-2.56.654 1.756 5.03.352 3.723 4.016m2.012-29.517l-2.515 7.128-2.264.903-3.42-1.355-4.075 3.865 2.716 1.557 1.409-2.008 2.163 1.556-2.364 4.066-2.516-1.355-.805 1.757-3.52 1.606-1.007 1.405.302 2.661 4.728-2.811 1.761 1.004h3.42l3.07 2.209-.604 1.405 5.03 4.97 4.025-2.61.603 1.255M22.796 11.76l4.074 1.556-1.056 7.179 5.383-2.812 2.615-5.772L31.65 9.15m13.532 54.466c-3.08 1.138-6.4 1.707-9.96 1.707-7.78 0-14.438-2.761-19.971-8.283C9.75 51.55 7 44.927 7 37.16c0-7.796 2.75-14.457 8.25-19.979C20.783 11.728 27.44 9 35.22 9c7.815 0 14.471 2.728 19.972 8.182 5.5 5.522 8.25 12.183 8.25 19.98 0 .49-.008.976-.025 1.456M73 53.326V47.1c0-.87-.269-1.606-.805-2.209-.47-.635-1.19-1.121-2.163-1.455l-8.954-2.61c-1.006-.302-1.66-.452-1.962-.452-.402 0-1.107.15-2.113.451l-8.803 2.61c-1.006.335-1.76.82-2.264 1.456-.47.603-.704 1.34-.704 2.21v6.224c0 2.176.269 4.2.805 6.074 1.509 4.719 5.533 8.852 12.073 12.4.267.134.604.2 1.006.2.302 0 .586-.066.855-.2 6.573-3.548 10.648-7.681 12.224-12.4.536-1.873.805-3.898.805-6.074z"/></svg>