<svg xmlns="http://www.w3.org/2000/svg" width="81" height="80"><path fill="none" stroke="#FF7800" stroke-linecap="round" stroke-linejoin="round" stroke-width="1.5" d="M6 32.4v21.649c.067 2.467 1.317 3.717 3.75 3.75H21.6M6 24.549V32.4h15.6M64 21.75v-3c-.066-2.433-1.316-3.683-3.75-3.75H9.75c-2.433.067-3.683 1.317-3.75 3.75v5.799h13.85l1.5-5.949H37.2l.8 3.15m35.9 2.799H27.15c-1.766 0-2.65.884-2.65 2.651v34.349c0 1.735.884 2.601 2.65 2.601H73.9c1.734 0 2.6-.866 2.6-2.601V27.2c0-1.767-.866-2.651-2.6-2.651zm2.15 7.7L56.7 48.352c-1.833 1.366-3.967 2.049-6.4 2.049-2.167 0-4.167-.683-6-2.05L25 32.25M9.55 18.9v1.55m3.5-1.55v1.55m3.45-1.55v1.55"/></svg>