<svg xmlns="http://www.w3.org/2000/svg" width="80" height="80"><g fill="none" fill-rule="evenodd" stroke="#FF7800" stroke-linecap="round" stroke-linejoin="round" stroke-width="1.5"><path d="M67.42 47.59c.87-2.8 1.33-5.76 1.33-8.84 0-16.57-13.43-30-30-30s-30 13.43-30 30 13.43 30 30 30c3.08 0 6.04-.46 8.84-1.33"/><path d="M68.75 53.75c0 8.284-6.716 15-15 15-8.284 0-15-6.716-15-15 0-8.284 6.716-15 15-15 8.284 0 15 6.716 15 15z"/><path d="M66.26 62.02l4.37 4.37a3 3 0 01-2.12 5.12 3 3 0 01-2.12-.88l-4.37-4.37m-12.27-7.51h0a2 2 0 002-2v-6a2 2 0 00-4 0v6a2 2 0 002 2zm8 0h0a2 2 0 002-2v-6a2 2 0 00-4 0v6a2 2 0 002 2zm11-20h-4m-56 0h34M16.02 19.19c5.5 3.41 13.64 5.56 22.73 5.56s17.23-2.15 22.73-5.56M16.02 58.31c4.68-2.9 11.27-4.89 18.73-5.41"/><path d="M38.75 68.75c-8.84 0-16-13.43-16-30s7.16-30 16-30c8.12 0 14.82 11.32 15.86 26"/></g></svg>