<svg width="80" height="80" fill="none" xmlns="http://www.w3.org/2000/svg"><path d="M55.25 58.913H66.8c1.433-.032 2.5-.416 3.2-1.147.667-.7 1-1.714 1-3.045V32.463" stroke="#FF7800" stroke-width="1.5" stroke-linecap="round" stroke-linejoin="round"/><path clip-rule="evenodd" d="M22.8 34.959v7.785c0 2.695.317 5.224.95 7.586 1.9 5.856 6.917 10.98 15.05 15.37.334.2.75.3 1.25.3.4 0 .767-.1 1.1-.3 8.167-4.39 13.233-9.514 15.2-15.37.667-2.362 1-4.891 1-7.586V34.96c0-1.064-.333-1.963-1-2.695-.6-.832-1.517-1.447-2.75-1.847l-11.1-3.194c-1.233-.399-2.05-.598-2.45-.598-.5 0-1.366.2-2.6.598l-11 3.194c-1.233.4-2.166 1.015-2.8 1.847-.567.732-.85 1.63-.85 2.695z" stroke="#FF7800" stroke-width="1.5" stroke-linecap="round" stroke-linejoin="round"/><path d="M60.05 32.463H71V23.68M9 32.463v22.258c.067 2.762 1.467 4.16 4.2 4.193h11.55" stroke="#FF7800" stroke-width="1.5" stroke-linecap="round" stroke-linejoin="round"/><path clip-rule="evenodd" d="M13.95 17.392v1.696-1.696zm7.8 0v1.696-1.696zm-3.85 0v1.696-1.696z" stroke="#FF7800" stroke-width="1.5" stroke-linecap="round" stroke-linejoin="round"/><path d="M9 23.68v8.783h11" stroke="#FF7800" stroke-width="1.5" stroke-linecap="round" stroke-linejoin="round"/><path clip-rule="evenodd" d="M9 17.192v6.488h17.5l1.7-6.638h15.75l1.7 6.638H71v-6.488c0-1.33-.333-2.329-1-2.994-.7-.765-1.767-1.164-3.2-1.198H13.2c-2.733.067-4.133 1.464-4.2 4.192z" stroke="#FF7800" stroke-width="1.5" stroke-linecap="round" stroke-linejoin="round"/></svg>