<svg xmlns="http://www.w3.org/2000/svg" width="80" height="80"><path fill="none" stroke="#FF7800" stroke-linecap="round" stroke-linejoin="round" stroke-width="1.5" d="M33.55 54.65l2.4-5.9 2.451 5.9H33.55zm5.7 2.199l-.849-2.199H33.55l-.899 2.199M8 27.349h63.3H8zm53.05-14.05V15.2v-1.901zm5 0V15.2v-1.901zm-10 0V15.2v-1.901zM71.3 19.2v38.3c-.2 1.533-1.017 2.367-2.45 2.5H60.5M41.401 48.95v7.649H43.1c.967-.033 1.817-.416 2.551-1.149.733-.734 1.099-1.634 1.099-2.7 0-1.067-.366-1.984-1.099-2.75a3.604 3.604 0 00-2.201-1.05h-2.049zM46.7 36.099l10.05 9.95V60.15L46.7 70.099H32.6l-10-9.949V46.049l9.95-9.95H46.7zM18.75 60h-8.099c-1.535-.133-2.417-.951-2.651-2.451V19.2m0 0h4.2l3.8-6.3h15.651l3.699 6.3H71.3v-7.101c0-1.5-.45-2.432-1.35-2.8-.299-.2-.867-.299-1.7-.299H11.2c-.799 0-1.433.099-1.9.299-.866.467-1.3 1.401-1.3 2.8V19.2z"/></svg>