<svg xmlns="http://www.w3.org/2000/svg" width="80" height="80"><path fill="none" stroke="#FF7800" stroke-linecap="round" stroke-linejoin="round" stroke-width="1.5" d="M68.85 64.649h-21.9 21.9zm-24.4-15.25h26.9l-1.8 12.05H46.2L44.45 49.4zm14.75-12.75h1.25-1.25zm-3.75 0h1.25-1.25zm15.6 25.75c2.567-.5 4.416-1.398 5.55-2.7 1.232-1.366 1.6-3.1 1.1-5.198l-2.85-11.602c-.867-3.533-3.65-5.615-8.35-6.25.332-3.232 0-6.115-1-8.648-.967-2.334-2.467-4.301-4.5-5.901-1.2-.9-2.234-1.367-3.1-1.4-.867.033-1.9.5-3.1 1.4-2.034 1.6-3.517 3.567-4.45 5.9-1 2.534-1.334 5.417-1 8.649-4.7.635-7.5 2.717-8.4 6.25L38.15 54.5c-.533 2.099-.184 3.832 1.05 5.199 1.132 1.3 2.983 2.199 5.55 2.699m8.4-23.7a13.801 13.801 0 01-.65-2.1 8.142 8.142 0 01-.25-2 5.206 5.206 0 01-.05-.75c0-.098.016-.233.05-.4.133-1.3.683-2.433 1.65-3.4 1.133-1.066 2.5-1.6 4.1-1.6 1.567 0 2.916.534 4.05 1.6 1.032.934 1.633 2.05 1.8 3.35v1.25a.458.458 0 00-.05.2c-.134 1.402-.433 2.685-.9 3.85-.1.2-.184.4-.25.6-.6 1.135-1.4 2.05-2.4 2.75-.867.635-1.617.985-2.25 1.05-.633-.065-1.383-.415-2.25-1.05-.967-.7-1.75-1.615-2.35-2.75-.1-.2-.184-.4-.25-.6zm-16.7 21.526L34 63.1l-8.75-10.4c2.5-2.1 5.417-3.151 8.75-3.151.88 0 1.73.067 2.55.201M47.8 26.024C43.526 24.475 38.927 23.7 34 23.7c-9.767 0-18.234 3.05-25.4 9.15L3 26.25C11.766 18.75 22.1 15 34 15c7.05 0 13.55 1.317 19.5 3.95m-7.65 15.574c-3.629-1.483-7.579-2.225-11.85-2.225-7.633 0-14.234 2.401-19.8 7.201l5.55 6.649c4.033-3.465 8.783-5.199 14.25-5.199a23 23 0 014.35.4"/></svg>