<svg height="24" width="68" xmlns="http://www.w3.org/2000/svg"><path d="M13 19v-3H9h5.5c1.38 0 2.5-.895 2.5-2s-1.12-2-2.5-2H12h2-2.5c-1.38 0-2.5-.895-2.5-2s1.12-2 2.5-2H17h-4V5m14 0v3h4-5.5c-1.38 0-2.5.895-2.5 2s1.12 2 2.5 2H28h-2 2.5c1.38 0 2.5.895 2.5 2s-1.12 2-2.5 2H23h4v3m14 0v-3h-4 5.5c1.38 0 2.5-.895 2.5-2s-1.12-2-2.5-2H40h2-2.5c-1.38 0-2.5-.895-2.5-2s1.12-2 2.5-2H45h-4V5m14 0v3h4-5.5c-1.38 0-2.5.895-2.5 2s1.12 2 2.5 2H56h-2 2.5c1.38 0 2.5.895 2.5 2s-1.12 2-2.5 2H51h4v3" fill="none" stroke="#261c6a" stroke-linecap="round" stroke-linejoin="round" stroke-width="1.5"/></svg>