<svg height="24" width="24" xmlns="http://www.w3.org/2000/svg"><path d="M5.792 19c.082 0 .164-.036.218-.1s.082-.146.073-.228l-.528-3.947a1.16 1.16 0 00.528-.975c0-.428-.228-.793-.574-.993.073-1.231.438-2.234.957-2.644l5.943 1.878.049.008.042.001c.027 0 .055 0 .091-.01L22.8 8.784c.119-.046.201-.155.201-.283s-.082-.237-.2-.283L12.59 5.01C12.555 5 12.527 5 12.5 5c-.027 0-.055 0-.091.01L2.2 8.216c-.118.047-.2.156-.2.284s.082.237.2.283l3.036.947c-.565.793-.839 1.942-.894 3.008a1.161 1.161 0 00-.064 1.987l-.528 3.947a.296.296 0 00.292.328zm6.708-2.333c3.217 0 5.906-1.049 5.833-2.334l-.164-2.88-5.232 1.65c-.145.045-.291.064-.437.064s-.292-.019-.438-.064l-5.231-1.65-.164 2.88c-.073 1.285 2.616 2.334 5.833 2.334z" fill="#261c6a" fill-rule="evenodd"/></svg>