<svg height="24" width="52" xmlns="http://www.w3.org/2000/svg"><path d="M14.458 5.001h.084l.05.008 10.207 3.208A.305.305 0 0125 8.5a.3.3 0 01-.134.248l-.067.035-10.208 3.208-.049.008L14.5 12l-.042-.001-.05-.008-5.942-1.878c-.52.41-.884 1.413-.957 2.644a1.156 1.156 0 01.148 1.893l-.102.075.528 3.947a.3.3 0 01-.23.321L7.792 19h-1.75a.291.291 0 01-.22-.1.306.306 0 01-.072-.167v-.061l.529-3.947a1.161 1.161 0 01.063-1.987c.05-.977.285-2.024.758-2.802l.136-.206L4.2 8.783A.305.305 0 014 8.5a.3.3 0 01.134-.248l.067-.035L14.409 5.01zm23 0h.084l.05.008 10.207 3.208A.305.305 0 0148 8.5a.3.3 0 01-.134.248l-.067.035-10.208 3.208-.049.008L37.5 12l-.042-.001-.05-.008-5.942-1.878c-.52.41-.884 1.413-.957 2.644a1.156 1.156 0 01.148 1.893l-.102.075.528 3.947a.3.3 0 01-.23.321l-.061.007h-1.75a.291.291 0 01-.22-.1.306.306 0 01-.072-.167v-.061l.529-3.947a1.161 1.161 0 01.063-1.987c.05-.977.285-2.024.758-2.802l.136-.206-3.035-.947A.305.305 0 0127 8.5a.3.3 0 01.134-.248l.067-.035L37.409 5.01zm-17.289 6.452l.164 2.88c.073 1.285-2.616 2.334-5.833 2.334-3.126 0-5.752-.99-5.833-2.224v-.11l.164-2.88 5.232 1.65a1.523 1.523 0 00.73.037l.145-.037zm23 0l.164 2.88c.073 1.285-2.616 2.334-5.833 2.334-3.126 0-5.752-.99-5.833-2.224v-.11l.164-2.88 5.231 1.65a1.523 1.523 0 00.73.037l.145-.037z" fill="#261c6a" fill-rule="evenodd"/></svg>