<svg height="80" width="80" xmlns="http://www.w3.org/2000/svg"><path d="M58.43 29.625c-5.376-5.399-8.28-11.855-8.714-19.367L70.9 37.22c-4.608-1.374-8.764-3.907-12.47-7.596zM13.808 52.312c-1.936-3.957-2.905-8.333-2.905-13.13 0-8.35 2.955-15.459 8.864-21.328C25.61 11.952 32.671 9 40.952 9c3.105 0 6.042.42 8.814 1.258L70.95 37.22c.033.638.05 1.29.05 1.962 0 8.35-2.922 15.46-8.764 21.329-5.91 5.903-13.005 8.853-21.284 8.853-2.739 0-5.342-.317-7.813-.955m1.903-18.915L46.861 28.92m-7.913 4.225c0 .704-.233 1.308-.701 1.811-.434.47-1.018.704-1.753.704-.667 0-1.268-.234-1.803-.704-.466-.503-.7-1.107-.7-1.81s.234-1.276.7-1.711c.535-.536 1.136-.805 1.803-.805.735 0 1.32.269 1.753.805.468.435.701 1.006.701 1.71zm9.015 12.073c0 .705-.234 1.308-.701 1.811-.434.47-1.018.705-1.753.705-.667 0-1.268-.235-1.803-.705-.467-.503-.701-1.106-.701-1.81s.234-1.275.7-1.711c.536-.536 1.137-.805 1.804-.805.735 0 1.319.269 1.753.805.467.436.7 1.006.7 1.71zM23.023 50.4V26.557m-4.708 19.317v11.57H9L23.073 75l13.972-17.556H27.73V31.788m-9.415 4.075v5.633" fill="none" stroke="#ff7800" stroke-linecap="round" stroke-linejoin="round" stroke-width="1.5"/></svg>