<svg height="80" width="80" xmlns="http://www.w3.org/2000/svg"><path d="M58.909 23.95V20.3a4.12 4.12 0 00-3.25-3.9l-19.56-5.7a14.51 14.51 0 00-3.15-.7 13.93 13.93 0 00-3.15.7l-19.6 5.7a4.08 4.08 0 00-3.19 3.9v12.75a43.16 43.16 0 001.59 12.5c3.1 9.3 11.216 17.45 24.35 24.45a84.64 84.64 0 009.31-5.7m12.19-29.2a5.35 5.35 0 11-7.532 7.6 5.35 5.35 0 017.532-7.6zm12.35-7.65a5.43 5.43 0 010 7.6 5.38 5.38 0 01-3.79 1.55 5.21 5.21 0 01-3.81-1.55l-.29-.3a5.29 5.29 0 01-1.31-3.5 5 5 0 011.31-3.45 3.6 3.6 0 01.29-.35 5.21 5.21 0 013.81-1.55 5.38 5.38 0 013.79 1.55zm-24.64 7.6a5.31 5.31 0 01-3.81 1.55 5.14 5.14 0 01-3.75-1.55 5.34 5.34 0 010-7.6 5.14 5.14 0 013.75-1.55 5.31 5.31 0 013.81 1.55 5.31 5.31 0 010 7.6zm.25 5a11 11 0 00-4.06-.75 10.42 10.42 0 00-7.5 3.05 10 10 0 00-3.05 7.2v2.25c0 .77 1 1.42 3.05 2a28.72 28.72 0 006.56.85m2.69 2.65v2.2c0 .8 1.02 1.45 3.06 1.95a17.3 17.3 0 002.19.5 36.84 36.84 0 005.31.35 27.19 27.19 0 007.35-.85c2.09-.5 3.16-1.15 3.19-1.95v-1.95a10.14 10.14 0 00-3.14-7.5 10.42 10.42 0 00-1.9-1.5 10.12 10.12 0 00-5.5-1.55 10.29 10.29 0 00-7.5 3.05 10.1 10.1 0 00-3.06 7.2zm23.81-2.65a27 27 0 006.44-.85c2.07-.53 3.12-1.18 3.16-2v-1.95a10.25 10.25 0 00-3.1-7.5 10.1 10.1 0 00-7.4-3.05 10.74 10.74 0 00-4.06.75" fill="none" stroke="#ff7800" stroke-linecap="round" stroke-linejoin="round" stroke-width="1.5"/></svg>