<svg height="80" width="80" xmlns="http://www.w3.org/2000/svg"><path d="M21.778 63.844a30.89 30.89 0 003.22 2.12 30 30 0 0043.95-33.7c-.2-.67-.38-1.3-.55-1.9l-1.1-.8 1.05.8a29 29 0 01-10.7-2.4m3.2-3.2l5.63 4.2.47.35.35.25m-12.93-9.63l-11.7-8.72-.42-.3-1.3-.9a28.89 28.89 0 009.6 13.8m-8.3-12.85l-1.25-.95h-.05a29.85 29.85 0 00-8.8 1.05C16.227 15.459 6.8 31.84 10.998 47.814a29.61 29.61 0 005 10.5m19.3-19.3a5.09 5.09 0 01-1-.4 4.59 4.59 0 01-2.2-2.75 5 5 0 011-4.3 8 8 0 013.75-2.6l-1.1-4.2m7.25 4.05a11 11 0 00-5.6-.05l-.55.2 1.8 6.65m5.82 5.47c.323.09.635.218.93.38a4.59 4.59 0 012.2 2.75 4.7 4.7 0 01-1.05 4.3 7.29 7.29 0 01-3.75 2.6l1.1 4.2m-7.25-4.05c1.848.5 3.793.517 5.65.05a3.69 3.69 0 00.5-.2l-1.75-6.6m-28.1 22.5l54-54" fill="none" stroke="#ff7800" stroke-linecap="round" stroke-linejoin="round" stroke-width="1.5"/></svg>