<svg height="80" width="80" xmlns="http://www.w3.org/2000/svg"><g fill="none" fill-rule="evenodd"><path d="M0 0h80v80H0z"/><path d="M28.85 20.31H11a2.34 2.34 0 00-2.65 2.65v35.35a2.32 2.32 0 002.65 2.6h50.75a2.3 2.3 0 002.6-2.6V40.4M1 67.15h70.71l-7.21-3.1H8.06L1 67.15v2.5c.448.432 1.04.681 1.66.7h67.55a1.88 1.88 0 001.5-.7v-2.5m-29-29.5h-5.34a9.13 9.13 0 01-9.06-9.15 9 9 0 017.75-9.05V19a9.9 9.9 0 0110-10 9.59 9.59 0 017 2.9 14.2 14.2 0 011.11 1.35 9.85 9.85 0 014-.8 10 10 0 017.4 3.1 10.09 10.09 0 013.1 6.6 8.57 8.57 0 011.84-.2 7.48 7.48 0 015.5 2.25 7.591 7.591 0 012.35 5.55 8 8 0 01-7.54 7.85H48.17m-2.75-9.65v4.25m0 10.75v4.25m6.94-2.75l-6.99 6.95-7-6.95m7-9v4.25M10.96 56.9h50.75M26.06 24.3h-15.1" stroke="#ff7800" stroke-linecap="round" stroke-linejoin="round" stroke-width="1.5"/></g></svg>