<svg height="80" width="80" xmlns="http://www.w3.org/2000/svg"><path d="M38.085 30.953H10m55.669-7.628H30.863L29.36 17.54H15.617l-1.505 5.784H10m55.669 30.813v2.642c-.033 1.73-.652 2.842-1.857 3.341m-11.634.3H13.66c-1.17 0-2.09-.333-2.758-.997-.535-.499-.836-1.38-.902-2.644V17.691c0-.998.3-1.88.902-2.643.501-.631 1.421-.981 2.758-1.048h48.348c2.407.067 3.628 1.297 3.66 3.69v7.829m-4.965-7.63v1.696m-3.962-1.695v1.695M52.88 17.89v1.695M40.593 34.593l14.393 21.789zm20.562 21.74l14.293-21.74zm-6.169 13.66c3.41.134 5.467-1.877 6.169-6.032v-7.628c-.167.166-.451.298-.854.398-.6.2-1.337.299-2.206.299-.902 0-1.654-.1-2.257-.3-.4-.099-.684-.216-.852-.348zm20.612-35.599c.268-.333.402-.699.402-1.098 0-1.428-1.755-2.641-5.266-3.638-3.51-1.03-7.74-1.547-12.69-1.547-4.946 0-9.176.516-12.687 1.547-3.51.997-5.266 2.21-5.266 3.638 0 .4.134.765.4 1.098a.515.515 0 01.102.199c.802.897 2.39 1.695 4.764 2.393 3.51.964 7.74 1.446 12.688 1.446 4.949 0 9.178-.482 12.689-1.446 2.373-.698 3.944-1.496 4.714-2.393.067-.1.117-.166.15-.199z" fill="none" stroke="#ff7800" stroke-linecap="round" stroke-linejoin="round" stroke-width="1.5"/></svg>