<svg height="80" width="80" xmlns="http://www.w3.org/2000/svg"><path d="M27.851 17.029C16.88 20.819 9 31.239 9 43.5c0 .744.03 1.482.086 2.212m5.054 13.96C19.212 66.829 27.56 71.5 37 71.5c6.177 0 11.886-2 16.516-5.388m-2.994-37.08l3.253 4.741v.05c.134.168.2.403.2.707.068.268-.05.52-.349.756-.134.201-.368.303-.702.303-.233 0-.483-.068-.75-.202l-6.458-4.539M57.73 44.415c0 1.176-.4 2.168-1.201 2.976-.9.84-1.902 1.26-3.004 1.26-1.067 0-2.052-.42-2.953-1.26-.801-.774-1.2-1.766-1.2-2.976s.399-2.22 1.2-3.026c.868-.807 1.852-1.21 2.953-1.21 1.168 0 2.17.403 3.004 1.21.8.873 1.2 1.882 1.2 3.026zM32.4 14.709c.601-1.715 2.053-2.572 4.356-2.572h33.539c2.27 0 3.704.84 4.305 2.521M37.907 29.89c0 .605.133 1.125.4 1.562l3.055 3.078c-2.304 2.824-3.455 6.12-3.455 9.885l.05 1.21c.2 2.421.75 4.404 1.653 5.952a16.022 16.022 0 002.852 3.934c3.104 3.059 6.775 4.59 11.013 4.59 4.305 0 7.993-1.531 11.063-4.59 1.034-1.043 2.002-2.355 2.903-3.934.901-1.75 1.435-3.734 1.602-5.952l.05-1.21c0-4.304-1.519-8.02-4.555-11.146l-1.001-.958h3.153c1.602 0 2.403-.807 2.403-2.421v-8.423c0-1.615-.8-2.42-2.403-2.42H40.31c-1.602 0-2.403.805-2.403 2.42zm6.107 2.118c.5-.404 1.068-.79 1.702-1.16l-3.154-2.118-.5-.505c-.667-.672-1.001-1.445-1.001-2.32.067-.975.4-1.749 1-2.32.601-.672 1.37-1.008 2.304-1.008.9 0 1.684.336 2.352 1.008l.45.505 3.355 4.942c.868-.168 1.853-.252 2.953-.252 2.503 0 4.773.504 6.808 1.513M32.35 14.76l.05-.05 1.351-4.187C34.387 8.842 35.855 8 38.157 8h30.936c2.103.068 3.487.909 4.155 2.522l1.352 4.136.05.101c.233.571.35 1.31.35 2.22V61.26c0 3.16-1.568 4.74-4.705 4.74h-33.54C33.586 66 32 64.42 32 61.26V16.978c0-.908.117-1.648.351-2.219zM29.5 25.5a10.995 10.995 0 00-2 4.5c-4.333-1-8 0-11 3-4.5 4.5-2.608 10.27-2.826 10.308-1.617.277-3.027 1.023-4.231 2.237C7.814 47.188 7 49.13 7 51.365c0 2.31.814 4.25 2.443 5.823 1.491 1.538 3.293 2.343 5.407 2.412L29 59.5m-6-45l5.5 2.5-2.5 5.5" fill="none" stroke="#ff7800" stroke-linecap="round" stroke-linejoin="round" stroke-width="1.5"/></svg>