<svg height="80" width="80" xmlns="http://www.w3.org/2000/svg"><path d="M36.285 26.4v1.1c.23.13.45.27.65.4.154.13.288.282.4.45l.35.45a3.7 3.7 0 01.45 1.85 3.91 3.91 0 01-.45 1.95l-.35.45a2.36 2.36 0 01-1.9 1 12.56 12.56 0 01-2.35 4.1 9.79 9.79 0 01-7.85 3.9 10 10 0 01-7.9-3.9 12.32 12.32 0 01-2.25-4.1 2.36 2.36 0 01-1.9-1 3.58 3.58 0 01-.9-2.4 3.15 3.15 0 01.55-1.85 5.14 5.14 0 011.3-1.3v-.15a6.14 6.14 0 01.1-1.05 15 15 0 013.1-7.4 10 10 0 017.9-3.9 9.79 9.79 0 017.85 3.9 14.51 14.51 0 013.2 7.4zm10.75 24.3h18.45a2.3 2.3 0 002.6-2.6V25.75a2.32 2.32 0 00-2.6-2.65h-26.83m4.23 13.75l4.6 4.95a.9.9 0 001 0l8.4-8.65m-19.2 12.05a27.91 27.91 0 00-4.85-1.45 12.25 12.25 0 01-4.9 3.55 11.85 11.85 0 01-1.8.45l3 17.25h11.4c2.567 0 3.9-1.25 4-3.75v-6.5a8.64 8.64 0 00-3.85-7.95 16.79 16.79 0 00-3-1.6zm9.8 15.3h26a1.88 1.88 0 001.5-.7v-2.5h-27.45m27.45 0l-7.2-3.1h-20.22m-25-6.9a12.4 12.4 0 01-4.8-3.55 24 24 0 00-6.3 2.1c-3.833 2-5.65 4.967-5.45 8.9v6.4c.073 2.567 1.407 3.85 4 3.85h11.35l2.85-17.3a8.23 8.23 0 01-1.73-.4zm3.65.45a7.88 7.88 0 01-2 0m5 17.3h-7.8" fill="none" stroke="#ff7800" stroke-linecap="round" stroke-linejoin="round" stroke-width="1.5"/></svg>