<svg height="80" width="80" xmlns="http://www.w3.org/2000/svg"><path d="M45.65 30.752l-4.85-23c-.43-1.77-1.38-2.68-2.85-2.75H9.4a1.69 1.69 0 00-1.7 2.2l5 23.5m30.1 18.9a5.25 5.25 0 001.5-3.8 5.54 5.54 0 00-1.5-3.85 5.2 5.2 0 00-3.65-1.5h-27.7v4.4l18.5 1.85-18.5 1.8v2.7H41.1c.54 0 .87-.18 1-.45.173-.39.391-.76.65-1.1zm23.1 14H46.5v4.84h21.75v-13.75H37c-2.26.1-3.4 1.3-3.4 3.6v1.45h24.85m9.8-5.05h4.4m-31.55-3.4h22.1a5.16 5.16 0 003.8-1.6 5 5 0 001.6-3.8 5.34 5.34 0 00-1.6-3.85 5.47 5.47 0 00-3.8-1.5h-24m28.8-4.8l-22 1.4H14.2a1.92 1.92 0 01-1.4-.6 1.87 1.87 0 01-.55-1.35 2 2 0 01.55-1.4 2.14 2.14 0 011.4-.5H68zm-56.5 15.55H9.2m37.35 17.15v5.6l-3.3-2.55-3.3 2.55v-5.6h-29.6c-2.233 0-3.35-1.2-3.35-3.6v-6.55c0-2.3 1.117-3.5 3.35-3.6h26.7M9.2 40.542h2.3m61.08 27.9h-4.4m-28.35 0v-4.75h-6.25v1.15c0 2.327 1.067 3.527 3.2 3.6m-3.2-8.7v3.95m12.9 0h-6.6m-28.65-54.6h27.2" fill="none" stroke="#ff7800" stroke-linecap="round" stroke-linejoin="round" stroke-width="1.5"/></svg>