<svg xmlns="http://www.w3.org/2000/svg" width="80" height="80" fill="none"><path stroke="#FF7800" stroke-linecap="round" stroke-linejoin="round" stroke-width="1.5" d="M67.412 43.064L75 63.374l-7.98-3.116L63.106 68 59.09 57.342m.98-9.703l-7.587 20.31-3.965-7.691-7.98 3.016 7.588-20.312"/><path stroke="#FF7800" stroke-linecap="round" stroke-linejoin="round" stroke-width="1.5" d="M65.063 28.937c0 2.111-.702 3.887-2.105 5.329-1.436 1.475-3.182 2.212-5.237 2.212-2.024 0-3.753-.737-5.19-2.212-1.402-1.442-2.104-3.218-2.104-5.33 0-2.077.702-3.87 2.105-5.378 1.436-1.476 3.165-2.213 5.189-2.213 2.055 0 3.801.738 5.237 2.213 1.403 1.508 2.105 3.3 2.105 5.379z" clip-rule="evenodd"/><path stroke="#FF7800" stroke-linecap="round" stroke-linejoin="round" stroke-width="1.5" d="M67.706 18.63c2.708 2.85 4.063 6.285 4.063 10.307s-1.355 7.44-4.063 10.255c-2.741 2.816-6.07 4.224-9.986 4.224-3.884 0-7.196-1.408-9.937-4.224-2.774-2.814-4.16-6.233-4.16-10.255 0-4.022 1.386-7.458 4.16-10.306 2.741-2.817 6.053-4.223 9.937-4.223 3.916 0 7.245 1.406 9.986 4.223z" clip-rule="evenodd"/><path stroke="#FF7800" stroke-linecap="round" stroke-linejoin="round" stroke-width="1.5" d="M38.238 57.694c-1.825 1.562-3.881 3.088-6.168 4.575-.456.3-.946.62-1.469.955-.945.57-1.941 1.156-2.986 1.76l-.538.25c-.066.067-.147.067-.245 0l-.49-.25a21.771 21.771 0 01-1.908-1.106c-3.623-2.146-6.739-4.409-9.35-6.788a15.341 15.341 0 01-1.469-1.407l-.342-.352a12.91 12.91 0 01-.686-.654c-.163-.2-.326-.403-.49-.603-2.577-2.916-4.454-5.983-5.628-9.2a20.78 20.78 0 01-1.126-4.625A17.975 17.975 0 015 37.282V21.496c0-.906.212-1.575.636-2.01.326-.302.98-.587 1.958-.855l16.79-5.028c1.24-.402 2.105-.603 2.595-.603.49 0 1.354.201 2.594.603l14.147 4.249"/></svg>