<svg height="80" width="80" xmlns="http://www.w3.org/2000/svg"><path d="M23.149 40.65V29.5H6m17.149-17.15V29.5h9.45m-18.95 15.4L6 43.45V15.6l17.149-3.25 23-4.35v14.65m14.9-2.75c2.067-2.333 2.967-5.066 2.7-8.2-2.932.4-5.483 1.667-7.65 3.8-2.2 2.766-3.1 5.466-2.7 8.1 3.035.3 5.584-.933 7.65-3.7zm-18.1 43c1 .6 1.985.866 2.95.8 1.1 0 2.467-.333 4.1-1 1.6-.767 3.068-1.15 4.4-1.15s2.834.383 4.5 1.15c1.734.667 3.15 1 4.25 1 1.5 0 2.984-.666 4.45-2 .835-.734 2-2.15 3.5-4.25 1.7-2.333 2.884-4.783 3.55-7.35-1.233-.367-2.416-1.084-3.55-2.15-2.266-2.067-3.433-4.75-3.5-8.05 0-2.733.884-5.15 2.65-7.25 1.4-1.733 2.45-2.6 3.15-2.6-2.465-3.3-5.682-4.95-9.65-4.95-1.6-.2-3.532.15-5.8 1.05-2.366.833-3.75 1.25-4.15 1.25-.566 0-1.832-.366-3.8-1.1-2-.8-3.6-1.15-4.8-1.05-4.632 0-8.232 2.133-10.8 6.4-1.366 2.434-2.066 5.217-2.1 8.35m9.25 5.85c.268.233.4.616.4 1.15v9l-.1 1.2c-.4 3.1-1.816 5.983-4.25 8.65l-.35.35c-.4.4-.815.8-1.25 1.2-1.166 1.033-2.516 2.016-4.05 2.95-.265.2-.55.383-.85.55l-1.8 1-.35.2h-.1l-.3-.2-1.1-.6c-2.166-1.233-4.015-2.534-5.55-3.9a6.704 6.704 0 01-.85-.8l-.2-.2c-.132-.134-.266-.267-.4-.4a3.196 3.196 0 01-.3-.35c-1.533-1.667-2.633-3.434-3.3-5.3a8.87 8.87 0 01-.7-2.6A10.51 10.51 0 0116 56v-9c0-.534.1-.917.3-1.15.234-.167.635-.35 1.2-.55l9.9-2.85c.734-.234 1.234-.35 1.5-.35.267 0 .785.116 1.55.35l9.9 2.85c.6.2 1 .383 1.2.55z" fill="none" stroke="#ff7800" stroke-linecap="round" stroke-linejoin="round" stroke-width="1.5"/></svg>