<svg height="80" width="80" xmlns="http://www.w3.org/2000/svg"><g fill="none" fill-rule="evenodd"><path d="M0 0h80v80H0z"/><path d="M49.401 15.7a16.72 16.72 0 013.8 8.85v.1c0 .4.07.8.1 1.2V26c.228.114.446.248.65.4.151.182.319.349.5.5a4.46 4.46 0 01.9 2.85 4.41 4.41 0 01-.9 2.8 3 3 0 01-2.25 1.2 17.82 17.82 0 01-2.8 5 11.74 11.74 0 01-9.35 4.65 11.92 11.92 0 01-9.45-4.65 15.93 15.93 0 01-2.7-5 2.8 2.8 0 01-2.2-1.2 4.11 4.11 0 01-1-2.8 4.79 4.79 0 01.5-2.25 2 2 0 01.5-.6 3.12 3.12 0 011.1-.9v-.15c0-.438.05-.874.15-1.3a16.31 16.31 0 013.65-8.85 11.86 11.86 0 019.45-4.7 11.67 11.67 0 019.35 4.7zm-12.9 32.5a18.09 18.09 0 01-6.15-4.45c-8.666 1.733-13.633 5.35-14.9 10.85a44.55 44.55 0 00-1.45 10.65 3.41 3.41 0 00.35 1.6 4 4 0 00.65 1 3.84 3.84 0 002.8 1.15h44.35a3.84 3.84 0 002.8-1.15 4 4 0 00.65-1 2.76 2.76 0 00.45-1.6 44.55 44.55 0 00-1.45-10.65c-1.333-5.5-6.3-9.117-14.9-10.85a17.53 17.53 0 01-6.15 4.45 10 10 0 01-7 0zm4.5 1.35l3.2 18.6m-5.4-18.65l-3 18.65" stroke="#ff7800" stroke-linecap="round" stroke-linejoin="round" stroke-width="1.5"/><path d="M53.151 26.75a22.39 22.39 0 01-11.85-5.9c-2.426-2.473-4.693-3.39-6.8-2.75-2.473.827-4.806 3.577-7 8.25a.86.86 0 01-1 .35.77.77 0 01-.4-.45.62.62 0 010-.55c2.427-5.167 5.06-8.167 7.9-9 2.6-.94 5.367.11 8.3 3.15a21.7 21.7 0 0011.1 5.5c.2.03.38.137.5.3a.8.8 0 01.1.55 1.39 1.39 0 01-.3.5 1 1 0 01-.55.05z" fill="#ff7800"/></g></svg>