<svg height="80" width="80" xmlns="http://www.w3.org/2000/svg"><g fill="none" fill-rule="evenodd"><path d="M0 0h80v80H0z"/><path d="M51.8 11.28l4.65.65c.912.08 1.79.39 2.55.9a4.65 4.65 0 01.95 2.65l.7 4.6a14 14 0 00.75 3.1 28.38 28.38 0 002.15 3.25l2.25 3a4.51 4.51 0 011.15 2.55 4.68 4.68 0 01-1.15 2.55L63 38.38a17.18 17.18 0 00-1.6 2.55 19.47 19.47 0 00-.8 3.7l-.65 4a5 5 0 01-.95 2.6 4.7 4.7 0 01-2.55 1l-4.05.6a32.65 32.65 0 00-3.65.7c-.473.273-1.773 1.207-3.9 2.8a21.16 21.16 0 01-3.9 2.65c-.56.13-1.14.13-1.7 0a4.08 4.08 0 01-1.85-1l-3.5-2.5a25.34 25.34 0 00-2.8-1.9 24.4 24.4 0 00-3.75-.75l-4-.5a6.33 6.33 0 01-2.55-1.1 6 6 0 01-1-2.6l-.6-4a22.84 22.84 0 00-.7-3.7 26.77 26.77 0 00-2.2-3.4l-2.15-3A4.68 4.68 0 0113 31.98a4.51 4.51 0 011.15-2.55L16.64 26a17.7 17.7 0 001.75-2.8c.364-1.017.6-2.075.7-3.15l.65-4.55a5.47 5.47 0 011-2.65 6.47 6.47 0 012.55-.9l4.1-.65a13.94 13.94 0 003.7-.75c.47-.27 1.37-.9 2.7-1.9l3.6-2.55a4.63 4.63 0 012.5-1.1 4.46 4.46 0 012.5 1.1l3.3 2.4a31 31 0 003.05 2.05 11.61 11.61 0 003.06.73zm-14.1 11.5a3 3 0 011 2.3 3 3 0 01-1 2.3 3 3 0 01-2.25.95 3.32 3.32 0 01-2.35-.95 3.12 3.12 0 01-.9-2.3 3.22 3.22 0 01.9-2.3 3.41 3.41 0 012.35-.9 3.05 3.05 0 012.25.9zm9.05 18.85a3 3 0 01-2.25.95 3.14 3.14 0 01-2.3-.95 3 3 0 01-.95-2.25 3.16 3.16 0 013.25-3.25 3.05 3.05 0 012.25.9 3.1 3.1 0 011 2.35 2.89 2.89 0 01-1 2.25zm-14.55-1.6l15.55-15.6m-21.15 31l-6 13.8 9.1-3.65 3.7 9.2 5.65-13.2h1.65l5.65 13.2 3.7-9.2 9.1 3.65-6-13.8" stroke="#ff7800" stroke-linecap="round" stroke-linejoin="round" stroke-width="1.5"/></g></svg>