<svg height="80" width="80" xmlns="http://www.w3.org/2000/svg"><path d="M42.61 53.221H6.08L0 55.904m19.709-17.135h-5.175zm0-8.654H4.183zm0 4.327H9.359zM5.865 37.601v10.687c0 1.501.763 2.25 2.286 2.25h34.458M35.968 32.02l-7.116 2.423c.058.173.086.361.086.563 0 .375-.144.722-.431 1.038-.287.288-.632.433-1.035.433s-.748-.145-1.035-.433c-.288-.316-.432-.663-.432-1.038 0-.404.144-.75.432-1.039.287-.288.632-.432 1.035-.432s.748.144 1.035.432c.144.145.258.303.345.476zm6.641 23.885H0v2.163c.431.404.906.606 1.423.606H42.61m29.973-2.596v2.64zm-6.555-5.582h7.504c.03-.143.072-.273.13-.39a638.516 638.516 0 002.328-6.533m-30.447-16.01V51.75zm6.038 27.693h6.9zm15.396.822V63zm2.803 0v4.63zM56.841 51.75h-11.3v5.192c0 1.125.548 1.703 1.64 1.731h15.525c1.093-.028 1.639-.606 1.639-1.73v-.823M20.916 25.832c1.898-1.385 4.083-2.077 6.556-2.077 3.133 0 5.779 1.082 7.935 3.245 2.186 2.221 3.278 4.89 3.278 8.005s-1.092 5.755-3.278 7.918c-2.156 2.222-4.802 3.332-7.935 3.332-2.99 0-5.578-1.053-7.763-3.159m46.318 7.4a1.54 1.54 0 00-.13-.39 268.75 268.75 0 01-1.38-3.851 149.965 149.965 0 01-.905-2.726zm1.38-18.607c.662-.663 1.453-.995 2.372-.995.92 0 1.71.332 2.372.995s.992 1.458.992 2.38c0 .924-.33 1.716-.992 2.38s-1.452.995-2.372.995c-.92 0-1.71-.331-2.372-.995-.662-.664-.992-1.456-.992-2.38 0-.922.33-1.716.992-2.38zm-2.027-5.884c1.294-1.846 2.76-3.36 4.399-4.543 1.639 1.183 3.12 2.697 4.442 4.543 1.38 1.933 2.372 3.937 2.976 6.014.632 2.193.56 4.904-.216 8.135-.2.807-.532 1.947-.992 3.418L80 47.51v5.625l-6.469-2.64v2.856h-7.504v-2.856l-6.426 2.64V47.51l4.01-3.981c-.459-1.443-.79-2.568-.991-3.375-.805-3.23-.891-5.942-.259-8.135.431-1.529 1.725-4.168 3.02-6.014zm-17.25-4.63v-1.082c0-1.528-.748-2.293-2.243-2.293H8.15c-1.523 0-2.286.765-2.286 2.293v5.539M63.741 24.1H47.267c-1.15 0-1.725.577-1.725 1.73v1.731h15.612" fill="none" stroke="#ff7800" stroke-linecap="round" stroke-linejoin="round" stroke-width="1.5"/></svg>