<svg height="80" width="80" xmlns="http://www.w3.org/2000/svg"><path d="M63.735 59.614c-4.28-2.817-10.49-4.865-17.65-5.657m-11.912-.133c-7.279.635-13.668 2.558-18.184 5.28m47.719-38.7c-2.321 1.523-5.207 2.82-8.502 3.814m-11.47 2.037a61.234 61.234 0 01-4.279.149c-9.503 0-17.989-2.17-23.569-5.569m22.358 50.009C33.04 64.02 28.58 52.75 28.58 40.001c0-.623.01-1.242.031-1.858m1.498-11.061c1.763-7.378 4.86-13.68 8.26-18.082m3.266 61.456c5.257-6.688 9.787-17.834 9.787-30.455a53.56 53.56 0 00-.77-9.023M47.555 20.02c-1.664-4.123-3.73-7.687-5.922-10.476M40 71c17.12 0 31-13.88 31-31S57.12 9 40 9 9 22.88 9 40s13.88 31 31 31zM9.554 40H54m12 0h4.446M49.5 29a3.5 3.5 0 100-7 3.5 3.5 0 000 7zm11 14.5a3.5 3.5 0 100-7 3.5 3.5 0 000 7zM40 57a3.5 3.5 0 100-7 3.5 3.5 0 000 7zM29 36a3.5 3.5 0 100-7 3.5 3.5 0 000 7z" fill="none" stroke="#ff7800" stroke-linecap="round" stroke-linejoin="round" stroke-width="1.5"/></svg>