<svg height="80" width="80" xmlns="http://www.w3.org/2000/svg"><path d="M27.45 53.347h-1.816c-2.079 0-3.36-2.271-2.284-4.051m8.85-15.05l14.403-24.192c1.036-1.74 3.555-1.738 4.59.002l23.312 39.259c1.057 1.779-.225 4.032-2.295 4.032H58.7m-9.8-29.15v11.299m0 5.6v1.1m-4.25 24.65l-4.75-4.75 1.7-6.55 6.55-1.8 4.75 4.8-1.7 6.5zm1.75-17.95c3.1 0 5.8 1.117 8.1 3.35 2.2 2.2 3.3 4.9 3.3 8.1 0 3.1-1.1 5.784-3.3 8.05-2.3 2.234-5 3.35-8.1 3.35-3.167 0-5.866-1.116-8.1-3.35-2.2-2.266-3.3-4.95-3.3-8.05 0-.9.084-1.767.25-2.6l-15.2-15.2c-2.4.6-4.817.4-7.25-.6-2.966-1.266-5.016-3.367-6.15-6.3-.5-1.233-.8-2.4-.9-3.5l8.5 3.5c.934.4 1.684.517 2.25.35.867-.233 1.567-.917 2.1-2.05l1.5-3.55c.467-1.133.484-2.116.05-2.95-.366-.566-.966-1.016-1.8-1.35l-8.5-3.65a13.012 13.012 0 013.15-1.9c3-1.133 5.95-1.1 8.85.1 3 1.267 5.067 3.384 6.2 6.35.967 2.3 1.134 4.684.5 7.15l15.1 15.1c.867-.233 1.784-.35 2.75-.35z" fill="none" stroke="#ff7800" stroke-linecap="round" stroke-linejoin="round" stroke-width="1.5"/></svg>