<svg height="80" width="80" xmlns="http://www.w3.org/2000/svg"><path d="M40.41 21.224a2.49 2.49 0 011.6.9l1.95 2.2a4.06 4.06 0 001.7 1.45 6.53 6.53 0 002.3-.15l2.85-.75a2.2 2.2 0 011.9.3c.52.359.807.97.75 1.6l.25 3a3.11 3.11 0 00.55 2.1 4.43 4.43 0 001.9 1.35l2.75 1a2.11 2.11 0 011.35 1.25 2 2 0 01-.35 1.8l-1.6 2.6a4.27 4.27 0 00-.8 2.1 4.55 4.55 0 00.8 2.1l1.6 2.5a2.06 2.06 0 01.35 1.85 2 2 0 01-1.35 1.2l-2.75 1.1a4.5 4.5 0 00-1.9 1.3 3.42 3.42 0 00-.55 2l-.25 3a2.31 2.31 0 01-.75 1.75 2.77 2.77 0 01-1.9.15l-2.85-.75a8.41 8.41 0 00-2.3-.15 4.37 4.37 0 00-1.7 1.5l-1.95 2.35a2.49 2.49 0 01-1.6.9 2 2 0 01-1.6-.9l-2-2.35a4.19 4.19 0 00-1.8-1.5 7.62 7.62 0 00-2.2.15l-3 .75a2.65 2.65 0 01-1.85-.15 4.19 4.19 0 01-.75-1.75l-.2-3a4 4 0 00-.55-2 4.54 4.54 0 00-1.95-1.3l-2.75-1.1a2.13 2.13 0 01-1.3-1.2 1.76 1.76 0 01.3-1.85l1.7-2.5a5 5 0 00.7-2.1 4.7 4.7 0 00-.7-2.1l-1.7-2.6a1.69 1.69 0 01-.3-1.8 2.28 2.28 0 011.3-1.25l2.75-1a4.46 4.46 0 001.95-1.35 3.56 3.56 0 00.55-2.1l.2-3a2.77 2.77 0 01.75-1.6 2.11 2.11 0 011.85-.3l3 .75a5.94 5.94 0 002.2.15 3.93 3.93 0 001.8-1.45l2-2.2a2 2 0 011.6-.9zm16.05 35.4h10.75a2.3 2.3 0 002.6-2.6v-38.35a2.32 2.32 0 00-2.6-2.65H12.46a2.34 2.34 0 00-2.65 2.65v38.35a2.32 2.32 0 002.65 2.6h11.8m11.85 6.2H3.01v2.5a2.51 2.51 0 001.65.7h71.55a1.92 1.92 0 001.5-.7v-2.5H44.65m-19.3-3.1h-15.3L3 62.824m74.7 0l-7.2-3.1H55.46m-21.25-17.75l2.9 2.8 1.5 1.55 8-7.95" fill="none" stroke="#ff7800" stroke-linecap="round" stroke-linejoin="round" stroke-width="1.5"/></svg>