<svg height="80" width="80" xmlns="http://www.w3.org/2000/svg"><g fill="none" fill-rule="evenodd"><path d="M0 0h80v80H0z"/><g stroke="#ff7800" stroke-linecap="round" stroke-linejoin="round" stroke-width="1.5"><path d="M19.454 57.897a15.84 15.84 0 01-10.8-27.05 15 15 0 018.9-4.45 18.47 18.47 0 0131.4-11 18.16 18.16 0 013.55 4.9 13 13 0 015.9-1.35 13.14 13.14 0 0113.15 13.17 15.1 15.1 0 01-.3 3.05c.442.336.86.704 1.25 1.1 4.665 4.804 4.665 12.446 0 17.25a11.79 11.79 0 01-8.65 3.6h-.25"/><path d="M44.504 38.497a7.68 7.68 0 00-7.7 7.7c0 .813.117 1.621.35 2.4l-7 6.9v4.85h3.6a2.18 2.18 0 001-.35 1.79 1.79 0 00.5-1.05v-3.25h3a1.86 1.86 0 001.1-.4 1.47 1.47 0 00.4-1v-2.1a9.07 9.07 0 001.7 1.05c.188.072.372.156.55.25a9 9 0 002.5.35 7.41 7.41 0 005.45-2.25 7.27 7.27 0 002.25-5.4 7.68 7.68 0 00-7.7-7.7zm3.95 6a2 2 0 00-.7-1.6 2 2 0 00-1.55-.7 2.32 2.32 0 00-1.7.7 2.25 2.25 0 00-.6 1.6 2.22 2.22 0 00.6 1.55v.05c.232.191.484.359.75.5.289.103.594.154.9.15a2.17 2.17 0 001.6-.65 2.2 2.2 0 00.7-1.55z"/><path d="M55.454 35.117a20.34 20.34 0 11-14.3-5.9 19.47 19.47 0 0114.3 5.9z"/></g></g></svg>