<svg height="80" width="80" xmlns="http://www.w3.org/2000/svg"><path d="M23.6 49.25v8.851zm-.4 4.4c0 1.067-.366 1.984-1.1 2.75-.6.666-1.283 1.067-2.049 1.201h-.5c-1 0-1.851-.401-2.551-1.201-.699-.766-1.05-1.683-1.05-2.75 0-1.066.351-1.983 1.05-2.75.7-.766 1.551-1.15 2.551-1.15.965 0 1.817.384 2.549 1.15.734.767 1.1 1.684 1.1 2.75zM11.651 42.9c-.334.4-.518.817-.551 1.25-.033.434.033.916.201 1.451.399 1.233.615 2.215.649 2.949a10.182 10.182 0 01-.35 3.051c-.266.866-.699 1.715-1.299 2.549A11.897 11.897 0 018.5 56.2c-.4.333-.849.651-1.349.95-.533.3-.918.55-1.151.75-.666.701-1 1.534-1 2.5 0 .8.266 1.534.801 2.201a3.58 3.58 0 002 1.149c.533.101 1.1.066 1.699-.1.334-.1.684-.233 1.051-.4 1.233-.399 2.633-.583 4.199-.55 1.434.033 2.766.217 4 .55 1.733.5 3.467 1.434 5.2 2.8.201.2.533.551 1 1.051.4.432.75.733 1.05.899a5.56 5.56 0 003.801 1.101c1.6-.101 2.916-.834 3.949-2.201.868-1.066 1.284-2.299 1.25-3.7-.033-1.533-.617-2.833-1.75-3.9-.4-.4-.849-.734-1.349-1a24.41 24.41 0 00-1.151-.65c-1.199-.9-1.916-2.133-2.15-3.7-.232-1.599.117-3.033 1.051-4.3.4-.466 1.049-1 1.949-1.6s1.5-1.3 1.801-2.1c.433-.766.582-1.599.449-2.5-.1-.9-.416-1.717-.949-2.45a5.102 5.102 0 00-2.1-1.55c-.801-.333-1.683-.417-2.65-.25-.801.167-1.567.567-2.301 1.2-.266.234-.566.583-.9 1.05-.366.5-.684.901-.95 1.2-1.433 1.4-3.117 2.017-5.05 1.85-.967-.033-1.899-.3-2.799-.8-.268-.167-.651-.467-1.151-.9-.4-.333-.75-.533-1.05-.6a2.28 2.28 0 00-1.25.05c-.467.134-.817.351-1.049.65zm25.75 17h4.15L39.7 57.05c-.934-1.4-1.399-2.833-1.399-4.3 0-1.666.649-3.184 1.949-4.55 1.301-1.3 2.817-1.95 4.551-1.95 1.799 0 3.317.65 4.549 1.95 1.334 1.434 2 2.95 2 4.55 0 .867-.15 1.601-.449 2.2-.5 1.1-.85 1.817-1.051 2.151L48.1 59.9h8.801c3.299 0 4.949-1.667 4.949-5V42.05l2.75 1.85c.801.5 1.551.85 2.25 1.05.633.2 1.35.3 2.15.3 1.801 0 3.317-.633 4.551-1.899 1.332-1.201 2-2.717 2-4.551 0-1.734-.668-3.25-2-4.55-1.234-1.267-2.75-1.899-4.551-1.899-1.5 0-2.933.449-4.3 1.349l-2.85 1.85V22.7c0-3.333-1.65-5-4.949-5H44l1.75-2.75c.467-.766.801-1.483 1-2.15.301-.666.45-1.416.45-2.25 0-1.8-.666-3.333-2-4.6C43.967 4.65 42.467 4 40.7 4c-1.733 0-3.266.65-4.6 1.95-1.266 1.267-1.9 2.8-1.9 4.6a7.49 7.49 0 001.25 4.2l1.951 2.95h-12.85c-1.535 0-2.717.384-3.551 1.151-.966.899-1.449 2.182-1.449 3.849v18.55" fill="none" stroke="#ff7800" stroke-linecap="round" stroke-linejoin="round" stroke-width="1.5"/></svg>