<svg height="80" width="80" xmlns="http://www.w3.org/2000/svg"><path d="M51.03 14.167a1.43 1.43 0 000 2.3l.9.9 18.3 18.3 1 .95a1.45 1.45 0 002.3 0l4.55-4.55a1.45 1.45 0 000-2.3L57.93 9.617a1.43 1.43 0 00-2.3 0zm-.55 32.65l7.6 7.65.5.5a3.79 3.79 0 002.7 1.1 3.41 3.41 0 002.55-1.1 3.74 3.74 0 001.1-2.65 3.67 3.67 0 00-1.1-2.7l-.5-.6-12.45-12.35m19.35-1a11.35 11.35 0 01-3.45 9.95l-3.45 3.4m-5.25 5.45a3.6 3.6 0 011 2.6 3.77 3.77 0 01-1 2.6 3.71 3.71 0 01-2.7 1.1 3.56 3.56 0 01-2.6-1.1l-.45-.4a3.37 3.37 0 011 2.5 3.74 3.74 0 01-1.1 2.65 3.67 3.67 0 01-2.7 1.1 3.8 3.8 0 01-2.7-1.1l-3.5-3.6a3.72 3.72 0 011 2.6 3.8 3.8 0 01-1.1 2.7l-3.85 3.8a3.58 3.58 0 01-2.6 1.1 3.64 3.64 0 01-2.65-1.2 3.47 3.47 0 01-1-2.55 2.9 2.9 0 011-2.4 4.26 4.26 0 01-2.65.8 3.49 3.49 0 01-2.65-1.05 3.74 3.74 0 01-1.1-2.65 3.59 3.59 0 011-2.65 3.63 3.63 0 01-2.6 1 3.87 3.87 0 01-2.7-1 3.8 3.8 0 01-1.1-2.7 2.48 2.48 0 011.07-2.23 4.91 4.91 0 01-2.62.68 3.76 3.76 0 01-3.7-3.7 3.77 3.77 0 011.1-2.7l1.3-1.35-3.5-3.6c-3-2.974-4.433-6.09-4.3-9.35l-2.25 2.2a1.46 1.46 0 01-2.3-.05l-4.55-4.5a1.38 1.38 0 010-2.25l20.2-20.2a1.4 1.4 0 012.25 0l4.55 4.5a1.41 1.41 0 01.05 2.25l-2 2c3.334-.14 6.534 1.36 9.6 4.5l1.6 1.65 2.7-2.7c3.06-3.14 6.51-4.607 10.35-4.4m6.65 12.35c-3.74 3.726-8.106 4.16-13.1 1.3a2.84 2.84 0 00-1.1-.25 1.92 1.92 0 00-1.25.45.65.65 0 00-.2.15l-4.15 4.2a5.19 5.19 0 01-3.65 1.45 4.48 4.48 0 01-3.4-1.6c-.3-.3-.55-.57-.75-.8l-.1-.15a1.49 1.49 0 01-.35-.95 2 2 0 01.65-1.4l7.7-7.65m-10.15 34.85l5.75-5.85 2.1-2.05a3.58 3.58 0 001.15-2.65 3.66 3.66 0 00-1.15-2.65 3.43 3.43 0 00-2.6-1.1 3.59 3.59 0 00-2.65 1.1l-2.75 2.75-5.18 5.52m5.18-5.52a3.55 3.55 0 001-2.55 3.68 3.68 0 00-1-2.65 3.89 3.89 0 00-2.7-1.05 3.75 3.75 0 00-2.7 1.05l-3.65 3.65m23.8 13.5l-.15-.1a3.59 3.59 0 00-2.55-1.05 3.55 3.55 0 00-2.55 1l-4 4.2m4-4.2l1.75-1.75a3.6 3.6 0 001.15-2.7 3.66 3.66 0 00-1.15-2.7 3.59 3.59 0 00-2.65-1.05 3.91 3.91 0 00-2.65 1m-22.8-19.1l16-16m16.75 33l7.85 7.9" fill="none" stroke="#ff7800" stroke-linecap="round" stroke-linejoin="round" stroke-width="1.5"/></svg>