<svg height="80" width="80" xmlns="http://www.w3.org/2000/svg"><path d="M6.354 49.15l14 3.75 11.5-42.9 41.2 11.05-11.35 42.45-.25.9a8.09 8.09 0 01-9.15 5.55l-.8-.2-41.15-11a7.4 7.4 0 01-3.3-3.4 7.71 7.71 0 01-.7-6.2zm36.85-13.45a6.79 6.79 0 003.6 1.3 3.92 3.92 0 003-.85 2.5 2.5 0 00.55-2.6 6.49 6.49 0 00-2.4-2.85 6.57 6.57 0 01-2.25-2.75 2.32 2.32 0 01.5-2.65 4 4 0 013.1-.95l.55.1.7-2.65M31.254 43l7.15 1.95m7.9-7.55l-.6 2.25m5.8 30.1a8.07 8.07 0 01-4.2-3.3 10 10 0 01-1-2.95 7.86 7.86 0 01.35-3.55l-26.25-7.05m9.25-4.1l7.15 1.95m4.5 1.2l14.3 3.8m-12.65-9.6l14.3 3.85m-7.35-25.55a6.94 6.94 0 012.95 1.25" fill="none" stroke="#ff7800" stroke-linecap="round" stroke-linejoin="round" stroke-width="1.5"/></svg>