<svg height="80" width="80" xmlns="http://www.w3.org/2000/svg"><g fill="none" fill-rule="evenodd"><g stroke="#ff7800" stroke-linecap="round" stroke-linejoin="round" stroke-width="1.5"><path d="M52.55 29.601l-.7-.2a23.37 23.37 0 01-9.7-5.65c-3-2.96-5.8-4.043-8.4-3.25-2.34.84-4.923 3.007-7.75 6.5a17.2 17.2 0 013.8-8.25 12.93 12.93 0 0110.35-5.2 12.72 12.72 0 0110.3 5.2 16.9 16.9 0 011.4 1.8 19.36 19.36 0 012.55 6.45m.15 4.05v6.65a2.53 2.53 0 00.7 1.8 2.55 2.55 0 004.35-1.8v-6.65a2.36 2.36 0 00-.75-1.8 2.54 2.54 0 00-1.75-.75h-.05a2.48 2.48 0 00-2.5 2.55zm2.55-2.55v-1.55a16.9 16.9 0 00-17-16.95 16.73 16.73 0 00-16.95 16.95v1.51a2.45 2.45 0 011.8.75 2.36 2.36 0 01.75 1.8v6.65a2.55 2.55 0 01-5.1 0v-6.65a2.36 2.36 0 01.75-1.8 2.5 2.5 0 011.75-.75m8.95-1.1h3.55m2.9 15.4a5.44 5.44 0 01-4-1.65 4.87 4.87 0 01-1-1.3m-6.35.35a18.22 18.22 0 002.5 3.9 13.85 13.85 0 005.8 4.4m-5.5 1.1c-5.673 1.1-9.957 3-12.85 5.7a16.83 16.83 0 00-5 8l-2.1 7.65m42.9-30.75a17.7 17.7 0 01-2.55 3.9 21.14 21.14 0 01-1.85 2 3.23 3.23 0 00-.4.35m21.9 24.5l-2.15-6.75a20.41 20.41 0 00-7.6-10.7 22.27 22.27 0 00-6-2.8l-1.25-.4m-8.4-3.11a2.82 2.82 0 012.7 2.8v.05a2.8 2.8 0 01-.8 1.8 2.53 2.53 0 01-1.9.85h-4a2.5 2.5 0 01-1.9-.85 2.61 2.61 0 01-.8-1.8v-.05a2.65 2.65 0 01.8-1.95 2.88 2.88 0 011.9-.85z"/><path d="M44.6 47.151h-4a2.88 2.88 0 00-1.9.85 2.65 2.65 0 00-.8 1.95v.05a2.61 2.61 0 00.8 1.8 2.5 2.5 0 001.9.85h4a2.53 2.53 0 001.9-.85 2.8 2.8 0 00.8-1.8v-.05a2.82 2.82 0 00-2.7-2.8zm2.7 2.85a13.14 13.14 0 0010.1-9.75"/></g><path d="M48 32.201a1.5 1.5 0 01-3 0 1.35 1.35 0 01.45-1.05 1.45 1.45 0 012.1 0c.298.267.463.651.45 1.05zm-13 1.05a1.5 1.5 0 01-2.55-1.05 1.35 1.35 0 01.45-1.05 1.45 1.45 0 012.1 0c.298.267.463.651.45 1.05a1.44 1.44 0 01-.5 1.05z" fill="#ff7800"/></g></svg>