<svg height="80" width="80" xmlns="http://www.w3.org/2000/svg"><g stroke="#ff7800" stroke-width="1.5" fill="none" fill-rule="evenodd" stroke-linecap="round" stroke-linejoin="round"><path d="M48.246 29.016a14.285 14.285 0 013.246 7.56v.086c0 .342.06.684.086 1.025v.128c.194.098.38.212.555.342.129.155.272.298.427.427.529.7.8 1.56.769 2.435a3.768 3.768 0 01-.769 2.393 2.563 2.563 0 01-1.922 1.025 15.225 15.225 0 01-2.392 4.272 10.03 10.03 0 01-7.989 3.972 10.184 10.184 0 01-8.073-3.972 13.61 13.61 0 01-2.307-4.272 2.392 2.392 0 01-1.88-1.025 3.511 3.511 0 01-.854-2.393 4.092 4.092 0 01.427-1.922c.107-.197.252-.371.427-.513.25-.325.572-.588.94-.769v-.128c0-.374.043-.746.128-1.11a13.935 13.935 0 013.119-7.561A10.133 10.133 0 0140.257 25a9.97 9.97 0 017.989 4.016zM37.224 56.782c-2-.881-3.791-2.177-5.254-3.802-7.405 1.481-11.648 4.571-12.73 9.27a38.062 38.062 0 00-1.24 9.1c-.013.472.09.942.3 1.366.14.311.328.6.554.855a3.28 3.28 0 002.393.982h37.89a3.28 3.28 0 002.393-.982c.227-.256.414-.544.555-.855.266-.405.4-.882.385-1.367a38.062 38.062 0 00-1.24-9.099c-1.138-4.699-5.382-7.789-12.73-9.27a14.977 14.977 0 01-5.253 3.802 8.544 8.544 0 01-5.981 0zm3.845 1.154l2.734 15.89m-4.614-15.933l-2.563 15.934"/><path d="M29.225 37.026c1.77-3.136 3.851-5.526 5.863-6.116 2.222-.804 4.585.093 7.092 2.69a18.54 18.54 0 009.483 4.7M40.145 48c-1.247.018-2.447-.387-3.316-1.119A3.48 3.48 0 0136 46m3.855 2c1.247.018 2.447-.387 3.316-1.119A3.48 3.48 0 0044 46"/><path d="M58.56 77.044c1.957.768 4.045 1.073 6.265.916 4.053-.256 7.387-2.113 10.004-5.576 2.198-2.7 3.252-5.824 3.166-9.373-.083-3.884-1.563-7.177-4.433-9.88a14.32 14.32 0 00-3.417-2.533c-1.436-.844-2.41-1.394-2.916-1.647-3.037-2.28-4.853-5.404-5.446-9.373-.588-4.051.296-7.684 2.662-10.894 1.013-1.18 2.657-2.533 4.937-4.053s3.8-3.293 4.563-5.32c1.096-1.94 1.474-4.05 1.137-6.333a12.782 12.782 0 00-2.404-6.207 12.923 12.923 0 00-5.32-3.926C65.33 2 63.095 1.788 60.645 2.21c-2.029.423-3.969 1.437-5.828 3.04-.674.593-1.434 1.477-2.28 2.66-.927 1.267-1.733 2.283-2.407 3.04-3.63 3.547-7.896 5.11-12.792 4.687-2.45-.084-4.81-.76-7.09-2.027-.68-.423-1.65-1.183-2.916-2.28-1.014-.843-1.9-1.35-2.66-1.52-1.1-.25-2.153-.21-3.167.127-1.183.34-2.07.89-2.657 1.647-.846 1.013-1.312 2.07-1.396 3.166-.083 1.1.084 2.32.51 3.676 1.01 3.124 1.557 5.611 1.644 7.47.083 2.704-.208 5.28-.887 7.73-.674 2.194-1.77 4.345-3.29 6.457a30.138 30.138 0 01-4.563 5.194 26.943 26.943 0 01-3.417 2.406c-1.35.76-2.326 1.394-2.916 1.9C2.846 51.36 2 53.47 2 55.918c0 2.026.674 3.886 2.03 5.575 1.35 1.518 3.036 2.49 5.065 2.911 1.35.256 2.787.167 4.304-.253.846-.253 1.69-.699 2.663-1.013"/></g></svg>