<svg height="80" width="80" xmlns="http://www.w3.org/2000/svg"><path d="M73.3 53.806l-2.91-6.201-.832-1.772L77 44.103l-6.61-5.526L59 29v23.71l6.027-4.683 3.7 7.973 1.663-.802zM44.065 14.863A27.933 27.933 0 0034 13C18.536 13 6 25.536 6 41s12.536 28 28 28c10.21 0 19.144-5.465 24.036-13.629M57 56.998C51.95 53.374 43.532 51 34.001 51 24.47 51 16.051 53.374 11 57m32.741-26.868a53.764 53.764 0 01-9.74.868C24.47 31 16.051 28.626 11 25m20.998 43.5C27.165 62.461 23 52.397 23 41.001c0-11.397 4.166-21.462 9-27.501m4.002 55C40.835 62.461 45 52.397 45 41.001c0-11.397-4.166-21.462-9-27.501m28.784 16.976A11.462 11.462 0 0068 22.5C68 16.149 62.851 11 56.5 11S45 16.149 45 22.5 50.149 34 56.5 34m4.127-15.627l-8.254 8.254m0-8.254l8.254 8.254" fill="none" stroke="#ff7800" stroke-linecap="round" stroke-linejoin="round" stroke-width="1.5"/></svg>