<svg height="80" width="80" xmlns="http://www.w3.org/2000/svg"><g fill="none" fill-rule="evenodd"><path d="M0 0h80v80H0z"/><g stroke="#ff7800" stroke-linecap="round" stroke-linejoin="round" stroke-width="1.5"><path d="M26.704 59.799a10.74 10.74 0 01-7.65-2.1 10.25 10.25 0 01-4.25-7.15 14 14 0 01-9.6-24 13 13 0 017.9-3.95 16.12 16.12 0 014.65-9.8c6.43-6.399 16.82-6.399 23.25 0a16.28 16.28 0 013.15 4.35 11.57 11.57 0 015.25-1.2 11.69 11.69 0 0111.7 11.7v.75"/><path d="M25.804 41.849l-4.9 4.85h22m4.1-.15l4.9-4.85h-22m-4.1 9.85l-4.9-4.85m8.6 3.3v9.44l.1.7a2.26 2.26 0 002.55 1.8h35.75a2.3 2.3 0 002.6-2.6v-25.35a2.32 2.32 0 00-2.6-2.65h-35.75a2.34 2.34 0 00-2.65 2.65v4.4m-5.15 32.95h52.55a1.88 1.88 0 001.5-.7v-2.5h-55.7v2.5c.44.436 1.03.69 1.65.71zm54-3.2l-7.2-3.1h-41.45l-7 3.1m29.2-26.45l-4.9-4.85"/></g></g></svg>