<svg height="80" width="80" xmlns="http://www.w3.org/2000/svg"><g fill="none" fill-rule="evenodd"><g stroke="#ff7800" stroke-linecap="round" stroke-linejoin="round" stroke-width="1.5"><path d="M51.492 36.577v.085c0 .342.06.684.086 1.025v.128c.194.098.38.212.555.342.129.155.272.298.427.427.529.7.8 1.56.769 2.435a3.768 3.768 0 01-.769 2.393 2.563 2.563 0 01-1.922 1.025 15.225 15.225 0 01-2.392 4.272 10.03 10.03 0 01-7.989 3.972 10.184 10.184 0 01-8.073-3.972 13.61 13.61 0 01-2.307-4.272 2.392 2.392 0 01-1.88-1.025 3.511 3.511 0 01-.854-2.393 4.092 4.092 0 01.427-1.922c.107-.197.252-.371.427-.513.25-.325.572-.588.94-.769v-.128c0-.374.043-.746.128-1.11a13.935 13.935 0 013.119-7.561A10.133 10.133 0 0140.257 25a9.97 9.97 0 017.989 4.016 14.285 14.285 0 013.246 7.56zM37.224 56.782c-2-.881-3.791-2.177-5.254-3.802-7.405 1.481-11.648 4.571-12.73 9.27a38.062 38.062 0 00-1.24 9.1c-.013.472.09.942.3 1.366.14.311.328.6.554.855a3.28 3.28 0 002.393.982h37.89a3.28 3.28 0 002.393-.982c.227-.256.414-.544.555-.855.266-.405.4-.882.385-1.367a38.062 38.062 0 00-1.24-9.099c-1.138-4.699-5.382-7.789-12.73-9.27a14.977 14.977 0 01-5.253 3.802 8.544 8.544 0 01-5.981 0z"/><path d="M29.225 37.026c1.77-3.136 3.851-5.526 5.863-6.116 2.222-.804 4.585.093 7.092 2.69a18.54 18.54 0 009.483 4.7"/></g><path d="M60.13 15.712c1.451-3.034 5.567-3.555 7.408-1.022 1.842 2.534.461 5.54-3.039 6.44-2.333.6-3.573 1.888-3.72 3.864" stroke="#ff7800" stroke-linecap="round" stroke-linejoin="round" stroke-width="1.5"/><path d="M60.192 29.314a1 1 0 10.416-1.956 1 1 0 00-.416 1.956z" fill="#ff7800"/><path d="M12.21 29.65c.073-2.69 2.912-4.41 5.082-3.157 2.17 1.252 2.14 3.898-.126 5.695-1.51 1.198-1.997 2.542-1.462 4.034" stroke="#ff7800" stroke-linecap="round" stroke-linejoin="round" stroke-width="1.5"/><path d="M16.681 39.57a.8.8 0 10-.332-1.564.8.8 0 00.332 1.565z" fill="#ff7800"/></g></svg>