<svg height="80" width="80" xmlns="http://www.w3.org/2000/svg"><path d="M56.05 65.051c2.8-.101 5.216-.434 7.25-1 2.433-.601 3.667-1.367 3.7-2.301v-2.3c0-3.432-1.217-6.366-3.65-8.799-2.4-2.401-5.3-3.6-8.7-3.6-1.567 0-3.034.25-4.4.75m-20.45 0c-1.367-.5-2.833-.75-4.4-.75-3.433 0-6.367 1.199-8.8 3.6-2.367 2.367-3.567 5.2-3.6 8.5v2.599c0 .934 1.2 1.7 3.6 2.301 2.067.566 4.5.899 7.3 1m3.7 5.699c0 .934 1.2 1.7 3.6 2.301 2.433.666 5.367 1 8.8 1 3.4 0 6.283-.334 8.65-1 2.433-.601 3.667-1.367 3.7-2.301v-2.3c0-3.432-1.217-6.366-3.65-8.799-2.4-2.401-5.3-3.6-8.7-3.6-3.433 0-6.367 1.199-8.8 3.6-2.367 2.367-3.567 5.2-3.6 8.5zM15.15 37l-.7-.699-2.1-6.601M15 46.75c-2-3.866-3-8.116-3-12.75 0-1.467.116-2.899.35-4.3.833-5.899 3.467-11.083 7.9-15.549.467-.467.95-.934 1.45-1.401m46.2 18.101L65 38.2zM62.5 45l2.1-3.899zM48.95 26.301l1.6 1.85zm4-1.4l.5 2.5zm1.7 6.4c1.7 0 3.183.616 4.45 1.85 1.233 1.233 1.85 2.716 1.85 4.45 0 1.733-.617 3.217-1.85 4.45-1.267 1.232-2.75 1.85-4.45 1.85-1.733 0-3.217-.618-4.45-1.85-1.233-1.233-1.85-2.717-1.85-4.45 0-1.734.617-3.217 1.85-4.45 1.233-1.234 2.717-1.85 4.45-1.85zm-10.2 10.85c1.233 1.233 1.85 2.716 1.85 4.45 0 1.733-.617 3.217-1.85 4.45-1.267 1.232-2.75 1.85-4.45 1.85-1.734 0-3.217-.618-4.45-1.85-1.233-1.233-1.85-2.717-1.85-4.45 0-1.734.617-3.217 1.85-4.45 1.233-1.234 2.716-1.85 4.45-1.85 1.7 0 3.183.616 4.45 1.85zm-14.6-.1c-1.267 1.232-2.75 1.85-4.45 1.85-1.733 0-3.217-.618-4.45-1.85-1.233-1.233-1.85-2.717-1.85-4.45 0-1.734.617-3.217 1.85-4.45 1.233-1.234 2.717-1.85 4.45-1.85 1.7 0 3.183.616 4.45 1.85 1.233 1.233 1.85 2.716 1.85 4.45 0 1.733-.617 3.217-1.85 4.45zm6.55-20.2l.65.7-1.8 2M30.4 7.601A26.25 26.25 0 0136.5 6.2m19.95 5.05c1.1.867 2.217 1.834 3.35 2.901 4.7 4.7 7.4 10.266 8.1 16.7.067 1 .1 2.05.1 3.149 0 4.601-.967 8.818-2.9 12.651M47.5 30.25l-2-1.199.1 1.8-1.6-1.45-1 1.25-.3-2.05-1.75-1-3.1 2.7-1.6.649L36 27.7l1.4.151-.45-1.5 3.5-1.651.8-1.7 1.7.7 2.75-2.899-.9-1.601-2.4 1.901-2.45-.95 3.95-4.901 3.3 2 2.35-1.5 1.2-2.3.9-3.45 4.8 1.25C51.683 7.75 46.2 6 40 6c-1.2 0-2.367.068-3.5.2l2.15 2.701-3.25 5.75-6.5 4.599 2.1-7.3-2.6-1.799 2-2.55c-3.167 1.133-6.067 2.849-8.7 5.149l3.1-1.5.2 1-1.5 1.901 4-1.151-.7 4.601-1.4 2.149-1.6-2.199-1.55.199-3 3.301 1.9.949 1.9-3.3 1.85 1.601.45 5.649-2.95.951-.6 1.049" fill="none" stroke="#ff7800" stroke-linecap="round" stroke-linejoin="round" stroke-width="1.5"/></svg>