<svg height="80" width="80" xmlns="http://www.w3.org/2000/svg"><path d="M8.45 26.186C7.483 27.25 7 28.566 7 30.129v11.23c0 3.927.483 7.587 1.45 10.98 2.552 7.641 8.752 14.432 18.6 20.373a82.064 82.064 0 003.4 1.939c.467.232.983.349 1.55.349s1.083-.117 1.55-.35a79.529 79.529 0 004.703-2.743c3.57-2.256 6.626-4.631 9.17-7.126M12.45 19.186c-.967 1.065-1.45 2.38-1.45 3.943v11.23c0 3.927.483 7.587 1.45 10.98 2.834 8.486 10.167 15.923 22 22.312.467.232.983.349 1.55.349s1.083-.117 1.55-.35a79.529 79.529 0 004.703-2.743 65.478 65.478 0 003.332-2.247m16.07-18.973a27.132 27.132 0 001.895-4.347c.967-3.394 1.45-7.054 1.45-10.981v-11.23c0-1.564-.483-2.878-1.45-3.943-.834-1.164-2.15-2.047-3.95-2.646L43.55 5.898C41.75 5.3 40.567 5 40 5s-1.75.3-3.55.898L20.4 10.54c-1.8.6-3.116 1.482-3.95 2.646-.967 1.065-1.45 2.38-1.45 3.943v11.23c0 3.927.483 7.587 1.45 10.98 2.834 8.486 10.167 15.923 22 22.312.467.232.983.349 1.55.349s1.083-.117 1.55-.35c.877-.473 1.73-.952 2.557-1.437m18.66-10.263v3.651zm-5.091 0a2.69 2.69 0 01.748-1.75c.5-.467 1.098-.7 1.797-.7.7 0 1.298.233 1.797.7.467.5.716 1.083.75 1.75a2.69 2.69 0 01.748-1.75c.499-.467 1.098-.7 1.797-.7s1.298.233 1.797.7c.466.5.716 1.083.749 1.75v2.35m-10.183 1.301V39.5a2.69 2.69 0 00-.75-1.75c-.498-.5-1.097-.75-1.796-.75s-1.298.25-1.797.75a2.932 2.932 0 00-.799 1.75v18.351l-5.141-5.202-.1-.099c-.532-.467-1.115-.699-1.747-.699-.7 0-1.298.25-1.797.75-.5.533-.749 1.132-.749 1.798 0 .668.233 1.25.699 1.75l.1.101 10.632 10.7.2.199C56.727 69.05 59.19 70 62.018 70c3.062 0 5.64-1.083 7.737-3.25 1.997-1.967 3.078-4.316 3.245-7.05v-1.5l-.05-5.75v-.15c0-.699-.25-1.283-.749-1.75-.499-.5-1.098-.75-1.797-.75s-1.298.25-1.797.75c-.466.467-.715 1.051-.748 1.75v1.301" fill="none" stroke="#ff7800" stroke-linecap="round" stroke-linejoin="round" stroke-width="1.5"/></svg>