<svg height="80" width="80" xmlns="http://www.w3.org/2000/svg"><path d="M56.1 33.75c5.033 0 9.3 1.75 12.8 5.25 3.567 3.6 5.35 7.884 5.35 12.85 0 5.101-1.783 9.384-5.35 12.851-.767.766-1.55 1.45-2.351 2.049C63.516 68.917 60.033 70 56.1 70c-3.868 0-7.35-1.083-10.45-3.25a19.422 19.422 0 01-2.4-2.049C39.75 61.234 38 56.951 38 51.85c0-4.966 1.75-9.25 5.25-12.85 3.6-3.5 7.883-5.25 12.85-5.25zm7.868-6.023l3.616 1.19 1.188 3.874.991-3.873 3.665-1.19-3.665-1.49-.99-3.872-1.19 3.872zM56 30.5v-6.371c0-1.564-.483-2.878-1.45-3.943-.834-1.164-2.15-2.047-3.95-2.646l-16.05-4.642C32.75 12.3 31.567 12 31 12s-1.75.3-3.55.898L11.4 17.54c-1.8.6-3.116 1.482-3.95 2.646C6.483 21.25 6 22.566 6 24.129v11.23c0 3.927.483 7.587 1.45 10.98 2.834 8.486 10.167 15.923 22 22.312.467.232.983.349 1.55.349s1.083-.117 1.55-.35C33.427 68.178 36 67 39 65m21.25-21c.767.367 1.5.917 2.2 1.65 1.8 1.833 2.7 4 2.7 6.5s-.9 4.65-2.7 6.451C60.717 60.4 58.566 61.3 56 61.3c-1.899 0-3.6-.516-5.1-1.55a6.86 6.86 0 01-1.25-1.149C47.884 56.8 47 54.65 47 52.15s.884-4.667 2.65-6.5a14.29 14.29 0 011.25-1.1c.3-.199.617-.383.951-.55M56 40v8.149m7.203-32.378l6.241-1.986-6.24-2.234L61.172 5l-1.932 6.551L53 13.785l6.241 1.986 1.932 6.553z" fill="none" stroke="#ff7800" stroke-linecap="round" stroke-linejoin="round" stroke-width="1.5"/></svg>