<svg xmlns="http://www.w3.org/2000/svg" width="80" height="80" fill="none"><path stroke="#FF7800" stroke-linecap="round" stroke-linejoin="round" stroke-width="1.5" d="M16.534 43.573l3.626 1.44-5.226-4.64 1.6 3.2zm47.733 17.28a34.019 34.019 0 004.373-6.4l-4.373 6.4zm-12.587-5.92l-1.227 2.507 1.44 2.667 4.16-5.814-4.373.64zm14.134-7.253l.8 5.973 3.626-6.666-4.426.693zm-16.268-16l2.134 2.507-3.52-.427-.747-.907 2.133-1.173zm-13.706-5.6l.746.853-2.026 2.24h5.226l-2.56-3.573-1.386.48zm-2.347-2.187l2.774-1.973h-4.534l1.76 1.973zm19.787 9.12l.8-2.933 1.174 5.813-1.974-2.88zm-24.907-21.6l7.893-.906 1.494 2.186-3.734 6.56-7.413 5.227 2.4-8.32-2.987-2.027 2.347-2.72z" clip-rule="evenodd"/><path stroke="#FF7800" stroke-linecap="round" stroke-linejoin="round" stroke-width="1.5" d="M8.374 35.093c.96-6.755 3.964-12.675 9.013-17.76a18.321 18.321 0 011.706-1.6"/><path stroke="#FF7800" stroke-linecap="round" stroke-linejoin="round" stroke-width="1.5" d="M71.84 36.373l-3.627 10.24H66.72l-.587-5.973-3.36 5.653-2.72-5.653-3.36-.267 1.174 1.867-3.2 1.333-5.654-5.653 5.334 10.88-3.467 2.56v3.413l-5.44 6.08-1.6-.213-1.76-5.547 1.28-1.6-3.52-6.08-3.68.96-4.64-4.48 3.68-5.973 6.08-2.347.8 1.334 6.933 1.013 1.44-2.133L48 36.48l-1.707-2.667.107 2.08-1.867-1.173-1.12 1.44-.373-2.347-1.973-1.12-3.52 3.094-1.867.693-.267-3.68 1.6.16-.533-1.707 4-1.866.907-1.974 1.973.8 3.147-3.306-1.067-1.814-2.027 3.68-3.466-2.613 4.48-5.6 3.786 2.293 2.667-1.706 1.387-2.667 1.013-3.893 5.493 1.386C53.333 9.991 47.075 8 40 8c-8.035 0-15.005 2.578-20.907 7.733l3.52-1.76.214 1.174-1.707 2.186L25.707 16l-.8 5.227-1.6 2.506-1.814-2.56-1.813.267-3.413 3.733 2.186 1.12 2.134-3.786 2.133 1.813.533 6.453-3.413 1.12-6.027 9.814 1.334 5.28 1.813-2.134 3.413 2.347 1.92.213.427 1.654 5.013 2.026.214 5.014-1.707 4.96 3.68 6.346-4.533-3.04-8.854-12.48-1.386-4.906-4.374-4.374-2.4-7.52A31.985 31.985 0 008 40c0 8.782 3.129 16.32 9.387 22.613C23.645 68.871 31.182 72 40 72s16.355-3.129 22.613-9.387c.569-.57 1.12-1.155 1.654-1.76l-4.214.96 8.587-7.36C70.88 50.08 72 45.262 72 40c0-1.245-.053-2.453-.16-3.627-.782-7.324-3.858-13.671-9.227-19.04a46.507 46.507 0 00-3.84-3.36"/></svg>