<svg height="80" width="80" xmlns="http://www.w3.org/2000/svg"><g fill="none" fill-rule="evenodd" stroke-linecap="round" stroke-linejoin="round" stroke="#ff7800" stroke-width="1.5"><path d="M45.643 31.964v-12.35a2.223 2.223 0 00-1.188-2.09l-.085-.047-14.25-8.265-.513-.19a.333.333 0 00-.238 0L2 24.079l15.494 8.978c.533.293.924.79 1.083 1.377l.105.618V68.91c.03.337-.097.67-.342.902l10.45-6.032m13.965-43.748l-18.05 10.545-3.895 2.233M6.085 29.342a.693.693 0 00-.808-.047.807.807 0 00-.38.712c.026.422.157.83.38 1.188.202.355.477.663.808.902a.75.75 0 001.187-.712 2.973 2.973 0 00-1.187-2.043zM4.28 58.935l12.35 7.125v-5.083L4.28 53.852zm0-21.09l12.35 7.172v5.13l-12.35-7.22zm0 13.11l12.35 7.172v-5.13L4.28 45.825zm14.107 18.857a1.083 1.083 0 01-.845-.237L3.235 61.31a2.195 2.195 0 01-1.188-2.043v-35.15"/><path d="M31.108 52.342v8.968l.095.665a2.157 2.157 0 002.422 1.71h33.963a2.185 2.185 0 002.48-2.47V37.132a2.204 2.204 0 00-2.48-2.517H33.626a2.223 2.223 0 00-2.518 2.517v4.18m12.73 7.885h-20.9l4.655 4.608m20.14-4.75l4.655-4.608h-20.9m20.9 0l-4.655-4.607m-24.795 9.357l4.655-4.607m-1.378 28.025h49.923a1.786 1.786 0 001.425-.665v-2.375H24.657v2.375c.417.412.973.653 1.558.674zm51.3-3.04l-6.83-2.945H31.298l-6.65 2.945"/></g></svg>