<svg height="80" width="80" xmlns="http://www.w3.org/2000/svg"><path d="M1.75 54.55v2.5c.533.467 1.083.7 1.65.7h19M13.95 38.1l4.9-4.85zm8.45 13.35H8.8l-7.05 3.1H22.4m31.15-35.1V17.4c0-1.767-.867-2.65-2.6-2.65H11.2c-1.767 0-2.65.883-2.65 2.65v28.35c0 1.734.883 2.6 2.65 2.6h11.2M35.95 38.1h-22l4.9 4.85m22.2-5l4.9-4.85zm-17.1-4.85h22l-4.9-4.85m-22.3 34.3v2.5c.534.467 1.083.7 1.65.7h56.55c.6 0 1.1-.233 1.5-.7v-2.5zm52.5-3.1H25.8l-7.05 3.1h59.7zM25.55 41.4v12.35c0 .3.034.567.1.8.234 1.2 1.083 1.8 2.55 1.8h39.75c1.734 0 2.6-.866 2.6-2.6v-12.2m0-6.9V25.4c0-1.767-.866-2.65-2.6-2.65H28.2c-1.766 0-2.65.883-2.65 2.65v4.4m38.6 1.75v6.55h6.55m-6.55 6.6v-6.6h-6.6" fill="none" stroke="#ff7800" stroke-linecap="round" stroke-linejoin="round" stroke-width="1.5"/></svg>