<svg height="80" width="80" xmlns="http://www.w3.org/2000/svg"><path d="M57.65 39.05l-1 1zM22.4 41l16.65 16.651zm1-1l17.65-17.599zM42 44.901c.433.466.65.966.65 1.5 0 .533-.217.966-.65 1.298-.367.467-.817.702-1.35.702-.534 0-1.017-.235-1.45-.702-.367-.332-.55-.765-.55-1.298 0-.534.183-1.034.55-1.5.433-.334.916-.5 1.45-.5.533 0 .983.166 1.35.5zm-1.35-10.5c-.534 0-1.017-.235-1.45-.702-.367-.332-.55-.765-.55-1.298 0-.534.183-1.034.55-1.5.433-.334.916-.5 1.45-.5.533 0 .983.166 1.35.5.433.466.65.966.65 1.5 0 .533-.217.966-.65 1.298-.367.467-.817.702-1.35.702zM49 40.699c-.367.467-.817.702-1.35.702-.534 0-1.017-.235-1.45-.702-.367-.332-.55-.765-.55-1.298 0-.534.183-1.034.55-1.5.433-.334.916-.5 1.45-.5.533 0 .983.166 1.35.5.433.466.65.966.65 1.5 0 .533-.217.966-.65 1.298zm-14-2.798c.433.466.65.966.65 1.5 0 .533-.217.966-.65 1.298-.367.467-.817.702-1.35.702-.534 0-1.017-.235-1.45-.702-.367-.332-.55-.765-.55-1.298 0-.534.183-1.034.55-1.5.433-.334.916-.5 1.45-.5.533 0 .983.166 1.35.5zm7.05 20.75l6.85 6.899c2.333 2.3 5.116 3.45 8.35 3.45 3.233-.033 6-1.183 8.3-3.45 2.3-2.3 3.433-5.05 3.4-8.25.033-3.267-1.1-6.05-3.4-8.351l-8.9-8.899-17.6 17.601L31.1 65.5c-2.334 2.3-5.117 3.434-8.35 3.401-3.234.033-5.984-1.101-8.25-3.401-2.3-2.301-3.467-5.066-3.5-8.301 0-3.232 1.167-6 3.5-8.298L22.4 41l1-1-2.399-2.399L14.5 31.1c-2.333-2.333-3.467-5.116-3.4-8.35 0-3.233 1.133-5.983 3.4-8.25 2.333-2.301 5.116-3.467 8.35-3.5 3.166 0 5.933 1.151 8.3 3.449l6.9 6.952m3 1l16.6 16.649 7.95-7.95c2.266-2.333 3.4-5.1 3.4-8.3-.034-3.233-1.183-6.017-3.45-8.351-2.3-2.265-5.067-3.399-8.3-3.399-3.234-.066-6.017 1.067-8.35 3.399z" fill="none" stroke="#ff7800" stroke-linecap="round" stroke-linejoin="round" stroke-width="1.5"/></svg>