<svg height="80" width="80" xmlns="http://www.w3.org/2000/svg"><g fill="none" fill-rule="evenodd"><path d="M0 0h80v80H0z"/><path d="M26.65 31.55a21.62 21.62 0 014.55-6.65 21.43 21.43 0 110 30.25 20.34 20.34 0 01-5.6-9.8M6 33.25l13.2 13.2a34.69 34.69 0 01-.55-6.4 30.18 30.18 0 01.8-6.8 25.74 25.74 0 017.3-13A27.5 27.5 0 0146.05 12h.4c15.426.071 27.906 12.574 27.95 28v.35a28 28 0 01-47.65 19.6 26.08 26.08 0 01-2.4-2.75M19.2 46.4l13.15-13.2m13.7-8.3v15.45l8.85 4.8" stroke="#ff7800" stroke-linecap="round" stroke-linejoin="round" stroke-width="1.5"/></g></svg>