<svg xmlns="http://www.w3.org/2000/svg" width="78" height="82"><path fill="none" stroke="#4E22D0" stroke-linecap="round" stroke-linejoin="round" stroke-width="1.5" d="M41.357 4.88l-1.784-1.383C37.433 1.83 34.891 1 31.948 1c-2.587 0-4.968.847-7.135 2.542l-1.74 1.338m39.822 26.176L39.662 50.409c-2.203 1.632-4.771 2.453-7.714 2.453-2.587 0-4.977-.82-7.18-2.453L1.535 31.056m23.322-6.734v2.497m31.438 6.69l-.044-16.188-7.046.892c-2.586.178-3.995-.954-4.236-3.39l-.67-7.49H12.283c-2.676.062-4.058 1.444-4.147 4.146v22.03M5.548 19.327l-2.853 2.497C1.65 22.806 1.089 24.278 1 26.24v36.388c.116 3.719 2.078 5.663 5.886 5.841h41.516M63.43 52.996V26.24c-.062-1.846-.562-3.238-1.516-4.192l-3.255-2.72m-19.086 4.994v2.497m0 6.288c-.294.357-.606.696-.936 1.026-1.606 1.632-3.55 2.452-5.842 2.452M44.3 7.332l11.95 9.99m13.111 48.026l-7.09 7.09-3.924-3.88m14.448-9.364c2.497 2.524 3.746 5.547 3.746 9.052 0 3.541-1.249 6.538-3.746 9.008C70.325 79.751 67.328 81 63.787 81c-3.505 0-6.528-1.249-9.052-3.746-2.47-2.47-3.702-5.467-3.702-9.008 0-3.505 1.231-6.528 3.702-9.052 2.524-2.47 5.547-3.701 9.052-3.701 3.54 0 6.537 1.23 9.008 3.701z"/></svg>