<svg width="84" height="84" fill="none" xmlns="http://www.w3.org/2000/svg"><path clip-rule="evenodd" d="M14.123 34.016H78 14.123zM32.59 47.584h45.107H32.59zm0-5.486h29.516H32.59zm-26.59 0h21.797H6zm21.797 5.877H13.264h14.533zm0 5.928H20.53h7.266zM14.123 37.74v-9.747 9.747zm53.533-15.528v1.862-1.862zm-5.045 0v1.862-1.862zm10.091 0v1.862-1.862z" stroke="#4E22D0" stroke-width="1.5" stroke-linecap="round" stroke-linejoin="round"/><path d="M78 27.993v35.558c-.202 1.503-1.026 2.32-2.472 2.45H16.796c-1.546-.13-2.438-.931-2.673-2.4v-5.29" stroke="#4E22D0" stroke-width="1.5" stroke-linecap="round" stroke-linejoin="round"/><path clip-rule="evenodd" d="M15.435 18.294c-.875.425-1.312 1.339-1.312 2.743v6.956h4.239l3.834-6.172h15.792l3.735 6.172H78v-6.956c0-1.47-.454-2.384-1.362-2.743-.304-.196-.875-.294-1.716-.294h-57.57c-.841 0-1.48.098-1.917.294z" stroke="#4E22D0" stroke-width="1.5" stroke-linecap="round" stroke-linejoin="round"/></svg>