<svg xmlns="http://www.w3.org/2000/svg" width="80" height="80" fill="none"><path stroke="#FF7800" stroke-linecap="round" stroke-linejoin="round" stroke-width="1.5" d="M66.3 32.2c.463-.467 1.043-.7 1.738-.7a2.465 2.465 0 012.481 2.5c0 .666-.248 1.25-.744 1.75s-1.075.75-1.737.75c-.695 0-1.275-.25-1.737-.75-.496-.5-.745-1.084-.745-1.75 0-.7.249-1.3.745-1.8zM63.075 52V16v36zm-31.759 5.6V27v30.6zM7.496 27v30.6V27z" clip-rule="evenodd"/><path stroke="#FF7800" stroke-linecap="round" stroke-linejoin="round" stroke-width="1.5" d="M7.496 57.6V64c0 2.666 1.323 4 3.97 4h15.88c2.647 0 3.97-1.334 3.97-4v-6.4"/><path stroke="#FF7800" stroke-linecap="round" stroke-linejoin="round" stroke-width="1.5" d="M21.392 27.25h-3.97 3.97z" clip-rule="evenodd"/><path stroke="#FF7800" stroke-linecap="round" stroke-linejoin="round" stroke-width="1.5" d="M29.331 27h-3.957v3H13.466v-3H9.48m21.836 0c0-2.667-1.323-4-3.97-4h-15.88c-2.647 0-3.97 1.333-3.97 4"/><path stroke="#FF7800" stroke-linecap="round" stroke-linejoin="round" stroke-width="1.5" d="M19.406 16v4.05V16z" clip-rule="evenodd"/><path stroke="#FF7800" stroke-linecap="round" stroke-linejoin="round" stroke-width="1.5" d="M34.89 56h34.14c2.647 0 3.97-1.334 3.97-4V16c0-2.667-1.323-4-3.97-4H19.407c-2.647 0-3.97 1.333-3.97 4v4.05"/><path stroke="#FF7800" stroke-linecap="round" stroke-linejoin="round" stroke-width="1.5" d="M24.37 64.25h-9.925 9.924z" clip-rule="evenodd"/></svg>