<svg xmlns="http://www.w3.org/2000/svg" width="80" height="80" fill="none"><path stroke="#FF7800" stroke-linecap="round" stroke-linejoin="round" stroke-width="1.5" d="M14.398 40.567V67h13.52V56.023l-2.573-2.46"/><path stroke="#FF7800" stroke-linecap="round" stroke-linejoin="round" stroke-width="1.5" d="M23.933 54.153c.538 0 1.009-.197 1.412-.59.404-.33.606-.788.606-1.38 0-.524-.202-.984-.606-1.377-.403-.394-.874-.591-1.412-.591a2.02 2.02 0 00-1.463.59c-.37.362-.555.82-.555 1.379 0 .59.184 1.05.555 1.378.403.394.89.59 1.463.59z" clip-rule="evenodd"/><path stroke="#FF7800" stroke-linecap="round" stroke-linejoin="round" stroke-width="1.5" d="M40.025 57.155h6.054V45.54l2.573-2.461c-.404-.328-.605-.788-.605-1.379 0-.525.201-.984.605-1.378.404-.394.874-.59 1.412-.59.572 0 1.06.196 1.463.59.37.36.555.82.555 1.378 0 .591-.184 1.05-.555 1.379-.403.393-.89.59-1.463.59-.538 0-1.008-.197-1.412-.59m-17.253-.001c-.404.393-.875.59-1.413.59a2.021 2.021 0 01-1.463-.59c-.37-.328-.555-.788-.555-1.379 0-.558.185-1.018.555-1.378.404-.394.891-.59 1.463-.59.538 0 1.01.196 1.413.59.403.394.605.853.605 1.378 0 .591-.201 1.05-.605 1.379zm0 0l2.573 2.46V67h6.053V33.676m0 0c-.537 0-1.008-.197-1.412-.59-.404-.33-.605-.788-.605-1.379 0-.525.201-.984.605-1.378.404-.394.875-.59 1.413-.59.57 0 1.059.196 1.462.59.37.361.555.82.555 1.378 0 .59-.185 1.05-.555 1.378a2.017 2.017 0 01-1.462.591zm25.628 6.891V67h-13.52V56.023l2.573-2.46c-.404-.33-.606-.788-.606-1.38 0-.524.202-.984.606-1.377.403-.394.873-.591 1.412-.591.572 0 1.06.197 1.463.59.37.362.555.82.555 1.379 0 .59-.185 1.05-.555 1.378-.403.394-.89.59-1.463.59-.539 0-1.009-.196-1.412-.59m6.104-21.904V17.925h-6.912v3.938"/><path stroke="#FF7800" stroke-linecap="round" stroke-linejoin="round" stroke-width="1.5" d="M9 41.6l28.2-27.515c.908-.755 1.867-1.115 2.876-1.083.975-.032 1.883.312 2.724 1.034L71 41.6"/></svg>