<svg xmlns="http://www.w3.org/2000/svg" xmlns:xlink="http://www.w3.org/1999/xlink" width="56" height="56"><defs><path id="d" d="M1.806.228a1.57 1.57 0 00-1.57 1.57v52.396c0 .867.703 1.57 1.57 1.57h52.396a1.57 1.57 0 001.57-1.57V1.798a1.57 1.57 0 00-1.57-1.57H1.806z"/><path id="f" d="M8.431.025a.868.868 0 00-.867.868v1.301h-4.34A3.037 3.037 0 00.188 5.232V30.83c0 .84.34 1.6.89 2.15.367.365 4.553 4.566 12.56 12.602h23.595a1.57 1.57 0 001.57-1.57V20.851A21431.844 21431.844 0 0121.005 3.098a3.029 3.029 0 00-2.162-.904H16.24L14.326.28a.87.87 0 00-.614-.254h-5.28z"/><path id="i" d="M13.712.025l.057.002c.21.014.407.103.557.252l1.915 1.915h2.603l.097.002a3.03 3.03 0 012.065.902l.012.012c.468.473 6.396 6.386 17.784 17.74v23.224a1.571 1.571 0 01-1.57 1.508H13.639l-.24-.24c-7.85-7.88-11.957-12-12.32-12.363l-.065-.067a3.027 3.027 0 01-.825-2.082V5.151a3.038 3.038 0 013.037-2.957h4.339V.893l.001-.051a.869.869 0 01.866-.817h5.281z"/><path id="l" d="M8.431.025a.868.868 0 00-.867.868v1.301h-4.34A3.037 3.037 0 00.188 5.232V30.83a3.037 3.037 0 003.037 3.037h15.62a3.037 3.037 0 003.036-3.037V5.232a3.038 3.038 0 00-3.037-3.038h-4.339V.893a.867.867 0 00-.867-.868H8.43zM2.357 30.83V5.232c0-.48.388-.868.868-.868h15.62c.478 0 .867.388.867.868V30.83c0 .48-.389.868-.868.868H3.224a.867.867 0 01-.867-.868zm3.037-18.223a.868.868 0 00-.868.868v15.186c0 .48.389.868.868.868h11.28c.48 0 .868-.389.868-.868V13.475a.868.868 0 00-.867-.868H5.395z"/><linearGradient id="b" x1="111.801%" x2="0%" y1="99.826%" y2="0%"><stop offset=".087%" stop-color="#E65500"/><stop offset="39.485%" stop-color="#FF7800"/><stop offset="100%" stop-color="#FFA026"/></linearGradient><linearGradient id="g" x1="0%" x2="100%" y1="50%" y2="50%"><stop offset="0%" stop-color="#F66000"/><stop offset="100%" stop-color="#F66000"/></linearGradient><linearGradient id="j" x1="54.216%" x2="88.273%" y1="44.012%" y2="84.732%"><stop offset="0%" stop-color="#F66000"/><stop offset="100%" stop-color="#F66000"/></linearGradient><rect id="a" width="56" height="56" x="0" y="0" rx="10"/></defs><g fill="none" fill-rule="evenodd"><mask id="c" fill="#fff"><use xlink:href="#a"/></mask><use fill="url(#b)" xlink:href="#a"/><g mask="url(#c)"><g transform="translate(0 -.992)"><mask id="e" fill="#fff"><use xlink:href="#d"/></mask><path fill="#FF7800" d="M-.848 56.848h57.705V-.857H-.848z" mask="url(#e)"/></g><g transform="translate(16.97 9.19)"><mask id="h" fill="#fff"><use xlink:href="#f"/></mask><path fill="url(#g)" d="M8.431.025a.868.868 0 00-.867.868v1.301h-4.34A3.037 3.037 0 00.188 5.232V30.83c0 .84.34 1.6.89 2.15.367.365 4.553 4.566 12.56 12.602h23.595a1.57 1.57 0 001.57-1.57V20.851A21431.844 21431.844 0 0121.005 3.098a3.029 3.029 0 00-2.162-.904H16.24L14.326.28a.87.87 0 00-.614-.254h-5.28z" mask="url(#h)"/></g><g transform="translate(16.97 9.19)"><mask id="k" fill="#fff"><use xlink:href="#i"/></mask><path fill="url(#j)" d="M-16.733 45.582h55.536V-9.954h-55.536z" mask="url(#k)"/></g><g transform="translate(16.97 9.19)"><mask id="m" fill="#fff"><use xlink:href="#l"/></mask><path fill="#FFF" d="M-.897 34.952h23.863V-1.06H-.897z" mask="url(#m)"/></g></g></g></svg>