<svg xmlns="http://www.w3.org/2000/svg" xmlns:xlink="http://www.w3.org/1999/xlink" width="56" height="56"><defs><linearGradient id="b" x1="111.801%" x2="0%" y1="99.826%" y2="0%"><stop offset=".087%" stop-color="#E65500"/><stop offset="39.485%" stop-color="#FF7800"/><stop offset="100%" stop-color="#FFA026"/></linearGradient><linearGradient id="d" x1="34.388%" x2="74.873%" y1="44.538%" y2="71.159%"><stop offset="0%" stop-color="#F66000"/><stop offset="100%" stop-color="#F66000" stop-opacity="0"/></linearGradient><rect id="a" width="56" height="56" x="0" y="0" rx="10"/></defs><g fill="none" fill-rule="evenodd"><mask id="c" fill="#fff"><use xlink:href="#a"/></mask><use fill="url(#b)" xlink:href="#a"/><g mask="url(#c)"><rect width="56" height="56" fill="#FF7800" fill-rule="nonzero" rx="1.68"/><path fill="url(#d)" d="M35.63 11.76a16.01 16.01 0 012.856 1.772c.603.481 1.181.993 1.73 1.535a.82.82 0 01.171.196L56 30.8V56H31.237L18.592 43.355c-.515-.423-.773-1.092-.773-2.013v-9.736c0-1.668.835-2.503 2.503-2.503h1.12V26.64a6.275 6.275 0 011.028-3.517l-6.451-6.456a1.119 1.119 0 010-1.605 17.007 17.007 0 014.53-3.265v-.014a15.9 15.9 0 013.755-1.307c1.253-.268 2.532-.4 3.814-.395 2.6-.028 5.171.547 7.512 1.68z"/><path fill="#FFF" d="M28.056 38.836a.93.93 0 01-.686-.28.955.955 0 01-.28-.7v-3.01c.013-.536.444-.967.98-.98a.955.955 0 01.7.28.93.93 0 01.28.686v3.024a.959.959 0 01-.98.98h-.014zM20.3 31.248a.219.219 0 00-.188.064.223.223 0 00-.064.188v9.688c-.01.07.014.139.064.188.049.05.119.073.188.064h15.498c.176 0 .28-.084.28-.252V31.5c0-.168-.09-.252-.28-.252H20.3zm3.5-9.716a6.691 6.691 0 018.96.378 6.347 6.347 0 011.96 4.648v2.45h1.092c1.68 0 2.52.83 2.52 2.492v9.688c0 1.661-.84 2.492-2.52 2.492H20.3c-1.661 0-2.492-.83-2.492-2.492V31.5c0-1.661.83-2.492 2.492-2.492h1.12v-2.45a6.32 6.32 0 011.96-4.648c.138-.148.288-.283.448-.406l-.028.028zm1.4 1.75c-.088.06-.168.13-.238.21a4.169 4.169 0 00-1.302 3.066v2.45h8.82v-2.45a4.348 4.348 0 00-1.3-3.076 4.348 4.348 0 00-3.096-1.25 4.277 4.277 0 00-2.842 1.008.079.079 0 00-.042.042zm9.142-3.948h-.014a9.636 9.636 0 00-6.23-2.156 10.4 10.4 0 00-3.234.476 9.743 9.743 0 00-3.122 1.722h-.014a7.81 7.81 0 00-.728.644 1.092 1.092 0 01-.798.308 1.12 1.12 0 01-.784-.336 1.047 1.047 0 01-.322-.784c.005-.298.131-.581.35-.784.279-.278.573-.54.882-.784a11.59 11.59 0 013.836-2.114c1.266-.408 2.59-.61 3.92-.602a11.76 11.76 0 017.644 2.66h-.014c.338.27.66.56.966.868.211.205.328.49.322.784a1.098 1.098 0 01-1.12 1.12 1.06 1.06 0 01-.784-.322 8.63 8.63 0 00-.756-.7zm1.19-7.574h-.014a15.916 15.916 0 012.842 1.75h.014c.6.478 1.175.987 1.722 1.526.218.202.34.487.336.784.003.298-.113.585-.322.798a1.05 1.05 0 01-.784.336 1.123 1.123 0 01-.798-.322 18.733 18.733 0 00-1.54-1.358l.014.014c-.77-.588-1.595-1.1-2.464-1.526a14.538 14.538 0 00-6.482-1.442 15.88 15.88 0 00-3.304.336 13.399 13.399 0 00-3.22 1.12h-.014a15.089 15.089 0 00-3.92 2.842 1.12 1.12 0 01-.798.336 1.06 1.06 0 01-.784-.322 1.118 1.118 0 010-1.596 16.9 16.9 0 014.508-3.248v-.014a15.836 15.836 0 013.752-1.302 17.85 17.85 0 013.78-.392c2.588-.025 5.147.55 7.476 1.68z"/></g></g></svg>