<svg xmlns="http://www.w3.org/2000/svg" xmlns:xlink="http://www.w3.org/1999/xlink" width="56" height="56"><defs><linearGradient id="d" x1="0%" x2="100.007%" y1="50.005%" y2="50.005%"><stop offset="0%" stop-color="#E6E6E6"/><stop offset="16%" stop-color="#F6F6F6"/><stop offset="30%" stop-color="#FFF"/><stop offset="70%" stop-color="#FFF"/><stop offset="84%" stop-color="#F6F6F6"/><stop offset="100%" stop-color="#E6E6E6"/></linearGradient><linearGradient id="h" x1="36.358%" x2="57.57%" y1="95.314%" y2="2.432%"><stop offset="0%" stop-color="#2D364C"/><stop offset="100%" stop-color="#4E5D85"/></linearGradient><linearGradient id="e" x1="46.214%" x2="51.196%" y1="1.708%" y2="100.536%"><stop offset="0%" stop-color="#FF7800"/><stop offset="60%" stop-color="#FF7800"/><stop offset="76%" stop-color="#FC6F00"/><stop offset="100%" stop-color="#F55A00"/></linearGradient><linearGradient id="f" x1=".746%" x2="102.068%" y1="45.385%" y2="52.241%"><stop offset="0%" stop-color="#5E29DD"/><stop offset="35%" stop-color="#8050FF"/><stop offset="100%" stop-color="#8050FF"/></linearGradient><linearGradient id="g" x1="95.072%" x2="17.173%" y1="32.832%" y2="85.249%"><stop offset="0%" stop-color="#F3AA0B"/><stop offset="40%" stop-color="#F1C80B"/><stop offset="100%" stop-color="#F1C80B"/></linearGradient><linearGradient id="b" x1="50%" x2="50%" y1="0%" y2="100%"><stop offset="0%" stop-color="#FFF"/><stop offset="100%" stop-color="#FFF"/></linearGradient><radialGradient id="i" cx="39.841%" cy="51.671%" r="69.96%" fx="39.841%" fy="51.671%" gradientTransform="matrix(.71279 0 0 1 .114 0)"><stop offset="0%" stop-color="#FFF"/><stop offset="100%" stop-color="#FFF" stop-opacity="0"/></radialGradient><radialGradient id="j" cx="52.046%" cy="49.147%" r="50.198%" fx="52.046%" fy="49.147%" gradientTransform="scale(1 .99889) rotate(-9.181 .524 .492)"><stop offset="0%" stop-color="#FFF"/><stop offset="100%" stop-color="#FFF" stop-opacity="0"/></radialGradient><radialGradient id="k" cx="49.999%" cy="50.009%" r="50.039%" fx="49.999%" fy="50.009%" gradientTransform="scale(1 .99875) rotate(.36 .4 .5)"><stop offset="0%" stop-color="#FFF"/><stop offset="100%" stop-color="#FFF" stop-opacity="0"/></radialGradient><radialGradient id="l" cx="51.806%" cy="49.46%" r="50.198%" fx="51.806%" fy="49.46%" gradientTransform="scale(1 .99889) rotate(-9.181 .521 .495)"><stop offset="0%" stop-color="#FFF"/><stop offset="100%" stop-color="#FFF" stop-opacity="0"/></radialGradient><rect id="a" width="56" height="56" x="0" y="0" rx="10"/></defs><g fill="none" fill-rule="evenodd"><mask id="c" fill="#fff"><use xlink:href="#a"/></mask><use fill="url(#b)" fill-rule="nonzero" xlink:href="#a"/><g fill-rule="nonzero" mask="url(#c)"><g transform="translate(-6 -1)"><circle cx="33.413" cy="28.992" r="19.842" fill="#FFF"/><path fill="#FFF" d="M26.222 36.374c1.814 2.23 4.2 4.07 7.102 5.476 2.919-1.417 5.32-3.272 7.14-5.521a18.322 18.322 0 003.35-6.457c.664-2.267.923-4.632.765-6.989-4.038-2.815-7.86-3.47-9.815-3.607h-.039a18.117 18.117 0 00-1.321-.054h-.157c-.175 0-.646 0-1.322.054h-.028c-1.956.136-5.78.788-9.823 3.607a20.18 20.18 0 00.786 7.077 18.3 18.3 0 003.362 6.414zm3.999-8.792a3.127 3.127 0 114.349 3.177v3.536a.43.43 0 01-.43.43h-1.595a.43.43 0 01-.43-.43v-3.54a3.124 3.124 0 01-1.894-3.177v.004z"/><path fill="url(#d)" d="M20.46 23.85c-.13 8.814 5.264 16.306 12.84 19.833 7.471-3.377 12.89-10.785 12.962-19.553a22.03 22.03 0 00-.112-2.368 21.595 21.595 0 00-25.555-.024v.06c-.081.68-.127 1.36-.135 2.052zm1.614-.969c4.042-2.82 7.867-3.471 9.823-3.607h.028a18.1 18.1 0 011.322-.054h.157c.174 0 .646 0 1.321.054h.04c1.953.138 5.776.792 9.814 3.607a20.08 20.08 0 01-.764 6.989 18.335 18.335 0 01-3.352 6.457c-1.818 2.249-4.22 4.104-7.139 5.52-2.901-1.405-5.288-3.245-7.102-5.475a18.299 18.299 0 01-3.362-6.412 20.165 20.165 0 01-.786-7.079z"/><path fill="url(#e)" d="M20.46 23.85c0-.691.054-1.371.127-2.043v-.148a21.201 21.201 0 011.412-5.554 21.618 21.618 0 015.402-7.806l-.082.022-.2.073a21.574 21.574 0 00-8.609 36.17c.43.13.86.25 1.31.355 2.776.644 5.652.731 8.461.258a20.36 20.36 0 004.839-1.408l.086-.04.047-.022.052-.024c-7.58-3.527-12.974-11.02-12.845-19.833z"/><path fill="url(#f)" d="M39.572 8.381a21.599 21.599 0 00-12.152-.082 21.647 21.647 0 00-5.402 7.807 21.276 21.276 0 00-1.343 5.019c-.026.176-.047.355-.069.534v.088a21.595 21.595 0 0125.555.015l.14.108c.215.168.445.34.66.516a21.676 21.676 0 013.567 3.66c.148.195.292.393.43.591a21.447 21.447 0 013.38 7.387C57.016 22.91 50.53 11.643 39.571 8.38z"/><path fill="url(#g)" d="M50.954 26.646c-.144-.198-.289-.396-.43-.592a21.75 21.75 0 00-3.567-3.66c-.215-.176-.43-.348-.66-.516l-.14-.107c.08.786.116 1.577.111 2.367-.07 8.769-5.49 16.177-12.961 19.554l-.052.024-.047.021-.086.041a20.398 20.398 0 01-4.838 1.408c-2.81.473-5.686.385-8.461-.259-.452-.105-.9-.215-1.341-.355a21.583 21.583 0 0020.966 5.077 21.583 21.583 0 0014.891-15.608 21.424 21.424 0 00-3.385-7.395z"/><path fill="url(#h)" d="M32.097 30.754v3.537c0 .237.193.43.43.43h1.596a.43.43 0 00.43-.43v-3.537a3.127 3.127 0 10-2.473 0h.017z"/><ellipse cx="33.301" cy="21.177" fill="url(#i)" opacity=".05" rx="12.942" ry="9.225"/><ellipse cx="46.269" cy="13.795" fill="url(#j)" opacity=".17" rx="13.564" ry="13.579" transform="rotate(-.36 46.269 13.795)"/><ellipse cx="13.961" cy="23.731" fill="url(#k)" opacity=".2" rx="13.743" ry="13.76" transform="rotate(-.36 13.961 23.73)"/><ellipse cx="41.248" cy="46.728" fill="url(#l)" opacity=".38" rx="13.564" ry="13.579" transform="rotate(-.36 41.248 46.728)"/></g></g></g></svg>