<svg xmlns="http://www.w3.org/2000/svg" width="60" height="60"><g fill="none" fill-rule="evenodd"><rect width="60" height="60" fill="#FF7800" fill-rule="nonzero" rx="10"/><path clip-rule="evenodd" d="M27.98 13.21H28l.05-.02a14.6 14.6 0 01.75-.22c.48-.12.96-.22 1.21-.22.26 0 .77.1 1.28.23a20.78 20.78 0 01.82.22l.05.01h.01l.22-.71-.21.72h.02l.07.02.27.08.96.28a2526.02 2526.02 0 008.96 2.6c1.72.47 2.8 1.8 2.8 3.72v6.48c0 2.6-.38 5.47-.9 7.06-1.67 5.1-6.13 9.66-13.6 13.62-.22.11-.46.17-.75.17-.28 0-.53-.06-.75-.17-7.49-3.97-12.1-8.46-13.56-13.6-.57-2-.96-4.48-.94-7.07a463.84 463.84 0 000-5.84v-.65a3.7 3.7 0 012.85-3.72c.68-.17 3.28-.92 5.7-1.62a2275.98 2275.98 0 004.27-1.25l.29-.08.07-.03h.02l-.2-.72.2.72.03-.01zm4.61-1.43h.03l.06.02.27.08.96.28a2376.85 2376.85 0 008.94 2.6 5.13 5.13 0 013.9 5.16v6.48c0 2.7-.38 5.73-.98 7.53-1.84 5.62-6.68 10.43-14.32 14.48l-.02.01a3.2 3.2 0 01-2.86 0h-.02c-7.62-4.05-12.67-8.8-14.3-14.52a27.14 27.14 0 01-1-7.5c.02-2.48 0-5.92 0-6.42v-.06a5.2 5.2 0 013.98-5.17 2207.38 2207.38 0 008.88-2.56l1.04-.3.28-.08.08-.03h.02l.06-.02a16.86 16.86 0 01.82-.24 7.15 7.15 0 011.59-.27 8 8 0 011.64.27 22.62 22.62 0 01.88.24l.05.01h.02zm.6 11.07h.04a3.4 3.4 0 012.16.97h.01v.01a2.98 2.98 0 01-.07 4.34l-3.73 3.7a.75.75 0 11-1.06-1.07l3.75-3.71.02-.02.02-.02c.33-.29.48-.62.48-1.04 0-.45-.14-.8-.45-1.1a1.9 1.9 0 00-1.18-.55c-.45.03-.83.2-1.17.54l-.23.24a.75.75 0 01-1.06-1.07l.24-.24c.6-.6 1.34-.92 2.18-.97h.04zm-8.95.9a3.03 3.03 0 014.36.06l3.74 3.68a.75.75 0 11-1.05 1.07l-3.75-3.69h-.01l-.01-.02a1.4 1.4 0 00-1.09-.5c-.46 0-.82.15-1.13.46-.35.36-.52.73-.56 1.14.04.43.21.8.55 1.13l.24.24a.75.75 0 01-1.05 1.07l-.24-.24c-.6-.6-.95-1.32-1-2.16v-.09c.06-.82.4-1.54.99-2.14v-.01zm4.72 3.05c.29.3.29.77-.01 1.06l-3.74 3.68c-.34.36-.52.74-.56 1.17.04.42.2.77.49 1.07.35.32.75.49 1.2.52.43-.03.8-.2 1.11-.51l.24-.24a.75.75 0 111.05 1.07l-.24.24c-.58.57-1.3.9-2.11.94h-.09a3.5 3.5 0 01-2.19-.92l-.01-.02-.02-.01a3.22 3.22 0 01-.93-2.09v-.09c.06-.84.4-1.57.99-2.18l.01-.01 3.75-3.69a.75.75 0 011.06 0zm-.7 3.35a.75.75 0 00-1.04 1.08l3.73 3.61c.57.63 1.3.97 2.15 1h.05a3.14 3.14 0 002.17-.92v-.01c.6-.6.94-1.33 1-2.15v-.09a3.13 3.13 0 00-1.01-2.14l-.23-.23a.75.75 0 10-1.06 1.07l.24.24h.01c.33.32.5.67.54 1.1-.04.41-.2.79-.55 1.14-.31.3-.68.47-1.14.48a1.45 1.45 0 01-1.07-.5l-.02-.03-.02-.02-3.75-3.63z" fill="#fff"/></g></svg>