<svg xmlns="http://www.w3.org/2000/svg" xmlns:xlink="http://www.w3.org/1999/xlink" width="56" height="56"><defs><linearGradient id="b" x1="111.801%" x2="0%" y1="99.826%" y2="0%"><stop offset=".087%" stop-color="#E65500"/><stop offset="39.485%" stop-color="#FF7800"/><stop offset="100%" stop-color="#FFA026"/></linearGradient><linearGradient id="d" x1="34.153%" x2="83.134%" y1="32.222%" y2="80.535%"><stop offset="0%" stop-color="#F66000"/><stop offset="100%" stop-color="#F66000" stop-opacity="0"/></linearGradient><rect id="a" width="56" height="56" x="0" y="0" rx="10"/></defs><g fill="none" fill-rule="evenodd"><mask id="c" fill="#fff"><use xlink:href="#a"/></mask><use fill="url(#b)" xlink:href="#a"/><g mask="url(#c)"><rect width="56" height="56" fill="#FF7800" fill-rule="nonzero" rx="6"/><path fill="url(#d)" d="M43.974 11.284c.03.03.058.064.084.098L56 23.324V54.32c0 1.12-.56 1.68-1.68 1.68H24.696l-14.14-14.14a1.285 1.285 0 01-.14-.126 1.087 1.087 0 01-.336-.798 1.05 1.05 0 01.336-.784l5.208-5.194a1.05 1.05 0 01.784-.336l-5.572-5.6a1.006 1.006 0 01-.182-.252 1.041 1.041 0 01-.14-.7c.03-.242.143-.465.322-.63l4.242-4.228c.205-.211.49-.328.784-.322h5.446c.373-.765.854-1.661 1.442-2.688 1.925-3.276 4.03-5.53 6.314-6.762a23.23 23.23 0 017.434-2.45 21.423 21.423 0 016.86-.014c.233.034.449.142.616.308z"/><path fill="#FFF" d="M39.27 38.92v-2.1a1.29 1.29 0 011.26-1.26c.338-.003.662.134.896.378.238.231.37.55.364.882v2.1h2.1c.338-.003.662.134.896.378.238.231.37.55.364.882a1.241 1.241 0 01-1.26 1.26h-2.1v2.1a1.241 1.241 0 01-1.26 1.26 1.2 1.2 0 01-.882-.364 1.23 1.23 0 01-.378-.896v-2.1h-2.1a1.2 1.2 0 01-.882-.364 1.23 1.23 0 01-.378-.896 1.29 1.29 0 011.26-1.26h2.1zm-11.83 2.73l2.716-2.716v-3.766a393.26 393.26 0 01-4.536 2.142l1.82 4.34zm-7.14-3.598c.211.205.328.49.322.784.003.298-.113.585-.322.798l-1.988 1.96c-.213.21-.5.325-.798.322a1.06 1.06 0 01-.784-.322 1.087 1.087 0 01-.336-.798 1.05 1.05 0 01.336-.784l1.988-1.96a1.05 1.05 0 01.784-.336c.301-.003.59.119.798.336zm-2.772-2.31c.003.298-.113.585-.322.798l-5.208 5.194c-.213.21-.5.325-.798.322a1.06 1.06 0 01-.784-.322 1.087 1.087 0 01-.336-.798 1.05 1.05 0 01.336-.784l5.208-5.194a1.05 1.05 0 01.784-.336c.301-.003.59.119.798.336.211.205.328.49.322.784zm2.604-10.626h-3.794l-2.73 2.716 4.312 1.806a153.177 153.177 0 012.212-4.522zm23.842-13.832c.168.166.276.382.308.616.343 2.37.315 4.779-.084 7.14a21.866 21.866 0 01-2.422 7.14c-1.223 2.275-3.44 4.399-6.65 6.37-.672.392-1.582.896-2.73 1.512v5.32c.003.298-.113.585-.322.798l-4.228 4.228a1.182 1.182 0 01-.644.322 1.14 1.14 0 01-.7-.14 1.172 1.172 0 01-.49-.56l-2.8-6.692-5.348-5.32L11.2 29.26a1.016 1.016 0 01-.532-.476 1.041 1.041 0 01-.14-.7c.022-.245.131-.473.308-.644l4.242-4.228c.205-.211.49-.328.784-.322h5.446c.373-.765.854-1.661 1.442-2.688 1.925-3.276 4.03-5.53 6.314-6.762a23.23 23.23 0 017.434-2.45 21.423 21.423 0 016.86-.014c.233.034.449.142.616.308zm-12.922 10.43c-.02.655.234 1.289.7 1.75.47.46 1.107.709 1.764.686a2.37 2.37 0 001.722-.7c.47-.467.731-1.102.728-1.764a2.318 2.318 0 00-.686-1.694v-.014a2.298 2.298 0 00-1.736-.714 2.349 2.349 0 00-1.736.728 2.321 2.321 0 00-.756 1.722zm-2.24 0a4.703 4.703 0 018.022-3.318 4.483 4.483 0 011.372 3.304 4.608 4.608 0 01-1.386 3.332 4.515 4.515 0 01-3.29 1.358 4.537 4.537 0 01-3.36-1.344 4.535 4.535 0 01-1.358-3.332zm1.316-6.314h.014c-1.97 1.12-3.803 3.09-5.502 5.908-.245.401-.954 1.764-2.128 4.088-1.232 2.445-2.128 4.265-2.688 5.46l4.578 4.55c.933-.355 2.623-1.148 5.068-2.38 2.445-1.232 3.808-1.941 4.088-2.128.28-.188.412-.28.42-.28 2.8-1.708 4.746-3.547 5.838-5.516a20.08 20.08 0 002.17-6.44c.314-1.854.38-3.742.196-5.614a19.273 19.273 0 00-5.32.126 21.4 21.4 0 00-6.734 2.226z"/></g></g></svg>