<svg xmlns="http://www.w3.org/2000/svg" xmlns:xlink="http://www.w3.org/1999/xlink" width="56" height="56"><defs><linearGradient id="b" x1="111.801%" x2="0%" y1="99.826%" y2="0%"><stop offset=".087%" stop-color="#E65500"/><stop offset="39.485%" stop-color="#FF7800"/><stop offset="100%" stop-color="#FFA026"/></linearGradient><linearGradient id="d" x1="8.157%" x2="98.466%" y1="8.42%" y2="98.447%"><stop offset="0%" stop-color="#F66000"/><stop offset="100%" stop-color="#F66000" stop-opacity="0"/></linearGradient><rect id="a" width="56" height="56" x="0" y="0" rx="10"/></defs><g fill="none" fill-rule="evenodd"><mask id="c" fill="#fff"><use xlink:href="#a"/></mask><use fill="url(#b)" xlink:href="#a"/><g fill-rule="nonzero" mask="url(#c)"><path fill="#FF7800" d="M54.32 0C55.44 0 56 .56 56 1.68v52.64c0 1.12-.56 1.68-1.68 1.68H1.68C.56 56 0 55.44 0 54.32V1.68C0 .56.56 0 1.68 0h52.64z"/><path fill="url(#d)" d="M42.647 13.353c-.047-.057-.1-.11-.157-.157l-.042-.036a3.129 3.129 0 00-2.033-.77h-.574l-2.47-2.47v.023a1.198 1.198 0 00-.84-.336 1.186 1.186 0 00-1.184 1.184v1.599h-1.305l-2.408-2.408-.061-.062a1.192 1.192 0 00-1.994.871v1.599h-1.344l-2.419-2.433-.02-.02-.02-.022a1.19 1.19 0 00-1.993.871v1.598h-1.285l-2.47-2.47v.023a1.152 1.152 0 00-.84-.336 1.188 1.188 0 00-1.184 1.185v1.598h-2.696a3.08 3.08 0 00-3.08 3.08v2.708H10.64a1.189 1.189 0 00-1.184 1.187c-.002.292.098.575.282.801l.02.02.078.078 2.392 2.391v1.291H10.64a1.189 1.189 0 00-1.184 1.187c.001.284.107.558.296.77.04.04.06.079.098.098l2.392 2.391v1.342H10.64a1.189 1.189 0 00-1.184 1.187c.005.29.11.568.296.79l.02.019.078.078 2.392 2.372v1.302H10.64a1.19 1.19 0 00-.868 1.996l.02.02.008.028 2.43 2.43v.591c.005.78.306 1.528.84 2.095l.06.058.058.06L26.429 56H54.32c1.12-.04 1.68-.594 1.68-1.72V26.707L42.647 13.353z"/><path fill="#FFF" d="M45.097 26.292a1.188 1.188 0 000-2.372h-1.621v-3.396h1.62a1.187 1.187 0 000-2.372h-1.62v-2.704a3.08 3.08 0 00-3.08-3.08h-2.688v-1.602a1.184 1.184 0 00-2.369 0v1.599h-3.4v-1.599a1.184 1.184 0 10-2.368 0v1.599h-3.419v-1.599a1.184 1.184 0 10-2.369 0v1.599h-3.399v-1.599a1.184 1.184 0 10-2.369 0v1.599h-2.707a3.08 3.08 0 00-3.08 3.08v2.705H10.64a1.186 1.186 0 000 2.371h1.602v3.4H10.64a1.186 1.186 0 000 2.371h1.602v3.416H10.64a1.187 1.187 0 000 2.372h1.602v3.396H10.64a1.187 1.187 0 000 2.372h1.602v2.685a3.08 3.08 0 003.08 3.08h2.707v1.618a1.185 1.185 0 102.369 0v-1.618h3.385v1.618a1.185 1.185 0 102.369 0v-1.618h3.419v1.618a1.185 1.185 0 102.369 0v-1.618h3.399v1.618a1.185 1.185 0 102.369 0v-1.618h2.688c1.7 0 3.08-1.38 3.08-3.08v-2.685h1.62a1.188 1.188 0 000-2.372h-1.62V32.08h1.62a1.188 1.188 0 000-2.372h-1.62v-3.416h1.62zm-3.99 14.24a.712.712 0 01-.711.712H15.308a.711.711 0 01-.712-.711V15.448a.71.71 0 01.712-.712h25.088a.709.709 0 01.711.712v25.085z"/><path fill="#FFF" d="M35.24 29.59a7.145 7.145 0 01-2.903 4.268 7.365 7.365 0 01-8.929-.476 7.986 7.986 0 01-1.106-1.204l1.837-1.263-5.53-3.024.02.355a9.363 9.363 0 001.68 5.077 9.17 9.17 0 001.251 1.481 9.547 9.547 0 006.636 2.668 9.55 9.55 0 009.145-6.815l.039-.16-2.072-1.12-.067.213zm.83-7.19a9.286 9.286 0 00-1.246-1.481 9.57 9.57 0 00-15.784 4.107l-.04.16 2.053 1.12.059-.258a7.205 7.205 0 012.929-4.208 7.357 7.357 0 018.926.476c.414.362.79.765 1.12 1.204l-1.837 1.266 5.533 3.02-.036-.366a9.355 9.355 0 00-1.677-5.04z"/></g></g></svg>