<svg xmlns="http://www.w3.org/2000/svg" xmlns:xlink="http://www.w3.org/1999/xlink" width="56" height="56"><defs><linearGradient id="b" x1="111.801%" x2="0%" y1="99.826%" y2="0%"><stop offset=".087%" stop-color="#E65500"/><stop offset="39.485%" stop-color="#FF7800"/><stop offset="100%" stop-color="#FFA026"/></linearGradient><linearGradient id="d" x1="29.749%" x2="82.264%" y1="44.538%" y2="71.159%"><stop offset="0%" stop-color="#F66000"/><stop offset="100%" stop-color="#F66000" stop-opacity="0"/></linearGradient><rect id="a" width="56" height="56" x="0" y="0" rx="10"/></defs><g fill="none" fill-rule="evenodd"><mask id="c" fill="#fff"><use xlink:href="#a"/></mask><use fill="url(#b)" xlink:href="#a"/><rect width="56" height="56" fill="#FF7800" fill-rule="nonzero" mask="url(#c)" rx="1.68"/><g mask="url(#c)"><path fill="url(#d)" d="M16.803 0c.604 0 1.465.182 2.636.538l4.497 1.336L29.8 3.583c.923.295 1.708.781 2.32 1.42l.033.01 14.353 14.354L47 47H21.109L5.814 30.865c-.22-.224-.434-.45-.64-.676l-.62-.654-.033-.094c-1.703-2.038-2.88-4.193-3.524-6.476-.652-2.311-1.016-4.96-.996-7.573.004-.573.007-1.225.008-1.94V11.76L.002 9.139l.004-.466C.104 6.14 1.718 4.129 4.12 3.508c.268-.07.779-.213 1.531-.429L14.264.547C15.362.185 16.192 0 16.803 0z" transform="translate(11 9)"/><path d="M27.797 18.4c2.16 0 3.912 1.775 3.912 3.96 0 2.187-1.752 3.959-3.912 3.959s-3.91-1.772-3.91-3.96c0-2.184 1.75-3.959 3.91-3.959m6.304 17.09c-.392-2.572-1.52-4.744-3.066-6.027a5.287 5.287 0 01-3.355 1.176c-1.206 0-2.333-.4-3.224-1.096-1.494 1.287-2.568 3.429-2.962 5.947-.104.67.42 1.283 1.101 1.283h10.406c.681 0 1.206-.614 1.1-1.283" stroke="#FFF" stroke-linecap="round" stroke-linejoin="round" stroke-width="2"/><path stroke="#FFF" stroke-linecap="round" stroke-linejoin="round" stroke-width="2" d="M43.605 24.4c0 2.649-.375 5.603-.928 7.293-1.732 5.359-6.329 10.045-13.792 14.059-.33.165-.69.248-1.082.248a2.38 2.38 0 01-1.082-.248c-7.464-4.014-12.23-8.63-13.762-14.059-.583-2.068-.979-4.624-.958-7.293.02-2.669 0-6.45 0-6.48 0-2.235 1.37-3.927 3.37-4.444.883-.228 4.285-1.221 10.205-2.98 1.006-.329 1.748-.496 2.227-.496.479 0 1.262.166 2.35.497 5.415 1.613 8.796 2.606 10.143 2.979 2.02.558 3.309 2.178 3.309 4.443V24.4z"/></g></g></svg>