<svg xmlns="http://www.w3.org/2000/svg" xmlns:xlink="http://www.w3.org/1999/xlink" width="56" height="56"><defs><linearGradient id="c" x1="19.89%" x2="97.136%" y1="21.56%" y2="94.458%"><stop offset="0%" stop-color="#F66000"/><stop offset="100%" stop-color="#F66000" stop-opacity="0"/></linearGradient><rect id="a" width="56" height="56" x="0" y="0" rx="10"/></defs><g fill="none" fill-rule="evenodd"><mask id="b" fill="#fff"><use xlink:href="#a"/></mask><use fill="#FF7800" fill-rule="nonzero" xlink:href="#a"/><g fill-rule="nonzero" mask="url(#b)"><path fill="#FF7800" d="M54.32 0C55.44 0 56 .56 56 1.68v52.64c0 1.12-.56 1.68-1.68 1.68H1.68C.56 56 0 55.44 0 54.32V1.68C0 .56.56 0 1.68 0h52.64z"/><path fill="url(#c)" d="M37.453 11.76h-.02a3.756 3.756 0 00-.347-.344c-2.598-2.24-5.27-.773-7.034.193-.739.4-1.5.817-1.943.817h-.218c-.443 0-1.204-.417-1.943-.817-1.764-.966-4.436-2.422-7.034-.193-1.705 1.464-2.436 4.964-2.73 8.285-4.096.84-8.68 2.47-8.68 5.449.02.788.34 1.538.896 2.097.118.129.24.255.378.378l7.378 7.389a6.427 6.427 0 00-1.99 1.21l-.354.347v.756c0 1.481 0 3.511.798 5.205a5.44 5.44 0 001.028 1.49L27.605 56H54.32c1.14 0 1.68-.56 1.68-1.72V30.314L37.453 11.76z"/><path fill="#FFF" d="M42.188 36.57l-.353-.346c-.216-.213-2.24-2.072-6.804-2.072-1.611.003-3.2.372-4.648 1.078-.84.364-1.507.652-2.383.652-.876 0-1.54-.28-2.383-.652a10.646 10.646 0 00-4.648-1.07c-4.57 0-6.588 1.86-6.804 2.072l-.353.347v.756c0 1.481 0 3.511.798 5.205 1.014 2.137 2.994 3.22 5.88 3.22 2.887 0 4.95-1.089 5.99-3.24.672-1.4.792-2.976.814-4.303.466.051.935.051 1.4 0 .056 2.898.636 7.543 6.804 7.543 2.896 0 4.875-1.083 5.88-3.22.801-1.694.801-3.724.798-5.205l.012-.764zm-21.69 6.83c-2.567 0-3.36-1.067-3.748-1.868-.53-1.12-.56-2.6-.56-3.866.638-.41 2.147-1.134 4.79-1.134 1.68 0 2.66.428 3.708.882l.28.114c-.048 3.324-.412 5.872-4.47 5.872zm18.76-1.868c-.377.801-1.18 1.868-3.748 1.868-2.635 0-3.464-1.086-3.859-1.901-.56-1.17-.582-2.705-.585-3.97l.28-.115c1.047-.454 2.038-.882 3.707-.882 2.649 0 4.161.728 4.791 1.12-.025 1.268-.064 2.752-.594 3.866l.009.014zm.558-21.832c-.28-3.32-1.025-6.814-2.73-8.276-2.598-2.24-5.27-.773-7.034.193-.739.4-1.5.818-1.943.818h-.218c-.443 0-1.204-.417-1.943-.818-1.764-.966-4.436-2.422-7.034-.193-1.705 1.456-2.436 4.956-2.73 8.277-4.096.84-8.68 2.47-8.68 5.449 0 2.072 2.192 3.732 6.518 4.933C17.77 31.125 22.728 31.7 27.99 31.7c5.261 0 10.22-.56 13.966-1.616 4.326-1.201 6.519-2.861 6.519-4.933.01-2.98-4.567-4.598-8.658-5.45zM28 29.334c-11.724 0-18.119-2.764-18.119-4.183 0-.44 1.17-1.868 6.16-2.996a46.016 46.016 0 000 3.36c.783.254 1.58.462 2.386.624-.177-4.65.327-11.452 2.05-12.93 1.293-1.12 2.5-.544 4.359.473 1.044.56 2.03 1.12 3.08 1.12h.218c1.048 0 2.033-.538 3.08-1.12 1.86-1.017 3.08-1.582 4.36-.473.454.392 1.554 1.884 1.943 7.316a58.56 58.56 0 01.104 5.6c.808-.16 1.606-.368 2.388-.624.023-.877.031-2.056 0-3.36 4.984 1.12 6.16 2.556 6.16 2.996-.05 1.433-6.445 4.197-18.169 4.197z"/></g></g></svg>