<svg height="80" width="80" xmlns="http://www.w3.org/2000/svg"><path d="M52.258 24.586C66.475 24.586 78 36.096 78 50.293 78 64.491 66.475 76 52.258 76c-10.268 0-19.133-6.005-23.264-14.69H4.452A2.452 2.452 0 012 58.86v-7.34a2.452 2.452 0 012.452-2.452h22.093a25.541 25.541 0 012.45-9.794H4.451A2.452 2.452 0 012 36.826v-7.339a2.452 2.452 0 012.452-2.452h36.83a25.672 25.672 0 0110.976-2.448zm0 2.448c-12.863 0-23.29 10.414-23.29 23.26 0 12.844 10.427 23.258 23.29 23.258s23.29-10.414 23.29-23.259-10.427-23.259-23.29-23.259zM60.838 5a2.452 2.452 0 012.452 2.452v7.338a2.452 2.452 0 01-2.452 2.451H4.452A2.452 2.452 0 012 14.79V7.452A2.452 2.452 0 014.452 5zm-4.902 3.672a2.45 2.45 0 00-2.452 2.449 2.45 2.45 0 002.452 2.448 2.45 2.45 0 002.451-2.448 2.45 2.45 0 00-2.451-2.449zm8.335 43.09v11.752l-13.729-2.155v-9.597zm-15.69 0v9.304l-9.807-1.548v-7.756zm0-11.262v9.303h-9.807v-7.756zm15.69-2.448v11.751H50.542v-9.597z" fill="#a8a4c3" fill-rule="evenodd"/></svg>