<svg height="80" width="80" xmlns="http://www.w3.org/2000/svg"><path d="M55.025 77.979c2.382-.176 4.569-1.29 6.559-3.342l.737-.813c.893-1.187 2.68-2.375 5.36-3.562.993-.593 1.738-.99 2.234-1.187 1.29-.791 1.986-1.731 2.085-2.82h-.149c.1-1.088-.645-2.522-2.234-4.303-.297-.396-.645-1.336-1.042-2.82v-.148c-.397-1.682-.943-2.77-1.638-3.265l-.595-.445-.596-.297c1.29-3.66 1.142-7.568-.447-11.723-1.39-3.462-3.722-7.172-6.998-11.13l-.15-.148c-1.588-2.078-2.73-3.66-3.424-4.749-.827-1.566-1.276-3.167-1.344-4.802l.004-1.727c0-3.463-.1-6.134-.298-8.013-.497-3.166-1.49-5.64-2.978-7.42C48.225 3.088 45.544 2 42.07 2c-3.971 0-6.95 1.039-8.935 3.116-1.588 1.583-2.531 3.859-2.829 6.827-.198 1.78-.198 4.204 0 7.27.1 1.386.149 2.326.149 2.82-.1 1.88-.397 3.513-.893 4.898-.497 1.582-1.34 3.165-2.532 4.748-4.269 5.046-7.147 9.844-8.636 14.395-.993 2.869-1.291 5.49-.894 7.865-.397.296-.893.89-1.489 1.78l-.893 1.188c-.397.395-1.142.742-2.234 1.038l-.447.149c-1.29.494-2.184 1.236-2.68 2.226-.298.494-.447 1.088-.447 1.78 0 .396.05.99.15 1.781l.148.297c.199 1.385.199 2.325 0 2.82-.695 2.077-.794 3.61-.298 4.6.497.99 1.49 1.632 2.978 1.929.596.099 1.49.198 2.68.297 2.52.346 4.393.768 5.62 1.266l.486.218c3.077 1.681 5.857 2.226 8.339 1.632 1.886-.396 3.176-1.385 3.871-2.968.596 0 1.539-.148 2.83-.445 1.786-.297 3.275-.495 4.467-.594.595-.099 1.737 0 3.425.297 1.985.297 3.573.396 4.765.297.099.396.198.742.297 1.039.596 1.187 1.44 2.077 2.532 2.67 1.092.594 2.233.842 3.425.743zm-8.786-57.133c-.298-.198-.893-.445-1.787-.742l.596-.593a4.102 4.102 0 000-2.671c-.298-.89-.745-1.36-1.34-1.41-.596-.05-1.092.297-1.49 1.039-.396.742-.496 1.558-.297 2.448-.497-.297-1.142-.544-1.936-.742-.199-1.088-.05-2.176.447-3.265.695-1.582 1.762-2.374 3.201-2.374s2.556.792 3.35 2.374c.398.99.547 2.053.447 3.191-.099 1.138-.496 2.053-1.19 2.745zm-13.104.149c-.794-.693-1.265-1.657-1.414-2.894-.15-1.237.025-2.35.52-3.339.497-.99 1.167-1.484 2.011-1.484.844 0 1.564.47 2.16 1.41.595.94.843 2.102.744 3.487-.596.198-1.092.445-1.49.742.1-.692 0-1.36-.297-2.003s-.72-.94-1.266-.89-.844.618-.893 1.706c-.05 1.088.223 1.88.819 2.374v.149l-.373.297a7.016 7.016 0 00-.52.445zm5.212 7.865c-.596 0-1.117-.1-1.563-.297s-.968-.569-1.564-1.113c-.596-.544-1.042-.915-1.34-1.113-1.191-.693-1.936-1.435-2.234-2.226-.198-.791 0-1.434.596-1.93l2.382-1.631c1.29-1.287 2.557-1.93 3.798-1.93s2.556.446 3.946 1.336c.397.198.943.445 1.638.742l1.786.593c1.49.594 2.01 1.51 1.564 2.746s-1.564 2.102-3.35 2.597c-.398.198-.968.52-1.713.964a27.89 27.89 0 01-1.712.965 4.25 4.25 0 01-2.234.297zm-.149-2.226c1.092 0 2.63-.495 4.616-1.484.794-.396 1.539-.915 2.234-1.558s.844-.965.447-.965c-.1-.099-.224-.025-.373.223-.149.247-.322.42-.52.519l-.448.297c-.694.593-1.24.94-1.638 1.039-1.786 1.088-3.276 1.632-4.467 1.632s-2.382-.495-3.574-1.484l-1.19-1.039-.15-.297c-.198-.296-.372-.445-.52-.445-.15 0-.2.124-.15.371.05.248.174.47.373.668h.148l1.043 1.039c1.39.99 2.78 1.484 4.17 1.484zM32.54 68.036c-.397-.791-1.092-1.78-2.085-2.968 1.29 0 2.11-.47 2.457-1.41s-.025-2.151-1.117-3.635c-.794-1.088-1.985-2.226-3.574-3.413l-2.084-1.336c-1.886-1.187-3.127-2.67-3.723-4.452-.496-1.583-.496-3.314 0-5.194.496-2.374 1.837-5.342 4.02-8.903.398-.297 0 .742-1.19 3.116-.993 1.88-1.639 3.71-1.937 5.49-.397 2.672.1 4.947 1.49 6.827.099-3.067.794-6.134 2.084-9.2l1.043-2.375c1.39-2.968 2.382-5.293 2.978-6.975 1.092-2.869 1.687-5.342 1.787-7.42l.893.743c.298.098.695.395 1.191.89l.745.594c.893.692 1.886 1.038 2.978 1.038s2.184-.297 3.276-.89l.893-.594c.695-.395 1.192-.643 1.49-.742 1.488-.494 2.58-1.236 3.275-2.226.596 2.177 1.49 4.7 2.68 7.569.993 2.77 1.986 4.996 2.979 6.677 1.787 3.265 2.928 6.43 3.425 9.498.496 0 1.042.099 1.638.297.893-2.375.794-4.947-.298-7.717-.794-2.078-1.837-3.71-3.127-4.897-.695-.693-.844-1.039-.447-1.039 1.092.99 2.085 2.226 2.978 3.71 1.092 1.682 1.862 3.413 2.308 5.194s.472 3.512.075 5.194c3.673 1.484 5.211 3.215 4.616 5.194h-.745c.298-.792.174-1.484-.372-2.078s-1.563-1.187-3.053-1.78c-3.474-1.584-5.36-.99-5.658 1.78-1.588.594-2.63 1.979-3.127 4.155-.298 1.088-.546 3.018-.745 5.788 0 .791-.297 2.176-.893 4.155v.148c-2.68 1.88-5.41 2.968-8.19 3.265-3.276.396-6.254-.297-8.934-2.078zm17.422 6.085c-.497-1.287-.447-3.067.149-5.343l.595-1.929c.596-1.979.894-3.364.894-4.155.198-2.77.397-4.7.595-5.787.397-1.583 1.092-2.622 2.085-3.117h.149c.1.99.397 1.905.893 2.746.497.84 1.167 1.36 2.01 1.558.844.198 1.837.024 2.979-.52 1.141-.544 2.01-1.162 2.606-1.855h.297c.795-.099 1.415-.099 1.862 0 .447.1.893.347 1.34.742.372.33.71 1.072 1.013 2.226l.178.742c.348 1.583.77 2.622 1.266 3.117v.148c1.39 1.484 2.085 2.671 2.085 3.562-.1.593-.497 1.137-1.192 1.632-.397.297-1.24.742-2.531 1.335-1.29.594-2.283 1.138-2.978 1.633-1.092.692-1.986 1.484-2.68 2.374-1.986 2.276-4.145 3.512-6.478 3.71s-4.045-.742-5.137-2.82zm-28.441.296c-1.39-.692-3.574-1.187-6.552-1.484-1.49-.198-2.482-.395-2.978-.593-.894-.198-1.49-.544-1.787-1.039-.397-.791-.249-2.127.446-4.007.199-.692.15-1.731-.149-3.116v-.445c-.198-1.385-.124-2.4.224-3.042s1.067-1.163 2.159-1.559l.596-.296c.893-.297 1.638-.693 2.233-1.187.298-.297.695-.792 1.191-1.484l1.043-1.188c.695-.89 1.588-1.236 2.68-1.038s2.134.989 3.127 2.374l2.978 5.342c.298.693 1.142 1.88 2.532 3.562a208.415 208.415 0 012.531 3.413c.794 1.286 1.142 2.325 1.043 3.116-.199 2.473-1.54 3.908-4.021 4.304-2.283.296-4.715-.248-7.296-1.633z" fill="#a8a4c3" fill-rule="evenodd"/></svg>