<svg height="80" width="80" xmlns="http://www.w3.org/2000/svg"><g fill="none" fill-rule="evenodd"><path d="M21 26h38a18.695 18.695 0 00-5.5-12.85 18.24 18.24 0 00-3.583-2.822l3.836-5.905a.998.998 0 00-.257-1.284.988.988 0 00-1.278.257c-2.569 4.012-3.847 6.065-3.836 6.16a18.018 18.018 0 00-8.317-1.927 19.54 19.54 0 00-8.187 1.8c0-.085-1.285-2.098-3.853-6.04a.988.988 0 00-1.279-.257.998.998 0 00-.246 1.29l3.836 5.91a25.774 25.774 0 00-3.71 2.821C23.147 16.476 21.123 21.178 21 26zm11.149-9.151c.254.255.38.612.345.971a.99.99 0 01-.416.832c-.234.244-.563.37-.9.347a.985.985 0 01-.83-.417 1.145 1.145 0 01-.345-.903 1.12 1.12 0 01.416-.903 1.48 1.48 0 01.831-.272c.329.008.646.13.899.345zm18 0c.254.255.38.612.345.971a.99.99 0 01-.416.832c-.234.244-.563.37-.9.347a.985.985 0 01-.83-.417 1.145 1.145 0 01-.345-.903 1.12 1.12 0 01.416-.903 1.48 1.48 0 01.831-.272c.329.008.646.13.899.345zM14.5 27a4.5 4.5 0 014.5 4.5v19a4.5 4.5 0 11-9 0v-19a4.5 4.5 0 014.5-4.5zm51 0a4.5 4.5 0 014.5 4.5v19a4.5 4.5 0 11-9 0v-19a4.5 4.5 0 014.5-4.5zM59 28v29a5 5 0 01-5 5h-2v9.5a4.5 4.5 0 11-9 0V62h-6v9.5a4.5 4.5 0 11-9 0V62h-2a5 5 0 01-5-5V28z" fill="#fff"/><path d="M21 26h38a18.695 18.695 0 00-5.5-12.85 18.24 18.24 0 00-3.583-2.822l3.836-5.905a.998.998 0 00-.257-1.284.988.988 0 00-1.278.257c-2.569 4.012-3.847 6.065-3.836 6.16a18.018 18.018 0 00-8.317-1.927 19.54 19.54 0 00-8.187 1.8c0-.085-1.285-2.098-3.853-6.04a.988.988 0 00-1.279-.257.998.998 0 00-.246 1.29l3.836 5.91a25.774 25.774 0 00-3.71 2.821C23.147 16.476 21.123 21.178 21 26zm11.149-9.151c.254.255.38.612.345.971a.99.99 0 01-.416.832c-.234.244-.563.37-.9.347a.985.985 0 01-.83-.417 1.145 1.145 0 01-.345-.903 1.12 1.12 0 01.416-.903 1.48 1.48 0 01.831-.272c.329.008.646.13.899.345zm18 0c.254.255.38.612.345.971a.99.99 0 01-.416.832c-.234.244-.563.37-.9.347a.985.985 0 01-.83-.417 1.145 1.145 0 01-.345-.903 1.12 1.12 0 01.416-.903 1.48 1.48 0 01.831-.272c.329.008.646.13.899.345zM14.5 27a4.5 4.5 0 014.5 4.5v19a4.5 4.5 0 11-9 0v-19a4.5 4.5 0 014.5-4.5zm51 0a4.5 4.5 0 014.5 4.5v19a4.5 4.5 0 11-9 0v-19a4.5 4.5 0 014.5-4.5zM59 28v29a5 5 0 01-5 5h-2v9.5a4.5 4.5 0 11-9 0V62h-6v9.5a4.5 4.5 0 11-9 0V62h-2a5 5 0 01-5-5V28z" fill="#a8a4c3"/></g></svg>