<svg height="80" width="80" xmlns="http://www.w3.org/2000/svg"><path d="M25 5h30c11.046 0 20 8.954 20 20v30c0 11.046-8.954 20-20 20H25C13.954 75 5 66.046 5 55V25C5 13.954 13.954 5 25 5zm-2.48 28.162c-.812 0-1.52-.687-1.52-1.567 0-.88.708-1.595 1.52-1.595.839 0 1.52.715 1.52 1.595s-.681 1.567-1.52 1.567zM21.367 48.67V35.39h2.359v13.28zm5.425-9.156c0-5.445 3.591-9.487 8.807-9.487s8.806 4.042 8.806 9.487c0 5.444-3.59 9.486-8.806 9.486s-8.807-4.042-8.807-9.486zm14.914 0c0-4.042-2.412-7.04-6.107-7.04-3.748 0-6.107 2.998-6.107 7.04 0 4.014 2.359 7.039 6.107 7.039 3.695 0 6.107-3.025 6.107-7.04zm4.796 6.571l1.494-2.117c1.18 1.375 3.066 2.585 5.504 2.585 2.83 0 3.827-1.512 3.827-2.832 0-1.925-1.992-2.475-4.22-3.08-2.805-.77-6.055-1.622-6.055-5.362 0-3.024 2.543-5.224 6.186-5.224 2.7 0 4.822.907 6.369 2.557l-1.52 2.035c-1.337-1.485-3.172-2.145-5.059-2.145-1.94 0-3.276 1.045-3.276 2.585 0 1.65 1.887 2.172 4.063 2.75C56.67 38.633 60 39.568 60 43.472 60 46.333 58.113 49 53.395 49c-3.119 0-5.399-1.182-6.893-2.915z" fill="#a8a4c3" fill-rule="evenodd"/></svg>