<svg xmlns="http://www.w3.org/2000/svg" width="80" height="80"><path fill="none" stroke="#FF7800" stroke-linecap="round" stroke-linejoin="round" stroke-width="1.5" d="M48.9 60.35h6.15-6.15zm-6.149-4.7h-12.75l-1.101-1.1H2v.1c.034.9.383 1.683 1.05 2.35.6.633 1.4.983 2.4 1.05h37.301v-2.4zm18.149 4.7h13.45H60.9zm8.55-33.2c-.48-2.1-2.029-3.15-4.65-3.15H50.3c-3.133 0-4.7 1.567-4.7 4.7v31.2c0 3.134 1.567 4.7 4.7 4.7h6.05m7.25-43.4v-1.5c0-3.133-1.599-4.7-4.8-4.7H15.3c-3.133 0-4.7 1.567-4.7 4.7v31.95M72.8 30H62.3c-3.133 0-4.7 1.567-4.7 4.7v25.65c.15 2.745 1.624 4.162 4.425 4.25H72.8c3.201 0 4.8-1.566 4.8-4.7V34.7c0-3.133-1.599-4.7-4.8-4.7z"/></svg>