<svg xmlns="http://www.w3.org/2000/svg" width="80" height="1200"><path fill="#4e22d0" d="M31.1 69c-.2 0-.5-.1-.6-.3l-3-4.5c-2.7.5-5.4.2-8-.7l-1-.4c-.1 0-.1 0-.2-.1l-3.6 3.3c-.2.2-.6.3-.9.1-.3-.2-.4-.5-.3-.8l1.3-4.8h-.1c-1.8-1.4-3.2-3.2-4.2-5.3l-.6-1.2-4.1.1c-.3 0-.6-.2-.7-.5-.1-.3 0-.7.3-.8l3.6-2c-.4-2.5-.1-5 .7-7.4.1 0 .1-.1.1-.2L5.5 40c-.2-.2-.3-.6-.2-.9.1-.3.5-.5.8-.5l5.7.7c.9-1.3 2-2.4 3.3-3.3l-1.3-4.4c-.1-.3 0-.7.3-.9.3-.2.7-.1.9.1l3.5 3.2c1.2-.5 2.5-.9 3.8-1.2l1.2-4.8c.1-.3.4-.6.7-.6.3 0 .6.2.7.5l1.6 4.9c.7.1 1.4.2 2.1.4.5.1.9.2 1.4.4l.3.1 2.9-2.6c.3-.2.7-.2 1 0 .3.2.3.6.2.8l-1.1 3.3c1.6 1 3 2.2 4.1 3.6l6.7-1.2c.3-.1.7.1.8.4.2.3.1.7-.2.9l-5 4.3c.7 1.8 1 3.6.9 5.5l5.4 3c.3.2.4.5.3.8-.1.3-.4.5-.7.5h-5.7c-.1.1-.1.3-.1.4-.4 1.2-1 2.3-1.7 3.3l3 4.9c.2.3.2.6 0 .9-.2.3-.6.4-.9.2l-4.9-2.6c-1.1 1-2.3 1.8-3.7 2.3l.3 5.4c0 .3-.2.6-.5.8-.1.4-.2.4-.3.4zm-2.6-6l1.7 2.6-.2-3.2-.1-3.2c-.2-.4-.5-.8-.9-1-.4-.2-.8-.2-1.2 0-.4.2-.8.4-1.1.8-.2.3-.2.7-.1 1.1l1.9 2.9zm-17-8.8l.3.6c.9 1.9 2.2 3.6 3.9 4.9l.3.3c.3.2.4.5.3.8l-.7 2.8 2.1-2c.3-.2.6-.2.9-.1.2.1.3.2.5.3l.9.4c2.1.7 4.4 1 6.6.7l-1.3-2s-.1-.1-.1-.2c-.3-.8-.2-1.6.2-2.4.4-.7 1.1-1.3 1.9-1.5.8-.3 1.7-.3 2.4.1s1.3 1 1.6 1.8c.1.1.1.2.1.3l.1 2.3c1.2-.5 2.2-1.3 3.1-2.2.2-.2.6-.3.9-.1l3 1.6-1.9-3.1c-.2-.3-.2-.6 0-.8.8-1 1.3-2.1 1.7-3.2.1-.3.2-.6.3-1 .1-.3.4-.5.7-.5h3.4l-3.2-2c-.3-.1-.4-.4-.4-.7.1-1.6-.1-3.3-.6-4.8l-.3.3c-.1 0-.1.1-.1.1-.8.4-1.7.5-2.5.2h-.1c-.7-.3-1.2-.8-1.6-1.5-.4-.7-.5-1.6-.2-2.4V41c.4-.6 1-1.1 1.6-1.5.1 0 .1-.1.2-.1h.2c-1-1.2-2.2-2.2-3.6-3-.4-.1-.5-.5-.4-.9l.5-1.3-1.3 1.1c-.3.2-.6.2-.9.1-.2-.1-.3-.2-.5-.2l-1.2-.3c-.8-.2-1.6-.3-2.4-.4-.3 0-.6-.2-.6-.5l-1-2.8-.6 2.7c-.1.3-.3.5-.6.6-1.2.2-2.3.5-3.4 1l2.1 1.9c0 .1.1.1.1.2.4.7.5 1.6.4 2.4-.2.9-.8 1.6-1.6 1.9-.7.5-1.5.6-2.3.4-.8-.1-1.5-.6-2-1.2 0-.1-.1-.2-.1-.2l-.7-2.9c-1.1.8-2 1.8-2.8 3-.1.3-.4.4-.7.3l-3.5-.4 2.6 1.9c.3.2.4.6.2.9-.1.2-.2.5-.3.7-.7 1.9-.9 3.9-.7 5.9l2.4-1.5c.1 0 .1-.1.2-.1.8-.3 1.7-.2 2.4.2.7.3 1.2 1 1.4 1.8.2.7.1 1.5-.2 2.2-.4.7-1 1.3-1.8 1.5h-.2l-3.1-.2zm-1.3-2.3l-1.5.8h5.8c.3-.2.6-.4.7-.7.2-.4.3-.8.2-1.2-.1-.3-.4-.6-.7-.8-.3-.2-.7-.3-1.1-.2l-3.4 2.1zm25.9-8.3c.4.1.8.1 1.2-.1l1-.9h.1l3.3-2.8-5.8 1.1c-.3.2-.6.5-.8.8-.1.3-.1.7.1 1.1.2.4.5.6.9.8zm-18.4-3.5c.3.3.6.5 1 .5h.1c.4.1.8.1 1.1-.2.1 0 .1-.1.2-.1.4-.1.6-.4.7-.8.1-.4 0-.9-.2-1.3l-2.8-2.6L16 34l.7 2.2 1 3.9zm31.5 28.1c-.8 0-1.5-.1-2.2-.4-1.8-1-3.6-2-5.2-3.1-.3-.2-.4-.7-.2-1.1.2-.3.7-.4 1.1-.2 1.6 1.1 3.3 2.1 5 3 .5.2 1 .3 1.5.3.4 0 .8-.1 1.2-.3C62 60.2 69.3 52.9 72 44.7c1-3.5 1.5-7.1 1.5-10.7V22.8c0-1.3-.5-2.5-1.3-3.4-.9-1.2-2.2-2-3.6-2.4l-16.1-4.6c-1.1-.4-2.2-.7-3.3-.9-1.2.1-2.4.4-3.6.9L29.7 17c-1.4.4-2.7 1.2-3.7 2.4-.8 1-1.2 2.2-1.1 3.5v2.7c0 .4-.4.8-.8.8s-.7-.3-.7-.7V23c-.1-1.6.4-3.1 1.4-4.4 1.2-1.4 2.7-2.4 4.4-2.9l16-4.6c1.3-.5 2.6-.8 4-.9 1.3.1 2.6.5 3.8.9l16 4.6c1.7.5 3.3 1.5 4.4 2.9 1.1 1.2 1.6 2.8 1.6 4.4v11c0 3.8-.5 7.5-1.5 11.1-2.9 8.6-10.5 16.3-22.4 22.7-.6.3-1.2.4-1.9.4zM24.9 50.7h-.2c-.7-.1-1.4-.4-1.8-1-.5-.5-.7-1.2-.7-1.9.1-.7.4-1.4 1-1.8.5-.5 1.3-.7 2-.6.7.1 1.3.4 1.7.9.5.5.7 1.2.7 1.9-.1.7-.4 1.4-.9 1.8-.5.5-1.1.7-1.8.7zm-.1-3.8c-.2 0-.4.1-.6.2-.3.2-.5.5-.5.8-.1.7.4 1.2 1.1 1.3.3 0 .7-.1.9-.3.2-.2.3-.5.4-.8 0-.3-.1-.6-.3-.8-.2-.2-.5-.4-.8-.4h-.2zm1 94.3c-.1 0-.3 0-.4-.1l-4-2.6c0-.1-.1-.2-.2-.2l-7.6-10.9-.2-.2-1.2-4.1-3.6-3.7c0-.1-.1-.2-.1-.3l-2.2-6.5c-.1-.4.1-.8.5-.9.4-.1.7.1.9.4v.1l2.1 6.4 1.7 1.8-.4-2c-.1-.2 0-.4.1-.6l5.2-8.6c.1-.1.2-.2.4-.3l2.5-.8v-3l-4.2-2.4c-.2-.1-.3-.3-.4-.5 0-.2.1-.4.2-.6l1.5-1.7c.2-.2.5-.3.8-.2l3.1 1.1 1-4.4-4.7-.4c-.4-.1-.7-.4-.7-.8.1-.4.4-.7.8-.7l5.6.5c.2 0 .4.1.5.3.1.2.2.4.1.6l-1.3 6c-.1.2-.2.4-.4.5-.2.1-.4.1-.6.1l-3.4-1.2-.6.6 3.8 2.1c.3.1.4.4.4.7v4c0 .3-.2.6-.5.7l-2.7.9-5 8.1.7 2.8.6-.7c.2-.3.6-.3.9-.2l9.5 5.3c.2.1.4.4.4.6l.1 4.4v.2l-1.3 4 2.9 5.2c.2.3.2.7-.1.9-.1.2-.3.3-.5.3zm-3.4-3.9l1.2.8-1.6-2.8c-.1-.2-.1-.4-.1-.6l1.4-4.2-.1-3.8-8.6-4.8-.9 1.1 1.1 3.7 7.6 10.6zm17-.9l-1.4-.2c-.3 0-.6-.2-.7-.5L34 125l-2.6.6c-.2.1-.4 0-.6-.2l-4.1-3.4c-.3-.2-.3-.7-.1-1l2.8-4.3c0-.2.1-.3.3-.3l5.4-2.5c.2-.1.4-.1.6 0 .2.1.3.2.4.4l.5 1.3 4.5.3c.2 0 .4.1.5.2l3.7 4c.3.3.2.8-.1 1-.3.3-.7.3-1 0l-3.5-3.8-4.7-.3c-.3 0-.6-.2-.7-.5l-.3-1-4.5 2.1-2.3 3.6 3.2 2.8 3-.7c.4-.1.7.2.9.5l3.3 11 .5.1 2.6-2.8c.2-.3.7-.3 1-.1.3.3.4.7.1 1l-2.8 3c-.2.4-.4.4-.6.4zm8.8-15.9c-.2 0-.4-.1-.5-.2l-5-4.9c-.2-.2-.3-.5-.2-.8l.4-.8-2.4-1.7h-3.1c-.1 0-.3 0-.4-.1l-1.4-.8-4.3 2.6c-.2.1-.5.1-.7 0-.2-.1-.4-.3-.4-.6l-.3-2.6c0-.2 0-.4.1-.5l1-1.4c.1-.1.2-.2.3-.2l3.3-1.5.7-1.5c0-.2.2-.4.4-.4.2-.1.4-.1.6.1l1.8 1 1.7-2.8-1-.7-1 1.4c-.2.3-.6.4-.9.2l-2.7-1.5c-.2-.1-.4-.3-.4-.6 0-.2 0-.5.2-.6l4.1-3.8c.2-.2.5-.3.8-.2l3.1 1.2 1.6-.7 2.4-6.8c.2-.4.6-.6 1-.5.4.1.6.5.4.8v.1l-2.5 7.1c0 .2-.2.4-.4.4l-2.2.9c-.2.1-.4.1-.6 0l-3-1.2-2.9 2.8 1.2.7 1-1.4c.1-.2.3-.3.5-.3s.4 0 .6.1l2.1 1.6c.3.2.4.7.2 1l-2.3 4c-.2.3-.6.5-1 .3l-1.8-1-.5 1c-.1.2-.2.3-.4.4l-3.3 1.5-.7 1 .2 1.2 3.7-2.2c.2-.1.5-.1.7 0l1.6.9h3.2c.1 0 .3.1.4.1l3.1 2.2c.2.2.3.6.2.9l-.4.9 4.2 4.2 3.5-2.3c.2-.1.4-.1.6-.1.2.1.4.2.5.4l.6 1.2c.2.4 0 .8-.3 1h-.1c-.4.2-.8 0-1-.3l-.2-.5-3.3 2.1c-.1.1-.3.2-.4.2zm-19.8-12.6c-.2 0-.4-.1-.5-.2-.3-.3-.3-.7 0-1l2.8-2.6c.3-.3.8-.3 1.1 0 .3.3.3.7 0 .9l-.1.1-2.7 2.6c-.2.1-.4.2-.6.2zm-3-7c-.1 0-.3 0-.4-.1-.3-.1-.4-.4-.3-.7l.9-6.5-3.5-1.3c-.4-.2-.5-.6-.4-1 .2-.4.6-.6 1-.4l4 1.5c.3.1.5.5.5.8l-.8 5.7 3.8-2 2.3-5.1-1.9-2.4c-.3-.3-.2-.8.1-1 .3-.3.8-.2 1.1.1l2.1 2.7c.2.2.2.5.1.8l-2.6 5.7c0 .2-.2.3-.3.4l-5.4 2.8c-.1-.1-.2 0-.3 0zm9.3 44.5c-15.9-.1-28.7-13-28.7-28.8 0-15.9 12.9-28.7 28.8-28.7s28.7 12.9 28.7 28.8v1.5c0 .4-.4.7-.8.7s-.7-.4-.7-.8v-1.4c0-15-12.1-27.2-27.1-27.2h-.2c-14.9-.1-27.1 11.9-27.2 26.7v.4c0 15 12.1 27.2 27.1 27.2h.1c3.3 0 6.6-.5 9.7-1.6.4-.1.8.1.9.4.2.3 0 .7-.3.9h-.1c-3.3 1.3-6.7 1.9-10.2 1.9zm23.8 6.6c-.5 0-1-.1-1.4-.3-6.6-3.6-10.8-7.9-12.3-12.7-.6-2-.9-4.1-.9-6.3v-6.2c0-1 .3-1.9.9-2.7.7-.8 1.6-1.4 2.6-1.7l8.7-2.6c.8-.3 1.6-.4 2.4-.5.7.1 1.4.2 2.1.5l8.9 2.6c1 .3 1.9.9 2.5 1.7.6.7 1 1.7 1 2.6v6.2c0 2.1-.3 4.2-.8 6.2-1.7 4.9-5.9 9.2-12.5 12.8-.4.3-.8.4-1.2.4zm0-31.4c-.6.1-1.3.2-1.9.4l-8.8 2.6c-.7.2-1.3.6-1.8 1.2-.4.5-.6 1.1-.6 1.7v6.2c0 2 .3 3.9.8 5.8 1.4 4.4 5.3 8.4 11.6 11.9.4.2.8.1 1.2 0 6.3-3.4 10.2-7.4 11.7-11.9.5-1.9.8-3.8.8-5.8v-6.2c0-.6-.2-1.2-.6-1.7-.5-.6-1.1-1.1-1.9-1.2l-8.8-2.6c-.6-.2-1.1-.3-1.7-.4zm-18 106.3c-.7-.1-1.2-.3-1.6-.7-2.9-2.8-5.5-5.8-8-9-1-1.6-.4-2.6.1-3 2-2 4.6-3.3 7.4-3.8.4 0 .8.2.9.6.1.4-.2.8-.6.9-2.5.4-4.9 1.6-6.7 3.4-.1.1-.3.4.1 1.1 2.5 3 5.1 5.9 7.8 8.7l.6.3.6-.3c1.3-1.3 2.4-2.5 3.4-3.6.3-.3.8-.3 1.1-.1.3.3.3.8 0 1.1-1 1.1-2.2 2.3-3.5 3.7-.4.4-.9.6-1.6.7zm27.4 0s-.1 0 0 0c-.9.1-1.7-.3-2.2-.9l-4.9-4.8c-2.1 1.4-4.5 2.1-7 2.1-7.4 0-13.4-6-13.5-13.4 0-3.6 1.4-7.1 4-9.6 2.5-2.5 5.9-4 9.5-3.9 3.5-.1 6.9 1.4 9.3 3.9 2.6 2.5 4 6 4 9.6 0 2.5-.7 4.9-2 7l4.8 4.9c.6.5 1 1.2 1 2.1-.1.8-.4 1.6-1 2.2-.5.5-1.2.8-2 .8zm-5.8-6.7l4.7 4.7c.2.3.6.5 1 .4.4 0 .7-.1 1-.4.3-.3.6-.7.6-1.2 0-.4-.2-.7-.5-.9l-4.7-4.8c-.4.4-.7.8-1 1.2-.4.4-.8.7-1.1 1zm-8.3-22.5c-3.2-.1-6.3 1.2-8.5 3.5-2.3 2.2-3.5 5.3-3.5 8.5 0 6.6 5.4 11.9 12 11.9 2.4 0 4.8-.7 6.7-2.1.6-.4 1.1-.9 1.6-1.4.5-.5 1-1.1 1.4-1.7 1.4-1.9 2.1-4.3 2.1-6.7 0-3.2-1.2-6.3-3.5-8.6-2.2-2.2-5.2-3.4-8.3-3.4zm-27.3 13.6c-.8 0-1.6-.4-2.2-1.1l-4.6-5.2c-.7-.9-1.2-2.3.1-4.3l.1-.1c5.5-5.5 12.9-8.5 20.6-8.5 3.8 0 7.6.8 11.1 2.2.4.1.6.5.4.9v.1c-.2.4-.6.6-1 .4-3.3-1.3-6.9-2-10.5-2.1-7.3 0-14.3 2.9-19.5 8.1-.8 1.3-.5 2-.1 2.4l4.6 5.2c.5.6 1.2 1 2.5-.2 3.1-2.7 6.9-4.3 11-4.6.4 0 .8.3.8.7 0 .4-.3.8-.7.8-3.7.3-7.3 1.7-10.1 4.2-.7.6-1.6 1-2.5 1.1zm38.6-13.2c-.7 0-1.4-.3-1.9-.8-12.1-12.5-32.1-12.9-44.6-.7l-.7.7c-1 1.1-2.8 1.2-3.9.1l-.1-.1-4.7-5.3c-1.2-1.3-1.2-3.3-.1-4.7.1 0 .1-.1.1-.1 8.8-8.8 19.3-13.3 31.3-13.3s22.5 4.5 31.3 13.3c0 0 0 .1.1.1 1.1 1.4 1.1 3.3-.1 4.6l-4.7 5.2c-.5.7-1.2 1-2 1zm-24.6-11.9c8.9-.1 17.5 3.5 23.7 10 .4.5 1.1.6 1.6.2.1-.1.2-.1.2-.2l4.7-5.1c.7-.8.7-2 0-2.8-8.5-8.5-18.6-12.8-30.2-12.9-11.5 0-21.7 4.4-30.2 12.9-.7.8-.7 2 0 2.8l4.7 5.2c.5.5 1 .7 1.9-.1 6.1-6.5 14.7-10.1 23.6-10zm-3.2 75.9c-.1-.4-.2-.7-.2-1.1 0-.7.3-1.5.8-2 .2-.2.4-.3.6-.4.4-.2.8-.4 1.3-.4.7 0 1.4.3 1.9.8.2.3.5.6.6.9.2.3.2.7.2 1.1 0 .7-.3 1.4-.8 1.9-.4.6-1.2 1-1.9.9-.7 0-1.4-.3-1.9-.9-.2-.3-.4-.5-.6-.8zm-13.5 10.7c0 .1.1.2.2.2.5.5.8 1.2.8 2 0 .7-.3 1.4-.8 1.9v.1c-.5.5-1.2.8-1.9.8-.6 0-1.2-.2-1.7-.6l-.3-.3c-.5-.5-.8-1.2-.8-1.9s.3-1.4.8-2c.1 0 .1-.1.2-.1.5-.4 1.1-.6 1.8-.6.6 0 1.2.2 1.7.5zm19.6 15.7c.2-.4.4-.8.7-1.2.5-.5 1.2-.8 2-.8h.2c.6.1 1.2.4 1.6.8.6.5.8 1.2.8 2v.2c0 .6-.3 1.2-.8 1.6-.4.5-1.1.9-1.8.9h-.4c-1.3-.2-2.3-1.4-2.4-2.7 0-.3.1-.5.1-.8zm10.9 1.6c0-.7.3-1.4.8-2 .5-.5 1.3-.8 2-.8.6 0 1.2.2 1.7.6 0 .1 0 .1.1.2.5.5.8 1.1.9 1.8v.1c0 .7-.3 1.4-.9 1.9-.4.5-1.1.9-1.8.9-.6 0-1.2-.2-1.6-.5-.2-.1-.3-.2-.4-.3-.5-.6-.8-1.2-.8-1.9zm-9.8 11.6c.2.4.3.9.3 1.3 0 1.5-1.2 2.7-2.7 2.8-.4 0-.8-.1-1.2-.3-.3-.1-.5-.3-.7-.6l-.6-.6c-.2-.4-.3-.8-.3-1.3 0-.7.3-1.4.9-1.9.5-.5 1.2-.8 1.9-.8.4 0 .8.1 1.2.3.2.1.4.3.7.5.2.2.4.4.5.6zm-5.9 8.1c-.1 0-.3 0-.4-.1-.3-.2-.5-.6-.3-.9 0-.1.1-.1.1-.1.8-1.2 1.5-2.3 2.2-3.5.2-.3.6-.5 1-.3s.5.6.3 1c-.7 1.2-1.5 2.4-2.3 3.6-.1.1-.4.3-.6.3zm-9.5-1.7c-.4 0-.7-.3-.7-.6-.1-.4.2-.8.6-.9 3.6-.6 7.1-1.6 10.4-3 .3-.1.7 0 .9.3v.1c.2.4 0 .8-.3 1h-.1c-3.4 1.4-7 2.5-10.8 3.1.1 0 0 0 0 0zm15.4-5.6c-.3 0-.5-.1-.7-.4-.2-.4-.1-.8.3-1 3-1.9 5.8-4.2 8.3-6.7.9-.9 1.7-1.8 2.5-2.6.3-.3.8-.3 1.1-.1.3.3.3.8 0 1.1-.8.9-1.6 1.8-2.5 2.7-2.6 2.6-5.5 4.9-8.6 6.9-.1 0-.3.1-.4.1zm-1.2-1.2H43c-.4-.1-.6-.5-.4-.9v-.1c1-2.7 1.8-5.5 2.4-8.3 0-.4.3-.6.7-.6h.1c.4.1.7.5.6.9-.5 2.9-1.3 5.8-2.4 8.6-.1.2-.4.4-.7.4zm-29.6-6.5h-.1c-.4-.1-.7-.4-.6-.8 1-6.2 3.3-12.1 6.8-17.2.3-.3.7-.4 1.1-.2.3.3.4.7.2 1-3.4 5-5.6 10.7-6.6 16.6-.1.3-.4.6-.8.6zm40.6-4c-1.9 0-3.8-.2-5.7-.5-.4-.1-.7-.4-.6-.8 0-.4.3-.7.7-.7h.1c1.8.3 3.7.4 5.5.4.4 0 .8.3.8.8s-.4.8-.8.8zm5.5-.1c-.4 0-.8-.3-.8-.7 0-.4.3-.8.7-.8 2.5-.2 4.9-.7 7.3-1.3.4-.1.8.1 1 .5.1.4-.2.8-.6.9-2.5.7-5 1.1-7.6 1.4zm-16.4-1.4h-.2c-7.4-2.1-14.2-6.1-19.6-11.6l-.2-.2c-.3-.3-.3-.8 0-1.1.3-.3.8-.3 1.1 0l.2.2c5.2 5.4 11.7 9.2 18.9 11.2.4.1.7.5.6.9-.1.4-.4.6-.8.6zm15.4-.6c-.2 0-.3 0-.5-.1-.3-.3-.4-.7-.2-1 4-5.9 6.4-12.8 7-20 0-.4.4-.7.8-.7s.7.4.7.8c-.6 7.4-3 14.6-7.2 20.7-.1.2-.4.3-.6.3zm-12.5-1.4c-.4 0-.8-.4-.8-.8.1-.9.1-1.8.1-2.6.1-7.1-1.6-14-4.9-20.3-.2-.4-.1-.8.3-1s.8-.1 1 .3c3.4 6.5 5.2 13.7 5.1 21v2.7c-.1.4-.4.7-.8.7zm-26-13.7c-.2 0-.4-.1-.6-.3-2.2-2.8-4-5.8-5.4-9-.2-.4 0-.8.3-1h.1c.4-.2.8 0 1 .4 1.4 3.1 3.1 6 5.2 8.7.3.3.2.8-.1 1-.1.2-.3.2-.5.2zm3.5 0c-.2 0-.4-.1-.5-.2-.3-.3-.4-.7-.1-1 .7-.9 1.5-1.7 2.4-2.5 3.3-3.4 7.2-6.2 11.4-8.4.4-.2.8 0 1 .3.2.4 0 .8-.3 1-4.1 2.1-7.8 4.9-11.1 8.1-.8.7-1.5 1.6-2.2 2.4-.2.2-.4.3-.6.3zm18.5-12.9c-.3 0-.6-.2-.7-.5-.1-.4.1-.8.5-1 4.9-1.7 10-2.6 15.2-2.6h.5c.4 0 .8.3.8.7v.1c0 .4-.3.7-.7.8h-.6c-5 0-10 .8-14.7 2.5h-.3zm-3.8-1.3c-.2 0-.5-.1-.6-.3-1.5-2.1-3.2-4-5-5.9l-1-1c-.3-.3-.3-.8 0-1.1.2-.3.7-.3.9-.1l.1.1 1 1c1.9 1.9 3.7 3.9 5.3 6.1.2.4.1.8-.2 1.1-.1 0-.3.1-.5.1zm.8 50.5c-16.6 0-30-13.4-30.1-30s13.4-30 30-30.1c16.6 0 30 13.4 30.1 30 0 8-3.2 15.6-8.8 21.3-5.6 5.7-13.2 8.9-21.2 8.8zm0-58.5c-15.8-.1-28.6 12.7-28.7 28.5-.1 15.8 12.7 28.6 28.5 28.7 15.8.1 28.6-12.7 28.7-28.5 0-7.6-3-15-8.4-20.3-5.3-5.4-12.5-8.5-20.1-8.4zM12.6 388c-1.9.2-3.5-1.2-3.7-3.1v-13.5H6.2c-.4 0-.7-.3-.7-.7v-8.3c0-.2 0-.4.2-.5L17.6 349c.1-.2.3-.2.5-.2h7c1.3-1 2.9-1.7 4.6-1.9 2.2 0 4.4.6 6.2 1.9h1.8c2.6-2.4 5.1-3.9 7.6-4.2 1.4-.2 2.9.1 4.2.7l2.6-4.4-4.2-5c-.2-.2-.2-.6 0-.9l2-3.5c.2-.4.7-.5 1.1-.3l11.3 6.5c.2.1.3.3.4.5 0 .2 0 .4-.1.6l-2.1 3.5c-.1.3-.4.4-.7.4l-6.4-1-2.5 4.4c1.4.8 2.6 1.8 3.8 2.9h6.1c.2 0 .4.1.6.2L73.2 362c.2.1.2.3.2.5v8.3c0 .4-.3.7-.7.8H70v12.9c.1 1.9-1.3 3.5-3.2 3.6h-.5l-53.7-.1zm-2.2-8.9v5.3c0 1.5.7 2.1 2.2 2.1h53.7c1.5 0 2.1-.7 2.2-2.1v-5.3H10.4zm0-1.5h58.1v-6.2H10.4v6.2zm58.8-7.7h2.7v-6.8H7v6.8h62.2zm-61.3-8.3H71l-10.5-11.4h-4.4c1.5 1.7 3 3.4 4.3 5.2.2.4.1.9-.3 1.1-.3.2-.8.1-1-.2-1.6-2.3-3.3-4.4-5.3-6.3-1.3-1.3-2.7-2.4-4.3-3.2-1.2-.7-2.6-1-4-.8-2.2.3-4.5 1.7-6.9 4-.2.1-.4.3-.5.5.3.3.8.7 1.4 1.2.3.2.4.6.2.9 0 .1-.1.1-.1.1-.3.3-.8.3-1.1.1-1-.9-1.7-1.5-2-1.7-.5-.4-.9-.7-1.3-1-1.6-1.2-3.5-1.8-5.4-1.8-1.5.2-2.9.8-4 1.8-2.3 1.8-4.3 3.9-5.9 6.3-.3.3-.7.4-1.1.2-.3-.3-.4-.7-.2-1 1.4-1.9 2.9-3.6 4.6-5.2h-4.7L7.9 361.6zM53.4 340l6.1 1 1.4-2.4-10-5.8-1.5 2.4 4 4.8zm-7.5 17.8c-.4 0-.8-.3-.8-.8v-1c0-.4.4-.8.8-.8s.8.4.8.8v1c0 .4-.4.8-.8.8zm-18.1-2.9c-.4 0-.8-.3-.8-.7v-1.3c0-.4.3-.7.7-.8h.1c.4 0 .7.3.7.7v1.2c0 .5-.3.9-.7.9zm23.1-.1c-.4 0-.7-.3-.7-.7v-1.2c0-.4.3-.7.7-.8.4 0 .8.3.8.8v1.2c0 .4-.4.7-.8.7zm-4-2c-.4 0-.8-.3-.8-.8v-1.2c0-.4.4-.8.8-.8s.8.4.8.8v1.2c0 .5-.4.8-.8.8zM6.8 466c-1.1 0-2.2-.5-3-1.3-.8-.8-1.2-1.8-1.3-2.9 0-.2.1-.4.3-.5l8.1-8c.1-.1.3-.2.5-.2h56.1c.2 0 .4.1.5.2l8.3 8c.2.1.2.3.2.5 0 1.1-.5 2.1-1.3 2.8-.7.8-1.7 1.3-2.8 1.4H6.8zm-2.6-3.5c.1.5.3.9.7 1.2.5.5 1.2.8 1.9.8h65.5c.7-.1 1.4-.4 1.9-.9.3-.3.5-.7.7-1.1H48.1l-.9.9c-.1.1-.3.2-.5.2H32.4c-.2 0-.4-.1-.5-.2l-.9-.9H4.2zm28.5-.4h13.7l.9-.9c.1-.1.3-.2.5-.2h26.1l-6.7-6.6H11.8L5.1 461h26.2c.2 0 .4.1.5.2l.9.9zm32.9-3.8H13.4c-.4 0-.8-.3-.8-.7v-.1c0-.4.3-.7.7-.7h52.3c.4 0 .7.3.7.7 0 .4-.3.7-.7.8zm-1.1-6.6H13.6c-2 0-3.2-1.1-3.2-3v-31.6c-.1-1.6 1-3 2.6-3.1h51.5c1.5-.2 2.9.9 3.1 2.5v32.2c.1 1.5-1 2.9-2.5 3h-.6zm-4.2-1.5h4.2c1.2 0 1.6-.4 1.6-1.5v-6h-5.8v7.5zm-20.3 0h18.8v-7.5H40v7.5zm-20.3 0h18.8v-7.5H19.7v7.5zm-7.7-7.5v6c0 1.1.4 1.5 1.6 1.5h4.6v-7.5H12zm47.6-1.5h6.5v-7.6H50.7v7.6h8.9zm-20.4 0h9.9v-7.6H29.4v7.6h9.8zm-20.3 0h9v-7.6H12v7.6h6.9zm41.4-9.1h5.8v-7.6h-5.8v7.6zm-10.4 0h8.9v-7.6H40v7.6h9.9zm-21.3 0h9.9v-7.6H19.7v7.6h8.9zm-16.6 0h6.2v-7.6H12v7.6zm47.6-9.1h6.5v-6c0-1.2-.4-1.6-1.6-1.6H50.7v7.6h8.9zm-20.4 0h9.9v-7.6H29.4v7.6h9.8zm-20.3 0h9v-7.6H13.6c-1.2 0-1.6.5-1.6 1.6v6h6.9zm20.9 114c-.6 0-1.3-.1-1.8-.5-9-4.9-14.7-10.8-16.8-17.4-.8-2.8-1.1-5.7-1.1-8.6v-8.6c-.1-1.2.3-2.4 1-3.4.9-1.1 2.1-1.9 3.5-2.3l12.2-3.5c1-.4 2-.6 3-.7 1 .1 2 .3 3 .7l12.2 3.5c1.4.4 2.5 1.2 3.4 2.3.8.9 1.3 2.2 1.3 3.4v8.6c0 2.9-.4 5.8-1.2 8.6-2.2 6.7-8 12.5-17.1 17.5-.5.3-1 .5-1.6.4zm0-43.5c-.9.1-1.8.3-2.6.6L25 497.6c-1 .3-2 1-2.7 1.8-.5.7-.8 1.6-.7 2.5v8.6c0 2.8.3 5.5 1 8.2 2 6.2 7.4 11.8 16.2 16.5.3.2.6.3 1 .3.3 0 .6-.1.8-.2 8.9-4.8 14.4-10.4 16.5-16.6.7-2.7 1.1-5.4 1.1-8.2v-8.6c0-.9-.3-1.8-.9-2.5-.7-.9-1.7-1.5-2.8-1.9L42.3 494c-.8-.2-1.6-.4-2.5-.5zm0 30.5c-.4 0-.7-.3-.7-.7v-1.9c-1.2-.1-2.4-.4-3.4-1-.4-.2-.5-.6-.3-1s.7-.5 1.1-.3c.8.5 1.7.8 2.6.8v-6c-1.1-.4-2.1-1-3-1.7-.7-.7-1-1.6-1-2.6 0-1.2.6-2.3 1.6-3 .7-.5 1.5-.9 2.4-1v-2.1c0-.4.3-.7.7-.8.4 0 .8.3.8.7v2.1c1.2.1 2.3.4 3.3 1 .4.2.5.6.3 1s-.6.5-1 .3c-.8-.5-1.7-.7-2.6-.8v5.9c1 .4 2 1 2.9 1.7.7.7 1.1 1.6 1.1 2.6 0 1.2-.6 2.3-1.6 3-.7.5-1.5.9-2.4 1v2c0 .5-.3.8-.8.8zm.8-9.5v5.1c.5-.1 1-.4 1.4-.7.7-.4 1.1-1.1 1.1-1.8 0-.6-.2-1.1-.7-1.5-.6-.4-1.2-.8-1.8-1.1zm-1.5-7.5c-.5.1-1 .4-1.5.7-.6.4-1 1.1-1 1.8 0 .6.2 1.1.6 1.5.6.4 1.2.8 1.9 1v-5zm29.4 34.5c-.4 0-.8-.3-.8-.7v-33.3c0-2.8-1.3-4-4.1-4h-2.2c-.4 0-.7-.4-.7-.8s.3-.7.7-.7h2.2c3.7 0 5.6 1.9 5.6 5.5v33.1c0 .6-.3.9-.7.9zm-57.3 0c-.4 0-.7-.3-.7-.7v-33.2c0-3.6 1.9-5.5 5.5-5.5h2.3c.4 0 .8.3.8.7 0 .4-.3.8-.7.8H16c-2.8 0-4 1.2-4 4v33.1c0 .5-.3.8-.8.8zm62.4 6.5H6.1c-1.1 0-2.2-.5-3-1.3-.8-.7-1.2-1.8-1.2-2.8v-.1c0-.4.3-.7.7-.8h29c.2 0 .4.1.5.2l.9.8h13.7l.8-.9c.2-.1.4-.2.6-.2h29c.2 0 .4.1.5.2.2.1.2.3.2.5 0 1.1-.4 2.1-1.2 2.9-.8.8-1.8 1.3-2.9 1.4l-.1.1zm-70.1-3.6c.1.5.3.9.7 1.2.5.5 1.2.8 1.9.8h67.5c.7-.1 1.4-.4 1.9-.9.3-.3.6-.7.7-1.1H48.4l-.9.9c-.1.1-.3.2-.5.2H32.7c-.2 0-.4-.1-.5-.2l-.9-.9H3.5zm24.1 77.9H10.5c-2.8 0-4.4-1.6-4.5-4.5v-46.3c.1-2.8 1.7-4.4 4.5-4.5h30.7c.1 0 .2 0 .3.1.1 0 .2.1.2.2l9.1 9 .2.2v5.5c0 .4-.3.7-.7.7-.4 0-.8-.3-.8-.7v-4.5H45c-2.9 0-4.5-1.6-4.5-4.5v-4.5h-30c-2 0-3 1-3 3v46.3c0 2 1 3 3 3h17.1c.4 0 .7.4.7.8s-.3.7-.7.7zM42 569.5v3.5c0 2 1 3 3 3h3.5l-6.5-6.5zm-18 42.8h-8c-.4 0-.8-.3-.8-.7 0-.4.3-.8.7-.8H24c.4 0 .7.4.7.8s-.3.7-.7.7zm1-11.2h-9c-.4 0-.8-.3-.8-.7s.3-.8.7-.8H25c.4 0 .7.4.7.8s-.3.7-.7.7zm7.1-11.2H16c-.4 0-.8-.3-.8-.7s.3-.8.7-.8h16.2c.4 0 .7.4.7.8s-.3.7-.7.7zM50.3 632c-13.1.1-23.8-10.4-23.9-23.4-.1-13.1 10.4-23.8 23.4-23.9h.4c6.3-.1 12.3 2.4 16.7 6.9 9.2 9.3 9.2 24.2 0 33.5-4.3 4.4-10.3 6.9-16.6 6.9zm0-45.8c-12.2 0-22.1 10-22 22.2s10 22.1 22.2 22c12.2 0 22.1-10 22-22.2 0-5.9-2.4-11.5-6.5-15.6-4.1-4.2-9.8-6.5-15.7-6.4zm3.7 36.6c-.1 0-.3 0-.4-.1-2.3-1-4.2-2.6-5.7-4.6-1.5-2.4-2.1-5.2-1.9-8 0-1.2.5-2.3 1.3-3.2v-.1c1.9-1.7 4.7-1.7 6.6 0 1 .8 1.5 2 1.5 3.2v.8c-.2 1 .2 2 .9 2.7.5.4 1.1.7 1.7.6.7 0 1.5-.3 2-.8s.8-1.1.8-1.8c.1-1.9-.2-3.8-.8-5.6-.6-1.5-1.6-2.8-2.7-3.9-1.8-1.8-4.3-2.7-6.9-2.7-2.6-.1-5 .9-6.9 2.7-1.1 1.1-1.9 2.4-2.4 3.9-1.1 3.5-1.1 7.2 0 10.7.1.4-.1.8-.5.9-.4.1-.8-.1-.9-.5-1.2-3.8-1.2-7.8-.1-11.6.6-1.7 1.6-3.3 2.9-4.5 2.1-2.1 5-3.2 7.9-3.1 3-.1 5.8 1.1 8 3.1 1.3 1.3 2.3 2.8 3 4.5.7 2 1 4 .9 6.1 0 1.1-.4 2.2-1.3 2.9-.8.8-1.9 1.2-3 1.1-1 0-2-.4-2.7-1-1.1-1-1.6-2.4-1.4-3.8v-.7c0-.8-.3-1.6-1-2.1-1.3-1.2-3.3-1.2-4.6 0-.5.6-.8 1.3-.8 2.1-.2 2.5.4 5 1.7 7.1 1.3 1.8 3.1 3.2 5.1 4.1.4.2.5.7.3 1-.1.4-.4.5-.6.6zm-7.4-1.1c-.2 0-.4-.1-.6-.2-2.6-2.9-3.8-6.8-3.7-11.5 0-2.1.8-4.2 2.3-5.7 1.6-1.4 3.7-2.2 5.8-2.2 2.1 0 4.2.7 5.8 2.2 1.6 1.5 2.6 3.5 2.6 5.7v.9c0 .4-.4.7-.8.8-.4 0-.7-.3-.7-.7v-1c0-1.8-.8-3.5-2.1-4.6-1.3-1.2-3-1.8-4.8-1.8-1.7 0-3.4.6-4.7 1.8-1.2 1.2-1.9 2.9-1.9 4.6-.1 4.3 1 7.8 3.3 10.5.3.3.3.7 0 1-.1.1-.3.2-.5.2zm11.7-2.1c-5.5-.3-8.4-3.4-8.5-9.1 0-.4.3-.7.7-.8h.1c.4 0 .7.3.7.7.1 4.9 2.4 7.3 7 7.6.4 0 .8.3.8.8-.1.5-.4.8-.8.8zm-21.5-13.7c-.5-.1-.8-.4-.7-.8v-.1c0-.3.1-.5.2-.8.7-2.3 1.9-4.4 3.7-6.1 5.8-5.6 15.1-5.6 20.9 0 1.4 1.4 2.6 3.1 3.5 4.9.2.4 0 .8-.3 1H64c-.4.2-.8 0-1-.3-.8-1.6-1.8-3.2-3.1-4.5-5.3-5-13.6-5-18.9 0-1.5 1.5-2.7 3.4-3.3 5.5-.1.2-.1.4-.1.5-.1.4-.4.7-.8.7zm4.9 104.8H18.4c-.4 0-.8-.3-.8-.7s.3-.8.7-.8h23.4c.4 0 .7.4.7.8s-.3.7-.7.7zm-8.3-3c-.4 0-.7-.3-.7-.7v-2.5c0-.4.3-.7.7-.8.4 0 .8.3.8.7v2.6c0 .3-.3.7-.8.7zm-6.9 0c-.4 0-.7-.3-.7-.7v-2.5c0-.4.3-.7.7-.8.4 0 .8.3.8.8v2.5c0 .3-.4.7-.8.7zm3.6-5c-14.6.2-26.5-11.5-26.7-26s11.5-26.5 26-26.7c14.2-.2 26 10.8 26.7 25 .1.4-.2.7-.5.8h-.2c-.4 0-.7-.3-.7-.6v-.1c-.3-6.1-2.9-11.9-7.3-16.2-4.5-4.7-10.8-7.4-17.3-7.3-6.6-.1-12.9 2.5-17.5 7.3-9.5 9.8-9.5 25.3 0 35.1 4.6 4.8 10.9 7.4 17.5 7.3 4.8.1 9.5-1.4 13.5-4.1.3-.2.8-.2 1 .2.2.4.1.8-.2 1-4.2 2.8-9.2 4.3-14.3 4.3zm29-5.4c-.2 0-.4-.1-.5-.2l-4.3-4.2c-.3-.3-.3-.8 0-1.1.2-.3.7-.3 1-.1l3.8 3.7 7.1-7.1c.3-.3.8-.3 1.1 0 .2.3.2.7 0 1.1l-7.7 7.6c-.1.2-.3.3-.5.3zm-29-6.3c-3.9.1-7.7-1.5-10.4-4.3-5.7-5.8-5.7-15.1 0-20.9 5.6-5.7 14.8-5.8 20.5-.2l.2.2c5.7 5.8 5.7 15.1 0 20.9-2.7 2.8-6.4 4.3-10.3 4.3zm0-28.1c-3.5-.1-6.9 1.3-9.3 3.9-5.2 5.2-5.2 13.5 0 18.7 5 5.1 13.2 5.2 18.3.2l.2-.2c5.2-5.2 5.2-13.5 0-18.7-2.4-2.5-5.7-3.9-9.2-3.9zm0 19.7c-1.7 0-3.3-.6-4.5-1.8-1.2-1.2-1.8-2.8-1.8-4.5 0-1.7.6-3.3 1.8-4.4 1.2-1.2 2.8-1.8 4.5-1.8 1.7 0 3.2.6 4.4 1.8 1.2 1.2 1.8 2.8 1.8 4.5 0 1.7-.6 3.3-1.8 4.5-1.2 1-2.7 1.7-4.4 1.7zm0-11.1c-1.3 0-2.5.5-3.4 1.4-1.9 1.9-1.9 4.9 0 6.8.9.9 2.1 1.4 3.4 1.4 1.2 0 2.4-.5 3.3-1.4.9-.9 1.4-2.1 1.4-3.4 0-1.3-.5-2.5-1.4-3.4-.9-.9-2.1-1.4-3.3-1.4zm0-12.6c-.6 0-1.3-.3-1.7-.7-.9-.9-.9-2.4 0-3.4.8-.9 2.3-1 3.2-.2l.2.2c.4.5.6 1 .6 1.7 0 .6-.2 1.2-.6 1.7-.5.4-1.1.7-1.7.7zm-.7-1.8c.3.4.9.4 1.2.1l.1-.1c.2-.2.2-.4.2-.6 0-.2 0-.5-.2-.6-.1-.2-.4-.3-.6-.3-.2 0-.5.1-.6.3-.2.2-.3.4-.3.6 0 .2.1.4.2.6zM60.5 711c-.5 0-1-.1-1.4-.3-7.1-3.9-11.5-8.5-13.2-13.7-.6-2.2-.9-4.5-.9-6.8v-6.7c0-1 .3-2 .9-2.8.7-.9 1.7-1.5 2.8-1.9l9.4-2.8c.8-.3 1.6-.5 2.4-.5.8.1 1.6.2 2.3.5l9.5 2.8c1.1.3 2 1 2.7 1.9.6.8 1 1.7 1 2.8v6.7c0 2.3-.3 4.5-.9 6.7-1.7 5.2-6.2 9.8-13.3 13.7-.4.3-.9.4-1.3.4zm0-33.9c-.7.1-1.4.2-2 .5l-9.4 2.8c-.8.3-1.5.7-2 1.4-.4.5-.6 1.2-.6 1.8v6.7c0 2.1.3 4.3.8 6.3 1.6 4.8 5.8 9.1 12.5 12.8.2.1.5.1.7.1.2 0 .4 0 .6-.1 6.7-3.7 11-8 12.6-12.8.5-2.1.8-4.2.8-6.3v-6.7c0-.7-.3-1.3-.7-1.8-.5-.7-1.2-1.1-2-1.4l-9.4-2.8c-.6-.2-1.2-.4-1.9-.5zM59.7 789c-.4 0-.8-.3-.8-.7v-16h-3.5v6.9c0 .4-.3.7-.7.7h-.1c-.4 0-.7-.3-.7-.7v-6.9h-3.5v15.9c0 .4-.4.8-.8.8s-.8-.4-.8-.8v-15.9h-3.5v11.4c0 .4-.3.7-.7.7-.4 0-.8-.3-.8-.7v-11.5h-3.5v6.9c0 .4-.3.7-.7.7h-.1c-.4 0-.7-.3-.7-.7v-6.9h-3.5v15.9c0 .4-.4.8-.8.8s-.8-.4-.8-.8v-15.9h-3.5v11.4c0 .4-.3.7-.7.7-.4 0-.8-.3-.8-.7v-11.4h-3.5v6.9c0 .4-.3.7-.7.7h-.1c-.4 0-.7-.3-.7-.7v-6.9h-3.5v15.9c0 .4-.4.8-.8.8s-.8-.4-.8-.8v-15.9H4.8c-.7 0-1.4-.3-2-.8-.2-.1-.3-.3-.3-.6v-4.2c0-.2.1-.4.3-.5l8.1-8.1c.1-.1.3-.2.5-.2h7.2v-23.4c-.1-1.9 1.4-3.5 3.2-3.6h30c.2 0 .4.1.5.2l7.9 7.8c.1.1.2.3.2.5V758h7.1c.2 0 .4.1.5.2l8.3 8.1c.1.2.2.3.2.5v4.2c0 .2 0 .3-.1.5-.5.6-1.2.9-2 .9h-14v15.9c0 .3-.3.7-.7.7zM4.1 770.6c.2.1.4.2.7.2h69.6c.2 0 .4 0 .6-.2v-3.2H4.1v3.2zm1-4.6h68.8l-6.7-6.6h-6.8v1.9c0 .1 0 .3-.1.4h4.4c.4 0 .8.3.8.7 0 .4-.3.8-.7.8H14.4c-.4 0-.8-.3-.8-.7 0-.4.3-.8.7-.8h4.5c-.1-.1-.2-.2-.2-.4v-1.9h-6.8L5.1 766zm14.9-4.2h39c0-.1-.1-.2-.1-.4v-21.1h-7.1c-.4 0-.8-.3-.8-.7v-7.2H22.2c-1-.1-1.9.6-2 1.5v27.4c0 .3-.1.4-.2.5zm32.5-23h5.3l-5.3-5.3v5.3zM39.3 869c-8 .1-15.6-3-21.3-8.6-11.5-11.4-11.6-30-.2-41.5l.2-.2c5.6-5.7 13.3-8.8 21.3-8.7.4 0 .8.3.8.7V824l4.1-4.1c.3-.3.8-.3 1.1 0 .3.3.3.7 0 1l-5.5 5.4c-.1.1-.3.2-.5.2h-.1c-.1 0-.3-.1-.4-.2l-5.5-5.4c-.3-.3-.3-.7 0-1 .3-.3.7-.3 1 0l4.2 4.1v-12.5c-7.3.1-14.3 3.1-19.4 8.3C8.2 830.4 8 848 18.8 859l.3.3c5.4 5.3 12.6 8.3 20.2 8.2 7.5.1 14.8-2.8 20.1-8.2 10.9-10.6 11.2-28 .7-38.9-.2-.2-.4-.5-.7-.7-3.8-3.9-8.7-6.5-14-7.6-.4-.1-.6-.5-.5-.8 0-.4.4-.7.7-.6h.2c5.6 1.2 10.7 4 14.7 8 11.5 11.2 11.8 29.6.5 41.2l-.5.5c-5.6 5.6-13.3 8.7-21.2 8.6zm0-18.9c-2.8 0-5.6-1.1-7.6-3.1-2.1-2-3.2-4.7-3.2-7.6 0-2.8 1.1-5.5 3.2-7.5 2-2.1 4.7-3.2 7.6-3.2 2.9-.1 5.6 1.1 7.6 3.2 2.1 1.9 3.3 4.6 3.2 7.5.1 2.9-1.1 5.6-3.2 7.6-2 2-4.7 3.2-7.6 3.1zm0-19.8c-2.5 0-4.9.9-6.6 2.7-1.8 1.7-2.7 4-2.7 6.4 0 2.5.9 4.8 2.7 6.5 1.8 1.7 4.1 2.7 6.6 2.6 2.5.1 4.9-.9 6.6-2.7 1.8-1.7 2.7-4.1 2.7-6.5 0-2.4-.9-4.8-2.7-6.4-1.7-1.7-4.1-2.7-6.6-2.6zm0 14.2c-1.4 0-2.7-.5-3.7-1.4-.9-1-1.4-2.3-1.4-3.6 0-2.7 2.2-5 4.9-5h.2c1.4 0 2.7.5 3.6 1.5 1 .9 1.5 2.2 1.5 3.5 0 1.4-.5 2.7-1.5 3.6-1 .9-2.3 1.4-3.6 1.4zm0-8.6c-1 0-1.9.4-2.6 1.1-.7.6-1 1.5-1 2.5s.3 1.9 1 2.6c.7.7 1.6 1 2.6 1 .9 0 1.8-.4 2.5-1s1.1-1.6 1.1-2.5c0-.9-.4-1.8-1.1-2.4-.6-.9-1.6-1.3-2.5-1.3zm-33.2 111c-1.1 0-2.2-.5-3-1.3-.8-.7-1.2-1.8-1.2-2.9v-.1c0-.4.3-.7.7-.8h29.5c.2 0 .4.1.6.2l.8.9h13.7l.8-.9c.2-.1.4-.2.6-.2h29.5c.2 0 .4.1.5.2.2.1.3.3.2.6 0 1.1-.4 2.1-1.2 2.9-.8.8-1.8 1.3-2.9 1.4H6.1zm-2.6-3.5c.1.5.3.9.7 1.2.5.5 1.2.8 1.9.8h68.5c.7-.1 1.4-.4 1.9-.9.3-.3.6-.7.7-1.1H48.9l-.9.9c-.1.1-.3.2-.5.2H33.2c-.2 0-.4-.1-.5-.2l-.9-.9H3.5zm68-2.9c-.4 0-.8-.3-.8-.8v-40.3c0-2.8-1.2-4-4.1-4H14c-2.8 0-4 1.2-4 4v40.3c0 .4-.3.8-.7.8h-.1c-.4 0-.7-.3-.7-.7v-40.3c0-3.6 1.9-5.5 5.5-5.5h52.6c3.7 0 5.6 1.9 5.6 5.5v40.3c0 .3-.3.6-.7.7zM50.9 932H18.8c-.4 0-.8-.3-.8-.8V909c-.1-1.2.5-2.3 1.6-2.8.5-.2 1-.3 1.5-.2h27.7c.5 0 .9.1 1.4.2.7.3 1.4 1.1 1.4 2.8v22.2c0 .4-.3.7-.7.8 0-.1 0 0 0 0zm-31.4-1.6h30.6v-16.3H19.5v16.3zm0-17.8h30.6V909c0-.8-.1-1.2-.5-1.4-.3-.1-.5-.1-.8-.1H21.1c-.3 0-.6 0-.9.1-.5.3-.8.8-.7 1.4v3.6zm42.4 16.3h-8.1c-.4 0-.8-.3-.8-.7s.3-.8.7-.8h7.5v-11.3h-7.4c-.4 0-.8-.3-.8-.7s.3-.8.7-.8h7.5V913c.1-.5-.1-1-.5-1.4-.3-.1-.6-.1-.9-.1h-6c-.4 0-.8-.3-.8-.8 0-.4.4-.8.8-.8h6c.5 0 .9 0 1.4.2 1 .5 1.6 1.6 1.5 2.8v15.2c0 .5-.4.8-.8.8zm-26.1-3.7h-12c-.4 0-.8-.3-.8-.7s.3-.8.7-.8h12.1c.4 0 .8.3.8.7 0 .4-.3.8-.8.8.1 0 0 0 0 0zm10.1-5H23.8c-.4 0-.8-.3-.8-.8 0-.4.4-.8.8-.8h22.1c.4 0 .7.3.7.7 0 .5-.3.8-.7.9 0-.1 0 0 0 0zm.4-9c-.4 0-.7-.3-.7-.7v-.8c0-.4.3-.7.7-.8.4 0 .8.3.8.8v.8c0 .3-.4.7-.8.7zm-4.2 0c-.4 0-.8-.3-.8-.7v-.9c0-.4.3-.8.7-.8h.1c.4 0 .7.3.7.7v.8c0 .5-.3.9-.7.9zm-36 119.7c-1.1 0-2.2-.5-3-1.3-.8-.7-1.2-1.8-1.2-2.8v-.1c0-.4.3-.7.7-.7h29.5c.2 0 .4.1.6.2l.8.9h13.7l.8-.9c.2-.1.4-.2.6-.2h29.5c.2 0 .4.1.5.2.2.1.3.3.2.5 0 1.1-.4 2.1-1.2 2.8-.8.8-1.8 1.3-2.9 1.4H6.1zm-2.6-3.4c.1.5.3.9.7 1.2.5.5 1.2.8 1.9.8h68.5c.7-.1 1.4-.4 1.9-.9.3-.3.6-.7.7-1.1H48.9l-.9.9c-.1.1-.3.2-.5.2H33.2c-.2 0-.4-.1-.5-.2l-.9-.9H3.5zm68-2.9c-.4 0-.8-.3-.8-.8v-37.7c0-2.7-1.2-3.9-4.1-3.9H52.7c-.4 0-.8-.3-.8-.8 0-.4.4-.7.8-.7h13.9c3.7 0 5.6 1.9 5.6 5.4v37.7c0 .4-.3.8-.7.8zm-62.3 0c-.4 0-.7-.3-.7-.7v-37.7c0-3.5 1.9-5.4 5.5-5.4h28.2c.4 0 .8.3.8.7 0 .4-.4.7-.8.8H14c-2.8 0-4 1.2-4 3.9v37.7c0 .4-.3.7-.8.7zm27.1-5.1c-2 0-3.2-1.1-3.6-3.3l-3.1-19.7c-.4-2.7.7-4.5 3.2-5.2h.3l.3-.1c2.2-.3 4.3-1 6.3-1.9 3-1.4 4.7-4.6 4.4-7.8-.1-.4-.1-.9-.2-1.4-.2-1.3-.9-2.4-1.9-3.2-1.1-.8-2.4-1.1-3.7-.9-1.3.2-2.5.9-3.3 2-.3.4-.6.9-.7 1.4-.1.4-.5.6-.9.5-.4-.1-.6-.4-.5-.8v-.1c.2-.7.5-1.3.9-1.9 1-1.4 2.5-2.3 4.2-2.6 3.5-.6 6.8 1.8 7.4 5.2v.1c.1.6.1 1 .2 1.5.2 2.3-.5 4.5-1.8 6.4-.9 1.2-2.1 2.1-3.4 2.8-2.1 1-4.4 1.7-6.7 2.1l-.3.1h-.3c-1.7.5-2.3 1.6-2 3.5l3.1 19.7c.3 1.6 1.1 2.2 2.8 2l15.5-2.4c1.6-.3 2.2-1.1 2-2.7L49.1 979c-1.1-5.6-6.5-9.2-12-8.1-2.5.5-4.8 1.9-6.3 4-1 1.3-1.6 2.8-1.9 4.4 0 .4-.3.6-.7.6h-.1c-.4 0-.7-.4-.6-.8v-.1c.3-1.8 1-3.6 2.1-5 3.8-5.2 11.1-6.3 16.3-2.5 2.4 1.7 4.1 4.3 4.7 7.3l.4 2.5 4.9 31.2c.5 2.4-.7 4-3.2 4.4l-15.5 2.4c-.3.1-.6.2-.9.2zm6.5-9.3c-1.5 0-3-.5-4.2-1.4-1.4-1.1-2.3-2.7-2.6-4.4-.2-1.8.3-3.6 1.4-5 1.1-1.5 2.7-2.4 4.5-2.6 1.8-.3 3.6.2 5 1.3s2.4 2.7 2.6 4.4c.2 1.8-.3 3.6-1.4 4.9-1.1 1.4-2.6 2.4-4.4 2.6-.3.2-.6.2-.9.2zm-2.6-2.1c1 .6 2.2.8 3.3.6 1.4-.2 2.6-.9 3.4-2 .9-1.1 1.3-2.4 1.1-3.8-.2-1.1-.7-2.2-1.5-3l-6.3 8.2zm2.7-9.8c-.3 0-.5 0-.8.1-1.4.1-2.7.9-3.5 2-.9 1.1-1.3 2.5-1.1 3.9.2 1.1.7 2.1 1.5 2.9l6.3-8.2c-.7-.5-1.6-.7-2.4-.7zm25-10.9H53.4c-.4 0-.8-.3-.8-.7 0-.4.4-.7.8-.8h14.5c.4 0 .7.3.7.7 0 .4-.3.7-.7.8zm-27.3 0H12.9c-.4 0-.8-.3-.8-.7 0-.4.4-.7.8-.8h27.7c.4 0 .7.3.7.7 0 .4-.3.7-.7.8zm15.1 122.5c-3.9 0-7.7-1.2-10.9-3.4-.9-.6-1.7-1.4-2.5-2.2-3.6-3.6-5.6-8.4-5.5-13.5 0-5 1.9-9.9 5.5-13.5 3.5-3.6 8.4-5.6 13.4-5.5 10.5 0 19 8.5 19 18.9v.1c-.1 6.2-3.1 11.9-8 15.6-3.2 2.4-7.1 3.6-11 3.5zm0-36.5c-9.6 0-17.4 7.8-17.4 17.4v.1c-.1 4.7 1.7 9.2 5.1 12.4.7.7 1.5 1.4 2.3 2 6.1 4.2 14.1 4.2 20.1 0 .8-.6 1.6-1.3 2.3-2 3.4-3.2 5.2-7.7 5.1-12.4.1-4.7-1.8-9.1-5.1-12.4-3.3-3.3-7.7-5.2-12.4-5.1zm-5.7 31c-.4 0-.7-.2-.8-.6l-1.1-5.8c-.1-.2 0-.4.1-.5 0-.1 0-.1.1-.1.1-.1.2-.2.3-.2h.1l5.7-1.2c.4-.1.8.1.9.4v.1c.1.4-.2.8-.6.9l-4.2.9c.7.5 1.4.9 2.2 1.2 1 .3 2 .4 3 .4 2.4 0 4.7-.9 6.4-2.6 1.7-1.7 2.7-4 2.6-6.5 0-.5 0-.9-.1-1.4 0-.4.3-.8.7-.8.4-.1.7.2.8.6v.1c.1.5.2 1 .2 1.6 0 5.8-4.7 10.5-10.6 10.5-1.2 0-2.4-.2-3.5-.5-.8-.3-1.5-.7-2.2-1.1l.7 3.7c.1.4-.2.8-.6.9H50c.1 0 0 0 0 0zm-3.8-11.1c-.4 0-.7-.2-.8-.6-.5-2.3-.1-4.8 1.2-6.8.4-.9 1-1.6 1.7-2.3 2-2 4.6-3.1 7.4-3.1 1.2 0 2.4.2 3.6.6.8.3 1.5.6 2.2 1.1l-.8-3.7c-.1-.4.2-.8.6-.9.4-.1.8.2.9.6l1.2 5.8c.1.2 0 .4-.1.5v.1c-.1.2-.3.3-.5.3l-5.9 1.2c-.4.1-.8-.2-.9-.6-.1-.4.2-.8.6-.9l4.4-.8c-.7-.5-1.4-.9-2.2-1.2-1-.4-2-.5-3.1-.5-2.4 0-4.7.9-6.4 2.6-.5.6-1 1.3-1.4 2-.8 1.3-1.2 2.8-1.1 4.4 0 .5 0 1 .1 1.5.1.4-.2.8-.6.9 0-.3 0-.3-.1-.2.1 0 0 0 0 0zM30.6 1109c-.8 0-1.5-.2-2.2-.5-11.9-6.5-19.4-14.2-22.2-22.9-.9-3.7-1.4-7.5-1.4-11.4v-11.3c-.1-1.6.4-3.2 1.4-4.4 1.1-1.4 2.7-2.4 4.4-2.9l16-4.7c1.3-.5 2.6-.8 4-.9 1.3.1 2.6.4 3.8.9l16.1 4.7c1.8.5 3.3 1.5 4.4 3 1 1.2 1.6 2.8 1.6 4.4v6.9c0 .4-.3.8-.7.8h-.1c-.4 0-.7-.3-.7-.7v-6.9c0-1.3-.4-2.5-1.3-3.5-.9-1.2-2.2-2-3.6-2.4l-16.1-4.7c-1.1-.4-2.2-.7-3.4-.8-1.2.1-2.4.4-3.5.8l-16 4.7c-1.5.5-2.8 1.3-3.8 2.4-.7 1-1.1 2.3-1 3.5v11.3c-.1 3.7.4 7.4 1.4 10.9 2.6 8.3 9.9 15.7 21.5 22 .4.2.9.3 1.4.3.4 0 .8-.1 1.2-.3 2.2-1.2 4.4-2.5 6.5-3.9.4-.2.9-.2 1.1.2.2.4.1.8-.2 1.1-2.2 1.5-4.4 2.8-6.7 4-.6.1-1.2.3-1.9.3zm28.9 78h-39c-7.5 0-11.2-3.8-11.2-11.2V1144c0-7.5 3.8-11.2 11.2-11.2h39c7.5 0 11.3 3.8 11.3 11.2v31.8c0 7.4-3.9 11.2-11.3 11.2zm-48.7-39.7v28.4c0 6.6 3.2 9.8 9.8 9.8h39c6.6 0 9.8-3.2 9.8-9.8v-28.4H10.8zm0-1.5h58.5v-1.9c0-6.6-3.2-9.8-9.8-9.8h-39c-6.6 0-9.8 3.2-9.8 9.8v1.9zm22 31.1c-3.2 0-5.9-1.1-8.1-3.3-2.2-2.2-3.4-5-3.3-8.1 0-3.1 1.1-5.8 3.4-8 2.2-2.2 4.9-3.4 8.1-3.4 3.1 0 5.8 1.1 8.1 3.4.8.7 1.4 1.5 1.9 2.4h11.2c.8 0 1.5.1 2.2.5.7.2 1.3.6 1.7 1.2l2 1.9c.6.6.8 1.3.8 2s-.2 1.4-.7 1.9l-2.2 2.2c-.7.6-1.6.8-2.6.1l-.1-.1-1.4-1.4-1.4 1.4c-.5.3-.9.5-1.3.5-.6 0-1-.2-1.3-.5l-1.3-1.3-2 1.9h-3c-.6 1.3-1.4 2.5-2.5 3.6-2.3 2-5 3.1-8.2 3.1zm0-21.4c-2.8 0-5.1 1-7 2.9-2 1.9-2.9 4.2-2.9 7s.9 5.1 2.9 7.1c2 1.9 4.3 2.9 7.1 2.9s5.1-.9 7-2.9c1.1-1.1 1.9-2.3 2.4-3.5l.2-.5h3.4l2.6-2.6 2.3 2.3s.1.1.4.1c0 0 .1 0 .4-.2l2.3-2.3 2.4 2.4c.2.1.3.1.3.1.2 0 .3-.1.4-.1l2.1-2.1c.2-.2.3-.6.3-1s-.1-.7-.3-.9l-2-2c-.3-.4-.7-.6-1.2-.8h-.1c-.5-.2-1-.4-1.6-.3l-12.1.1-.2-.4c-.5-.9-1.1-1.7-1.9-2.4-2.2-1.9-4.4-2.9-7.2-2.9zm-3.2 13.3c-.9 0-1.8-.3-2.4-1-.6-.7-.9-1.5-.9-2.4s.3-1.7.9-2.4c.7-.6 1.5-.9 2.4-1 1 0 1.8.4 2.4.9.7.7 1 1.5 1 2.4.1.9-.3 1.8-.9 2.4-.7.8-1.6 1.1-2.5 1.1zm0-5.2c-.5 0-1 .2-1.4.6-.3.3-.4.7-.4 1.3s.2 1 .5 1.3c.7.7 1.9.8 2.7 0 .4-.4.5-.8.5-1.3v-.1c0-.5-.1-.9-.5-1.3-.4-.3-.9-.5-1.4-.5zm30.9-20.6c-.7 0-1.4-.3-2-.8-.6-.6-.9-1.3-.9-2.1s.3-1.5.9-2c.6-.6 1.2-.8 2-.8s1.5.3 2.1.9c.5.5.8 1.2.8 2 0 .7-.3 1.4-.8 2-.6.6-1.3.8-2.1.8zm0-4.2c-.3 0-.6.1-.9.4-.3.3-.4.6-.4.9 0 .4.1.7.4 1 .3.3.6.4.9.4.4 0 .7-.1 1-.4.2-.3.4-.6.4-.9 0-.4-.1-.7-.4-.9-.3-.3-.6-.5-1-.5z"/></svg>