<svg xmlns="http://www.w3.org/2000/svg" width="80" height="1200"><path d="M31.1 68.97a.715.715 0 01-.6-.33l-3-4.46a15.973 15.973 0 01-8-.67l-1-.41c-.1-.02-.1-.04-.2-.06l-3.6 3.3a.743.743 0 01-.9.09.688.688 0 01-.3-.83l1.3-4.81c-.1-.02-.1-.03-.1-.04a14.375 14.375 0 01-4.2-5.33 6.248 6.248 0 01-.6-1.25l-4.1.09a.667.667 0 01-.7-.55.71.71 0 01.3-.85L9 50.83c-.369-2.474-.129-5 .7-7.36a.164.164 0 00.1-.17l-4.3-3.27a.9.9 0 01-.2-.87.709.709 0 01.8-.46l5.7.74a14.646 14.646 0 013.3-3.33l-1.3-4.4a.728.728 0 01.3-.86.744.744 0 01.9.1l3.5 3.24c1.229-.515 2.5-.92 3.8-1.21l1.2-4.79a.72.72 0 01.7-.58.7.7 0 01.7.51l1.6 4.86c.707.08 1.408.203 2.1.37.473.1.94.224 1.4.37.1.04.2.07.3.11l2.9-2.561a.74.74 0 01.9-.05.62.62 0 01.315.818l-.016.032-1.1 3.31a14.953 14.953 0 014.1 3.64l6.701-1.21a.725.725 0 01.799.42.633.633 0 01-.189.874l-.01.006-5 4.29c.691 1.754.999 3.637.901 5.52l5.4 3.05a.7.7 0 01.299.84.713.713 0 01-.699.55l-5.701-.04a.621.621 0 00-.1.4 12.731 12.731 0 01-1.7 3.3l3 4.93a.723.723 0 010 .88.693.693 0 01-.901.24l-4.9-2.62a13.342 13.342 0 01-3.7 2.35l.3 5.38a.779.779 0 01-.5.75.973.973 0 01-.299.041zm-2.6-6.03l1.7 2.57-.2-3.15v-.02l-.1-3.19a2.167 2.167 0 00-.9-.97 1.437 1.437 0 00-1.2-.01 2.157 2.157 0 00-1.1.84 1.4 1.4 0 00-.1 1.09l1.9 2.84zm-17-8.78c.1.2.2.4.3.59a13.965 13.965 0 003.9 4.88c.092.099.192.189.3.27a.676.676 0 01.3.81l-.7 2.82 2.1-1.97a.85.85 0 01.9-.11c.18.077.348.178.5.3l.9.37c2.118.731 4.376.967 6.6.69l-1.3-1.98c0-.05-.1-.1-.1-.16a2.834 2.834 0 01.2-2.36 3.108 3.108 0 011.9-1.53 2.818 2.818 0 012.4.09 3.37 3.37 0 011.6 1.82.286.286 0 01.1.26l.1 2.25a10.723 10.723 0 003.1-2.19.773.773 0 01.9-.14l2.9 1.57-1.8-3.06a.803.803 0 010-.82 10.534 10.534 0 001.7-3.25c.123-.305.224-.619.3-.939a.773.773 0 01.7-.55l3.4.03-3.2-1.87a.698.698 0 01-.4-.69c.1-1.637-.104-3.277-.6-4.84l-.3.28c-.1.03-.1.06-.1.09a3.368 3.368 0 01-2.5.21 1.539 1.539 0 01-.2-.05 4.102 4.102 0 01-1.5-1.46 2.747 2.747 0 01-.2-2.36v-.22a4.367 4.367 0 011.6-1.46.274.274 0 01.2-.07l.2-.05a13.271 13.271 0 00-3.6-3 .69.69 0 01-.4-.88l.5-1.3-1.3 1.1a.772.772 0 01-.9.08c-.156-.1-.324-.18-.5-.24-.4-.12-.8-.23-1.2-.32a15.351 15.351 0 00-2.4-.38.6.6 0 01-.6-.51l-1-2.8-.6 2.69a.778.778 0 01-.6.56c-1.16.213-2.298.531-3.4.95l2.1 1.89c.037.072.07.145.1.22.383.73.523 1.564.4 2.38a2.57 2.57 0 01-1.6 1.9 2.69 2.69 0 01-2.3.36 2.85 2.85 0 01-2-1.24c0-.08-.1-.16-.1-.24l-.7-2.92a12.319 12.319 0 00-2.8 2.98.67.67 0 01-.7.34l-3.5-.439 2.6 1.939c.3.186.393.578.208.878l-.008.012c-.1.24-.2.47-.3.68a13.213 13.213 0 00-.7 5.93l2.4-1.52c.064-.031.132-.058.2-.08a2.916 2.916 0 012.4.25c.729.32 1.252.979 1.4 1.76a3.332 3.332 0 01-.2 2.21 2.84 2.84 0 01-1.8 1.53.678.678 0 01-.2.03h-3.1zm-1.299-2.28l-1.5.82 1.8-.03h4c.314-.15.563-.41.7-.73.215-.361.286-.789.2-1.2a1.27 1.27 0 00-.7-.77 1.365 1.365 0 00-1.1-.2l-3.4 2.08v.03zm25.9-8.27c.395.121.819.099 1.2-.06l1-.94h.1l3.3-2.84-5.8 1.08a2.342 2.342 0 00-.8.771c-.122.395-.087.821.1 1.189.208.354.523.634.9.8zm-18.4-3.55c.252.3.61.49 1 .53 0 .01.1.02.1.03a1.13 1.13 0 001.1-.2c.1-.03.1-.06.2-.09.37-.118.642-.436.7-.82a2.025 2.025 0 00-.2-1.31l-2.8-2.58v-.01L16 33.96l.7 2.23v.03l1.001 3.84zm31.5 28.17A5.097 5.097 0 0147 67.8c-1.799-.98-3.5-1.99-5.199-3.02a.774.774 0 11.9-1.26 52.537 52.537 0 005 2.96c.475.195.986.284 1.5.26a2.888 2.888 0 001.199-.27C62 60.24 69.301 52.9 72 44.68a36.62 36.62 0 001.5-10.71V22.79a5.104 5.104 0 00-1.299-3.43 7.168 7.168 0 00-3.6-2.43l-16.1-4.61a15.67 15.67 0 00-3.301-.87 12.677 12.677 0 00-3.6.86l-15.9 4.63a7.7 7.7 0 00-3.7 2.39 5 5 0 00-1.1 3.46v2.68a.8.8 0 01-.8.75.714.714 0 01-.701-.727l.001-.023v-2.68a6.56 6.56 0 011.4-4.39 9.196 9.196 0 014.4-2.88l16-4.63a13.616 13.616 0 014-.93 14.31 14.31 0 013.799.94l16 4.61a8.724 8.724 0 014.4 2.92 6.464 6.464 0 011.6 4.36v11.18a39.875 39.875 0 01-1.5 11.15c-2.9 8.63-10.5 16.24-22.4 22.67a4.524 4.524 0 01-1.898.44zm-24.3-17.5h-.2a2.446 2.446 0 01-1.8-1 2.521 2.521 0 01-.7-1.88 2.763 2.763 0 011-1.82 2.242 2.242 0 011.9-.62c.693.048 1.34.368 1.8.89.465.519.715 1.194.7 1.89a3.1 3.1 0 01-.9 1.84 2.916 2.916 0 01-1.8.7zm-.1-3.84a.77.77 0 00-.6.24 1.195 1.195 0 00-.5.81 1.29 1.29 0 001.2 1.3 1.28 1.28 0 00.8-.32c.194-.239.331-.52.4-.82.001-.3-.105-.591-.3-.82a1.168 1.168 0 00-.8-.38 1.334 1.334 0 00-.2-.01zm.999 94.29a.767.767 0 01-.4-.12l-4-2.59a.46.46 0 00-.2-.2l-7.6-10.91a2.087 2.087 0 01-.2-.21l-1.2-4.061-3.6-3.71c0-.08-.1-.18-.1-.28l-2.2-6.53a.776.776 0 01.5-.94.685.685 0 01.9.48l2.1 6.36 1.7 1.77-.4-1.96a.555.555 0 01.1-.55l5.2-8.57c.107-.136.244-.246.4-.32l2.5-.78v-3.01l-4.2-2.37a1.031 1.031 0 01-.4-.53c.01-.221.079-.436.2-.62l1.5-1.65a.74.74 0 01.8-.2l3.1 1.11 1-4.37-4.7-.42a.8.8 0 01-.7-.81.784.784 0 01.8-.68l5.6.5a.664.664 0 01.5.3c.13.171.167.396.1.6l-1.3 6.03a.934.934 0 01-.4.49.676.676 0 01-.6.05l-3.4-1.22-.6.58 3.8 2.13a.65.65 0 01.4.65v3.98a.725.725 0 01-.5.71l-2.7.87-5 8.07.7 2.84.6-.72a.69.69 0 01.9-.16l9.5 5.33a.821.821 0 01.4.63l.1 4.38v.25l-1.3 4.02 2.9 5.24a.66.66 0 01-.1.92.639.639 0 01-.5.201zm-3.4-3.88l1.2.8-1.6-2.83a1.219 1.219 0 01-.1-.59l1.4-4.22-.1-3.83-8.6-4.82-.9 1.07 1.1 3.72 7.6 10.7zm17-.85l-.1-.01-1.4-.15a.869.869 0 01-.6-.52L34 124.99l-2.6.63a.585.585 0 01-.6-.16l-4.1-3.44a.724.724 0 01-.1-.97l2.8-4.33a.318.318 0 01.3-.27l5.4-2.54a.738.738 0 01.6-.02.765.765 0 01.4.43l.5 1.29 4.5.32a.935.935 0 01.5.23l3.701 3.99a.742.742 0 01-.1 1.06.685.685 0 01-.969-.006c-.012-.011-.021-.022-.031-.034l-3.5-3.77-4.701-.33a.8.8 0 01-.7-.49l-.3-.98-4.5 2.1-2.3 3.61 3.2 2.77 3-.71a.842.842 0 01.9.51l3.3 10.98.5.06 2.6-2.76a.677.677 0 011-.05.744.744 0 01.113 1.043l-.014.017-2.8 3.04a.993.993 0 01-.599.24zm8.799-15.99a.622.622 0 01-.5-.22l-5-4.93a.834.834 0 01-.199-.82l.4-.85-2.401-1.7h-3.1a.844.844 0 01-.4-.1l-1.4-.78-4.3 2.57a.726.726 0 01-.7.03.753.753 0 01-.4-.59l-.3-2.64a.912.912 0 01.1-.52l1-1.39c.087-.098.188-.182.3-.25l3.3-1.48.7-1.49a.488.488 0 01.4-.39.748.748 0 01.6.05l1.8 1 1.7-2.83-1-.7-1 1.37a.649.649 0 01-.888.228l-.013-.007-2.7-1.54a.737.737 0 01-.4-.561.718.718 0 01.2-.63l4.1-3.84a.741.741 0 01.8-.15l3.099 1.23 1.6-.66 2.4-6.75a.788.788 0 011-.46.676.676 0 01.4.96l-2.5 7.07a.557.557 0 01-.4.44l-2.199.9a.883.883 0 01-.6 0l-3-1.17-2.9 2.82 1.2.7 1-1.43a.775.775 0 01.5-.31.948.948 0 01.6.13l2.099 1.55c.309.227.395.65.201.98l-2.3 4.03a.764.764 0 01-1 .29l-1.8-.97-.5 1.02a.8.8 0 01-.4.37l-3.3 1.51-.7 1 .2 1.2 3.6-2.19a.835.835 0 01.8-.01l1.6.9h3.2a.71.71 0 01.4.14l3.1 2.19a.944.944 0 01.201.9l-.4.93 4.199 4.15 3.5-2.27a.759.759 0 01.6-.09.82.82 0 01.5.4l.6 1.24a.733.733 0 01-.346.977c-.018.008-.035.016-.055.023a.78.78 0 01-1-.35l-.199-.48-3.301 2.13a.563.563 0 01-.393.12h-.005zM28.4 107.91a.582.582 0 01-.5-.24.736.736 0 01-.018-1.042l.018-.018 2.8-2.59a.806.806 0 011.1.04.673.673 0 01-.1 1.06l-2.7 2.59a1.102 1.102 0 01-.6.2zm-3-7.03a.488.488 0 01-.4-.14.56.56 0 01-.3-.71l.9-6.53-3.5-1.34a.75.75 0 01-.4-.96.8.8 0 011-.43l4 1.54a.9.9 0 01.5.81l-.8 5.67 3.8-1.99 2.3-5.08-1.9-2.38a.726.726 0 01.068-1.024l.031-.026a.8.8 0 011.1.13l2.1 2.74c.18.212.219.509.1.76l-2.6 5.73a.602.602 0 01-.3.36l-5.4 2.79a.698.698 0 01-.299.08zm9.3 44.48c-15.871-.035-28.709-12.929-28.674-28.8.034-15.871 12.929-28.708 28.8-28.674 15.864.035 28.7 12.919 28.674 28.784v1.45a.739.739 0 01-.8.74.712.712 0 01-.701-.721l.001-.019v-1.45c.035-14.981-12.082-27.155-27.064-27.19H34.7c-14.897-.125-27.075 11.851-27.2 26.748a32.56 32.56 0 000 .442c-.031 14.991 12.096 27.168 27.086 27.2h.114a27.84 27.84 0 009.701-1.65.706.706 0 01.9.441.679.679 0 01-.4.96A29.743 29.743 0 0134.7 145.36zm23.7 6.63a3.044 3.044 0 01-1.301-.28c-6.6-3.61-10.799-7.89-12.299-12.74a21.097 21.097 0 01-.9-6.26v-6.17a4.077 4.077 0 01.9-2.66 5.183 5.183 0 012.6-1.69l8.699-2.6a10.219 10.219 0 012.301-.48c.752.058 1.492.22 2.199.48l8.9 2.59a4.917 4.917 0 012.5 1.72 3.965 3.965 0 011 2.64v6.17a24.66 24.66 0 01-.799 6.23c-1.701 4.88-5.9 9.16-12.5 12.76a2.884 2.884 0 01-1.3.29zm0-31.38a8.44 8.44 0 00-1.801.41l-8.799 2.6a3.689 3.689 0 00-1.801 1.19 2.535 2.535 0 00-.6 1.73v6.17c0 1.967.27 3.926.801 5.82 1.4 4.45 5.299 8.45 11.6 11.86.387.155.818.147 1.199-.02 6.301-3.4 10.201-7.39 11.701-11.87.533-1.884.803-3.833.799-5.79v-6.17a2.463 2.463 0 00-.6-1.7 3.44 3.44 0 00-1.9-1.23l-8.799-2.58a7.867 7.867 0 00-1.8-.42zm-5.699 111.32a3.273 3.273 0 01-3.6-3.631v-1.41h-18.6v1.41c0 2.34-1.3 3.63-3.7 3.63a3.272 3.272 0 01-3.6-3.631v-1.41c-8.6 0-12.9-4.35-12.9-12.95v-33.05c0-8.59 4.3-12.94 12.9-12.94H56.3c8.6 0 12.9 4.35 12.9 12.94v33.05c0 8.58-4.299 12.94-12.9 12.95v1.41c.001 2.342-1.2 3.632-3.599 3.632zm-2.099-5.04v1.41c0 1.51.6 2.12 2.1 2.12s2.1-.61 2.1-2.12v-1.41H50.6h.002zm-25.901 0v1.41c0 1.51.6 2.12 2.1 2.12 1.6 0 2.2-.61 2.2-2.12v-1.41h-4.3zm30.901-1.51h.699c7.701 0 11.4-3.74 11.4-11.44v-33.05c0-7.69-3.699-11.43-11.4-11.43H23.202c-7.7 0-11.4 3.74-11.4 11.43v33.05c0 7.7 3.7 11.44 11.4 11.44h32.4zm.199-6.4H23.702c-3.6 0-5.5-1.92-5.5-5.54V181.4c0-3.63 1.9-5.55 5.5-5.55h32.099c3.6 0 5.5 1.92 5.5 5.55v1.14c.559.125 1.074.39 1.5.77.59.608.912 1.424.9 2.27v5.54a2.931 2.931 0 01-.9 2.17c-.4.433-.924.732-1.5.86v6.53c.559.125 1.074.39 1.5.77a3.18 3.18 0 01.9 2.27v5.54a3.065 3.065 0 01-.9 2.2c-.418.404-.936.69-1.5.83v1.15c0 3.62-1.901 5.54-5.5 5.54zm-32.099-41.61c-2.8 0-4 1.24-4 4.03v32.04c0 2.79 1.2 4.03 4 4.03h32.099c2.801 0 4-1.24 4-4.03v-1.12a2.677 2.677 0 01-1.5-.87 3.078 3.078 0 01-.9-2.19v-5.54a3.076 3.076 0 01.9-2.23c.393-.438.922-.73 1.5-.83v-6.49a2.634 2.634 0 01-1.5-.92 2.822 2.822 0 01-.9-2.13v-5.54a3.076 3.076 0 01.9-2.23c.393-.438.922-.73 1.5-.83v-1.12c0-2.79-1.199-4.03-4-4.03H23.702zm36.8 24.73a1.754 1.754 0 00-1.201.46c-.25.336-.389.741-.4 1.16v5.54c.014.434.193.845.5 1.15.277.313.682.482 1.1.46h.1c.418.004.818-.17 1.1-.48a1.65 1.65 0 00.5-1.13v-5.54a1.7 1.7 0 00-.5-1.18 1.583 1.583 0 00-1.1-.44h-.1.001zm0-18.13a1.743 1.743 0 00-1.201.45c-.25.336-.389.741-.4 1.16v5.54c-.027.4.119.794.4 1.08.305.342.742.535 1.201.53h.1c.424.001.826-.185 1.1-.51.301-.289.48-.683.5-1.1v-5.54a1.7 1.7 0 00-.5-1.18 1.571 1.571 0 00-1.1-.43h-.1zm-25.001 24.28a10.426 10.426 0 01-7.6-3.19c-4.233-4.186-4.271-11.012-.085-15.245l.085-.085c4.186-4.225 11.003-4.257 15.229-.072l.07.072c4.234 4.187 4.271 11.012.086 15.245l-.086.085a10.48 10.48 0 01-7.699 3.19zm0-20.2a8.99 8.99 0 00-6.6 2.75 9.399 9.399 0 000 13.19 8.989 8.989 0 006.6 2.75c5.161 0 9.344-4.185 9.344-9.346s-4.183-9.344-9.344-9.344zm0 13.95a4.756 4.756 0 01-4.6-4.58 4.431 4.431 0 014.6-4.59 4.666 4.666 0 013.3 1.27 4.602 4.602 0 011.3 3.32 4.284 4.284 0 01-1.3 3.2 4.441 4.441 0 01-3.3 1.38zm0-7.65a3.145 3.145 0 00-2.2.86 2.974 2.974 0 00-.9 2.21 2.863 2.863 0 00.9 2.13 3.19 3.19 0 002.2.94 2.882 2.882 0 002.2-.92c.584-.562.909-1.34.9-2.15a3.135 3.135 0 00-.9-2.25 3.07 3.07 0 00-2.2-.82zm36.7 117.58H56c-3.1 0-4.699-1.72-4.699-4.84v-9.17c0-3.11 1.6-4.83 4.699-4.83h.701v-3.66a7.228 7.228 0 012.1-5.04 7.545 7.545 0 0110.6-.01 7.283 7.283 0 012.1 5.05v3.66h.699c3.1 0 4.801 1.72 4.801 4.83v9.17c-.001 3.12-1.7 4.84-4.8 4.84zM56 294.6c-2.199 0-3.199 1.02-3.199 3.32v9.17c0 2.3 1 3.33 3.199 3.33h16.201c2.299 0 3.299-1.03 3.299-3.33v-9.17c0-2.3-1-3.32-3.299-3.32H56zm2.201-1.51H70v-3.63a5.492 5.492 0 00-1.699-4 5.928 5.928 0 00-8.383-.008l-.018.019a5.454 5.454 0 00-1.701 4.01v3.61h.002zm-23.5 18.84a30.402 30.402 0 01-22.4-9.39c-12.4-12.535-12.4-32.715 0-45.25 12.256-12.371 32.219-12.465 44.59-.209.07.069.141.139.209.209a31.122 31.122 0 019.4 22.65v.55a.808.808 0 01-.799.76.722.722 0 01-.701-.744v-.566a29.653 29.653 0 00-8.9-21.59c-11.764-11.816-30.878-11.858-42.695-.095l-.104.105c-11.732 11.975-11.732 31.135 0 43.11a30.33 30.33 0 0035.901 5.32.698.698 0 01.963.225c.014.021.025.043.037.065a.737.737 0 01-.262 1.009c-.014.008-.025.015-.039.021a30.58 30.58 0 01-15.2 3.82zm29.401-7.36a.713.713 0 01-.701-.727v-2.693a.723.723 0 01.686-.759h.016a.809.809 0 01.799.76v2.67a.8.8 0 01-.801.75l.001-.001zm-20.401-8.76h-18c-4.4 0-6.7-2.35-6.7-6.8v-18.14c0-4.45 2.3-6.8 6.7-6.8h18c4.4 0 6.799 2.35 6.799 6.8v18.14c0 4.45-2.4 6.8-6.799 6.8zm-18-30.23c-3.6 0-5.2 1.68-5.2 5.29v18.14c0 3.61 1.6 5.29 5.2 5.29h18c3.6 0 5.299-1.68 5.299-5.29v-18.14c0-3.61-1.699-5.29-5.299-5.29h-18zm9 24.43a9.89 9.89 0 01-7.1-2.93 10.3 10.3 0 010-14.33 9.83 9.83 0 017.1-2.99 9.48 9.48 0 017.1 3 9.59 9.59 0 013 7.13 9.699 9.699 0 01-3 7.19 9.6 9.6 0 01-7.1 2.93zm0-18.74a8.012 8.012 0 00-6 2.55 8.59 8.59 0 006 14.68 7.924 7.924 0 006-2.5 8.422 8.422 0 000-12.17 7.801 7.801 0 00-6-2.56zM57.9 391.93a1.15 1.15 0 01-.4-.08c-7.699-4.11-12.699-9.09-14.6-14.8a29.869 29.869 0 01-.9-7.49V362a3.193 3.193 0 012.4-3.04l11.5-3.33a6.902 6.902 0 012-.48 7.228 7.228 0 012.1.49l11.5 3.32a3.282 3.282 0 012.4 2.96v7.64c.088 2.532-.25 5.06-1 7.48-1.799 5.72-6.799 10.7-14.699 14.81a.69.69 0 01-.301.08zm0-35.27a7.175 7.175 0 00-1.5.42l-11.6 3.33a1.73 1.73 0 00-1.299 1.65v7.5a26.294 26.294 0 00.9 7.06c1.699 5.2 6.299 9.82 13.5 13.7 7.299-3.88 11.9-8.5 13.6-13.74.619-2.284.922-4.643.9-7.01V362a1.727 1.727 0 00-1.301-1.59l-11.5-3.33a7.33 7.33 0 00-1.7-.42zm-20.299 25.45v-.01a3.05 3.05 0 01-1.5-.59c0-.03-.1-.06-.1-.09a90.659 90.659 0 01-8-8.95 2.299 2.299 0 010-3.02 13.703 13.703 0 019.6-3.97c.6 0 1.3.03 2.1.1a.814.814 0 01.7.82.826.826 0 01-.9.69 18.861 18.861 0 00-1.9-.1 12.187 12.187 0 00-8.5 3.52c-.1.1-.3.36.1 1.13 1.1 1.45 3.7 4.39 7.8 8.68.218.125.454.216.7.27.219-.034.425-.124.6-.26l1.9-2.03a.794.794 0 011.099-.01c.297.29.301.764.012 1.059l-.012.011-2 2.06a2.66 2.66 0 01-1.6.68c.001.01.001.01-.099.01zm-14-15.68a2.988 2.988 0 01-2.2-1.03l-4.6-5.21c-.8-.9-1.3-2.35 0-4.31a.113.113 0 00.1-.12 29.027 29.027 0 0120.7-8.57 28.225 28.225 0 0117.2 5.59.744.744 0 01.215 1.029l-.014.021a.8.8 0 01-1.1.16 26.838 26.838 0 00-16.3-5.29 27.5 27.5 0 00-19.6 8.1c-.8 1.25-.5 1.95-.1 2.41l4.6 5.16c.5.55 1.3.98 2.6-.18a19.112 19.112 0 0112.5-4.66c.6 0 1.3.04 2.1.11a.806.806 0 01.7.82.9.9 0 01-.9.68c-.7-.06-1.3-.1-1.9-.1a17.562 17.562 0 00-11.5 4.3 3.805 3.805 0 01-2.501 1.09zm-10.8-13.15a2.867 2.867 0 01-1.9-.86l-4.7-5.23a3.686 3.686 0 01-.1-4.74c.1-.03.1-.05.1-.08 8.8-8.87 19.4-13.39 31.4-13.42 12.1.03 22.7 4.55 31.5 13.42.1.03.1.06.1.09a3.62 3.62 0 010 4.69l-4.6 5.23a2.877 2.877 0 01-4.068.111l-.031-.031c0-.02-.1-.03-.1-.05-12.219-12.564-32.309-12.845-44.874-.627-.212.206-.421.415-.627.627a3.295 3.295 0 01-2.1.87zm48.599-1.97c.525.58 1.422.624 2.002.098.035-.031.066-.064.098-.098l4.5-5.13a2.114 2.114 0 000-2.79c-8.5-8.55-18.699-12.9-30.4-12.93-11.6.03-21.8 4.39-30.3 12.94-.7.806-.7 2.004 0 2.81l4.7 5.15a1.22 1.22 0 001.901-.07c12.802-13.111 33.808-13.362 46.919-.56.198.191.391.384.58.58zM59.301 472c-9.223.052-16.742-7.384-16.793-16.606a16.692 16.692 0 014.893-11.903c6.543-6.543 17.15-6.548 23.699-.01 6.533 6.553 6.533 17.156 0 23.709A16.517 16.517 0 0159.301 472zm0-31.93c-8.42-.031-15.27 6.77-15.301 15.189a15.236 15.236 0 004.5 10.87 15.003 15.003 0 0010.801 4.37 15.312 15.312 0 0010.799-4.38c5.867-5.997 5.867-15.583 0-21.58a15.193 15.193 0 00-10.799-4.469zM47.9 467.41a.617.617 0 01-.5-.221.736.736 0 01-.018-1.042l.018-.018 22.7-22.639a.669.669 0 01.943-.058c.02.019.039.037.057.058a.723.723 0 010 1.049l-22.7 22.65a.619.619 0 01-.5.221zm-12.4.99a.712.712 0 01-.701-.722l.001-.019v-14.12a.72.72 0 01.689-.75h.011a.806.806 0 01.8.75v14.12a.802.802 0 01-.8.741zm-30.701-.041l-.1-.01a.841.841 0 01-.7-.84l1.5-11.62a21.811 21.811 0 016.3-12.649 14.667 14.667 0 012.2-1.92.69.69 0 011 .159.726.726 0 01-.068 1.024l-.031.026a19.393 19.393 0 00-7.9 13.55L5.5 467.7a.663.663 0 01-.665.661l-.036-.002zm27.8-13.569a.702.702 0 01-.5-.17l-18.8-15.41a.8.8 0 01-.3-.63.68.68 0 01.3-.59l6.2-3.771v-8.01c0-1.94.1-3.84.2-5.66.1-.91.2-1.79.3-2.66.7-4.68 1.7-7.49 3.1-8.63a3.884 3.884 0 013.5-1h.1c1.366.37 2.677.918 3.9 1.63a10.99 10.99 0 004.7 1.66h.5a10.704 10.704 0 004.6-1.66v-.01a16.662 16.662 0 014-1.62 4.125 4.125 0 013.701 1.03c1.6 1.439 2.699 5.13 3.199 11.27 0 .18.1.41.1.61.1 1.51.201 3.229.201 5.04v8.01l3.9 2.37a.807.807 0 01.199 1.03.714.714 0 01-.973.267l-.027-.017-3.799-2.28-14.8 15.82a.787.787 0 01-1.1 0l-14.9-15.82-5.1 3.12 18 14.75a.745.745 0 01.2 1.05.913.913 0 01-.601.281zM21 434.34l14.5 15.47 14.6-15.47v-8.13c0-1.771-.1-3.44-.201-4.979 0-.19-.1-.331-.1-.48-.6-7.11-1.799-9.54-2.699-10.34a2.617 2.617 0 00-2.4-.68c-1.26.333-2.471.831-3.6 1.48a11.91 11.91 0 01-5.3 1.83h-.5c-1.4 0-3.1-.6-5.4-1.84a11.75 11.75 0 00-3.5-1.45c0-.01-.1-.01-.1-.02a2.312 2.312 0 00-2.2.67c-.8.63-1.9 2.44-2.6 7.68-.1.85-.2 1.73-.3 2.63-.1 1.75-.2 3.601-.2 5.5v8.129zm36.9-6.14a.681.681 0 01-.201-.021 80.182 80.182 0 00-44.299 0 .72.72 0 01-.893-.49l-.008-.029a.74.74 0 01.5-.92 81.784 81.784 0 0145.1 0 .742.742 0 01.5.92.75.75 0 01-.699.54zm-16.099 7.54a4.412 4.412 0 01-3.201-1.37 4.223 4.223 0 01-1.3-3.17.714.714 0 01.677-.749l.023-.001h7.6a.8.8 0 01.801.75 4.723 4.723 0 01-4.6 4.54zm-2.901-3.801c.084.52.329.998.7 1.37a3.183 3.183 0 002.201.931 2.824 2.824 0 002.1-.92c.42-.369.732-.847.9-1.381H38.9zm-9.7 3.801a4.418 4.418 0 01-3.2-1.38 4.186 4.186 0 01-1.3-3.16.714.714 0 01.677-.749l.023-.001H33a.8.8 0 01.8.75 4.72 4.72 0 01-4.6 4.54zm-2.901-3.801c.122.527.401 1.005.8 1.37a2.8 2.8 0 002.1.931 2.68 2.68 0 002.1-.92c.421-.369.732-.847.9-1.381h-5.9zM70.201 552a.808.808 0 01-.801-.75V533H16.101v18.25a.806.806 0 01-.8.75.72.72 0 01-.7-.739V522.65a.72.72 0 01.689-.75h.011a.805.805 0 01.8.75v8.85H69.4v-28.25c0-4.95-2.199-7.25-7.199-7.25h-19.6a.752.752 0 11-.001-1.5h19.6c5.699 0 8.699 3.03 8.699 8.75v48a.72.72 0 01-.689.75h-.009zm-39.1-27.3h-7.8a2.487 2.487 0 01-2.7-2.75v-18.7a2.486 2.486 0 012.7-2.75h7.8a2.487 2.487 0 012.7 2.75v18.7a2.487 2.487 0 01-2.7 2.75zm-7.8-22.7a1.018 1.018 0 00-1.2 1.25v18.7a1.018 1.018 0 001.2 1.25h7.8a1.02 1.02 0 001.2-1.25v-18.7a1.018 1.018 0 00-1.2-1.25h-7.8zm-8 14.45a.72.72 0 01-.7-.739V509.8a.72.72 0 01.689-.749l.011-.001a.806.806 0 01.8.75v5.9a.808.808 0 01-.8.75zm0-10.9a.72.72 0 01-.7-.739v-1.561a12.179 12.179 0 01.6-4.01.8.8 0 011-.44.679.679 0 01.4.96 11.922 11.922 0 00-.5 3.49v1.55a.806.806 0 01-.8.75zm4.1-8.9a.734.734 0 01-.7-.48.886.886 0 01.4-.97 11.701 11.701 0 014.2-.7h1.5a.752.752 0 010 1.5h-1.5a9.715 9.715 0 00-3.6.6 1.053 1.053 0 01-.3.05zm16.3-.65h-6a.752.752 0 010-1.5h6a.752.752 0 010 1.5zm-8.5 25.35a3.41 3.41 0 01-2.5-1.02 3.576 3.576 0 010-4.96 3.574 3.574 0 015 0 3.576 3.576 0 010 4.96 3.415 3.415 0 01-2.5 1.02zm0-5.5a1.833 1.833 0 00-1.4.58 1.98 1.98 0 000 2.84 1.98 1.98 0 002.8 0 1.98 1.98 0 00.04-2.8l-.04-.04a1.838 1.838 0 00-1.4-.58zm0-5a3.41 3.41 0 01-2.5-1.02 3.576 3.576 0 010-4.96 3.574 3.574 0 015 0 3.576 3.576 0 010 4.96 3.415 3.415 0 01-2.5 1.02zm0-5.5a1.833 1.833 0 00-1.4.58 1.98 1.98 0 000 2.84 1.98 1.98 0 002.8 0 1.98 1.98 0 00.04-2.8l-.04-.04a1.838 1.838 0 00-1.4-.58zm-14.1 16.85a.594.594 0 01-.5-.221.736.736 0 01-.018-1.042l.018-.018 4.6-4.6a.681.681 0 011 0 .736.736 0 01.018 1.042l-.018.018-4.5 4.6a.99.99 0 01-.6.221zm28.299-.051a.987.987 0 01-.6-.22l-4.599-4.6c-.2-.325-.2-.735 0-1.061a.8.8 0 011.1 0l4.599 4.601a.736.736 0 01.018 1.042l-.018.018a.734.734 0 01-.5.22zm4.401-14.099h-6.5a.753.753 0 11-.001-1.5h6.5a.752.752 0 01.001 1.5zm-30.599 0h-6.5a.753.753 0 11-.001-1.5h6.5a.752.752 0 01.001 1.5zm20.5-8.55a.594.594 0 01-.5-.221.736.736 0 01-.018-1.042l.018-.018 4.6-4.6a.681.681 0 01.999 0 .736.736 0 01.018 1.042l-.018.018-4.5 4.6a.984.984 0 01-.599.221zm-17 0a.594.594 0 01-.5-.221l-4.6-4.6a.736.736 0 01-.018-1.042l.018-.018a.794.794 0 011.1 0l4.5 4.6a.736.736 0 01.018 1.042l-.018.018a.588.588 0 01-.5.221zm8.5-3.5a.72.72 0 01-.7-.739v-6.511a.72.72 0 01.689-.75h.011a.744.744 0 01.8.75v6.5a.744.744 0 01-.735.752c-.022 0-.045 0-.065-.002zM73.1 630.939H5.6a2.543 2.543 0 01-1.9-.729 2.697 2.697 0 01-.8-1.74 2.287 2.287 0 01.6-1.939L18.4 607.1a2 2 0 011-.85 2.093 2.093 0 011.1-.29h6.9a.723.723 0 01.701.744l-.001.016a.714.714 0 01-.677.749l-.023.001h-6.9a.612.612 0 00-.4.11.726.726 0 00-.4.32c0 .029-.1.06-.1.09L4.7 627.469a.979.979 0 00-.3.851.948.948 0 00.4.829.882.882 0 00.8.28h67.5c.293.016.58-.085.799-.28a1.38 1.38 0 00.4-.87 1.522 1.522 0 00-.299-.84L59.1 607.99a2.71 2.71 0 00-.5-.431 1.283 1.283 0 00-.5-.09h-6.701a.8.8 0 01-.799-.75.808.808 0 01.799-.76H58.1c.42-.019.836.082 1.199.29.389.207.73.493 1 .84l14.9 19.46c.426.527.639 1.194.6 1.87a2.878 2.878 0 01-.9 1.82 2.398 2.398 0 01-1.799.7zm-24.299-.099a.589.589 0 01-.5-.22.75.75 0 01-.012-1.06l.012-.011 3.9-3.979-25.8-6.301v10.811a.725.725 0 01-.685.76H25.7a.81.81 0 01-.8-.76v-11.17l-11.6-2.85a.718.718 0 01-.5-.91.761.761 0 01.9-.561l39.8 9.73 10.699-10.74a.675.675 0 011 .01.75.75 0 01.012 1.06l-.012.011-15.9 15.96a.583.583 0 01-.498.22zM39.4 618.1a2.62 2.62 0 01-2.1-1.18c-7.1-8.8-11.9-15.85-14.4-20.95a18.293 18.293 0 01-1.9-8.34c-.124-10.192 8.038-18.555 18.23-18.679.09-.001.18-.002.27-.001a17.192 17.192 0 0112.901 5.42 18.143 18.143 0 015.4 13.26 19.722 19.722 0 01-1.9 8.34c-2.301 4.99-7.1 12.04-14.301 20.95a3.261 3.261 0 01-2.2 1.18zm.1-47.64a16.197 16.197 0 00-12 4.97 16.562 16.562 0 00-5 12.2 18.119 18.119 0 001.7 7.68c2.4 4.99 7.2 11.94 14.2 20.65.239.331.598.557 1 .63a1.4 1.4 0 001-.66c7.2-8.779 11.901-15.72 14.2-20.6a18.27 18.27 0 001.701-7.7 16.776 16.776 0 00-5-12.2 15.61 15.61 0 00-11.801-4.97zm-.201 23.17a5.813 5.813 0 01-4.2-1.78 6.193 6.193 0 010-8.729 5.811 5.811 0 014.2-1.78 6.101 6.101 0 014.4 1.78 6.438 6.438 0 010 8.72 6.068 6.068 0 01-4.4 1.789zm0-10.78a4.552 4.552 0 00-3.2 1.351 4.477 4.477 0 00-1.3 3.28 4.54 4.54 0 001.3 3.3 4.588 4.588 0 003.2 1.34 4.512 4.512 0 004.601-4.42c0-.073 0-.146-.002-.22a4.501 4.501 0 00-4.599-4.631zM39.701 711a2.857 2.857 0 01-2.5-1.59l-3.3-5.771a.699.699 0 01.201-1.019.853.853 0 011.1.28l3.2 5.729a1.514 1.514 0 002.3.57l30.5-17.55a1.418 1.418 0 00.5-2.24l-19.6-33.99a5.285 5.285 0 00-3.5-2.63l-11-2.9a4.158 4.158 0 00-3.4.42L13.5 662.23a1.476 1.476 0 00-.5 2.3l5.1 8.89a.8.8 0 01-.2 1.03.827.827 0 01-1.1-.28l-5.2-8.92a3.085 3.085 0 011.019-4.242l.081-.048 20.8-11.95a5.501 5.501 0 014.5-.56l10.901 2.88a6.79 6.79 0 014.5 3.35l19.6 34a2.83 2.83 0 01-1.1 4.26L41.4 710.5a3.665 3.665 0 01-1.699.5zm4.799-12.39c-2 0-3.699-1.12-5.099-3.33l-2.9-4.9-6-10.47c-1.9-3.561-1.1-6.53 2.3-8.6l4.6-2.65 4.7-2.69v-.01c3.5-1.95 6.5-1.189 8.701 2.2l2.799 4.859v.011l6.1 10.51v.03c1.9 3.54 1 6.529-2.4 8.67l-4.699 2.7-4.6 2.64a7.112 7.112 0 01-3.502 1.03zm-6.299-8.33l2.5 4.239c1.699 2.73 3.799 3.301 6.6 1.761l3.9-2.261L48 688.39l-2.4 1.36a.8.8 0 01-.6.08.636.636 0 01-.4-.35l-1.2-2.14-5.199 2.94zm11.1-2.64l3.199 5.63 4-2.319c2.801-1.7 3.4-3.83 1.9-6.67l-2.5-4.22-5.199 3.039 1.199 2.15a.726.726 0 01-.258.997l-.041.023-2.3 1.37zM35 684.65l2.5 4.33 5.099-2.94-2.5-4.34L35 684.65zm9.301 1.29l1.199 2.14 2.301-1.36a.156.156 0 01.1-.01l2.299-1.37-5.6-9.88-4.799 2.75 1.2 2.09v.011l3.3 5.629zM37.5 670.33l-3.9 2.27c-2.8 1.65-3.3 3.74-1.8 6.58l2.4 4.17 5.2-2.939-1.3-2.1a.825.825 0 01.3-1.021l2.4-1.37-3.3-5.59zm9.9 7.13l2.5 4.34 5.301-3.04-2.5-4.34-5.301 3.04zm-2.599-3.76c.281.001.541.14.701.37l1.199 2.1 5.201-3.04-2.4-4.189c-1.701-2.7-3.801-3.24-6.701-1.671l-4 2.311 3.3 5.59 2.4-1.37a.509.509 0 01.3-.101zm-16.9 31.31h-16.2c-3.1 0-4.7-1.699-4.7-4.779v-9.08c0-3.09 1.6-4.79 4.7-4.79h.6v-3.59a7.226 7.226 0 012.2-5.011 7.47 7.47 0 015.3-2.17 7.11 7.11 0 015.2 2.16 7.257 7.257 0 012.2 5v3.61h.7c3.1 0 4.8 1.7 4.8 4.79v9.08c0 3.081-1.701 4.78-4.8 4.78zm-16.2-17.15c-2.2 0-3.2 1.02-3.2 3.29v9.08c0 2.27 1 3.29 3.2 3.29h16.2c2.2 0 3.3-1.021 3.3-3.29v-9.08c0-2.271-1.1-3.29-3.3-3.29h-16.2zm2.099-1.5h11.9v-3.59a5.412 5.412 0 00-1.7-3.95 5.846 5.846 0 00-4.2-1.73 5.684 5.684 0 00-4.2 1.73 5.945 5.945 0 00-1.8 3.979v3.561zm6 11.37a.8.8 0 01-.8-.74v-2.65a.8.8 0 01.8-.74.712.712 0 01.701.722l-.001.019v2.65a.71.71 0 01-.7.739zm19.601 94.2a31.176 31.176 0 01-20.6-7.38.86.86 0 01-.1-1.069.8.8 0 011.1-.09c13.014 10.739 32.269 8.896 43.009-4.117 9.32-11.294 9.316-27.613-.01-38.903a.671.671 0 01.1-1.059.681.681 0 01.963.044c.014.015.025.03.037.046a30.64 30.64 0 017.5 20.54c0 17.668-14.324 31.99-31.992 31.989l-.007-.001zM15 785.13a1.064 1.064 0 01-.6-.22.75.75 0 01-.011-1.06l.011-.011 48.9-48.819a.669.669 0 011 0 .748.748 0 01.012 1.059l-.012.011-48.799 48.82a.617.617 0 01-.501.22zm.401-4.33a.56.56 0 01-.5-.27 30.597 30.597 0 01-7.5-20.59c-.093-17.575 14.078-31.897 31.653-31.99h.347a30.698 30.698 0 0120.5 7.479.755.755 0 01.109 1.06l-.01.011a.8.8 0 01-1.1.08 28.967 28.967 0 00-19.5-7.12c-16.855.011-30.511 13.684-30.5 30.539a30.525 30.525 0 007.101 19.551.742.742 0 01-.081 1.045l-.019.016a.64.64 0 01-.5.189zm32.8-3.58a9.15 9.15 0 01-1.801-.17 26.533 26.533 0 01-13.5-6.67.863.863 0 01-.1-1.069.8.8 0 011.1-.061 25.174 25.174 0 0012.8 6.32c3.199.6 5.6-.721 7.5-4.04l.299-2.15-7.299-3.82-3.4 3.521a.775.775 0 01-.801.189 19.124 19.124 0 01-5.599-3.31.671.671 0 01-.1-1.061.685.685 0 011-.11 18.245 18.245 0 004.8 2.88l3.4-3.57a.774.774 0 01.9-.149l8.299 4.34c.273.155.43.457.4.77l-.4 2.83c0 .09-.1.17-.1.25-1.898 3.38-4.398 5.08-7.398 5.08zm-18.6-10.63a.896.896 0 01-.6-.29c-4.1-5.319-6.2-10.189-6.2-14.479 0-3.65 1.8-6.58 5.3-8.7a.675.675 0 01.4-.11l3.7.25a.715.715 0 01.6.54l2.7 8.811a.848.848 0 01-.1.7l-3 3.699a15.6 15.6 0 002.2 3.971.738.738 0 01-.076 1.041l-.023.019a.815.815 0 01-1.1-.12 17.95 17.95 0 01-2.6-4.81.638.638 0 01.1-.72l3-3.721-2.4-7.93-2.8-.2c-3 1.83-4.4 4.22-4.4 7.29 0 3.94 2 8.49 5.9 13.53.269.315.23.79-.086 1.059l-.014.011a.701.701 0 01-.501.159zm20.6-7.16a.74.74 0 01-.701-.689 9.17 9.17 0 00-1.299-3.96.75.75 0 01.271-1.025l.027-.015a.709.709 0 01.975.223c.008.016.018.031.025.047a9.448 9.448 0 011.5 4.601.803.803 0 01-.699.819h-.099zm6.401-.6a.75.75 0 01-.701-.689 16.04 16.04 0 00-3-7.931.727.727 0 01.068-1.024l.031-.025a.8.8 0 011.1.15 16.97 16.97 0 013.301 8.699.814.814 0 01-.701.82h-.1.002zM44.9 751.32a1.526 1.526 0 01-.4-.09 8.417 8.417 0 00-3.6-1.07.789.789 0 01-.7-.811.757.757 0 01.799-.699c1.508.103 2.977.532 4.301 1.26.338.22.465.652.299 1.02a.85.85 0 01-.699.39zm4.6-4.68a.715.715 0 01-.4-.14 15.494 15.494 0 00-7.6-2.689.79.79 0 01-.699-.811.798.798 0 01.799-.689 16.857 16.857 0 018.4 2.949.844.844 0 01.201 1.051.904.904 0 01-.701.329zm14.701 118.18h-20a.762.762 0 110-1.521h20c2.9 0 4.299-1.42 4.299-4.479v-39.131c0-3.05-1.4-4.479-4.299-4.479h-5.1a.745.745 0 01-.799-.687c-.002-.021-.002-.042-.002-.063v-1.47c0-3.09-1.4-4.53-4.4-4.53h-6.1c-3 0-4.4 1.44-4.4 4.53v1.47a.805.805 0 01-.799.75h-5c-3 0-4.4 1.43-4.4 4.479v19.041a.8.8 0 01-.8.75.715.715 0 01-.701-.728l.001-.022v-19.041c0-3.92 2-5.989 5.9-5.989H41.9v-.71c0-3.95 2-6.04 5.9-6.04h6.1c3.9 0 5.9 2.09 5.9 6.04v.71h4.4c3.801 0 5.801 2.069 5.801 5.989v39.131c-.001 3.92-2.001 6-5.8 6zm-13.4-18.79a.746.746 0 01-.799-.687c-.002-.021-.002-.042-.002-.063v-5.54h-5.4a.761.761 0 01-.691-.828.76.76 0 01.691-.692H50v-5.479a.747.747 0 01.8-.761.725.725 0 01.701.745c-.002.005-.002.01-.002.016v5.479H57a.762.762 0 110 1.521h-5.5v5.54a.718.718 0 01-.689.749h-.01zM26.9 872.939a15.067 15.067 0 01-7.8-2.18 15.561 15.561 0 01-7.5-9.83 39.288 39.288 0 01-.4-17.77c.9-4.4 1.1-7.46.8-9.101a.716.716 0 01.475-.893l.025-.007a.737.737 0 01.898.533l.002.007c.5 1.81 3.7 4.51 16.5 7.12.136-.009.271.009.4.05a14.93 14.93 0 014.8 1.95 15.135 15.135 0 017.4 9.76 15.65 15.65 0 01-1.6 12.3 16.18 16.18 0 01-1.299 1.99 49.495 49.495 0 007 3.28.686.686 0 01.4.97.776.776 0 01-.998.451l-.002-.001a51.059 51.059 0 01-7.401-3.53 15.871 15.871 0 01-7.4 4.3c-1.4.391-2.846.593-4.3.601zM13.6 836.54a34.904 34.904 0 01-.9 6.91 36.365 36.365 0 00.4 17.09 14.05 14.05 0 006.7 8.91 13.858 13.858 0 0011 1.43 13.996 13.996 0 006.4-3.61 48.74 48.74 0 01-17.6-18.1.732.732 0 01.252-1.004c.016-.009.031-.018.048-.026a.72.72 0 01.984.262l.016.028a47.11 47.11 0 0017.3 17.7c.512-.634.979-1.302 1.4-2a14.588 14.588 0 001.5-11.16 14.067 14.067 0 00-6.8-8.85 13.091 13.091 0 00-4.3-1.771.451.451 0 01-.2-.01c-8.399-1.699-13.7-3.579-16.2-5.799zm23.2 116.43a1.09 1.09 0 01-.5-.22l-4.7-4.7-.9.88a1.627 1.627 0 01-2.599-.019l-6-6.07a.724.724 0 01-.025-1.024l.025-.025c.504-.602.817-1.34.9-2.12a3.432 3.432 0 00-1-2.05 2.712 2.712 0 00-2-.89 2.638 2.638 0 00-2 .93 1.069 1.069 0 01-.6.229.7.7 0 01-.5-.229l-2.6-2.61a1.82 1.82 0 010-2.7L58.4 887.8a1.789 1.789 0 012.701 0v.011l2.5 2.609c.158.127.236.33.199.53a.675.675 0 01-.199.6 2.885 2.885 0 00-.9 1.99c-.01.778.318 1.522.9 2.04.52.611 1.297.944 2.1.9a2.855 2.855 0 002-.771.475.475 0 01.299-.25.702.702 0 01.801.13l6 6.08a1.852 1.852 0 010 2.73l-.9.92 4.699 4.689c.117.157.188.345.201.54a.956.956 0 01-.201.53l-41.2 41.67a1.045 1.045 0 01-.6.222zm-4.099-5.99l4.1 4.17L77 910.55l-4.1-4.16-40.199 40.59zm-9.1-4.72l5.6 5.601a.488.488 0 00.2.21c.106-.052.207-.115.3-.19l1.4-1.43 41.2-41.66 1.5-1.46c.201-.23.201-.32-.1-.61l-5.4-5.54a4.493 4.493 0 01-2.6.811 4.117 4.117 0 01-3.199-1.34 4.448 4.448 0 01-1.301-3.141c.076-.9.387-1.766.9-2.51l-2.1-2.13c-.299-.29-.199-.29-.5 0L15.403 933.4c-.3.29-.2.369 0 .59l2.1 2.109a4.063 4.063 0 012.5-.869 4.475 4.475 0 013.598 7.03zm8.7-3.83a1.88 1.88 0 01-1.4-.68l-6.3-6.41a1.633 1.633 0 010-2.679l3.9-4.021a1.788 1.788 0 012.7 0l6.4 6.431a1.85 1.85 0 010 2.729l-4 4.021c-.34.361-.805.578-1.3.609zm-2.4-12.9a.334.334 0 00-.3.18l-4 4.021a.281.281 0 000 .54l6.4 6.43a.928.928 0 00.3.22.43.43 0 00.2-.17l4-4.02c.2-.23.3-.32 0-.61l-6.4-6.41a.423.423 0 00-.2-.181zm15.499-.37a1.882 1.882 0 01-1.4-.68l-6.299-6.41a1.567 1.567 0 01-.6-1.34c.014-.512.229-.998.6-1.351l3.901-3.96a1.787 1.787 0 012.699 0l6.4 6.44a1.84 1.84 0 010 2.72l-4 3.97a1.73 1.73 0 01-1.301.611zM43 912.311a.351.351 0 00-.299.18l-3.901 3.97a1.188 1.188 0 00-.3.3c0 .021.1.101.2.24l6.401 6.44a.588.588 0 00.299.22.597.597 0 00.301-.19l3.9-3.949c.199-.23.299-.32 0-.61l-6.4-6.42a.507.507 0 00-.201-.181zm15.5-.371a1.679 1.679 0 01-1.299-.671l-6.4-6.42a1.784 1.784 0 010-2.67l3.9-4.02a1.766 1.766 0 012.699 0l6.4 6.43c.369.374.584.875.6 1.4a1.685 1.685 0 01-.699 1.34l-3.9 4a1.737 1.737 0 01-1.301.611zm-2.4-12.9a.363.363 0 00-.299.2l-3.9 4c-.301.24-.301.3 0 .55l6.299 6.43c.088.089.189.163.301.221a.498.498 0 00.299-.171l3.9-4.02a.377.377 0 00.201-.311.357.357 0 00-.201-.3l-6.299-6.42a.386.386 0 00-.301-.179zm-13.299 47.95a1.053 1.053 0 01-.6-.221l-3-3.02a.736.736 0 01-.018-1.042l.018-.019a.795.795 0 011.1-.01l3 3.01a.75.75 0 01.01 1.06l-.01.011a.598.598 0 01-.5.231zm5.799-5.93a1.038 1.038 0 01-.5-.229l-1.799-1.8a.75.75 0 01-.012-1.06l.012-.011a.8.8 0 011.1 0l1.799 1.81c.293.283.301.75.018 1.043l-.018.018a.998.998 0 01-.6.229zm5.9-5.93a.622.622 0 01-.5-.22l-3-3.021a.736.736 0 01-.018-1.042l.018-.018a.674.674 0 011-.01l3 3.01c.277.29.318.733.1 1.069a.99.99 0 01-.6.232zm5.9-5.941a.591.591 0 01-.5-.22l-1.799-1.8a.75.75 0 01-.012-1.06l.012-.011a.67.67 0 011 0l1.799 1.811a.736.736 0 01.018 1.042l-.018.018a.588.588 0 01-.5.22zm5.901-5.979a.613.613 0 01-.5-.21l-3.1-3.02a.738.738 0 01-.018-1.043l.018-.018a.794.794 0 011.1-.01l3 3.01a.75.75 0 01.012 1.06l-.012.011a.589.589 0 01-.5.22zm5.9-5.93a.595.595 0 01-.5-.221l-1.799-1.81a.736.736 0 01-.018-1.042l.018-.019a.67.67 0 011 0L72.701 916a.736.736 0 01.018 1.042l-.018.018a.588.588 0 01-.5.22zm-25.599 34.28a.987.987 0 01-.6-.22.75.75 0 01-.01-1.059l.01-.012 11.5-11.56a.682.682 0 011 0 .75.75 0 01.012 1.06l-.012.011-11.4 11.56a.998.998 0 01-.502.221l.002-.001zm15.701-15.88a.62.62 0 01-.5-.22.75.75 0 01-.012-1.06l.012-.011 10.699-10.85c.307-.3.795-.3 1.1 0a.736.736 0 01.018 1.042l-.018.018-10.799 10.86a.623.623 0 01-.502.22h.002zm-52.001-6.84a.59.59 0 01-.5-.22.736.736 0 01-.018-1.042l.018-.019 8.6-8.75a.8.8 0 011.1 0c.296.29.3.765.011 1.06l-.011.011-8.7 8.74a.596.596 0 01-.501.22h.001zm-8.7-.3a.75.75 0 01-.5-.22.738.738 0 01-.018-1.043l.018-.018 17.7-17.85a.681.681 0 01.962-.038c.014.013.026.024.038.038.296.289.3.764.011 1.059l-.011.011-17.6 17.841a.996.996 0 01-.603.22h.003zm20.6-11.66a.987.987 0 01-.6-.22.736.736 0 01-.018-1.042l.018-.019 22-22.22a.8.8 0 011.1 0 .75.75 0 01.012 1.06l-.012.011-22 22.21a1.014 1.014 0 01-.5.22zm.7-9.8a.594.594 0 01-.5-.221.736.736 0 01-.018-1.042l.018-.018 7.2-7.34c.306-.3.794-.3 1.1 0a.736.736 0 01.018 1.042l-.018.018-7.3 7.34a.588.588 0 01-.5.221zM52 1031.98c-3.1 0-6.199-.141-9.299-.42a.679.679 0 01-.6-.75v-5.721a51.017 51.017 0 01-2.401 5.65.84.84 0 01-.8.41c-2-.261-4-.591-6-.961a.722.722 0 01-.6-.409.601.601 0 01.1-.69 43.147 43.147 0 004.7-14.89.833.833 0 01.9-.64.699.699 0 01.599.849 46.138 46.138 0 01-4.4 14.49c1.4.25 2.9.49 4.4.689a52.303 52.303 0 003.5-9.899.736.736 0 01.799-.57.69.69 0 01.6.75v10.25c4.258.36 8.533.451 12.801.271l-.201-8.95a.804.804 0 01.6-.761.813.813 0 01.9.53l2.5 8.86c.9-.05 1.701-.09 2.201-.14l-1.201-5.53a.7.7 0 01.494-.858l.006-.002a.739.739 0 01.9.32l3.201 5.67c1.299-.19 2.6-.41 3.9-.64a43.616 43.616 0 01-4.5-14.48.767.767 0 01.6-.85.776.776 0 01.9.64 43.294 43.294 0 004.799 14.89c.1.22.1.472 0 .69a.767.767 0 01-.5.42c-1.9.33-3.799.63-5.5.899a.624.624 0 01-.699-.369l-1.1-1.851.299 1.57a.65.65 0 01-.1.6.702.702 0 01-.5.311c-.6.069-1.9.149-3.699.25a.717.717 0 01-.701-.54l-1.199-3.99.1 4.01a.754.754 0 01-.701.771 108.3 108.3 0 01-5.098.121zm-22.299-6.34a25.165 25.165 0 01-12.2-2.8 10.479 10.479 0 01-5.8-8.57l-4.1-31.13a.692.692 0 01.599-.84.833.833 0 01.9.641l4 31.159a9.077 9.077 0 005.1 7.421 23.777 23.777 0 0011.5 2.62c.9 0 1.7-.041 2.5-.101a.737.737 0 01.8.69.8.8 0 01-.7.81c-.8.07-1.7.1-2.599.1zm0-9.48a.81.81 0 01-.8-.76v-22.02a.8.8 0 01.8-.75.714.714 0 01.701.727l-.001.023v22.021a.723.723 0 01-.685.759h-.015zm-9.6-2.66a.748.748 0 01-.7-.689l-1.8-20.421a.67.67 0 01.6-.82.898.898 0 01.9.689l1.8 20.42a.813.813 0 01-.7.82h-.1zm47.299-1.311H36.301a.713.713 0 01-.701-.727l.001-.023v-5.22a2.808 2.808 0 011-2.08 3.105 3.105 0 012.1-.97l9.1-1.26-1.1-8.49a5.932 5.932 0 011.299-4.4 4.898 4.898 0 013.9-1.76 5.27 5.27 0 014 1.75 5.561 5.561 0 011.201 4.41l-1 8.49 9 1.26a3.511 3.511 0 012.199 1.04c.535.53.855 1.239.9 1.99v5.24a.738.738 0 01-.8.75zm-30.299-1.5h29.6v-4.42a1.725 1.725 0 00-.5-1 1.948 1.948 0 00-1.301-.609l-9.699-1.351a.69.69 0 01-.611-.765c.004-.021.006-.044.012-.064l1-9.23a4.275 4.275 0 00-.801-3.24 3.751 3.751 0 00-2.9-1.25 3.41 3.41 0 00-2.799 1.25 4.351 4.351 0 00-.9 3.25l1.199 9.2a.705.705 0 01-.6.85l-9.9 1.351a1.853 1.853 0 00-1.3.59 1.302 1.302 0 00-.5 1.05v4.388zm3.2-8.829c-.1 0-.1 0-.1-.011a.805.805 0 01-.7-.819l.9-8.78a.7.7 0 01.799-.67c.41.054.711.407.701.82l-.9 8.779a.737.737 0 01-.7.681zm10.5-15.91h-.1a.705.705 0 01-.599-.851l.301-2.16a.682.682 0 01.799-.639.693.693 0 01.613.764c-.004.025-.008.051-.014.076l-.299 2.16a.654.654 0 01-.658.651l-.043-.001zm-21.2-1.7a54.449 54.449 0 01-15.3-1.939 14.658 14.658 0 01-4.5-1.95c-1.5-1.021-2.3-2.181-2.3-3.44 0-1.699 1.2-3.06 3.6-4.06a15.657 15.657 0 013.2-1.28l3.1-.76a.743.743 0 01.9.55.716.716 0 01-.467.9l-.033.01-3.1.75a12.354 12.354 0 00-2.9 1.18c-1.9.78-2.8 1.681-2.8 2.71a2.821 2.821 0 001.6 2.19 14.414 14.414 0 004.1 1.75 59.974 59.974 0 0029.799 0 22.96 22.96 0 004.301-1.84 2.755 2.755 0 001.5-2.101c0-.92-.9-1.819-2.701-2.689a13.346 13.346 0 00-3.1-1.2l-2.699-.7a.788.788 0 01-.6-.91.745.745 0 01.898-.55h.002l2.799.7a15.57 15.57 0 013.4 1.33c2.301 1.12 3.4 2.479 3.4 4.02a4.262 4.262 0 01-2.1 3.37 25.588 25.588 0 01-4.6 2.01 54.732 54.732 0 01-15.399 1.949zm8.4-8.58a.81.81 0 01-.8-.76v-1.2c0-2.22-1-3.21-3.3-3.21h-8.2c-2.3 0-3.4.99-3.4 3.21v1.2a.725.725 0 01-.685.76H21.6a.81.81 0 01-.8-.76v-1.2c0-3.04 1.8-4.72 4.9-4.72h8.2c3.1 0 4.8 1.68 4.8 4.72v1.2a.725.725 0 01-.685.76h-.014zm2.299 132.24a2.847 2.847 0 01-1.6-.67 106.5 106.5 0 01-8.6-9.53c-1-1.61-.4-2.649.1-3.13a14.367 14.367 0 017.5-3.91.754.754 0 11.201 1.491 12.365 12.365 0 00-6.6 3.48c-.1.119-.4.409.1 1.229a104.11 104.11 0 008.3 9.25c.177.135.382.228.6.271.266-.021.514-.14.7-.33.6-.65 1.301-1.311 1.9-1.95a.8.8 0 011.1-.03.748.748 0 01.012 1.059l-.012.012c-.6.649-1.299 1.32-2 2.029a2.81 2.81 0 01-1.599.73H40.3v-.001zm-14.8-16.57a3.024 3.024 0 01-2.3-1.061l-4.9-5.52c-.7-.92-1.3-2.41.1-4.5a.117.117 0 01.1-.13 30.503 30.503 0 0121.8-8.99c4.332-.001 8.619.88 12.599 2.591a.811.811 0 01.4 1 .775.775 0 01-1 .39 30.46 30.46 0 00-12-2.46 29.124 29.124 0 00-20.7 8.5c-.9 1.399-.5 2.17-.2 2.62l4.9 5.47c.5.58 1.3 1.03 2.8-.18a19.755 19.755 0 0111.8-4.86.801.801 0 01.8.7.789.789 0 01-.7.81 18.203 18.203 0 00-10.9 4.511 4.216 4.216 0 01-2.599 1.109zm41-13.89a3.284 3.284 0 01-2.1-.89c-12.939-13.294-34.207-13.579-47.5-.639-.202.197-.401.396-.599.598-1.5 1.24-2.9 1.23-4.2.011l-5-5.48a3.657 3.657 0 01-.1-4.89c.1-.03.1-.061.1-.09 9.4-9.351 20.5-14.11 33.2-14.141 12.701.03 23.9 4.791 33.201 14.141.1.029.1.06.1.09a3.728 3.728 0 010 4.86l-5 5.479v.03a3.226 3.226 0 01-2.102.921zm-26.2-12.56a34.55 34.55 0 0125.2 10.561 1.278 1.278 0 002 .01l5-5.43a2.193 2.193 0 00-.1-2.931c-9-9.029-19.799-13.629-32.099-13.659-12.2.03-23 4.63-32.1 13.659a2.35 2.35 0 000 2.961l5 5.409c.6.64 1.2.63 2-.06a34.609 34.609 0 0125.099-10.52zm15.1 43.02c-8.73.004-15.812-7.07-15.816-15.801s7.07-15.812 15.8-15.815 15.811 7.069 15.816 15.801a15.8 15.8 0 01-4.602 11.155 15.418 15.418 0 01-11.198 4.66zm0-30.26c-7.939 0-14.375 6.436-14.375 14.375 0 7.938 6.436 14.375 14.375 14.375 7.842.055 14.244-6.257 14.301-14.1 0-.094 0-.188-.002-.281.008-7.911-6.386-14.337-14.299-14.369zm1.799 12.36c.566.494.895 1.208.9 1.96a3.035 3.035 0 01-2.799 2.78 2.518 2.518 0 01-1.9-.86 2.296 2.296 0 01-.801-1.92 2.527 2.527 0 01.801-1.96 2.584 2.584 0 011.9-.81 2.43 2.43 0 011.9.81h-.001zm5.5 10.08a.591.591 0 01-.5-.22.749.749 0 01-.01-1.06l.01-.011a9.104 9.104 0 002.801-6.78 9.347 9.347 0 00-2.9-6.819 8.809 8.809 0 00-6.701-2.811 9.396 9.396 0 00-6.9 2.811 9.545 9.545 0 00-2.699 6.819 9.397 9.397 0 002.699 6.78.75.75 0 01.012 1.06l-.012.011a.669.669 0 01-.943.058c-.02-.019-.039-.037-.057-.058a10.599 10.599 0 01-3.299-7.851c.023-6.166 5.033-11.149 11.199-11.14a10.618 10.618 0 017.801 3.25 10.752 10.752 0 013.299 7.89 10.595 10.595 0 01-3.299 7.851.598.598 0 01-.498.22h-.003zm-7.199-7.46a.86.86 0 01-.6-.319.843.843 0 01.199-1.051l10-7.21a.687.687 0 011 .17.738.738 0 01-.099 1.061l-10 7.21a1.055 1.055 0 01-.5.139zM53.1 1188a.72.72 0 01-.699-.739v-33.072a.729.729 0 01.299-.629l9.1-5.601a.658.658 0 01.701-.021.675.675 0 01.4.66v34.9c-.1 2.83-1.701 4.42-4.5 4.5H53.1v.002zm.8-1.5h4.5c2-.05 2.9-.99 3-3.02v-33.53l-7.5 4.659v31.891zm-5.201 1.5h-8.9a.744.744 0 01-.798-.686l-.001-.064v-24.67a.643.643 0 01.4-.63l8.901-5.64a.798.798 0 01.799-.03.844.844 0 01.4.66v30.31a.805.805 0 01-.799.75h-.002zm-8.199-1.5H48v-28.2l-7.5 4.69v23.51zm-5.201 1.5h-9a.72.72 0 01-.7-.739v-30.721a.73.73 0 01.3-.63l5.7-3.55a.7.7 0 01.9.1l3.3 3.3c.159.127.236.33.2.53v30.96a.72.72 0 01-.689.75h-.011zm-8.2-1.5h7.4v-29.9l-2.6-2.649-4.8 3v29.549zm-5.2 1.5h-5.2c-2.9-.08-4.5-1.67-4.6-4.47v-18.65a.857.857 0 01.4-.64l8.9-5.59a.844.844 0 01.8-.021c.263.11.424.377.4.66v27.96a.721.721 0 01-.689.75h-.011zm-8.2-22.71v18.21c0 2.01.9 2.95 3 3h4.4v-25.85l-.5.319-6.9 4.321zm-2.3-8.851a.713.713 0 01-.6-.35.823.823 0 01.2-1.04l21.3-13.229a.851.851 0 011 .109l8.4 8.41 24.1-15L58 1133.55a.773.773 0 01-.6-.899.76.76 0 01.9-.561l9.699 2.189a.921.921 0 01.4.341.539.539 0 01.1.54v.029l-2.199 9.58a.744.744 0 01-.889.563l-.012-.003a.7.7 0 01-.6-.901l1.799-7.81L42 1151.93a.693.693 0 01-.9-.109l-8.5-8.41-20.8 12.91a.554.554 0 01-.399.119h-.002z" fill="#4e22d0"/></svg>