<svg xmlns="http://www.w3.org/2000/svg" width="80" height="720"><path d="M31.1 68.97a.715.715 0 01-.6-.33l-3-4.46a15.973 15.973 0 01-8-.67l-1-.41a1.706 1.706 0 01-.2-.06l-3.6 3.3a.743.743 0 01-.9.09.688.688 0 01-.3-.83l1.3-4.81c-.1-.02-.1-.03-.1-.04a14.375 14.375 0 01-4.2-5.33 6.248 6.248 0 01-.6-1.25l-4.1.09a.676.676 0 01-.7-.55.71.71 0 01.3-.85L9 50.83c-.369-2.474-.129-5 .7-7.36a.164.164 0 00.1-.17l-4.3-3.27a.9.9 0 01-.2-.87.709.709 0 01.8-.46l5.7.74a14.646 14.646 0 013.3-3.33l-1.3-4.4a.728.728 0 01.3-.86.744.744 0 01.9.1l3.5 3.24a21.531 21.531 0 013.8-1.2l1.2-4.8a.723.723 0 011.401-.07l1.6 4.86c.707.08 1.408.203 2.1.37.5.1.9.22 1.4.36l.3.12 2.9-2.561a.74.74 0 01.9-.05.62.62 0 01.315.818l-.016.032-1.1 3.31a14.808 14.808 0 014.1 3.65l6.701-1.22a.725.725 0 01.799.42.633.633 0 01-.189.874l-.01.006-5 4.29c.691 1.754.999 3.637.901 5.52l5.4 3.05a.7.7 0 01.299.84.76.76 0 01-.699.55l-5.701-.04a.621.621 0 00-.1.4 12.731 12.731 0 01-1.7 3.3l3 4.93a.723.723 0 010 .88.693.693 0 01-.901.24l-4.9-2.62a13.342 13.342 0 01-3.7 2.35v.01l.3 5.37a.799.799 0 01-.5.76 1.441 1.441 0 01-.3.031zm-2.6-6.02l1.7 2.56-.2-3.15v-.01l-.1-3.19a2.143 2.143 0 00-.9-.98 1.437 1.437 0 00-1.2-.01 2.163 2.163 0 00-1.1.84 1.4 1.4 0 00-.1 1.09l1.9 2.85zm-17-8.79l.3.6a14.016 14.016 0 003.9 4.87c.092.099.192.189.3.27a.67.67 0 01.3.81l-.7 2.82 2.1-1.97a.85.85 0 01.9-.11c.18.077.348.178.5.3l.9.37c2.118.731 4.376.967 6.6.69l-1.3-1.98c0-.05-.1-.1-.1-.16a2.834 2.834 0 01.2-2.36 3.108 3.108 0 011.9-1.53 2.85 2.85 0 012.4.09 3.37 3.37 0 011.6 1.82.286.286 0 01.1.26l.1 2.26a10.967 10.967 0 003.1-2.2.773.773 0 01.9-.14l2.9 1.57-1.8-3.06a.803.803 0 010-.82 10.603 10.603 0 001.7-3.24 7.22 7.22 0 00.3-.95.773.773 0 01.7-.55l3.4.03-3.2-1.87a.698.698 0 01-.4-.69c.1-1.637-.104-3.277-.6-4.84l-.3.28c-.1.03-.1.06-.1.09a3.315 3.315 0 01-2.5.21 1.539 1.539 0 01-.2-.05 4.102 4.102 0 01-1.5-1.46 2.747 2.747 0 01-.2-2.36v-.22a4.367 4.367 0 011.6-1.46.274.274 0 01.2-.07l.2-.05a13.271 13.271 0 00-3.6-3 .69.69 0 01-.4-.88l.5-1.3-1.3 1.1a.772.772 0 01-.9.08c-.156-.1-.324-.18-.5-.24-.4-.12-.8-.23-1.2-.32a15.351 15.351 0 00-2.4-.38.6.6 0 01-.6-.51l-1-2.8-.6 2.69a.778.778 0 01-.6.56c-1.16.213-2.298.531-3.4.95l2.1 1.89c.037.072.07.145.1.22.383.73.523 1.564.4 2.38a2.57 2.57 0 01-1.6 1.9 2.69 2.69 0 01-2.3.36 2.82 2.82 0 01-2-1.24c0-.08-.1-.16-.1-.24l-.7-2.92a12.319 12.319 0 00-2.8 2.98.658.658 0 01-.7.34l-3.5-.439 2.6 1.939c.3.186.393.578.208.878l-.008.012c-.1.24-.2.47-.3.68a13.213 13.213 0 00-.7 5.93l2.4-1.52c.064-.031.132-.058.2-.08a2.916 2.916 0 012.4.25 2.429 2.429 0 011.4 1.76 3.332 3.332 0 01-.2 2.21 2.84 2.84 0 01-1.8 1.53.678.678 0 01-.2.03h-3.1zm-1.299-2.28l-1.5.82 1.8-.03h4c.314-.15.563-.41.7-.73.215-.361.286-.789.2-1.2a1.301 1.301 0 00-.7-.77 1.365 1.365 0 00-1.1-.2l-3.4 2.08v.03zm25.9-8.27c.395.121.819.099 1.2-.06l1-.94h.1l3.3-2.84-5.8 1.08a2.342 2.342 0 00-.8.771c-.122.395-.087.821.1 1.189.208.354.523.634.9.8zm-18.4-3.55c.252.3.61.49 1 .53 0 .01.1.02.1.03a1.13 1.13 0 001.1-.2c.1-.03.1-.06.2-.09.37-.118.642-.436.7-.82a2.025 2.025 0 00-.2-1.31l-2.8-2.58v-.01L16 33.97l.7 2.22v.04l1.001 3.83zm31.5 28.17A5.097 5.097 0 0147 67.8c-1.799-.98-3.5-1.99-5.199-3.02a.774.774 0 11.9-1.26 52.537 52.537 0 005 2.96c.475.195.986.284 1.5.26a2.888 2.888 0 001.199-.27C62 60.24 69.301 52.9 72 44.68a36.62 36.62 0 001.5-10.71V22.79a5.104 5.104 0 00-1.299-3.43 7.168 7.168 0 00-3.6-2.43l-16.1-4.61a14.822 14.822 0 00-3.301-.87 12.677 12.677 0 00-3.6.86l-15.9 4.63a7.7 7.7 0 00-3.7 2.39 5 5 0 00-1.1 3.46v2.68a.8.8 0 01-.8.75.714.714 0 01-.701-.727l.001-.023v-2.68a6.56 6.56 0 011.4-4.39 9.196 9.196 0 014.4-2.88l16-4.63a13.616 13.616 0 014-.93 14.31 14.31 0 013.799.94l16 4.61a8.724 8.724 0 014.4 2.92 6.464 6.464 0 011.6 4.36v11.18a39.875 39.875 0 01-1.5 11.15c-2.9 8.63-10.5 16.24-22.4 22.67a4.524 4.524 0 01-1.898.44zm-24.3-17.5h-.2a2.484 2.484 0 01-1.8-.97 2.695 2.695 0 01-.7-1.91 2.763 2.763 0 011-1.82 2.421 2.421 0 012-.62c.658.072 1.266.39 1.7.89.465.519.715 1.194.7 1.89a3.15 3.15 0 01-.9 1.85 2.952 2.952 0 01-1.8.69zm-.1-3.84a.77.77 0 00-.6.24 1.195 1.195 0 00-.5.81c-.007.307.101.606.3.84 0 .02 0 .04.1.06a.981.981 0 00.8.4c.297-.006.581-.12.8-.32.194-.239.331-.52.4-.82.001-.3-.105-.591-.3-.82a1.168 1.168 0 00-.8-.38 1.334 1.334 0 00-.2-.01zm14.6 101.05a2.892 2.892 0 01-1.6-.41c-8.3-4.49-13.6-9.85-15.5-15.92a28.91 28.91 0 01-1-7.89v-7.85a4.9 4.9 0 011-3.18 6.182 6.182 0 013.2-2.12l11.1-3.23a6.224 6.224 0 015.5 0l11.199 3.22a6.225 6.225 0 013.201 2.15 4.768 4.768 0 011.1 3.16v7.85a28.575 28.575 0 01-1 7.86c-2.1 6.1-7.301 11.47-15.701 15.97-.45.274-.972.409-1.499.39zm0-39.73c-.819.096-1.625.287-2.4.57l-11.1 3.23a4.898 4.898 0 00-2.4 1.6 3.4 3.4 0 00-.7 2.26v7.85a29.732 29.732 0 00.9 7.46c1.9 5.65 6.8 10.73 14.8 15.04.492.287 1.1.295 1.6.02 8.099-4.34 13.099-9.41 15-15.1a25.234 25.234 0 001-7.42v-7.85a3.334 3.334 0 00-.799-2.21 4.909 4.909 0 00-2.5-1.66l-11.1-3.21a9.101 9.101 0 00-2.301-.58zm15.3 32.58a.758.758 0 010-1.51H66.4a3.898 3.898 0 002.701-.92c.57-.723.854-1.631.799-2.55v-21.7H59.602a.761.761 0 110-1.52H69.9v-7.35H45.102a.801.801 0 01-.801-.56l-1.5-6.13h-14.7l-1.6 6.13a.772.772 0 01-.7.56h-16.9v7.35h10.3a.762.762 0 110 1.52h-10.3v21.7c0 2.37 1.1 3.44 3.5 3.47H24a.757.757 0 110 1.51H12.4c-3.2-.04-4.9-1.75-5-4.96V97.94c.1-3.19 1.8-4.91 4.9-4.98h54.1a5.333 5.333 0 013.801 1.45 5.252 5.252 0 011.199 3.53v37.87a4.69 4.69 0 01-1.299 3.59 4.998 4.998 0 01-3.701 1.39H54.701zm-9.099-37.06H69.9v-5.79a3.49 3.49 0 00-.799-2.48 3.656 3.656 0 00-2.701-.99h-54c-2.4.06-3.5 1.13-3.5 3.49v5.77h16.3l1.5-6.13a.8.8 0 01.8-.56h15.8a.797.797 0 01.799.56l1.503 6.13zm-24.601-3.12a.806.806 0 01-.8-.75v-1.72a.807.807 0 01.8-.75.72.72 0 01.7.739v1.731a.72.72 0 01-.689.75h-.011zm-3.9 0a.806.806 0 01-.8-.75v-1.72a.8.8 0 011.599 0v1.72a.805.805 0 01-.799.75zm-4 0a.72.72 0 01-.7-.739V98.14a.721.721 0 01.689-.75h.011c.422.003.771.33.8.75v1.72a.806.806 0 01-.8.75zM58 228a3.336 3.336 0 01-1.699-.41c-8.201-4.47-13.4-9.8-15.301-15.84a28.661 28.661 0 01-1-7.85v-7.81a4.845 4.845 0 011-3.16 6.247 6.247 0 013.1-2.11l11.1-3.22c.9-.339 1.842-.551 2.801-.63.893.084 1.77.299 2.6.64l11.1 3.2a6.198 6.198 0 013.199 2.14 4.68 4.68 0 011.1 3.14v7.81a28.286 28.286 0 01-1 7.82c-2.1 6.07-7.299 11.4-15.6 15.89a2.685 2.685 0 01-1.4.39zm0-39.52a8.45 8.45 0 00-2.4.56l-11 3.21c-.953.25-1.797.81-2.4 1.59a3.373 3.373 0 00-.699 2.25v7.81a29.329 29.329 0 00.9 7.42c1.799 5.63 6.799 10.67 14.699 14.96.492.287 1.1.294 1.6.02 8-4.31 12.9-9.36 14.801-15.02a25.03 25.03 0 001-7.38v-7.81a3.335 3.335 0 00-.801-2.2 5.02 5.02 0 00-2.4-1.64l-11.1-3.2a9.891 9.891 0 00-2.2-.57zm-16.199 29.6H9c-3.8-.11-5.9-2.16-6-5.93v-33.09c.1-3.83 2.2-5.91 6-6.06h45.5c3.801.19 5.801 2.27 6 6.04v6.68a.799.799 0 01-.799.75.713.713 0 01-.701-.727v-6.683c-.1-2.96-1.6-4.41-4.5-4.56H9c-2.9.12-4.4 1.58-4.5 4.59v33.03c.1 2.939 1.6 4.37 4.6 4.46h32.701a.75.75 0 010 1.5zM31.5 203.65a11.33 11.33 0 01-6.9-2.35L3.8 183.95a.734.734 0 11.9-1.16l20.9 17.33a9.761 9.761 0 005.9 2.03c2.159.034 4.28-.568 6.1-1.73a.71.71 0 01.986.189l.014.021a.838.838 0 01-.2 1.05 12.312 12.312 0 01-6.9 1.97zm8.3 93.39a3.342 3.342 0 01-1.8-.47c-9-4.91-14.7-10.78-16.8-17.41a30.348 30.348 0 01-1.1-8.63v-8.6a5.52 5.52 0 011-3.42 7.385 7.385 0 013.5-2.33l12.2-3.53a11.165 11.165 0 013-.68c1.027.084 2.037.313 3 .68l12.201 3.52a6.701 6.701 0 013.4 2.34 5.002 5.002 0 011.299 3.42v8.6a30 30 0 01-1.199 8.6c-2.201 6.67-8 12.53-17.1 17.47a2.89 2.89 0 01-1.601.44zm0-43.56c-.89.088-1.764.293-2.6.61L25 257.62a6.096 6.096 0 00-2.7 1.8 4.03 4.03 0 00-.7 2.51v8.6a30.944 30.944 0 001 8.2c2 6.22 7.4 11.79 16.2 16.54a1.82 1.82 0 001 .26c.284.008.563-.073.799-.23 8.9-4.78 14.4-10.36 16.5-16.61a30.364 30.364 0 001.1-8.16v-8.6a3.524 3.524 0 00-.9-2.46 6.11 6.11 0 00-2.799-1.86l-12.201-3.51v-.01a9.748 9.748 0 00-2.499-.61zm0 30.53a.719.719 0 01-.7-.739v-1.941a7.447 7.447 0 01-3.4-1.04.738.738 0 01-.321-.992l.021-.039a.827.827 0 011.1-.28 5.744 5.744 0 002.6.84v-5.99a11.814 11.814 0 01-3-1.66 3.684 3.684 0 01-1-2.6 3.6 3.6 0 011.6-3.01 5.092 5.092 0 012.4-1.04v-2.08a.722.722 0 01.685-.759l.016-.001a.745.745 0 01.798.69c.002.023.002.046.002.07v1.97a7.54 7.54 0 013.299 1.04c.365.189.51.639.32 1.004l-.02.036a.727.727 0 01-.992.274l-.008-.004a6.43 6.43 0 00-2.6-.83v5.94a13.675 13.675 0 012.9 1.7 3.772 3.772 0 011.1 2.6 3.608 3.608 0 01-1.6 3.02 5.18 5.18 0 01-2.4 1.03v2.04a.745.745 0 01-.8.751zm.8-9.46v5.14a3.529 3.529 0 001.4-.7 2.1 2.1 0 001.1-1.82 1.973 1.973 0 00-.699-1.53 8.168 8.168 0 00-1.801-1.09zm-1.5-7.5a3.846 3.846 0 00-1.5.71 2.162 2.162 0 00-1 1.811c0 .573.214 1.125.6 1.55a8.2 8.2 0 001.9 1.05v-5.121zm29.4 34.47a.745.745 0 01-.797-.69c-.002-.023-.004-.047-.002-.07v-33.15c0-2.75-1.301-3.97-4.1-3.97H61.4a.756.756 0 010-1.51h2.201c3.699 0 5.6 1.89 5.6 5.48v33.15a.725.725 0 01-.686.76H68.5zm-57.299 0a.723.723 0 01-.701-.745l.001-.016v-33.15c0-3.59 1.9-5.48 5.5-5.48h2.3a.757.757 0 110 1.51H16c-2.8 0-4 1.22-4 3.97v33.15a.746.746 0 01-.799.761zm62.401 6.43h-67.5a4.19 4.19 0 01-3-1.29 3.877 3.877 0 01-1.2-2.85v-.13a.722.722 0 01.685-.759l.016-.001h29a.6.6 0 01.5.23l.9.88h13.7l.801-.88a1 1 0 01.6-.23h29a.632.632 0 01.5.23c.16.138.236.351.199.56a3.97 3.97 0 01-1.199 2.87 4.811 4.811 0 01-2.9 1.37h-.102zm-70.101-3.52c.101.458.347.872.7 1.18a2.802 2.802 0 001.9.84h67.5a3.13 3.13 0 001.9-.94c.314-.3.555-.67.701-1.08h-27.8l-.9.89a.622.622 0 01-.5.22H32.703a.62.62 0 01-.5-.22l-.9-.89H3.501zM40.5 386.91a.154.154 0 00-.099-.01 2.871 2.871 0 01-1.5-.67 94.774 94.774 0 01-8-8.98c-1-1.57-.4-2.58.1-3.04a13.547 13.547 0 017.4-3.79.809.809 0 01.9.62.724.724 0 01-.554.861c-.015.003-.03.007-.046.009a12.15 12.15 0 00-6.7 3.38c-.1.12-.3.37.1 1.12 1.1 1.479 3.7 4.42 7.8 8.71a1.8 1.8 0 00.599.27c.225-.05.43-.157.6-.31 1.301-1.28 2.4-2.49 3.4-3.58a.792.792 0 011.1-.051.748.748 0 01.012 1.059l-.012.012c-1 1.11-2.199 2.34-3.5 3.66-.41.394-.936.646-1.5.721a.156.156 0 00-.1.009zm27.4-.051a.312.312 0 01-.1-.01 2.44 2.44 0 01-2.1-.92l-4.9-4.81a12.3 12.3 0 01-7 2.05c-7.408-.039-13.417-6.012-13.5-13.42a13.302 13.302 0 014-9.62 13.021 13.021 0 019.5-3.9 12.577 12.577 0 019.301 3.9 13.306 13.306 0 014 9.62 12.972 12.972 0 01-2 7.029l4.799 4.951a2.63 2.63 0 011 2.049 3.453 3.453 0 01-1 2.221 2.635 2.635 0 01-2 .86zm-5.798-6.629l4.699 4.67a1.14 1.14 0 001 .439c.379.025.748-.126 1-.41.34-.31.553-.732.6-1.189a1.225 1.225 0 00-.5-.891l-4.699-4.84a14.02 14.02 0 00-1 1.19c-.4.37-.801.72-1.102 1.03h.002zm-8.301-22.49a11.52 11.52 0 00-8.5 3.47 11.748 11.748 0 00-3.5 8.54c.041 6.596 5.404 11.919 12 11.91 2.404.021 4.75-.726 6.701-2.13v-.021c.57-.402 1.105-.854 1.6-1.35.514-.541.98-1.123 1.4-1.74a11.026 11.026 0 002.1-6.67 11.791 11.791 0 00-3.5-8.55 11.263 11.263 0 00-8.301-3.459zm-27.3 13.53a3.156 3.156 0 01-2.2-1.05l-4.6-5.21c-.7-.869-1.2-2.3.1-4.31a.12.12 0 00.1-.12 29.142 29.142 0 0120.599-8.54c3.803.034 7.564.77 11.1 2.17a.713.713 0 01.401.99.799.799 0 01-1 .42 29.306 29.306 0 00-10.5-2.07 27.645 27.645 0 00-19.5 8.061c-.8 1.3-.5 2-.1 2.409l4.6 5.181c.5.569 1.2.96 2.5-.181a18.676 18.676 0 0111-4.569.74.74 0 01.8.7.789.789 0 01-.7.81 17.18 17.18 0 00-10.1 4.21 4.03 4.03 0 01-2.5 1.099zm38.601-13.13a2.865 2.865 0 01-1.9-.83c-12.113-12.52-32.083-12.85-44.603-.736-.236.229-.469.46-.697.696a2.73 2.73 0 01-4 .01v-.04l-4.7-5.2a3.6 3.6 0 01-.1-4.68c.1-.04.1-.07.1-.1 8.8-8.81 19.3-13.3 31.299-13.34 12 .04 22.5 4.53 31.301 13.34 0 .03 0 .07.1.1a3.562 3.562 0 01-.1 4.65l-4.701 5.23a2.825 2.825 0 01-2 .9h.001zm-24.6-11.95a32.407 32.407 0 0123.699 10.01 1.127 1.127 0 001.801-.011l4.699-5.17a2.035 2.035 0 000-2.73c-8.5-8.5-18.6-12.82-30.199-12.85-11.5.03-21.701 4.35-30.201 12.85a2.09 2.09 0 000 2.77l4.7 5.14c.5.49 1 .67 1.9-.05a32.172 32.172 0 0123.598-9.96h.003zm-6.101 121.79l-.1-.011a2.918 2.918 0 01-1.4-.66 87.295 87.295 0 01-8.1-8.93 2.31 2.31 0 010-3.021 13.627 13.627 0 019.6-3.949 13.284 13.284 0 019.5 3.93v.01c.5.46 1.1 1.46.1 2.99a92.642 92.642 0 01-7.9 8.91c-.1.03-.1.061-.1.08a4.238 4.238 0 01-1.4.64c-.101.001-.101.011-.2.011zm0-15.06a12.037 12.037 0 00-8.5 3.5c-.1.1-.3.36.1 1.13a109.991 109.991 0 007.9 8.65c.145.122.315.208.5.25a1.71 1.71 0 00.6-.3 78.763 78.763 0 007.8-8.641c.5-.72.199-.96.1-1.1a12.032 12.032 0 00-8.5-3.489zm13.999-.53a3.928 3.928 0 01-2.5-1.05c-6.594-5.729-16.4-5.734-23-.01-2.3 1.88-3.9.84-4.6.05l-4.7-5.19c-.7-.859-1.2-2.279.1-4.289a.115.115 0 00.1-.12 28.922 28.922 0 0120.6-8.49 28.12 28.12 0 015.9.61.754.754 0 11-.3 1.48 26.557 26.557 0 00-5.6-.59 27.4 27.4 0 00-19.5 8.02c-.8 1.29-.5 1.99-.1 2.4l4.6 5.15c.5.52 1.2.93 2.6-.19 7.152-6.181 17.758-6.173 24.9.021 1.301 1.1 2 .689 2.6.14l4.801-5.45a.8.8 0 011.1-.05.85.85 0 01.1 1.061l-4.9 5.47a3.206 3.206 0 01-2.201 1.027zM9.801 439.359a2.682 2.682 0 01-1.9-.859l-4.7-5.21a3.577 3.577 0 01-.1-4.66c0-.03.1-.07.1-.1a42.996 42.996 0 0131.2-13.271 42.1 42.1 0 0115.8 2.971c.387.15.602.566.5.969a.795.795 0 01-1 .431 41.19 41.19 0 00-15.3-2.86c-11.5.03-21.6 4.33-30.1 12.79-.7.783-.7 1.968 0 2.75l4.7 5.141a1.127 1.127 0 001.8-.07 32.413 32.413 0 0123.6-9.92c3.108-.01 6.203.404 9.201 1.229a.757.757 0 01.5.931.734.734 0 01-.889.533l-.012-.003a32.08 32.08 0 00-8.8-1.181 30.937 30.937 0 00-22.6 9.521 3.06 3.06 0 01-2 .868zm64.4 4.37h-30.5a3.596 3.596 0 01-2.299-.88 3.901 3.901 0 01-1.3-2.189c-.124-.88.09-1.773.599-2.5l15.201-24.35a4.25 4.25 0 011.9-1.5 3.213 3.213 0 012.4-.011c.76.306 1.418.817 1.9 1.479l15.199 24.431c.527.696.711 1.593.5 2.44a4.272 4.272 0 01-1.199 2.17 3.53 3.53 0 01-2.401.91zM59.002 413.58a1.911 1.911 0 00-.701.13 2.42 2.42 0 00-1.1.92l-15.199 24.38a1.473 1.473 0 00-.4 1.4c.119.508.4.964.799 1.3.354.328.818.511 1.301.51h30.5a1.972 1.972 0 001.4-.51c.383-.347.631-.818.699-1.33a1.477 1.477 0 00-.299-1.3l-15.201-24.471a2.914 2.914 0 00-1.199-.909 1.612 1.612 0 00-.602-.12h.002zm-.1 23.12a.721.721 0 01-.701-.739v-1.121a.723.723 0 01.689-.75h.012a.743.743 0 01.799.75v1.11a.743.743 0 01-.8.75h.001zm0-4.221a.72.72 0 01-.701-.738V423.9a.725.725 0 01.686-.76l.016-.001a.746.746 0 01.797.69c.002.023.004.047.002.07v7.829a.743.743 0 01-.8.751zM47.701 547.96h-16.6a1.064 1.064 0 01-.6-.22l-11.8-11.62a.552.552 0 01-.2-.53v-16.43a.552.552 0 01.2-.53l11.7-11.62c.173-.133.382-.21.6-.22h16.7a.62.62 0 01.5.22l11.9 11.62a.956.956 0 01.201.53v16.43a.956.956 0 01-.201.53l-11.9 11.62a.618.618 0 01-.5.22zm-16.3-1.49h16l11.4-11.189V519.47L47.4 508.28H31.301l-11.3 11.18v15.82l11.4 11.19zm25.099-3.38a.746.746 0 11-.001-1.49h9.9c2.301-.029 3.4-1.09 3.5-3.43V512.8H56a.746.746 0 11-.001-1.489h13.9v-7.25h-26a.772.772 0 01-.699-.561l-1.6-6.05H26.901l-1.6 6.05a.62.62 0 01-.672.563l-.028-.003h-15.7v7.25h13.8a.747.747 0 11.001 1.489h-13.8v25.37a3.353 3.353 0 00.8 2.51c.734.667 1.712 1 2.7.92h9.8a.747.747 0 11.001 1.49h-9.8a5.2 5.2 0 01-3.8-1.359 5.467 5.467 0 01-1.2-3.521v-41.35a4.802 4.802 0 011.2-3.511 5.012 5.012 0 013.7-1.409H66.4c3.201.079 4.9 1.77 5 4.899v41.33c-.1 3.19-1.799 4.88-5 4.92h-9.9v.002zm-12-40.52h25.4v-5.71c-.1-2.311-1.199-3.37-3.5-3.431h-54a3.814 3.814 0 00-2.7.95 3.563 3.563 0 00-.8 2.479v5.711H24l1.6-6.041a.781.781 0 01.7-.569h15.901a.78.78 0 01.699.569l1.6 6.042zm-5.9 36.25a5.51 5.51 0 01-4-1.601 5.325 5.325 0 01-1.7-3.38v-8.58a.851.851 0 01.4-.689.92.92 0 01.9.17l.1.09v.09l.7.94v.01l3.1 4.3a.65.65 0 01-.2 1.03.714.714 0 01-.988-.201l-.012-.019-.5-.7-2-2.771v6.25a4.287 4.287 0 001.2 2.41 4.162 4.162 0 003 1.16 4.435 4.435 0 003-1.18 4.2 4.2 0 001.201-2.561V521.6a1.834 1.834 0 01-.201-.069 3.637 3.637 0 01-1-.511 1.762 1.762 0 01-.299-.34 2.627 2.627 0 01-.701-1.819c0-.689.209-1.363.6-1.931a.12.12 0 00.1-.13 4.22 4.22 0 011.1-.62 2.88 2.88 0 013.301.681c.488.554.771 1.261.799 2a2.97 2.97 0 01-.6 1.78.94.94 0 01-.4.39 2.71 2.71 0 01-.699.399 3.214 3.214 0 01-.5.19v12.04a5.42 5.42 0 01-1.701 3.55 5.647 5.647 0 01-4 1.61zm3.9-19.02c.184.14.387.254.6.34.16.065.328.103.5.11.178-.017.348-.071.5-.16a.445.445 0 01.1-.05c.18-.049.35-.131.5-.24.193-.275.297-.604.301-.94a1.581 1.581 0 00-.5-1.01 1.13 1.13 0 00-1.5-.3c-.201.1-.4.21-.6.33-.195.29-.299.631-.301.979-.002.347.143.678.4.91v.031zm-22-20.31a.712.712 0 01-.701-.722l.001-.019v-1.69a.72.72 0 01.689-.749l.011-.001c.422.003.771.33.8.75v1.69a.8.8 0 01-.8.741zm-4 0a.712.712 0 01-.701-.722l.001-.019v-1.69a.72.72 0 01.689-.749l.011-.001a.745.745 0 01.8.75v1.69a.736.736 0 01-.8.741zm-3.799 0a.8.8 0 01-.8-.74v-1.69a.807.807 0 01.8-.75.72.72 0 01.7.739v1.701a.709.709 0 01-.682.739l-.018.001zM61 630.93a14.52 14.52 0 01-10.799-4.569 13.417 13.417 0 01-3.9-7.28 13.099 13.099 0 01-.4-3.42 15.044 15.044 0 014.299-10.7 14.58 14.58 0 0110.1-4.37h.7a14.512 14.512 0 0110.5 4.351 14.91 14.91 0 014.5 10.72 14.417 14.417 0 01-4.5 10.71A14.061 14.061 0 0161 630.93zm-.6-28.83a13.082 13.082 0 00-9.1 3.921 13.622 13.622 0 00-3.9 9.64c0 1.044.1 2.085.301 3.11a12.469 12.469 0 003.6 6.529A12.817 12.817 0 0061 629.41a13.033 13.033 0 009.5-4.1 13.363 13.363 0 004-9.65 13.817 13.817 0 00-4-9.66 13.228 13.228 0 00-9.5-3.9h-.6zm-17.099 19.6h-36a3.533 3.533 0 01-1.5-.431 3.345 3.345 0 01-1.8-2.709v-41.81c0-2.15 1-3.03 1.9-3.39a3.586 3.586 0 012-.391h8.1v-3.27a.723.723 0 01.685-.76l.016-.001a.746.746 0 01.8.76v3.27h6.5v-3.27a.723.723 0 01.685-.76l.016-.001a.81.81 0 01.8.761v3.27h6.4v-3.27a.723.723 0 01.685-.76l.016-.001a.81.81 0 01.8.761v3.27h6.4v-3.27a.81.81 0 01.799-.761c.4.013.713.346.701.745v3.286h6.5v-3.27a.723.723 0 01.684-.76l.016-.001a.746.746 0 01.799.69c.002.023.002.047.002.07v3.27h8.199a4.003 4.003 0 011.801.38c.799.36 1.799 1.23 1.799 3.4v20.97a.72.72 0 01-.689.75h-.01a.745.745 0 01-.799-.686c-.002-.021-.002-.043-.002-.064v-11.14H5.502v31.9a1.861 1.861 0 001.1 1.489c.244.141.519.22.8.23l35.901-.011a.756.756 0 01.068 1.511.275.275 0 01-.07.004zm-37.8-36.63h54.1v-8.32c0-1.479-.5-1.859-.9-2.02-.1-.011-.1-.03-.1-.051a2.856 2.856 0 00-1.1-.189H49.3v3.22a.745.745 0 01-.799.76.722.722 0 01-.701-.744v-3.236h-6.5v3.22a.723.723 0 01-.684.76H40.6a.809.809 0 01-.8-.76v-3.22h-6.4v3.22a.809.809 0 01-.8.76.723.723 0 01-.701-.744l.001-.016v-3.22h-6.4v3.22a.809.809 0 01-.8.76.723.723 0 01-.701-.744l.001-.016v-3.22h-6.5v3.22a.746.746 0 01-.799.76.723.723 0 01-.701-.744v-3.236H7.9a2.312 2.312 0 00-1.2.15.422.422 0 00-.2.1c-.4.16-1 .54-1 2.01l.001 8.32zm53.8 36.18h-.1a.771.771 0 01-.5-.229l-1.5-1.561-2.9-2.81a.75.75 0 01-.012-1.059l.012-.012a.794.794 0 011.1-.01l3.9 3.85 7.4-7.47a.668.668 0 011 0 .75.75 0 01.012 1.06l-.012.01-7.9 8.011a.796.796 0 01-.5.22zm-22.7-8.01a.81.81 0 01-.8-.76v-5.641h-6.4v5.641a.809.809 0 01-.8.76.723.723 0 01-.701-.744l.001-.016v-5.641h-6.5v5.641a.723.723 0 01-.685.759l-.016.001a.746.746 0 01-.8-.759v-5.641h-7.2a.81.81 0 01-.8-.76.8.8 0 01.8-.75h7.2v-4.89h-7.2a.81.81 0 01-.8-.761.8.8 0 01.8-.75h7.2v-5.699a.74.74 0 01.8-.75.713.713 0 01.701.727l-.001.023v5.699h6.5v-5.699a.715.715 0 01.677-.75h.023a.8.8 0 01.8.75v5.699h6.4v-5.699a.799.799 0 01.8-.75.713.713 0 01.701.727l-.001.023v5.699h6.4v-5.699a.8.8 0 01.801-.75.714.714 0 01.701.727l-.002.023v5.699h6a.714.714 0 01.701.728v.022a.725.725 0 01-.686.76l-.016.001h-6v5.64a.724.724 0 01-.684.76h-7.217v5.641a.723.723 0 01-.685.759h-.012zm.7-7.91h6.4v-4.89h-6.4v4.89zm-7.9 0h6.4v-4.89h-6.4v4.89zm-8 0h6.5v-4.89h-6.5v4.89zm34.3 104.609a18.596 18.596 0 01-10.9-3.409 20.247 20.247 0 01-2.5-2.15c-7.333-7.487-7.333-19.463 0-26.95a18.73 18.73 0 0113.4-5.52c10.475-.02 18.98 8.457 19 18.932v.059a17.837 17.837 0 01-5.6 13.479 27.232 27.232 0 01-2.4 2.13 18.56 18.56 0 01-11 3.429zm0-36.519c-9.59-.021-17.379 7.734-17.401 17.323v.157a16.733 16.733 0 005.1 12.409 17.19 17.19 0 002.299 1.98 17.7 17.7 0 0020.1 0 23.822 23.822 0 002.301-1.98 16.753 16.753 0 005.1-12.409 17.141 17.141 0 00-5.1-12.41 16.92 16.92 0 00-12.399-5.07zM50 704.45a.807.807 0 01-.799-.61l-1.1-5.79v-.02a.48.48 0 01.1-.511.126.126 0 01.1-.14.468.468 0 01.299-.21.156.156 0 01.1-.01L54.4 696c.41-.08.809.182.9.59a.755.755 0 01-.6.89l-4.201.86a8.3 8.3 0 002.201 1.16c.975.282 1.984.42 3 .41a8.483 8.483 0 006.299-2.551A8.242 8.242 0 0064.7 690.9a6.69 6.69 0 00-.1-1.37.841.841 0 01.699-.841.701.701 0 01.795.592l.006.059c.08.516.113 1.038.1 1.561a10.04 10.04 0 01-3.1 7.54 10.166 10.166 0 01-7.4 2.979 12.664 12.664 0 01-3.5-.479 9.51 9.51 0 01-2.201-1.12l.701 3.72a.755.755 0 01-.6.89.412.412 0 01-.1.019zm-3.9-11.19a.773.773 0 01-.699-.6 9.316 9.316 0 011.199-6.84 8.458 8.458 0 011.701-2.29 10.329 10.329 0 017.4-3.061c1.225-.013 2.443.19 3.6.601.77.277 1.508.64 2.199 1.08l-.799-3.681a.765.765 0 01.605-.899.77.77 0 01.895.58l1.199 5.779v.021a.513.513 0 01-.1.53v.06a1.005 1.005 0 01-.4.29h-.1v.01L56.9 686a.8.8 0 01-.9-.6.754.754 0 01.588-.888l.012-.003 4.4-.85a7.715 7.715 0 00-2.199-1.16 9.17 9.17 0 00-3.1-.52 8.796 8.796 0 00-6.4 2.609 10.394 10.394 0 00-1.4 1.96 8.075 8.075 0 00-1.1 4.351c-.02.488.014.978.1 1.46a.755.755 0 01-.588.888l-.012.002a1.238 1.238 0 01-.201.011zm-15.5 15.72a4.7 4.7 0 01-2.2-.5C16.5 701.97 9 694.27 6.2 685.59a41.75 41.75 0 01-1.5-11.359V662.89a6.867 6.867 0 011.5-4.43 9.126 9.126 0 014.4-2.93l16-4.69a15.459 15.459 0 014-.89c1.302.116 2.581.416 3.8.89l16.1 4.68a8.305 8.305 0 014.4 2.961 6.737 6.737 0 011.6 4.409v6.95a.747.747 0 01-.8.76.724.724 0 01-.701-.744l.001-.016v-6.95a4.906 4.906 0 00-1.301-3.479 7.194 7.194 0 00-3.6-2.45L34 652.29a14.478 14.478 0 00-3.4-.83 13.544 13.544 0 00-3.5.82l-16 4.689a8.52 8.52 0 00-3.8 2.42 5.736 5.736 0 00-1 3.5v11.341a38.443 38.443 0 001.4 10.92c2.6 8.27 9.8 15.689 21.5 22.01.428.235.913.343 1.4.31.421.01.836-.098 1.2-.31a57.208 57.208 0 006.5-3.94.811.811 0 011.1.2.843.843 0 01-.2 1.05 71.978 71.978 0 01-6.7 4.021 3.637 3.637 0 01-1.9.489z" fill="#4e22d0"/></svg>