<svg height="40" width="40" xmlns="http://www.w3.org/2000/svg"><g fill="none" fill-rule="evenodd"><rect fill="#4e22d0" height="40" rx="8" width="40"/><path d="M20.112 7.6c3.468 0 6.913.896 10.333 2.687v7.767c0 1.63-.196 3.158-.586 4.581-1.16 3.558-4.212 6.665-9.162 9.317-.206.114-.44.172-.706.172s-.5-.058-.706-.172c-4.95-2.652-8.001-5.759-9.162-9.317-.403-1.423-.603-2.952-.603-4.581v-7.767C12.94 8.496 16.47 7.6 20.112 7.6zm-4.158 11.15l2.795 3c.205.123.404.123.596 0l5.054-5.24" stroke="#fff" stroke-linecap="round" stroke-linejoin="round" stroke-width="1.2"/></g></svg>