<svg height="40" width="40" xmlns="http://www.w3.org/2000/svg"><g fill="none" fill-rule="evenodd"><rect fill="#4e22d0" height="40" rx="8" width="40"/><g stroke="#fff" stroke-linecap="round" stroke-linejoin="round" stroke-width="1.2"><path d="M23.818 18.152c.027.07.014.124-.041.166l-2.279 1.657c-.138.096-.22.186-.248.269-.028.096-.014.228.041.393l.87 2.672c.027.07.014.125-.041.166-.07.041-.125.041-.166 0l-2.299-1.657c-.138-.096-.256-.145-.352-.145h-.062c-.083 0-.2.049-.352.145l-2.279 1.657c-.055.041-.11.041-.165 0a.154.154 0 01-.063-.166l.87-2.672c.07-.165.083-.297.042-.393-.028-.083-.11-.173-.249-.27l-2.257-1.656a.154.154 0 01-.063-.166c.028-.055.076-.083.145-.083h2.797c.179 0 .303-.028.372-.083.07-.055.138-.172.208-.352l.87-2.672c.014-.055.055-.083.124-.083h.061c.07 0 .118.028.146.083l.87 2.672c.055.18.117.297.186.352.083.055.214.083.394.083h2.796c.055 0 .097.028.124.083z"/><path d="M23.672 9.27a19.962 19.962 0 00-4.263-.464c-3.578 0-7.048.884-10.409 2.65v7.663c0 1.608.196 3.116.592 4.52 1.141 3.51 4.14 6.575 9.005 9.191.203.112.433.17.694.17.26 0 .49-.058.694-.17 4.864-2.616 7.863-5.681 9.004-9.191.383-1.404.576-2.912.576-4.52v-1.304"/><path d="M31.663 9.228c.819.846 1.228 1.839 1.228 2.977 0 1.177-.41 2.174-1.228 2.993-.837.846-1.84 1.27-3.006 1.27h-.014c-1.157 0-2.154-.424-2.992-1.27a4.013 4.013 0 01-1.1-2.033 3.63 3.63 0 01-.128-.96c0-1.138.41-2.13 1.228-2.977.8-.79 1.745-1.2 2.837-1.228h.169c1.167 0 2.169.409 3.006 1.228zm-4.983 2.867h1.99m0-1.99v1.99m1.956 0H28.67v1.955"/></g></g></svg>