<svg height="40" width="40" xmlns="http://www.w3.org/2000/svg"><g fill="none" fill-rule="evenodd"><rect fill="#4e22d0" height="40" rx="8" width="40"/><path d="M20.112 7.6c3.468 0 6.913.896 10.333 2.687v7.767c0 1.63-.196 3.158-.586 4.581-1.16 3.558-4.212 6.665-9.162 9.317-.206.114-.44.172-.706.172s-.5-.058-.706-.172c-4.95-2.652-8.001-5.759-9.162-9.317-.403-1.423-.603-2.952-.603-4.581v-7.767C12.94 8.496 16.47 7.6 20.112 7.6zm-.072 6.424h-.061c-.069 0-.11.028-.124.083l-.862 2.65c-.07.178-.137.295-.206.35-.069.054-.192.082-.37.082h-2.774c-.068 0-.116.027-.143.082a.153.153 0 00.061.164l2.24 1.644c.137.096.22.185.246.267.041.096.028.226-.04.39l-.864 2.65a.153.153 0 00.062.165c.055.041.11.041.164 0l2.26-1.644c.151-.095.268-.143.35-.143h.061c.096 0 .212.048.35.143l2.28 1.644c.041.041.096.041.165 0 .054-.04.068-.096.04-.164l-.862-2.65c-.055-.165-.069-.295-.041-.391.027-.082.11-.171.246-.267l2.26-1.644c.055-.041.069-.096.042-.164-.028-.055-.069-.082-.124-.082h-2.773c-.178 0-.309-.028-.39-.083-.07-.054-.13-.17-.186-.349l-.863-2.65c-.027-.055-.075-.083-.144-.083z" stroke="#fff" stroke-linecap="round" stroke-linejoin="round" stroke-width="1.2"/></g></svg>