<svg width="65" height="64" fill="none" xmlns="http://www.w3.org/2000/svg"><path d="M51.072 0H12.928C5.784 0 0 5.784 0 12.928V51.08C0 58.216 5.784 64 12.928 64H51.08c7.136 0 12.928-5.784 12.928-12.928V12.928C64 5.784 58.216 0 51.072 0z" fill="url(#paint0_linear)"/><path d="M31.728 14.704l1.296-2.24a2.916 2.916 0 013.984-1.072c1.4.8 1.872 2.584 1.072 3.984L25.592 36.992h9.032c2.928 0 4.568 3.44 3.296 5.824H11.44a2.902 2.902 0 01-2.912-2.912 2.902 2.902 0 012.912-2.912h7.424l9.504-16.472-2.968-5.152a2.92 2.92 0 011.072-3.984 2.92 2.92 0 013.984 1.072l1.272 2.248zM20.496 45.816l-2.8 4.856a2.916 2.916 0 01-3.984 1.072 2.916 2.916 0 01-1.072-3.984l2.08-3.6c2.352-.728 4.264-.168 5.776 1.656zm24.112-8.808h7.576a2.902 2.902 0 012.912 2.912 2.902 2.902 0 01-2.912 2.912h-4.208l2.84 4.928a2.92 2.92 0 01-1.072 3.984 2.92 2.92 0 01-3.984-1.072c-4.784-8.296-8.376-14.504-10.76-18.64-2.44-4.208-.696-8.432 1.024-9.864 1.912 3.28 4.768 8.232 8.584 14.84z" fill="#fff"/><defs><linearGradient id="paint0_linear" x1="32" y1="0" x2="32" y2="64" gradientUnits="userSpaceOnUse"><stop stop-color="#0ED4FC"/><stop offset="1" stop-color="#0C57EF"/></linearGradient></defs></svg>