<svg width="58" height="64" fill="none" xmlns="http://www.w3.org/2000/svg"><path fill-rule="evenodd" clip-rule="evenodd" d="M1.133.981C.413 1.754 0 2.944 0 4.491v54.998c0 1.546.413 2.736 1.16 3.482l.195.165L32.17 32.319v-.692L1.328.817 1.133.98z" fill="url(#paint0_linear)"/><path fill-rule="evenodd" clip-rule="evenodd" d="M42.423 42.632L32.144 32.349v-.72l10.283-10.281.222.137 12.161 6.911c3.482 1.963 3.482 5.197 0 7.187l-12.161 6.91c-.004 0-.226.139-.226.139z" fill="url(#paint1_linear)"/><path fill-rule="evenodd" clip-rule="evenodd" d="M42.645 42.494l-10.5-10.504L1.133 63c1.133 1.217 3.038 1.355 5.17.165l36.342-20.672z" fill="url(#paint2_linear)"/><path fill-rule="evenodd" clip-rule="evenodd" d="M42.645 21.489L6.303.843c-2.128-1.217-4.037-1.052-5.17.165L32.14 31.99l10.504-10.501z" fill="url(#paint3_linear)"/><path opacity=".2" d="M42.423 42.272L6.33 62.78c-2.016 1.16-3.815 1.078-4.974.026l-.195.195.195.165c1.16 1.049 2.958 1.133 4.974-.027l36.343-20.645-.248-.222z" fill="#000"/><path opacity=".12" d="M54.807 35.223l-12.41 7.049.221.222 12.162-6.911c1.74-.995 2.598-2.293 2.598-3.593-.11 1.19-.995 2.322-2.571 3.233z" fill="#000"/><path opacity=".25" fill-rule="evenodd" clip-rule="evenodd" d="M6.303 1.203l48.504 27.556c1.576.884 2.46 2.044 2.598 3.234 0-1.297-.857-2.598-2.598-3.593L6.303.843C2.82-1.147 0 .511 0 4.49v.36C0 .87 2.82-.76 6.303 1.203z" fill="#fff"/><defs><linearGradient id="paint0_linear" x1="19.631" y1="3.926" x2="-6.774" y2="30.319" gradientUnits="userSpaceOnUse"><stop stop-color="#00A0FF"/><stop offset=".007" stop-color="#00A1FF"/><stop offset=".26" stop-color="#00BEFF"/><stop offset=".512" stop-color="#00D2FF"/><stop offset=".76" stop-color="#00DFFF"/><stop offset="1" stop-color="#00E3FF"/></linearGradient><linearGradient id="paint1_linear" x1="59.341" y1="31.99" x2="-.847" y2="31.99" gradientUnits="userSpaceOnUse"><stop stop-color="#FFE000"/><stop offset=".409" stop-color="#FFBD00"/><stop offset=".775" stop-color="orange"/><stop offset="1" stop-color="#FF9C00"/></linearGradient><linearGradient id="paint2_linear" x1="36.942" y1="41.872" x2="-8.225" y2="86.99" gradientUnits="userSpaceOnUse"><stop stop-color="#FF3A44"/><stop offset="1" stop-color="#C31162"/></linearGradient><linearGradient id="paint3_linear" x1="-6.735" y1="-3.765" x2="13.428" y2="16.358" gradientUnits="userSpaceOnUse"><stop stop-color="#32A071"/><stop offset=".069" stop-color="#2DA771"/><stop offset=".476" stop-color="#15CF74"/><stop offset=".801" stop-color="#06E775"/><stop offset="1" stop-color="#00F076"/></linearGradient></defs></svg>