<svg width="21" height="24" fill="none" xmlns="http://www.w3.org/2000/svg"><mask id="a" maskUnits="userSpaceOnUse" x="0" y="0" width="21" height="24"><path d="M10.5 0C16.3 0 21 4.596 21 10.267c0 .08 0 .159-.002.238v.015c-.003.075-.005.151-.009.226v.018l-.014.229-.001.005v.005c-.006.077-.012.154-.02.23v.012a10.58 10.58 0 01-.025.223l-.002.019-.029.22-.002.012c-.01.075-.023.149-.035.223l-.003.02a6.81 6.81 0 01-.038.206l-.006.033a9.558 9.558 0 01-.041.201l-.005.024c-.015.068-.03.136-.047.203l-.01.037a9.56 9.56 0 01-.048.191l-.01.036a7.489 7.489 0 01-.051.185l-.012.039a12.53 12.53 0 01-.056.185l-.014.044-.06.18-.015.044-.061.171-.018.046a6.35 6.35 0 01-.064.167l-.022.057c-1.782 4.45-8.793 9.506-9.78 9.989-.898-.439-7.99-5.534-9.78-9.989l-.022-.056a6.23 6.23 0 01-.064-.168l-.018-.046a11.17 11.17 0 01-.06-.171l-.016-.044-.06-.18-.014-.044-.056-.185-.012-.04a6.597 6.597 0 01-.051-.184l-.01-.036a17.501 17.501 0 01-.05-.191l-.008-.037a8.787 8.787 0 01-.047-.203l-.006-.024a18.647 18.647 0 01-.04-.201l-.007-.033-.037-.206-.003-.02a10.608 10.608 0 01-.035-.223l-.002-.011-.03-.221-.001-.02-.024-.222-.002-.011-.019-.23v-.011a8.79 8.79 0 01-.014-.229l-.001-.018a7.395 7.395 0 01-.009-.226v-.015C0 10.425 0 10.345 0 10.267 0 4.596 4.7 0 10.5 0z" fill="#fff"/></mask><g mask="url(#a)"><g filter="url(#filter0_d)"><path d="M10.5 0C16.3 0 21 4.596 21 10.267c0 .08 0 .159-.002.238v.015c-.003.075-.005.151-.009.226v.018l-.014.229-.001.005v.005c-.006.077-.012.154-.02.23v.012a10.58 10.58 0 01-.025.223l-.002.019-.029.22-.002.012c-.01.075-.023.149-.035.223l-.003.02a6.81 6.81 0 01-.038.206l-.006.033a9.558 9.558 0 01-.041.201l-.005.024c-.015.068-.03.136-.047.203l-.01.037a9.56 9.56 0 01-.048.191l-.01.036a7.489 7.489 0 01-.051.185l-.012.039a12.53 12.53 0 01-.056.185l-.014.044-.06.18-.015.044-.061.171-.018.046a6.35 6.35 0 01-.064.167l-.022.057c-1.782 4.45-8.793 9.506-9.78 9.989-.898-.439-7.99-5.534-9.78-9.989l-.022-.056a6.23 6.23 0 01-.064-.168l-.018-.046a11.17 11.17 0 01-.06-.171l-.016-.044-.06-.18-.014-.044-.056-.185-.012-.04a6.597 6.597 0 01-.051-.184l-.01-.036a17.501 17.501 0 01-.05-.191l-.008-.037a8.787 8.787 0 01-.047-.203l-.006-.024a18.647 18.647 0 01-.04-.201l-.007-.033-.037-.206-.003-.02a10.608 10.608 0 01-.035-.223l-.002-.011-.03-.221-.001-.02-.024-.222-.002-.011-.019-.23v-.011a8.79 8.79 0 01-.014-.229l-.001-.018a7.395 7.395 0 01-.009-.226v-.015C0 10.425 0 10.345 0 10.267 0 4.596 4.7 0 10.5 0z" fill="#0C053E"/></g><path d="M10.5 0C16.3 0 21 4.596 21 10.267c0 .08 0 .159-.002.238v.015c-.003.075-.005.151-.009.226v.018l-.014.229-.001.005v.005c-.006.077-.012.154-.02.23v.012a10.58 10.58 0 01-.025.223l-.002.019-.029.22-.002.012c-.01.075-.023.149-.035.223l-.003.02a6.81 6.81 0 01-.038.206l-.006.033a9.558 9.558 0 01-.041.201l-.005.024c-.015.068-.03.136-.047.203l-.01.037a9.56 9.56 0 01-.048.191l-.01.036a7.489 7.489 0 01-.051.185l-.012.039a12.53 12.53 0 01-.056.185l-.014.044-.06.18-.015.044-.061.171-.018.046a6.35 6.35 0 01-.064.167l-.022.057c-1.782 4.45-8.793 9.506-9.78 9.989-.898-.439-7.99-5.534-9.78-9.989l-.022-.056a6.23 6.23 0 01-.064-.168l-.018-.046a11.17 11.17 0 01-.06-.171l-.016-.044-.06-.18-.014-.044-.056-.185-.012-.04a6.597 6.597 0 01-.051-.184l-.01-.036a17.501 17.501 0 01-.05-.191l-.008-.037a8.787 8.787 0 01-.047-.203l-.006-.024a18.647 18.647 0 01-.04-.201l-.007-.033-.037-.206-.003-.02a10.608 10.608 0 01-.035-.223l-.002-.011-.03-.221-.001-.02-.024-.222-.002-.011-.019-.23v-.011a8.79 8.79 0 01-.014-.229l-.001-.018a7.395 7.395 0 01-.009-.226v-.015C0 10.425 0 10.345 0 10.267 0 4.596 4.7 0 10.5 0z" fill="#FF7800"/><path fill-rule="evenodd" clip-rule="evenodd" d="M22.414 14.636l-8.026-8.025a5.5 5.5 0 00-7.778 7.778l7.878 7.878 7.926-7.63z" fill="url(#paint0_linear)"/></g><path d="M10.5 16a5.5 5.5 0 100-11 5.5 5.5 0 000 11z" fill="#fff"/><defs><linearGradient id="paint0_linear" x1="12.568" y1="12.568" x2="17.784" y2="17.784" gradientUnits="userSpaceOnUse"><stop stop-color="#F66000"/><stop offset="1" stop-color="#F66000" stop-opacity="0"/></linearGradient><filter id="filter0_d" x="-45" y="-15" width="111" height="114" filterUnits="userSpaceOnUse" color-interpolation-filters="sRGB"><feFlood flood-opacity="0" result="BackgroundImageFix"/><feColorMatrix in="SourceAlpha" values="0 0 0 0 0 0 0 0 0 0 0 0 0 0 0 0 0 0 127 0"/><feOffset dy="30"/><feGaussianBlur stdDeviation="22.5"/><feColorMatrix values="0 0 0 0 0.0470588 0 0 0 0 0.0196078 0 0 0 0 0.243137 0 0 0 0.15 0"/><feBlend in2="BackgroundImageFix" result="effect1_dropShadow"/><feBlend in="SourceGraphic" in2="effect1_dropShadow" result="shape"/></filter></defs></svg>