<svg xmlns="http://www.w3.org/2000/svg" width="24" height="24" fill="none"><path fill="#4E22D0" fill-rule="evenodd" d="M20.25 8.62a5.66 5.66 0 00-.368-2.014 3.577 3.577 0 00-.915-1.463 3.593 3.593 0 00-1.464-.919 5.656 5.656 0 00-2.015-.367c-1.157-.1-2.319-.13-3.48-.09a28.107 28.107 0 00-3.384.091c-.689 0-1.371.124-2.015.368-.557.18-1.06.494-1.468.914a3.58 3.58 0 00-.916 1.463 5.67 5.67 0 00-.367 2.016 27.08 27.08 0 00-.09 3.382 27.863 27.863 0 00.09 3.382c0 .688.124 1.37.368 2.013a3.59 3.59 0 00.916 1.463c.406.42.91.734 1.465.915a5.657 5.657 0 002.015.368c1.125.098 2.255.129 3.384.09 1.13.041 2.26.01 3.385-.09.689 0 1.371-.124 2.015-.368a3.84 3.84 0 002.381-2.379c.244-.643.37-1.325.368-2.013 0-.359.014-.62.031-.936.027-.49.06-1.114.06-2.446l.004-3.38zm-1.557 6.675a4.235 4.235 0 01-.274 1.555 3.222 3.222 0 01-1.554 1.555 4.242 4.242 0 01-1.557.274c-.313 0-.547.014-.836.03-.474.026-1.097.062-2.46.062-1.1.04-2.201.01-3.297-.092a4.232 4.232 0 01-1.563-.274 3.21 3.21 0 01-1.553-1.552 4.236 4.236 0 01-.275-1.555c0-.313-.013-.547-.03-.836-.026-.473-.061-1.096-.061-2.458a25.506 25.506 0 01.091-3.294 4.247 4.247 0 01.275-1.561c.16-.338.377-.646.64-.912.214-.32.54-.547.913-.64a4.258 4.258 0 011.56-.274c.313 0 .547-.013.837-.03.473-.026 1.096-.061 2.46-.061 1.1-.042 2.2-.011 3.296.09a4.264 4.264 0 011.557.275 3.222 3.222 0 011.557 1.552c.188.497.28 1.024.274 1.556 0 .312.013.546.03.835.026.474.061 1.096.061 2.458.042 1.1.011 2.201-.091 3.297zm-6.684-7.502a4.21 4.21 0 00-4.212 4.208 4.21 4.21 0 004.212 4.208 4.21 4.21 0 004.212-4.208 4.142 4.142 0 00-4.212-4.208zm0 6.953a2.697 2.697 0 01-2.748-2.745 2.698 2.698 0 012.748-2.745 2.702 2.702 0 012.747 2.745 2.7 2.7 0 01-2.747 2.745zm3.387-7.136c0-.556.451-1.007 1.008-1.007a1.016 1.016 0 011.007 1.007 1.007 1.007 0 01-2.015 0z" clip-rule="evenodd"/></svg>