<svg xmlns="http://www.w3.org/2000/svg" width="24" height="24" fill="none"><path fill="#4E22D0" fill-rule="evenodd" d="M18.372 8.25v.424a9.298 9.298 0 01-4.85 8.186A9.339 9.339 0 014 16.516c.283 0 .495.07.779.07a6.428 6.428 0 004.106-1.412 3.274 3.274 0 01-3.044-2.261c.207.058.422.082.637.07.288-.012.573-.06.85-.141a3.256 3.256 0 01-2.62-3.179v-.07a2.8 2.8 0 001.416.353 3.28 3.28 0 01-1.487-2.685 3.092 3.092 0 01.425-1.625 9.103 9.103 0 006.796 3.391c0-.212-.07-.494-.07-.777A3.29 3.29 0 0115.044 5a3.196 3.196 0 012.407 1.06 6.503 6.503 0 002.054-.778 3.35 3.35 0 01-1.416 1.838A9.488 9.488 0 0020 6.625a8.882 8.882 0 01-1.628 1.625z" clip-rule="evenodd"/></svg>