<svg xmlns="http://www.w3.org/2000/svg" width="80" height="80"><path fill="none" stroke="#4E22D0" stroke-linecap="round" stroke-linejoin="round" stroke-width="1.5" d="M50.8 47.051h-3.6c-1.533 0-2.3.783-2.3 2.35v18.5c0 1.566.767 2.349 2.3 2.349h27.4c1.533 0 2.3-.783 2.3-2.349v-18.5c0-1.567-.767-2.35-2.3-2.35H50.8zM43.6 44.5a4.754 4.754 0 01-1.65-1.099c-.8-.767-1.283-1.651-1.45-2.651a3.39 3.39 0 01-.05-.55m8.5-10.799a.986.986 0 00-.45-.1c-2.267-.533-4.2.066-5.8 1.8C41.033 33 40.25 35.634 40.35 39l.1 1.2v-.149c-.067-1.301.35-2.417 1.25-3.351.9-.899 2.017-1.349 3.35-1.349 1.333 0 2.483.45 3.45 1.349m-13.3-7.299h-6.75l-.9 7.099c.867-.766 1.933-1.149 3.2-1.149 1.4 0 2.616.467 3.65 1.399 1.033.934 1.583 2.068 1.65 3.401.066 1.299-.383 2.417-1.35 3.349-.934.934-2.1 1.401-3.5 1.401s-2.617-.467-3.65-1.401l-.5-.5M14.3 31.101c.167-.267.383-.517.65-.75.9-.767 1.966-1.151 3.2-1.151 1.266 0 2.333.384 3.2 1.151.867.8 1.3 1.75 1.3 2.849 0 1.034-.45 1.934-1.35 2.701l-5.05 4.25c-.367.299-.634.533-.8.7-.133.099-.25.217-.35.349-.734.934-1.1 2-1.1 3.201v.15h9.2m30.6-10.65c-2 2-3 4.382-3 7.15v6h20.25v-6c0-2.768-1-5.15-3-7.15-1.934-1.901-4.317-2.85-7.15-2.85-2.8 0-5.167.949-7.1 2.85zM41.35 63.5c-2.9 1-6.017 1.5-9.35 1.5a37.33 37.33 0 01-3.9-.199c-4.033-.533-7.734-1.884-11.1-4.051a29.575 29.575 0 01-4.85-3.949C6.85 51.5 4.133 45.151 4 37.75c.133-8.366 2.85-15.217 8.15-20.55 1.533-1.533 3.15-2.833 4.85-3.899 3.366-2.2 7.067-3.551 11.1-4.051A29.984 29.984 0 0132 9c1.667 0 3.283.134 4.85.401 2.5.4 4.883 1.15 7.15 2.25 2.8 1.333 5.383 3.183 7.75 5.549 3.067 3.068 5.283 6.484 6.65 10.25"/></svg>