<svg xmlns="http://www.w3.org/2000/svg" width="80" height="80"><path fill="none" stroke="#4E22D0" stroke-linecap="round" stroke-linejoin="round" stroke-width="1.5" d="M16.65 40.4l-4.55-4.05 1.4 2.8m16.9-15.3l.65.7-1.8 2h4.6L31.6 23.4m-3.3-1.5l2.45-1.7H26.8m-11.1-5.45l3.1-1.5.2 1-1.5 1.9 4-1.15-.7 4.6-1.4 2.15-1.6-2.2-1.55.2-3 3.3 1.9.95 1.9-3.3 1.85 1.6.45 5.65-2.95.95-5.3 8.6 1.15 4.6 1.6-1.85 3 2.05 1.65.2.4 1.45 4.4 1.75.15 4.4L22 54.45 25.2 60l-3.95-2.65L13.5 46.4l-1.25-4.3-3.8-3.8-2.1-6.6m24.4-21.5l1.3 1.9-3.25 5.75-6.5 4.6 2.1-7.3-2.6-1.8L23.85 11M61.9 32.85l-3 8.4m-18.4-11.5l1.85-1 1.9 2.15-3.1-.35m4.5-.65l.7-2.55 1 5.05m10.05 8.85l-.5-4.7-2.9 4.7-2.45-4.7-2.95-.2 1.05 1.6-2.8 1.2-4.95-4.95 3.5 7.1m-10.95 2.15l-.55-.95-3.25.85-4.05-3.95 3.2-5.2 5.35-2.05.7 1.15 6.05.9 1.25-1.9-2.15.65-1.5-2.35.1 1.8-1.6-1-1 1.25-.3-2.05-1.75-1-3.1 2.7-1.6.65L30 29.7l1.4.15-.45-1.5 3.5-1.65.8-1.7 1.7.7 2.75-2.9-.9-1.6-1.8 3.25-3.05-2.3 3.95-4.9 3.3 2 2.35-1.5 1.2-2.3.9-3.45 4.8 1.25M61.6 41.1c.267-1.633.4-3.333.4-5.1 0-1.1-.033-2.15-.1-3.15-.7-6.434-3.4-12-8.1-16.7a50.735 50.735 0 00-3.35-2.9C45.683 9.75 40.2 8 34 8c-7.033 0-13.133 2.25-18.3 6.75-.5.467-.983.933-1.45 1.4-4.434 4.467-7.067 9.65-7.9 15.55C6.117 33.1 6 34.534 6 36c0 7.7 2.75 14.3 8.25 19.8 4.733 4.734 10.316 7.433 16.75 8.1m18.35-12.6l12.7 6.65-12.7 6.6V51.3zm-12.5-5.1a5.346 5.346 0 00-1.6 2.7c-.3 1.333-.5 2.9-.6 4.7-.067 1.033-.1 2.617-.1 4.75 0 2.1.033 3.683.1 4.75.1 1.8.3 3.35.6 4.65a4.93 4.93 0 001.6 2.75 5.332 5.332 0 002.7 1.25c2.2.2 4.7.35 7.5.45 1.667.067 4.167.1 7.5.1s5.833-.033 7.5-.1c2.8-.1 5.283-.25 7.45-.45a5.935 5.935 0 002.8-1.25c.8-.733 1.3-1.65 1.5-2.75.333-1.3.533-2.85.6-4.65.033-.234.05-.467.05-.7.067-1 .1-2.35.1-4.05 0-2.2-.05-3.783-.15-4.75-.067-1.8-.25-3.367-.55-4.7a5.04 5.04 0 00-1.55-2.7 4.706 4.706 0 00-2.8-1.25c-2.1-.267-4.5-.433-7.2-.5H47.05c-2.8.067-5.3.233-7.5.5-1.033.1-1.933.517-2.7 1.25z"/></svg>