<svg xmlns="http://www.w3.org/2000/svg" width="80" height="80"><path fill="none" stroke="#FF7800" stroke-linecap="round" stroke-linejoin="round" stroke-width="1.5" d="M67.199 19h-54.75 54.75zM3 62.8v2.5c.533.467 1.083.7 1.649.7h71.55c.601 0 1.101-.233 1.5-.7v-2.5H3zm67.5-3.1H10.05L3 62.8h74.699L70.5 59.7zm-47.45-8.801a3.296 3.296 0 01-.351-1.5c0-.533.117-1.033.351-1.5v3zm6.349-3c.2.467.3.967.3 1.5 0 .534-.1 1.034-.3 1.5v-3zm-.7 4c-.699.667-1.533 1-2.5 1-.967 0-1.783-.333-2.449-1a3.353 3.353 0 01-.7-1h-5.201c-.4 0-.75-.149-1.049-.449-.3-.301-.451-.65-.451-1.051 0-.399.151-.75.451-1.049.299-.3.649-.451 1.049-.451h5.201c.167-.366.399-.699.7-1 .666-.666 1.482-1 2.449-1a3.5 3.5 0 012.5 1c.301.301.533.634.7 1h33.45c.401 0 .75.151 1.05.451.3.299.45.65.45 1.049 0 .401-.15.75-.45 1.051-.3.3-.649.449-1.05.449h-33.45a3.353 3.353 0 01-.7 1zM35.5 40.5V27.25l12.699 6.649L35.5 40.5zM67.199 15h-54.75c-1.767 0-2.649.883-2.649 2.649V54c0 1.733.882 2.6 2.649 2.6h54.75c1.733 0 2.601-.867 2.601-2.6V17.649c0-1.766-.868-2.649-2.601-2.649z"/></svg>