<svg xmlns="http://www.w3.org/2000/svg" width="80" height="80"><g fill="none" fill-rule="evenodd"><path stroke="#4E22D0" stroke-linecap="round" stroke-linejoin="round" stroke-width="1.5" d="M72.45 15.65H3.55h68.9zm-68.9 37.3H49.8 3.55zM23.2 35.799c-.2-.466-.3-.966-.3-1.5 0-.533.1-1.033.3-1.5m6.8 3c-.2.401-.467.767-.8 1.101-.7.733-1.566 1.1-2.6 1.1a3.613 3.613 0 01-2.65-1.1 3.413 3.413 0 01-.75-1.101h-10c-.433 0-.8-.132-1.1-.399-.267-.3-.4-.667-.4-1.101 0-.433.133-.783.4-1.049.3-.3.667-.451 1.1-.451h10c.167-.433.417-.816.75-1.149.733-.7 1.617-1.05 2.65-1.05 1.034 0 1.9.35 2.6 1.05.333.333.6.716.8 1.149m32.8 0H30c.2.467.3.967.3 1.5 0 .534-.1 1.034-.3 1.5h32.8c.434 0 .783-.132 1.05-.399.3-.3.45-.667.45-1.101 0-.433-.15-.783-.45-1.049-.233-.3-.583-.451-1.05-.451zM52.45 47.9v-.15c.2-1.8 1.117-2.917 2.75-3.35l8.4-2.4c.933-.333 1.55-.467 1.85-.4.333-.067.983.067 1.95.4l8.3 2.4h.05c1.667.466 2.567 1.583 2.7 3.35v5.65c.034 2.166-.2 4.133-.7 5.899-1.433 4.434-5.233 8.301-11.4 11.601-.267.133-.567.2-.9.2-.3 0-.6-.067-.9-.2-6.133-3.3-9.9-7.167-11.3-11.601-.533-1.766-.8-3.733-.8-5.899v-5.5zM75 41.5V13.7c0-3.134-1.6-4.7-4.8-4.7H5.7C2.567 9 1 10.566 1 13.7v41.2c0 3.166 1.567 4.75 4.7 4.75h44.75m-26.5 11.9c4.3-1.8 8.967-2.7 14-2.7 5.034 0 9.7.9 14 2.7m-17.8-9.7v7m7.6-7v7"/><path fill="#4E22D0" d="M63.55 32.55c.467 0 .817.15 1.05.45.3.267.45.617.45 1.05 0 .434-.15.8-.45 1.1-.267.267-.616.4-1.05.4h-32.8c.2-.466.3-.966.3-1.5 0-.533-.1-1.033-.3-1.5h32.8z"/></g></svg>