<svg xmlns="http://www.w3.org/2000/svg" width="80" height="80"><path fill="none" stroke="#4E22D0" stroke-linecap="round" stroke-linejoin="round" stroke-width="1.5" d="M5 23.55C13.2 16.517 22.867 13 34 13s20.8 3.517 29 10.55l-5.2 6.15C51.067 24 43.133 21.15 34 21.15c-9.133 0-17.066 2.85-23.8 8.55C8 27 7 26 5 23.55zM40.5 50.4L34 58l-8.2-9.7c2.333-1.967 5.067-2.95 8.2-2.95 2.4 0 4.567.566 6.5 1.7m7-14.6c-4.033-2.167-8.533-3.25-13.5-3.25-7.167 0-13.35 2.25-18.55 6.75l5.2 6.2c3.767-3.234 8.217-4.85 13.35-4.85 2.733 0 5.267.45 7.6 1.35m4.85-2.55l4.7-1.35 6.75-1.95c.833-.267 1.433-.4 1.8-.4.3 0 .883.133 1.75.4l11.4 3.3c.7.2 1.15.417 1.35.65.3.233.45.666.45 1.3V48.4c0 .466-.033.933-.1 1.4-.433 3.633-2.05 6.95-4.85 9.95l-.4.45c-.467.466-.967.933-1.5 1.4-1.333 1.2-2.883 2.35-4.65 3.45-.333.2-.667.417-1 .65-.667.367-1.366.75-2.1 1.15l-.35.2h-.1l-.35-.2c-.466-.234-.9-.484-1.3-.75-2.5-1.434-4.633-2.934-6.4-4.5-.366-.333-.7-.633-1-.9l-.25-.25a4.368 4.368 0 00-.45-.4 2.317 2.317 0 00-.35-.45c-1.733-1.934-3.017-3.967-3.85-6.1-.366-1-.616-2.017-.75-3.05a13.738 13.738 0 01-.25-1.95V38.05c0-.634.15-1.067.45-1.3.3-.233.985-.545 1.35-.65z"/></svg>