<svg xmlns="http://www.w3.org/2000/svg" width="80" height="80"><g fill="none" fill-rule="evenodd"><path stroke="#4E22D0" stroke-linecap="round" stroke-linejoin="round" stroke-width="1.5" d="M9.25 50.05C7.083 46.351 6 42 6 37c0-5.566 1.483-10.5 4.45-14.8m47.15 3.35c.966 2.2 1.65 4.45 2.05 6.75M32.3 64c-3.1-.099-6.017-.633-8.75-1.599M39.3 45.55c-7.7-1.566-14.484-5.283-20.35-11.149L17 32.3c-4.1 5.334-6.684 11.25-7.75 17.75a29.55 29.55 0 004.65 6.051c2.9 2.833 6.117 4.932 9.65 6.3 4.566-.833 8.6-2.167 12.1-4-.8 1.632-1.917 3.5-3.35 5.599h.7c4.466 0 8.533-.932 12.2-2.8M26.6 10.7c-4.734 1.1-8.967 3.5-12.7 7.201a24.693 24.693 0 00-3.45 4.299c1.633 3.633 3.817 7 6.55 10.1a61.155 61.155 0 013.7-4.199c3.933-3.934 8.233-6.884 12.9-8.851m16.6-3.149C45.366 12.033 39.633 10 33 10c-2.3 0-4.434.234-6.4.7l.9.901c2.533 2.599 4.566 5.149 6.1 7.649M56.15 33.5a40.929 40.929 0 001.45-7.95c-1.3-2.732-3.117-5.283-5.45-7.649l-1.95-1.8h-.5c-5.834 0-11.2 1.05-16.1 3.149 3.933 6.467 5.9 13.601 5.9 21.401 0 1.833-.067 3.466-.2 4.899-.467 4.4-1.684 8.684-3.65 12.851A37.459 37.459 0 0042.6 53.7M60 35.5c.233 0 .8.134 1.7.401L73.1 39.2c.8.3 1.25.517 1.35.651.3.199.45.633.45 1.3V51.5l-.1 1.401c-.4 3.599-2.017 6.917-4.85 9.95l-.4.449a83.13 83.13 0 01-1.5 1.4c-1.334 1.201-2.883 2.35-4.65 3.451l-3.45 2h-.1L58.2 69.2c-2.533-1.433-4.667-2.933-6.4-4.5l-2.05-2c-.7-.799-1.434-1.75-2.2-2.849-.633-1-1.184-2.084-1.65-3.25-.434-1.2-.684-2.217-.75-3.051-.1-.399-.184-1.05-.25-1.949v-10.45c0-.568.15-1 .45-1.3.133-.167.583-.384 1.35-.651l8.35-2.4 3.1-.899c.867-.267 1.466-.401 1.8-.401H60z"/><path fill="#4E22D0" d="M35.55 55.9c.7 0 1.283.25 1.75.75.533.468.8 1.05.8 1.75 0 .668-.267 1.25-.8 1.75-.467.534-1.05.8-1.75.8s-1.3-.266-1.8-.8c-.5-.5-.75-1.082-.75-1.75 0-.7.25-1.282.75-1.75.5-.5 1.1-.75 1.8-.75zm3.65-12.7c.667 0 1.233.234 1.7.7.533.5.8 1.117.8 1.85 0 .634-.267 1.2-.8 1.7-.467.533-1.033.8-1.7.8-.733 0-1.333-.267-1.8-.8-.467-.5-.7-1.066-.7-1.7 0-.733.233-1.35.7-1.85.467-.466 1.067-.7 1.8-.7zM16.95 29.85c.667 0 1.25.234 1.75.7.534.534.8 1.15.8 1.85 0 .668-.266 1.25-.8 1.75-.5.534-1.083.8-1.75.8-.7 0-1.3-.266-1.8-.8a2.48 2.48 0 01-.7-1.75c0-.7.233-1.316.7-1.85.5-.466 1.1-.7 1.8-.7zM33.4 16.852c.7 0 1.283.232 1.75.699.533.533.8 1.15.8 1.851 0 .667-.267 1.25-.8 1.75-.467.533-1.05.799-1.75.799-.667 0-1.267-.266-1.8-.799-.5-.5-.75-1.083-.75-1.75 0-.701.25-1.318.75-1.851.533-.467 1.133-.699 1.8-.699z"/></g></svg>