<svg xmlns="http://www.w3.org/2000/svg" width="80" height="80"><path fill="none" stroke="#FF7800" stroke-linecap="round" stroke-linejoin="round" stroke-width="1.5" d="M38.777 49.416l-3.047 18.73 3.047-18.73zm2.197.05l3.196 18.68-3.196-18.68zm-4.495-1.356c-2.064-.837-4.112-2.326-6.142-4.47-8.69 1.741-13.651 5.375-14.883 10.899-1.031 4.45-1.515 8.017-1.448 10.695 0 .637.116 1.172.35 1.608.1.267.316.601.649 1.004.766.77 1.698 1.154 2.797 1.154h44.297c1.098 0 2.03-.385 2.796-1.154.333-.403.55-.737.65-1.004.3-.436.45-.971.45-1.608.065-2.678-.417-6.244-1.45-10.695-1.298-5.524-6.259-9.158-14.881-10.898-1.998 2.143-4.046 3.632-6.143 4.469-2.364.87-4.711.87-7.042 0zm16.83-22.045c1.099.35 1.998 2.377 1.998 3.515 0 1.106-.3 2.042-.9 2.813-.631.77-1.38 1.171-2.246 1.204a17.83 17.83 0 01-2.797 4.972c-2.564 3.114-5.676 4.671-9.339 4.671-3.696 0-6.842-1.557-9.439-4.671a16.018 16.018 0 01-2.696-4.972c-.9-.033-1.632-.434-2.198-1.204-.666-.771-.999-1.707-.999-2.813 0-.87.166-1.623.5-2.26.1-.2.587-.888 1.043-1.255m3.893-10.333c-2.195 2.534-3.447 5.483-3.755 8.85l-.154 1.25v.2c2.366-4.9 4.903-7.8 7.61-8.7 2.47-.666 5.058.334 7.767 3 2.88 2.8 6.754 4.7 11.623 5.7l-.052-1.45c-.48-3.466-1.766-6.416-3.857-8.85-2.605-3.133-5.794-4.7-9.566-4.7-3.702 0-6.909 1.567-9.616 4.7z"/></svg>