<svg xmlns="http://www.w3.org/2000/svg" width="80" height="80"><path fill="none" stroke="#FF7800" stroke-linecap="round" stroke-linejoin="round" stroke-width="1.5" d="M67.164 46.35c-2.485 1.233-5.385 1.967-8.698 2.2m2.684 1.75h2.286-2.286zm-30.917-2.95c-1.889 1.6-4.06 2.4-6.512 2.4-2.485 0-4.655-.8-6.511-2.4m31.96 2.95h2.287-2.286zm2.834 9.85h8.55-8.55zm2.137-11.6c-3.347-.233-6.246-.967-8.698-2.2m-40.51-13c3.313-7 6.842-11.117 10.587-12.35 3.347-1.1 6.909.3 10.687 4.2 3.71 3.667 8.367 6.216 13.967 7.65.762.167 1.54.333 2.336.5m-5.567-14.7c2.684 3.167 4.407 6.85 5.17 11.05.066.5.133 1.017.198 1.55v.2c.066.533.133 1.1.2 1.7v.2c.563.133 1.093.55 1.59 1.25.862 1.2 1.292 2.566 1.292 4.1 0 1.567-.43 2.9-1.292 4-.895 1.1-1.956 1.667-3.181 1.7a25.915 25.915 0 01-3.977 7.05c-.33.4-.662.8-.994 1.2-3.447 3.634-7.522 5.45-12.228 5.45-5.268 0-9.725-2.217-13.37-6.65a23.987 23.987 0 01-3.877-7.05c-1.226-.033-2.287-.6-3.182-1.7C2.43 41.6 2 40.267 2 38.7c0-1.534.43-2.9 1.292-4.1.497-.7 1.044-1.117 1.64-1.25v-.2c0-.633.067-1.267.2-1.9.53-4.834 2.269-9.033 5.219-12.6C13.996 14.217 18.453 12 23.72 12c5.203 0 9.61 2.217 13.222 6.65zm8.301 7.5c3.181-2.833 6.86-4.25 11.035-4.25 5.202 0 9.626 2.217 13.271 6.65 2.982 3.567 4.772 7.767 5.368 12.6v.2c.067.533.117 1.1.15 1.7v.2c.596.133 1.143.55 1.64 1.25C77.57 45.7 78 47.067 78 48.6c0 1.566-.43 2.9-1.292 4-.895 1.1-1.972 1.667-3.231 1.7a24.907 24.907 0 01-3.927 7.05C65.905 65.784 61.48 68 56.279 68c-5.236 0-9.677-2.216-13.322-6.65a22.576 22.576 0 01-3.877-7.05"/></svg>