<svg xmlns="http://www.w3.org/2000/svg" width="80" height="80"><path fill="none" stroke="#FF7800" stroke-linecap="round" stroke-linejoin="round" stroke-width="1.5" d="M43.572 52.366a2.706 2.706 0 00-1.698.801c-.533.534-.8 1.152-.8 1.853 0 .734.267 1.352.8 1.853.532.534 1.149.801 1.847.801h14.04c-.766 1.436-1.799 3.506-3.097 6.21-.467 1.035-.7 2.07-.7 3.105-.033 1.069.4 1.903 1.3 2.504.865.6 1.947.668 3.247.2 2.031-4.64 5.146-8.546 9.343-11.718L73 55.62V40.748l-13.64-4.207H48.32c-.667 0-1.25.25-1.749.752-.532.533-.8 1.151-.8 1.852 0 .735.268 1.37.8 1.903.467.468 1.05.719 1.749.752M6 21.268C14.761 13.756 25.086 10 36.976 10c11.892 0 22.218 3.756 30.977 11.268l-5.545 6.61c-7.195-6.11-15.671-9.164-25.432-9.164-9.758 0-18.218 3.054-25.38 9.164L6 21.268zm40.47 25.84h-2.898c-.666 0-1.266.25-1.798.751a2.69 2.69 0 00-.75 1.903c0 .701.25 1.32.75 1.853.466.468 1.066.718 1.798.751h8.094M54.064 41.8H46.47c-.665 0-1.265.267-1.797.8-.5.502-.75 1.12-.75 1.854s.25 1.352.75 1.853c.465.467 1.066.735 1.797.8h7.695m-15.738 9.366l-1.45 1.702-8.743-10.416c2.498-2.103 5.413-3.155 8.743-3.155 1.134 0 2.216.117 3.248.35m15.14-11.618a1.55 1.55 0 01-.25-.2c-5.23-3.872-11.275-5.809-18.138-5.809-7.626 0-14.22 2.404-19.784 7.211l5.545 6.66c4.031-3.472 8.778-5.207 14.24-5.207 2.066 0 4.03.25 5.896.75"/></svg>