<svg xmlns="http://www.w3.org/2000/svg" width="80" height="80"><path fill="none" stroke="#FF7800" stroke-linecap="round" stroke-linejoin="round" stroke-width="1.5" d="M23.197 55.1h13.241-13.241zm0 14.9h13.241-13.241zm-6.123 0h6.123V55.1h-6.123V70zm25.488 0h13.291-13.291zm-6.124 0h6.124V55.1h-6.124V70zm5.821-14.9h13.594H42.26zm19.668 0h-6.074V70h6.074V55.1zm-8.115-21.5H25.288h28.524zm2.041 4.1H23.197h32.656zM29.271 51h20.41-20.41zM11 70h6.074V55.1h-5.078V51H29.27l10.205-10.25L49.681 51h6.172m-32.656-.5V37.7h-5.078v-4.1h7.17c0-4 1.392-7.4 4.18-10.2 2.789-2.8 6.14-4.2 10.056-4.2m0-5.001h6.122V10h-6.122v4.199zm0 .001v5c3.95 0 7.318 1.4 10.106 4.2 2.788 2.8 4.181 6.2 4.181 10.2h7.119v4.1h-5.078V51h11.201v4.1h-5.127V70H68"/></svg>