<svg xmlns="http://www.w3.org/2000/svg" width="80" height="80"><g fill="none" fill-rule="evenodd"><path fill="#FF7800" d="M47.657 34.9c-.134.3-.25.583-.35.85-2.1.266-3.7-.383-4.8-1.95-.5-.668-1.05-1-1.65-1-.635 0-1.218.332-1.75 1-1.068 1.567-2.65 2.216-4.75 1.95-.1-.267-.218-.55-.35-.85 1.633.066 2.766-.733 3.4-2.4.633-1.667 1.783-2.05 3.45-1.15 1.633-.9 2.766-.517 3.4 1.15.666 1.667 1.8 2.466 3.4 2.4"/><path stroke="#FF7800" stroke-linecap="round" stroke-linejoin="round" stroke-width="1.5" d="M55.956 69.75h-30.6 30.6zm3.5-19.9l-2.5 16.85h-32.6l-2.45-16.85h37.55zM34.006 34.9a20.3 20.3 0 01-.9-2.95c-.2-.933-.317-1.85-.35-2.75-.033-.333-.05-.683-.05-1.05 0-.167.017-.367.05-.6.2-1.8.983-3.383 2.35-4.75 1.567-1.467 3.467-2.2 5.7-2.2 2.2 0 4.084.733 5.65 2.2 1.434 1.333 2.267 2.9 2.5 4.7.033.6.033 1.184 0 1.75-.033.1-.05.2-.05.3-.2 1.967-.617 3.75-1.25 5.35-.134.3-.25.583-.35.85-.867 1.566-1.983 2.85-3.35 3.85-1.2.9-2.25 1.383-3.15 1.45-.9-.067-1.95-.55-3.15-1.45-1.367-1-2.467-2.284-3.3-3.85-.1-.267-.216-.55-.35-.85zm25 33.15c3.6-.734 6.2-2 7.8-3.8 1.7-1.9 2.2-4.316 1.5-7.25l-3.95-16.2c-1.233-4.933-5.133-7.85-11.7-8.75.467-4.5 0-8.517-1.4-12.05-1.333-3.3-3.417-6.066-6.25-8.3-1.667-1.233-3.116-1.884-4.35-1.95-1.2.066-2.634.717-4.3 1.95-2.834 2.234-4.917 5-6.25 8.3-1.4 3.533-1.867 7.55-1.4 12.05-6.566.9-10.467 3.817-11.7 8.75L13.056 57c-.7 2.934-.2 5.35 1.5 7.25 1.6 1.8 4.183 3.066 7.75 3.8"/></g></svg>