<svg xmlns="http://www.w3.org/2000/svg" width="80" height="80"><g fill="none" fill-rule="evenodd"><path fill="#4E22D0" d="M47.6 39.7c0 3.2-1.133 5.917-3.4 8.15-2.2 2.233-4.916 3.35-8.15 3.35-1.367 0-2.667-.217-3.9-.65L47 35.75c.4 1.233.6 2.55.6 3.95M36.05 28.2c1.433 0 2.767.217 4 .65L25.2 43.7c-.467-1.233-.7-2.566-.7-4 0-3.167 1.133-5.883 3.4-8.15 2.266-2.233 4.983-3.35 8.15-3.35"/><path stroke="#4E22D0" stroke-linecap="round" stroke-linejoin="round" stroke-width="1.5" d="M15.25 60.45l41.6-41.5-41.6 41.5zm40-6.05c-5.634 4.133-12.033 6.2-19.2 6.2-4.234 0-8.184-.716-11.851-2.15M47.6 39.7c0 3.2-1.133 5.917-3.401 8.15C42 50.083 39.283 51.2 36.05 51.2c-1.367 0-2.667-.217-3.901-.65L47 35.75c.399 1.233.6 2.55.6 3.95zM36.05 28.2c-3.167 0-5.884 1.117-8.151 3.35-2.266 2.267-3.399 4.983-3.399 8.15 0 1.434.232 2.767.699 4L40.05 28.85c-1.234-.433-2.568-.65-4-.65zM15.5 53.25a31.981 31.981 0 01-4.101-3.9c-1-1.133-1.966-2.3-2.899-3.5L3.75 39.7l4.75-6.2a58.56 58.56 0 012.899-3.45c6.8-7.534 15.017-11.3 24.651-11.3 4.233 0 8.2.733 11.899 2.2m27.45 22.75L64.6 62.95 53.699 43.6c-.766-1.6-1.149-3.383-1.149-5.35 0-3.4 1.149-6.3 3.45-8.7a12.829 12.829 0 012.449-1.85c1.834-1.1 3.884-1.65 6.151-1.65 3.367 0 6.216 1.167 8.549 3.5 2.401 2.4 3.601 5.3 3.601 8.7 0 2-.45 3.817-1.351 5.45z"/></g></svg>