<svg xmlns="http://www.w3.org/2000/svg" width="80" height="80"><path fill="none" stroke="#FF7800" stroke-linecap="round" stroke-linejoin="round" stroke-width="1.5" d="M49.65 58.45l2.4-3.149m-22.8 7.049l1.4.951m17.9-10.75v1.399l-4.75 5.3-1.4-.199-1.55-4.851 1.1-1.399-1.15-2.051m1.85-7.6l-2.8-2.8m-19 13.35l-2.35-3.3-1.25-4.3-3.8-3.799-2.1-6.601m5.75 21.75C13.033 52.45 11 46.634 11 40c0-1.467.116-2.9.35-4.3.833-5.899 3.467-11.083 7.9-15.55.466-.467.95-.933 1.45-1.4m14.8-6.55c-2.134.233-4.167.7-6.1 1.4m20.2.35C46.333 12.65 42.8 12 39 12c-1.2 0-2.367.067-3.5.2l2.15 2.7-3.25 5.75-6.5 4.6 2.1-7.3-2.6-1.8 2-2.55c-3.167 1.133-6.067 2.85-8.7 5.15l3.1-1.5.2 1-1.5 1.9 4-1.15-.7 4.6-1.4 2.15-1.6-2.199-1.55.199-3 3.301 1.9.949 1.9-3.3 1.85 1.601.45 5.649-2.95.95-5.3 8.6 1.15 4.6 1.6-1.85 3 2.051 1.65.199.4 1.45 1.95.8M61.5 21.5l2.1-2.1m-3.9 28.35l.7 5.2 3.2-5.85m-4.25-20.799l-8.45 8.5-2.7-2.75 8.45-8.5m3.1 20.599l-.8 1.35m-32.5 19.6C30.25 67.033 34.433 68 39 68c7.733 0 14.333-2.733 19.8-8.199.5-.5.983-1.018 1.45-1.551a29.398 29.398 0 003.85-5.6C66.033 48.817 67 44.6 67 40c0-1-.034-1.967-.1-2.9L64 44.2h-1.3l-.55-2.45m-3-22.55l2.15-2.1m-7.85 3.25l3.2 3.201 2.7 2.75L64 30.9c1.1 1.133 1.1 2.25 0 3.35l-13.5 13.5c-1.1 1.1-2.2 1.084-3.3-.05l-4.55-4.55L18.7 67.2m47.2-45.5l-2.1 2.101M15.85 64.35l24-24-4.6-4.6c-1.1-1.1-1.1-2.199 0-3.3l13.5-13.5c1.1-1.1 2.2-1.1 3.3 0l1.4 1.4L59 14.801l2.3 2.299 2.3 2.3 2.3 2.3 2.25 2.25-2.8 2.8"/></svg>