<svg xmlns="http://www.w3.org/2000/svg" width="80" height="80"><path fill="none" stroke="#4E22D0" stroke-linecap="round" stroke-linejoin="round" stroke-width="1.5" d="M70.149 14.899L68.049 17m-31.95 12.649L25 40.799m21.899-4.45l-23 23.101m-1.3-16.25l-1.45 1.449m29.55-.25l-4.25 4.301m15.9-15.301c1.1 3 1.651 6.25 1.651 9.75 0 7.733-2.734 14.334-8.201 19.801-5.067 5.066-11.1 7.783-18.1 8.149-.567.033-1.133.05-1.699.05-7.734 0-14.334-2.732-19.801-8.199l-.75-.75L43.75 33.849m-4.801-1.45l-7.449 7.5m34.049-29.6l-2.15 2.1m.2 7.101l-2.7-2.75m6.95-4.151L65.75 14.7m-18.151 2.899l-8.099 8.05c-1.101 1.101-1.101 2.2 0 3.301l7.399 7.399 4.55 4.55c1.1 1.134 2.2 1.15 3.301.051l7.599-7.551 5.901-5.949c1.099-1.101 1.099-2.217 0-3.351L63.599 19.5l-5.9 5.95-2.55 2.55-2.7-2.75 2.6-2.601 5.85-5.899-3.2-3.201m-45.449 44.5a7.27 7.27 0 01-.551-.849 3.16 3.16 0 01-.199-.351C9.166 52.783 8 48.216 8 43.149c0-2.699.333-5.267 1-7.699 1.232-4.5 3.632-8.533 7.199-12.101 5.467-5.467 12.067-8.2 19.801-8.2 4.199 0 8.066.817 11.599 2.45L53 12.149c1.099-1.1 2.199-1.1 3.299 0l1.4 1.4L63.25 8l2.299 2.299 2.3 2.3 2.3 2.3 2.25 2.25-2.8 2.801"/></svg>