<svg xmlns="http://www.w3.org/2000/svg" width="80" height="80"><path fill="none" stroke="#4E22D0" stroke-linecap="round" stroke-linejoin="round" stroke-width="1.5" d="M54.602 19.016c1.268 0 3.23.426 5.882 1.277 2.653.851 5.133 2.809 7.44 5.873-.462.113-1.817 1.305-4.066 3.575-2.25 2.27-3.547 5.674-3.893 10.213.461 5.448 2.134 9.278 5.018 11.49 2.883 2.214 4.556 3.32 5.017 3.32-.115.227-.577 1.334-1.384 3.32-.808 1.986-2.076 4.284-3.806 6.894-1.5 2.383-3.144 4.454-4.931 6.213-1.788 1.76-3.864 2.639-6.229 2.639s-4.325-.426-5.883-1.277c-1.557-.851-3.662-1.277-6.315-1.277-2.652 0-4.786.426-6.401 1.277-1.615.851-3.518 1.334-5.71 1.447-2.422 0-4.585-.936-6.488-2.809-1.903-1.872-3.604-4-5.104-6.383-3.345-4.767-5.71-10.583-7.093-17.449-1.384-6.866-.577-13.25 2.422-19.15 1.73-2.724 3.922-4.909 6.574-6.554 2.653-1.646 5.537-2.469 8.651-2.469 2.422.114 4.672.625 6.748 1.532 2.076.908 3.864 1.42 5.363 1.533 1.5-.114 3.49-.71 5.97-1.788 2.48-1.078 5.219-1.56 8.218-1.447zM52.432 0c.194 2.26-.025 4.43-.655 6.51-.63 2.082-1.48 3.955-2.546 5.62a12.62 12.62 0 01-4.074 4.013c-1.649 1.011-3.346 1.457-5.092 1.338-.194-2.26.048-4.43.727-6.51.68-2.082 1.504-3.836 2.474-5.263a13.796 13.796 0 014.292-4.013C49.255.684 50.88.119 52.432 0z"/></svg>