<svg xmlns="http://www.w3.org/2000/svg" width="80" height="80"><path fill="none" stroke="#FF7800" stroke-linecap="round" stroke-linejoin="round" stroke-width="1.5" d="M14.601 48.94l-1.15-.805-5.8-8.24-.95-3.217m-4.4-7.839A17.237 17.237 0 002 32.106c0 5.76 2.068 10.702 6.201 14.824 1.7 1.707 3.549 3.065 5.549 4.07M9.551 15.924c-.1.068-.183.118-.25.151-.367.335-.733.686-1.1 1.056-3.3 3.35-5.267 7.252-5.9 11.708l1.55 4.924 2.85 2.915m13.7-25.577c-1.6.167-3.117.518-4.55 1.054-.7.268-1.367.57-2 .905m6.6 9.899l-2.1 1.96M44 31c0-.468-.016-.904-.049-1.306M21.5 38.084l-1 .252-3.049-2.612 2.1-3.267 4.05-1.91.5 1.307 3.75.252 4.85 5.326-2.05 2.361m13.3-10.1c-.5-4.824-2.517-9.012-6.05-12.562a35.376 35.376 0 00-2.55-2.162 20.856 20.856 0 00-3.3-2.01m.6 20.905l-.2-.2-2.951-2.966.401-1.055-2.25-1.66h-2.6l-1.301-.753-3.5 2.112-.199-2.01.699-1.057 2.651-1.205.55-1.307 1.9 1.005 1.8-3.065L26 20.548l-1.049 1.507-2.05-1.156 3.05-2.915 2.6 1.005 1.65-.652 1.85-5.378C29.318 11.652 26.301 11 23 11c-.899 0-1.766.033-2.599.1L22 13.16l-1.899 4.321-4 2.112.8-5.378-3.05-1.155c-1.567.737-3 1.69-4.3 2.864l4.1.352-.95 4.573-2.951-1.055-1.099 1.256 3.4 1.959v3.015l-2.2.704-4 6.483.85 3.467 1.2-1.408L15 39.34l.101 3.318-1.05 3.267 1.25 2.21M28 65.8h52l-7.242-3.1H35.091L28 65.8v2.5c.536.467 1.09.7 1.659.7H78.49c.604 0 1.107-.233 1.509-.7v-2.5m-37.617-6.2h27.056c1.743 0 2.615-.866 2.615-2.6V35.651c0-1.768-.872-2.651-2.615-2.651H37.505c-1.777 0-2.666.883-2.666 2.651V45.95M39 60H11l14-25 14 25zM25 45.102v5.97-5.97zm0 8.929v.612-.612z"/></svg>