<svg xmlns="http://www.w3.org/2000/svg" width="80" height="81"><path fill="none" stroke="#4E22D0" stroke-linecap="round" stroke-linejoin="round" stroke-width="1.5" d="M7.7 56.65h25.5H7.7zm0-7.051h25.5H7.7zm0 14h25.5H7.7zM26.2 43.2H14.75 26.2zm-17.4 0H5.7c-1.8 0-2.7.899-2.7 2.7v21.399C3 69.099 3.9 70 5.7 70h29.5c1.767 0 2.65-.901 2.65-2.701V45.9c0-1.801-.883-2.7-2.65-2.7H8.8zm11.65-12.401c1.566 0 2.917.534 4.05 1.601 1.133 1.066 1.7 2.399 1.7 4v6.8h5.95v-6.901c0-2.932-.967-5.5-2.9-7.7l-.55-.55c-2.233-2.2-4.983-3.299-8.25-3.299-3.233 0-5.967 1.099-8.2 3.299-2.3 2.3-3.45 5.05-3.45 8.25V43.2h5.95v-6.8c0-1.601.583-2.934 1.75-4 1.067-1.067 2.383-1.601 3.95-1.601zm39.4-3.2c2.066 2.068 3.1 4.533 3.1 7.401 0 2.9-1.034 5.367-3.1 7.4-1.067 1.1-2.267 1.899-3.6 2.399L58.7 64.4H46.2l2.5-19.601c-1.333-.5-2.567-1.299-3.7-2.399-2.033-2.033-3.05-4.5-3.05-7.4 0-2.868 1.017-5.333 3.05-7.401 2.067-2.033 4.55-3.05 7.45-3.05 2.9 0 5.367 1.017 7.4 3.05zm-28.9-3.449c1.133-2.233 2.65-4.301 4.55-6.2 4.666-4.634 10.333-6.95 17-6.95 6.6 0 12.25 2.316 16.95 6.95 4.733 4.766 7.1 10.45 7.1 17.05 0 4.599-1.1 8.716-3.3 12.349-1.033 1.634-2.3 3.184-3.8 4.651-1.934 1.966-4.034 3.549-6.3 4.75"/></svg>