<svg xmlns="http://www.w3.org/2000/svg" width="80" height="80"><path fill="none" stroke="#4E22D0" stroke-linecap="round" stroke-linejoin="round" stroke-width="1.5" d="M2 54.8v2.5c.534.467 1.083.7 1.65.7h19M19 62.8h59.7l-7.2-3.1H26.05L19 62.8v2.5c.534.467 1.083.7 1.65.7H77.2c.6 0 1.1-.233 1.5-.7v-2.5M46.2 33.35l-4.9-4.85m-27.1 9.85l4.9-4.85m3.55 18.2H9.05L2 54.8h20.65M36.2 38.35h-22l4.9 4.85m22.2-5l4.9-4.85h-22m1.6 8.301V54c0 .3.033.567.1.8.233 1.2 1.083 1.8 2.55 1.8H68.2c1.733 0 2.6-.866 2.6-2.6V25.651c0-1.768-.867-2.651-2.6-2.651H28.45c-1.766 0-2.65.883-2.65 2.651v4.399m28-10.35v-2.049c0-1.768-.866-2.651-2.6-2.651H11.45c-1.766 0-2.65.883-2.65 2.651V46c0 1.734.884 2.6 2.65 2.6h11.2"/></svg>