<svg xmlns="http://www.w3.org/2000/svg" width="80" height="80"><path fill="none" stroke="#FF7800" stroke-linecap="round" stroke-linejoin="round" stroke-width="1.5" d="M28.865 57.595c.635 0 1.17.2 1.605.603.434.467.652 1.02.652 1.656 0 .569-.218 1.07-.652 1.506-.436.435-.97.652-1.605.652-.569 0-1.087-.217-1.556-.652-.4-.435-.6-.937-.6-1.506 0-.636.2-1.189.6-1.656.469-.402.987-.603 1.556-.603zm-6.12-1.707c-.4.435-.92.653-1.554.653a2.12 2.12 0 01-1.554-.653 2.155 2.155 0 01-.603-1.506c0-.636.2-1.189.603-1.658.433-.4.953-.601 1.554-.601.634 0 1.154.2 1.554.601.469.469.703 1.022.703 1.658 0 .568-.234 1.07-.703 1.506zm6.57-4.267c0-.403.135-.737.402-1.005a1.3 1.3 0 01.953-.402c.4 0 .736.134 1.003.402.301.268.452.602.452 1.005 0 .368-.15.685-.452.953a1.288 1.288 0 01-1.003.452c-.368 0-.686-.15-.953-.452a1.304 1.304 0 01-.402-.953zm-1.254-20.786c5.517 0 10.232 1.941 14.145 5.823 3.944 3.95 5.917 8.703 5.917 14.26 0 5.522-1.973 10.242-5.917 14.158C38.293 69.025 33.578 71 28.06 71c-5.55 0-10.296-1.975-14.242-5.924C9.939 61.16 8 56.44 8 50.918c0-5.557 1.94-10.31 5.819-14.26 3.946-3.882 8.692-5.823 14.242-5.823zm7.022 15.111c0-.634.2-1.17.603-1.605a2.118 2.118 0 011.555-.654c.633 0 1.153.218 1.553.654.469.435.703.97.703 1.605 0 .604-.234 1.106-.703 1.506-.4.436-.92.654-1.553.654a2.118 2.118 0 01-1.555-.654c-.402-.4-.603-.902-.603-1.506zm-14.995-2.96c0-.905.3-1.675.902-2.311a3.175 3.175 0 012.257-.903c.903 0 1.672.301 2.307.903.636.636.953 1.406.953 2.31 0 .904-.317 1.64-.953 2.208a3.137 3.137 0 01-2.307.955c-.869 0-1.621-.318-2.257-.955-.601-.568-.902-1.304-.902-2.208zm37.665.25c.869 0 1.621.319 2.257.953.601.57.902 1.306.902 2.21 0 .904-.3 1.674-.902 2.309a3.168 3.168 0 01-2.257.904c-.903 0-1.672-.3-2.307-.904a3.14 3.14 0 01-.953-2.309c0-.904.317-1.64.953-2.21a3.143 3.143 0 012.307-.953zm-8.376-6.376a1.29 1.29 0 011.003-.453c.335 0 .636.152.904.453.266.267.4.585.4.954s-.134.686-.4.954c-.268.268-.57.4-.904.4-.4 0-.735-.132-1.003-.4-.301-.268-.45-.585-.45-.954s.149-.687.45-.954zm10.433.452c-.635 0-1.155-.2-1.555-.603-.469-.468-.702-1.02-.702-1.656 0-.57.233-1.072.702-1.506.4-.436.92-.654 1.555-.654.6 0 1.12.218 1.553.654.403.434.603.936.603 1.506 0 .635-.2 1.188-.603 1.656a2.21 2.21 0 01-1.553.603zm-.904-17.02a1.29 1.29 0 011.003-.453c.335 0 .636.152.904.453.267.267.4.586.4.954 0 .369-.133.686-.4.954-.268.268-.57.4-.904.4-.4 0-.734-.132-1.003-.4-.301-.268-.45-.585-.45-.954 0-.368.149-.687.45-.954zm-8.425-.301c.4-.403.902-.603 1.505-.603.501 0 .97.2 1.403.603.368.402.553.852.553 1.354 0 .604-.185 1.106-.553 1.507-.433.37-.902.553-1.403.553-.603 0-1.105-.184-1.505-.553-.368-.401-.552-.903-.552-1.507 0-.502.184-.952.552-1.354zm-4.062-3.314c0 .736-.234 1.372-.703 1.907-.534.47-1.12.704-1.755.704-.736 0-1.355-.235-1.857-.704-.468-.535-.7-1.17-.7-1.907 0-.636.232-1.205.7-1.707.502-.502 1.12-.753 1.857-.753.635 0 1.22.251 1.755.753.469.502.703 1.07.703 1.707zm17.854-1.205a3.176 3.176 0 01-2.257.904c-.903 0-1.672-.302-2.307-.904a3.146 3.146 0 01-.953-2.309c0-.904.317-1.64.953-2.21A3.14 3.14 0 0162.016 10c.869 0 1.621.318 2.257.954.601.568.902 1.305.902 2.209 0 .903-.3 1.674-.902 2.31zM49.78 58.348c1.036.134 2.09.201 3.16.201 5.55 0 10.298-1.941 14.242-5.825C71.061 48.776 73 44.022 73 38.467c0-5.49-1.94-10.192-5.819-14.11a20.98 20.98 0 00-1.304-1.203 6.12 6.12 0 01-1.403 2.109c-1.104 1.137-2.442 1.707-4.012 1.707a5.658 5.658 0 01-2.257-.452 6.314 6.314 0 01-1.254 1.757c-1.105 1.138-2.442 1.707-4.012 1.707-1.572 0-2.926-.57-4.064-1.707a5.507 5.507 0 01-1.203-1.757 5.663 5.663 0 01-2.256.452c-1.572 0-2.926-.57-4.064-1.707a5.492 5.492 0 01-1.304-2.009c-.4.335-.801.703-1.204 1.104-1.504 1.506-2.725 3.13-3.66 4.87"/></svg>