<svg xmlns="http://www.w3.org/2000/svg" width="80" height="80"><path fill="none" stroke="#FF7800" stroke-linecap="round" stroke-linejoin="round" stroke-width="1.5" d="M44.35 53.7h-31.3L6 56.8m38.35 0H6v2.5c.5.467 1.05.7 1.65.7h36.7m16-2.8v-3.65c-.566 0-1.066-.217-1.5-.65-.4-.4-.6-.883-.6-1.45 0-.4.067-.716.2-.95.133-.266.4-.533.8-.8a1.839 1.839 0 011.25-.35c.467 0 .9.2 1.3.6.433.434.65.934.65 1.5 0 .567-.217 1.05-.65 1.45-.4.433-.884.65-1.45.65m-.55-10.5h11.1c1.634 0 2.45.817 2.45 2.45v15.45c0 1.667-.816 2.5-2.45 2.5H49.85c-1.667 0-2.5-.833-2.5-2.5V45.5c0-1.633.833-2.45 2.5-2.45h9.95zm-7.5-3V36.9c0-2.2.783-4.05 2.35-5.55 1.433-1.4 3.15-2.15 5.15-2.25.167-.033.35-.05.55-.05 2.233 0 4.117.767 5.65 2.3 1.6 1.5 2.4 3.35 2.4 5.55v3.15M29 43.4c.033-2.033.767-3.767 2.2-5.2 1.467-1.467 3.267-2.2 5.4-2.2 2.1 0 3.867.733 5.3 2.2 1.466 1.433 2.216 3.167 2.25 5.2M36.5 33a4.5 4.5 0 100-9 4.5 4.5 0 000 9zm23.3-6.75v-6.6c0-1.766-.867-2.65-2.6-2.65H15.45c-1.767 0-2.65.884-2.65 2.65V48c0 1.734.883 2.6 2.65 2.6h28.9"/></svg>