<svg xmlns="http://www.w3.org/2000/svg" width="80" height="80"><path fill="none" stroke="#4E22D0" stroke-linecap="round" stroke-linejoin="round" stroke-width="1.5" d="M55.665 17.875l-25.728 14.9 25.728-14.9zm-41.964 11.9c-.3-.5-.617-.85-.95-1.048-.366-.234-.682-.25-.949-.051-.3.167-.45.45-.45.85 0 .4.15.85.45 1.35.233.434.55.783.95 1.05.332.2.649.217.949.05.267-.166.4-.45.4-.85 0-.433-.133-.883-.4-1.35zm11.34 35.902l-14.388-8.35v5.95l14.388 8.35v-5.95zM8.681 22.982l17.46 10.144c.699.434 1.114.967 1.248 1.6l.1.7v39.501c0 .5-.084.817-.25.95m-2.198-22.85l-14.388-8.45v-5.901l14.388 8.35v6zm0 3.35l-14.388-8.4v6l14.388 8.35v-5.95zm44.613-26.551c2.897 3 4.346 6.517 4.346 10.55 0 4.167-1.449 7.7-4.346 10.601-2.965 3-6.512 4.5-10.641 4.5h-.05c-4.097 0-7.627-1.5-10.591-4.5-2.032-2.068-3.33-4.467-3.897-7.2-.3-1.101-.45-2.234-.45-3.401 0-4.033 1.449-7.55 4.347-10.55 2.83-2.8 6.177-4.25 10.041-4.35h.6c4.13 0 7.676 1.45 10.64 4.35zm-12.94 29.05L27.24 75.878a.614.614 0 01-.15.101c-.232.066-.55-.018-.949-.25L9.404 66.077c-.932-.533-1.398-1.333-1.398-2.4V24.275c0-.824-.106-1.575.599-2 3.628-2 14.036-7.733 31.224-17.2l.15-.05c.067-.033.165-.033.3 0l.599.25 16.586 9.65.1.051c.932.533 1.399 1.35 1.399 2.45v4.95M53 40.05h6.051m0-6.051v6.051m5.949 0h-5.949V46"/></svg>