<svg xmlns="http://www.w3.org/2000/svg" width="80" height="80"><path d="M16 29.2c-.333-.833-.15-1.7.55-2.6 8.333-8.333 18.167-12.5 29.5-12.5 11.3 0 21.133 4.167 29.5 12.5.9 1.233.9 2.4 0 3.5l-4.5 4.95c-.9.8-1.85.8-2.85 0-6.167-6.233-13.55-9.35-22.15-9.35-7.533 0-14.15 2.4-19.85 7.2m8.35 14.4c3.233-2.833 7.067-4.25 11.5-4.25 4.4 0 8.233 1.417 11.5 4.25 1.333 1.067 2.5 1.083 3.5.05l4.4-4.9c.7-.9.65-1.983-.15-3.25-5.5-5.233-11.917-7.85-19.25-7.85-5.733 0-10.867 1.567-15.4 4.7M54.7 54.1c-.967 1.367-3.5 4.183-7.6 8.45-.367.267-.717.4-1.05.4-.367 0-.733-.133-1.1-.4-4.1-4.267-6.633-7.083-7.6-8.45-.5-.767-.5-1.4 0-1.9 2.467-2.333 5.367-3.533 8.7-3.6 3.367.067 6.25 1.267 8.65 3.6.5.5.5 1.133 0 1.9zM7.15 46.35H3.7m17.05-13.4V29.5m-9.6 7.3L8.7 34.35m15.65 12h-3.6v10.2H16.8l-3.7-6.5c-.833-1.5-1.25-2.85-1.25-4.05 0-2.433.867-4.517 2.6-6.25 1.733-1.733 3.85-2.6 6.35-2.6 2.467 0 4.567.867 6.3 2.6 1.733 1.733 2.6 3.817 2.6 6.25a8.571 8.571 0 01-1.15 4.35l-3.65 6.2m-4.15-10.2H17.3m-.1 18.4h7.15m-7.15-4h7.15" stroke="#FF7800" stroke-width="1.5" fill="none" stroke-linecap="round" stroke-linejoin="round"/></svg>