<svg xmlns="http://www.w3.org/2000/svg" width="80" height="80"><path fill="none" stroke="#4E22D0" stroke-linecap="round" stroke-linejoin="round" stroke-width="1.5" d="M3 59.022v2.457c.522.46 1.058.688 1.612.688h46.256m-19.831-6.193H9.887L3 59.022h28.037M43.59 48.995v4.472m-3.81-8.158v8.158m0-11.746v.786m3.81 2.802v3.686c.066-.95.39-1.754.977-2.41.684-.686 1.514-1.03 2.491-1.03 1.041 0 1.89.344 2.54 1.03.652.656 1.01 1.46 1.075 2.41v4.472M22 48.995h9.036m-18.805 0H22V24.764h29.942v7.814m18.951 21.971H66.89V66h7.669C76.185 66 77 65.165 77 63.494V44.865c0-1.637-.815-2.457-2.442-2.457H56.046c-1.661 0-2.492.82-2.492 2.457v18.63c0 1.67.83 2.505 2.492 2.505h10.843M63.47 54.549h3.42v-3.195a5.3 5.3 0 01.194-1.032c.196-.524.521-1.015.977-1.474.521-.558 1.092-.902 1.71-1.034.618-.13 1.384-.114 2.296.05m-15.582-8.11v-1.77c0-1.637-.815-2.457-2.442-2.457H35.53c-1.661 0-2.491.82-2.491 2.457v18.63c0 1.343.537 2.145 1.611 2.408.26.065.554.097.88.097h15.337m13.481-19.364V16.604c0-1.736-.847-2.604-2.54-2.604H12.232c-1.726 0-2.59.868-2.59 2.604v33.767c0 1.704.864 2.556 2.59 2.556h18.805m30.675-34.012h-49.48"/></svg>