<svg xmlns="http://www.w3.org/2000/svg" width="80" height="80"><path fill="none" stroke="#4E22D0" stroke-linecap="round" stroke-linejoin="round" stroke-width="1.5" d="M36.55 47.149c2.8 2.733 4.2 6.083 4.2 10.05 0 3.933-1.4 7.283-4.2 10.051M43.7 40c4.767 4.732 7.15 10.466 7.15 17.199 0 6.7-2.383 12.433-7.15 17.2m-21.3-13.2c-1.1-1.1-1.65-2.433-1.65-4 0-1.567.55-2.916 1.65-4.05 1.133-1.1 2.483-1.649 4.05-1.649 1.567 0 2.917.549 4.05 1.649 1.1 1.134 1.65 2.483 1.65 4.05 0 1.567-.55 2.9-1.65 4-1.133 1.134-2.483 1.7-4.05 1.7-1.567 0-2.917-.566-4.05-1.7zm-13.2 13.2c-4.8-4.767-7.2-10.5-7.2-17.2 0-6.733 2.4-12.483 7.2-17.25.1-.133.234-.267.4-.4m6.75 27.701c-2.8-2.768-4.2-6.118-4.2-10.051 0-3.967 1.4-7.333 4.2-10.1l.4-.4M59.3 37l3.05 3.299c.234.133.45.133.65 0l5.55-5.75m-31.5.75c-.433.467-1.017.701-1.75.701-.667 0-1.267-.234-1.8-.701-.467-.5-.7-1.1-.7-1.799 0-.701.233-1.268.7-1.701.533-.533 1.133-.799 1.8-.799.733 0 1.317.266 1.75.799.467.433.7 1 .7 1.701 0 .699-.233 1.299-.7 1.799zM51.45 4c1.3.932 2 2.116 2.1 3.549.1.767 0 1.5-.3 2.201-.4.866-1.1 1.666-2.1 2.399-1.833 1.533-2.683 3.15-2.55 4.851.267 1.732 1.35 3.182 3.25 4.349M72 45.799c-2.3 2.367-5.15 3.55-8.55 3.55-3.366 0-6.233-1.183-8.6-3.55-2.366-2.333-3.55-5.183-3.55-8.549 0-3.334 1.184-6.201 3.55-8.601 2.367-2.366 5.234-3.55 8.6-3.55 3.4 0 6.25 1.184 8.55 3.55 2.367 2.4 3.55 5.267 3.55 8.601 0 3.366-1.183 6.216-3.55 8.549zm-17.55 7.05h8.95c4.167 0 7.8-1.55 10.9-4.65 1.467-1.467 2.583-3.017 3.35-4.65.9-1.966 1.35-4.049 1.35-6.25 0-2.233-.45-4.317-1.35-6.25-.767-1.667-1.883-3.233-3.35-4.7-3.1-3.099-6.733-4.65-10.9-4.65H38.85c-4.166 0-7.8 1.551-10.9 4.65-3.133 3.133-4.7 6.783-4.7 10.95 0 2.667.65 5.117 1.95 7.35"/></svg>