<svg xmlns="http://www.w3.org/2000/svg" width="80" height="80"><path fill="none" stroke="#4E22D0" stroke-linecap="round" stroke-linejoin="round" stroke-width="1.5" d="M27.366 24.386l-2.901 2.648 2.901-2.648zM53.283 46.62l.8-1.349-.8 1.349zm7.705 11.041v4.798-4.798zm-19.212-1.898l2.602-3.248-2.602 3.248zM31.619 34.729l.7 1.798 5.154.35 6.704 7.294-3.452 3.897v3.097l-4.903 5.446-1.451-.149-3.602-11.891-3.403.849-4.202-3.597 2.902-4.447 5.553-2.647zM79 46.87v-2.15c0-2.032-.733-3.73-2.201-5.097a5.174 5.174 0 00-.45-.398c-1.335-1.133-2.936-1.7-4.804-1.7-2.067 0-3.802.7-5.203 2.098-1.468 1.366-2.202 3.065-2.202 5.097v5.195h5.604c1.735 0 2.602.85 2.602 2.55v15.936c0 1.732-.867 2.598-2.602 2.598H52.183c-1.702 0-2.552-.866-2.552-2.598V52.465c0-1.432.6-2.248 1.801-2.449.233-.067.483-.1.75-.1H64.14M59.687 33.58c-.734-6.594-3.535-12.323-8.405-17.187a38.396 38.396 0 00-3.402-2.947 30.626 30.626 0 00-4.553-2.748M27.317 8.15c-2.235.233-4.353.7-6.355 1.399-.967.4-1.884.816-2.751 1.249M2.35 32.43c.867-6.095 3.602-11.44 8.205-16.038.433-.5.933-.982 1.5-1.448.1-.033.184-.1.25-.2m45.83 31.875c1.067-2.998 1.601-6.245 1.601-9.742 0-1.2-.017-2.299-.05-3.298l-3.302 7.146-1.9-3.349-3.053 5.097-2.401-5.097-4.153 2.648-5.154-5.096.65-1.448-3.151-2.248H33.72l-1.802-1.05-4.853 2.897-.35-2.747 1.05-1.45 3.603-1.647.85-1.8 2.552 1.4 2.452-4.147-2.252-1.6-1.4 2.05-2.802-1.6 4.152-3.996 3.503 1.398 2.351-.899 2.552-7.344C39.558 8.898 35.405 8 30.869 8a40.51 40.51 0 00-3.553.149l2.202 2.798-2.702 5.945-5.503 2.898 1.1-7.394-4.202-1.6a27.256 27.256 0 00-5.904 3.949l5.703.5-1.4 6.245-4.003-1.45-1.551 1.7 4.753 2.696v4.097l-3.102 1-5.404 8.842 1.051 4.747 1.651-1.898 9.807 5.496.1 4.545-1.401 4.497 3.202 5.745-4.053-2.698-7.955-11.29-1.35-4.397-3.803-3.947L2.35 32.43A27.046 27.046 0 002 36.877c0 7.893 2.852 14.655 8.556 20.284 5.636 5.63 12.408 8.443 20.313 8.443 5.77 0 10.924-1.466 15.46-4.395"/></svg>