<svg xmlns="http://www.w3.org/2000/svg" width="80" height="80"><path fill="none" stroke="#4E22D0" stroke-linecap="round" stroke-linejoin="round" stroke-width="1.5" d="M43.161 63.086h-3.86 3.86zm14.24 1.15c.1-.099.217-.182.35-.25.033-.033.067-.05.1-.05l.151-.15.903-.802c.266-.233.517-.45.752-.65a399.616 399.616 0 003.209-2.654L57.4 64.236zm-4.012 1.503l-2.055 3.606 2.055-3.606zm-5.665-3.304l-1.103 1.903-4.413 7.611 5.516-9.514zm1.604-15.726c-.3 1.335-.586 2.721-.852 4.158l-.1.5.952-4.658zm-16.395 6.16v8.814H6.008V52.87h26.925zm0-4.206H6.008V39.85h26.925v8.814zm0-13.02H6.008v-8.814h26.925v8.814zm-2.307-20.031c-.4.4-.869.6-1.404.6-.535 0-1.002-.2-1.403-.6-.401-.402-.602-.87-.602-1.403 0-.534.2-1.002.602-1.402.4-.401.868-.601 1.403-.601s1.003.2 1.404.601c.401.4.602.868.602 1.402 0 .533-.2 1.001-.602 1.403zm24.067 5.208c.401.4.602.867.602 1.401s-.201 1.002-.602 1.403c-.401.4-.87.6-1.404.6-.535 0-1.003-.2-1.404-.6-.401-.401-.602-.87-.602-1.403 0-.534.201-1.001.602-1.401.401-.402.869-.602 1.404-.602.535 0 1.003.2 1.404.602zm5.465 2.504v-5.308c0-1.337-.669-2.004-2.006-2.004H39.3m18.451 35.856l-2.156 3.655 7.27 4.157a522.798 522.798 0 013.56-2.955M49.93 65.389l2.406-4.107-5.264-3.005-10.98-1.451 4.412-7.762 8.824-2.355v-.049c.1-.535.217-1.052.351-1.552.334-1.536.635-2.772.903-3.706l.05-.05a43.85 43.85 0 01.752-2.504 35.286 35.286 0 011.855-4.207c1.003-1.87 2.156-3.422 3.46-4.658l.3-.3a30.05 30.05 0 013.159-2.553 31.74 31.74 0 013.91-2.304c.602-.3 1.22-.602 1.856-.902a32.407 32.407 0 019.426-2.553c1.304 2.97 2.139 6.225 2.507 9.765.334 3.772.083 7.327-.752 10.667-.835 3.505-3.043 7.16-6.618 10.966-.97.968-2.324 2.286-4.062 3.956l2.307 8.614L64.219 73 57.4 64.236l-5.064-2.954 3.26-5.76-7.22-4.155a98.196 98.196 0 00-.402 2.003 162.716 162.716 0 00-.802 4.207c0 .232-.034.468-.1.7M63.768 33.84c1.404-.367 2.74-.184 4.011.551 1.304.734 2.139 1.819 2.507 3.255.401 1.435.218 2.787-.552 4.055-.735 1.27-1.788 2.087-3.158 2.455-1.504.4-2.892.234-4.162-.5-1.036-.602-1.788-1.437-2.256-2.504a5.039 5.039 0 01-.25-.752c-.302-1.203-.218-2.353.25-3.456l.3-.6c.736-1.269 1.839-2.104 3.31-2.504zM36.091 50.515V10.003c0-1.336-.668-2.003-2.005-2.003H5.006C3.668 8 3 8.667 3 10.003v54.084c0 1.335.668 2.003 2.006 2.003h29.08c1.337 0 2.005-.668 2.005-2.003v-3.706"/></svg>