<svg xmlns="http://www.w3.org/2000/svg" width="532" height="119"><g fill="none" fill-rule="evenodd" stroke-linecap="round" stroke-linejoin="round" stroke-width="1.5"><path stroke="#4E22D0" d="M399.904 65.7h56.699-56.699zm66.69-42.75h-66.69 66.69zm-9.991 50.3h-61.295l-11.19 10m72.485 0h-72.485v3.7c.667 1 1.35 1.5 2.048 1.5h70.437M278.463 61.8h112.649-112.648zm0-3.6h112.649-112.648zM515 79.25V43.9v35.35zm-23.03 14.1h18.084c3.298 0 4.946-1.65 4.946-4.95v-9.15M462 89h24-24zm18.847 8h4v-4h-4v4zm-8.42-3.423a2.067 2.067 0 011.445-.577c.546 0 1.011.193 1.397.577.385.387.578.869.578 1.446a1.9 1.9 0 01-.578 1.398 1.9 1.9 0 01-1.397.579 2.06 2.06 0 01-1.446-.58 1.898 1.898 0 01-.579-1.397c0-.577.193-1.06.58-1.446zm-5.58-.577v4l-3-2 3-2zm-53.955-34.3h40.713V29.95h-40.713V58.7zm72.933-6.15h-23.677 23.677zm.645-3.55h-24.99c-1.653 0-2.479.835-2.479 2.505v47.04c0 1.636.826 2.455 2.479 2.455h24.992c1.686 0 2.529-.819 2.529-2.455v-47.04c0-1.67-.843-2.505-2.53-2.505zm-2.341-5.1v2-2zm30.871 0v-1.2c0-3.3-1.648-4.95-4.946-4.95h-20.98c-3.298 0-4.945 1.65-4.945 4.95v1.2M502 42h-5 5zm4.5 47h-12 12zm5.604-47h-5.532v2.4c0 .884-.563 1.6-1.258 1.6h-11.322c-.695 0-1.258-.716-1.258-1.6V42h-5.909M76.247 88.35l3.696-4.85-3.696 4.85zM92.582 88l-5.695 1.35 11.59-9.95-5.895 8.6zM73.699 48.15l2.897 3.3-2.897-3.3zm-20.232 11.4l8.193-3.95 1.1 2.7 6.993 1.7 9.89 10.9-5.094 5.9v4.6l-7.243 8.15-2.15-.3-2.396-7.45 1.697-2.15-4.695-8.15-4.995 1.3-6.195-5.3 4.895-7.95zm.95-18.2l.998 1.05-2.747 3.1 1.748-4.15zM79.842 46l.85 4.25-.85-4.25zm22.93 9.15l-4.446 11.3h-1.999l-1.249-5.6-4.495 7.6-3.697-7.6-4.546-.3L83.99 63l-4.298 1.85-7.593-7.6L74 55.7l-5.596-3.3.15 2.75-2.448-2.2-1.548 1.9-.45-3.15-2.698-1.55-4.746 4.15-2.448 1-.398-5 2.147.25-.699-2.3 5.395-2.55 1.198-2.6 2.65 1.1 4.194-4.45-1.397-2.5-3.648 2.95-3.797-1.45 6.095-7.55 5.046 3.05 3.596-2.3 1.848-3.5 1.399-5.3 7.343 1.9m6.545 46.85l1.05 8 4.945-9-5.995 1zM54.567 17.3l3.296 4.15-4.945 8.85-9.991 7.05 3.247-11.2-3.997-2.8 3.047-3.9 9.343-2.15zM471.54 45.7V22.55c0-2.2-1.082-3.3-3.247-3.3h-70.036c-2.199 0-3.297 1.1-3.297 3.3V66.2c0 2.133 1.098 3.2 3.297 3.2h58.347M31.887 27.35c4.03-3.533 8.476-6.167 13.337-7.9a41.07 41.07 0 019.343-2.15c1.764-.2 3.563-.3 5.394-.3 9.525 0 17.934 2.683 25.227 8.05a75.394 75.394 0 015.146 4.45c7.227 7.233 11.372 15.783 12.44 25.65a76.13 76.13 0 01.148 4.85c0 7.067-1.48 13.533-4.445 19.4a45.93 45.93 0 01-5.895 8.6 51.07 51.07 0 01-2.248 2.4C81.94 98.8 71.817 103 59.96 103c-11.822 0-21.929-4.2-30.322-12.6C21.213 81.967 17 71.833 17 60c0-2.267.184-4.467.55-6.6 1.265-9.067 5.296-17.033 12.089-23.9l2.248-2.15 4.745-2.3.3 1.55-2.298 2.9 6.146-1.75-1.05 7.05-2.148 3.3-2.497-3.35-2.35.3-4.595 5.05 2.898 1.45 2.597-2.6 2.847 3.1 1 5.6-4.546 1.45-8.092 13.2 1.748 7 2.397-2.8 4.597 3.15 2.547.3.6 2.25 6.743 2.7.25 6.75-2.197 6.7 4.894 8.5-6.093-4.05-11.89-16.85-1.898-6.6.024-.025-5.82-5.775-3.195-10.15 14.336-26.05z"/><path stroke="#FF7800" d="M117.551 53.75h-7.301v12h7.301v-12zm24.5 7.8H159.2h-17.149zm0-3.6h10.8-10.8zm-13.45 3.6h-11.05v6c0 1.466.717 2.2 2.149 2.2h17.651c1.432 0 2.149-.734 2.149-2.2v-15.6c0-1.467-.717-2.2-2.149-2.2H119.7c-1.432 0-2.149.733-2.149 2.2v6h11.05v3.6zm118.75-13.45h-3.601c-1.533 0-2.3.784-2.3 2.35v18.5c0 1.566.767 2.35 2.3 2.35h27.4c1.534 0 2.3-.784 2.3-2.35v-18.5c0-1.566-.766-2.35-2.3-2.35h-23.799zm17.25-13.15c-1.934-1.9-4.318-2.85-7.151-2.85-2.8 0-5.167.95-7.099 2.85-2 2-3 4.383-3 7.15v6h20.25v-6c0-2.767-1-5.15-3-7.15zM162.5 61.55h2-2zm-4-3.6h6-6zm12 3.6h6-6zm0-3.6h6-6zm12 3.6h6-6zm0-3.6h6-6zm12 3.6h6-6zm0-3.6h6-6zm12 3.6h6-6zm0-3.6h6-6zm12 3.6h6-6zm0-3.6h6-6zm12 3.6h6-6zm0-3.6h6-6zM426 44.05c0-2.133.768-4 2.301-5.6 1.533-1.5 3.333-2.267 5.399-2.3h.3c2.2 0 4.084.767 5.65 2.3 1.567 1.6 2.35 3.467 2.35 5.6 0 2.233-.783 4.133-2.35 5.7-1.566 1.6-3.45 2.4-5.65 2.4-2.199 0-4.1-.8-5.699-2.4-1.068-1.133-1.768-2.417-2.101-3.85-.133-.6-.2-1.217-.2-1.85zm4.601.25l1.599 1.6.901.85 4.399-4.45m34.601 29l1.2 1.2.699.6 3.301-3.3m-5.601-3.9a5.651 5.651 0 012.75-.75h.2c1.667 0 3.083.583 4.25 1.75.202.206.384.415.55.625a5.78 5.78 0 011.2 3.575c0 1.38-.4 2.588-1.2 3.625a6.261 6.261 0 01-.55.625c-.629.648-1.33 1.123-2.099 1.425a6.08 6.08 0 01-2.151.375c-1.632 0-3.049-.6-4.25-1.8a6.3 6.3 0 01-1.599-2.85 6.6 6.6 0 01-.151-1.4c0-.696.109-1.354.326-1.975.29-.805.765-1.547 1.424-2.225a6.097 6.097 0 011.3-1zm26.401-.6l1.2 1.2.699.6 3.301-3.3m-5.601-3.9a5.651 5.651 0 012.75-.75h.2c1.667 0 3.083.583 4.25 1.75.202.206.384.415.55.625a5.78 5.78 0 011.2 3.575c0 1.38-.4 2.588-1.2 3.625a6.261 6.261 0 01-.55.625c-.629.648-1.33 1.123-2.099 1.425a6.08 6.08 0 01-2.151.375c-1.632 0-3.049-.6-4.25-1.8a6.3 6.3 0 01-1.599-2.85 6.6 6.6 0 01-.151-1.4c0-.696.109-1.354.326-1.975.29-.805.765-1.547 1.424-2.225a6.097 6.097 0 011.3-1z"/></g></svg>