<svg xmlns="http://www.w3.org/2000/svg" width="48" height="48"><path d="M33.364 26.618c-.455 1.578-1.302 2.986-2.54 4.222-1.937 1.937-4.281 2.904-7.033 2.904-2.751 0-5.096-.967-7.033-2.904-1.823-1.822-2.792-3.986-2.906-6.492l5.372 2.905m-5.006-6.297c.456-1.562 1.303-2.962 2.54-4.198 1.937-1.953 4.282-2.929 7.033-2.929 2.752 0 5.096.976 7.033 2.929 1.824 1.806 2.793 3.97 2.907 6.492l-5.373-2.929m10.648-8.152c0-2.392-1.197-3.587-3.59-3.587h-23.25c-2.392 0-3.59 1.195-3.59 3.587v23.235c0 2.392 1.198 3.588 3.59 3.588h23.25c2.393 0 3.59-1.196 3.59-3.588V12.17zm-5.813 26.823v3.344m-12.528-3.344v3.344m-6.252-3.344v3.344m12.504-3.344v3.344M8.577 20.663H5.231m3.346-6.248H5.231m3.346 18.768H5.231m3.346-6.272H5.231M26.917 5.263v3.343m-6.252-3.343v3.343m-6.252-3.343v3.343m27.938 12.057h-3.346m3.346-6.248h-3.346m3.346 18.768h-3.346m3.346-6.272h-3.346M33.193 5.263v3.343" fill="none" stroke="#FF7800" stroke-linecap="round" stroke-linejoin="round" stroke-width="1.5"/></svg>