<svg xmlns="http://www.w3.org/2000/svg" width="48" height="48"><path fill="none" stroke="#FF7800" stroke-linecap="round" stroke-linejoin="round" stroke-width="1.5" d="M31.01 19.902c.04.103.02.185-.063.247l-3.444 2.466c-.21.144-.335.277-.376.4-.042.144-.02.34.063.586l1.315 3.977c.041.103.02.185-.063.246-.105.062-.188.062-.25 0l-3.476-2.466c-.209-.143-.386-.215-.532-.215h-.094c-.125 0-.303.072-.532.215l-3.444 2.466c-.084.062-.168.062-.25 0a.226.226 0 01-.095-.246l1.315-3.977c.104-.246.125-.442.063-.585-.042-.124-.167-.257-.376-.401l-3.413-2.466a.23.23 0 01-.094-.247c.042-.082.115-.123.22-.123h4.226c.272 0 .46-.041.564-.123.105-.082.208-.257.313-.524l1.315-3.977c.021-.082.083-.123.188-.123h.093c.105 0 .178.041.22.123l1.315 3.977c.084.267.177.442.282.524.125.082.324.123.595.123h4.227c.083 0 .146.041.187.123zM40 20.4c0 2.649-.38 5.603-.94 7.293-1.753 5.359-6.407 10.045-13.964 14.059-.334.165-.7.248-1.096.248-.396 0-.762-.083-1.095-.248-7.557-4.014-12.383-8.63-13.934-14.059-.59-2.068-.99-4.624-.97-7.293.02-2.669 0-6.45 0-6.48 0-2.235 1.388-3.927 3.413-4.444.893-.228 4.337-1.221 10.332-2.98C22.764 6.167 23.516 6 24 6c.485 0 1.278.166 2.38.497 5.483 1.613 8.906 2.606 10.27 2.979 2.046.558 3.35 2.178 3.35 4.443V20.4z"/></svg>