<svg xmlns="http://www.w3.org/2000/svg" xmlns:xlink="http://www.w3.org/1999/xlink" width="48" height="48"><defs><linearGradient id="a" x1="0%" x2="100.007%" y1="50.005%" y2="50.005%"><stop offset="0%" stop-color="#E6E6E6"/><stop offset="16%" stop-color="#F6F6F6"/><stop offset="30%" stop-color="#FFF"/><stop offset="70%" stop-color="#FFF"/><stop offset="84%" stop-color="#F6F6F6"/><stop offset="100%" stop-color="#E6E6E6"/></linearGradient><linearGradient id="b" x1="46.214%" x2="51.196%" y1="1.708%" y2="100.536%"><stop offset="0%" stop-color="#FF7800"/><stop offset="60%" stop-color="#FF7800"/><stop offset="76%" stop-color="#FC6F00"/><stop offset="100%" stop-color="#F55A00"/></linearGradient><linearGradient id="c" x1=".746%" x2="102.068%" y1="45.385%" y2="52.241%"><stop offset="0%" stop-color="#5E29DD"/><stop offset="35%" stop-color="#8050FF"/><stop offset="100%" stop-color="#8050FF"/></linearGradient><linearGradient id="e" x1="95.072%" x2="17.173%" y1="32.832%" y2="85.249%"><stop offset="0%" stop-color="#F3AA0B"/><stop offset="40%" stop-color="#F1C80B"/><stop offset="100%" stop-color="#F1C80B"/></linearGradient><linearGradient id="j" x1="36.358%" x2="57.57%" y1="95.314%" y2="2.432%"><stop offset="0%" stop-color="#2D364C"/><stop offset="100%" stop-color="#4E5D85"/></linearGradient><radialGradient id="f" cx="52.046%" cy="49.147%" r="50.198%" fx="52.046%" fy="49.147%" gradientTransform="scale(1 .99889) rotate(-9.181 .524 .492)"><stop offset="0%" stop-color="#FFF"/><stop offset="100%" stop-color="#FFF" stop-opacity="0"/></radialGradient><radialGradient id="h" cx="49.999%" cy="50.009%" r="50.039%" fx="49.999%" fy="50.009%" gradientTransform="scale(1 .99875) rotate(.36 .4 .5)"><stop offset="0%" stop-color="#FFF"/><stop offset="100%" stop-color="#FFF" stop-opacity="0"/></radialGradient><radialGradient id="i" cx="51.806%" cy="49.46%" r="50.198%" fx="51.806%" fy="49.46%" gradientTransform="scale(1 .99889) rotate(-9.181 .521 .495)"><stop offset="0%" stop-color="#FFF"/><stop offset="100%" stop-color="#FFF" stop-opacity="0"/></radialGradient><radialGradient id="k" cx="39.841%" cy="51.671%" r="69.96%" fx="39.841%" fy="51.671%" gradientTransform="matrix(.71279 0 0 1 .114 0)"><stop offset="0%" stop-color="#FFF"/><stop offset="100%" stop-color="#FFF" stop-opacity="0"/></radialGradient><path id="d" d="M26.986 4.273l-.355-.49A17.931 17.931 0 0023.684.761a11.33 11.33 0 00-.546-.427l-.115-.089a18 18 0 01.092 1.956c-.058 7.244-4.535 13.364-10.707 16.154l-.043.02-.039.017-.071.034a16.825 16.825 0 01-3.997 1.163c-2.321.39-4.697.318-6.99-.214a14.414 14.414 0 01-1.107-.293 17.83 17.83 0 0029.622-8.7 17.716 17.716 0 00-2.797-6.11z"/></defs><g fill="none" fill-rule="evenodd" transform="translate(6 6)"><circle cx="17.944" cy="17.804" r="16.392" fill="#FFF" fill-rule="nonzero"/><path fill="#FFF" fill-rule="nonzero" d="M12.003 23.903c1.5 1.842 3.471 3.362 5.868 4.523 2.411-1.17 4.395-2.703 5.898-4.56a15.15 15.15 0 002.768-5.335c.548-1.872.762-3.827.631-5.773-3.335-2.326-6.493-2.866-8.107-2.98h-.032a15.28 15.28 0 00-1.092-.045h-.13c-.144 0-.533 0-1.092.045h-.023c-1.616.112-4.776.65-8.115 2.98a16.647 16.647 0 00.65 5.846 15.123 15.123 0 002.776 5.299zm3.304-7.264a2.583 2.583 0 113.593 2.625v2.921a.356.356 0 01-.355.356h-1.318a.356.356 0 01-.355-.356V19.26a2.578 2.578 0 01-1.565-2.624v.003z"/><path fill="url(#a)" fill-rule="nonzero" d="M7.244 13.556c-.107 7.281 4.349 13.47 10.607 16.385 6.172-2.79 10.65-8.91 10.708-16.154a18.226 18.226 0 00-.093-1.955 17.837 17.837 0 00-21.11-.02v.05a15.643 15.643 0 00-.112 1.694zm1.333-.8c3.34-2.33 6.499-2.868 8.115-2.98h.023c.555-.04.948-.044 1.092-.044h.13c.144 0 .533 0 1.092.044h.032c1.614.114 4.772.654 8.107 2.98a16.608 16.608 0 01-.63 5.773 15.153 15.153 0 01-2.77 5.335c-1.502 1.858-3.486 3.39-5.897 4.56-2.397-1.16-4.369-2.681-5.868-4.523a15.141 15.141 0 01-2.777-5.297 16.705 16.705 0 01-.649-5.848z"/><path fill="url(#b)" fill-rule="nonzero" d="M7.244 13.556c0-.57.044-1.132.105-1.687v-.123a17.603 17.603 0 011.166-4.587 17.874 17.874 0 014.463-6.45l-.068.019-.165.06a17.824 17.824 0 00-7.112 29.88c.355.109.71.206 1.083.294a17.84 17.84 0 006.989.213 16.778 16.778 0 003.997-1.163l.071-.034.04-.018.042-.02c-6.262-2.913-10.718-9.103-10.611-16.384z"/><path fill="url(#c)" fill-rule="nonzero" d="M23.033.777A17.852 17.852 0 0012.993.71a17.872 17.872 0 00-4.462 6.449 17.608 17.608 0 00-1.166 4.587v.073a17.837 17.837 0 0121.11.013l.116.088c.178.14.368.281.546.427a17.97 17.97 0 012.946 3.023c.123.162.242.325.356.489a17.72 17.72 0 012.791 6.102C37.444 12.78 32.084 3.472 23.033.777z"/><g transform="translate(5.449 11.593)"><mask id="g" fill="#fff"><use xlink:href="#d"/></mask><use fill="url(#e)" fill-rule="nonzero" xlink:href="#d"/><ellipse cx="23.116" cy="-6.343" fill="url(#f)" fill-rule="nonzero" mask="url(#g)" opacity=".17" rx="11.205" ry="11.218" transform="rotate(-.36 23.116 -6.343)"/><ellipse cx="-3.574" cy="1.865" fill="url(#h)" fill-rule="nonzero" mask="url(#g)" opacity=".2" rx="11.353" ry="11.367" transform="rotate(-.36 -3.574 1.865)"/><ellipse cx="18.968" cy="20.863" fill="url(#i)" fill-rule="nonzero" mask="url(#g)" opacity=".38" rx="11.205" ry="11.218" transform="rotate(-.36 18.968 20.863)"/></g><path fill="url(#j)" fill-rule="nonzero" d="M16.858 19.26v2.922c0 .196.159.355.355.355h1.318c.196 0 .355-.16.355-.355V19.26a2.584 2.584 0 10-2.043 0h.015z"/><ellipse cx="17.851" cy="11.348" fill="url(#k)" fill-rule="nonzero" opacity=".05" rx="10.691" ry="7.621"/></g></svg>