<svg xmlns="http://www.w3.org/2000/svg" width="48" height="48"><g fill="none" fill-rule="evenodd"><path fill="#FF7800" d="M19.925 37.025c-1.267 0-1.9-.642-1.9-1.925v-14h12v14c0 1.283-.633 1.925-1.9 1.925h-8.2z"/><path stroke="#FF7800" stroke-linecap="round" stroke-linejoin="round" stroke-width="1.5" d="M19.925 37.025h8.2c1.267 0 1.9-.642 1.9-1.925v-14h-12v14c0 1.283.633 1.925 1.9 1.925zm-.9-26.85v.85H17.15c-2.083 0-3.125 1.041-3.125 3.125V37.8c0 2.133 1.042 3.2 3.125 3.2h13.725C32.959 41 34 39.933 34 37.8V14.15c0-2.084-1.041-3.125-3.125-3.125H29v-.85C29 8.058 27.959 7 25.875 7H22.15c-2.083 0-3.125 1.058-3.125 3.175z"/></g></svg>