<svg xmlns="http://www.w3.org/2000/svg" width="48" height="48"><path fill="none" stroke="#FF7800" stroke-linecap="round" stroke-linejoin="round" stroke-width="1.5" d="M40 20.4c0 2.649-.38 5.603-.94 7.293-1.753 5.359-6.407 10.045-13.964 14.059-.334.165-.7.248-1.096.248-.396 0-.762-.083-1.095-.248-7.557-4.014-12.383-8.63-13.934-14.059-.59-2.068-.99-4.624-.97-7.293.02-2.669 0-6.45 0-6.48 0-2.235 1.388-3.927 3.413-4.444.893-.228 4.337-1.221 10.332-2.98C22.764 6.167 23.516 6 24 6c.485 0 1.278.166 2.38.497 5.483 1.613 8.906 2.606 10.27 2.979 2.046.558 3.35 2.178 3.35 4.443V20.4z"/></svg>