<svg xmlns="http://www.w3.org/2000/svg" width="48" height="48"><path fill="none" stroke="#FF7800" stroke-linecap="round" stroke-linejoin="round" stroke-width="1.5" d="M10.45 32.347L5.5 37.26l4.95-4.913zm10.838 1.538l4.762-2.175-4.762 2.175zm-4.613 4.65l-1.425 1.388 1.425-1.388zM27.7 17.423c0-1.1.362-2.038 1.088-2.813.774-.776 1.712-1.163 2.812-1.163 1.1 0 2.025.387 2.775 1.163.75.775 1.125 1.713 1.125 2.813 0 1.074-.375 2-1.125 2.774-.75.75-1.675 1.125-2.775 1.125-1.1.026-2.038-.35-2.813-1.125-.75-.775-1.112-1.7-1.087-2.774zm-8.775 2.474c-.524 1-1.05 2.038-1.575 3.113l1.575-3.113zm5.476 4.763l-2.701 2.7 4.35 4.35c1.1-.5 2.125-.987 3.075-1.463M15.213 33.81l3.037-2.963-3.188-3.15-7.5-3.15 4.651-4.65h6.712c.75-1.55 1.375-2.75 1.875-3.6 2-3.325 4.163-5.637 6.488-6.937 2.25-1.225 4.85-2.075 7.8-2.55a21.98 21.98 0 017.125-.038c.4 2.35.375 4.838-.075 7.463-.45 2.75-1.3 5.238-2.55 7.462-1.25 2.325-3.538 4.512-6.863 6.563-.85.5-2.05 1.163-3.6 1.987v6.6l-4.65 4.65-3.188-7.612-3.037-3.038 3.45-3.487-4.35-4.35-2.288 4.687M39 33.083v7.834M35.083 37h7.834"/></svg>