<svg xmlns="http://www.w3.org/2000/svg" width="48" height="48"><path fill="none" stroke="#FFF" stroke-linecap="round" stroke-linejoin="round" stroke-width="1.5" d="M15.561 25.477h16.723c1.548 0 2.477 1.24 2.477 2.788v10.529c0 1.548-.929 2.787-2.477 2.787H15.56c-1.548 0-2.477-1.24-2.477-2.787v-10.53c0-1.548.929-2.787 2.477-2.787zm2.013 0v-3.025c0-3.802 2.912-6.884 6.503-6.884 3.592 0 6.504 3.082 6.504 6.884v3.025m-6.504 9.962V31.67m-7.742-18.58c2.3-2.066 5.009-3.097 8.13-3.097 3.153 0 5.862 1.031 8.129 3.096M12 9.065c3.358-3.097 7.349-4.646 11.974-4.646 4.694 0 8.703 1.55 12.026 4.646"/></svg>