<svg xmlns="http://www.w3.org/2000/svg" width="48" height="48"><path fill="#ff7800" d="M32.3 8.05c1.1.584 2.025 1.2 2.775 1.85a17.457 17.457 0 015.025 6.15 17.4 17.4 0 011.9 7.975c0 3.15-.766 6.084-2.3 8.8a17.677 17.677 0 01-6.075 6.375c-3.616-.8-6.391-1.658-8.325-2.575l.325-.15c2.2-1.183 4.042-2.466 5.525-3.85 1.467-1.4 2.517-2.9 3.15-4.5a6.44 6.44 0 00.575-2.05c.1-.433.15-.891.15-1.375v-8.175c-.1-.933-.291-2-.575-3.2-.55-2.367-1.266-4.125-2.15-5.275m-8.325-2c2.717 0 5.3.584 7.75 1.75 1.167 2.317 1.842 5.017 2.025 8.1-3.433-1.4-6.641-2.1-9.625-2.1-3.116 0-6.167.559-9.15 1.675-2.116.8-5 2.467-8.65 5 .883-4.35 3.083-7.892 6.6-10.625 3.233-2.533 6.917-3.8 11.05-3.8M6.225 21.2c2.384-1.6 4.617-2.716 6.7-3.35v6.775c.017.5.067.975.15 1.425.117.684.325 1.375.625 2.075.684 1.583 1.609 2.942 2.775 4.075l1.2 1.15c.95.9 2.517 1.942 4.7 3.125 1.1.6 2.392 1.142 3.875 1.625 1.984.65 4.225 1.15 6.725 1.5-2.716 1.584-5.716 2.375-9 2.375-4.966 0-9.208-1.75-12.725-5.25-3.5-3.5-5.25-7.733-5.25-12.7 0-.85.075-1.791.225-2.825"/></svg>