<svg xmlns="http://www.w3.org/2000/svg" width="80" height="80"><path fill="#FF7800" d="M20 10h40c5.5 0 10 4.5 10 10v40c0 5.5-4.5 10-10 10H20c-5.5 0-10-4.5-10-10V20c0-5.5 4.5-10 10-10z"/><path fill="none" stroke="#FFF" stroke-width="1.5" stroke-linecap="round" stroke-linejoin="round" d="M56 36.4c0 2.6-.4 5.6-.9 7.3-1.8 5.4-6.4 10-14 14.1-.3.1-.7.2-1.1.2s-.8-.1-1.1-.2c-7.6-4-12.4-8.6-13.9-14.1-.6-2.1-1-4.6-1-7.3v-6.5c0-2.2 1.4-3.9 3.4-4.4.9-.2 4.3-1.2 10.3-3 1-.3 1.8-.5 2.3-.5.5 0 1.3.2 2.4.5 5.5 1.6 8.9 2.6 10.3 3 2 .6 3.3 2.2 3.3 4.4v6.5z"/><path fill="none" stroke="#FFF" stroke-width="1.5" stroke-linecap="round" stroke-linejoin="round" d="M38.3 37.3l-5 5c-.6.7-1 1.4-1 2.3.1.8.4 1.6.9 2.2.7.6 1.4.9 2.3 1 .8-.1 1.6-.4 2.2-1l.3-.3"/><path fill="none" stroke="#FFF" stroke-width="1.5" stroke-linecap="round" stroke-linejoin="round" d="M42.8 38.2l-5-5c-.6-.7-1.3-1-2.2-1-.9 0-1.6.3-2.2.9-.6.7-1 1.4-1 2.2.1.9.4 1.6 1 2.2l.3.3m3.7 4l5 4.9c.6.7 1.3 1 2.2 1 .9 0 1.6-.3 2.2-.9.6-.7 1-1.4 1-2.2-.1-.9-.4-1.6-1-2.2l-.4-.4"/><path fill="none" stroke="#FFF" stroke-width="1.5" stroke-linecap="round" stroke-linejoin="round" d="M41.8 42.7l5-5c.7-.6 1-1.3 1-2.2 0-.9-.3-1.6-.9-2.2-.7-.6-1.4-1-2.2-1-.9.1-1.6.4-2.2 1l-.5.3"/></svg>