<svg xmlns="http://www.w3.org/2000/svg" width="80" height="80"><g transform="translate(10 10)" fill="none" fill-rule="evenodd"><rect width="60" height="60" fill="#FF7800" fill-rule="nonzero" rx="10"/><g stroke="#FFF" stroke-linecap="round" stroke-linejoin="round" stroke-width="1.5"><path d="M29.999 20.137a3.96 3.96 0 110 7.918 3.96 3.96 0 010-7.918m6.383 15.164c-.398-2.571-1.539-4.744-3.105-6.027a5.393 5.393 0 01-3.396 1.176 5.336 5.336 0 01-3.265-1.095c-1.512 1.285-2.6 3.428-2.998 5.946-.107.67.424 1.283 1.114 1.283h10.536c.69 0 1.22-.613 1.114-1.283"/><path d="M46 26.4c0 2.649-.38 5.603-.94 7.293-1.753 5.359-6.407 10.045-13.964 14.059-.334.165-.7.248-1.096.248-.396 0-.762-.083-1.095-.248-7.557-4.014-12.383-8.63-13.935-14.059-.59-2.068-.99-4.624-.97-7.293.02-2.669 0-6.45 0-6.48 0-2.235 1.388-3.927 3.413-4.444.893-.228 4.337-1.221 10.332-2.98C28.764 12.167 29.516 12 30 12c.485 0 1.278.166 2.38.497 5.483 1.613 8.906 2.606 10.27 2.979 2.046.558 3.35 2.178 3.35 4.443V26.4z"/></g></g></svg>