<svg xmlns="http://www.w3.org/2000/svg" width="80" height="80"><g transform="translate(10 10)" fill="none" fill-rule="evenodd"><rect width="60" height="60" fill="#FF7800" fill-rule="nonzero" rx="10"/><path stroke="#FFF" stroke-linecap="round" stroke-linejoin="round" stroke-width="1.5" d="M27.975 38.409v2.25c-.05 1.4-.275 2.475-.675 3.225-.875 1.75-2.525 2.625-4.95 2.625-2.45 0-4.088-.863-4.913-2.587v.037c-.45-.925-.675-2.55-.675-4.875.55-.45 1.15-.8 1.8-1.05 1.15-.5 2.525-.75 4.125-.75 1.825.05 3.588.424 5.288 1.125.6.225 1.225.325 1.875.3.6.025 1.2-.075 1.8-.3 1.725-.7 3.5-1.076 5.325-1.125 1.575 0 2.95.25 4.125.75.65.25 1.25.6 1.8 1.05 0 2.325-.225 3.95-.675 4.875v-.037c-.826 1.724-2.462 2.587-4.913 2.587-2.424 0-4.087-.875-4.987-2.625-.4-.75-.625-1.825-.676-3.225v-2.25m9.151-15.9c1.05.2 2.05.425 3 .675 3.8 1.075 5.7 2.35 5.7 3.825 0 1.5-1.9 2.787-5.7 3.862-3.8 1.05-8.4 1.575-13.8 1.575s-10-.524-13.8-1.575c-3.8-1.075-5.7-2.362-5.7-3.862 0-1.475 1.9-2.75 5.7-3.825.95-.25 1.95-.476 3-.675m21.713 4.462a50.105 50.105 0 00-.113-4.462c-.25-3.45-.874-5.95-1.875-7.5-1.1-1.625-2.7-1.938-4.8-.938l-1.875.938c-.8.35-1.55.537-2.25.562-.7-.025-1.438-.212-2.212-.562l-1.913-.938c-2.125-1-3.725-.687-4.8.938-1 1.55-1.625 4.05-1.875 7.5a49.729 49.729 0 00-.113 4.462"/></g></svg>