<svg xmlns="http://www.w3.org/2000/svg" width="80" height="80"><g transform="translate(10 10)" fill="none" fill-rule="evenodd"><rect width="60" height="60" fill="#FF7800" fill-rule="nonzero" rx="10"/><path fill="#FFF" fill-rule="nonzero" d="M25.925 43.025c-1.267 0-1.9-.642-1.9-1.925v-14h12v14c0 1.283-.633 1.925-1.9 1.925h-8.2z"/><path stroke="#FFF" stroke-linecap="round" stroke-linejoin="round" stroke-width="1.5" d="M25.925 43.025h8.2c1.267 0 1.9-.642 1.9-1.925v-14h-12v14c0 1.283.633 1.925 1.9 1.925zm-.9-26.85v.85H23.15c-2.083 0-3.125 1.041-3.125 3.125V43.8c0 2.133 1.042 3.2 3.125 3.2h13.725C38.959 47 40 45.933 40 43.8V20.15c0-2.084-1.041-3.125-3.125-3.125H35v-.85C35 14.058 33.959 13 31.875 13H28.15c-2.083 0-3.125 1.058-3.125 3.175z"/></g></svg>