<svg xmlns="http://www.w3.org/2000/svg" width="80" height="80"><path fill="none" stroke="#FF7800" stroke-linecap="round" stroke-linejoin="round" stroke-width="2" d="M17.25 54.078L9 62.266l8.25-8.188zm18.063 2.563l7.937-3.625-7.938 3.625zm-7.688 7.75l-2.375 2.314 2.375-2.314zM46 29.205c0-1.834.604-3.397 1.813-4.688 1.29-1.294 2.853-1.939 4.687-1.939s3.375.645 4.625 1.94C58.375 25.807 59 27.37 59 29.204c0 1.79-.625 3.332-1.875 4.623-1.25 1.25-2.791 1.875-4.625 1.875-1.834.043-3.396-.582-4.688-1.875-1.25-1.29-1.853-2.833-1.812-4.623zm-14.625 4.123a204.517 204.517 0 00-2.625 5.188l2.625-5.188zm9.126 7.938L36 45.767l7.25 7.249a151.501 151.501 0 005.125-2.438m-23.186 5.938l5.061-4.938-5.313-5.25-12.5-5.248 7.752-7.752h11.186c1.25-2.582 2.292-4.583 3.125-5.998 3.334-5.543 6.939-9.397 10.813-11.563 3.75-2.042 8.083-3.459 13-4.251a36.66 36.66 0 0111.876-.063c.666 3.917.625 8.064-.126 12.44-.75 4.582-2.167 8.728-4.25 12.435-2.083 3.875-5.896 7.52-11.438 10.938-1.416.834-3.416 1.939-6 3.312v11l-7.75 7.75-5.313-12.687-5.062-5.063 5.75-5.81-7.25-7.252-3.813 7.812"/></svg>