<svg xmlns="http://www.w3.org/2000/svg" width="80" height="80"><g transform="translate(10 10)" fill="none" fill-rule="evenodd"><rect width="60" height="60" fill="#FF7800" fill-rule="nonzero" rx="10"/><path stroke="#FFF" stroke-linecap="round" stroke-linejoin="round" stroke-width="1.5" d="M29.96 31.956a2.66 2.66 0 100-5.319 2.66 2.66 0 000 5.318v.001zm0 0v3.326m-10.792-9.583c.008-.576.046-1.145.107-1.707l.007-.05c.002-.025.006-.05.009-.074a17.85 17.85 0 011.18-4.645 18.097 18.097 0 014.518-6.529l-.067.02c-.062.017-.123.038-.184.057-7.282 2.256-12.62 8.976-12.736 16.995a18.038 18.038 0 005.532 13.257c.36.11.726.208 1.096.297a18.072 18.072 0 007.075.217c1.41-.238 2.775-.618 4.047-1.179.025-.01.049-.023.073-.033l.04-.019.043-.02c-6.338-2.95-10.848-9.215-10.74-16.587h0zm15.985-12.936a18.046 18.046 0 00-5.048-.762 18.072 18.072 0 00-5.116.693 18.092 18.092 0 00-4.518 6.53 17.88 17.88 0 00-1.18 4.644l-.01.073a17.992 17.992 0 0110.824-3.494 17.976 17.976 0 0110.547 3.506l.118.09a18.233 18.233 0 013.9 3.996 17.876 17.876 0 012.827 6.176c.314-1.306.491-2.667.502-4.068.067-8.19-5.36-15.142-12.846-17.384h0zm9.517 15.276a18.158 18.158 0 00-3.899-3.995l-.119-.09c.067.65.1 1.31.095 1.98-.06 7.333-4.591 13.53-10.84 16.353l-.042.02-.04.018c-.024.01-.048.023-.073.033-1.272.561-2.636.941-4.047 1.18a18.151 18.151 0 01-8.195-.514 17.986 17.986 0 0012.3 4.975 17.999 17.999 0 0012.47-4.857 17.954 17.954 0 005.216-8.927 17.864 17.864 0 00-2.826-6.176h0z"/></g></svg>