<svg xmlns="http://www.w3.org/2000/svg" width="80" height="80"><path fill="none" stroke="#FF7800" stroke-linecap="round" stroke-linejoin="round" stroke-width="1.5" d="M18 43.35l3.4 1.35-4.9-4.35 1.5 3zm44.75 16.2c1.633-1.9 3-3.9 4.1-6l-4.1 6zM50.95 54l-1.15 2.35 1.35 2.5 3.9-5.45-4.1.6zm13.25-6.8l.75 5.6 3.4-6.25-4.15.65zm-15.25-15l2 2.35-3.3-.4-.7-.85 2-1.1zM36.1 26.95l.7.8-1.9 2.1h4.9l-2.4-3.35-1.3.45zm-2.2-2.05l2.6-1.85h-4.25l1.65 1.85zm18.55 8.55l.75-2.75 1.1 5.45-1.85-2.7zM29.1 13.2l7.4-.85 1.4 2.05-3.5 6.15-6.95 4.9 2.25-7.8-2.8-1.9 2.2-2.55zM10.35 35.4c.9-6.333 3.717-11.883 8.45-16.65a17.08 17.08 0 011.6-1.5M69.85 36.6l-3.4 9.6h-1.4l-.55-5.6-3.15 5.3-2.55-5.3-3.15-.25 1.1 1.75-3 1.25-5.3-5.3 5 10.2-3.25 2.4v3.2l-5.1 5.7-1.5-.2-1.65-5.2 1.2-1.5-3.3-5.7-3.45.9-4.35-4.2 3.45-5.6 5.7-2.2.75 1.25 6.5.95 1.35-2-2.3.65-1.6-2.5.1 1.95-1.75-1.1-1.05 1.35-.35-2.2L41 33.15l-3.3 2.9-1.75.65-.25-3.45 1.5.15-.5-1.6 3.75-1.75.85-1.85 1.85.75 2.95-3.1-1-1.7-1.9 3.45-3.25-2.45 4.2-5.25 3.55 2.15 2.5-1.6 1.3-2.5.95-3.65 5.15 1.3C52.5 11.867 46.633 10 40 10c-7.533 0-14.067 2.417-19.6 7.25l3.3-1.65.2 1.1-1.6 2.05 4.3-1.25-.75 4.9-1.5 2.35-1.7-2.4-1.7.25-3.2 3.5 2.05 1.05 2-3.55 2 1.7.5 6.05-3.2 1.05-5.65 9.2 1.25 4.95 1.7-2 3.2 2.2 1.8.2.4 1.55 4.7 1.9.2 4.7-1.6 4.65 3.45 5.95-4.25-2.85-8.3-11.7-1.3-4.6-4.1-4.1-2.25-7.05c-.233 1.5-.35 3.033-.35 4.6 0 8.233 2.933 15.3 8.8 21.2C24.667 67.067 31.733 70 40 70s15.333-2.933 21.2-8.8a36.632 36.632 0 001.55-1.65l-3.95.9 8.05-6.9C68.95 49.45 70 44.933 70 40c0-1.167-.05-2.3-.15-3.4-.733-6.867-3.617-12.817-8.65-17.85a43.32 43.32 0 00-3.6-3.15"/></svg>