<svg xmlns="http://www.w3.org/2000/svg" width="80" height="80"><path fill="none" stroke="#FF7800" stroke-linecap="round" stroke-linejoin="round" stroke-width="1.5" d="M58.15 66.75h7c2.467 0 3.7-1.233 3.7-3.7v-2c-.1-2.734-1.283-4.917-3.55-6.55-1.733-1.233-4.083-2.15-7.05-2.75m3.2-13.5c.2.066.384.183.55.35l.35.35c.467.6.7 1.317.7 2.15s-.233 1.567-.7 2.2c-.467.6-1.033.9-1.7.9a12.11 12.11 0 01-2.15 3.7c-.466.567-.95 1.083-1.45 1.55M51.8 33.1l.9.8c2.233 2.2 5.15 3.65 8.75 4.35v-.15c0-.3-.017-.6-.05-.9v-.05c-.333-2.6-1.3-4.867-2.9-6.8-1.966-2.4-4.35-3.6-7.15-3.6-.266 0-.516.017-.75.05m6.8 35.15V57.4c-.133-3.533-1.683-6.383-4.65-8.55-2.333-1.667-5.383-2.866-9.15-3.6-1.9 2.033-3.833 3.417-5.8 4.15-2.133.8-4.283.8-6.45 0-1.933-.733-3.867-2.117-5.8-4.15-3.766.734-6.817 1.933-9.15 3.6-2.967 2.167-4.517 5.017-4.65 8.55v4.55c0 3.2 1.6 4.8 4.8 4.8H52.6c3.2 0 4.8-1.6 4.8-4.8zm-9.7-34.2c.167 0 .417.134.75.4l.45.5c.634.8.95 1.734.95 2.8 0 1.067-.316 2-.95 2.8-.5.767-1.233 1.183-2.2 1.25-.6 1.8-1.533 3.4-2.8 4.8-2.566 3.167-5.667 4.75-9.3 4.75-3.566 0-6.683-1.583-9.35-4.75a14.395 14.395 0 01-2.75-4.8c-.933-.067-1.666-.483-2.2-1.25-.667-.7-1-1.633-1-2.8 0-.866.2-1.633.6-2.3l.4-.5a2.08 2.08 0 011.15-.9m3.8-10.3c-2.133 2.534-3.35 5.483-3.65 8.85l-.15 1.25v.2c2.3-4.9 4.767-7.8 7.4-8.7 2.4-.666 4.917.334 7.55 3 2.8 2.8 6.567 4.7 11.3 5.7l-.05-1.45c-.467-3.466-1.717-6.416-3.75-8.85-2.533-3.133-5.633-4.7-9.3-4.7-3.6 0-6.717 1.567-9.35 4.7z"/></svg>