<svg height="16" width="16" xmlns="http://www.w3.org/2000/svg"><path d="M10.333 5.333a5 5 0 11-4.33 7.5H1a.667.667 0 01-.667-.666V11c0-.368.299-.667.667-.667l4.333-.002c0-.71.15-1.386.417-1.998H1a.667.667 0 01-.667-.666V6.5c0-.368.299-.667.667-.667l7.154-.001a4.98 4.98 0 012.18-.499zm0 .667a4.333 4.333 0 100 8.667 4.333 4.333 0 000-8.667zm2.334 4.538V13l-2.872-.451v-2.01zm-3.282 0v1.95l-2.052-.325v-1.625zm0-2.359v1.95H7.333V8.503zm3.282-.512v2.461H9.795v-2.01zm-.5-6.334c.368 0 .666.299.666.667v1.167a.667.667 0 01-.666.666H1a.667.667 0 01-.667-.666V2c0-.368.299-.667.667-.667zm-.834.75a.5.5 0 100 1 .5.5 0 000-1z" fill="#a8a4c3" fill-rule="evenodd"/></svg>