<svg height="16" width="16" xmlns="http://www.w3.org/2000/svg"><path d="M4 12.25c0 .344.3.625.667.625h.666v2.188c0 .518.447.937 1 .937.554 0 1-.419 1-.938v-2.187h1.334v2.188c0 .518.446.937 1 .937.553 0 1-.419 1-.938v-2.187h.666c.367 0 .667-.281.667-.625V6H4zM2 6a1 1 0 011 1v4a1 1 0 01-2 0V7a1 1 0 011-1zm12 0a1 1 0 011 1v4a1 1 0 01-2 0V7a1 1 0 011-1zM11.22.614a.371.371 0 000-.507.315.315 0 00-.473 0L9.76 1.164a3.684 3.684 0 00-3.533 0L5.233.107a.315.315 0 00-.473 0 .371.371 0 000 .507l.873.936C4.647 2.329 4 3.579 4 5h8c0-1.421-.647-2.679-1.647-3.457zM7 4H6V3h1zm3 0H9V3h1z" fill="#a8a4c3" fill-rule="evenodd"/></svg>