<svg xmlns="http://www.w3.org/2000/svg" width="80" height="80" fill="none"><path stroke="#FF7800" stroke-linecap="round" stroke-linejoin="round" stroke-width="1.5" d="M52 39.051h6.051m0-6.051v6.051m5.949 0h-5.949V45"/><path stroke="#FF7800" stroke-linecap="round" stroke-linejoin="round" stroke-width="1.5" d="M54.666 16.875l-25.729 14.9 25.729-14.9zM12.7 28.776c-.299-.5-.616-.85-.948-1.05-.367-.233-.683-.25-.95-.05-.3.167-.45.45-.45.85 0 .4.15.85.45 1.35.233.434.55.783.95 1.05.332.2.65.217.949.05.267-.166.4-.45.4-.85 0-.433-.133-.883-.4-1.35zm11.341 35.901l-14.388-8.35v5.95l14.388 8.35v-5.95z" clip-rule="evenodd"/><path stroke="#FF7800" stroke-linecap="round" stroke-linejoin="round" stroke-width="1.5" d="M7.682 21.982L25.14 32.126c.7.434 1.115.967 1.25 1.6l.1.7v39.501c0 .5-.085.817-.25.95"/><path stroke="#FF7800" stroke-linecap="round" stroke-linejoin="round" stroke-width="1.5" d="M24.041 52.026l-14.388-8.45v-5.9l14.388 8.35v6zm0 3.351l-14.388-8.4v6l14.388 8.35v-5.95zM68.65 28.826c2.9 3 4.35 6.517 4.35 10.55 0 4.167-1.45 7.7-4.35 10.601-2.967 3-6.517 4.5-10.65 4.5h-.05c-4.1 0-7.633-1.5-10.6-4.5-2.033-2.068-3.333-4.467-3.9-7.2-.3-1.101-.45-2.234-.45-3.401 0-4.033 1.45-7.55 4.35-10.55 2.833-2.8 6.183-4.25 10.05-4.35h.6c4.133 0 7.683 1.45 10.65 4.35z" clip-rule="evenodd"/><path stroke="#FF7800" stroke-linecap="round" stroke-linejoin="round" stroke-width="1.5" d="M55.715 57.877l-29.476 17a.614.614 0 01-.15.101c-.232.066-.55-.018-.949-.25L8.404 65.077c-.932-.533-1.398-1.333-1.398-2.4V23.275c0-.824-.106-1.575.599-2 5.442-3 31.224-17.2 31.224-17.2l.15-.05c.067-.033.166-.033.3 0l.599.25 16.586 9.65.1.051c.932.533 1.399 1.35 1.399 2.45v4.95"/></svg>