<svg xmlns="http://www.w3.org/2000/svg" width="80" height="80" fill="none"><path stroke="#FF7800" stroke-linecap="round" stroke-linejoin="round" stroke-width="1.5" d="M50.254 55.202l3.042 2.871 6.2-5.337"/><path stroke="#FF7800" stroke-linecap="round" stroke-linejoin="round" stroke-width="1.5" d="M43.1 63.767H20.367 43.1z" clip-rule="evenodd"/><circle cx="54.983" cy="54.983" r="11.883" stroke="#FF7800" stroke-linecap="round" stroke-linejoin="round" stroke-width="1.5"/><path stroke="#FF7800" stroke-linecap="round" stroke-linejoin="round" stroke-width="1.5" d="M41.28 61.159H21.49l-5.257-18.6h29.008m18.526 21.208L71 71"/><path stroke="#FF7800" stroke-linecap="round" stroke-linejoin="round" stroke-width="1.5" d="M27.722 31.519a19.125 19.125 0 01-.8-2.709 14.89 14.89 0 01-.31-2.525 9.883 9.883 0 01-.045-.964c0-.153.015-.337.044-.551.178-1.653.874-3.106 2.089-4.361 1.393-1.347 3.082-2.02 5.067-2.02 1.955 0 3.63.673 5.022 2.02 1.275 1.224 2.015 2.662 2.222 4.315.03.551.03 1.087 0 1.607a.913.913 0 00-.044.275c-.178 1.806-.549 3.444-1.111 4.913-.12.275-.223.535-.311.78-.771 1.438-1.763 2.617-2.978 3.535-1.067.827-2 1.27-2.8 1.332-.8-.062-1.734-.505-2.8-1.332-1.215-.918-2.193-2.097-2.934-3.535a14.783 14.783 0 00-.31-.78z" clip-rule="evenodd"/><path stroke="#FF7800" stroke-linecap="round" stroke-linejoin="round" stroke-width="1.5" d="M55.443 39.957l-.622-2.622c-1.095-4.502-4.558-7.164-10.389-7.985.415-4.107 0-7.772-1.242-10.996a18.12 18.12 0 00-5.55-7.574C36.16 9.654 34.873 9.06 33.778 9c-1.066.06-2.339.654-3.818 1.78a18.12 18.12 0 00-5.55 7.574c-1.242 3.224-1.657 6.89-1.242 10.996-5.83.821-9.294 3.483-10.389 7.985L9.272 52.118c-.622 2.678-.178 4.882 1.332 6.616 1.42 1.643 3.714 2.798 6.88 3.468"/></svg>