<svg xmlns="http://www.w3.org/2000/svg" width="80" height="80" fill="none"><path stroke="#FF7800" stroke-linecap="round" stroke-linejoin="round" stroke-width="2" d="M26.639 44h26.477c2.452 0 3.923 2 3.923 4.5v17c0 2.5-1.471 4.5-3.923 4.5H26.64c-2.452 0-3.923-2-3.923-4.5v-17c0-2.5 1.471-4.5 3.923-4.5z" clip-rule="evenodd"/><path stroke="#FF7800" stroke-linecap="round" stroke-linejoin="round" stroke-width="2" d="M29.826 44v-4.885c0-6.139 4.61-11.115 10.297-11.115 5.686 0 10.296 4.977 10.296 11.115V44M40.123 60.083V54M27.864 24c3.64-3.334 7.93-5 12.872-5 4.992 0 9.282 1.666 12.87 5M21 17.5c5.317-4.999 11.636-7.5 18.96-7.5 7.432 0 13.779 2.501 19.04 7.5"/></svg>