<svg xmlns="http://www.w3.org/2000/svg" width="120" height="40"><g fill="none"><path fill="#A6A6A6" d="M110.135 0H9.535c-.367 0-.73 0-1.095.002-.306.002-.61.008-.919.013C6.85.023 6.18.082 5.517.19a6.704 6.704 0 00-1.9.627 6.403 6.403 0 00-1.62 1.18 6.249 6.249 0 00-1.178 1.62c-.304.6-.514 1.24-.625 1.903-.111.662-.17 1.332-.179 2.002-.01.307-.01.615-.015.921V31.56c.005.31.006.61.015.921.008.671.068 1.34.18 2.002.11.663.32 1.306.624 1.905a6.2 6.2 0 001.179 1.614 6.3 6.3 0 001.618 1.179c.599.304 1.24.517 1.901.63.663.11 1.333.168 2.004.177.31.007.613.011.919.011.366.002.728.002 1.095.002h100.6c.36 0 .724 0 1.084-.002.304 0 .617-.004.922-.01.67-.01 1.338-.068 2-.178a6.803 6.803 0 001.908-.63 6.295 6.295 0 001.617-1.179 6.422 6.422 0 001.182-1.614c.302-.6.51-1.242.619-1.905.111-.661.173-1.33.185-2.002.004-.31.004-.61.004-.921.008-.364.008-.725.008-1.094V9.536c0-.366 0-.73-.008-1.092 0-.306 0-.614-.004-.92a13.586 13.586 0 00-.185-2.003 6.625 6.625 0 00-.62-1.903 6.463 6.463 0 00-2.798-2.8 6.797 6.797 0 00-1.908-.627c-.661-.11-1.33-.169-2-.176-.305-.005-.618-.011-.922-.013-.36-.002-.725-.002-1.084-.002z"/><path fill="#000" d="M8.445 39.125c-.305 0-.602-.004-.904-.01a12.737 12.737 0 01-1.87-.164 5.906 5.906 0 01-1.656-.548 5.382 5.382 0 01-1.397-1.016 5.29 5.29 0 01-1.02-1.397 5.698 5.698 0 01-.544-1.657 12.406 12.406 0 01-.166-1.875c-.007-.21-.015-.913-.015-.913v-23.1s.009-.692.015-.895c.007-.628.063-1.253.165-1.872a5.75 5.75 0 01.544-1.662c.26-.518.603-.99 1.015-1.398a5.563 5.563 0 013.055-1.567C6.287.95 6.915.895 7.543.887l.902-.012h102.769l.913.013c.623.007 1.244.061 1.858.162a5.96 5.96 0 011.671.548 5.59 5.59 0 012.415 2.42c.26.52.441 1.076.535 1.649.104.624.162 1.255.174 1.887.003.283.003.588.003.89.008.375.008.732.008 1.092v20.929c0 .363 0 .718-.008 1.075 0 .325 0 .623-.004.93-.011.62-.069 1.24-.17 1.853a5.77 5.77 0 01-.54 1.67c-.264.513-.607.98-1.016 1.386a5.396 5.396 0 01-1.4 1.022 5.84 5.84 0 01-1.668.55c-.618.101-1.243.156-1.869.163-.293.007-.6.011-.897.011l-1.084.002-101.69-.002z"/><path d="M24.769 20.3a4.947 4.947 0 012.356-4.151 5.065 5.065 0 00-3.99-2.158c-1.68-.176-3.308 1.005-4.164 1.005-.872 0-2.19-.988-3.608-.958a5.315 5.315 0 00-4.473 2.727c-1.934 3.349-.491 8.27 1.361 10.977.927 1.325 2.01 2.805 3.428 2.753 1.387-.058 1.905-.885 3.58-.885 1.658 0 2.144.885 3.59.852 1.489-.025 2.426-1.332 3.32-2.67a10.938 10.938 0 001.52-3.092 4.782 4.782 0 01-2.92-4.4zm-2.732-8.09a4.866 4.866 0 001.115-3.49 4.958 4.958 0 00-3.208 1.66 4.64 4.64 0 00-1.144 3.361 4.095 4.095 0 003.237-1.53zm20.265 14.93H37.57l-1.137 3.356h-2.006l4.484-12.418h2.083l4.483 12.418h-2.039l-1.136-3.356zm-4.242-1.55h3.752l-1.85-5.446h-.052l-1.85 5.446zm17.1.38c0 2.813-1.506 4.62-3.779 4.62a3.068 3.068 0 01-2.848-1.583h-.043v4.484h-1.86V21.442h1.8v1.506h.033a3.21 3.21 0 012.883-1.6c2.298 0 3.813 1.816 3.813 4.622zm-1.91 0c0-1.833-.948-3.038-2.393-3.038-1.42 0-2.375 1.23-2.375 3.038 0 1.824.955 3.046 2.375 3.046 1.445 0 2.393-1.197 2.393-3.046zm11.875 0c0 2.813-1.506 4.62-3.779 4.62a3.068 3.068 0 01-2.848-1.583h-.043v4.484h-1.859V21.442h1.799v1.506h.034a3.21 3.21 0 012.883-1.6c2.298 0 3.813 1.816 3.813 4.622zm-1.91 0c0-1.833-.948-3.038-2.393-3.038-1.42 0-2.375 1.23-2.375 3.038 0 1.824.955 3.046 2.375 3.046 1.445 0 2.392-1.197 2.392-3.046zm8.495 1.066c.138 1.232 1.334 2.04 2.97 2.04 1.566 0 2.693-.808 2.693-1.919 0-.964-.68-1.54-2.29-1.936l-1.609-.388c-2.28-.55-3.339-1.617-3.339-3.348 0-2.142 1.867-3.614 4.519-3.614 2.624 0 4.423 1.472 4.483 3.614h-1.876c-.112-1.239-1.136-1.987-2.634-1.987-1.497 0-2.521.757-2.521 1.858 0 .878.654 1.395 2.255 1.79l1.368.336c2.548.603 3.606 1.626 3.606 3.443 0 2.323-1.85 3.778-4.794 3.778-2.753 0-4.613-1.42-4.733-3.667h1.902zM83.346 19.3v2.142h1.722v1.472h-1.722v4.991c0 .776.345 1.137 1.102 1.137.204-.004.408-.018.611-.043v1.463c-.34.063-.686.092-1.032.086-1.833 0-2.548-.689-2.548-2.445v-5.189h-1.316v-1.472h1.316V19.3h1.867zm2.719 6.67c0-2.849 1.678-4.639 4.294-4.639 2.625 0 4.295 1.79 4.295 4.639 0 2.856-1.661 4.638-4.295 4.638-2.633 0-4.294-1.782-4.294-4.638zm6.695 0c0-1.954-.895-3.108-2.401-3.108-1.506 0-2.4 1.162-2.4 3.108 0 1.962.894 3.106 2.4 3.106 1.506 0 2.401-1.144 2.401-3.106zm3.426-4.528h1.773v1.541h.043a2.158 2.158 0 012.177-1.635c.214-.001.428.022.637.069v1.738a2.619 2.619 0 00-.835-.112 1.874 1.874 0 00-1.937 2.083v5.37h-1.858v-9.054zm13.198 6.395c-.25 1.643-1.85 2.771-3.898 2.771-2.634 0-4.269-1.764-4.269-4.595 0-2.84 1.644-4.682 4.19-4.682 2.506 0 4.08 1.72 4.08 4.466v.637h-6.394v.112a2.357 2.357 0 002.436 2.564 2.046 2.046 0 002.09-1.273h1.765zm-6.282-2.702h4.526a2.174 2.174 0 00-2.22-2.298 2.292 2.292 0 00-2.306 2.298zM37.826 8.731a2.64 2.64 0 012.808 2.965c0 1.906-1.03 3.002-2.808 3.002h-2.155V8.73h2.155zm-1.228 5.123h1.125a1.873 1.873 0 001.967-2.146 1.879 1.879 0 00-1.967-2.134h-1.125v4.28zm5.082-1.41a2.131 2.131 0 011-2.015 2.132 2.132 0 013.248 2.015 2.135 2.135 0 11-4.247 0zm3.334 0c0-.976-.439-1.547-1.208-1.547-.773 0-1.207.571-1.207 1.547 0 .984.434 1.55 1.207 1.55.77 0 1.208-.57 1.208-1.55zm6.559 2.254h-.922l-.93-3.317h-.071l-.926 3.317h-.913l-1.242-4.503h.902l.806 3.436h.067l.926-3.436h.852l.926 3.436h.07l.803-3.436h.889zm2.281-4.503h.855v.715h.066a1.347 1.347 0 011.344-.802 1.465 1.465 0 011.559 1.675v2.915h-.889v-2.692c0-.724-.314-1.084-.972-1.084a1.033 1.033 0 00-1.075 1.141v2.635h-.888v-4.503zm5.24-1.758h.888v6.261h-.888zm2.124 4.007a2.132 2.132 0 114.247 0 2.135 2.135 0 11-4.247 0zm3.333 0c0-.976-.439-1.547-1.208-1.547-.773 0-1.207.571-1.207 1.547 0 .984.434 1.55 1.207 1.55.77 0 1.208-.57 1.208-1.55zm1.849.98c0-.81.604-1.278 1.676-1.344l1.22-.07v-.39c0-.475-.315-.744-.922-.744-.497 0-.84.182-.939.5h-.86c.09-.773.818-1.27 1.84-1.27 1.128 0 1.765.563 1.765 1.514v3.077h-.855v-.633h-.07a1.517 1.517 0 01-1.353.707 1.361 1.361 0 01-1.501-1.348zm2.895-.384v-.377l-1.1.07c-.62.042-.9.253-.9.65 0 .405.351.64.834.64a1.059 1.059 0 001.166-.984zm2.053-.596c0-1.423.732-2.324 1.87-2.324a1.483 1.483 0 011.38.79h.067V8.437h.888v6.26h-.851v-.71h-.07c-.29.504-.834.806-1.415.785-1.145 0-1.869-.901-1.869-2.328zm.918 0c0 .955.45 1.53 1.203 1.53.75 0 1.212-.583 1.212-1.526 0-.938-.468-1.53-1.212-1.53-.748 0-1.203.58-1.203 1.526zm6.964 0a2.132 2.132 0 114.247 0 2.135 2.135 0 11-4.247 0zm3.333 0c0-.976-.438-1.547-1.208-1.547-.772 0-1.207.571-1.207 1.547 0 .984.435 1.55 1.207 1.55.77 0 1.208-.57 1.208-1.55zm2.107-2.249h.855v.715h.066c.231-.527.77-.849 1.344-.802a1.465 1.465 0 011.559 1.675v2.915h-.889v-2.692c0-.724-.314-1.084-.972-1.084a1.033 1.033 0 00-1.075 1.141v2.635h-.889v-4.503zm8.845-1.121v1.141h.976v.749h-.976v2.315c0 .472.194.679.637.679.113 0 .226-.008.339-.021v.74c-.16.029-.322.044-.484.046-.988 0-1.381-.348-1.381-1.216v-2.543h-.715v-.749h.715V9.074h.89zm2.19-.637h.88v2.481h.07a1.39 1.39 0 011.374-.806 1.485 1.485 0 011.55 1.679v2.907h-.889V12.01c0-.72-.335-1.084-.963-1.084a1.05 1.05 0 00-1.134 1.142v2.63h-.888V8.437zm9.056 5.045a1.827 1.827 0 01-1.95 1.303 2.048 2.048 0 01-2.081-2.325 2.079 2.079 0 012.076-2.352c1.253 0 2.009.856 2.009 2.27v.31h-3.18v.05a1.189 1.189 0 001.199 1.29c.435.052.858-.164 1.072-.546h.855zm-3.126-1.452h2.275a1.09 1.09 0 00-1.109-1.167 1.15 1.15 0 00-1.166 1.167z" fill="#FFF"/></g></svg>