<svg width="32" fill="none" xmlns="http://www.w3.org/2000/svg" viewBox="0 0 27 23"><path fill-rule="evenodd" clip-rule="evenodd" d="M19.9 1.26C19.468.62 18.896.188 18.18.048c-.7-.136-1.446.025-2.209.387l-.01.005-1.226.613c-.462.2-.872.299-1.235.315-.363-.016-.764-.115-1.209-.315L11.035.438l-.009-.004c-.77-.361-1.52-.522-2.218-.386-.717.14-1.287.575-1.712 1.217l-.004.006c-.696 1.076-1.11 2.694-1.298 4.778a29.3 29.3 0 00-1.576.366l-.01.003c-1.28.362-2.294.77-3 1.243C.51 8.13 0 8.741 0 9.521c0 .785.505 1.404 1.206 1.878.707.478 1.72.89 3.002 1.251h.003c2.581.713 5.681 1.063 9.29 1.063 3.607 0 6.707-.35 9.288-1.062l.004-.001c1.28-.362 2.295-.773 3.001-1.25.702-.475 1.206-1.094 1.206-1.878 0-.78-.51-1.393-1.208-1.86-.706-.474-1.719-.882-3-1.244l-.01-.003a29.434 29.434 0 00-1.576-.366c-.188-2.084-.602-3.702-1.298-4.778l-.007-.011zm1.39 6.032c.032.685.041 1.423.03 2.214a.6.6 0 01-1.2-.018 32.306 32.306 0 00-.074-2.893v-.002c-.163-2.247-.566-3.77-1.142-4.665-.293-.43-.613-.636-.954-.702-.359-.07-.834-.005-1.458.29l-1.236.617a.574.574 0 01-.027.013c-.582.255-1.153.402-1.708.422a.6.6 0 01-.042 0c-.556-.02-1.12-.168-1.69-.425l-.016-.008-1.261-.617c-.635-.297-1.115-.362-1.474-.292-.341.066-.656.27-.94.699-.575.891-.979 2.41-1.143 4.649a.59.59 0 01-.003.04 32.405 32.405 0 00-.072 2.874.6.6 0 01-1.2.018c-.011-.79-.002-1.529.03-2.213-.407.087-.8.181-1.181.281-1.231.348-2.102.715-2.652 1.084-.559.374-.677.67-.677.864 0 .206.124.508.679.883.55.373 1.421.742 2.653 1.09 2.446.675 5.432 1.018 8.968 1.018 3.536 0 6.522-.343 8.968-1.018 1.232-.348 2.103-.717 2.654-1.09.555-.375.678-.677.678-.883 0-.194-.118-.49-.676-.864-.55-.369-1.421-.736-2.652-1.084-.381-.1-.775-.194-1.182-.282zM8.654 16.908c-.994 0-1.816.157-2.482.445a.503.503 0 01-.023.01c-.285.11-.552.252-.804.43.017 1.26.146 2.09.338 2.558a.608.608 0 01.047.081c.417.869 1.24 1.368 2.71 1.368 1.442 0 2.287-.502 2.737-1.402l.007-.014c.202-.378.344-.979.376-1.858V17.46a9.199 9.199 0 00-2.906-.553zm3.725-.416a10.419 10.419 0 00-3.7-.784h-.017c-1.114 0-2.105.173-2.956.54a4.92 4.92 0 00-1.343.784.6.6 0 00-.22.465c0 1.54.144 2.737.507 3.482a.601.601 0 00.065.104C5.409 22.4 6.722 23 8.439 23c1.763 0 3.1-.65 3.808-2.058.324-.61.479-1.423.513-2.384v-.741c.21.029.424.04.64.032.198.007.395-.003.591-.03v.74c.036.961.19 1.775.516 2.386C15.23 22.35 16.573 23 18.337 23c1.718 0 3.03-.6 3.725-1.917a.597.597 0 00.065-.104c.363-.746.507-1.943.507-3.482a.6.6 0 00-.22-.465 4.921 4.921 0 00-1.346-.785c-.864-.365-1.853-.54-2.954-.54h-.016a10.63 10.63 0 00-3.719.782l-.01.004c-.323.12-.636.17-.943.156a.57.57 0 00-.049 0 2.553 2.553 0 01-.994-.156l-.004-.001zm2.812.971v1.063c.033.88.175 1.48.376 1.858l.005.008c.466.906 1.323 1.408 2.766 1.408 1.468 0 2.292-.499 2.708-1.368a.617.617 0 01.048-.081c.191-.468.32-1.298.338-2.559a3.703 3.703 0 00-.804-.43l-.02-.007c-.685-.29-1.51-.447-2.486-.447a9.38 9.38 0 00-2.93.555z" fill="#FF7800"/></svg>