<svg xmlns="http://www.w3.org/2000/svg" width="32" height="32"><path fill="#fff" fill-rule="evenodd" d="M21.84 7.74c.508 0 1.292.164 2.354.493 1.06.33 2.053 1.086 2.976 2.271-.185.044-.727.505-1.627 1.382-.9.878-1.419 2.194-1.557 3.95.185 2.106.854 3.587 2.007 4.443 1.153.855 1.822 1.283 2.007 1.283-.046.088-.23.516-.554 1.284-.323.768-.83 1.656-1.522 2.665-.6.922-1.257 1.723-1.973 2.403-.715.68-1.545 1.02-2.491 1.02-.946 0-1.73-.164-2.353-.493-.623-.33-1.465-.494-2.526-.494-1.061 0-1.915.164-2.56.494-.647.329-1.408.515-2.284.559-.97 0-1.834-.362-2.596-1.086A13.742 13.742 0 017.1 25.446c-1.338-1.843-2.284-4.092-2.838-6.747-.553-2.655-.23-5.123.97-7.405A8.08 8.08 0 017.86 8.76a6.611 6.611 0 013.46-.955c.97.044 1.869.242 2.7.593.83.35 1.545.548 2.145.592.6-.044 1.395-.274 2.387-.69.992-.418 2.088-.604 3.288-.56zM20.974 0a6.451 6.451 0 01-.262 2.518 8.513 8.513 0 01-1.019 2.172 4.974 4.974 0 01-1.63 1.552c-.659.391-1.338.563-2.036.517a6.12 6.12 0 01.29-2.517c.272-.805.602-1.483.99-2.035A5.476 5.476 0 0119.024.655c.679-.39 1.329-.609 1.95-.655z"/></svg>