<svg xmlns="http://www.w3.org/2000/svg" width="32" height="32"><path fill="#4E22D0" fill-rule="evenodd" d="M21.84 8.006c.508 0 1.292.17 2.354.511 1.06.34 2.053 1.124 2.976 2.35-.185.045-.727.521-1.627 1.43-.9.907-1.419 2.269-1.557 4.085.185 2.179.854 3.71 2.007 4.596 1.153.885 1.822 1.328 2.007 1.328-.046.09-.23.533-.554 1.327-.323.795-.83 1.714-1.522 2.758a13.7 13.7 0 01-1.973 2.485c-.715.704-1.545 1.056-2.491 1.056-.946 0-1.73-.17-2.353-.51-.623-.341-1.465-.511-2.526-.511-1.061 0-1.915.17-2.56.51-.647.34-1.408.534-2.284.579-.97 0-1.834-.374-2.596-1.124A14.089 14.089 0 017.1 26.323c-1.338-1.907-2.284-4.233-2.838-6.98-.553-2.746-.23-5.3.97-7.66A8.226 8.226 0 017.86 9.062a6.442 6.442 0 013.46-.987 7.56 7.56 0 012.7.612c.83.364 1.545.568 2.145.613.6-.045 1.395-.283 2.387-.715.992-.431 2.088-.624 3.288-.579zM20.974 0a6.874 6.874 0 01-.262 2.604 8.95 8.95 0 01-1.019 2.248 5.053 5.053 0 01-1.63 1.605c-.659.405-1.338.583-2.036.535a6.515 6.515 0 01.29-2.604c.272-.832.602-1.534.99-2.105A5.53 5.53 0 0119.023.678c.679-.404 1.329-.63 1.95-.678z"/></svg>