<svg width="80" height="80" fill="none" xmlns="http://www.w3.org/2000/svg"><path d="M21.85 59.9a26.578 26.578 0 01-1.7-1.65c-5.067-5.533-7.433-12.017-7.1-19.45.3-7.467 3.2-13.717 8.7-18.75 5.5-5 11.967-7.334 19.4-7 4.333.166 8.267 1.216 11.8 3.15m0 0l10.5-1.75c.367-.034.7.033 1 .2.333.166.567.4.7.7.167.267.2.583.1.95L63.6 26.75M52.95 16.2l-7.35 1.2c-.433 0-.767.2-1 .6a1.99 1.99 0 00-.45 1.1c.067.433.25.783.55 1.05l2.8 2.9L34.05 36.6m29.55-9.85c2.467 4.3 3.6 9.1 3.4 14.4-.333 7.433-3.25 13.666-8.75 18.7-5.5 5.033-11.983 7.4-19.45 7.1-4.833-.234-9.117-1.517-12.85-3.85M63.6 26.75l-1.2 7.4c-.067.433-.25.8-.55 1.1-.333.2-.733.3-1.2.3-.367 0-.717-.167-1.05-.5l-2.95-2.85-30.5 30.6m29.8-25.25l-4.1 4.1m-22.35-5.9l-1.25 1.4m3.3 2.05l-5.4 5.45m2.95 5.4l-5.4 5.35m19.7-19.65L31.55 47.6m10.3-24.15l-10 9.95" stroke="#4E22D0" stroke-width="1.5" stroke-linecap="round" stroke-linejoin="round"/></svg>