<svg xmlns="http://www.w3.org/2000/svg" width="80" height="80"><path fill="none" stroke="#4E22D0" stroke-linecap="round" stroke-linejoin="round" stroke-width="1.5" d="M33.73 31.55h4.85l-2.45-5.899-2.4 5.899zm12.1-4.649a3.618 3.618 0 00-2.2-1.051h-2.05v7.65h1.7c.96-.03 1.81-.42 2.55-1.15.73-.73 1.1-1.63 1.1-2.699 0-1.071-.37-1.981-1.1-2.75zm-12.1 4.649h4.85l-2.45-5.899-2.4 5.899zm9.9-5.7h-2.05v7.65h1.7c.96-.03 1.81-.42 2.55-1.15.73-.73 1.1-1.63 1.1-2.699 0-1.071-.37-1.981-1.1-2.75a3.618 3.618 0 00-2.2-1.051zm13.3 11.2L46.88 47h-14.1l-10-9.95v-14.1L32.73 13h14.15l7.07 7 2.98 2.95v14.1zm-11.1-10.149a3.618 3.618 0 00-2.2-1.051h-2.05v7.65h1.7c.96-.03 1.81-.42 2.55-1.15.73-.73 1.1-1.63 1.1-2.699 0-1.071-.37-1.981-1.1-2.75zm-13 6.849l.9-2.2h4.85l.85 2.2m-5.7-2.2l2.4-5.899 2.45 5.899h-4.85zM58.39 17h6.81c1.74 0 2.6.88 2.6 2.651V55c0 1.731-.86 2.6-2.6 2.6H13.45c-1.76 0-2.65-.869-2.65-2.6V19.651c0-1.771.89-2.651 2.65-2.651h8.94M4 63.8v2.5c.54.47 1.09.7 1.65.7H74.2c.6 0 1.1-.23 1.5-.7v-2.5H4zm0 0l7.05-3.1H68.5l7.2 3.1H4z"/></svg>