<svg xmlns="http://www.w3.org/2000/svg" width="81" height="80"><path d="M70.9 62.1l1.05-12.5-1.05 12.5zm-10.9 0l-1.05-12.5L60 62.1zm5.5 1.5V50.2v13.4zm-13.25-4.9H6.15c-1.066-.067-1.917-.433-2.55-1.1-.7-.7-1.067-1.533-1.1-2.5V55h25.2l1.15 1.15h13.5L43.5 55h8.3m25.8-10l-2.3 17.9c-.267 2.033-1.3 3.55-3.1 4.55-1.866 1.033-4.116 1.55-6.75 1.55-2.667 0-4.95-.517-6.85-1.55-1.833-1-2.867-2.5-3.1-4.5L53.35 45m-20.8-11.75l3 2.95 3-2.95m-.1 5.9l-2.9-2.95-2.9 2.9M43.1 28.6c2.067 2.066 3.117 4.583 3.15 7.55 0 2.967-1.033 5.467-3.1 7.5-2.066 2.1-4.566 3.15-7.5 3.15-3.033 0-5.583-1.033-7.65-3.1-2.1-2.1-3.117-4.633-3.05-7.6 0-2.1.533-3.983 1.6-5.65.433-.667.933-1.3 1.5-1.9 2.067-2.033 4.567-3.067 7.5-3.1 2.867 0 5.267.933 7.2 2.8l.35.35zm18.05 5.2V22c0-3.334-1.683-5-5.05-5h-41c-3.367 0-5.05 1.666-5.05 5v29.9M60.8 39.75v-.7c0-1.5.767-2.25 2.3-2.25h4.7c1.567 0 2.35.75 2.35 2.25v.7m-12.05-1.8c-.467.1-.917.2-1.35.3-.7.267-1.283.517-1.75.75-1.233.567-1.85 1.183-1.85 1.85 0 .6.367 1.15 1.1 1.65.567.367 1.4.717 2.5 1.05 2.4.7 5.283 1.05 8.65 1.05 3.333 0 6.2-.35 8.6-1.05 1.133-.367 1.983-.717 2.55-1.05.7-.5 1.05-1.05 1.05-1.65 0-.667-.6-1.283-1.8-1.85-.5-.233-1.1-.483-1.8-.75-.4-.1-.817-.183-1.25-.25" stroke="#7D77A6" stroke-width="1.5" fill="none" stroke-linecap="round" stroke-linejoin="round"/></svg>