<svg xmlns="http://www.w3.org/2000/svg" width="80" height="80"><path fill="none" stroke="#4E22D0" stroke-linecap="round" stroke-linejoin="round" stroke-width="1.5" d="M18.949 60.751H9h9.949zM71 18.701h-9.851H71zM23.099 64.302c4.967 3.5 10.633 5.25 17 5.25 8.167 0 15.167-2.917 21-8.75 5.833-5.834 8.767-12.834 8.8-21-.099-8.334-3.016-15.367-8.75-21.1v9.9m-4.2-13.4c-4.933-3.5-10.566-5.234-16.899-5.2-8.201-.067-15.217 2.816-21.05 8.65-5.867 5.833-8.784 12.883-8.75 21.15 0 8.033 2.899 15.016 8.699 20.95v-9.9m29.851-19.4l-12.3 12.3-4.801-4.7a2.097 2.097 0 00-1.6-.7c-.7 0-1.283.233-1.75.7-.4.433-.599.983-.599 1.65.033.666.25 1.233.649 1.7l6.45 6.45c.467.366 1.017.55 1.651.55.633.033 1.166-.167 1.599-.6l14.05-14c.467-.467.7-1.033.7-1.7s-.233-1.217-.7-1.65c-.433-.468-.983-.7-1.649-.7-.667 0-1.234.232-1.7.7z"/></svg>