<svg width="80" height="80" fill="none" xmlns="http://www.w3.org/2000/svg"><path d="M66.473 50.319c-1.96-1.843-3.26-2.1-4.848-3.262-4.864-3.556-6.037-11.009-2.304-15.869 1.068-1.389 2.396-2.369 3.89-3.36 1.552-1.03 2.968-2.525 3.702-4.079 1.473-3.119 1.123-7.063-1.163-10.006-2.175-2.801-5.596-4.262-9.333-3.575-1.762.325-3.245 1.053-4.741 2.386-1.537 1.37-1.929 2.777-3.687 4.498-2.774 2.714-6.099 4.045-10.039 3.777-1.93-.132-3.559-.59-5.498-1.683-2.086-1.175-2.901-2.584-4.509-2.95-1.67-.38-3.527.084-4.64 1.362-1.518 1.741-1.318 3.364-.658 5.446.624 1.97 1.158 3.878 1.26 5.958a18.158 18.158 0 01-.718 6.07c-1.065 3.59-3.687 6.96-6.198 9.178-2.07 1.83-3.533 2.122-4.86 3.401C10.84 48.855 10 50.563 10 52.495c0 3.344 2.4 6.132 5.575 6.722 2.483.46 4.851-.67 5.591-.903 5.156-1.623 11.63-1.424 16.308-.061 3.87 1.126 7.216 3.122 10.338 5.648 1.501 1.216 2.64 2.85 4.22 3.974 4.06 2.894 11.072 3.455 15.555-2.316 3.036-3.908 3.765-10.653-1.114-15.24" stroke="#4E22D0" stroke-width="1.5" stroke-linecap="round" stroke-linejoin="round"/><path fill-rule="evenodd" clip-rule="evenodd" d="M47.19 29.24c-1.512 0-2.095 1.192-2.095 2.058V32.9c-1.561-2.097-3.67-3.492-6.551-3.492-2.352 0-4.357.945-6.017 2.836-1.66 1.891-2.49 4.174-2.49 6.848 0 2.663.83 4.94 2.49 6.832 1.66 1.901 3.665 2.851 6.017 2.851 3.087 0 5.225-1.68 6.551-3.507v1.723c0 .772.621 1.998 2.078 1.998 1.438 0 2.046-1.252 2.046-2.059V31.3c0-1.326-1.137-2.06-2.029-2.06zm-7.515 15.752c-3.152 0-5.421-2.871-5.421-5.963 0-3.265 2.337-5.948 5.421-5.948 3.33 0 5.422 2.977 5.422 5.948 0 3.14-2.233 5.963-5.422 5.963z" fill="#4E22D0"/></svg>