<svg xmlns="http://www.w3.org/2000/svg" width="80" height="80"><g fill="none" fill-rule="evenodd" stroke="#4E22D0" stroke-linecap="round" stroke-linejoin="round" stroke-width="1.5"><path d="M16.15 55.25h49.3V17h-49.3v38.25zm48.25-44.5H17.05c-4.2 0-6.3 2.084-6.3 6.25v47.4c0 4.233 2.1 6.35 6.3 6.35H64.4c4.233 0 6.35-2.117 6.35-6.35V17c0-4.166-2.117-6.25-6.35-6.25z"/><path d="M29.95 28.45l4.75-2m-.8 6.85v2.35m13.8-2.35v2.35m3.95-7.2l-4.75-2m-16.2 19.3c.434-.633.934-1.217 1.5-1.75 2.334-2.333 5.167-3.5 8.5-3.5 3.3 0 6.117 1.167 8.45 3.5a12.931 12.931 0 011.55 1.75"/></g></svg>