<svg xmlns="http://www.w3.org/2000/svg" width="80" height="80"><path fill="none" stroke="#4E22D0" stroke-linecap="round" stroke-linejoin="round" stroke-width="1.5" d="M36.301 44.351H25.7h10.601zm-16.25 0H12.5h7.551zM6 31.701v20.6c0 2.233 1.134 3.35 3.401 3.35h30.2M6 21.551v10.15h31.351M64 26.451v-4.9 4.9zm-5.199 1.5l12.899 3.75c.8.233 1.318.483 1.55.75.334.266.5.75.5 1.45v11.75a13 13 0 01-.099 1.599c-.5 4.101-2.333 7.851-5.5 11.25-.833.901-1.55 1.601-2.151 2.101-1.333 1.2-3.116 2.5-5.349 3.899a236.919 236.919 0 01-3.451 2.101l-.399.2H56.7l-.399-.2a15.961 15.961 0 01-1.5-.851c-2.834-1.632-5.25-3.349-7.25-5.149l-2.301-2.25c-1.967-2.2-3.432-4.5-4.399-6.9A17.938 17.938 0 0140 48a17.837 17.837 0 01-.25-2.25V33.901c0-.7.167-1.184.5-1.45.268-.267.783-.517 1.551-.75l12.949-3.75c.967-.3 1.651-.451 2.051-.451.333 0 1 .151 2 .451zM60.7 13H9.401C7.134 13 6 14.134 6 16.401v5.15h58v-5.15C64 14.134 62.901 13 60.7 13z"/></svg>