<svg xmlns="http://www.w3.org/2000/svg" width="80" height="80" fill="none"><path stroke="#4E22D0" stroke-linecap="round" stroke-linejoin="round" stroke-width="1.5" d="M58 40v22.533C58 64.448 56.465 66 54.571 66H13.429C11.535 66 10 64.448 10 62.533V17.467C10 15.552 11.535 14 13.429 14h41.142C56.465 14 58 15.552 58 17.467V40z" clip-rule="evenodd"/><path stroke="#4E22D0" stroke-linecap="round" stroke-linejoin="round" stroke-width="1.5" d="M20 42h14V26H20v16zm50 16l-3 4-3-4V21a3 3 0 116 0v37z" clip-rule="evenodd"/><path stroke="#4E22D0" stroke-linecap="round" stroke-linejoin="round" stroke-width="1.5" d="M64 24h6m-6 32h2m-18-6H20m0 8h28m0-16h-8m8-8h-8m8-8h-8"/></svg>