<svg xmlns="http://www.w3.org/2000/svg" width="80" height="80"><path fill="none" stroke="#4E22D0" stroke-linecap="round" stroke-linejoin="round" stroke-width="1.5" d="M22 59.725h18M20.147 42.108A4.822 4.822 0 1028.5 46.93l-8.353-4.822zM33.5 46.93a4.823 4.823 0 008.353-4.822L33.5 46.93zM31 32.607v-4 4zm18 18h2a2 2 0 002-2v-5a2 2 0 00-2-2h-2v9zm-39 0h3v-9h-3a1 1 0 00-1 1v7a1 1 0 001 1zm39 5v-19a4 4 0 00-4-4H17a4 4 0 00-4 4v19a4 4 0 004 4h28a4 4 0 004-4zM22.35 25.6v-5.3c0-1 .233-1.717.7-2.15.367-.333 1.117-.666 2.25-1l18.95-5.5c1.4-.434 2.367-.65 2.9-.65.534 0 1.534.216 3 .65l18.9 5.5c1.134.334 1.884.667 2.25 1 .467.433.7 1.15.7 2.15v17.25c-.033.8-.1 1.567-.2 2.3-.734 6-3.417 11.517-8.05 16.55l-.65.65c-.767.8-1.583 1.583-2.45 2.35-2.233 1.967-4.8 3.867-7.7 5.7-.533.333-1.083.684-1.65 1.05-1.1.634-2.234 1.266-3.4 1.9l-.6.35c-.033.033-.083.05-.15.05a.388.388 0 01-.15-.05l-.55-.35a21.464 21.464 0 01-2.1-1.2 73.546 73.546 0 01-2.9-1.725"/></svg>