<svg xmlns="http://www.w3.org/2000/svg" width="80" height="80"><g fill="none" fill-rule="evenodd"><path fill="#4E22D0" d="M55.198 43.05l-4.95-5.35 6.35-4.1 11.049-7.15-7.9 10.55z"/><path stroke="#4E22D0" stroke-linecap="round" stroke-linejoin="round" stroke-width="1.5" d="M59.747 37l7.9-10.55-11.049 7.15m-10.95 10.225l-7.9 10.475 11.05-7.125m6.4-4.125l-6.4 4.125a8.012 8.012 0 002.5.925l1.4 9.15 1.45-9.2c1.3-.234 2.483-.8 3.55-1.7l3.75 2.75-2.75-3.75c.9-1.067 1.466-2.266 1.7-3.6l9.2-1.4-9.25-1.4a7.767 7.767 0 00-.6-1.95l-4.55 6.05zm1.4-9.45a6.831 6.831 0 00-2.5-.9l-1.4-9.2-1.45 9.2c-1.334.2-2.534.75-3.6 1.65l-3.75-2.75 2.75 3.75a7.163 7.163 0 00-1.65 3.65l-9.2 1.4 9.2 1.4c.122.714.338 1.388.65 2.025l4.6-6.125 6.35-4.1zM31.7 57.225c-1.327 1.195-2.96 1.903-4.9 2.125-2.8.367-5.5-.35-8.1-2.15 1.467-.134 2.717-.65 3.75-1.55 1.167-.8 2.55-1.117 4.151-.95-.967-2-2.517-2.634-4.65-1.9-.3.1-.584.183-.85.25-2.667.634-4.2.134-4.6-1.5-.167-1.033.25-1.884 1.25-2.55 2.532-1.334 4.1-3.1 4.7-5.3-3.767-.233-4.484-2.233-2.15-6-2.134.2-3.817 1.25-5.05 3.15-1.234-.4-2.6-.4-4.1 0a5.17 5.17 0 01-.8-.65M26.9 26.55c-.168.2-.335.4-.5.6-1.034 1-2.25 1.5-3.65 1.5s-2.617-.5-3.65-1.5c-.334-.334-.6-.7-.8-1.1l-.1-.15a1.655 1.655 0 01-.2-.45m20.948 37.775a19.186 19.186 0 01-2.7 3.325C32.65 70.184 28.298 72 23.2 72c-5.099 0-9.466-1.816-13.099-5.45-3.567-3.567-5.35-7.917-5.35-13.05 0-3.367.783-6.416 2.35-9.15-.499-3.266.116-5.784 1.85-7.55.1 1.467.566 2.6 1.4 3.4 3.566-3.433 7.85-5.15 12.85-5.15 1.123 0 2.206.092 3.25.275M11.35 14.05L18 25.45c-.268-.6-.4-1.25-.4-1.95 0-1.4.5-2.6 1.5-3.6 1.033-1.033 2.25-1.55 3.65-1.55h.2m-9.9 16.3a11.6 11.6 0 01-.6-.55l-.15-.15C9.4 31.084 7.95 27.6 7.95 23.5c0-3.6 1.133-6.75 3.4-9.45.3-.333.616-.667.95-1 2.9-2.866 6.383-4.3 10.45-4.3 4.065 0 7.548 1.434 10.45 4.3 1.598 1.567 2.75 3.333 3.45 5.3h-13.7c1.332.066 2.483.584 3.45 1.55 1 1 1.5 2.2 1.5 3.6 0 1-.25 1.9-.75 2.7-.068.1-.152.216-.25.35l-3.476 6m29.274-16.2c6.633 0 12.282 2.334 16.95 7 4.7 4.7 7.05 10.367 7.05 17 0 6.633-2.35 12.3-7.05 17-4.668 4.667-10.317 7-16.95 7-6.634 0-12.3-2.333-16.999-7-4.667-4.7-7-10.367-7-17 0-6.633 2.333-12.3 7-17 4.7-4.666 10.365-7 17-7z"/></g></svg>