<svg xmlns="http://www.w3.org/2000/svg" width="80" height="80"><path fill="none" stroke="#4E22D0" stroke-linecap="round" stroke-linejoin="round" stroke-width="1.5" d="M72.5 72L8.5 8m52 56.3h-4.801m-44.5 0c-1.366 0-2.432-.383-3.199-1.151-.601-.599-.934-1.616-1-3.049V33.8m60 25.15h-3.351M62.05 18.7v1.699M35.449 30.75c.634-.467 1.551-.733 2.75-.8H68.8c2.766.067 4.167 1.467 4.2 4.199V54.75c-.033 2.767-1.434 4.167-4.2 4.2H67v1.15c0 .733-.101 1.367-.301 1.9M43.35 38.649h5.45c2.766.068 4.167 1.467 4.2 4.201v5.45M23.05 18.35h7.75L32.5 25H67v-6.5c-.067-2.733-1.467-4.134-4.2-4.2H19m39.1 4.4v1.699M54.25 18.7v1.699M7 25v8.8h23m23 23v6.65c0 .3-.018.583-.051.85-.3 2.2-1.682 3.316-4.149 3.349H18.199c-1.366 0-2.432-.382-3.199-1.149-.467-.467-.768-1.2-.9-2.2a3.48 3.48 0 01-.1-.85v-20.6c0-1.201.333-2.201 1-3 .6-.734 1.666-1.133 3.199-1.201H34.85M10.55 14.35c-1.2.133-2.05.516-2.55 1.15-.667.8-1 1.8-1 3V25h6.35l1.599-6.25"/></svg>