<svg xmlns="http://www.w3.org/2000/svg" width="80" height="80"><path fill="none" stroke="#4E22D0" stroke-linecap="round" stroke-linejoin="round" stroke-width="1.5" d="M43.25 50.75l.199 1.851c.202 1.399.735 3.682 1.6 6.849 1 3.199 2.2 6.234 3.602 9.1h0l.099.2H41.5c-.801-1.167-1.717-2.816-2.75-4.95h0l-.801-1.699.202 1.699.048.15c.1 1.533.317 3.133.65 4.8h0-3.9c-.566-1.066-1.283-2.717-2.15-4.95h0L31.4 59.601a86.247 86.247 0 000 4.199c0 1.634.082 3.283.25 4.95h0-15.102l.15-10.851c-.7 2.467-1.316 4.434-1.85 5.901-.732 1.967-1.466 3.617-2.198 4.95h0-7.9c2.867-5.733 4.717-11.733 5.549-18h0m65.8-17.6V58.7c-.032 2.434-1.25 3.65-3.65 3.65H48.8m-22.35-49.6c1.567 0 2.952.55 4.15 1.649 1.134 1.134 1.7 2.518 1.7 4.151h0l-2.05 18.9h12.2c.702.067 1.383.401 2.05 1 .534.533.818 1.166.85 1.901h0v7.599H8.152V40.3c.033-.734.316-1.366.849-1.901.666-.599 1.35-.899 2.049-.899h11.5L20.5 18.601c0-1.634.568-3.018 1.7-4.151 1.202-1.099 2.584-1.667 4.15-1.7h.1zM34.3 23.8h38.15c2.4.066 3.618 1.3 3.65 3.7h0v5.65H53.402l-1.5-5.8H38.2l-1.5 5.8h-3.401m-6.85-16.55c-.6 0-1.1.182-1.5.548-.4.401-.617.884-.65 1.452h0l.05.349c.1.434.302.8.6 1.1.4.467.9.7 1.5.7s1.084-.233 1.452-.7c.365-.401.548-.883.548-1.449a2.08 2.08 0 00-.548-1.452 2.077 2.077 0 00-1.452-.548zm36.9 11.1v1.698m7.802-1.699v1.7M67.2 27.7v1.7"/></svg>