<svg xmlns="http://www.w3.org/2000/svg" width="80" height="80"><g fill="none" fill-rule="evenodd" stroke="#4E22D0" stroke-linecap="round" stroke-linejoin="round" stroke-width="1.5"><path d="M46.77 55.029l-1.87-6.104-2.8.65-3.5-2.9 2.4-3.8 4.7-2.15.5 1.5 4.35.3 5.65 6.05-.028.032m-9.401 6.422l1.18 3.846 1.2.15 4.15-4.6v-2.55l2.87-3.268m5.073-3.465l-1.094-2.267-3.4 2.35-4.3-4.35.45-1.2-1.5-1.05-1.15-.85H47.3l-1.45-.85-4.1 2.4-.2-2.3.85-1.2 3-1.4.7-1.5 2.15 1.2 2-3.5-1.8-1.35-1.2 1.75-2.4-1.35 3.55-3.35 2.95 1.2h.05l1.85-.8 2.15-6.15.648.342a35.604 35.604 0 013.202 1.958c.9.733 1.834 1.567 2.8 2.5 4.1 4.067 6.45 8.867 7.05 14.4h0-.002m-7.854 5.367l1.006 2.083 2.5-4.35 1.6 2.85 2.748-5.95c.027.65.043 1.328.049 2.034l.003.716c0 3.933-.834 7.55-2.5 10.85a23.412 23.412 0 01-3.3 4.75c-.4.533-.833 1-1.3 1.4-4.734 4.733-10.433 7.1-17.1 7.1-4.1 0-7.833-.9-11.2-2.7h0m2.405-1.643L34 60.825l-.25-.35m0-10.85l2.05 1.15.1 3.75-1.2 3.8 2.012 3.576m-.557.38l1.245.844-.688-1.224M33.35 28.275l.85-3.85-4.8-.45a23.472 23.472 0 015.05-3.3h0c.7-.367 1.45-.717 2.25-1.05a26.671 26.671 0 015.3-1.2h0m-7.55 2.25l3.45 1.3-.757 4.974m4.736-1.654l-.23.53-4.7 2.4.194-1.276m4.736-1.654l1.97-4.52-1.85-2.35c.934-.034 1.918-.05 2.95-.05 2.267 0 4.418.266 6.45.8 1.4.333 2.734.8 4 1.4h0m-13.35 11.45l-2.4 2.25m14.55 24.05l2.15-2.7m5.3-1.05l2.75-5.05"/><path d="M51.4 16.425v-2.75l-33.1-3.9c-2.733-.2-4.25.817-4.55 3.05v.85c.167 1.933 1.517 3.867 4.05 5.8l9.35 6.8 3.45 2.5.4.3v42.45l-12.9-8.85c-2.833-1.934-4.283-4.333-4.35-7.2v-41.8"/></g></svg>