<svg xmlns="http://www.w3.org/2000/svg" width="80" height="80"><g fill="none" fill-rule="evenodd" stroke="#7D77A6" stroke-linecap="round" stroke-linejoin="round" stroke-width="1.5"><path d="M66.5 18.75H12.75 66.5zM12.75 53.351H66.5 12.75zM76.449 63.55l-7.199-3.1H9.8l-7.05 3.1m1.649 3.2h70.55c.601 0 1.101-.233 1.5-.7v-2.5H47.1l-1 1h-13l-1-1H2.75v2.5c.533.467 1.083.7 1.649.7zM10.1 17.4v37.35c0 1.733.883 2.601 2.65 2.601H66.5c1.733 0 2.6-.868 2.6-2.601V17.4c0-1.766-.867-2.65-2.6-2.65H12.75c-1.767 0-2.65.884-2.65 2.65z"/><path d="M39.6 33.7v5.85-5.85zm0 8.75v.6-.6zm0-18.65l14 24.5h-28l14-24.5z"/></g></svg>