<svg xmlns="http://www.w3.org/2000/svg" width="80" height="80"><g fill="none" fill-rule="evenodd" stroke="#4E22D0" stroke-linecap="round" stroke-linejoin="round" stroke-width="1.5"><path d="M53.997 59.45H7.8l-7.05 3.1m53.247 0h-8.9l-1 1H31.098l-1-1H.75v2.5c.533.466 1.083.7 1.65.7h51.597m13.1-32.6V16.4c0-1.766-.867-2.65-2.6-2.65H10.75c-1.766 0-2.65.884-2.65 2.65v37.35c0 1.733.884 2.6 2.65 2.6h43.248"/><path d="M26.598 43.6c.333-.333.65-.666.95-1 2.8-2.767 6.15-4.15 10.05-4.15 3.933 0 7.3 1.383 10.1 4.15.333.334.632.667.9 1m-20-16.15l3 3 3-3m0 6l-3-3-3 3m12-6l3 3 3-3m0 6l-3-3-3 3M70.896 63.1V48.75 63.1zm-3.899 0V48.75 63.1zm-3.901 0V48.75 63.1zm-5.7-14.35V63.1c0 3.267 1.634 4.9 4.901 4.9h9.399c3.3 0 4.95-1.633 4.95-4.9V48.75h-19.25zm5.851-9.35c0-1.933.965-2.9 2.899-2.9h1.75c1.9 0 2.851.967 2.851 2.9h-7.5zm13.749 5.85c.333 0 .666-.133 1-.4.267-.267.4-.6.4-1 0-.433-.133-.767-.4-1-.301-.3-.634-.45-1-.45H57.047c-.401 0-.734.15-1 .45-.3.267-.45.6-.45 1 0 .367.15.7.45 1 .266.267.599.4 1 .4h19.949z"/></g></svg>