<svg xmlns="http://www.w3.org/2000/svg" width="80" height="80"><path fill="none" stroke="#4E22D0" stroke-linecap="round" stroke-linejoin="round" stroke-width="1.5" d="M13.967 25.65c.301-.1.852-.184 1.65-.25h47.901c.533.066 1.017.134 1.45.2m-36 34.4h-9.8c-.7.067-1.334.016-1.9-.15-2.1-.5-3.317-2.266-3.65-5.3l-2.6-23.85c-.166-2.833.801-4.517 2.9-5.05h.05v-11c0-1.767.884-2.65 2.65-2.65h15.9c1.633.067 2.732.883 3.301 2.45l1.648 4.45h24.9c1.735 0 2.6.884 2.6 2.65v4.05c.934.166 1.65.484 2.15.95.735.734 1.034 1.933.901 3.6l-2.65 24.4c-.299 3.034-1.516 4.8-3.65 5.3a10.01 10.01 0 01-1.05.15h-3.8m-25.1-10.55c-.033-2.1.732-3.934 2.301-5.5 1.533-1.434 3.365-2.166 5.5-2.2m9.949 14.55c-.4.6-.883 1.167-1.449 1.7-.5.534-1.033 1-1.602 1.4l3.051-3.1zm-10-18.9c3.367 0 6.217 1.184 8.551 3.55 2.365 2.334 3.549 5.167 3.549 8.5 0 2.566-.7 4.85-2.1 6.85l7.551 7.6c.398.366.633.85.699 1.45 0 .6-.232 1.133-.699 1.6-.5.5-1 .733-1.5.7-.569.033-1.069-.2-1.5-.7l-7.602-7.55c-2 1.434-4.316 2.15-6.949 2.15-3.334 0-6.166-1.183-8.5-3.55-2.367-2.333-3.551-5.183-3.551-8.55 0-3.333 1.184-6.166 3.551-8.5 2.334-2.366 5.166-3.55 8.5-3.55z"/></svg>