<svg width="80" height="80" fill="none" xmlns="http://www.w3.org/2000/svg"><path fill-rule="evenodd" clip-rule="evenodd" d="M10.981 16.392c.973-.972 2.37-1.392 4.05-1.392h43.444c1.71 0 3.131.418 4.12 1.387.993.971 1.424 2.37 1.424 4.054v1.497a.75.75 0 01-1.5 0V20.44c0-1.444-.367-2.39-.972-2.982-.609-.595-1.585-.959-3.072-.959H15.032c-1.45 0-2.398.362-2.99.953-.592.592-.954 1.54-.954 2.988v31.887a.75.75 0 01-1.5 0V20.441c0-1.68.42-3.077 1.393-4.049zm39.005 7.59c-1.68 0-3.078.42-4.05 1.393-.973.972-1.394 2.369-1.394 4.048v31.14c0 1.679.421 3.076 1.394 4.048.973.972 2.37 1.392 4.05 1.392h6.043a.75.75 0 000-1.5h-6.043c-1.449 0-2.398-.362-2.99-.953-.592-.591-.954-1.54-.954-2.988V29.423c0-1.447.362-2.396.954-2.987.592-.592 1.541-.954 2.99-.954h14.482c1.216 0 2.094.245 2.703.657.593.402 1.005 1.012 1.21 1.905a.75.75 0 001.462-.335c-.276-1.203-.876-2.165-1.831-2.812-.939-.635-2.144-.915-3.544-.915H49.986zM1.75 54.472a.75.75 0 00-.75.75v.129c.042 1.093.472 2.049 1.261 2.84.748.784 1.731 1.196 2.884 1.273a.761.761 0 00.05.002h37.253a.75.75 0 00.75-.75V56.32a.75.75 0 00-.75-.75H30.025l-.88-.88a.75.75 0 00-.53-.218H1.75zm1.579 2.665a2.75 2.75 0 01-.72-1.164h25.696l.88.878c.14.14.331.22.53.22h11.983v.895H5.222c-.829-.06-1.433-.344-1.88-.814l-.013-.015zm45.26 3.124a.75.75 0 000 1.5h6.141a.75.75 0 000-1.5h-6.142zm11.234.75a.75.75 0 01.75-.75h13.432a.75.75 0 010 1.5H60.573a.75.75 0 01-.75-.75zm2.148-31.04c-1.68 0-3.078.42-4.05 1.392-.973.972-1.394 2.37-1.394 4.048v25.601l.001.04c.082 1.493.531 2.737 1.446 3.616.913.876 2.184 1.287 3.699 1.335h10.784c1.71 0 3.13-.418 4.12-1.386.993-.972 1.424-2.371 1.424-4.055v-25.15c0-1.684-.43-3.083-1.424-4.054-.99-.969-2.41-1.387-4.12-1.387H61.971zm-3.944 5.44c0-1.447.362-2.395.954-2.987.592-.592 1.54-.953 2.99-.953h10.486c1.487 0 2.463.363 3.071.958.605.593.973 1.539.973 2.982v25.151c0 1.445-.368 2.39-.973 2.983-.608.594-1.584.958-3.07.958h-10.75c-1.276-.042-2.137-.382-2.695-.917-.555-.533-.915-1.36-.986-2.596V35.412z" fill="#4E22D0"/></svg>