<svg xmlns="http://www.w3.org/2000/svg" width="80" height="80"><path fill="none" stroke="#4E22D0" stroke-linecap="round" stroke-linejoin="round" stroke-width="1.5" d="M12 50.9v13.3c0 3.2 1.6 4.8 4.8 4.8h15.15m12.1-5.8c-1.133 0-1.7.567-1.7 1.7v2.4c0 1.133.567 1.7 1.7 1.7h3c1.133 0 1.7-.567 1.7-1.7v-2.4c0-1.133-.567-1.7-1.7-1.7h-3zm9.75 0c-1.1 0-1.65.567-1.65 1.7v2.4c0 1.133.55 1.7 1.65 1.7h3.05c1.133 0 1.7-.567 1.7-1.7v-2.4c0-1.133-.567-1.7-1.7-1.7H53.8zm8.1 1.7v2.4c0 1.133.566 1.7 1.7 1.7h3.05c1.133 0 1.7-.567 1.7-1.7v-2.4c0-1.133-.567-1.7-1.7-1.7H63.6c-1.134 0-1.7.567-1.7 1.7zM66.65 54c1.133 0 1.7.567 1.7 1.7v2.4c0 1.133-.567 1.7-1.7 1.7h-10.5c-1.133 0-1.7-.567-1.7-1.7v-2.4c0-1.133.567-1.7 1.7-1.7h10.5zm-6.25-5.05c0 1.1.566 1.65 1.7 1.65h4.55c1.133 0 1.7-.55 1.7-1.65V46.5c0-1.133-.567-1.7-1.7-1.7H62.1c-1.134 0-1.7.567-1.7 1.7v2.45zM42.35 46.5v2.45c0 1.1.567 1.65 1.7 1.65H55.3c1.133 0 1.7-.55 1.7-1.65V46.5c0-1.133-.567-1.7-1.7-1.7H44.05c-1.133 0-1.7.567-1.7 1.7zm7 7.5c1.133 0 1.7.567 1.7 1.7v2.4c0 1.133-.567 1.7-1.7 1.7h-5.3c-1.133 0-1.7-.567-1.7-1.7v-2.4c0-1.133.567-1.7 1.7-1.7h5.3zm-10.05.2c-1.4.3-2.867.45-4.4.45-1.434 0-2.8-.133-4.1-.4m-.9-6.4c.133-.1.333-.15.6-.15.267-.067.483.017.65.25.166.1.25.317.25.65 0 .2-.067.417-.2.65l-2.95 4.25-3.15 4.45c-.567.567-1.233.85-2 .85-.8-.067-1.45-.35-1.95-.85-.567-.533-.85-1.2-.85-2 0-.767.283-1.45.85-2.05l8.7-6.05h.05zm5-9.05c-.8 0-1.5-.283-2.1-.85-.6-.6-.9-1.317-.9-2.15s.3-1.533.9-2.1c.6-.6 1.3-.9 2.1-.9.833 0 1.55.3 2.15.9.567.567.85 1.267.85 2.1 0 .833-.283 1.55-.85 2.15-.6.567-1.317.85-2.15.85zm0-11.9c2.467 0 4.583.867 6.35 2.6 1.733 1.733 2.6 3.834 2.6 6.3 0 2.467-.867 4.583-2.6 6.35-1.767 1.733-3.883 2.6-6.35 2.6-2.467 0-4.567-.867-6.3-2.6-1.733-1.767-2.6-3.883-2.6-6.35 0-2.466.867-4.567 2.6-6.3 1.733-1.733 3.833-2.6 6.3-2.6zM22.3 49.85l-.45-.45-.25-.25c-3.7-3.7-5.55-8.15-5.55-13.35 0-5.2 1.85-9.633 5.55-13.3 3.667-3.7 8.1-5.55 13.3-5.55 5.2 0 9.65 1.85 13.35 5.55 3.667 3.667 5.5 8.1 5.5 13.3 0 2.034-.284 3.95-.85 5.75m4.9 0v-25.8c0-3.166-1.584-4.75-4.75-4.75H16.8c-3.2 0-4.8 1.584-4.8 4.75V50.9h4.05v4.9c0 1.967.7 3.633 2.1 5 1.333 1.333 2.9 2.034 4.7 2.1h9.1V69h7.35"/></svg>