<svg xmlns="http://www.w3.org/2000/svg" width="80" height="80"><path fill="none" stroke="#4E22D0" stroke-linecap="round" stroke-linejoin="round" stroke-width="1.5" d="M37.381 60.9v3.35c0 1.367.483 2.517 1.45 3.45.933.933 2.017 1.417 3.25 1.45h6.25m-1.4-10.35c.1-.1.233-.15.4-.15.2 0 .35.083.45.25.133.033.2.167.2.4 0 .133-.05.283-.15.45l-2.05 2.9-2.15 3.1c-.4.4-.85.6-1.35.6-.567-.067-1.033-.267-1.4-.6-.4-.367-.6-.817-.6-1.35 0-.533.2-1.017.6-1.45l6-4.15h.05zm-1.95-41.4l-1.85 1.7 1.85-1.7zm-10.4 33v19.7c0 2.2 1.1 3.3 3.3 3.3h25c2.167 0 3.25-1.1 3.25-3.3V36.65c0-2.167-1.083-3.25-3.25-3.25h-22.6m5.75 12.75c1.2-1.2 2.65-1.8 4.35-1.8 1.7 0 3.15.6 4.35 1.8 1.2 1.167 1.8 2.6 1.8 4.3 0 1.733-.6 3.217-1.8 4.45-1.2 1.167-2.65 1.75-4.35 1.75-1.7 0-3.15-.583-4.35-1.75-1.167-1.233-1.75-2.717-1.75-4.45 0-1.7.583-3.133 1.75-4.3zm2.25 4.3c0-.533.217-1 .65-1.4.4-.433.883-.65 1.45-.65s1.067.217 1.5.65c.4.4.6.867.6 1.4 0 .6-.2 1.1-.6 1.5-.433.4-.933.6-1.5.6s-1.05-.2-1.45-.6c-.433-.4-.65-.9-.65-1.5zm-1.5-34.85l-1.8 1.8c3.367 3.8 1.75 8.283-4.85 13.45m-18.75-15.3c3.967-7.667 8.167-10.167 12.6-7.5m7.2 51.55c-2.533-2.5-3.8-5.55-3.8-9.15 0-3.567 1.283-6.617 3.85-9.15a13.205 13.205 0 011.65-1.4m-28.35 2.7c-1.167 1.6-1.667 3.45-1.5 5.55.2 2.367 1.183 4.3 2.95 5.8 1.8 1.533 3.867 2.2 6.2 2 2.067-.2 3.767-1 5.1-2.4l6.8-6.2c.96-.871 2.152-1.996 3.575-3.375 1.255-1.216 2.996-2.574 5.225-4.075.21-.149.468-.315.775-.5l.175-.1a12.336 12.336 0 016.55-1.85c3.567 0 6.633 1.283 9.2 3.85 2.533 2.533 3.8 5.583 3.8 9.15 0 3.633-1.267 6.7-3.8 9.2-2.567 2.533-5.633 3.8-9.2 3.8-.533 0-1.05-.017-1.55-.05m-30.8-44.65c-1.067 2.133-1.483 4.433-1.25 6.9.3 3 1.433 5.533 3.4 7.6l-4.8 5.75c-.267.267-.383.65-.35 1.15.033.4.217.733.55 1 .333.333.717.5 1.15.5a1.579 1.579 0 001.1-.65l4.75-5.65c2.433 1.567 5.15 2.217 8.15 1.95 2.5-.233 4.617-1.033 6.35-2.4.4-.233.633-.583.7-1.05a1.417 1.417 0 00-.3-1.15c-.233-.367-.583-.567-1.05-.6-.4-.067-.767.033-1.1.3-1.433.967-3.067 1.533-4.9 1.7-2.667.267-5.033-.467-7.1-2.2-2.033-1.7-3.15-3.9-3.35-6.6-.2-1.9.083-3.6.85-5.1.233-.4.283-.8.15-1.2-.167-.4-.433-.7-.8-.9-.4-.233-.8-.283-1.2-.15a2.404 2.404 0 00-.95.8zM35.381 6l-1.4 2.05-1.45 2.1L35.381 6z"/></svg>