<svg xmlns="http://www.w3.org/2000/svg" width="80" height="80"><g fill="none" fill-rule="evenodd"><path fill="#4E22D0" d="M43.673 12.375c.134.16.192.344.175.55a.712.712 0 01-.275.5.73.73 0 01-.549.175 26.07 26.07 0 00-2.276-.1h-.05a31.152 31.152 0 00-3.525.2.73.73 0 01-.55-.175.73.73 0 01-.099-1.05.716.716 0 01.5-.275 31.903 31.903 0 013.674-.2h.05c.825-.001 1.634.032 2.425.1.202.021.37.113.5.275M26.95 16.3a.673.673 0 01-.075-.55.75.75 0 01.375-.45A26.203 26.203 0 0133 12.975a.738.738 0 01.575.075c.18.102.296.253.35.45a.73.73 0 01-.076.575.712.712 0 01-.449.35 24.831 24.831 0 00-5.45 2.175.677.677 0 01-.55.075.757.757 0 01-.45-.375m-2.1 1.35a.764.764 0 01.15.575.695.695 0 01-.3.475 28.352 28.352 0 00-4.2 3.8.745.745 0 01-.525.25.698.698 0 01-.525-.2.745.745 0 01-.25-.525.7.7 0 01.201-.525c.34-.375.682-.734 1.024-1.075A29.465 29.465 0 0123.8 17.5a.774.774 0 01.575-.15.698.698 0 01.475.3m-8.025 7.075a.703.703 0 01.475-.3.747.747 0 01.575.1.696.696 0 01.3.475.74.74 0 01-.1.575 26.705 26.705 0 00-2.725 5.1.745.745 0 01-.399.425.719.719 0 01-.575 0 .727.727 0 01-.425-.975 28.255 28.255 0 012.874-5.4m-3.199 8.8a.683.683 0 01.45.325.753.753 0 01.1.575 28.041 28.041 0 00-.675 5.825.774.774 0 01-.225.55.69.69 0 01-.525.2.72.72 0 01-.526-.225.719.719 0 01-.224-.525 29.96 29.96 0 01.724-6.175.681.681 0 01.325-.45.752.752 0 01.576-.1m-1.425 10.9a.73.73 0 01.175-.55.72.72 0 01.5-.275.735.735 0 01.55.175.716.716 0 01.275.5 25.384 25.384 0 001.3 5.675.724.724 0 01-.026.575.705.705 0 01-.425.375.724.724 0 01-.575-.025.711.711 0 01-.375-.425 27.084 27.084 0 01-1.399-6.025m3.35 8.775a.73.73 0 01.574-.075.714.714 0 01.425.375 27.838 27.838 0 003.325 4.825.672.672 0 01.175.525.766.766 0 01-.274.525.677.677 0 01-.526.175.771.771 0 01-.525-.275 29.013 29.013 0 01-3.474-5.075.741.741 0 01-.076-.575.715.715 0 01.375-.425m5.9 8.85a.747.747 0 01-.25-.525.7.7 0 01.201-.525.741.741 0 01.524-.25.696.696 0 01.525.2 28.255 28.255 0 004.724 3.5c.18.103.296.253.351.45a.737.737 0 01-.075.575.722.722 0 01-.45.35.738.738 0 01-.576-.075 29.864 29.864 0 01-4.974-3.7m8.675 5.55a.744.744 0 01-.425-.4.719.719 0 010-.575.75.75 0 01.4-.425.725.725 0 01.574 0 24.91 24.91 0 005.625 1.5.746.746 0 01.5.3.709.709 0 01.15.55.74.74 0 01-.299.5.715.715 0 01-.55.15 26.485 26.485 0 01-5.975-1.6m13.724 1.025v.05a.69.69 0 01-.199.525.751.751 0 01-.526.25c-.774.033-1.566.05-2.375.05h-.45a.711.711 0 01-.524-.225.714.714 0 01-.226-.525.714.714 0 01.226-.525.713.713 0 01.524-.225h.45c.791 0 1.567-.018 2.325-.05a.692.692 0 01.525.2c.144.132.227.29.25.475"/><path stroke="#4E22D0" stroke-linecap="round" stroke-linejoin="round" stroke-width="1.5" d="M43.848 12.925c6.417.634 11.983 3.308 16.7 8.025 5.466 5.5 8.2 12.1 8.2 19.8 0 7.734-2.734 14.35-8.2 19.85-4.718 4.686-10.284 7.36-16.7 8.025M40.749 52.05l-8.4-8.45"/><path stroke="#4E22D0" stroke-linecap="round" stroke-linejoin="round" stroke-width="1.5" d="M40.749 29.5v22.55l8.45-8.45"/></g></svg>