<svg xmlns="http://www.w3.org/2000/svg" width="80" height="80"><g fill="none" fill-rule="evenodd"><path stroke="#7D77A6" stroke-linecap="round" stroke-linejoin="round" stroke-width="1.5" d="M42.949 10.75V18h7.25M20.75 55.449h-7V10.75h29.199l7.25 7.25v2.4"/><path fill="#7D77A6" d="M45.15 23c.2 0 .383.084.55.25.133.133.2.299.2.5a.86.86 0 01-.2.549.853.853 0 01-.55.201h-6a.672.672 0 01-.5-.201.758.758 0 01-.25-.549.61.61 0 01.25-.5c.133-.166.3-.25.5-.25h6zm3.5.25c.133-.166.3-.25.5-.25h6c.2 0 .383.084.55.25.133.133.2.299.2.5a.86.86 0 01-.2.549.853.853 0 01-.55.201h-6a.672.672 0 01-.5-.201.758.758 0 01-.25-.549.61.61 0 01.25-.5zM35.7 24.299a.853.853 0 01-.55.201H31.5v2.85c0 .234-.068.416-.2.55-.134.133-.318.2-.55.2a.678.678 0 01-.5-.2c-.167-.168-.25-.351-.25-.55v-3.6c0-.201.083-.367.25-.5.132-.166.3-.25.5-.25h4.4c.2 0 .383.084.55.25.133.133.2.299.2.5a.86.86 0 01-.2.549zM67.75 30.5c.132.133.2.299.2.5v4.949a.867.867 0 01-.2.551.862.862 0 01-.55.199.678.678 0 01-.5-.199c-.167-.166-.25-.35-.25-.551V31.75h-6.5a.672.672 0 01-.5-.201c-.167-.166-.25-.35-.25-.549v-8h.75c.2 0 .383.084.55.25l3.7 3.699c.133.135.2.301.2.5a.862.862 0 01-.2.551.862.862 0 01-.55.199.678.678 0 01-.5-.199l-2.45-2.451v4.701h6.8l.25.25zm-1.05 8.949c.133-.166.3-.25.5-.25s.383.084.55.25c.132.135.2.301.2.5v6a.867.867 0 01-.2.551.862.862 0 01-.55.199.678.678 0 01-.5-.199c-.167-.166-.25-.35-.25-.551v-6c0-.199.083-.365.25-.5zM30 31.35c0-.166.083-.334.25-.5.166-.166.333-.25.5-.25.2 0 .382.084.55.25.132.132.2.3.2.5v3.8c0 .233-.068.416-.2.549-.134.135-.318.201-.55.201a.67.67 0 01-.5-.201c-.167-.166-.25-.349-.25-.549v-3.8zm1.5 33.5v2.849h4.2c.2 0 .383.084.55.25.132.135.2.301.2.5a.867.867 0 01-.2.551.862.862 0 01-.55.199h-4.95a.677.677 0 01-.5-.199c-.167-.166-.25-.35-.25-.551V64.85c0-.166.083-.334.25-.5.166-.166.333-.25.5-.25.2 0 .382.084.55.25.132.132.2.3.2.5zm34.95-14.901c0-.199.083-.365.25-.5.133-.166.3-.25.5-.25s.383.084.55.25c.132.135.2.301.2.5v6a.867.867 0 01-.2.551.862.862 0 01-.55.199.678.678 0 01-.5-.199c-.167-.166-.25-.35-.25-.551v-6zm-7.25 18c.133-.166.3-.25.5-.25h6c.2 0 .383.084.55.25.132.135.2.301.2.5a.867.867 0 01-.2.551.862.862 0 01-.55.199h-6a.678.678 0 01-.5-.199c-.167-.166-.25-.35-.25-.551 0-.199.083-.365.25-.5zm-2.75.5a.867.867 0 01-.2.551.862.862 0 01-.55.199h-6a.678.678 0 01-.5-.199c-.167-.166-.25-.35-.25-.551 0-.199.083-.365.25-.5.133-.166.3-.25.5-.25h6c.2 0 .383.084.55.25.132.135.2.301.2.5zm11.3-9c.132.135.2.301.2.5v6a.867.867 0 01-.2.551.862.862 0 01-.55.199.678.678 0 01-.5-.199c-.167-.166-.25-.35-.25-.551v-6c0-.199.083-.365.25-.5.133-.166.3-.25.5-.25s.383.084.55.25zm-28.55 8.5c.133-.166.3-.25.5-.25h6c.2 0 .383.084.55.25.132.135.2.301.2.5a.867.867 0 01-.2.551.862.862 0 01-.55.199h-6a.678.678 0 01-.5-.199c-.167-.166-.25-.35-.25-.551 0-.199.083-.365.25-.5z"/><path stroke="#7D77A6" stroke-linecap="round" stroke-linejoin="round" stroke-width="1.5" d="M27.75 60.049l-7.101 7.05c-.4.468-.9.667-1.5.6-.533.067-1.033-.132-1.5-.6-.466-.466-.7-1-.7-1.6.068-.598.3-1.083.7-1.45l7.05-7.1 3.05 3.1zm6.949-22c-3.366 0-6.217 1.184-8.55 3.55-2.366 2.335-3.55 5.167-3.55 8.5 0 2.567.7 4.85 2.1 6.85.4.6.884 1.168 1.45 1.702.5.533 1.034 1 1.6 1.398 2 1.434 4.317 2.15 6.95 2.15 3.334 0 6.167-1.183 8.5-3.548 2.367-2.334 3.55-5.184 3.55-8.551 0-3.334-1.183-6.166-3.55-8.5-2.333-2.367-5.166-3.551-8.5-3.551zm7.75 12.05c.033-2.1-.732-3.933-2.3-5.5-1.533-1.433-3.366-2.165-5.5-2.198"/></g></svg>