<svg xmlns="http://www.w3.org/2000/svg" width="80" height="80" fill="none"><path stroke="#4E22D0" stroke-linecap="round" stroke-linejoin="round" stroke-width="1.5" d="M38.777 49.405l-3.047 18.74 3.047-18.74zm2.197.051l3.196 18.69-3.196-18.69zm-4.494-1.358c-2.065-.837-4.113-2.327-6.143-4.471-8.69 1.74-13.651 5.377-14.883 10.904-1.031 4.453-1.515 8.022-1.448 10.7 0 .638.116 1.173.35 1.61.1.267.316.601.649 1.004.766.77 1.698 1.155 2.797 1.155h44.297c1.098 0 2.03-.385 2.796-1.155.333-.403.55-.737.65-1.004.3-.437.45-.972.45-1.61.065-2.678-.417-6.247-1.45-10.7-1.298-5.527-6.259-9.163-14.882-10.904-1.997 2.144-4.045 3.634-6.142 4.471-2.364.871-4.712.871-7.042 0z" clip-rule="evenodd"/><path stroke="#4E22D0" stroke-linecap="round" stroke-linejoin="round" stroke-width="1.5" d="M53.31 26.04c1.098.35 1.997 2.38 1.997 3.518 0 1.106-.3 2.043-.9 2.815-.631.77-1.38 1.171-2.246 1.205a17.884 17.884 0 01-2.797 4.974c-2.564 3.116-5.676 4.673-9.339 4.673-3.695 0-6.842-1.557-9.439-4.673a16.05 16.05 0 01-2.696-4.974c-.9-.034-1.631-.436-2.198-1.205-.666-.772-.999-1.709-.999-2.815 0-.87.166-1.624.5-2.261.1-.2.587-.888 1.043-1.256"/><path stroke="#4E22D0" stroke-linecap="round" stroke-linejoin="round" stroke-width="1.5" d="M30.13 15.703c-2.196 2.535-3.448 5.486-3.756 8.855l-.154 1.25v.2c2.366-4.902 4.903-7.804 7.61-8.704 2.47-.667 5.058.334 7.767 3.001 2.88 2.802 6.754 4.703 11.622 5.703l-.05-1.45c-.481-3.468-1.767-6.42-3.858-8.855C46.706 12.568 43.517 11 39.745 11c-3.702 0-6.909 1.568-9.616 4.703z" clip-rule="evenodd"/></svg>