<svg xmlns="http://www.w3.org/2000/svg" width="80" height="80"><path fill="none" stroke="#4E22D0" stroke-linecap="round" stroke-linejoin="round" stroke-width="1.5" d="M21.852 50.404v-3.25m0-17.3l-1.9 2.45m3.7 2.2l-1.8-4.65v17.3l4.899-2.15v-3.9l-1.449-.8v-3.45l2.949 1.75v3.4l-1.5-.9m-4.899 10.75c.633.4 1.183 1.017 1.649 1.85.5.9.75 1.717.75 2.45 0 .767-.25 1.283-.75 1.55-.466.3-1.016.25-1.649-.15-.667-.367-1.267-.983-1.8-1.85-.467-.833-.7-1.633-.7-2.4 0-.733.233-1.266.7-1.6.533-.267 1.133-.217 1.8.15v-1.45l-5-7.9v-3.85c-.367-.233-.718-.6-1.051-1.1-.267-.466-.4-.933-.4-1.4 0-.467.133-.8.4-1 .333-.167.684-.134 1.051.1.399.233.75.6 1.05 1.1.3.5.45.984.45 1.45 0 .466-.15.784-.45.95-.3.167-.651.133-1.05-.1m19-6.6l-27.401-15.7c-.833-.533-1.317-1.283-1.451-2.25m57.654 11.5h7.099m-25.251 23.45l-7.599 4.4m7.599-.35l-7.599 4.4m7.599 3.75l-7.599 4.4m7.599-8.45l-7.599 4.35m30.551-39.15v1.1m-2.5-1.1v1.1m-17.401.65l-13.701 7.9v40.95M49.553 42.03v23.075l-13.701 7.9-24.352-14.1-.299-.2c-2.667-1.767-4.067-3.9-4.201-6.4v-38.2c.034-.6.267-1.117.701-1.55l8.4-4.8.451-.25c1.4-.734 2.916-.666 4.55.2l28.451 16.45V42.03c2.315.198 4.315 1.14 6 2.825 1.834 1.734 2.801 3.9 2.901 6.5v4.55c0 1.3.466 2.417 1.4 3.35.967.933 2.116 1.4 3.45 1.4 1.366 0 2.533-.467 3.5-1.4.9-.9 1.366-1.984 1.4-3.25v-20.9c-1.367 0-2.55-.483-3.55-1.45-.934-.934-1.417-2.05-1.45-3.35v-4.7h1.45v-5.4h7.099v5.4h1.451v4.9c-.1 1.233-.6 2.284-1.5 3.15-.934.967-2.1 1.45-3.5 1.45"/></svg>