<svg xmlns="http://www.w3.org/2000/svg" width="80" height="80"><path fill="none" stroke="#4E22D0" stroke-linecap="round" stroke-linejoin="round" stroke-width="1.5" d="M55 15a6 6 0 00-6-6H16a6 6 0 00-6 6v33a6 6 0 006 6m36.576 8.351v1.099-1.099zm0 6.549V70v-1.1zm0-11.45l-3-3-3.051 3m0-6.05l3.051 3.05 3-3.05m4.849 10.951v1.099-1.099zm0 6.549V70v-1.1zm6.05-11.45l-3-3-3.05 3m0-6.05l3.05 3.05 3-3.05m-8.45-12.1c3.967 0 7.384 1.417 10.25 4.25 2.834 2.734 4.25 6.167 4.25 10.301 0 2.799-.666 5.283-2 7.449a15.14 15.14 0 01-1.35 1.85l-1.65 1.701c-1.1.966-2.25 1.716-3.449 2.25v2.549c0 .634-.234 1.183-.701 1.65-.466.467-1.016.7-1.65.7h-7.399c-.634 0-1.184-.233-1.651-.7-.467-.467-.7-1.016-.7-1.65v-2.549a12.577 12.577 0 01-3.45-2.25l-.8-.701-.899-1c-.568-.7-1-1.317-1.301-1.85-1.366-2.233-2.05-4.717-2.05-7.449 0-4.067 1.417-7.5 4.25-10.301 2.833-2.833 6.267-4.25 10.3-4.25zM37.72 63H25c-3.31 0-6-2.69-6-6V24c0-3.31 2.69-6 6-6h33c3.31 0 6 2.69 6 6v12.72"/></svg>