<svg xmlns="http://www.w3.org/2000/svg" width="80" height="80"><path fill="none" stroke="#4E22D0" stroke-linecap="round" stroke-linejoin="round" stroke-width="1.5" d="M20.649 70.85c-2.733-.434-5.133-1.684-7.2-3.75-2.6-2.566-3.9-5.7-3.9-9.4 0-3.267 1.034-6.1 3.1-8.5m14 11.25l-.5.5c-.899.933-2 1.4-3.3 1.4-1.266 0-2.349-.467-3.25-1.4-.3-.3-.55-.617-.75-.95m-.05-.15l-.2-.4c.067.167.151.35.25.55l-.05-.15zm4.25-6.8c1.201.033 2.234.5 3.1 1.4.9.9 1.351 1.983 1.351 3.25 0 .9-.217 1.716-.651 2.45a1.202 1.202 0 00-.2.3l-6 10.4c.7.1 1.434.15 2.2.15 3.667 0 6.817-1.3 9.45-3.9 2.6-2.566 3.9-5.7 3.9-9.4 0-1.666-.267-3.217-.8-4.65m18.15-3.45c-3.299 1.066-6.2 3.1-8.7 6.1.267-2.967 1.467-5.517 3.6-7.65 2.433-2.467 5.384-3.7 8.85-3.7 3.067 0 5.734.983 8 2.95.267.234.534.484.8.75.333.267.633.567.901.9.533.667.982 1.35 1.349 2.05.967 1.767 1.45 3.717 1.45 5.85a12.14 12.14 0 01-.35 2.95h-17.25c.134.633.35 1.267.65 1.9.967 1.9 2.6 3.15 4.901 3.75.132.033.266.05.399.05 2.5.567 5 .2 7.5-1.1.5-.234.95-.484 1.351-.75v5.5c-3.601 1.733-7.217 2.233-10.851 1.5-3.3-.633-5.7-2.133-7.2-4.5h-.05v-.05c-.167-.233-.3-.45-.399-.65-1.467-2.8-1.734-5.416-.801-7.85.933-2.467 2.7-4.35 5.301-5.65a6.923 6.923 0 00-.701 3.05H62c0-1.466-.368-2.733-1.101-3.8-1.066-1.467-2.633-2.183-4.7-2.15a8.56 8.56 0 00-2.65.55zm15.9-32.45c-.666-1.7-1.583-3.15-2.75-4.35A11.91 11.91 0 0062.5 10c-1.601-.667-3.334-1-5.201-1-1.9 0-3.65.333-5.25 1a12.452 12.452 0 00-4.1 2.8 11.973 11.973 0 00-2.699 4.35c-.667 1.733-1 3.617-1 5.65 0 1.833.316 3.583.949 5.25.634 1.7 1.533 3.2 2.7 4.5A12.376 12.376 0 0052 35.65c1.632.766 3.399 1.15 5.299 1.15 1.9 0 3.683-.384 5.35-1.15a12.916 12.916 0 004.15-3.1c1.167-1.3 2.05-2.8 2.65-4.5.634-1.667.95-3.417.95-5.25 0-2.033-.316-3.917-.95-5.65zM62 26.2c-.101 1.433-.301 2.65-.601 3.65-.733 2.566-2.1 3.85-4.1 3.85-2 0-3.35-1.284-4.049-3.85-.268-1-.451-2.217-.551-3.65-.067-.933-.1-2.15-.1-3.65 0-3.3.25-5.717.75-7.25.734-2.2 2.05-3.3 3.95-3.3 1.9 0 3.217 1.1 3.951 3.3.566 1.6.849 4.017.849 7.25 0 1.467-.033 2.683-.099 3.65zm-49.351 23l5.95 10.25a4.327 4.327 0 01-.349-1.75c0-1.267.449-2.35 1.349-3.25.901-.933 1.984-1.4 3.25-1.4h12.55c-.633-1.766-1.667-3.367-3.1-4.8-2.633-2.567-5.783-3.85-9.45-3.85-3.633 0-6.766 1.283-9.4 3.85-.267.3-.533.617-.8.95zm10.25-40.15c1.934 0 3.717.333 5.351 1l-5.351-1zm5.351 1c1.533 1.6 2.599 3.55 3.199 5.85.767 2.867.584 5.4-.55 7.6-1.167 2.267-2.933 3.55-5.3 3.85-2.099.267-4.133-.283-6.099-1.65 1.099-.1 2.033-.5 2.799-1.2.867-.6 1.9-.834 3.1-.7-.733-1.5-1.899-1.967-3.5-1.4-.2.067-.417.134-.649.2-2 .467-3.134.083-3.401-1.15-.133-.8.184-1.433.95-1.9 1.867-1.033 3.034-2.384 3.5-4.05-2.833-.133-3.383-1.617-1.65-4.45-1.6.133-2.85.917-3.75 2.35-.933-.3-1.967-.3-3.1 0a4.809 4.809 0 01-.6-.5c-.6-.6-.949-1.45-1.05-2.55-1.3 1.333-1.767 3.217-1.399 5.65C9.583 18.067 9 20.383 9 22.95c0 3.834 1.349 7.1 4.049 9.8 2.701 2.7 5.967 4.05 9.8 4.05 3.833 0 7.1-1.35 9.8-4.05 2.733-2.7 4.101-5.966 4.101-9.8 0-3.867-1.368-7.15-4.101-9.85-1.333-1.367-2.8-2.383-4.399-3.05z"/></svg>