<svg xmlns="http://www.w3.org/2000/svg" width="80" height="80"><path fill="none" stroke="#4E22D0" stroke-linecap="round" stroke-linejoin="round" stroke-width="1.5" d="M66.75 18H13h53.75zM13 52.601h36.851H13zm48.3 0h5.45-5.45zM76.7 62.8l-7.2-3.1H10.05L3 62.8M4.649 66H75.2c.6 0 1.1-.233 1.5-.7v-2.5H47.351l-1 1h-13l-1-1H3v2.5c.534.467 1.083.7 1.649.7zM66.75 14H13c-1.767 0-2.649.884-2.649 2.65V54c0 1.733.882 2.601 2.649 2.601h53.75c1.733 0 2.601-.868 2.601-2.601V16.65c0-1.766-.868-2.65-2.601-2.65zM49.7 42.351a9.818 9.818 0 01-1.45 1.699c-.5.534-1.033 1-1.601 1.4l3.051-3.099zM27.649 35.5c0-3.333 1.184-6.166 3.551-8.5 2.334-2.366 5.166-3.55 8.5-3.55 3.367 0 6.217 1.184 8.55 3.55 2.366 2.334 3.55 5.167 3.55 8.5 0 2.566-.699 4.851-2.1 6.851l7.55 7.599c.399.366.634.85.7 1.45 0 .6-.233 1.133-.7 1.6-.5.5-1 .733-1.5.7-.566.033-1.066-.2-1.5-.7l-7.601-7.55c-2 1.434-4.316 2.151-6.949 2.151-3.334 0-6.166-1.184-8.5-3.551-2.367-2.333-3.551-5.183-3.551-8.55zm4.301 0c-.033-2.1.734-3.934 2.3-5.5 1.534-1.434 3.366-2.166 5.5-2.2"/></svg>