<svg xmlns="http://www.w3.org/2000/svg" width="80" height="80" fill="none"><path stroke="#4E22D0" stroke-linecap="round" stroke-linejoin="round" stroke-width="1.5" d="M60.28 60c2.221 0 4.022 1.791 4.022 4s-1.8 4-4.022 4H20.065c2.22 0 4.021-1.791 4.021-4s-1.8-4-4.021-4H60.28zm10.054-38a5.635 5.635 0 01.175 7.818l-.175.182-16.086 16-6.032-2-2.011-6L58.27 26l2.01 2v-4l2.011-2a5.71 5.71 0 018.043 0z" clip-rule="evenodd"/><path stroke="#4E22D0" stroke-linecap="round" stroke-linejoin="round" stroke-width="1.5" d="M12.022 20C9.8 20 8 18.209 8 16s1.8-4 4.022-4h44.237c2.22 0 4.021 1.791 4.021 4v2"/><path stroke="#4E22D0" stroke-linecap="round" stroke-linejoin="round" stroke-width="1.5" d="M16.043 16a4.007 4.007 0 00-3.023-3.876v0M60.28 68H20.065c-2.221 0-4.022-1.791-4.022-4V16M60.28 46v14M44.194 48L58.27 34M38.162 48H24.086m16.087-10H24.086m22.119-10H24.086"/></svg>