<svg xmlns="http://www.w3.org/2000/svg" width="80" height="80"><path fill="none" stroke="#4E22D0" stroke-linecap="round" stroke-linejoin="round" stroke-width="1.5" d="M68.6 52.8c0 4.566-1.6 8.417-4.8 11.551-3.134 3.232-6.983 4.849-11.55 4.849-4.5 0-8.367-1.617-11.6-4.849-3.167-3.167-4.75-7.018-4.75-11.551 0-4.467 1.583-8.333 4.75-11.6 3.266-3.167 7.134-4.75 11.6-4.75 4.534 0 8.383 1.583 11.55 4.75 3.2 3.267 4.8 7.133 4.8 11.6zm-13.1.051c0 .866-.317 1.616-.95 2.25-.667.666-1.433 1-2.3 1-.867 0-1.633-.334-2.3-1-.633-.634-.95-1.384-.95-2.25 0-.901.317-1.667.95-2.301.667-.666 1.433-1 2.3-1 .867 0 1.633.334 2.3 1 .633.634.95 1.4.95 2.301zM14.65 23.3l7.5 3.95V68.8M20.5 22.5L19.25 19l-5.05-2.349m7.95 10.599l4.3 5.95 29.8-3.75M45.4 19.5l-24.9 3 1.65 4.75 34.1-4.3L45.4 19.5zm-8.1 45.8l-15.15 3.5-7.5-5.35V23.3L12 15.651l2.2 1-.6-2.55L44.15 11l1.25 8.5 4.25-7.849 11.1 2.7-4.5 8.599 6.65 5.651-6.65.849v4.401"/></svg>