<svg xmlns="http://www.w3.org/2000/svg" width="80" height="80"><path fill="none" stroke="#4E22D0" stroke-linecap="round" stroke-linejoin="round" stroke-width="1.5" d="M15 17.977v34.777-34.777zm34.278 41.247v-4.542c-.704 0-1.326-.269-1.866-.809a2.457 2.457 0 01-.746-1.803c0-.705.249-1.327.746-1.866.54-.498 1.162-.748 1.866-.748.705 0 1.306.25 1.805.748.539.539.809 1.161.809 1.866 0 .705-.27 1.306-.809 1.803-.499.54-1.1.809-1.805.809v4.542zm-25.569-1.431h5.6-5.6zm5.6-5.039H15v7.466c0 1.617.788 2.446 2.364 2.488h11.945M42.373 21.15v-3.173 3.173zm-3.11 16.735v-3.919c0-2.074.559-3.898 1.679-5.474.373-.498.788-.976 1.244-1.432l.187-.187a9.307 9.307 0 011.99-1.43c1.452-.829 3.091-1.244 4.915-1.244 2.779 0 5.122.954 7.03 2.861 1.991 1.866 2.986 4.169 2.986 6.906v3.919M17.488 13C15.829 13 15 13.83 15 15.489v2.488h27.373v-2.488c0-1.659-.83-2.489-2.488-2.489H17.488zm47.966 31.666c0-2.032-1.016-3.048-3.049-3.048H36.214c-2.074 0-3.11 1.016-3.11 3.048V63.89c0 2.073 1.036 3.11 3.11 3.11h26.191c2.033 0 3.049-1.037 3.049-3.11V44.666z"/></svg>