<svg xmlns="http://www.w3.org/2000/svg" width="80" height="80"><g fill="none" fill-rule="evenodd" stroke="#4E22D0" stroke-linecap="round" stroke-linejoin="round" stroke-width="1.5"><path d="M18.6 16.523l-5.85 10.05 5.85-10.05zm33.8 29.149l-25.048 6.7 25.048-6.7zm-1.95-7.15l-25.05 6.7 25.05-6.7zm-1.9-7.2l-25.05 6.7 25.05-6.7zm-1.9-7.15l-25.048 6.7 25.048-6.7zm-26.698-2.55c.466 1.866-.25 3.067-2.15 3.6l-5.051 1.35 10.45 39c.567 1.867 1.8 2.584 3.7 2.15l33.598-9c1.8-.566 2.483-1.8 2.05-3.7l-11.748-44c-.568-1.866-1.784-2.582-3.651-2.15L18.6 16.523l1.35 5.1z"/><path d="M29.8 71.723l35.598-9.551c2.5-.765 3.45-2.433 2.85-5l-12.3-46"/></g></svg>