<svg xmlns="http://www.w3.org/2000/svg" width="80" height="80"><path fill="none" stroke="#4E22D0" stroke-linecap="round" stroke-linejoin="round" stroke-width="1.5" d="M42.05 24.9v15.45l8.85 4.8M22.65 31.5c1.033-2.4 2.55-4.617 4.55-6.65 4.2-4.133 9.233-6.2 15.1-6.2 5.934 0 10.983 2.067 15.15 6.2 4.167 4.2 6.25 9.25 6.25 15.15s-2.083 10.933-6.25 15.1c-4.167 4.2-9.216 6.3-15.15 6.3-5.867 0-10.9-2.1-15.1-6.3-2.866-2.867-4.733-6.133-5.6-9.8m-6.4 1.1l8.15-8.2M7 38.2l8.2 8.2c-.366-1.967-.55-4.1-.55-6.4 0-2.233.267-4.5.8-6.8 1.067-4.867 3.5-9.183 7.3-12.95 5.433-5.333 11.867-8.083 19.3-8.25h.4c7.667 0 14.25 2.75 19.75 8.25 5.467 5.433 8.2 12.017 8.2 19.75v.35c-.066 7.633-2.8 14.167-8.2 19.6C56.7 65.317 50.117 68 42.45 68c-7.6 0-14.167-2.683-19.7-8.05-.9-.9-1.7-1.817-2.4-2.75"/></svg>