<svg xmlns="http://www.w3.org/2000/svg" width="80" height="80"><path fill="none" stroke="#4E22D0" stroke-linecap="round" stroke-linejoin="round" stroke-width="1.5" d="M3 63.823h74l-7.133-3.079H9.984L3 63.824v2.481c.528.464 1.073.695 1.635.695h70.88c.593 0 1.089-.231 1.485-.695v-2.482H3zm36.851-30.33v3.625-3.624zm-5.052 0c.033-.662.28-1.24.743-1.737a2.52 2.52 0 011.783-.695c.694 0 1.288.232 1.783.695.463.497.71 1.075.743 1.738.033-.663.28-1.241.743-1.738a2.522 2.522 0 011.784-.695c.693 0 1.287.232 1.783.695.462.497.71 1.075.743 1.738v2.333m-10.105 1.291V23.12a2.666 2.666 0 00-.743-1.737 2.427 2.427 0 00-1.783-.745c-.693 0-1.288.248-1.783.745a2.912 2.912 0 00-.793 1.737v18.218l-5.101-5.164-.1-.098c-.527-.464-1.106-.694-1.733-.694-.693 0-1.288.248-1.783.745-.495.529-.743 1.123-.743 1.785 0 .663.23 1.24.693 1.737l.1.1 10.55 10.623.198.198c2.08 1.887 4.524 2.83 7.33 2.83 3.039 0 5.597-1.075 7.678-3.227 1.981-1.952 3.054-4.284 3.22-6.999v-1.49l-.05-5.708v-.15c0-.693-.248-1.273-.743-1.737a2.43 2.43 0 00-1.783-.744c-.694 0-1.288.248-1.783.744-.463.464-.71 1.044-.743 1.738v1.291m9.064-1.39l3.616 1.19 1.188 3.873.991-3.873 3.665-1.19-3.665-1.49-.99-3.872-1.19 3.872-3.615 1.49zm1.238-12.957l6.241-1.986-6.24-2.234L53.174 12l-1.931 6.551-6.241 2.234 6.24 1.986 1.932 6.553 2.031-6.553zm-7.875-6.403H12.906c-1.75 0-2.625.877-2.625 2.632v36.087c0 1.721.875 2.58 2.625 2.58h54.237c1.717 0 2.576-.859 2.576-2.58V19c0-1.755-.859-2.632-2.576-2.632h-8.52"/></svg>