<svg xmlns="http://www.w3.org/2000/svg" width="80" height="80"><path fill="none" stroke="#4E22D0" stroke-linecap="round" stroke-linejoin="round" stroke-width="1.5" d="M67.203 18H12.45h54.753zM12.45 53.6h54.753H12.45zM3 63.8h74.704l-7.201-3.1H10.051L3 63.8v2.5c.534.467 1.084.7 1.65.7h71.554c.601 0 1.101-.233 1.5-.7v-2.5H3zm45.352-31.1h-5.45v-5.5c0-.933-.483-1.4-1.45-1.4h-3.3c-.967 0-1.45.467-1.45 1.4v5.5h-5.451c-.966 0-1.449.484-1.449 1.45v3.3c0 .967.483 1.45 1.449 1.45h5.451v5.45c0 .966.483 1.45 1.45 1.45h3.3c.967 0 1.45-.484 1.45-1.45V38.9h5.45c.967 0 1.451-.483 1.451-1.45v-3.3c0-.966-.484-1.45-1.451-1.45zM67.203 14H12.45c-1.767 0-2.649.884-2.649 2.65V55c0 1.733.882 2.6 2.649 2.6h54.753c1.733 0 2.601-.867 2.601-2.6V16.65c0-1.766-.868-2.65-2.601-2.65z"/></svg>