<svg xmlns="http://www.w3.org/2000/svg" width="80" height="80"><g fill="none" fill-rule="evenodd" stroke="#7D77A6" stroke-linecap="round" stroke-linejoin="round" stroke-width="1.5"><path d="M71.8 43.05L68.9 65.7c-.3 2.466-1.567 4.332-3.8 5.6-2.267 1.267-5.033 1.9-8.3 1.9-3.233 0-6.017-.633-8.35-1.9-2.3-1.267-3.567-3.116-3.8-5.55l-2.85-22.7m9.3-5.65v-.85c0-1.834.967-2.75 2.9-2.75h5.75c1.9 0 2.85.916 2.85 2.75v.85m2.8-2.3c.667.133 1.316.3 1.95.5.866.266 1.616.55 2.25.85 1.433.7 2.15 1.483 2.15 2.35 0 .667-.417 1.3-1.25 1.9-.733.466-1.784.916-3.15 1.35-2.934.867-6.467 1.3-10.6 1.3-4.134 0-7.667-.434-10.6-1.3-1.333-.4-2.35-.833-3.05-1.3-.9-.6-1.35-1.25-1.35-1.95 0-.867.733-1.65 2.2-2.35.6-.3 1.333-.584 2.2-.85.7-.2 1.417-.384 2.15-.55m1.8 29.7L48.8 49.5m14.65 15.25L64.8 49.5m-8 17.1V50.25"/><path d="M54.15 31.15V13.2H11.4v25.9m27.85 8.95H11.4v-3.7l6.95-6.95 6.95 6.95L42.4 27.3l5.05 5.05M29.5 26.3c0 1.633-.583 3.034-1.75 4.2-1.166 1.167-2.567 1.75-4.2 1.75s-3.033-.583-4.2-1.75c-1.167-1.166-1.75-2.567-1.75-4.2s.583-3.034 1.75-4.2c1.167-1.167 2.567-1.75 4.2-1.75s3.034.583 4.2 1.75c1.167 1.166 1.75 2.567 1.75 4.2zm29.25 4.85V13.2c0-3.633-1.833-5.45-5.5-5.45H12.2c-3.633 0-5.45 1.817-5.45 5.45v41.05c0 3.667 1.817 5.5 5.45 5.5h28.55"/></g></svg>