<svg xmlns="http://www.w3.org/2000/svg" width="80" height="80"><path fill="none" stroke="#4E22D0" stroke-linecap="round" stroke-linejoin="round" stroke-width="1.5" d="M4 15v38-38zm10.5 8.25h24m-24-4.35h34m-34 8.65H44M53.85 54l2.9 2.8.75.8.75.75 7.949-7.95M4 53.3c.1 3.134 1.767 4.7 5 4.7h32.35m-12.5-7.35h5-5zm-10.3 0h5-5zM60 20.8V15c0-3.334-1.667-5-5-5H9c-3.233 0-4.9 1.566-5 4.7m46.399 26.8c2.767-2.1 5.967-3.15 9.601-3.15 3.633 0 6.833 1.066 9.6 3.2m-55.05 9.1h4v-8.1h5v8.1h5.3V35.2h5v15.45h5.349V38.9h5v4.3m6.2-10.05c.068-2.6 1-4.8 2.8-6.6 1.867-1.833 4.134-2.75 6.801-2.75 2.633 0 4.883.917 6.75 2.75 1.899 1.866 2.85 4.134 2.85 6.8v8.2c.566.433 1.117.917 1.65 1.45C74.416 46.133 76 49.916 76 54.35c0 4.4-1.584 8.167-4.75 11.3-3.101 3.133-6.851 4.7-11.25 4.7-4.434 0-8.217-1.567-11.351-4.7C45.55 62.517 44 58.75 44 54.35c0-4.434 1.55-8.217 4.649-11.35a14.725 14.725 0 011.75-1.5v-8.35z"/></svg>