<svg xmlns="http://www.w3.org/2000/svg" width="80" height="80"><path fill="none" stroke="#4E22D0" stroke-linecap="round" stroke-linejoin="round" stroke-width="1.5" d="M19.001 62.802l7.05-3.1h16.09m14.02 0h15.34l7.2 3.1m-40.12-6.2h-10.13c-1.47 0-2.32-.6-2.55-1.8-.07-.229-.1-.5-.1-.8V25.653c0-1.771.88-2.651 2.65-2.651h39.75c1.73 0 2.6.88 2.6 2.651v28.349c0 1.73-.87 2.6-2.6 2.6h-8.51M19 65.301c.533.467 1.084.699 1.65.699H77.2c.6 0 1.1-.232 1.5-.699v-2.5H19v2.5zm-17-10.5v2.5c.533.467 1.084.699 1.65.699h19m0-6.299H9.049L2 54.801h20.65m31.15-35.1v-2.05c0-1.767-.867-2.651-2.6-2.651H11.45c-1.767 0-2.651.884-2.651 2.651V46c0 1.735.884 2.601 2.651 2.601h11.2m22.311-4.533l2.155 2.082 1.115 1.151 5.909-5.908m-16.314-8.399l9.81-2.824c.719-.223 1.214-.335 1.487-.335.248 0 .755.112 1.524.335l9.811 2.824c.594.198.99.384 1.188.557.249.224.372.595.372 1.115v8.919l-.074 1.189c-.397 3.072-1.809 5.933-4.237 8.585l-.334.334c-.397.396-.806.794-1.226 1.189-1.165 1.04-2.503 2.02-4.014 2.936a9.786 9.786 0 01-.854.557l-1.784.967-.335.223h-.111l-.297-.223a47.202 47.202 0 00-1.079-.596c-2.13-1.213-3.963-2.502-5.499-3.864a4.98 4.98 0 01-.818-.78 1.603 1.603 0 00-.223-.187 6.55 6.55 0 00-.371-.408 4.221 4.221 0 01-.298-.335c-1.511-1.659-2.601-3.418-3.27-5.276a8.358 8.358 0 01-.706-2.565 10.612 10.612 0 01-.149-1.746v-8.919c0-.52.1-.891.298-1.115.247-.173.643-.359 1.189-.557z"/></svg>