<svg xmlns="http://www.w3.org/2000/svg" width="80" height="80"><path fill="none" stroke="#4E22D0" stroke-linecap="round" stroke-linejoin="round" stroke-width="1.5" d="M59.551 34.05l6.199-10.649 12.451 7.149L72 41.3l-12.449-7.25zm12.9-2.5l-2.05 3.55 2.05-3.55zm-14.5 1.55c-1.433-.833-2.566-.533-3.4.9l-13.9 24.151c-.799 1.399-.483 2.516.951 3.349l15.699 9.1c1.4.766 2.518.467 3.35-.9l13.951-24.15c.832-1.467.533-2.583-.901-3.35L72 41.3l-12.449-7.25-1.6-.95zm7.1-1.1l2.051-3.55L65.051 32zm-30.9-.75c1.033 0 1.933.384 2.701 1.151h.049c.767.766 1.15 1.682 1.15 2.75 0 1.066-.383 2-1.15 2.799h-.049c-.768.734-1.668 1.1-2.701 1.1-1.133 0-2.067-.366-2.799-1.1-.768-.799-1.151-1.733-1.151-2.799 0-1.068.383-1.984 1.151-2.75.732-.767 1.666-1.151 2.799-1.151zm0-5.099c.933 0 1.834.132 2.701.399 1.332.434 2.549 1.184 3.648 2.25 1.768 1.767 2.651 3.884 2.651 6.351 0 2.465-.883 4.599-2.651 6.399-1.099 1.066-2.316 1.816-3.648 2.25-.867.233-1.768.351-2.701.351-2.467 0-4.6-.868-6.401-2.601-1.732-1.8-2.599-3.934-2.599-6.399 0-2.467.867-4.584 2.599-6.351 1.801-1.767 3.934-2.649 6.401-2.649zm3.349 35a3.39 3.39 0 00-.549.049h-.099c-.901.067-1.801.1-2.701.1-7.233 0-13.401-2.566-18.5-7.7C10.551 48.533 8 42.384 8 35.151c0-7.234 2.551-13.401 7.651-18.5C20.75 11.55 26.918 9 34.151 9c.9 0 1.8.033 2.701.1 6.066.567 11.316 3.084 15.75 7.551 3.431 3.432 5.732 7.366 6.898 11.799M12.951 30.7c.133-.633.284-1.233.45-1.799 1-3.368 2.834-6.384 5.5-9.051 2.767-2.8 5.933-4.666 9.5-5.6.566-.167 1.168-.3 1.8-.4"/></svg>