<svg xmlns="http://www.w3.org/2000/svg" width="80" height="80"><path fill="none" stroke="#4E22D0" stroke-linecap="round" stroke-linejoin="round" stroke-width="1.5" d="M39.279 53.956h11.629-11.629zM29.091 41.247l6.355 6.355-6.355 6.354M16 19.699c0-1.3.433-2.133 1.299-2.5.234-.133.75-.199 1.551-.199H61.4c.633 0 1.084.066 1.35.199.834.367 1.25 1.2 1.25 2.5m-52 12.2V61.5a2 2 0 002 2h52a2 2 0 002-2V31.899H12zm50.4-5.2v1-1zm-5.199 0v1-1zM12 25.299v6.6h56v-6.6c0-1.299-.416-2.133-1.25-2.5-.332-.133-.784-.199-1.35-.199H14.85c-.801 0-1.317.066-1.551.199C12.433 23.166 12 24 12 25.299z"/></svg>