<svg width="80" height="80" fill="none" xmlns="http://www.w3.org/2000/svg"><path d="M37.45 19.7L11 24.65 69 13.7l-26.5 5.05m-5.05.95v-5.1c0-.633.233-1.217.7-1.75.533-.467 1.133-.7 1.8-.7H40c.7 0 1.283.233 1.75.7.5.5.75 1.083.75 1.75v4.15m-5.05.95l2.55-.5 2.5-.45m-5.05.95l5.05-.95M12.95 40.3c-.2-.733-.3-1.55-.3-2.45 0-2.467.883-4.583 2.65-6.35 1.767-1.767 3.883-2.65 6.35-2.65 2.433 0 4.55.883 6.35 2.65 1.767 1.767 2.65 3.883 2.65 6.35 0 .9-.1 1.717-.3 2.45m-8.95-2.55v4m0-7.75v1.15M56.9 66.2H19.95v-2.5c0-.633.25-1.25.75-1.85.5-.467 1.117-.7 1.85-.7h6.2m0 0v-2.7c0-.633.233-1.217.7-1.75.5-.467 1.117-.7 1.85-.7h6.15m-8.7 5.15h22.5M37.45 56V22.75m0 33.25h5.05m0 0V21.8m0 34.2h6.2c.733 0 1.333.233 1.8.7.5.5.75 1.1.75 1.8v2.65m16.4-25.3c-.4.767-1.017 1.567-1.85 2.4-2.067 2.067-4.567 3.1-7.5 3.1-2.9 0-5.417-1.033-7.55-3.1a10.28 10.28 0 01-1.8-2.4m18.7 0L58.3 18.8l-9.35 17.05m18.7 0h-18.7m2.3 25.3h6.15c.733 0 1.333.233 1.8.7.5.567.75 1.183.75 1.85v2.5M29.2 45.45c-2.1 2.1-4.617 3.15-7.55 3.15s-5.433-1.05-7.5-3.15c-.8-.8-1.417-1.583-1.85-2.35H31a10.767 10.767 0 01-1.8 2.35z" stroke="#4E22D0" stroke-width="1.5" stroke-linecap="round" stroke-linejoin="round"/></svg>