<svg xmlns="http://www.w3.org/2000/svg" width="80" height="80"><path fill="none" stroke="#4E22D0" stroke-linecap="round" stroke-linejoin="round" stroke-width="1.5" d="M65.95 16.95C65.617 14.317 63.967 13 61 13H19c-2.967 0-4.617 1.317-4.95 3.95M10 31v31c0 3.333 1.666 5 5 5h50c3.333 0 5-1.667 5-5V31H10zm60-6c0-3.333-1.667-5-5-5H15c-3.334 0-5 1.667-5 5v6h60v-6zm-53.55-.05v1.55m4.5-1.55v1.55m4.45-1.55v1.55m9.1 15.2v14.75V41.7zm-8.65-2.25v17-17zm4.35 5v12-12zm-8.65 5v7-7zm35.2-8.9l-5.05 3.5-1.6-5.95c1.633-.3 3.2-.017 4.7.85a7.071 7.071 0 011.95 1.6zM42.4 43.899c1.267-2.166 3.083-3.566 5.45-4.199l2.35 8.65 7.4-5.1a8.872 8.872 0 011.25 2.8c.667 2.4.367 4.667-.9 6.8-1.233 2.133-3.05 3.534-5.45 4.2-2.367.633-4.633.334-6.8-.901-2.133-1.232-3.533-3.049-4.2-5.449-.633-2.4-.333-4.667.9-6.801z"/></svg>