<svg xmlns="http://www.w3.org/2000/svg" width="80" height="80"><path fill="none" stroke="#4E22D0" stroke-linecap="round" stroke-linejoin="round" stroke-width="1.5" d="M59.651 63.3V44.949 63.3zm5.9 0V44.949 63.3zm-11.799 0V44.949 63.3zM48.05 44.949V63.3c0 3.267 1.634 4.899 4.902 4.899h13.399c3.3 0 4.95-1.632 4.95-4.899V44.949H48.05zM53.901 29.5V15.65c0-3.1-1.533-4.65-4.601-4.65H10.65C7.549 11 6 12.55 6 15.65v38.6c0 3.067 1.549 4.6 4.65 4.6h34.2m9.051-23.401c.067-1.833 1.034-2.75 2.9-2.75h5.75c1.901 0 2.85.967 2.85 2.901l-11.5-.151zm-7.65 4.601c0 .366.149.7.45 1 .266.267.599.399 1 .399h23.95c.367 0 .7-.132 1-.399.267-.3.4-.634.4-1 0-.4-.133-.733-.4-1-.3-.3-.633-.45-1-.45h-23.95c-.401 0-.734.15-1 .45-.301.267-.45.6-.45 1zm-18.8 2.5a6.131 6.131 0 01.949-.95l-.949.95zm-.5-17.351l-7.25-7.25h22.7V40.6L35.9 34.15l-7.5 7.45-.949.95a.757.757 0 00-.151.2c-.766 1.033-1.15 2.233-1.15 3.6 0 1.666.584 3.083 1.75 4.25a5.492 5.492 0 002.151 1.4h-.201c-3.399 0-6.283-1.2-8.649-3.6-2.434-2.4-3.651-5.3-3.651-8.701 0-3.233 1.1-6.016 3.3-8.349a.33.33 0 01.151-.151l5.95-6z"/></svg>