<svg xmlns="http://www.w3.org/2000/svg" width="80" height="80"><g fill="none" fill-rule="evenodd"><path fill="#4E22D0" d="M71.65 14.2a.856.856 0 00-.2.55.675.675 0 00.2.5.76.76 0 00.55.25h.05c2.223-.003 3.673.763 4.35 2.3a.802.802 0 00.4.45c.2.08.383.08.55 0a.744.744 0 00.45-.4.78.78 0 000-.6c-.856-2.163-2.773-3.247-5.75-3.25h-.05a.856.856 0 00-.55.2m-2.95 0a.675.675 0 00-.5-.2h-6a.856.856 0 00-.55.2.856.856 0 00-.2.55.675.675 0 00.2.5.76.76 0 00.55.25h6a.612.612 0 00.5-.25.612.612 0 00.25-.5.76.76 0 00-.25-.55m-2.5 6a.675.675 0 00.2.5.76.76 0 00.55.25h6a.612.612 0 00.5-.25.612.612 0 00.25-.5.76.76 0 00-.25-.55.675.675 0 00-.5-.2h-6a.856.856 0 00-.55.2.856.856 0 00-.2.55m11.55.45a.865.865 0 00-.55.2.865.865 0 00-.2.55v6a.679.679 0 00.2.5.762.762 0 00.55.25.61.61 0 00.5-.25.61.61 0 00.25-.5v-6a.759.759 0 00-.25-.55.677.677 0 00-.5-.2m.75 10.75a.759.759 0 00-.25-.55.677.677 0 00-.5-.2.865.865 0 00-.55.2.865.865 0 00-.2.55v6a.679.679 0 00.2.5.762.762 0 00.55.25.61.61 0 00.5-.25.61.61 0 00.25-.5v-6m-5.9-8a.856.856 0 00-.2.55v6a.675.675 0 00.2.5.76.76 0 00.55.25.612.612 0 00.5-.25.612.612 0 00.25-.5v-6a.76.76 0 00-.25-.55.675.675 0 00-.5-.2.856.856 0 00-.55.2m.55 9.8a.856.856 0 00-.55.2.856.856 0 00-.2.55v6a.675.675 0 00.2.5.76.76 0 00.55.25.612.612 0 00.5-.25.612.612 0 00.25-.5v-6a.76.76 0 00-.25-.55.675.675 0 00-.5-.2m-5.1 7.75a.612.612 0 00.25-.5.76.76 0 00-.25-.55l-4.25-4.25a.675.675 0 00-.5-.2.858.858 0 00-.55.2.85.85 0 00-.2.55c0 .205.069.372.2.5L67 40.95a.76.76 0 00.55.25.612.612 0 00.5-.25m2.8 1.75a.675.675 0 00-.5-.2.86.86 0 00-.55.2.861.861 0 00-.2.55.679.679 0 00.2.5l2.8 2.8c.16.165.345.249.55.25a.61.61 0 00.5-.25.61.61 0 00.25-.5v-2.1a.76.76 0 00-.25-.55.675.675 0 00-.5-.2.856.856 0 00-.55.2.856.856 0 00-.2.55v.3l-1.55-1.55m6.9-2.05a.865.865 0 00-.55.2.865.865 0 00-.2.55v6a.679.679 0 00.2.5.762.762 0 00.55.25.61.61 0 00.5-.25.61.61 0 00.25-.5v-6a.759.759 0 00-.25-.55.677.677 0 00-.5-.2m0 10a.865.865 0 00-.55.2.865.865 0 00-.2.55v6a.679.679 0 00.2.5.762.762 0 00.55.25.61.61 0 00.5-.25.61.61 0 00.25-.5v-6a.759.759 0 00-.25-.55.677.677 0 00-.5-.2m-12.05 4.9a.759.759 0 00.55.25h6a.608.608 0 00.5-.25.608.608 0 00.25-.5.755.755 0 00-.25-.55.677.677 0 00-.5-.2h-6a.865.865 0 00-.55.2.861.861 0 00-.2.55.677.677 0 00.2.5M64.9 66a.856.856 0 00-.55.2.856.856 0 00-.2.55.675.675 0 00.2.5.76.76 0 00.55.25h6a.612.612 0 00.5-.25.612.612 0 00.25-.5.76.76 0 00-.25-.55.675.675 0 00-.5-.2h-6m12.3-5.1a.737.737 0 00-.2.5c-.061 2.209-.877 3.626-2.45 4.25a.822.822 0 00-.4.4.737.737 0 000 .55.623.623 0 00.4.4c.19.104.373.12.55.05 2.195-.776 3.327-2.642 3.4-5.6a.808.808 0 00-.2-.55.8.8 0 00-.55-.2.808.808 0 00-.55.2M58.2 14h-3.3a.856.856 0 00-.55.2.856.856 0 00-.2.55.675.675 0 00.2.5.76.76 0 00.55.25h3.3a.612.612 0 00.5-.25.612.612 0 00.25-.5.76.76 0 00-.25-.55.675.675 0 00-.5-.2m-1.8 6.7a.76.76 0 00.55.25h6a.612.612 0 00.5-.25.612.612 0 00.25-.5.76.76 0 00-.25-.55.675.675 0 00-.5-.2h-6a.856.856 0 00-.55.2.856.856 0 00-.2.55.675.675 0 00.2.5M61 34.65a.68.68 0 00-.5-.2.865.865 0 00-.55.2L55.7 38.9a.872.872 0 00-.2.55.681.681 0 00.2.5.762.762 0 00.55.25.61.61 0 00.5-.25L61 35.7a.613.613 0 00.25-.5.76.76 0 00-.25-.55m-5.5 20.4a.677.677 0 00.2.5.759.759 0 00.55.25h6a.608.608 0 00.5-.25.608.608 0 00.25-.5.755.755 0 00-.25-.55.677.677 0 00-.5-.2h-6a.865.865 0 00-.55.2.861.861 0 00-.2.55M54.9 66a.856.856 0 00-.55.2.856.856 0 00-.2.55.675.675 0 00.2.5.76.76 0 00.55.25h6a.612.612 0 00.5-.25.612.612 0 00.25-.5.76.76 0 00-.25-.55.675.675 0 00-.5-.2h-6"/><path stroke="#4E22D0" stroke-linecap="round" stroke-linejoin="round" stroke-width="1.5" d="M48.251 55.05H6.399v-3.7l6.952-6.949L20.3 51.35 37.4 34.3l11.75 11.75V20.2H6.399v25.9"/><path stroke="#4E22D0" stroke-linecap="round" stroke-linejoin="round" stroke-width="1.5" d="M18.55 27.35c1.633 0 3.034.583 4.2 1.75 1.166 1.166 1.75 2.566 1.75 4.2 0 1.634-.584 3.034-1.75 4.2-1.166 1.166-2.567 1.75-4.2 1.75-1.634 0-3.033-.584-4.2-1.75-1.166-1.166-1.75-2.566-1.75-4.2 0-1.633.584-3.033 1.75-4.2 1.168-1.167 2.566-1.75 4.2-1.75z"/><path stroke="#4E22D0" stroke-linecap="round" stroke-linejoin="round" stroke-width="1.5" d="M48.25 14.75H7.2c-3.634 0-5.45 1.817-5.45 5.45v41.05c0 3.666 1.817 5.5 5.45 5.5h41.05c3.666 0 5.5-1.834 5.5-5.5V20.2c0-3.633-1.834-5.45-5.5-5.45z"/></g></svg>