<svg xmlns="http://www.w3.org/2000/svg" width="80" height="80"><path fill="none" stroke="#4E22D0" stroke-linecap="round" stroke-linejoin="round" stroke-width="1.5" d="M44.496 24.963c10.473 0 18.963 6.633 18.963 14.814 0 3.234-1.341 6.216-3.591 8.653.324 2.513.943 5.154 1.928 7.617.366.913-.439 1.866-1.392 1.635-4.097-.997-7.16-2.453-9.402-4.003-2.032.58-4.216.914-6.506.914-10.473 0-18.963-6.633-18.963-14.816 0-8.181 8.49-14.814 18.963-14.814zM44 17H18h26zM28 62h6-6zm-10-4h22.5H18zm28-37.3V16c0-1.333-.667-2-2-2H18c-1.334 0-2 .667-2 2v49c0 1.334.666 2 2 2h26c1.333 0 2-.666 2-2v-3.349"/></svg>