<svg xmlns="http://www.w3.org/2000/svg" width="80" height="80"><path d="M20 32.906l-1.051 8.5 1.051-8.5zm17.449 26.3c0-2.533-1.349-3.8-4.05-3.8H23.25c-2.634 0-3.95 1.267-3.95 3.8v1.051c.099 2.3.967 4.2 2.599 5.7 1.833 1.633 3.984 2.45 6.451 2.45 2.533 0 4.65-.817 6.349-2.45 1.068-.867 1.834-1.9 2.301-3.1.3-.8.449-1.668.449-2.6v-1.05zm24.101-17.75l-1.2-8.449 1.2 8.45zm-3.401 13.95H48c-2.634 0-3.95 1.267-3.95 3.8v1.051c.099 2.3.967 4.2 2.599 5.7 1.833 1.633 3.984 2.45 6.451 2.45 2.533 0 4.65-.817 6.349-2.45 1.068-.867 1.834-1.9 2.301-3.1.3-.8.449-1.668.449-2.6v-1.05c0-2.534-1.349-3.8-4.05-3.8zm14.75-14.099c-.466-.5-1.066-.75-1.799-.75-1.767.2-3.55.382-5.35.55-1.434.132-2.834.25-4.2.35a288.74 288.74 0 01-42.601-.05c-1.566-.134-3.149-.268-4.75-.4a102.373 102.373 0 00-3.899-.45c-.7 0-1.318.25-1.851.75-.467.5-.699 1.116-.699 1.85 0 .7.232 1.3.699 1.8.533.566 1.151.85 1.851.85 20.3 2.3 40.566 2.3 60.8 0 .733 0 1.333-.284 1.799-.85.568-.5.851-1.1.851-1.8 0-.734-.283-1.35-.851-1.85zm-14.849-24.3c-.734-5.167-3.934-6.518-9.601-4.05-5.699 2.466-11.349 2.466-16.949 0-5.601-2.468-8.75-1.15-9.45 3.95l-2.05 16c13.366 1.332 26.816 1.366 40.35.1l-2.3-16zM37.449 58.706h6.601" fill="none" stroke="#4E22D0" stroke-linecap="round" stroke-linejoin="round" stroke-width="1.5"/></svg>