<svg xmlns="http://www.w3.org/2000/svg" width="80" height="80"><path fill="none" stroke="#4E22D0" stroke-linecap="round" stroke-linejoin="round" stroke-width="1.5" d="M73.75 72l-64-64 64 64zm-34.2-7.5h22.399M12.35 33.85H31.3 12.35zm27.45 0h31.849H39.8zM61.399 19.8v1.9-1.9zm5 0v1.9-1.9zm5.25 5.9V62c-.132 1.133-.616 1.883-1.45 2.25m-13.8-44.45v1.9-1.9zm-31.049-.401H36l3.699 6.301h31.95v-7.1c0-1.5-.45-2.433-1.349-2.8-.3-.2-.867-.3-1.7-.3H21.449M12.35 38.649V25.7v12.949zm0 4c3-2.666 6.549-4 10.65-4 4.399 0 8.166 1.551 11.3 4.651 3.133 3.167 4.7 6.95 4.7 11.349 0 3.768-1.134 7.051-3.4 9.851-.401.5-.833.983-1.3 1.45-3.134 3.133-6.901 4.699-11.3 4.699-4.434 0-8.217-1.566-11.351-4.699C8.55 62.85 7 59.083 7 54.649c0-4.399 1.55-8.182 4.649-11.349.234-.234.467-.45.701-.651zM30.5 62.1l-4.7-4.6c-1.167 1.2-2.583 1.8-4.25 1.8-1.634-.033-3.05-.633-4.25-1.8-1.167-1.167-1.767-2.583-1.8-4.25.033-1.667.633-3.101 1.8-4.3 1.2-1.167 2.616-1.733 4.25-1.7 1.667-.033 3.083.55 4.25 1.75 1.2 1.133 1.783 2.55 1.75 4.25.033 1.667-.55 3.083-1.75 4.25l4.7 4.6zM13.399 15.95c-.7.5-1.049 1.383-1.049 2.65v7.1h4.2l2.5-4.1"/></svg>