<svg width="80" height="80" fill="none" xmlns="http://www.w3.org/2000/svg"><path d="M63.55 31.9c1 2.8 1.5 5.8 1.5 9 0 7.2-2.55 13.333-7.65 18.4-5.067 5.067-11.2 7.6-18.4 7.6-7.2 0-13.317-2.533-18.35-7.6C15.55 54.233 13 48.1 13 40.9c0-7.167 2.55-13.283 7.65-18.35C25.683 17.45 31.8 14.9 39 14.9c3.267 0 6.317.533 9.15 1.6M44.2 39.9c0 .2.017.4.05.6v.4c0 1.433-.5 2.683-1.5 3.75-1 1-2.25 1.5-3.75 1.5-1.433 0-2.633-.5-3.6-1.5-1-1.067-1.5-2.317-1.5-3.75 0-1.433.5-2.65 1.5-3.65.967-1.033 2.167-1.55 3.6-1.55.2 0 .4.017.6.05.2 0 .383.033.55.1m12.9-1.25c.833 1.9 1.25 4 1.25 6.3 0 4.233-1.533 7.883-4.6 10.95-2.933 2.867-6.5 4.3-10.7 4.3-4.267 0-7.867-1.433-10.8-4.3-2.933-3.067-4.4-6.717-4.4-10.95s1.467-7.817 4.4-10.75c2.933-2.967 6.533-4.45 10.8-4.45 2.433 0 4.633.5 6.6 1.5m-6.55 13.7l5.85-5.85m0 0l1.2-4.6 5.5-5.5-1.05-3.45c-.633-2.333-.283-4.117 1.05-5.35l6.6-6.6c.3-.3.667-.45 1.1-.45.6 0 1.05.167 1.35.5l2 2c.3.267.483.633.55 1.1 0 .433-.183.833-.55 1.2M44.9 35.05L49.65 34l5.45-5.5 3.4 1c2.367.633 4.15.317 5.35-.95l6.7-6.7c.267-.333.417-.733.45-1.2 0-.433-.133-.817-.4-1.15l-2.05-2c-.367-.367-.733-.55-1.1-.55-.533 0-.967.183-1.3.55m.4-4L53.3 26.7" stroke="#4E22D0" stroke-width="1.5" stroke-linecap="round" stroke-linejoin="round"/></svg>