<svg xmlns="http://www.w3.org/2000/svg" width="80" height="80"><path fill="none" stroke="#4E22D0" stroke-linecap="round" stroke-linejoin="round" stroke-width="1.5" d="M53.85 46.875v-8.6h3.05c.433.033.85.233 1.25.6a.547.547 0 01.15.1c.467.466.7 1.017.7 1.65 0 .7-.233 1.283-.7 1.75-.5.467-1.083.7-1.75.7h-2.7m3.25-25.9l7.9 7.95m-22.5 21.75l.8-8.6 3.3 6.85 3.35-6.85.7 8.6m-14.75-8.6h1.4m3.4 0h-3.4v8.6m16.35-32.1v-1.85l-33.15-3.9c-2.734-.2-4.234.817-4.5 3.05v.85c.167 1.933 1.516 3.867 4.05 5.8l13.2 9.6v42.45l-12.9-8.85c-2.834-1.933-4.283-4.333-4.35-7.2v-41.8m20.1 51.2h25.7c2.068-.067 3.134-1.15 3.2-3.25v-35.75h-4.65c-2.133-.033-3.216-1.133-3.25-3.3v-4.65H31.2c-2.133.067-3.233 1.183-3.3 3.35v.25"/></svg>