<svg xmlns="http://www.w3.org/2000/svg" width="80" height="80"><g fill="none" fill-rule="evenodd" stroke="#4E22D0" stroke-linecap="round" stroke-linejoin="round" stroke-width="1.5"><path d="M47.367 38.55V34.2v4.35zm-30.75-4.35v24.5c0 4 1.649 6.35 4.95 7.05.633.132 1.416.2 2.35.2h13.5m-24.6-36.5h38.35-38.35zm-.45-7.75c-.566.133-1.017.465-1.351 1-.266.5-.333 1.05-.2 1.65.1.466.434.883 1 1.25.634.266 1.184.35 1.65.25l.7-.176 10.45-2.825 22.7-6.1.45-.099c.6-.134 1.017-.467 1.25-1 .368-.534.467-1.084.3-1.65-.133-.534-.482-.95-1.05-1.25-.432-.335-.95-.417-1.55-.25l-.5.1-33.15 8.95-.7.15zm8.1-5.3c-.701-2.735.299-4.485 3-5.25L31.717 9c2.766-.767 4.516.233 5.25 3l-16.5 4.4zm11.499 21.45V58.2m7.602-20.35v6.1m-15.201-6.1V58.2m29.75-17.75c-4.467 0-8.283 1.583-11.45 4.75-3.134 3.134-4.7 6.933-4.7 11.399 0 4.5 1.566 8.317 4.7 11.45 3.167 3.134 6.983 4.7 11.45 4.7s8.267-1.566 11.399-4.7c3.167-3.133 4.75-6.95 4.75-11.45 0-4.466-1.583-8.265-4.75-11.4-3.132-3.166-6.932-4.75-11.4-4.75z"/><path d="M47.967 50.6l1.1-5.15m-3.5 9.8c-.035.466-.05.915-.05 1.35 0 2.433.833 4.483 2.5 6.15 1.732 1.632 3.765 2.45 6.1 2.45 1.067 0 2.067-.15 3-.45 1.133-.4 2.184-1.067 3.15-2m-5.1-1l5.1 1-1.05 5.1m3.35-9.9c.133-.4.2-.85.2-1.35 0-1.567-.367-2.968-1.1-4.2a8.231 8.231 0 00-1.4-1.85c-1.735-1.7-3.784-2.55-6.15-2.55-1.066 0-2.033.15-2.9.45-1.133.432-2.2 1.133-3.2 2.1 0 .033-.018.05-.05.05l5.2 1"/></g></svg>