<svg xmlns="http://www.w3.org/2000/svg" width="80" height="80"><path fill="none" stroke="#4E22D0" stroke-linecap="round" stroke-linejoin="round" stroke-width="1.5" d="M49 47.05L33.05 34.5v20.25l4.9-4.5 2.8 5.85 4.5-2.15-2.8-5.85L49 47.05zm11.25-27.649V21.1v-1.699zm7.8 0V21.1v-1.699zm-3.949 0V21.1v-1.699zM73 25.7v-6.5c-.066-2.733-1.467-4.133-4.2-4.2H11.2c-1.533.067-2.599.467-3.2 1.2-.666.8-1 1.8-1 3v6.5h6.351l1.699-5.65H32.8l1.7 5.65H73v35.1c-.033 2.768-1.434 4.167-4.2 4.2H11.2c-1.366 0-2.433-.384-3.2-1.15-.6-.6-.934-1.616-1-3.05V25.7h66z"/></svg>