<svg xmlns="http://www.w3.org/2000/svg" width="80" height="80"><path fill="none" stroke="#4E22D0" stroke-linecap="round" stroke-linejoin="round" stroke-width="1.5" d="M22.487 50.661v11.678-11.678zm4.376 7.302l-4.376 4.376-4.35-4.376M22.5 42C14.492 42 8 48.492 8 56.5S14.492 71 22.5 71 37 64.508 37 56.5 30.508 42 22.5 42zm24.49 22.599c.46.67.7 1.46.7 2.371 0 1.11-.38 2.049-1.15 2.82-.77.809-1.71 1.21-2.85 1.21-1.09 0-2.02-.401-2.79-1.21-.32-.31-.57-.64-.76-1m2.35-4.39h15.18l-5.04-15.66H42.55m29.2 15.66h-7.64V49.29H72V38.309c0-2.519-.88-4.669-2.65-6.449-1.79-1.78-3.92-2.67-6.38-2.67l-5.7-.05H35.36c-.17-2.74-.67-5.21-1.5-7.4-.93-2.59-2.21-4.71-3.84-6.35-3.4-3.43-7.48-5.22-12.23-5.39h-3.15c-1.86 0-3.43.67-4.69 2.01C8.65 13.39 8 14.95 8 16.7v1.76h3.84v15.82h2.6c1.46 0 2.71-.5 3.74-1.511.64-.769 1.05-1.46 1.25-2.069.9-.2 1.7-.65 2.4-1.36.96-.9 1.5-2.1 1.6-3.571v9.261m29.201-5.89v12.443H35.358V29.14h17.273zM64.112 64.4h-6.438 6.438zM23.426 23.349v2.417-2.417zm33.847 5.791c1.797.169 3.328.908 4.593 2.217 1.497 1.578 2.246 3.359 2.246 5.339v12.593m2.447 15.312c.466.672.699 1.461.699 2.37 0 1.106-.382 2.047-1.149 2.819-.765.806-1.713 1.21-2.845 1.21-1.098 0-2.029-.404-2.795-1.21-.799-.772-1.198-1.713-1.198-2.819 0-.909.249-1.698.749-2.37h6.539z"/></svg>