<svg xmlns="http://www.w3.org/2000/svg" width="80" height="80"><path fill="none" stroke="#4E22D0" stroke-linecap="round" stroke-linejoin="round" stroke-width="1.5" d="M29.408 54c1.6 0 2.4.8 2.4 2.399V58.2c0 1.6-.8 2.4-2.4 2.4h-2.1c-1.567 0-2.35-.8-2.35-2.4v-1.801c0-1.599.783-2.399 2.35-2.399h2.1zm26.2-26.75c.267.133.533.3.8.5.134.133.317.333.55.6.733.867 1.1 1.933 1.1 3.2 0 1.266-.367 2.367-1.1 3.3-.7.867-1.55 1.317-2.55 1.35a19.688 19.688 0 01-3.25 5.6c-2.933 3.633-6.517 5.45-10.75 5.45-.967 0-1.917-.101-2.85-.3m-15.6 3.15c-4.433 2.133-7.017 5.216-7.75 9.25a16.933 16.933 0 00-.2 3.2V66c0 .633.133 1.217.4 1.75.2.333.45.683.75 1.05.867.8 1.867 1.2 3 1.2h44.35c1.233 0 2.284-.4 3.15-1.2.3-.367.55-.717.75-1.05.267-.533.4-1.117.4-1.75v-3.601c.167-4.533-1.617-8.116-5.35-10.75-2.633-1.866-6.183-3.25-10.65-4.149-2.2 2.333-4.417 3.933-6.65 4.8-2.533.933-5.05.933-7.55 0a16.97 16.97 0 01-2.2-1.1m-2.2-22.25c.967.267 1.884.616 2.75 1.05.867.467 1.65 1.05 2.35 1.75.633.633 1.15 1.433 1.55 2.399.4.901.6 1.917.6 3.051 0 .9-.133 1.75-.4 2.55-.233.8-.55 1.483-.95 2.05-.4.599-.833 1.15-1.3 1.65-.5.533-1 1.033-1.5 1.5-.533.4-1.016.8-1.45 1.199a8.547 8.547 0 00-1.15 1.301c-.333.467-.567.916-.7 1.35l-.15.55c-.133.567-.383.983-.75 1.25-.333.233-.816.35-1.45.35h-2.55c-1.533 0-2.3-.801-2.3-2.4v-.45c0-.667.1-1.284.3-1.85.267-.601.6-1.134 1-1.601.4-.466.833-.916 1.3-1.349.5-.467 1-.917 1.5-1.35.5-.367.934-.767 1.3-1.2.433-.4.783-.817 1.05-1.25.233-.533.35-1 .35-1.4 0-.767-.316-1.383-.95-1.85-.566-.5-1.283-.75-2.15-.75-.666 0-1.416.2-2.25.6-.666.367-1.333.516-2 .45-.6-.1-1.117-.45-1.55-1.05l-1-1.55c-.967-1.334-.833-2.4.4-3.2 2.167-1.434 4.567-2.15 7.2-2.15 1 0 1.967.117 2.9.35zM25.858 26c2.467-4.867 5.1-7.767 7.9-8.7 2.7-.833 5.6.3 8.7 3.4 3.367 3.333 7.75 5.517 13.15 6.55v-.2l-.1-1.35v-.1c-.5-3.867-1.95-7.25-4.35-10.15C48.225 11.816 44.64 10 40.408 10s-7.85 1.816-10.85 5.45c-2.367 2.9-3.766 6.283-4.2 10.15a2.57 2.57 0 00-.05.5l.55-.1z"/></svg>