<svg xmlns="http://www.w3.org/2000/svg" width="80" height="80"><path fill="none" stroke="#4E22D0" stroke-linecap="round" stroke-linejoin="round" stroke-width="1.5" d="M55.25 59H66.8c1.433-.033 2.5-.417 3.2-1.15.667-.7 1-1.717 1-3.05V32.5M22.8 35v7.8c0 2.7.317 5.234.95 7.6 1.9 5.867 6.917 11 15.05 15.4.334.2.75.3 1.25.3.4 0 .767-.1 1.1-.3 8.167-4.4 13.233-9.533 15.2-15.4.667-2.366 1-4.9 1-7.6V35c0-1.066-.333-1.966-1-2.7-.6-.833-1.517-1.45-2.75-1.85l-11.1-3.2c-1.233-.4-2.05-.6-2.45-.6-.5 0-1.366.2-2.6.6l-11 3.2c-1.233.4-2.166 1.017-2.8 1.85-.567.734-.85 1.634-.85 2.7zm37.25-2.5H71v-8.8M9 32.5v22.3c.067 2.767 1.467 4.167 4.2 4.2h11.55m-10.8-41.6v1.7-1.7zm7.8 0v1.7-1.7zm-3.85 0v1.7-1.7zM9 23.7v8.8h11M9 17.2v6.5h17.5l1.7-6.65h15.75l1.7 6.65H71v-6.5c0-1.333-.333-2.333-1-3-.7-.766-1.767-1.166-3.2-1.2H13.2c-2.733.067-4.133 1.467-4.2 4.2z"/></svg>