<svg height="80" width="80" xmlns="http://www.w3.org/2000/svg"><g stroke="#43ed9c" stroke-width="1.5" fill="none" fill-rule="evenodd" stroke-linecap="round" stroke-linejoin="round"><path d="M18.6 16.523l-5.85 10.05zm33.8 29.149l-25.048 6.7zm-1.95-7.15l-25.05 6.7zm-1.9-7.2l-25.05 6.7zm-1.9-7.15l-25.048 6.7zm-26.698-2.55c.466 1.867-.25 3.068-2.15 3.6l-5.051 1.35 10.45 39c.567 1.868 1.8 2.585 3.7 2.15l33.598-9c1.8-.565 2.483-1.8 2.05-3.7l-11.748-44c-.568-1.865-1.784-2.582-3.651-2.15L18.6 16.523z"/><path d="M29.8 71.723l35.598-9.551c2.5-.765 3.45-2.433 2.85-5l-12.3-46"/></g></svg>