<svg xmlns="http://www.w3.org/2000/svg" width="160" height="80"><path fill="#002873" fill-rule="evenodd" d="M20.024 45.234v3.928c2.3 0 4.28-.127 5.94-.364 1.2-.173 2.26-.409 3.159-.719a9.655 9.655 0 001.79-.818c.83-.5 1.46-1.109 1.88-1.836.21-.355.37-.737.48-1.137l.13-1.145c0-.419-.06-.819-.17-1.21-.11-.357-.265-.7-.46-1.018-.32-.518-.77-.964-1.33-1.346a8.063 8.063 0 00-1.29-.664c-.46-.172-1.18-.4-2.16-.681-.65-.182-1.11-.319-1.38-.419-.3-.1-.54-.2-.74-.309a1.167 1.167 0 01-.33-.209c-.08-.055-.11-.1-.11-.155h6.96v-3.928h-6.93c-1.71 0-2.93.764-3.66 2.3-.78 1.637-.49 3.129.85 4.465.37.373.82.7 1.35.982.57.3 1.37.6 2.39.891 1.1.328 1.63.473 1.57.455.37.118.66.227.88.327l.41.219c.18.127.22.336.12.636-.11.146-.29.3-.53.446-.62.38-1.57.682-2.85.89-1.58.283-3.57.42-5.969.42zm31.143 3.928l-.008-12.02c0-2.315 1.722-3.955 4-3.955h7.264v3.955H55.16v2.064h5.526v3.919H55.16v6.038h-3.992zm12.346-15.948h12.475v3.937h-4.285v12.011h-3.905V37.151h-4.285v-3.937zm13.76-.027h5.167c4.574 0 6.862 1.964 6.862 5.882 0 3.929-2.204 5.892-6.593 5.892h-1.445v4.201h-3.99V33.187zm3.982 3.9v3.937c2.685 0 4.037-.654 4.037-1.964 0-1.309-1.342-1.973-4.037-1.973zm17.614 6.038h-4.643v2.11h6.824v3.927h-6.878c-2.58 0-3.861-1.31-3.861-3.928V33.186h10.72v3.946h-6.805v2.064h4.643v3.929zm7.556-9.938c6.428 0 9.643 2.664 9.643 7.974 0 5.337-3.215 8.001-9.643 8.001h-3.992V33.186h3.992zm0 3.955v8.092c3.76 0 5.65-1.354 5.65-4.073 0-2.674-1.89-4.019-5.65-4.019zm10.958 12.02h3.897V33.204h-3.897v15.958zm16.018 0l-1.266-4.164h-4.773l-1.275 4.164h-4.067l3.995-13.166c.543-1.874 1.79-2.81 3.734-2.81 1.934 0 3.182.936 3.724 2.81l4.014 13.166h-4.086zm-4.855-8.093h2.396l-1.193-3.928-1.203 3.928zm-86.502-7.863c-4.38 0-7.932 3.572-7.932 7.978 0 4.407 3.551 7.979 7.932 7.979 4.382 0 7.933-3.572 7.933-7.979 0-4.406-3.551-7.978-7.933-7.978zm0 4.11c2.123 0 3.845 1.732 3.845 3.867v.001c0 2.136-1.722 3.867-3.845 3.867S38.2 43.319 38.2 41.184s1.72-3.867 3.844-3.867zm97.744-3.155c.124-.29.188-.602.188-.917a2.4 2.4 0 00-.188-.933 2.382 2.382 0 00-.522-.76 2.291 2.291 0 00-.764-.526 2.322 2.322 0 00-1.832 0 2.62 2.62 0 00-.772.502 2.543 2.543 0 00-.514.784 2.406 2.406 0 00-.187.933c0 .314.062.62.187.917.125.314.297.573.515.777.22.221.482.395.771.51.287.13.598.198.912.196.32 0 .624-.063.92-.196.297-.126.554-.29.764-.51.223-.223.4-.486.522-.777zm-.623-1.63c.086.22.132.455.132.713 0 .33-.077.628-.225.902a1.648 1.648 0 01-.616.627c-.265.15-.554.22-.874.22-.327 0-.615-.079-.865-.22a1.703 1.703 0 01-.623-.627 1.839 1.839 0 01-.219-.902 1.7 1.7 0 01.219-.917 1.62 1.62 0 01.616-.627 1.833 1.833 0 011.551-.087c.21.094.397.212.554.369.155.148.272.33.35.549zm-.468 1.96l-.46-1.05a.63.63 0 00.273-.252.704.704 0 00.125-.392.846.846 0 00-.11-.408.746.746 0 00-.288-.297 1.061 1.061 0 00-.46-.102h-1.107v2.5h.67v-.94h.211l.375.941h.771zm-.818-1.91c.097.076.078.18.078.216 0 .036.003.126-.078.19-.143.114-.538.061-.538.061v-.517s.44-.026.538.05z"/></svg>