<svg xmlns="http://www.w3.org/2000/svg" width="160" height="80"><g fill="none" fill-rule="evenodd"><path fill="#E10408" d="M53.818 14c.107.224.055.457.055.686.003 16.876.003 33.752 0 50.628 0 .229.052.463-.055.686H152V14H53.818z"/><path fill="#FFFC00" d="M78.152 45.309l-1.791 2.027c-1.143-.936-2.351-1.61-3.867-1.396-.936.132-1.732.543-2.337 1.267-1.345 1.61-1.277 4.053.155 5.581.827.883 1.871 1.175 3.072 1.12 1.211-.057 2.124-.685 3.018-1.43.69.522 1.214 1.16 1.813 1.714-1.395 1.966-4.357 2.762-6.917 2.164-2.778-.65-4.812-2.888-5.077-5.553-.358-3.593 1.602-5.94 3.875-6.923 2.614-1.131 6.231-.649 8.056 1.429zm21.493-2.013c3.985-.015 7.004 2.837 6.989 6.616-.016 3.643-2.843 6.613-6.925 6.63-4.64.02-7.087-3.415-7.007-6.578-.094-3.454 2.717-6.652 6.943-6.668zm25.735 2.002c-.526.708-1.168 1.332-1.78 2.039-1.12-.93-2.312-1.585-3.795-1.408-.936.112-1.74.518-2.36 1.228-1.362 1.56-1.343 4.046.062 5.588.83.91 1.896 1.224 3.13 1.163 1.212-.06 2.118-.696 3.015-1.427.382.241.63.577.94.844.314.271.636.533.937.784-1.95 2.708-6.67 3.29-9.58 1.06-3.073-2.357-3.4-7.02-.705-9.847 2.777-2.911 8.033-2.495 10.136-.024zm-14.01-1.751v12.75h-2.838v-12.75h2.838zm-28.736.022v4.954c1.815.082 3.547.015 5.354.043v-4.989h2.879v12.709h-2.852v-5.041h-5.307v5.022h-2.89V43.569h2.816zm54.222.007v2.419h-6.89V48.6h6.087v2.48h-6.128c-.035.918-.009 1.774-.018 2.71h7.066v2.481h-9.883V43.576h9.766zM96.78 47.115c-1.583 1.64-1.4 4.415.346 5.904.802.684 1.75.98 2.799.892 2.22-.186 3.65-1.752 3.653-4.092-.005-.084-.001-.303-.035-.516-.251-1.558-1.097-2.68-2.639-3.186-1.563-.511-2.988-.18-4.124.998zM109.603 23.6c3.97-.008 6.984 2.87 6.954 6.652-.028 3.581-2.824 6.595-6.961 6.595-4.62 0-7.067-3.43-6.97-6.614-.081-3.397 2.686-6.624 6.977-6.633zm30.658 1.695l-1.475 2.085c-.568-.302-1.075-.64-1.64-.865a4.684 4.684 0 00-2.168-.34 1.715 1.715 0 00-.77.229c-.668.408-.693 1.323-.037 1.755.518.342 1.129.472 1.72.635.877.24 1.759.458 2.594.827 1.392.615 2.193 1.629 2.19 3.143-.004 1.573-.66 2.805-2.162 3.503-1.548.719-3.166.652-4.777.284-1.265-.289-2.392-.876-3.45-1.794l1.61-1.904c.339-.023.483.21.677.34 1.063.711 2.206 1.165 3.522 1.114a2.672 2.672 0 001-.229c.409-.183.664-.476.682-.947.018-.47-.202-.78-.606-.99-.681-.354-1.426-.53-2.163-.723-.69-.181-1.377-.37-2.034-.65-1.25-.532-2.043-1.413-2.156-2.782-.119-1.45.35-2.657 1.596-3.521.814-.564 1.749-.786 2.716-.829 1.619-.072 3.663.39 5.131 1.659zm-21.273-1.453c1.752-.003 3.504-.005 5.256 0 .592.002 1.18.032 1.763.169 2.118.498 3.322 2.096 3.23 4.237-.079 1.838-.99 3.08-2.778 3.817l3.153 4.538h-3.371l-2.771-4.031a19.206 19.206 0 00-2.274.007v4.005c-.973.08-1.875.036-2.832.03V23.93c.23-.127.432-.086.624-.087zm-16.694.043c.066.854.038 1.662.024 2.537H98.38v10.19c-1.01.023-1.951.024-2.964-.004v-10.14h-3.95v-2.583h10.827zm-23.298.01c3.046.198 5.157 2.194 5.793 4.433 1.067 3.76-1.075 7.397-5.129 8.158-.685.129-1.371.14-2.062.14h-4.583V23.998a.313.313 0 01.285-.151c1.899.009 3.805-.073 5.696.05zm-8.012-.012c.048.784.012 1.568.022 2.44h-6.973v2.582h6.112v2.478h-6.127c-.032.938-.02 1.809-.006 2.736h7.076v2.457h-9.906V23.883h9.802zm18.904-.026v12.716h-2.824V23.857h2.824zm17.192 3.214c-1.293.993-1.785 2.894-1.204 4.53.619 1.742 2.25 2.76 4.044 2.62a3.823 3.823 0 003.569-3.96c0-.144.012-.29-.002-.433-.147-1.512-.891-2.653-2.313-3.274-1.445-.631-2.842-.445-4.094.517zm-31.191-.688v7.668c.834 0 1.597.021 2.36-.004 2.146-.072 3.514-1.257 3.765-3.343.21-1.743-.61-3.576-2.663-4.153-1.128-.317-2.284-.178-3.462-.168zm45.327.011v3.67c1.236-.04 2.416.1 3.585-.108 1.163-.205 1.766-1.236 1.423-2.338-.254-.814-.905-1.156-1.67-1.206-1.096-.07-2.201-.018-3.338-.018zm23.51-2.54c-.043 1.15.106 2.28-.092 3.395-.3 1.694-1.573 2.576-3.35 2.383-.163-.145-.11-.358-.166-.537-.048-.157-.128-.315-.052-.487 1.433-.43 1.753-.76 1.709-1.766-.317-.172-.68-.004-1.064-.137v-2.85h3.015z"/><path fill="#E10408" d="M52.406 14v52H8c.048-.223.025-.457.025-.686V14.686c0-.229.023-.462-.025-.686h44.406zM40.334 55.598h-.131a3.802 3.802 0 00-.4.028 1.226 1.226 0 00-.995.696c-.088.176-.152.37-.185.563a9.864 9.864 0 00-.15 1.866c-.009.622.04 1.245.15 1.866.033.193.097.387.185.563.201.4.537.64.995.696.132.016.266.026.4.028h.13c.134-.002.268-.012.4-.028.459-.056.794-.296.995-.696a2.08 2.08 0 00.186-.563 9.945 9.945 0 00.149-1.866 9.864 9.864 0 00-.15-1.866 2.045 2.045 0 00-.185-.563c-.2-.4-.536-.64-.994-.696a4.113 4.113 0 00-.4-.028zm-6.069 5.05h-1.16l-.002 1.249h1.16l.002-1.249zm9.816-5.074h-1.524v6.308h1.026v-3.463l.089-.005.623 3.468h.96l.74-3.469.09.006v3.463h1.026v-6.308h-1.508l-.745 4.083c-.008 0-.016 0-.024.002l-.024-.003c-.241-1.322-.73-4.082-.73-4.082zm-31.021.042c-.034 0-.07-.01-.102.012v6.254h1.194v-2.417c.191 0 .513.001.69-.001.14-.002.277-.029.409-.071a.889.889 0 00.625-.641c.042-.151.056-.304.057-.46v-1.518a1.7 1.7 0 00-.041-.382.897.897 0 00-.628-.692 1.86 1.86 0 00-.582-.084c-.54-.003-1.081-.001-1.622 0zm23.884.022a3.281 3.281 0 00-.846.005 1.216 1.216 0 00-.987.692 2.041 2.041 0 00-.185.559c-.108.617-.108 3.09 0 3.707.034.192.097.385.185.56.199.397.533.635.987.69.281.035.563.044.846.006.484-.065.821-.322.982-.77.087-.206.112-1.694.112-1.694h-1.011C37.032 59.82 37 60.6 37 60.6s-.002.488-.481.483c-.201-.002-.357-.177-.402-.368-.109-.458-.109-3.478 0-3.935.045-.19.2-.366.402-.368.479-.005.481.483.481.483s.032.78.027 1.207h1.01s-.024-1.488-.11-1.695c-.162-.447-.499-.704-.983-.769zm-18.313 0a3.274 3.274 0 00-.845.005 1.216 1.216 0 00-.988.692 2.075 2.075 0 00-.185.559c-.108.617-.108 3.09 0 3.707.034.192.098.385.185.56.2.397.533.635.988.69.28.035.563.044.845.006.485-.065.822-.322.983-.77.086-.206.111-1.694.111-1.694h-1.01c.004.427-.027 1.207-.027 1.207s-.003.488-.482.483c-.2-.002-.357-.177-.402-.368-.109-.458-.109-3.478 0-3.935.045-.19.201-.366.402-.368.48-.005.482.483.482.483s.022.558.026.99v.217h1.011s-.025-1.488-.111-1.695c-.161-.447-.498-.704-.983-.769zm3.207-.064h-1.466v6.308H21.4v-3.463l.089-.005.622 3.468h.961l.74-3.469.09.006v3.463h1.026v-6.308H23.54s-.957 4.126-.965 4.127l-.738-4.127zm5.999 0h-1.284l-1.224 6.308h1.23l.216-1.034 1.009.004.176 1.03h1.208l-1.331-6.308zm3.434.052a3.282 3.282 0 00-.846.005 1.213 1.213 0 00-.987.691 2.059 2.059 0 00-.185.56c-.108.616-.108 3.09 0 3.707.034.191.097.384.185.558.199.399.533.636.987.692.281.035.564.043.846.005.193-.026.362-.083.506-.169l.14.205h.436v-3.112l-1.58-.002-.003.777.568-.002s0 .912-.088 1.271a.571.571 0 01-.03.091c-.069.093-.183.17-.374.168-.201-.002-.357-.178-.402-.369-.109-.457-.109-3.477 0-3.934.045-.191.201-.367.402-.369.48-.004.481.483.481.483v.013c.005.105.032.8.027 1.195h1.01s-.024-1.49-.11-1.695c-.162-.447-.498-.704-.983-.77zm8.997.776c.076.004.14.021.192.047v-.014a.503.503 0 01.256.336c.109.46.158 1.202.152 1.93v.373c-.007.636-.057 1.255-.152 1.657a.503.503 0 01-.256.336v-.014a.484.484 0 01-.192.047.474.474 0 01-.191-.047v.014a.503.503 0 01-.256-.336c-.11-.46-.159-1.202-.153-1.93v-.1c-.006-.728.044-1.47.153-1.93a.503.503 0 01.256-.336v.014a.479.479 0 01.191-.047zm-13.064 1.442l.415 2.12h-.74l.325-2.12zm-12.995-1.266c.104-.01.345 0 .436.047a.232.232 0 01.121.17.729.729 0 01.014.168v1.295l-.001.04c-.016.206-.109.295-.322.307h-.248zM42.413 18.02c-1.63-.303-3.267-.286-4.902-.088-1.141.138-2.252.41-3.284.937-1.404.717-2.322 1.814-2.732 3.31-.198.723-.216 1.466-.216 2.209 0 6.8-.001 13.6.002 20.401 0 .44.01.884.06 1.322.177 1.593.872 2.905 2.237 3.842.61.418 1.277.73 1.988.924 2.414.66 4.857.719 7.304.222 1.182-.24 2.252-.742 3.086-1.635.99-1.06 1.392-2.35 1.407-3.75.03-2.807.02-5.616.023-8.424 0-.075.017-.164-.062-.203h-6.717v4.338l-.001 3.701c0 .22 0 .443-.027.66-.072.586-.418.874-1.038.882-.644.01-1.007-.289-1.08-.904a5.808 5.808 0 01-.027-.66V23.98c0-.22.01-.442.043-.66a.844.844 0 01.596-.701c.832-.285 1.488.152 1.53 1.014.009.16.004.321.004.482 0 2.166-.003 4.333.003 6.5 0 .213-.064.44.077.66h6.703c0-.882.006-1.703-.001-2.524-.018-1.905.091-3.814-.053-5.715-.173-2.267-1.334-3.865-3.562-4.657a8.968 8.968 0 00-1.361-.359zm-28.93-.097c-.178 0-.368-.053-.54.065v33.219h7.112v-12.84c1.014 0 1.955.012 2.895-.003a7.447 7.447 0 002.171-.376c1.725-.554 2.844-1.677 3.321-3.406.221-.801.299-1.616.301-2.44.007-2.687.005-5.375 0-8.063 0-.683-.064-1.363-.219-2.03-.422-1.82-1.5-3.076-3.336-3.68-1.003-.33-2.04-.44-3.088-.445-2.872-.012-5.744-.005-8.617-.001zm6.551 4.897c.551-.056 1.064 0 1.544.25.368.19.565.51.645.902.06.295.077.594.077.896-.004 2.222-.002 4.444-.002 6.666 0 .14.004.281-.006.42-.085 1.098-.578 1.568-1.713 1.633-.162.01-.326.002-.545.002z"/></g></svg>