<svg width="200" height="52" fill="none" xmlns="http://www.w3.org/2000/svg"><path d="M43.726 17.878v.312a25.38 25.38 0 011.098 7.339 25.18 25.18 0 01-1.098 7.339v.312l7.725-7.69-7.725-7.612zM25.647 0l-7.686 7.69h.314a25.716 25.716 0 017.372-1.093h.941c.942.039 1.883.117 2.824.273 1.216.195 2.431.469 3.608.82h.313L25.648 0zm7.726 43.407h-.314c-.863.273-1.765.469-2.706.664-1.53.273-3.098.43-4.706.43a26.71 26.71 0 01-4.705-.43 22.751 22.751 0 01-2.706-.664h-.314l7.725 7.69 7.726-7.69zm40.234-21.469V9.798h4.628c2.078 0 3.137 1.366 3.137 3.084 0 1.522-.823 2.498-1.921 2.81 1.215.195 2.117 1.483 2.117 3.006 0 1.913-1.059 3.279-3.215 3.279h-4.746v-.04zm5.687-8.705c0-.937-.47-1.679-1.53-1.679h-2.157v3.318h2.157c1.06 0 1.53-.702 1.53-1.64zm.196 5.153c0-.976-.55-1.757-1.647-1.757h-2.236v3.552h2.236c1.098 0 1.647-.663 1.647-1.795zm7.49-.546V9.797h2.039v8.08c0 1.64.823 2.498 2.235 2.498s2.235-.858 2.235-2.498v-8.08h2.04v8.08c0 2.772-1.647 4.333-4.236 4.333-2.666-.039-4.314-1.6-4.314-4.372zm13.882-1.953c0-3.786 2-6.284 5.02-6.284 2 0 3.216 1.17 3.921 2.576l-1.647.78c-.47-.897-1.215-1.6-2.274-1.6-1.726 0-2.941 1.718-2.941 4.49 0 2.77 1.176 4.488 2.941 4.488.902 0 1.686-.43 2.078-.858v-2.264h-2.588v-1.757h4.51v4.84c-.941 1.132-2.275 1.874-3.961 1.874-3.059 0-5.059-2.537-5.059-6.285zm21.883 6.051V9.798h4.628c2.078 0 3.137 1.366 3.137 3.084 0 1.522-.824 2.498-1.922 2.81 1.216.195 2.118 1.483 2.118 3.006 0 1.913-1.059 3.279-3.216 3.279h-4.745v-.04zm5.726-8.705c0-.937-.471-1.679-1.53-1.679h-2.157v3.318h2.157c1.059 0 1.53-.702 1.53-1.64zm.196 5.153c0-.976-.549-1.757-1.647-1.757h-2.236v3.552h2.236c1.058 0 1.647-.663 1.647-1.795zm7.019-2.499c0-3.59 1.803-6.284 4.902-6.284 3.098 0 4.941 2.732 4.941 6.284 0 3.592-1.804 6.285-4.941 6.285-3.099 0-4.902-2.733-4.902-6.285zm7.764 0c0-2.537-1.019-4.489-2.823-4.489-1.843 0-2.824 1.952-2.824 4.49 0 2.537 1.02 4.488 2.824 4.488 1.804 0 2.823-1.951 2.823-4.489zm7.451 1.953V9.797h2.04v8.08c0 1.64.823 2.498 2.235 2.498s2.235-.858 2.235-2.498v-8.08h2.039v8.08c0 2.772-1.647 4.333-4.235 4.333-2.667-.039-4.314-1.6-4.314-4.372zm20.942 4.098l-4.588-8.198v8.198h-2V9.798h2.039l4.471 7.963V9.798h2.039v12.179h-1.961v-.04zm9.843 0V11.554h-2.824V9.798h7.647v1.756h-2.823v10.384h-2zm12.549 0v-5.075l-3.804-7.104h2.235l2.549 5.191 2.549-5.191h2.235l-3.804 7.104v5.075h-1.96zM73.607 42.119V29.94h4.157c2.432 0 3.647 1.757 3.647 3.786 0 2.03-1.215 3.787-3.647 3.787h-2.157v4.606h-2zm5.687-8.393c0-1.17-.706-1.99-1.804-1.99h-1.922v4.02h1.922c1.137 0 1.804-.82 1.804-2.03zm12.824 8.393l-2.079-4.606h-1.53v4.606h-2V29.94h4.197c2.117 0 3.608 1.522 3.608 3.747 0 2.108-1.177 3.162-2.275 3.474l2.392 4.958h-2.313zm.117-8.393c0-1.21-.706-1.99-1.804-1.99H88.51v4.02h1.921c1.098 0 1.804-.82 1.804-2.03zm7.098 2.343c0-3.592 1.804-6.285 4.902-6.285s4.941 2.732 4.941 6.285c0 3.552-1.804 6.284-4.941 6.284-3.098 0-4.902-2.732-4.902-6.285zm7.765 0c0-2.538-1.02-4.49-2.824-4.49-1.843 0-2.823 1.952-2.823 4.49 0 2.537 1.019 4.488 2.823 4.488s2.824-1.951 2.824-4.489zm6.98 0c0-3.787 2-6.285 5.02-6.285 2 0 3.215 1.17 3.921 2.576l-1.647.78c-.47-.897-1.215-1.6-2.274-1.6-1.726 0-2.941 1.718-2.941 4.49 0 2.77 1.176 4.489 2.941 4.489.902 0 1.686-.43 2.078-.86v-2.263h-2.588v-1.757h4.51v4.84c-.941 1.133-2.275 1.874-3.961 1.874-3.059 0-5.059-2.537-5.059-6.285zm20.157 6.05l-2.079-4.606h-1.529v4.606h-2V29.94h4.196c2.118 0 3.608 1.522 3.608 3.747 0 2.108-1.177 3.162-2.275 3.474l2.393 4.958h-2.314zm.117-8.393c0-1.21-.705-1.99-1.803-1.99h-1.922v4.02h1.922c1.098 0 1.803-.82 1.803-2.03zm14.001 8.393l-.667-2.42h-4.039l-.667 2.42h-2.196l3.647-12.179h2.432l3.647 12.179h-2.157zm-2.667-9.993l-1.608 5.816h3.216l-1.608-5.816zm18.313 9.993v-8.9l-2.98 8.9h-.785l-2.98-8.9v8.9h-2V29.94h2.745l2.627 7.924 2.667-7.924h2.706v12.179h-2zM7.059 20.845c.117-.625.235-1.21.392-1.796.078-.312.157-.585.235-.898v-.312L0 25.53l7.725 7.69v-.312a25.38 25.38 0 01-1.098-7.339c0-.625.04-1.288.079-1.913.078-.937.196-1.873.353-2.81zm19.097-3.825c4.55.233 8.157 3.942 8.157 8.509s-3.608 8.314-8.157 8.51v6.948c1.02-.04 2-.156 2.942-.351 5.725-1.289 10.274-5.7 11.725-11.36.314-1.21.47-2.459.47-3.786 0-1.366-.195-2.693-.548-3.943-1.412-5.308-5.608-9.524-10.941-11.008a16.478 16.478 0 00-3.687-.546v7.026h.04z" fill="#BA9553"/><path d="M33.412 25.529c0-4.216-3.451-7.69-7.726-7.69-4.274 0-7.725 3.435-7.725 7.69 0 4.216 3.45 7.69 7.725 7.69 4.275 0 7.726-3.435 7.726-7.69zm-11.804 0c0-2.264 1.843-4.06 4.078-4.06 2.275 0 4.118 1.835 4.118 4.06 0 2.264-1.843 4.06-4.078 4.06a4.05 4.05 0 01-4.118-4.06z" fill="#BA9553"/><path d="M25.255 34.078c-4.549-.235-8.157-3.943-8.157-8.51s3.608-8.315 8.157-8.51v-6.987c-1.255.04-2.47.234-3.608.546-5.45 1.484-9.725 5.817-11.058 11.32a15.862 15.862 0 00-.432 3.631c0 1.171.157 2.342.392 3.435 1.334 5.816 6 10.422 11.883 11.71.94.196 1.882.313 2.863.352v-6.987h-.04z" fill="#BA9553"/></svg>