<svg width="60" height="49" fill="none" xmlns="http://www.w3.org/2000/svg"><path d="M27.44 16.52V3.24c0-1.04-.56-1.6-1.6-1.6H2.64c-1.04 0-1.6.56-1.6 1.6v43.2c0 1.04.56 1.6 1.6 1.6h23.2c1.04 0 1.6-.56 1.6-1.6V43.4m2.4-.16V47c0 .64.32 1.04 1.04 1.04h14.8c.64 0 1.04-.32 1.04-1.04V31.32m-25.76-7.6H3.36v-7.04H24.8v1.92M18 34.12H3.44v-7.04h16.08m5.36 16v1.36H3.44V37.4h15.28m30.96-25.36l-2.72 2.64 3.44 3.44m0 0l8.16 3.44-5.12 5.04-7.28-.08m4.24-8.4l-.24.48c-.56 1.04-1.04 2.08-1.52 3.04l-.72 1.44-4.64-4.72 3.76-3.76-3.28-3.36-3.36-8.16-5.12 4.96-.08 7.12c-1.76.88-3.04 1.6-4 2.16-3.6 2.16-6.08 4.48-7.44 7.04-1.28 2.4-2.24 5.12-2.8 8.08-.08.08-.08.24-.08.32-.72 4.48 3.12 8.4 7.6 7.76h.08c.56-.08 1.04-.24 1.6-.32 1.28-.24 2.4-.56 3.52-.96 1.04-.32 2-.8 2.96-1.28.16-.08.24-.08.32-.16 1.28-.72 2.48-1.68 3.68-2.88.8-.88 1.52-1.84 2.32-2.88.4-.56.72-1.12 1.12-1.76h.08c.4-.64.88-1.52 1.44-2.64.16-.32.4-.72.56-1.12m0 0c.48-.96 1.04-2 1.52-3.04.08-.16.16-.24.16-.4l-1.68 3.44zm-5.36-5.76l2.4-2.4-4.72-4.72c-1.2.56-2.32 1.04-3.36 1.52m13.44-5.6l2.32-2.32m-28 18.88c.56.08 1.2.24 1.76.4 5.84 1.6 9.92 6.56 10.64 12.24m-10.88-2.8c-1.36-2 .8-6.56.8-6.56M23.04 7.64c-.32.32-.72.48-1.12.48-.4 0-.8-.16-1.12-.48a1.58 1.58 0 01-.48-1.12c0-.4.16-.8.48-1.12.32-.32.72-.48 1.12-.48.4 0 .8.16 1.12.48.32.32.48.72.48 1.12 0 .4-.16.8-.48 1.12zm29.2 5.6l1.28-1.2 5.04-4.96-6.32 6.16zm-8.56-1.92c-.08.08-.24.08-.32.08h-.08c-.08 0-.08.08-.16.08-.32.16-.56.32-.88.4-.24.16-.48.24-.72.32-1.44.64-2.4 1.12-3.04 1.36l5.2-2.24z" stroke="#BA9553" stroke-width="1.5" stroke-miterlimit="3" stroke-linecap="round" stroke-linejoin="round"/></svg>