<svg width="14" height="16" fill="none" xmlns="http://www.w3.org/2000/svg"><path fill-rule="evenodd" clip-rule="evenodd" d="M2.667 12c0 .367.3.667.666.667H4V15a1 1 0 102 0v-2.333h1.333V15a1 1 0 102 0v-2.333H10c.367 0 .667-.3.667-.667V5.333h-8V12zM1 5.333a1 1 0 011 1V11a1 1 0 11-2 0V6.333a1 1 0 011-1zm11.333 0a1 1 0 011 1V11a1 1 0 11-2 0V6.333a1 1 0 011-1zM9.887.573a.33.33 0 000-.473.33.33 0 00-.474 0l-.986.987a3.893 3.893 0 00-1.76-.42c-.64 0-1.24.153-1.774.42L3.9.1a.33.33 0 00-.473 0 .33.33 0 000 .473l.873.874a3.989 3.989 0 00-1.633 3.22h8c0-1.327-.647-2.5-1.647-3.227l.867-.867zm-4.554 2.76h-.666v-.666h.666v.666zm3.334 0H8v-.666h.667v.666z" fill="#868F96"/></svg>