<svg width="14" height="16" fill="none" xmlns="http://www.w3.org/2000/svg"><path fill-rule="evenodd" clip-rule="evenodd" d="M9.73 4.367c.278 0 .706.09 1.285.27.579.18 1.12.594 1.623 1.243-.1.024-.396.276-.887.756-.49.48-.774 1.2-.85 2.16.101 1.153.466 1.964 1.095 2.432.63.468.995.702 1.095.702-.105.232-.206.467-.302.703-.176.42-.453.906-.83 1.458a7.27 7.27 0 01-1.077 1.315c-.39.372-.843.558-1.358.558-.517 0-.944-.09-1.284-.27-.34-.18-.799-.27-1.377-.27-.58 0-1.045.09-1.397.27-.353.18-.768.282-1.246.306-.528 0-1-.198-1.416-.594a7.495 7.495 0 01-1.113-1.35c-.73-1.01-1.246-2.24-1.548-3.692C-.159 8.91.017 7.56.671 6.312a4.422 4.422 0 011.435-1.387 3.596 3.596 0 011.887-.522c.507.02 1.005.129 1.472.324.454.192.844.3 1.171.325.328-.024.761-.15 1.302-.379a4.165 4.165 0 011.793-.306zM9.44 0c.046.457-.006.918-.153 1.353-.139.416-.338.81-.592 1.168a2.811 2.811 0 01-.949.833c-.36.205-.771.302-1.185.279a3.04 3.04 0 01.17-1.353c.158-.433.35-.797.575-1.094a3.1 3.1 0 01.999-.834C8.7.142 9.077.025 9.439 0z" fill="#868F96"/></svg>