<svg width="16" height="16" fill="none" xmlns="http://www.w3.org/2000/svg"><path fill-rule="evenodd" clip-rule="evenodd" d="M11.333 0A4.667 4.667 0 0116 4.667v6.666A4.667 4.667 0 0111.333 16H4.667A4.667 4.667 0 010 11.333V4.667A4.667 4.667 0 014.667 0h6.666zm0 5.333c-1.192 0-1.858.694-1.858 1.504 0 1.094.97 1.326 1.798 1.526.626.147 1.182.316 1.182.82 0 .432-.364.726-1.051.726-.657 0-1.303-.346-1.636-.726l-.435.695c.495.526 1.212.789 2.03.789 1.284 0 1.97-.684 1.97-1.557 0-1.168-1.01-1.41-1.858-1.61-.606-.147-1.132-.294-1.132-.736 0-.41.384-.663 1-.663s1.162.263 1.445.62l.404-.662c-.414-.41-1.02-.726-1.859-.726zm-5 0C4.965 5.333 4 6.462 4 8c0 1.538.965 2.667 2.333 2.667 1.369 0 2.334-1.129 2.334-2.667 0-1.538-.965-2.667-2.334-2.667zm-3 2h-.666v3a.333.333 0 10.666 0v-3zm3-1.2c.892 0 1.534.738 1.534 1.867s-.642 1.867-1.534 1.867S4.8 9.129 4.8 8s.641-1.867 1.533-1.867zm-3-.133h-.666v.667h.666V6z" fill="#868F96"/></svg>