<svg width="64" height="43" fill="none" xmlns="http://www.w3.org/2000/svg"><path d="M20.48 22.12v9.84c0 .24 0 .48.08.64.16.96.88 1.44 2 1.44H54.4c1.36 0 2.08-.72 2.08-2.08V9.32c0-1.44-.72-2.16-2.08-2.16H22.56c-1.44 0-2.08.72-2.08 2.16v3.52m22.4-8.24V2.92c0-1.44-.72-2.16-2.08-2.16H8.96c-1.44 0-2.16.72-2.16 2.16v22.64c0 1.36.72 2.08 2.16 2.08h8.96m1.28-12.16h17.6m0 0l-3.92-3.92m3.92 3.92l-3.92 3.92m-4.08.08H11.2m0 0l3.92 3.92m-3.92-3.92l3.92-3.92m2.8 14.64H7.04l-5.6 2.48m0 0H18m-16.56 0v2c.4.4.88.56 1.36.56H18m44.8 3.84v2c-.32.4-.72.56-1.2.56H16.4c-.48 0-.96-.16-1.36-.56v-2H62.8zm0 0l-5.76-2.48h-36.4l-5.68 2.48H62.8z" stroke="#BA9553" stroke-width="1.5" stroke-miterlimit="3" stroke-linecap="round" stroke-linejoin="round"/></svg>