<svg width="50" height="50" fill="none" xmlns="http://www.w3.org/2000/svg"><path d="M11.08.84h-4.8C2.6.84.84 2.6.84 6.28v4.8m48-.08V6.2c0-3.68-1.84-5.44-5.52-5.44h-4.8m0 48.08h4.8c3.68 0 5.52-1.84 5.52-5.52v-4.88m-48 0v4.88c0 3.68 1.84 5.52 5.52 5.52h4.8m15.92-24h12.88m0 0c0-.4.16-.8.48-1.12.24-.32.64-.48 1.12-.48.4 0 .8.16 1.12.48.32.32.48.72.48 1.12 0 .48-.16.8-.48 1.12-.32.32-.64.4-1.12.4-.48 0-.88-.16-1.12-.4a1.58 1.58 0 01-.48-1.12zm-7.68-6.88a1.58 1.58 0 01-.48-1.12c0-.48.16-.8.48-1.2.24-.32.64-.4 1.12-.4.48 0 .8.16 1.12.4.32.32.48.72.48 1.2 0 .4-.16.8-.48 1.12-.32.32-.72.48-1.12.48-.48 0-.88-.16-1.12-.48zm0 0l-2 2.08h-3.2m0 9.6h3.2l4.48 4.56m0 0c.24-.32.64-.48 1.12-.48.4 0 .8.16 1.12.48.32.32.48.72.48 1.12 0 .48-.16.8-.48 1.2-.32.32-.64.4-1.12.4-.48 0-.88-.16-1.12-.4-.32-.32-.48-.72-.48-1.2 0-.4.16-.8.48-1.12zm-15.2-23.44c-.24.32-.64.48-1.12.48-.4 0-.8-.16-1.12-.48a1.58 1.58 0 01-.48-1.12c0-.48.16-.88.48-1.12.32-.32.64-.48 1.12-.48.48 0 .88.16 1.12.48.32.32.48.72.48 1.12 0 .4-.16.8-.48 1.12zm0 0l2 2.08h2.8M13.4 36.44c.32.32.48.72.48 1.12 0 .48-.16.8-.48 1.2-.24.32-.64.4-1.12.4-.48 0-.8-.16-1.12-.4-.32-.32-.48-.72-.48-1.2 0-.4.16-.8.48-1.12.32-.32.72-.48 1.12-.48.48 0 .88.16 1.12.48zm0 0l2-2h8.88m0-28.48v37.68m0-18.8H9.88m0 0c0 .4-.16.8-.48 1.12-.24.32-.64.48-1.12.48-.4 0-.8-.16-1.12-.48a1.58 1.58 0 01-.48-1.12c0-.48.16-.8.48-1.12.32-.32.64-.48 1.12-.48.48 0 .88.16 1.12.48.32.32.48.72.48 1.12zm14.4-4.8H18.6m0 0c0 .4-.16.8-.48 1.12-.24.32-.64.48-1.12.48-.4 0-.8-.16-1.12-.48a1.58 1.58 0 01-.48-1.12c0-.48.16-.88.48-1.2.32-.32.64-.4 1.12-.4.48 0 .88.16 1.12.4.32.32.48.72.48 1.2z" stroke="#BA9553" stroke-width="1.5" stroke-miterlimit="3" stroke-linecap="round" stroke-linejoin="round"/></svg>