<svg width="58" height="42" fill="none" xmlns="http://www.w3.org/2000/svg"><path d="M34.52 29.4h14.8c1.36 0 2.08-.72 2.08-2.08V9.4c0-1.44-.72-2.08-2.08-2.08H27.8m3.36 10.96l3.68 4c.32.16.56.16.8 0l6.72-6.96M17.8 27c.48-.08.96-.16 1.44-.32 1.36-.56 2.72-1.52 3.92-2.88 1.36.32 2.64.72 3.84 1.2.88.32 1.68.8 2.48 1.2 2.16 1.52 3.2 3.6 3.04 6.32v5.2c-.08 2.08-1.12 3.04-3.2 3.04H20.2L17.8 27zm0 0c-.56.08-1.04.08-1.6 0m1.6 0h-1.6m18.64 10.16h20.8c.48 0 .88-.16 1.2-.56v-2h-22m22 .08l-5.76-2.48H34.84M16.2 27l-2.4 13.84H4.76c-2.08 0-3.12-1.04-3.2-3.12V32.6c-.16-3.2 1.36-5.52 4.4-7.12C7.32 24.76 9 24.2 11 23.8c1.2 1.44 2.48 2.4 3.84 2.88.48.08.88.24 1.36.32zm3.92 13.84h-6.24m12-30.96v.88c.16.08.4.24.56.32.08.08.16.16.32.4.08.08.16.24.24.4.24.4.4.88.4 1.44 0 .64-.16 1.12-.4 1.6-.08.16-.16.24-.24.4-.4.56-.96.8-1.52.8-.4 1.2-1.04 2.32-1.84 3.28-1.68 2.08-3.84 3.12-6.32 3.12-2.48 0-4.56-1.04-6.32-3.12-.8-.96-1.44-2.08-1.76-3.28-.56 0-1.12-.24-1.52-.8-.48-.56-.72-1.2-.72-1.92 0-.56.16-1.04.48-1.44.08-.16.16-.32.24-.4.24-.32.48-.56.8-.72v-.08c0-.24 0-.48.08-.8.32-2.24 1.12-4.16 2.48-5.92C12.6 1.96 14.68.92 17.16.92c2.48 0 4.56 1.04 6.32 3.12 1.28 1.6 2.08 3.6 2.4 5.84z" stroke="#BA9553" stroke-width="1.5" stroke-miterlimit="3" stroke-linecap="round" stroke-linejoin="round"/></svg>