<svg width="103" height="32" fill="none" xmlns="http://www.w3.org/2000/svg"><path fill-rule="evenodd" clip-rule="evenodd" d="M30.515 21.518c-1.059-.98-1.75-1.13-2.615-1.747-2.636-1.896-3.263-5.88-1.253-8.458.583-.746 1.297-1.257 2.096-1.79.843-.554 1.6-1.342 2.01-2.173.8-1.662.605-3.77-.627-5.347C28.96.51 27.101-.277 25.091.106c-.951.17-1.75.554-2.572 1.279-.821.724-1.037 1.491-1.988 2.407-1.491 1.449-3.285 2.152-5.425 2.024-1.037-.064-1.923-.32-2.96-.895-1.124-.618-1.578-1.384-2.442-1.576-.908-.213-1.902.042-2.507.724-.822.938-.714 1.79-.346 2.898.346 1.044.627 2.066.691 3.174a9.135 9.135 0 01-.389 3.238c-.583 1.918-1.988 3.708-3.35 4.9-1.123.98-1.901 1.13-2.636 1.811A3.455 3.455 0 000 22.668a3.636 3.636 0 003.004 3.58c1.34.255 2.615-.363 3.026-.49 2.787-.874 6.288-.767 8.817-.043 2.096.596 3.89 1.662 5.576 3.004.821.64 1.426 1.513 2.29 2.11 2.205 1.533 5.987 1.853 8.407-1.237 1.643-2.045 2.032-5.645-.605-8.074z" fill="#1D2025"/><path fill-rule="evenodd" clip-rule="evenodd" d="M20.098 10.269c-.82 0-1.123.639-1.123 1.108v.852c-.843-1.13-1.989-1.854-3.545-1.854-1.275 0-2.355.512-3.241 1.513-.886 1.001-1.34 2.237-1.34 3.643 0 1.428.454 2.642 1.34 3.643.907 1.023 1.988 1.513 3.241 1.513 1.665 0 2.832-.895 3.545-1.875v.916c0 .405.345 1.065 1.123 1.065s1.103-.66 1.103-1.107v-8.33c0-.704-.627-1.087-1.103-1.087zm-4.063 8.394c-1.707 0-2.939-1.534-2.939-3.175 0-1.746 1.254-3.174 2.94-3.174 1.793 0 2.939 1.598 2.939 3.175 0 1.661-1.21 3.174-2.94 3.174z" fill="#fff"/><path fill-rule="evenodd" clip-rule="evenodd" d="M63.602 8.33c-1.037-.405-1.816.362-2.01.874l-3.76 9.715-3.76-9.715c-.195-.49-.973-1.279-2.01-.874-1.124.426-1.06 1.47-.887 1.939 0 0 3.134 8.096 4.15 10.716.583 1.513 1.729 1.832 2.485 1.832.756 0 1.902-.32 2.485-1.832 1.016-2.62 4.15-10.716 4.15-10.716.238-.469.28-1.513-.843-1.939zm-15.927-.128c-1.124 0-1.578.874-1.578 1.513v1.193C44.93 9.353 43.352 8.33 41.191 8.33c-1.75 0-3.263.703-4.495 2.088-1.232 1.406-1.859 3.09-1.859 5.07 0 1.96.627 3.644 1.859 5.05 1.232 1.406 2.745 2.109 4.495 2.109 2.313 0 3.912-1.236 4.906-2.6v1.279c0 .575.475 1.47 1.556 1.47 1.08 0 1.534-.916 1.534-1.513V9.736c.022-.98-.843-1.534-1.512-1.534zM42.012 19.9c-2.355 0-4.063-2.13-4.063-4.41 0-2.408 1.751-4.39 4.063-4.39 2.486 0 4.063 2.195 4.063 4.39 0 2.322-1.685 4.41-4.063 4.41zM78.039 8.202c-1.124 0-1.578.874-1.578 1.513v1.193c-1.167-1.555-2.745-2.578-4.906-2.578-1.75 0-3.263.703-4.495 2.088-1.232 1.406-1.859 3.09-1.859 5.07 0 1.96.627 3.644 1.859 5.05 1.232 1.406 2.745 2.109 4.495 2.109 2.313 0 3.912-1.236 4.906-2.6v1.279c0 .575.475 1.47 1.556 1.47 1.08 0 1.534-.916 1.534-1.513V9.736c0-.98-.842-1.534-1.512-1.534zM72.376 19.9c-2.355 0-4.063-2.13-4.063-4.41 0-2.408 1.751-4.39 4.063-4.39 2.486 0 4.063 2.195 4.063 4.39-.021 2.322-1.685 4.41-4.063 4.41z" fill="#1D2025"/><path d="M82.166 21.113c-.345-.192-.626-.596-.626-1.13 0-.724.562-1.299 1.318-1.299.281 0 .519.085.713.192 1.383.916 2.81 1.363 4.106 1.363 1.405 0 2.226-.596 2.226-1.512v-.043c0-1.086-1.512-1.406-3.198-1.917-2.118-.597-4.474-1.492-4.474-4.197v-.043c0-2.663 2.248-4.303 5.079-4.303 1.513 0 3.112.426 4.495 1.15.454.234.778.66.778 1.236 0 .745-.605 1.3-1.361 1.3-.281 0-.432-.065-.649-.171-1.167-.597-2.355-.959-3.35-.959-1.275 0-2.01.597-2.01 1.385v.043c0 1.043 1.535 1.406 3.22 1.938 2.075.64 4.431 1.62 4.431 4.155v.042c0 2.962-2.334 4.432-5.295 4.432-1.772.021-3.76-.533-5.403-1.662zm13.702-2.407v-7.33h-.627a1.392 1.392 0 01-1.404-1.384c0-.767.626-1.385 1.404-1.385h.627V6.434c0-.874.648-1.598 1.556-1.598.886 0 1.534.724 1.534 1.598v2.173h2.442c.778 0 1.427.618 1.427 1.385s-.649 1.385-1.427 1.385h-2.442v6.817c0 1.257.735 1.747 1.837 1.747.389 0 .692-.085.822-.085.734 0 1.383.575 1.383 1.32 0 .576-.411 1.066-.865 1.258a6.705 6.705 0 01-2.247.362c-2.4.021-4.02-1.023-4.02-4.09z" fill="#1D2025"/></svg>