<svg width="32" height="770.003" viewBox="0 0 8.467 203.73" xmlns="http://www.w3.org/2000/svg" xmlns:xlink="http://www.w3.org/1999/xlink"><defs><linearGradient id="a" x1="16" x2="16" y2="32" gradientUnits="userSpaceOnUse"><stop offset="0"/><stop stop-opacity=".5" offset="1"/></linearGradient><linearGradient id="f" x1="16" x2="16" y2="32" gradientTransform="translate(-7.22 78.303) scale(.26458)" gradientUnits="userSpaceOnUse" xlink:href="#a"/><linearGradient id="e" x1="16" x2="16" y2="32" gradientTransform="translate(-7.22 56.607) scale(.26458)" gradientUnits="userSpaceOnUse" xlink:href="#a"/><linearGradient id="d" x1="16" x2="16" y2="32" gradientTransform="translate(-7.22 34.911) scale(.26458)" gradientUnits="userSpaceOnUse" xlink:href="#a"/><linearGradient id="c" x1="16" x2="16" y2="32" gradientTransform="translate(-7.22 99.999) scale(.26458)" gradientUnits="userSpaceOnUse" xlink:href="#a"/><linearGradient id="b" x1="16" x2="16" y2="32" gradientTransform="translate(-7.22 13.215) scale(.26458)" gradientUnits="userSpaceOnUse" xlink:href="#a"/></defs><g transform="translate(7.22 -13.215)" stroke-width=".265"><circle cx="-2.986" cy="125.93" r="4.233" fill="#767676"/><circle cx="-2.986" cy="17.449" r="4.233" fill="#aaa"/><circle cx="-2.986" cy="17.449" r="4.233" fill="url(#b)" fill-opacity=".8"/><circle cx="-2.986" cy="212.71" r="4.233" fill="#fc0"/><circle cx="-2.986" cy="104.23" r="4.233" fill="#fc0"/><circle cx="-2.986" cy="104.23" r="4.233" fill="url(#c)" fill-opacity=".8"/><circle cx="-2.986" cy="147.62" r="4.233" fill="#ff7800"/><circle cx="-2.986" cy="39.145" r="4.233" fill="#ff7800"/><circle cx="-2.986" cy="39.145" r="4.233" fill="url(#d)" fill-opacity=".8"/><circle cx="-2.986" cy="169.32" r="4.233" fill="#00b451"/><circle cx="-2.986" cy="60.84" r="4.233" fill="#00b451"/><circle cx="-2.986" cy="60.84" r="4.233" fill="url(#e)" fill-opacity=".8"/><circle cx="-2.986" cy="191.02" r="4.233" fill="#4d76c4"/><circle cx="-2.986" cy="82.536" r="4.233" fill="#4d76c4"/><circle cx="-2.986" cy="82.536" r="4.233" fill="url(#f)" fill-opacity=".8"/></g></svg>