<svg width="17" height="14" fill="none" xmlns="http://www.w3.org/2000/svg"><path fill-rule="evenodd" clip-rule="evenodd" d="M15.256 3.483l.012.458C15.268 8.613 11.76 14 5.346 14A9.762 9.762 0 010 12.41c.273.03.55.048.832.048a6.945 6.945 0 004.331-1.51c-1.526-.029-2.813-1.051-3.257-2.456.213.042.43.065.656.065.318 0 .627-.044.92-.124C1.885 8.108.683 6.678.683 4.966v-.044c.47.265 1.008.424 1.58.444a3.55 3.55 0 01-1.55-2.943c0-.648.17-1.256.472-1.777 1.72 2.14 4.289 3.547 7.187 3.694a3.608 3.608 0 01-.09-.806C8.282 1.583 9.844 0 11.77 0c1.004 0 1.908.428 2.545 1.117a6.976 6.976 0 002.216-.859 3.54 3.54 0 01-1.533 1.955A6.868 6.868 0 0017 1.656a7.014 7.014 0 01-1.744 1.827z" fill="#868F96"/></svg>